<svg width="40" height="40" xmlns="http://www.w3.org/2000/svg"><g fill="#FF757C" fill-rule="evenodd"><path d="M19.976 39.951c11.014 0 19.975-8.961 19.975-19.975C39.951 8.96 30.99 0 19.976 0 8.96 0 0 8.961 0 19.976 0 30.99 8.961 39.95 19.976 39.95zm0-37.955c9.914 0 17.98 8.065 17.98 17.98 0 9.914-8.066 17.98-17.98 17.98-9.915 0-17.98-8.066-17.98-17.98 0-9.915 8.065-17.98 17.98-17.98z" opacity=".684"/><path d="M13.552 26.397c.238.238.544.357.86.357.318 0 .624-.12.862-.357l4.71-4.71 4.71 4.71c.237.238.544.357.86.357.317 0 .624-.12.861-.357a1.206 1.206 0 000-1.711l-4.73-4.71 4.71-4.71a1.206 1.206 0 000-1.712 1.206 1.206 0 00-1.711 0l-4.71 4.71-4.71-4.71a1.206 1.206 0 00-1.712 0 1.206 1.206 0 000 1.712l4.71 4.71-4.71 4.71a1.206 1.206 0 000 1.711z"/></g></svg>