<svg width="50" height="50" viewBox="0 0 50 50" fill="none" xmlns="http://www.w3.org/2000/svg">
<path d="M48.4375 38.1836C47.6285 38.1836 46.9727 38.8395 46.9727 39.6484V42.0898H44.043V40.625C44.043 39.816 43.3871 39.1602 42.5781 39.1602C41.7691 39.1602 41.1133 39.816 41.1133 40.625V42.0898H38.1836V39.6484C38.1836 38.8395 37.5277 38.1836 36.7188 38.1836C35.9098 38.1836 35.2539 38.8395 35.2539 39.6484V42.0898H32.3242V40.625C32.3242 39.816 31.6684 39.1602 30.8594 39.1602C30.0504 39.1602 29.3945 39.816 29.3945 40.625V42.0898H26.4648V39.6484C26.4648 38.8395 25.809 38.1836 25 38.1836C24.191 38.1836 23.5352 38.8395 23.5352 39.6484V42.0898H20.6055V40.625C20.6055 39.816 19.9496 39.1602 19.1406 39.1602C18.3316 39.1602 17.6758 39.816 17.6758 40.625V42.0898H14.7461V39.6484C14.7461 38.8395 14.0902 38.1836 13.2812 38.1836C12.4723 38.1836 11.8164 38.8395 11.8164 39.6484V42.0898H8.88672V40.625C8.88672 39.816 8.23086 39.1602 7.42188 39.1602C6.61289 39.1602 5.95703 39.816 5.95703 40.625V42.0898H3.02734V39.6484C3.02734 38.8395 2.37148 38.1836 1.5625 38.1836C0.753516 38.1836 0.0976562 38.8395 0.0976562 39.6484V43.5547C0.0976562 44.3637 0.753516 45.0195 1.5625 45.0195H48.4375C49.2465 45.0195 49.9023 44.3637 49.9023 43.5547V39.6484C49.9023 38.8395 49.2465 38.1836 48.4375 38.1836Z" fill="#E2DFF4"/>
<path d="M48.4375 45.0195C49.2465 45.0195 49.9023 44.3637 49.9023 43.5547V39.6484C49.9023 38.8395 49.2465 38.1836 48.4375 38.1836C47.6285 38.1836 46.9727 38.8395 46.9727 39.6484V42.0898H44.043V40.625C44.043 39.816 43.3871 39.1602 42.5781 39.1602C41.7691 39.1602 41.1133 39.816 41.1133 40.625V42.0898H38.1836V39.6484C38.1836 38.8395 37.5277 38.1836 36.7188 38.1836C35.9098 38.1836 35.2539 38.8395 35.2539 39.6484V42.0898H32.3242V40.625C32.3242 39.816 31.6684 39.1602 30.8594 39.1602C30.0504 39.1602 29.3945 39.816 29.3945 40.625V42.0898H26.4648V39.6484C26.4648 38.8395 25.809 38.1836 25 38.1836V45.0195H48.4375Z" fill="#E2DFF4"/>
<path d="M40.625 17.1875L36.9865 10.5168C35.6175 8.00693 32.9868 6.44531 30.1279 6.44531H14.8471C11.5618 6.44531 8.62764 8.50059 7.50488 11.588L5.46875 17.1875H40.625Z" fill="#C8FFFF"/>
<path d="M30.1279 6.44531H25V17.1875H40.625L36.9865 10.5168C35.6175 8.00693 32.9868 6.44531 30.1279 6.44531Z" fill="#ACCEFF"/>
<path d="M41.911 16.486L38.2724 9.81533C36.6458 6.83311 33.525 4.98047 30.128 4.98047H14.8471C10.9603 4.98047 7.45649 7.43467 6.12836 11.0874L4.09213 16.6869C3.92876 17.136 3.99487 17.6365 4.26899 18.0278C4.54311 18.4192 4.99086 18.6523 5.46879 18.6523H40.625C41.142 18.6523 41.6207 18.3798 41.8846 17.9353C42.1486 17.4906 42.1585 16.9399 41.911 16.486ZM16.6993 7.91016H25V15.7227H16.6993V7.91016ZM8.88159 12.0886C9.66557 9.93262 11.5576 8.38799 13.7696 8.0041V15.7227H7.5601L8.88159 12.0886ZM27.9297 15.7227V7.91016H30.128C32.4523 7.91016 34.5875 9.17773 35.7004 11.2183L38.1574 15.7227H27.9297Z" fill="#78C858"/>
<path d="M38.2724 9.81543C36.6458 6.83311 33.525 4.98047 30.1279 4.98047H25V18.6523H40.625C41.142 18.6523 41.6207 18.3798 41.8846 17.9353C42.1484 17.4906 42.1585 16.9399 41.9109 16.486L38.2724 9.81543ZM27.9297 15.7227V7.91016H30.1279C32.4522 7.91016 34.5875 9.17773 35.7004 11.2183L38.1573 15.7227H27.9297Z" fill="#56BA2E"/>
<path d="M48.5352 30.3711H1.46484C0.655859 30.3711 0 29.7152 0 28.9062V21.1914C0 18.176 2.45322 15.7227 5.46875 15.7227H42.6758C46.7144 15.7227 50 19.0083 50 23.0469V28.9062C50 29.7152 49.3441 30.3711 48.5352 30.3711Z" fill="#78C858"/>
<path d="M42.6758 15.7227H25V30.3711H48.5352C49.3441 30.3711 50 29.7152 50 28.9062V23.0469C50 19.0083 46.7144 15.7227 42.6758 15.7227Z" fill="#56BA2E"/>
<path d="M28.9062 24.5117H26.9531C26.1441 24.5117 25.4883 23.8559 25.4883 23.0469C25.4883 22.2379 26.1441 21.582 26.9531 21.582H28.9062C29.7152 21.582 30.3711 22.2379 30.3711 23.0469C30.3711 23.8559 29.7152 24.5117 28.9062 24.5117Z" fill="#327EEB"/>
<path d="M10.3516 34.2773C13.3179 34.2773 15.7227 31.8726 15.7227 28.9062C15.7227 25.9399 13.3179 23.5352 10.3516 23.5352C7.38519 23.5352 4.98047 25.9399 4.98047 28.9062C4.98047 31.8726 7.38519 34.2773 10.3516 34.2773Z" fill="#327EEB"/>
<path d="M10.3516 23.5352V34.2773C13.3132 34.2773 15.7227 31.8679 15.7227 28.9062C15.7227 25.9446 13.3132 23.5352 10.3516 23.5352Z" fill="#2767C1"/>
<path d="M10.3516 31.3477C11.6999 31.3477 12.793 30.2546 12.793 28.9062C12.793 27.5579 11.6999 26.4648 10.3516 26.4648C9.00321 26.4648 7.91016 27.5579 7.91016 28.9062C7.91016 30.2546 9.00321 31.3477 10.3516 31.3477Z" fill="#F1F1F4"/>
<path d="M10.3516 26.4648V31.3477C11.6978 31.3477 12.793 30.2524 12.793 28.9062C12.793 27.5601 11.6978 26.4648 10.3516 26.4648Z" fill="#E2DFF4"/>
<path d="M39.6484 34.2773C42.6148 34.2773 45.0195 31.8726 45.0195 28.9062C45.0195 25.9399 42.6148 23.5352 39.6484 23.5352C36.6821 23.5352 34.2773 25.9399 34.2773 28.9062C34.2773 31.8726 36.6821 34.2773 39.6484 34.2773Z" fill="#327EEB"/>
<path d="M39.6484 23.5352V34.2773C42.6101 34.2773 45.0195 31.8679 45.0195 28.9062C45.0195 25.9446 42.6101 23.5352 39.6484 23.5352Z" fill="#2767C1"/>
<path d="M39.6484 31.3477C40.9968 31.3477 42.0898 30.2546 42.0898 28.9062C42.0898 27.5579 40.9968 26.4648 39.6484 26.4648C38.3001 26.4648 37.207 27.5579 37.207 28.9062C37.207 30.2546 38.3001 31.3477 39.6484 31.3477Z" fill="#F1F1F4"/>
<path d="M39.6484 31.3477C40.9946 31.3477 42.0898 30.2524 42.0898 28.9062C42.0898 27.5601 40.9946 26.4648 39.6484 26.4648V31.3477Z" fill="#E2DFF4"/>
</svg>
