<svg width="40" height="40" xmlns="http://www.w3.org/2000/svg"><g fill="#79C930" fill-rule="evenodd"><path d="M20 0C8.972 0 0 8.972 0 20s8.972 20 20 20 20-8.972 20-20S31.028 0 20 0zm0 38.667C9.707 38.667 1.333 30.293 1.333 20 1.333 9.707 9.707 1.333 20 1.333c10.293 0 18.667 8.374 18.667 18.667 0 10.293-8.374 18.667-18.667 18.667z"/><path d="M20.667 17.347v-6.761a.666.666 0 10-1.334 0v6.761a2.663 2.663 0 00-1.905 1.906h-4.761a.666.666 0 100 1.333h4.761a2.664 2.664 0 002.572 2 2.67 2.67 0 002.667-2.667c0-1.239-.854-2.274-2-2.572zM20 21.253a1.335 1.335 0 01-1.333-1.334c0-.735.598-1.333 1.333-1.333s1.333.598 1.333 1.333c0 .736-.598 1.334-1.333 1.334zM20 6.586a.666.666 0 00.667-.667v-.666a.666.666 0 10-1.334 0v.666c0 .369.299.667.667.667zM20 33.253a.666.666 0 00-.667.666v.667a.666.666 0 101.334 0v-.667a.666.666 0 00-.667-.666zM34.667 19.253H34a.666.666 0 100 1.333h.667a.666.666 0 100-1.333zM6 19.253h-.667a.666.666 0 100 1.333H6a.666.666 0 100-1.333zM29.9 9.077l-.472.471a.666.666 0 10.943.943l.471-.472a.666.666 0 10-.943-.942zM9.63 29.347l-.472.472a.666.666 0 10.943.942l.471-.471a.666.666 0 10-.943-.943zM30.37 29.347a.666.666 0 10-.942.943l.471.471a.665.665 0 00.943 0 .666.666 0 000-.942l-.471-.472zM10.1 9.077a.666.666 0 10-.942.942l.471.472a.665.665 0 00.943 0 .666.666 0 000-.943l-.471-.471z"/></g></svg>