<svg width="40" height="40" viewBox="0 0 40 40" fill="none" xmlns="http://www.w3.org/2000/svg">
<g clip-path="url(#clip0)">
<path d="M35.1717 11.8427V32.5152C35.1723 32.6557 35.1573 32.7958 35.1268 32.9328L34.9926 33.3801C34.6594 34.1447 33.9027 34.6374 33.0687 34.6328H2.10328C1.13293 34.6301 0.28963 33.9658 0.0598504 33.0231C0.0171393 32.8573 -0.00289195 32.6864 0.000336222 32.5152V7.17188C-0.00156757 6.17694 0.803488 5.36883 1.79843 5.367H1.8053H11.0138C11.6568 5.36924 12.2514 5.70911 12.5797 6.26212L14.7573 10.0358H33.3809C34.3742 10.0402 35.176 10.8488 35.1717 11.8422V11.8427Z" fill="#3B88F5"/>
<path d="M38.1764 14.977C39.184 14.9771 40.0008 15.7939 40.0007 16.8015C40.0007 16.983 39.9735 17.1635 39.9203 17.337L35.1265 32.9329L34.9923 33.3802C34.6591 34.1448 33.9024 34.6375 33.0684 34.6329H2.10398C1.13362 34.6302 0.290326 33.9658 0.0605469 33.0231L5.08498 16.2755C5.31683 15.5053 6.02595 14.9777 6.83035 14.977H38.1764Z" fill="#5199FF"/>
</g>
<defs>
<clipPath id="clip0">
<rect width="40" height="40" fill="white"/>
</clipPath>
</defs>
</svg>
