<svg width="18" height="16" xmlns="http://www.w3.org/2000/svg"><g fill="#FFF" fill-rule="evenodd"><path d="M6.726 10.552l2.932.896a.372.372 0 01-.019.06c-.078.215-.239.336-.5.377-.964.154-2.562.057-2.577.057a.448.448 0 00-.474.421.45.45 0 00.418.478c.07.004 1.71.106 2.775-.067 1.057-.17 1.359-1.107 1.303-1.698a.452.452 0 00-.317-.392L6.984 9.683c-1.62-.493-3.398.418-3.473.455-.007.004-.019.008-.026.015L.217 12.145a.451.451 0 00.463.776l3.253-1.977c.142-.075 1.572-.764 2.793-.392z"/><path d="M17.915 9.796c-.258-.475-1.06-1.231-2.278-.69-1.15.517-3.582 1.695-3.608 1.706a.45.45 0 00.389.813c.026-.011 2.442-1.186 3.58-1.694.326-.147.598-.147.834 0 .007.004.01.008.018.012l-6.09 4.498c-.434.32-.983.452-1.51.37l-5.433-.874a.458.458 0 00-.358.098L2.084 15.19a.452.452 0 00.288.798c.1 0 .202-.034.288-.106l1.217-1.024 5.236.844a2.913 2.913 0 002.18-.531l6.498-4.797a.457.457 0 00.124-.58zM9.613 9.276c.698 0 1.352-.275 1.849-.772a2.649 2.649 0 000-3.723 2.588 2.588 0 00-1.849-.772c-.698 0-1.352.275-1.849.772a2.649 2.649 0 000 3.723c.497.497 1.15.772 1.849.772zM8.399 5.421a1.696 1.696 0 011.214-.508c.46 0 .889.18 1.214.508a1.744 1.744 0 010 2.447 1.696 1.696 0 01-1.214.508c-.46 0-.889-.18-1.214-.508a1.744 1.744 0 010-2.447zM12.679 4.13c.545 0 1.057-.215 1.442-.603a2.068 2.068 0 000-2.906A2.017 2.017 0 0012.679.02c-.545 0-1.057.214-1.441.602a2.068 2.068 0 000 2.906c.384.392.9.603 1.441.603zm-.807-2.869a1.134 1.134 0 011.62 0 1.163 1.163 0 01.001 1.63 1.134 1.134 0 01-.81.339c-.306 0-.594-.12-.81-.339a1.163 1.163 0 010-1.63z"/></g></svg>