<svg width="24" height="24" viewBox="0 0 24 24" fill="none" xmlns="http://www.w3.org/2000/svg">
<g clip-path="url(#clip0)">
<path d="M14.3504 15.5517C18.2807 15.5517 21.4668 12.3655 21.4668 8.43519C21.4668 4.50486 18.2807 1.31871 14.3504 1.31871C10.42 1.31871 7.23389 4.50486 7.23389 8.43519C7.23389 12.3655 10.42 15.5517 14.3504 15.5517Z" fill="#D5EFC8"/>
<path d="M14.344 15.7943C14.1441 15.7943 13.9819 15.6322 13.9819 15.4322V11.3678C13.9819 11.1678 14.1441 11.0057 14.344 11.0057C14.544 11.0057 14.7061 11.1678 14.7061 11.3678V15.4322C14.7061 15.6322 14.544 15.7943 14.344 15.7943Z" fill="#97DA7B"/>
<path d="M14.3439 12.7643L12.9045 11.6989C10.8889 10.207 10.8988 7.18806 12.9242 5.70944L14.1504 4.81424C14.2466 4.74399 14.3839 4.79376 14.4121 4.90954C14.5442 5.45235 14.5161 6.01819 14.3439 6.60474L15.0393 7.88991L14.3439 12.7643Z" fill="#ADE194"/>
<path d="M16.3131 3.80246L15.5027 5.28823C15.4331 5.41569 15.3477 5.53383 15.2484 5.63976L13.9471 7.02776C13.2953 7.72304 13.069 8.71583 13.3553 9.62494L14.3437 12.7643L16.5989 10.4321C18.3649 8.60589 18.5222 5.76012 16.9684 3.75037C16.7951 3.52621 16.4488 3.55373 16.3131 3.80246Z" fill="#80D261"/>
<path d="M10.2759 16.5692L13.5367 14.7811C15.6012 13.6491 18.1538 13.9327 19.9194 15.4903L21.2495 16.6638V18.0143L11.399 21.0548L10.2759 18.0811V16.5692Z" fill="#F2C94C"/>
<path d="M23.8989 16.7891C23.6633 16.2793 23.0786 16.0321 22.5485 16.2184L15.2051 18.8009C15.207 18.799 15.2085 18.7976 15.2104 18.7956C15.4455 18.561 15.5909 18.2361 15.5909 17.8773C15.5909 17.4235 15.3581 17.0242 15.0052 16.792C14.801 16.6573 14.5557 16.5791 14.2926 16.5791H10.8382H9.82284C9.38156 16.1378 8.78288 15.8896 8.15862 15.8896H2.14746V21.6857L4.58348 21.6239L4.7964 21.8073C5.45107 22.3712 6.2868 22.6812 7.15102 22.6812H13.9049C14.4823 22.6812 15.0516 22.5426 15.5643 22.2771L23.4113 18.2134C23.784 18.0202 23.9998 17.6403 23.9998 17.2454C23.9998 17.0923 23.9675 16.9368 23.8989 16.7891Z" fill="#FFCEBF"/>
<path d="M10.5535 19.1661H14.2879C15.005 19.1661 15.5863 18.5847 15.5863 17.8677C15.5863 17.1506 15.005 16.5693 14.2879 16.5693H9.81814H9.55371L9.81814 19.1661H10.5535V19.1661Z" fill="#FFCEBF"/>
<path d="M14.2881 18.1485H10.5538C10.1476 18.1485 9.81836 18.4777 9.81836 18.8839V19.0789C9.81836 19.1271 9.85742 19.1661 9.90555 19.1661H10.5537H14.2881C15.0052 19.1661 15.5865 18.5847 15.5865 17.8677C15.5865 17.6871 15.5495 17.5151 15.4829 17.3589C15.285 17.8231 14.8246 18.1485 14.2881 18.1485Z" fill="#FFB09E"/>
<path d="M23.771 16.8756L15.924 20.9393C15.4113 21.2048 14.842 21.3434 14.2646 21.3434H7.5107C6.64649 21.3434 5.81076 21.0335 5.15608 20.4695C5.01906 20.3515 4.84303 20.2886 4.66223 20.2932L2.50715 20.3479V15.8896H2.14746V21.6857L4.58348 21.6239L4.7964 21.8073C5.45107 22.3712 6.2868 22.6812 7.15102 22.6812H13.9049C14.4823 22.6812 15.0516 22.5426 15.5643 22.2771L23.4113 18.2134C23.784 18.0202 23.9998 17.6403 23.9998 17.2454C23.9998 17.0946 23.9688 16.9426 23.9023 16.7969C23.8611 16.826 23.817 16.8517 23.771 16.8756Z" fill="#FFB09E"/>
<path d="M3.40471 16.0282V21.5321C3.40471 21.5635 3.40229 21.5939 3.39795 21.6238C3.35353 21.9391 3.08268 22.1819 2.75486 22.1819H0.338829C0.151696 22.1819 0 22.0303 0 21.8431V15.7171C0 15.53 0.151696 15.3783 0.338829 15.3783H2.75486C3.06626 15.3783 3.32649 15.597 3.38974 15.8896C3.3994 15.934 3.40471 15.9804 3.40471 16.0282Z" fill="#5199FF"/>
</g>
<defs>
<clipPath id="clip0">
<rect width="24" height="24" fill="white"/>
</clipPath>
</defs>
</svg>
