<svg width="23" height="12" xmlns="http://www.w3.org/2000/svg"><path d="M22.19 1.344c-1.581-.928-3.378-.435-4.607.142l-3.662 1.721L7.622.015l-3.75.162 5.2 5.313-3.314 1.587-3.449-1.322L0 6.839 2.087 9.45c-.22.265-.42.638-.24 1.03.238.512.938.77 2.086.77.236 0 .49-.01.763-.032 1.261-.1 2.628-.425 3.482-.827l13.092-6.15c1.13-.532 1.694-1.09 1.722-1.706.014-.32-.113-.786-.802-1.19zm-1.32 2.032L7.778 9.527c-.728.342-1.923.629-3.045.73-1.147.104-1.76-.026-1.964-.137.042-.058.12-.15.265-.278l.34-.301-1.879-2.352.851-.4L5.8 8.113l4.883-2.337-4.639-4.738 1.374-.06 6.488 3.289 4.078-1.916c1.49-.7 2.744-.761 3.73-.183.248.146.335.273.333.323 0 .004-.029.346-1.176.885z" fill="#000" fill-rule="evenodd"/></svg>