<svg width="20" height="20" viewBox="0 0 20 20" fill="none" xmlns="http://www.w3.org/2000/svg">
<path d="M14.3023 5.44574L13.4451 5.76582C12.9914 5.34457 12.4464 5.02953 11.8548 4.84648L11.7036 3.94531H10.4325L10.2813 4.84645C9.68977 5.0291 9.14512 5.34477 8.69102 5.76578L7.83379 5.4457L7.19824 6.54648L7.90281 7.12785C7.76645 7.73199 7.7668 8.36152 7.90281 8.9659L7.19824 9.54727L7.83379 10.648L8.69105 10.328C9.14473 10.7493 9.68973 11.0643 10.2813 11.2474L10.4325 12.1484H11.7036L11.8548 11.2473C12.4464 11.0646 12.991 10.749 13.4451 10.328L14.3023 10.648L14.9379 9.54727L14.2333 8.9659C14.3697 8.36176 14.3693 7.73223 14.2333 7.12785L14.9379 6.54648L14.3023 5.44574ZM11.068 10.0307C9.97414 10.0307 9.08422 9.14078 9.08422 8.04688C9.08422 6.95301 9.97414 6.06305 11.068 6.06305C12.162 6.06305 13.0519 6.95301 13.0519 8.04688C13.0519 9.14078 12.162 10.0307 11.068 10.0307Z" fill="#A1D96E"/>
<path d="M11.0688 7.23494C10.6211 7.23494 10.2568 7.59919 10.2568 8.04689C10.2568 8.49462 10.6211 8.85888 11.0688 8.85888C11.5165 8.85888 11.8807 8.49462 11.8807 8.04689C11.8807 7.59919 11.5165 7.23494 11.0688 7.23494Z" fill="#A1D96E"/>
<path d="M19.0783 7.91592C19.0783 3.54406 15.5342 0 11.1624 0C7.64038 0 4.65597 2.29992 3.62847 5.47968L3.24722 7.83873L0.922852 11.6943V12.8631H2.77382L3.56152 17.1657H7.97237L8.64186 20H17.5489L16.446 13.8106C18.0619 12.3614 19.0783 10.2572 19.0783 7.91592ZM13.6639 11.6604C13.4241 11.8331 13.1687 11.9808 12.9001 12.1021L12.6956 13.3203H9.44139L9.23698 12.1021C8.96834 11.9808 8.71295 11.8331 8.47315 11.6604L7.31518 12.0927L5.688 9.27443L6.64136 8.48783C6.61241 8.19385 6.61241 7.89991 6.64136 7.60592L5.688 6.81932L7.31518 4.00105L8.47315 4.43339C8.71299 4.26066 8.96834 4.113 9.23698 3.99163L9.44139 2.77343H12.6956L12.9001 3.99159C13.1687 4.11296 13.424 4.26062 13.6639 4.43335L14.8219 4.00101L16.449 6.81928L15.4957 7.60588C15.5246 7.89987 15.5246 8.19381 15.4957 8.48779L16.449 9.2744L14.8219 12.0927L13.6639 11.6604Z" fill="#A1D96E"/>
</svg>
