<svg width="24" height="24" viewBox="0 0 24 24" fill="none" xmlns="http://www.w3.org/2000/svg">
<path d="M10.875 11.25V20.625C10.875 21.0228 10.717 21.4044 10.4357 21.6857C10.1544 21.967 9.77283 22.125 9.375 22.125H3C2.80298 22.1252 2.60786 22.0865 2.4258 22.0111C2.24375 21.9358 2.07833 21.8253 1.93901 21.686C1.79969 21.5467 1.68921 21.3813 1.61388 21.1992C1.53855 21.0171 1.49985 20.822 1.5 20.625V11.25C1.5 10.8522 1.65804 10.4706 1.93934 10.1893C2.22064 9.90804 2.60218 9.75 3 9.75H9.375C9.64032 9.74951 9.90099 9.81973 10.1302 9.95344C10.3243 10.0671 10.4907 10.2226 10.6172 10.4086C10.7857 10.6568 10.8756 10.95 10.875 11.25Z" fill="#D6D6D4"/>
<path d="M10.8749 11.25V20.625C10.8749 21.0228 10.7169 21.4043 10.4356 21.6857C10.1543 21.967 9.77273 22.125 9.3749 22.125H2.9999C2.6984 22.1246 2.40398 22.0336 2.15488 21.8637C1.90577 21.6939 1.7135 21.453 1.60303 21.1725C4.52521 18.765 7.71928 15.1809 10.1301 9.95343C10.3242 10.067 10.4906 10.2225 10.6171 10.4086C10.7856 10.6568 10.8755 10.95 10.8749 11.25Z" fill="#C7C7C5"/>
<path d="M3.75 11.625C3.75 11.4179 3.58211 11.25 3.375 11.25C3.16789 11.25 3 11.4179 3 11.625V20.25C3 20.4571 3.16789 20.625 3.375 20.625C3.58211 20.625 3.75 20.4571 3.75 20.25V11.625Z" fill="#BFBFBD"/>
<path d="M5.625 11.625C5.625 11.4179 5.45711 11.25 5.25 11.25C5.04289 11.25 4.875 11.4179 4.875 11.625V20.25C4.875 20.4571 5.04289 20.625 5.25 20.625C5.45711 20.625 5.625 20.4571 5.625 20.25V11.625Z" fill="#BFBFBD"/>
<path d="M7.5 11.625C7.5 11.4179 7.33211 11.25 7.125 11.25C6.91789 11.25 6.75 11.4179 6.75 11.625V20.25C6.75 20.4571 6.91789 20.625 7.125 20.625C7.33211 20.625 7.5 20.4571 7.5 20.25V11.625Z" fill="#BFBFBD"/>
<path d="M9.375 11.625C9.375 11.4179 9.20711 11.25 9 11.25C8.79289 11.25 8.625 11.4179 8.625 11.625V20.25C8.625 20.4571 8.79289 20.625 9 20.625C9.20711 20.625 9.375 20.4571 9.375 20.25V11.625Z" fill="#BFBFBD"/>
<path d="M4.125 23.25C4.95343 23.25 5.625 22.5784 5.625 21.75C5.625 20.9216 4.95343 20.25 4.125 20.25C3.29657 20.25 2.625 20.9216 2.625 21.75C2.625 22.5784 3.29657 23.25 4.125 23.25Z" fill="#56BA2E"/>
<path d="M8.625 23.25C8.42609 23.25 8.23532 23.171 8.09467 23.0303C7.95402 22.8897 7.875 22.6989 7.875 22.5V22.125H9.375V22.5C9.375 22.6989 9.29598 22.8897 9.15533 23.0303C9.01468 23.171 8.82391 23.25 8.625 23.25Z" fill="#56BA2E"/>
<path d="M7.5 1.5H4.5C4.08579 1.5 3.75 1.83579 3.75 2.25C3.75 2.66421 4.08579 3 4.5 3H7.5C7.91421 3 8.25 2.66421 8.25 2.25C8.25 1.83579 7.91421 1.5 7.5 1.5Z" fill="#E0E0DE"/>
<path d="M4.5 3H5.25V9.75H4.5V3Z" fill="#C7C7C5"/>
<path d="M6.75 3H7.5V9.75H6.75V3Z" fill="#C7C7C5"/>
<path d="M4.5 3H5.25V3.75H4.5V3Z" fill="#BFBFBD"/>
<path d="M6.75 3H7.5V3.75H6.75V3Z" fill="#BFBFBD"/>
<path d="M18.75 7.57125V5.625H16.125V15H18.75L19.1364 14.0984C19.4054 13.471 19.4694 12.7747 19.3195 12.1088C18.9836 10.6157 18.75 9.10158 18.75 7.57125Z" fill="#34495E"/>
<path d="M10.4997 10.875C10.1577 11.331 9.94196 11.869 9.87413 12.4349C9.80629 13.0008 9.88879 13.5745 10.1133 14.0984L10.4997 15H13.1247V10.125L12.3747 8.625L10.4997 10.875Z" fill="#34495E"/>
<path d="M18.375 14.25H16.125V11.25H13.125V14.25H10.875C10.3777 14.25 9.90081 14.4475 9.54917 14.7992C9.19754 15.1508 9 15.6277 9 16.125V23.25H20.25V16.125C20.25 15.6277 20.0525 15.1508 19.7008 14.7992C19.3492 14.4475 18.8723 14.25 18.375 14.25Z" fill="#FEC9A3"/>
<path d="M16.125 12.77V11.25H13.125V12.77C13.5906 13.0034 14.1042 13.125 14.625 13.125C15.1458 13.125 15.6594 13.0034 16.125 12.77Z" fill="#FEB784"/>
<path d="M18 6.375V9.00001C18 9.89511 17.6444 10.7536 17.0115 11.3865C16.3786 12.0194 15.5201 12.375 14.625 12.375C13.7299 12.375 12.8715 12.0194 12.2385 11.3865C11.6056 10.7536 11.25 9.89511 11.25 9.00001V6.375C11.25 5.57935 11.5661 4.81629 12.1287 4.25368C12.6913 3.69107 13.4544 3.375 14.25 3.375H15C15.394 3.37473 15.7843 3.45214 16.1484 3.60281C16.5125 3.75348 16.8433 3.97445 17.1219 4.25308C17.4006 4.53171 17.6215 4.86253 17.7722 5.22663C17.9229 5.59073 18.0003 5.98096 18 6.375Z" fill="#FEC9A3"/>
<path d="M14.625 10.5C14.3267 10.4997 14.0408 10.381 13.8299 10.1701C13.619 9.95922 13.5003 9.67327 13.5 9.375H14.25C14.25 9.47446 14.2895 9.56984 14.3598 9.64017C14.4302 9.71049 14.5255 9.75 14.625 9.75C14.7245 9.75 14.8198 9.71049 14.8902 9.64017C14.9605 9.56984 15 9.47446 15 9.375H15.75C15.7497 9.67327 15.631 9.95923 15.4201 10.1701C15.2092 10.381 14.9233 10.4997 14.625 10.5Z" fill="#F7A468"/>
<path d="M11.25 7.5H17.25V8.625H11.25V7.5Z" fill="#FEC093"/>
<path d="M17.9999 6.375V9C17.9996 9.50397 17.8864 10.0015 17.6688 10.456C17.4512 10.9106 17.1346 11.3107 16.7422 11.627C16.3499 11.9433 15.8917 12.1678 15.4013 12.284C14.911 12.4002 14.4008 12.4052 13.9082 12.2986C14.6174 12.0998 15.2422 11.6745 15.6873 11.0876C16.1324 10.5007 16.3733 9.78439 16.3734 9.04781V5.29781C16.3743 4.66107 16.1944 4.03716 15.8545 3.49875C16.4742 3.68301 17.0179 4.06254 17.4045 4.58082C17.7911 5.09911 18 5.72841 17.9999 6.375Z" fill="#FEC093"/>
<path d="M14.25 2.25C13.2554 2.25 12.3016 2.64509 11.5983 3.34835C10.8951 4.05161 10.5 5.00544 10.5 6V10.875L11.6879 9.44958C12.1319 8.91676 12.375 8.24513 12.375 7.55156C12.375 6.97809 12.5413 6.41693 12.8538 5.93608C13.1663 5.45523 13.6115 5.07533 14.1356 4.84242L15.75 4.125L15.8772 4.44291C16.2784 5.44595 17.0337 6.26687 18 6.75H18.75V6C18.75 5.00544 18.3549 4.05161 17.6517 3.34835C16.9484 2.64509 15.9946 2.25 15 2.25H14.25Z" fill="#31404F"/>
<path d="M18 6.75H18.375C18.6734 6.75 18.9595 6.86853 19.1705 7.0795C19.3815 7.29048 19.5 7.57663 19.5 7.875C19.5 8.17337 19.3815 8.45952 19.1705 8.6705C18.9595 8.88147 18.6734 9 18.375 9H18V6.75Z" fill="#FEB784"/>
<path d="M20.25 23.25V16.125C20.25 15.6277 20.0525 15.1508 19.7008 14.7992C19.3492 14.4475 18.8723 14.25 18.375 14.25L18.1231 14.6279C17.7392 15.2038 17.219 15.676 16.6088 16.0025C15.9985 16.3291 15.3171 16.5 14.625 16.5C13.9329 16.5 13.2515 16.3291 12.6412 16.0025C12.031 15.676 11.5108 15.2038 11.1269 14.6279L10.875 14.25C10.3777 14.25 9.90081 14.4475 9.54917 14.7992C9.19754 15.1508 9 15.6277 9 16.125V23.25" fill="#E0E0DE"/>
<path d="M20.25 16.125V23.25H9V16.125C9 15.6277 9.19754 15.1508 9.54917 14.7992C9.90081 14.4475 10.3777 14.25 10.875 14.25H12.375L14.625 20.25L16.875 14.25H18.375C18.6213 14.2499 18.8651 14.2983 19.0927 14.3925C19.3202 14.4866 19.527 14.6247 19.7011 14.7989C19.8753 14.973 20.0134 15.1798 20.1075 15.4073C20.2017 15.6349 20.2501 15.8787 20.25 16.125Z" fill="#5199FF"/>
<path d="M20.2501 16.125V23.25H11.9907C15.0128 21.4777 18.1445 18.8855 20.0078 15.203C20.167 15.4841 20.2505 15.8019 20.2501 16.125Z" fill="#3B8AFA"/>
<path d="M16.125 2.42223C15.8809 2.34555 15.6296 2.29418 15.375 2.26895V4.2917L15.75 4.12501L15.8772 4.44292C15.9372 4.59053 16.0052 4.73477 16.0808 4.87501H16.125V2.42223Z" fill="#82462A"/>
<path d="M18.698 18.5592L18.052 18.9408C18.5788 19.8329 18.4426 21.0158 17.7129 21.8837C17.6561 21.9513 17.625 22.0367 17.625 22.125V23.25H18.375V22.2576C19.2309 21.1568 19.3641 19.6875 18.698 18.5592Z" fill="#2873DC"/>
<path d="M11.1979 18.9408L10.5519 18.5592C9.88583 19.6875 10.019 21.1568 10.8749 22.2576V23.25H11.6249V22.125C11.6249 22.0367 11.5937 21.9513 11.537 21.8837C10.8073 21.0158 10.6711 19.8328 11.1979 18.9408Z" fill="#2873DC"/>
<path d="M20.625 4.125H8.625C7.58947 4.125 6.75 4.96447 6.75 6C6.75 7.03553 7.58947 7.875 8.625 7.875H20.625C21.6605 7.875 22.5 7.03553 22.5 6C22.5 4.96447 21.6605 4.125 20.625 4.125Z" fill="#F2C94C"/>
<path d="M18.75 5.25V6H10.5V5.25C10.4988 4.17805 10.9154 3.14782 11.6614 2.37807C12.4075 1.60832 13.4242 1.15965 14.4956 1.12735C14.5388 1.12547 14.5819 1.125 14.625 1.125C15.1669 1.12439 15.7036 1.23066 16.2043 1.43774C16.705 1.64483 17.16 1.94865 17.5432 2.33181C17.9264 2.71498 18.2302 3.16996 18.4373 3.6707C18.6443 4.17145 18.7506 4.70813 18.75 5.25Z" fill="#F2C94C"/>
<path d="M18.7499 5.25V6H16.5002C15.9204 3.53578 15.2393 2.10141 14.2085 1.12734C14.2516 1.12547 14.5817 1.125 14.6249 1.125C15.1666 1.125 15.703 1.2317 16.2034 1.439C16.7039 1.6463 17.1586 1.95014 17.5417 2.33318C17.9247 2.71623 18.2286 3.17096 18.4359 3.67143C18.6432 4.1719 18.7499 4.7083 18.7499 5.25Z" fill="#DAB237"/>
<path d="M18.75 5.25V6H10.5V5.25C10.5 4.99846 10.5227 4.74743 10.568 4.5H18.682C18.7273 4.74743 18.75 4.99846 18.75 5.25Z" fill="#DAB237"/>
<path d="M18.7497 5.25V6H16.4997C16.3994 5.43703 16.2972 4.94062 16.189 4.5H18.6818C18.727 4.74743 18.7498 4.99846 18.7497 5.25Z" fill="#C9A025"/>
</svg>
