<svg width="20" height="20" xmlns="http://www.w3.org/2000/svg"><g fill="#FFF" fill-rule="evenodd"><path d="M12.164 7.333H3.83a.333.333 0 100 .667h8.334a.333.333 0 100-.667zM3.83 5.333h3.334a.333.333 0 100-.666H3.83a.333.333 0 100 .666zM12.497 10.333a.333.333 0 00-.333-.333H3.83a.333.333 0 100 .667h8.334c.184 0 .333-.15.333-.334zM9.83 13a.333.333 0 00-.333-.333H3.83a.333.333 0 100 .666h5.667c.184 0 .333-.149.333-.333zM3.83 15.333a.333.333 0 100 .667h4.667a.333.333 0 100-.667H3.83z"/><path d="M.83.667h9.667v4.666h4.667v5h.666V4.862L10.968 0H.164v20h12.333v-.667H.83V.667zm10.334.471l3.528 3.529h-3.528V1.138z"/><path d="M19.744 19.43l-1.99-2.081a3.58 3.58 0 00.94-2.417 3.602 3.602 0 00-3.598-3.599 3.603 3.603 0 00-3.599 3.599 3.603 3.603 0 003.599 3.599c.814 0 1.563-.275 2.166-.732l2 2.092a.331.331 0 00.472.01.333.333 0 00.01-.47zm-7.58-4.498A2.935 2.935 0 0115.096 12a2.935 2.935 0 012.932 2.932 2.935 2.935 0 01-2.932 2.932 2.935 2.935 0 01-2.932-2.932z"/></g></svg>