<svg width="62" height="62" xmlns="http://www.w3.org/2000/svg" xmlns:xlink="http://www.w3.org/1999/xlink"><defs><circle id="a" cx="30" cy="30" r="30"/></defs><g transform="translate(1 1)" fill="none" fill-rule="evenodd"><mask id="b" fill="#fff"><use xlink:href="#a"/></mask><use stroke="#E3E6E7" fill="#FFF" xlink:href="#a"/><g mask="url(#b)"><path d="M30 0C13.432 0 0 13.45 0 30.041c0 16.592 13.432 30.042 30 30.042 16.568 0 30-13.45 30-30.042C60 13.45 46.568.001 30 .001z" fill="#3DB39E"/><path d="M42.449 20.916h4.22c.556 0 1.018.384 1.151.902a1.197 1.197 0 00-1.15-1.502h-4.221c-1.544 0-2.799-1.188-2.95-2.704-.01.1-.03.197-.03.3 0 1.66 1.334 3.004 2.98 3.004zm4.22 3.605h-8.611l-1.19-1.201h-.594l1.785 1.802h8.612c1.646 0 2.98-1.345 2.98-3.004 0-.103-.02-.2-.03-.3-.153 1.516-1.407 2.703-2.951 2.703z" fill="#37A18E"/><path d="M42.449 16.11h14.129a30.28 30.28 0 00-1.02-1.803h-13.11c-1.645 0-2.98 1.346-2.98 3.004 0 1.66 1.335 3.005 2.98 3.005h4.222c.659 0 1.192.538 1.192 1.201s-.534 1.202-1.192 1.202H36.274l1.784 1.802h8.612c1.646 0 2.98-1.345 2.98-3.004s-1.334-3.004-2.98-3.004H42.45a1.197 1.197 0 01-1.192-1.202c0-.663.533-1.201 1.192-1.201z" fill="#E4E7E7"/><path d="M24.6 23.732c0-1.162-.94-2.103-2.1-2.103-.734 0-1.377.378-1.753.949a2.084 2.084 0 011.153-.348 2.101 2.101 0 011.753 3.257c.57-.376.947-1.02.947-1.755zm9.221 23.125a2.08 2.08 0 01-2.943 0L17.014 33.114c-.1-.1-.823-1.22-.823-2.139l.006-11.604c0-.49.061-.86.187-1.145-.562.247-.787.772-.787 1.746l-.006 11.604c0 .918.723 2.039.823 2.14l13.864 13.741a2.08 2.08 0 002.943 0L44.993 35.68l.002-.003-11.174 11.18z" fill="#37A18E"/><path d="M45.593 32.133L31.859 18.26c-.102-.101-1.093-.825-2.117-.828-2.846.03-8.628.01-11.645.01-1.411 0-1.9.467-1.9 1.929l-.006 11.604c0 .918.723 2.04.823 2.14L30.88 46.856a2.08 2.08 0 002.943 0l11.771-11.779a2.085 2.085 0 000-2.945zM22.5 25.835c-1.16 0-2.1-.942-2.1-2.103 0-1.162.94-2.103 2.1-2.103 1.16 0 2.1.941 2.1 2.103 0 1.161-.94 2.103-2.1 2.103z" fill="#EFC75E"/><path d="M22.5 20.427c-1.823 0-3.3 1.48-3.3 3.305a3.302 3.302 0 003.3 3.304c1.823 0 3.3-1.479 3.3-3.304a3.302 3.302 0 00-3.3-3.305zm0 4.807a1.5 1.5 0 01-1.5-1.502 1.5 1.5 0 113 0 1.5 1.5 0 01-1.5 1.502z" fill="#30444D"/><path d="M32.4 31.242c1.325 0 2.4-1.076 2.4-2.403a2.402 2.402 0 00-2.4-2.403 2.402 2.402 0 00-2.4 2.403 2.402 2.402 0 002.4 2.403zm0-3.605a1.201 1.201 0 010 2.404 1.201 1.201 0 010-2.404zm0 8.412a2.402 2.402 0 00-2.4 2.403 2.402 2.402 0 002.4 2.403c1.325 0 2.4-1.076 2.4-2.403a2.402 2.402 0 00-2.4-2.403zm0 3.605a1.201 1.201 0 010-2.404 1.201 1.201 0 010 2.404zm6-6.61h-12a.6.6 0 000 1.202h12a.6.6 0 100-1.201z" fill="#D07C40"/><path fill="#CDCFCF" d="M37.937 22.719h-1.663l1.784 1.802h1.68z"/><path d="M.876 22.83a29.403 29.403 0 00-.382 1.803h23.2c.189-.252.306-.562.306-.901 0-.34-.117-.65-.307-.901H.876z" fill="#E4E7E7"/><path d="M45.593 32.133L31.859 18.26c-.102-.101-1.093-.825-2.117-.828-2.846.03-8.628.01-11.645.01-.939 0-1.463.215-1.713.784.282-.124.642-.182 1.113-.182 3.017 0 8.8.019 11.645-.011 1.024.003 2.015.726 2.117.828l13.734 13.872c.812.813.812 2.13.002 2.943l.598-.598a2.084 2.084 0 000-2.945z" fill="#F2D27E"/><path d="M56.578 16.11h-14.13a1.197 1.197 0 00-1.15 1.502 1.192 1.192 0 011.15-.901h14.437c-.1-.202-.203-.402-.307-.601zm-32.885 8.523H.622l-.128.6H22.5c.489 0 .92-.237 1.193-.6z" fill="#37A18E"/><path d="M16.194 25.234h4.839a2.091 2.091 0 01-.424-.6h-4.414l-.001.6z" fill="#D7B354"/><path d="M19.563 25.234H22.5c-.489 0-.92-.238-1.193-.6h-1.98c.06.209.139.41.236.6z" fill="#273A45"/><path fill="#319180" d="M15.595 25.234h.599v-.6h-.599z"/></g></g></svg>