<svg width="19" height="20" xmlns="http://www.w3.org/2000/svg"><path d="M18.673 7.625a.381.381 0 00-.537 0l-10.372 10.3a4.049 4.049 0 01-2.874 1.177c-1.09 0-2.11-.418-2.874-1.177A3.994 3.994 0 01.83 15.07c0-1.081.42-2.095 1.185-2.854l10.371-10.3c1.101-1.093 2.83-1.026 4.02.156 1.19 1.182 1.258 2.899.158 3.992L6.82 15.74a1.407 1.407 0 01-1.977 0 1.383 1.383 0 010-1.963l6.6-6.555a.375.375 0 000-.533.381.381 0 00-.537 0l-6.6 6.554a2.135 2.135 0 000 3.03 2.171 2.171 0 003.052 0l9.743-9.676c1.407-1.397 1.34-3.572-.157-5.059-1.496-1.486-3.687-1.553-5.095-.156l-10.372 10.3A4.739 4.739 0 00.07 15.07c0 1.284.5 2.487 1.408 3.388a4.806 4.806 0 003.412 1.399 4.807 4.807 0 003.412-1.399l10.371-10.3a.375.375 0 000-.533z" fill="#000" fill-rule="evenodd" opacity=".504"/></svg>