<svg width="20" height="20" viewBox="0 0 20 20" fill="none" xmlns="http://www.w3.org/2000/svg">
<path fill-rule="evenodd" clip-rule="evenodd" d="M13.4506 0.402693C14.5126 0.0992443 15.6196 0.714229 15.923 1.7763C15.9741 1.95498 16 2.13991 16 2.32574V4.00001H18C19.1046 4.00001 20 4.89544 20 6.00001V18C20 19.1046 19.1046 20 18 20H2C0.89543 20 0 19.1046 0 18H0.0267034C0.00895177 17.8925 0 17.7835 0 17.6743V5.75431C0 4.86135 0.591955 4.07658 1.45056 3.83126L13.4506 0.402693ZM8.14005 18H18V10H16V14.2457C16 15.1387 15.408 15.9234 14.5494 16.1688L8.14005 18ZM18 6.00001V8.00001H16V6.00001H18ZM2 5.75429V17.6743L14 14.2457V2.32571L2 5.75429ZM12 8.00001C12 8.5523 11.5523 9.00001 11 9.00001C10.4477 9.00001 10 8.5523 10 8.00001C10 7.44773 10.4477 7.00001 11 7.00001C11.5523 7.00001 12 7.44773 12 8.00001Z" fill="#778289"/>
</svg>
