<svg width="20" height="20" viewBox="0 0 20 20" fill="none" xmlns="http://www.w3.org/2000/svg">
<path d="M10.6638 17.4887V10.6461C13.8841 10.2773 16.1754 7.58087 16.1754 4.50496C16.1754 3.34218 15.8525 1.89593 15.2929 0.493901C15.174 0.195727 14.885 0 14.5641 0H5.43032C5.10925 0 4.82024 0.195727 4.70148 0.493942C4.19623 1.75985 3.80369 3.25205 3.82505 4.62901C3.82505 4.6303 3.82541 4.63159 3.82541 4.63284C3.8876 7.66648 6.16001 10.292 9.33029 10.6461V17.4887C7.23132 17.6604 5.62237 18.5934 5.62237 19.0625C5.62237 19.5807 7.5809 20 9.9973 20C12.4137 20 14.3724 19.5807 14.3724 19.0625C14.3724 18.5934 12.7629 17.6602 10.6638 17.4887ZM5.80756 1.33342H14.1867C14.6051 2.47439 14.842 3.61375 14.842 4.505C14.842 4.7214 14.8228 4.93344 14.7951 5.1427C14.3783 5.0388 13.9461 5.02507 13.4826 5.19006C12.2721 5.62105 11.4873 5.8971 10.2558 5.41414C9.03123 4.93356 8.2574 2.7506 6.78898 2.91669C6.2056 2.98235 5.70507 3.17424 5.25325 3.44079C5.35808 2.77935 5.54101 2.06057 5.80756 1.33342Z" fill="#A1D96E"/>
</svg>
