<svg width="20" height="20" viewBox="0 0 20 20" fill="none" xmlns="http://www.w3.org/2000/svg">
<path d="M16.754 1.5593H15.7621V3.61074C15.7621 3.93433 15.4997 4.19668 15.1762 4.19668C14.8526 4.19668 14.5902 3.93433 14.5902 3.61074V1.5593H5.41052V3.61074C5.41052 3.93433 5.14817 4.19668 4.82458 4.19668C4.50098 4.19668 4.23864 3.93433 4.23864 3.61074V1.5593H3.27766C1.48469 1.5593 0.03125 3.35543 0.03125 5.57109V5.8448H20.0004V5.57109C20.0004 3.35543 18.5469 1.5593 16.754 1.5593V1.5593Z" fill="#A1D96E"/>
<path d="M5.41016 0.585938C5.41016 0.262344 5.14781 0 4.82422 0C4.50062 0 4.23828 0.262344 4.23828 0.585938V1.5593H5.41016V0.585938Z" fill="#A1D96E"/>
<path d="M15.7617 0.585938C15.7617 0.262344 15.4994 0 15.1758 0C14.8522 0 14.5898 0.262344 14.5898 0.585938V1.5593H15.7617V0.585938Z" fill="#A1D96E"/>
<path d="M7.78223 12.2046V16.1527H12.2167V12.2046L9.99946 9.76397L7.78223 12.2046Z" fill="#A1D96E"/>
<path d="M0 7.01664V16.2502C0 18.3212 1.67789 20 3.7477 20H16.2523C18.3221 20 20 18.3212 20 16.2502V7.01664H0ZM13.6886 12.9528C13.6016 13.0318 13.4971 13.0795 13.3891 13.097V16.7387C13.3891 17.0623 13.1268 17.3246 12.8032 17.3246H7.19684C6.87324 17.3246 6.6109 17.0623 6.6109 16.7387V13.097C6.50285 13.0795 6.39848 13.0319 6.31141 12.9528C6.07188 12.7352 6.0541 12.3646 6.27172 12.1251C6.27172 12.1251 9.59316 8.47035 9.60465 8.46023C9.60512 8.4598 9.60551 8.45933 9.60598 8.45891C9.84547 8.24133 10.2161 8.25906 10.4337 8.49859L13.7283 12.1251C13.9459 12.3646 13.9281 12.7352 13.6886 12.9528Z" fill="#A1D96E"/>
</svg>
