<svg width="60" height="60" xmlns="http://www.w3.org/2000/svg" xmlns:xlink="http://www.w3.org/1999/xlink"><defs><circle id="a" cx="30" cy="30" r="30"/></defs><g fill="none" fill-rule="evenodd"><mask id="b" fill="#fff"><use xlink:href="#a"/></mask><use fill="#FFF" xlink:href="#a"/><g mask="url(#b)"><circle fill="#324A5E" cx="30" cy="30" r="30"/><path d="M19.524 58.11A29.914 29.914 0 0030 60c3.685 0 7.217-.673 10.476-1.89V46.063H19.524V58.11z" fill="#FF7058"/><path d="M33.992 14.906c.437 3.437-1.31 6.838-3.992 6.838-2.681 0-4.43-3.39-3.992-6.838.354-2.823 2.114-4.772 3.992-4.772 1.866 0 3.638 1.937 3.992 4.772z" fill="#F9B54C"/><path d="M45.886 32.138l-4.76 2.834h-22.63l-4.37-2.834 1.11-7.82c1.725-5.668 9.792-7.64 9.792-7.64l1.783 1.724 3.2 1.984 3.19-1.984 1.783-1.725s8.067 1.973 9.792 7.642l1.11 7.819z" fill="#FF7058"/><g fill="#FFF"><path d="M33.874 14.54S35.22 16.617 30 20.385c0 0 2.823-1.264 3.472 1.37 0 0 4.95-4.949.402-7.217zM26.126 14.54S24.78 16.617 30 20.385c0 0-2.823-1.264-3.472 1.37 0 0-4.95-4.949-.402-7.217z"/></g><path d="M35.374 9.319a.69.69 0 00-.26-.095c0-.13.012-.26.012-.39 0-3.838-2.291-5.149-5.114-5.149s-5.114 1.311-5.114 5.15c0 .13 0 .26.011.39a.976.976 0 00-.26.094c-.495.33-.484 1.24.036 2.031.2.296.437.532.685.697.815 2.906 2.587 5.504 4.654 5.504 2.067 0 3.838-2.61 4.653-5.504a2.57 2.57 0 00.685-.697c.496-.79.508-1.7.012-2.031z" fill="#FFD05B"/><path d="M35.764 6.744c0 .402-.06.78-.166 1.158H24.413a4.154 4.154 0 01-.165-1.158c0-2.716 2.575-4.925 5.752-4.925 3.177.012 5.764 2.22 5.764 4.925z" fill="#84DBFF"/><path d="M35.646 9.378c-.272.91-1.713 1.193-2.41.46-.886-.944-2.197-1.24-3.236-1.31-1.04.07-2.35.378-3.236 1.31-.697.733-2.126.45-2.41-.46-.141-.472-.177-1.075.012-1.819 0 0 2.055-.898 5.634-.933 3.579.024 5.634.933 5.634.933.177.744.153 1.335.012 1.819z" fill="#54C0EB"/><path d="M40.406 54.283H19.594a.25.25 0 01-.248-.248v-20.81a.25.25 0 01.248-.249h20.812a.25.25 0 01.248.248v20.811c-.012.13-.119.248-.248.248z" fill="#FFF"/><path fill="#F9B54C" d="M27.024 32.988h5.953v2.339h-5.953z"/><path d="M33.319 39.402h-6.65a.847.847 0 01-.85-.85c0-.473.378-.851.85-.851h6.65c.472 0 .85.378.85.85 0 .473-.378.85-.85.85z" fill="#324A5E"/><g fill="#FFD05B"><path d="M45.886 32.138s1.937 7.582 0 11.705l-4.394 8.976s-1.016 2.823-3.543 3.614h-1.666l.697-.744s3.048-2.173 2.433-4.972c0 0-1.452.46-1.24-.98 0 0 1.264-2.162 2.93-1.926 0 0-.509-5.48 1.44-8.622 0 0-2.799-4.441-1.748-6.248-.012.012.992-1.772 5.09-.803zM14.114 32.138s-1.937 7.582 0 11.705l4.394 8.976s1.016 2.823 3.543 3.614h1.666l-.697-.744s-3.048-2.173-2.433-4.972c0 0 1.452.46 1.24-.98 0 0-1.264-2.162-2.93-1.926 0 0 .509-5.48-1.44-8.622 0 0 2.799-4.441 1.748-6.248.012.012-.992-1.772-5.09-.803z"/></g></g></g></svg>