<svg width="20" height="20" viewBox="0 0 20 20" fill="none" xmlns="http://www.w3.org/2000/svg">
<path d="M12.739 7.7124C12.5334 7.7124 12.3927 7.73227 12.3198 7.75214V9.07837C12.407 9.09824 12.5125 9.10502 12.6598 9.10502C13.2001 9.10502 13.5322 8.83168 13.5322 8.37202C13.5322 7.95885 13.2458 7.7124 12.739 7.7124Z" fill="#79C930" fill-opacity="0.7"/>
<path d="M6.92629 7.69916C6.68037 7.69916 6.53968 7.71907 6.4668 7.73231V8.97156H6.86641C7.37307 8.97156 7.67253 8.71837 7.67253 8.32539C7.67253 7.91241 7.39245 7.7057 6.92629 7.69916Z" fill="#79C930" fill-opacity="0.7"/>
<path d="M17.722 17.58H16.7701V4.97166C16.7701 4.66279 16.5201 4.41239 16.211 4.41239H15.2912C15.2912 3.46351 14.4205 2.62565 13.0878 2.10999C12.7618 0.902353 11.5066 0 9.99939 0C8.49285 0 7.23765 0.902353 6.91166 2.10999C5.57896 2.62565 4.70783 3.46351 4.70783 4.41239H3.78851C3.47988 4.41239 3.22936 4.66275 3.22936 4.97166V17.58H2.27665C1.96826 17.58 1.71826 17.8303 1.71826 18.1392V19.4406C1.71826 19.7495 1.96826 20 2.27665 20H17.722C18.0312 20 18.282 19.7495 18.282 19.4406V18.1392C18.282 17.8303 18.0312 17.58 17.722 17.58ZM8.58206 11.2835C8.49156 11.401 8.35217 11.4703 8.20381 11.4703H8.16278C7.93947 11.4703 7.74298 11.3235 7.67902 11.1089C7.62628 10.9322 7.56639 10.7018 7.49936 10.4241C7.37955 9.8645 7.18564 9.71122 6.77271 9.70471H6.4669V10.9671C6.4669 11.245 6.24157 11.4703 5.96351 11.4703C5.68573 11.4703 5.46045 11.245 5.46045 10.9671V7.48501C5.46045 7.22456 5.65952 7.0067 5.91869 6.98409C6.18173 6.96091 6.48782 6.94621 6.81329 6.94621C7.48006 6.94621 7.94618 7.04623 8.26502 7.29946C8.5319 7.51263 8.67921 7.82575 8.67921 8.23889C8.67921 8.81185 8.2729 9.20512 7.88605 9.34464V9.36491C8.19876 9.49146 8.37183 9.79133 8.48522 10.2044C8.5464 10.4248 8.60758 10.6601 8.66415 10.87C8.70259 11.013 8.67251 11.1659 8.58206 11.2835ZM10.4329 10.9606C10.4329 11.2421 10.205 11.4704 9.92391 11.4704C9.64206 11.4704 9.41342 11.2421 9.41342 10.9606V7.39654C9.41342 7.115 9.64161 6.88681 9.92315 6.88681C10.2047 6.88681 10.4329 7.115 10.4329 7.39654V10.9606ZM14.1256 9.41143C13.778 9.73791 13.265 9.88445 12.666 9.88445C12.5332 9.88445 12.4121 9.87795 12.3196 9.86454V10.9671C12.3196 11.245 12.0943 11.4703 11.8165 11.4703C11.5384 11.4703 11.3131 11.245 11.3131 10.9671V7.41629C11.3131 7.15857 11.5215 6.94952 11.7793 6.94863C12.184 6.94722 12.6202 6.94617 12.6856 6.94617C13.3118 6.94617 13.7583 7.06594 14.058 7.30592C14.3443 7.53246 14.5384 7.9055 14.5384 8.34525C14.5385 8.78512 14.3912 9.15824 14.1256 9.41143Z" fill="#79C930" fill-opacity="0.7"/>
</svg>
