<svg width="29" height="31" xmlns="http://www.w3.org/2000/svg"><g fill="#FFF" fill-rule="evenodd"><path d="M28.789 8.39L20.973.182A.587.587 0 0020.548 0H8.9C7.596 0 6.536 1.071 6.536 2.388v8.343H1.815a1.78 1.78 0 00-1.769 1.787v8.945a1.78 1.78 0 001.769 1.787h4.72v5.366A2.377 2.377 0 008.9 31h17.69a2.376 2.376 0 002.364-2.383V8.803a.6.6 0 00-.165-.414zm-8.094-6.78l6.415 6.736h-6.415V1.61zM1.815 22.057a.592.592 0 01-.589-.595v-8.945c0-.328.264-.595.589-.595h15.93c.326 0 .59.267.59.595v8.945a.592.592 0 01-.59.595H1.816zm25.959 6.56c0 .656-.531 1.19-1.184 1.19H8.9a1.19 1.19 0 01-1.185-1.192V23.25h10.03a1.78 1.78 0 001.77-1.787v-8.945a1.78 1.78 0 00-1.77-1.787H7.716V2.388c0-.66.532-1.196 1.185-1.196h10.615v7.75c0 .33.264.596.59.596h7.669v19.08z"/><path d="M7.1 15.13a1.328 1.328 0 00-.73-.501c-.19-.051-.595-.077-1.217-.077H3.51v5.121h1.023v-1.932h.667c.464 0 .817-.024 1.062-.073.18-.04.356-.12.53-.243a1.4 1.4 0 00.43-.505c.114-.214.17-.478.17-.792 0-.408-.098-.74-.294-.998zm-.877 1.41a.673.673 0 01-.32.251c-.136.054-.406.08-.809.08h-.56V15.42h.494c.37 0 .615.011.737.034.166.03.303.106.411.227a.666.666 0 01.163.462.693.693 0 01-.116.398zM12.312 15.951a2.243 2.243 0 00-.484-.83 1.692 1.692 0 00-.764-.471c-.221-.065-.543-.098-.964-.098H8.23v5.121h1.925c.378 0 .68-.036.906-.108.301-.098.541-.234.719-.409.235-.23.415-.532.542-.905.104-.305.156-.668.156-1.09 0-.48-.056-.883-.166-1.21zm-.996 2.103c-.069.23-.158.394-.268.494a.94.94 0 01-.413.213c-.126.033-.333.05-.618.05h-.764v-3.392h.46c.416 0 .697.016.84.048a.97.97 0 01.473.241c.124.12.221.285.29.496.07.212.104.516.104.912s-.035.709-.104.938zM16.826 15.419v-.867h-3.474v5.121h1.024v-2.176h2.115v-.866h-2.115v-1.212z"/></g></svg>