<svg width="20" height="21" xmlns="http://www.w3.org/2000/svg"><g fill="#79C930" fill-rule="evenodd"><path d="M19.215 9.748L10.043.544a1.842 1.842 0 00-2.617 0l-5.023 5.04a1.889 1.889 0 000 2.648l.832.858h1.92L3.364 7.268a.517.517 0 010-.716l.664-.645L7.179 9.09h3.023L5.538 4.387 8.386 1.52a.5.5 0 01.348-.15c.077 0 .223.016.349.141l9.173 9.203a.492.492 0 01.145.349.522.522 0 01-.159.35l-.52.509v1.926l1.481-1.472a1.862 1.862 0 00.012-2.627z"/><path d="M14.912 9.953H1.938c-1.022 0-1.896.826-1.896 1.851v4.924H16.74v-4.924a1.83 1.83 0 00-1.827-1.85zM4.576 15.051c-.362 0-.69-.144-.932-.378-.242.234-.57.378-.931.378A1.349 1.349 0 011.366 13.7c0-.746.603-1.351 1.347-1.351.361 0 .69.144.931.377.242-.233.57-.377.932-.377.744 0 1.347.605 1.347 1.35 0 .748-.603 1.352-1.347 1.352zM.042 18.93c0 1.026.874 1.863 1.896 1.863h12.974c1.021 0 1.828-.837 1.828-1.862v-.11H.042v.11z"/></g></svg>