<svg width="20" height="20" viewBox="0 0 20 20" fill="none" xmlns="http://www.w3.org/2000/svg">
<g clip-path="url(#clip0)">
<path d="M19.9993 8.1194C19.9992 7.92479 19.9925 7.73117 19.9798 7.53879C19.094 7.53879 4.03441 7.53879 3.55767 7.53879L2.80257 5.08472C2.51118 4.13776 1.59964 3.47641 0.58592 3.47641C0.262336 3.47641 0 3.73875 0 4.06233C0 4.38591 0.262336 4.64825 0.58592 4.64825C1.08208 4.64825 1.54327 4.97676 1.68253 5.42932C2.65273 8.58243 2.55852 8.27768 2.57078 8.31369C2.58965 8.3688 2.68801 8.64345 3.67282 11.4009C4.03265 12.4085 5.16469 13.0855 6.48973 13.0855H8.50924L7.96223 14.4529C6.2579 14.1655 4.72642 15.4861 4.72642 17.1869C4.72642 18.7253 5.97217 19.9994 7.49978 19.9994C8.84244 19.9994 9.94717 19.0213 10.2114 17.7729H12.288C12.3979 18.2922 12.6528 18.7724 13.0335 19.1625C14.1231 20.279 15.8758 20.2793 16.9657 19.1625C17.4862 18.6291 17.773 17.9275 17.773 17.1869C17.773 15.4859 16.2412 14.1655 14.5372 14.4529L13.9901 13.0855H16.0096C17.3332 13.0855 18.4642 12.41 18.8253 11.4042C20.0354 8.13217 19.9993 8.27107 19.9993 8.1194ZM12.2891 16.601H10.2103C10.0571 15.8918 9.63233 15.2824 9.05013 14.8885L9.77139 13.0855H12.7279L13.4492 14.8885C12.867 15.2824 12.4422 15.8918 12.2891 16.601Z" fill="#A1D96E"/>
<path d="M19.8216 6.367C19.0988 2.83804 16.1578 0 12.4992 0H11.5617C11.3092 0 11.085 0.161792 11.0056 0.401512L9.02734 6.367H19.8216Z" fill="#A1D96E"/>
</g>
<defs>
<clipPath id="clip0">
<rect width="20" height="20" fill="white"/>
</clipPath>
</defs>
</svg>
