<svg width="30" height="30" xmlns="http://www.w3.org/2000/svg"><g fill="none" fill-rule="evenodd"><path d="M29.95 14.975C29.95 6.704 23.244 0 14.974 0S0 6.704 0 14.975c0 8.27 6.704 14.974 14.975 14.974 8.27 0 14.974-6.704 14.974-14.974z" fill="#3DB39E"/><path d="M8.343 10.478c0-.84.27-1.69.81-2.553.538-.862 1.325-1.576 2.36-2.142 1.034-.566 2.241-.849 3.62-.849 1.283 0 2.415.237 3.396.71.982.473 1.74 1.116 2.275 1.93.535.813.802 1.697.802 2.652 0 .752-.152 1.41-.458 1.977a6.049 6.049 0 01-1.087 1.465 79.396 79.396 0 01-2.261 2.076c-.301.274-.542.515-.723.723a2.932 2.932 0 00-.405.57 2.783 2.783 0 00-.205.517c-.05.173-.122.476-.22.909-.167.92-.693 1.38-1.578 1.38-.46 0-.846-.151-1.16-.452-.314-.3-.47-.747-.47-1.34 0-.742.114-1.385.344-1.93.23-.543.535-1.02.915-1.432.38-.41.893-.9 1.539-1.465.565-.495.974-.869 1.226-1.12.252-.253.465-.533.637-.843.173-.31.259-.645.259-1.008 0-.707-.263-1.304-.79-1.79-.526-.487-1.204-.73-2.035-.73-.973 0-1.69.245-2.149.736-.46.49-.849 1.214-1.167 2.169-.3.999-.871 1.498-1.711 1.498-.495 0-.913-.174-1.253-.524-.34-.349-.511-.727-.511-1.134zm6.472 14.537c-.539 0-1.01-.175-1.412-.524-.403-.35-.604-.838-.604-1.466 0-.557.195-1.025.584-1.406.389-.38.866-.57 1.432-.57.557 0 1.026.19 1.406.57.38.38.57.85.57 1.406 0 .62-.198 1.106-.596 1.46-.398.353-.858.53-1.38.53z" fill="#FFF"/></g></svg>