<svg width="20" height="20" viewBox="0 0 20 20" fill="none" xmlns="http://www.w3.org/2000/svg">
<g clip-path="url(#clip0)">
<path d="M2.52898 1.54514C2.23961 1.25598 1.89041 1.11113 1.48158 1.11113C1.07258 1.11113 0.723417 1.2561 0.43401 1.54514C0.144764 1.83455 0 2.18375 0 2.59271C0 3.14821 0.246801 3.57265 0.740687 3.86583V18.5186C0.740687 18.619 0.777253 18.7058 0.850709 18.779C0.923963 18.8523 1.0108 18.8889 1.11109 18.8889H1.85178C1.95207 18.8889 2.03886 18.8526 2.11216 18.779C2.18549 18.7058 2.2221 18.619 2.2221 18.5186V3.86583C2.71607 3.57249 2.96279 3.14817 2.96279 2.59271C2.96279 2.18387 2.81818 1.83471 2.52898 1.54514Z" fill="#A1D96E"/>
<path d="M19.7802 2.8128C19.6335 2.66617 19.4598 2.59283 19.2591 2.59283C19.159 2.59283 18.9486 2.67379 18.6284 2.83591C18.3083 2.99802 17.9687 3.17927 17.6099 3.37986C17.2514 3.58048 16.8266 3.76169 16.3369 3.92381C15.8469 4.08592 15.3935 4.16688 14.9771 4.16688C14.5911 4.16688 14.2516 4.09355 13.9582 3.947C12.986 3.4917 12.1414 3.15215 11.4236 2.92838C10.7061 2.70464 9.93457 2.59283 9.10892 2.59283C7.68138 2.59283 6.05719 3.05571 4.23626 3.98162C3.78859 4.20539 3.48386 4.37132 3.32182 4.47931C3.08256 4.65687 2.96289 4.86893 2.96289 5.1159V13.7037C2.96289 13.9043 3.03635 14.0782 3.18298 14.2246C3.3294 14.3713 3.50315 14.4446 3.70378 14.4446C3.82718 14.4446 3.95431 14.4099 4.08562 14.3405C6.1844 13.2139 7.97452 12.6507 9.45601 12.6507C10.0192 12.6507 10.569 12.7356 11.1051 12.9052C11.6413 13.075 12.087 13.2603 12.4419 13.4607C12.797 13.6613 13.2154 13.8466 13.6977 14.0164C14.1802 14.1858 14.6566 14.2708 15.1272 14.2708C16.3155 14.2708 17.7392 13.8235 19.398 12.9282C19.6066 12.8203 19.7587 12.7143 19.8551 12.6101C19.9517 12.5059 19.9999 12.3575 19.9999 12.1644V3.33336C20 3.13281 19.9267 2.95935 19.7802 2.8128Z" fill="#A1D96E"/>
</g>
<defs>
<clipPath id="clip0">
<rect width="20" height="20" fill="white"/>
</clipPath>
</defs>
</svg>
