<svg width="24" height="24" xmlns="http://www.w3.org/2000/svg"><path d="M23.834 21.949l-7.036-7.037a9.272 9.272 0 001.869-5.579C18.667 4.187 14.48 0 9.333 0 4.187 0 0 4.187 0 9.333c0 5.147 4.187 9.334 9.333 9.334 2.093 0 4.02-.701 5.58-1.87l7.036 7.037 1.885-1.885zM.89 9.333C.889 4.677 4.677.89 9.333.89c4.657 0 8.445 3.788 8.445 8.444 0 4.657-3.788 8.445-8.445 8.445C4.677 17.778.89 13.99.89 9.333zm14.919 6.708c.079-.076.156-.154.233-.233.065-.067.135-.129.198-.198l6.338 6.339-.629.629-6.338-6.34c.07-.062.13-.132.198-.197z" fill="#000" fill-rule="evenodd" opacity=".486"/></svg>