<svg width="26" height="24" viewBox="0 0 26 24" fill="none" xmlns="http://www.w3.org/2000/svg">
<g clip-path="url(#clip0)">
<path d="M16.1097 0.0493317H16.4142C17.75 0.436888 19.0498 0.985331 20.2004 1.78178C22.0504 3.04667 23.5617 4.84667 24.4051 6.94711C25.3538 9.22178 25.4978 11.828 24.8281 14.2004C24.198 16.5071 22.7832 18.564 20.9385 20.0476C19.6097 21.1044 18.0616 21.8831 16.4221 22.2982C16.1931 22.3791 15.885 22.276 15.8859 21.9933C15.8253 21.7231 16.0992 21.5818 16.2773 21.4493C19.084 19.5756 21.1034 16.5009 21.6221 13.1267C22.0583 10.5027 21.587 7.74267 20.3303 5.40933C19.3657 3.59244 17.9404 2.03689 16.244 0.899109C16.0992 0.787998 15.8973 0.685778 15.8815 0.478666C15.8411 0.294666 15.9974 0.166666 16.1097 0.0493317Z" fill="#C1B60C"/>
<path d="M7.91453 2.25111C10.458 1.91155 13.1304 2.76844 15.0094 4.53733C15.3271 4.82622 15.3648 5.32044 15.1928 5.69911C14.9322 6.28933 14.4284 6.71689 13.9343 7.10355C12.8135 7.92222 11.541 8.50178 10.2464 8.97378C8.40601 9.62534 6.48313 10.0644 4.53477 10.1756C3.5957 10.2013 2.63643 10.2129 1.72896 9.93289C1.33136 9.81111 0.924143 9.62356 0.676658 9.27155C0.489714 9.01911 0.47655 8.67511 0.566954 8.38178C1.20938 6.37467 2.57674 4.61289 4.3566 3.51333C5.43346 2.83867 6.65866 2.412 7.91453 2.25111ZM31.6784 5.77111C32.4279 4.96578 33.5934 4.82711 34.629 4.80578C36.1341 4.828 37.6472 4.73555 39.1462 4.91511C39.4937 4.93644 39.5499 5.33289 39.6096 5.60489C39.6842 6.10889 39.7325 6.62444 39.6824 7.132C39.6342 7.31067 39.4341 7.29911 39.2901 7.28578C37.8903 7.15244 36.4834 7.16222 35.0783 7.15956C34.7308 7.17289 34.3446 7.15333 34.0506 7.37556C33.7996 7.57644 33.7206 7.91778 33.7154 8.22711C33.7101 8.77467 33.7154 9.32311 33.7145 9.87067C35.2811 9.87333 36.8477 9.86711 38.4142 9.87333C38.588 9.85022 38.7714 9.98444 38.753 10.1738C38.7714 10.7124 38.7583 11.252 38.7609 11.7916C38.7758 11.9676 38.6986 12.2067 38.4827 12.1782C36.8933 12.188 35.3039 12.1782 33.7145 12.1818C33.7154 12.7898 33.711 13.3978 33.7136 14.0049C33.718 14.34 33.8145 14.7116 34.1042 14.9089C34.3639 15.0742 34.6825 15.0716 34.9792 15.0733C36.3571 15.0618 37.7376 15.1107 39.112 14.9756C39.2989 14.9498 39.4893 14.964 39.6719 15.0164C39.7342 15.6591 39.6982 16.3204 39.5385 16.9471C39.5016 17.1542 39.3375 17.3302 39.1225 17.3338C37.7806 17.4884 36.4264 17.4369 35.0783 17.4502C34.2042 17.4342 33.2967 17.4209 32.484 17.052C31.8837 16.7818 31.3966 16.2662 31.1676 15.6413C30.9096 14.9791 30.8744 14.2556 30.8832 13.5524C30.8859 11.956 30.8841 10.3596 30.8832 8.76311C30.8648 7.72667 30.9464 6.57022 31.6784 5.77111ZM42.4365 4.92667C43.7512 4.76222 45.0773 4.812 46.3981 4.80667C47.4644 4.84756 48.5633 5.05467 49.4742 5.64756C50.1983 6.11689 50.7354 6.87067 50.9329 7.72044C51.1848 8.80578 51.1102 10.0173 50.5248 10.9836C50.1746 11.5729 49.6331 12.0191 49.0389 12.3382C49.9438 13.8956 50.8697 15.4404 51.7886 16.9889C51.8561 17.1062 51.9369 17.2662 51.8377 17.3924C51.5832 17.4867 51.3076 17.4396 51.0443 17.4493C50.358 17.4351 49.67 17.4733 48.9845 17.4316C48.7379 17.4316 48.6168 17.1916 48.515 17.0031C47.8041 15.6529 47.0502 14.3258 46.3455 12.9729C45.7408 12.9524 45.1343 12.9436 44.5314 12.8911C44.5305 14.2698 44.5314 15.6493 44.5323 17.028C44.5419 17.1862 44.5103 17.4031 44.3172 17.4262C43.8152 17.4804 43.3062 17.4333 42.8016 17.4493C42.5111 17.4351 42.2074 17.492 41.9266 17.3978C41.7686 17.3044 41.7967 17.0991 41.7861 16.9427C41.7896 13.2093 41.787 9.476 41.7879 5.74178C41.7975 5.54711 41.7923 5.33733 41.8897 5.16311C42.0073 4.98089 42.246 4.96578 42.4365 4.92667ZM44.5349 7.09289C44.5244 8.15244 44.5366 9.21289 44.5288 10.2733C44.5252 10.4342 44.541 10.5951 44.5656 10.7542C45.5266 10.7711 46.5754 10.9684 47.4504 10.4538C48.4869 9.86267 48.6203 8.12222 47.6005 7.44756C46.6912 6.85289 45.5547 7.04933 44.5349 7.09289ZM52.4766 5.14267C52.8926 4.892 53.392 4.86267 53.8633 4.82889C54.2688 4.81733 54.6795 4.76667 55.0823 4.84133C55.1789 4.93644 55.1815 5.07867 55.1938 5.20489C55.3395 8.62622 56.3163 11.9604 57.6793 15.0778C59.1318 11.9311 60.0445 8.508 60.2148 5.03244C60.2086 4.83244 60.457 4.80844 60.6062 4.80489C61.1381 4.80489 61.6752 4.82355 62.1974 4.93822C62.4668 5.00756 62.7906 5.09911 62.8951 5.39511V5.97467C62.7977 7.80222 62.3913 9.59867 61.8393 11.3364C61.3241 12.9329 60.7168 14.5036 59.9462 15.9933C59.6399 16.5684 59.2301 17.1773 58.5745 17.3613C57.9645 17.4964 57.3265 17.4636 56.7095 17.4058C55.9556 17.308 55.4571 16.6502 55.1262 16.0147C54.3881 14.5702 53.8308 13.0378 53.342 11.4902C52.7759 9.62356 52.338 7.69733 52.2932 5.73822C52.3002 5.53289 52.2563 5.25467 52.4766 5.14267ZM15.9897 5.668C16.0108 5.67511 16.0538 5.68844 16.0748 5.69467C16.7032 6.54355 17.1991 7.49378 17.5063 8.50889C17.695 9.14889 17.6046 9.84667 17.343 10.452C16.9735 11.316 16.3373 12.0289 15.6439 12.6404C14.5627 13.572 13.3015 14.268 11.9877 14.7996C9.5338 15.756 6.84381 16.2396 4.22496 15.8387C3.0024 15.6262 1.71577 15.2102 0.876767 14.2333C0.251896 13.5116 0.229063 12.5071 0.114079 11.6058C0.0193213 11.0164 0.179936 10.4351 0.207122 9.84844C0.325569 10.3427 0.699457 10.7267 1.15411 10.9222C2.26169 11.4307 3.51143 11.4262 4.70324 11.3978C6.84207 11.2787 8.95105 10.7764 10.9573 10.0271C12.251 9.52133 13.5253 8.91867 14.6294 8.06C15.1252 7.668 15.6027 7.21822 15.8888 6.64222C16.0327 6.34089 16.1064 5.99155 15.9897 5.668ZM17.9179 10.7124C17.9811 12.74 17.4238 14.7996 16.2354 16.4431C15.084 18.0867 13.3629 19.3062 11.4479 19.8476C9.28016 20.4778 6.87888 20.2298 4.8849 19.1622C3.27361 18.2991 1.89571 16.9364 1.10584 15.2644C1.81848 16.2973 3.05595 16.7604 4.23023 16.9969C5.51158 17.2404 6.8298 17.2298 8.12074 17.0671C9.94366 16.8351 11.7314 16.3089 13.3901 15.5062C14.6917 14.8644 15.9335 14.0413 16.8823 12.9213C17.4255 12.2991 17.7827 11.5302 17.9179 10.7124ZM0.12289 24.7711C0.976766 24.7551 1.8325 24.7471 2.68645 24.7747C2.68296 24.9071 2.67857 25.0405 2.67154 25.1738C2.32751 25.1844 1.98348 25.1871 1.63942 25.1809C1.63064 26.2671 1.64641 27.3542 1.63064 28.4414C1.4797 28.444 1.32782 28.4458 1.17691 28.4467C1.17249 27.3614 1.17605 26.2751 1.17605 25.1898C0.835491 25.18 0.49496 25.1836 0.154429 25.1782C0.143939 25.0422 0.133414 24.9062 0.12289 24.7711ZM35.052 25.0102C35.5356 24.5951 36.2158 24.7489 36.788 24.8165C36.7976 24.9436 36.8064 25.0707 36.8152 25.1987C36.3904 25.2093 35.9419 25.0751 35.5338 25.2351C35.1161 25.4236 35.0546 25.9516 35.0722 26.3595C35.0959 26.8609 34.966 27.46 35.3504 27.8573C35.7524 28.2129 36.3193 28.0138 36.7994 28.0182C36.8011 28.1471 36.8029 28.2769 36.8047 28.4067C36.2166 28.5116 35.5136 28.6129 35.0222 28.1862C34.6018 27.7907 34.5833 27.1658 34.5895 26.6254C34.586 26.0654 34.5904 25.4031 35.052 25.0102ZM2.74171 25.716C2.89534 25.7169 3.04803 25.7195 3.20158 25.724C3.4166 26.4973 3.58867 27.2867 3.84583 28.0467C3.87126 28.0414 3.92128 28.0307 3.94582 28.0254C4.15563 27.26 4.3434 26.4893 4.55756 25.7249C4.70766 25.7205 4.85774 25.7178 5.00777 25.7178C4.80509 26.668 4.48996 27.5907 4.24426 28.5302C4.14772 28.8351 4.07134 29.2378 3.73787 29.3658C3.42017 29.3995 3.10065 29.372 2.78213 29.3862C2.78035 29.2653 2.78035 29.1444 2.78124 29.0244C3.07175 29.0218 3.40786 29.132 3.66416 28.9471C3.76156 28.8049 3.78524 28.628 3.83091 28.4654C3.64304 28.4627 3.47019 28.3738 3.43158 28.1747C3.19723 27.3569 2.93832 26.5444 2.74171 25.716ZM5.51769 25.8049C5.99162 25.7249 6.49365 25.6093 6.96583 25.7578C7.3871 25.9089 7.57664 26.38 7.57925 26.8031C7.58457 27.2884 7.64336 27.8725 7.2572 28.2378C6.90964 28.5667 6.39444 28.5036 5.96094 28.4431C5.95829 28.7551 5.95918 29.068 5.95391 29.3809C5.80381 29.3809 5.65376 29.3818 5.50363 29.3827C5.50017 28.1898 5.47295 26.996 5.51769 25.8049ZM5.96094 26.1133C5.95562 26.7595 5.96004 27.4058 5.95829 28.052C6.21106 28.084 6.46996 28.124 6.72272 28.0751C6.97022 28.0102 7.09833 27.756 7.11678 27.516C7.15363 27.1231 7.1817 26.6973 7.01492 26.3302C6.79818 25.9595 6.30935 26.0814 5.96094 26.1133ZM8.13922 25.7205C8.28842 25.7178 8.43762 25.7169 8.58678 25.716C8.59731 26.3782 8.58592 27.0405 8.59467 27.7027C8.9923 27.0573 9.35652 26.3916 9.73039 25.732C9.91382 25.7195 10.0981 25.7133 10.2824 25.7062C10.3184 26.6218 10.3114 27.5409 10.2868 28.4573C10.1464 28.452 10.0068 28.4476 9.8673 28.444C9.85853 27.7747 9.86818 27.1054 9.86028 26.436C9.48202 27.1 9.09761 27.7605 8.73512 28.4333C8.55078 28.4449 8.36741 28.4511 8.18399 28.4591C8.10237 28.1818 8.13133 27.8902 8.12955 27.6049C8.13748 26.9765 8.11639 26.348 8.13922 25.7205ZM11.2092 25.9258C11.5954 25.58 12.1571 25.6884 12.6213 25.7551C12.624 25.876 12.6266 25.9978 12.6284 26.1187C12.3115 26.1142 11.985 26.0529 11.6735 26.1311C11.3373 26.2556 11.3075 26.6733 11.3075 26.9818C11.311 27.3293 11.2715 27.7676 11.5848 27.9995C11.9078 28.1756 12.2843 28.0502 12.6301 28.0502C12.6345 28.1702 12.6248 28.2884 12.602 28.4058C12.1632 28.5205 11.6243 28.5791 11.2434 28.2742C10.917 28.0093 10.8546 27.556 10.8485 27.1587C10.8432 26.7284 10.8704 26.2342 11.2092 25.9258ZM12.9847 25.7471C13.7307 25.6849 14.4846 25.7214 15.2332 25.7276C15.2349 25.8458 15.2367 25.964 15.2376 26.0822C14.9383 26.0947 14.6381 26.0956 14.3389 26.0973C14.331 26.8831 14.3634 27.6698 14.3196 28.4547C14.18 28.4502 14.0405 28.4458 13.9018 28.4414C13.9009 27.66 13.8992 26.8787 13.9018 26.0982C13.5964 26.0965 13.291 26.1 12.9856 26.0778C12.9847 25.9676 12.9838 25.8573 12.9847 25.7471ZM15.658 25.7178C15.808 25.7178 15.9581 25.7195 16.1082 25.7222C16.1398 26.3836 16.0836 27.0467 16.1424 27.7071C16.504 27.0422 16.8744 26.3809 17.2649 25.7347C17.4475 25.7036 17.6335 25.716 17.8178 25.7133C17.8327 26.6244 17.838 27.5373 17.8161 28.4484C17.6739 28.4476 17.5326 28.4467 17.3913 28.4449C17.3895 27.7773 17.386 27.1098 17.3922 26.4431C16.9762 27.0991 16.6339 27.8005 16.2214 28.4591C16.0345 28.4502 15.8484 28.4422 15.6623 28.4316C15.6518 27.5267 15.6553 26.6227 15.658 25.7178ZM18.3628 25.7151C18.5015 25.7418 18.6876 25.6618 18.7973 25.7693C18.8473 26.1569 18.7674 26.556 18.8763 26.9382C19.2378 27.0778 19.6275 27.0254 20.0023 26.9925C20.0005 26.5756 19.9952 26.1587 20.0084 25.7427C20.1462 25.7418 20.4367 25.6236 20.456 25.836C20.4613 26.7062 20.4727 27.5782 20.4481 28.4476C20.3059 28.4493 20.1646 28.4502 20.0233 28.452C19.9882 28.0902 20.0005 27.7258 20.0067 27.3631C19.5108 27.3809 18.8947 27.5436 18.505 27.1382C18.2444 26.716 18.3892 26.1854 18.3628 25.7151ZM21.0116 26.8111C21.0054 26.3756 21.2222 25.9018 21.6522 25.7542C22.1007 25.62 22.6852 25.6582 22.9827 26.0716C23.2232 26.4031 23.182 26.8307 23.1855 27.2191C22.6106 27.2351 22.0358 27.2227 21.4609 27.2271C21.4653 27.5276 21.5039 27.9205 21.8313 28.0395C22.2464 28.1533 22.6817 28.0565 23.1021 28.0173C23.1065 28.1382 23.1109 28.2591 23.1153 28.3809C22.5615 28.4858 21.919 28.62 21.4153 28.2884C20.9589 27.9507 20.9984 27.3195 21.0116 26.8111ZM21.4565 26.8884C21.8874 26.8947 22.3184 26.8911 22.7502 26.8938C22.7089 26.6716 22.7291 26.4058 22.5492 26.2414C22.3596 26.0573 22.0595 26.0689 21.8234 26.1347C21.5302 26.2556 21.4723 26.6049 21.4565 26.8884ZM24.1237 25.8405C24.5133 25.5969 24.9934 25.7054 25.4217 25.7409C25.4278 25.8662 25.4331 25.9925 25.4375 26.1187C25.1233 26.1125 24.8038 26.06 24.4931 26.1214C24.1833 26.2307 24.1105 26.6049 24.1228 26.8982C24.1368 27.26 24.0517 27.708 24.3554 27.9765C24.6757 28.1916 25.075 28.0458 25.4313 28.0529C25.4322 28.1747 25.434 28.2956 25.4348 28.4173C24.9618 28.4947 24.3887 28.604 24.0043 28.2333C23.6208 27.8698 23.6506 27.2938 23.6655 26.8067C23.6743 26.4414 23.8051 26.0422 24.1237 25.8405ZM25.9597 25.7284C26.1071 25.7222 26.2546 25.7187 26.402 25.716C26.4134 26.084 26.4081 26.4529 26.4046 26.8218C26.7399 26.5071 27.0067 26.1284 27.3288 25.8014C27.4815 25.6333 27.7343 25.7489 27.93 25.7302C27.6035 26.2022 27.1612 26.5747 26.8101 27.0271C27.1822 27.4965 27.6 27.932 27.9291 28.4351C27.7325 28.4165 27.4622 28.5444 27.3226 28.3516C27.0128 27.9809 26.7276 27.5898 26.4055 27.2298C26.4073 27.636 26.4108 28.0422 26.4038 28.4493C26.2519 28.4467 26.101 28.4431 25.95 28.4387C25.9456 27.5356 25.9325 26.6316 25.9597 25.7284ZM28.6874 25.7551C29.0964 25.6342 29.6045 25.6511 29.9231 25.9738C30.1522 26.2156 30.2303 26.5649 30.2268 26.8911C30.2232 27.252 30.2636 27.6405 30.0855 27.9693C29.7221 28.676 28.5259 28.6805 28.1801 27.9569C27.9897 27.5409 28.0116 27.0618 28.0616 26.6173C28.0985 26.2449 28.3284 25.8805 28.6874 25.7551ZM28.8761 26.1284C28.4539 26.3187 28.4829 26.8565 28.4908 27.2476C28.4846 27.564 28.5838 27.9791 28.934 28.0636C29.2798 28.1827 29.7054 27.9498 29.7519 27.5702C29.7993 27.1854 29.8309 26.7684 29.68 26.4022C29.5448 26.0982 29.1604 26.0378 28.8761 26.1284ZM30.9569 26.0084C31.3115 25.6316 31.9197 25.6058 32.3682 25.8093C32.8641 26.0814 32.9114 26.7178 32.8693 27.2236C32.2892 27.2325 31.71 27.22 31.1298 27.2316C31.1562 27.5222 31.1746 27.908 31.4941 28.0298C31.918 28.164 32.3682 28.0431 32.8017 28.0262C32.7956 28.1471 32.7895 28.268 32.7842 28.3889C32.2523 28.4742 31.6661 28.6031 31.1641 28.3382C30.856 28.1525 30.7138 27.7862 30.6998 27.4369C30.6726 26.956 30.6366 26.4058 30.9569 26.0084ZM31.3414 26.2342C31.172 26.4049 31.1658 26.6591 31.129 26.8822C31.5651 26.8965 32.0013 26.9018 32.4375 26.8822C32.3998 26.6218 32.3849 26.2947 32.1251 26.1542C31.8767 26.0511 31.5573 26.0573 31.3414 26.2342ZM36.9328 25.7276C37.6779 25.7125 38.4257 25.7018 39.1708 25.7329C39.1734 25.8484 39.176 25.9649 39.1787 26.0814C38.8785 26.0991 38.5784 26.0965 38.2782 26.0902C38.258 26.8716 38.3107 27.6565 38.2554 28.436C38.1194 28.4458 37.9833 28.4529 37.8482 28.4556C37.8253 27.6671 37.8447 26.8787 37.8368 26.0902C37.5305 26.0982 37.225 26.0982 36.9205 26.0769C36.9231 25.9605 36.9275 25.844 36.9328 25.7276ZM39.621 25.8209C40.0475 25.6982 40.5057 25.6511 40.9453 25.7214C41.4281 25.8209 41.6826 26.34 41.6773 26.8049C41.6826 27.2965 41.7396 27.8929 41.3377 28.2547C40.9875 28.5702 40.4828 28.4956 40.0554 28.452C40.0546 28.7595 40.0554 29.068 40.0537 29.3765C39.9027 29.38 39.7509 29.3818 39.6008 29.3836C39.5833 28.3454 39.6008 27.3071 39.592 26.2689C39.5982 26.1195 39.5754 25.9649 39.621 25.8209ZM40.0589 26.108C40.0519 26.7605 40.0519 27.412 40.0607 28.0644C40.3468 28.0742 40.6575 28.1569 40.9296 28.0298C41.2297 27.8582 41.2209 27.4654 41.2394 27.1631C41.2297 26.8582 41.2543 26.5116 41.0586 26.2565C40.8032 25.9729 40.388 26.0938 40.0589 26.108ZM42.3013 25.7676C42.6927 25.6928 43.0973 25.6573 43.494 25.716C43.8767 25.7693 44.1373 26.1605 44.1154 26.5382C44.1145 27.1738 44.1206 27.8093 44.1075 28.4449C43.9355 28.4565 43.7573 28.4547 43.616 28.34C43.315 28.4005 43.0148 28.564 42.6989 28.4689C42.0915 28.3844 41.9792 27.5258 42.296 27.1009C42.6611 26.7454 43.2211 26.8227 43.6862 26.7987C43.659 26.5684 43.6985 26.2528 43.4554 26.1284C43.0763 26.004 42.6734 26.1249 42.2846 26.1089C42.2899 25.9951 42.2952 25.8814 42.3013 25.7676ZM42.7735 27.2262C42.5225 27.3871 42.5339 27.764 42.6761 27.996C42.9648 28.244 43.3527 28.0502 43.6599 27.9462C43.6757 27.6751 43.6757 27.404 43.6713 27.1338C43.372 27.1462 43.0561 27.108 42.7735 27.2262ZM44.656 25.7205C44.8131 25.7391 45.0009 25.668 45.1448 25.756C45.3844 26.0511 45.5705 26.3871 45.7908 26.6973C45.9935 26.4076 46.1787 26.1054 46.385 25.8191C46.4999 25.6316 46.7422 25.7258 46.9107 25.7711C46.6245 26.1987 46.3226 26.6165 46.0374 27.0449C46.3542 27.5054 46.6965 27.9498 46.973 28.436C46.8089 28.4449 46.6456 28.4493 46.4824 28.4547C46.2472 28.1356 46.0497 27.7898 45.8119 27.4733C45.7934 27.4654 45.7566 27.4493 45.7381 27.4414C45.5073 27.7693 45.2844 28.1036 45.0703 28.444C44.9105 28.4458 44.7508 28.4449 44.5919 28.4414C44.8587 27.9595 45.2238 27.5444 45.502 27.0707C45.2633 26.596 44.857 26.2182 44.656 25.7205ZM47.8199 25.764C48.1525 25.6502 48.5431 25.6529 48.8608 25.8138C49.2153 25.9978 49.3733 26.4156 49.3803 26.8005C49.3847 27.1765 49.4189 27.5765 49.2566 27.9267C48.9222 28.6938 47.6242 28.6929 47.3109 27.908C47.1494 27.5214 47.1696 27.0849 47.2047 26.676C47.2354 26.2929 47.4478 25.9 47.8199 25.764ZM48.0858 26.116C47.7523 26.1978 47.6347 26.5756 47.6452 26.8849C47.6496 27.2342 47.5917 27.6431 47.8436 27.9249C48.1227 28.1933 48.6686 28.1338 48.838 27.7658C48.9494 27.492 48.9459 27.1862 48.9371 26.8956C48.9222 26.6654 48.8924 26.404 48.7151 26.2395C48.5492 26.0778 48.2973 26.0698 48.0858 26.116ZM49.9596 25.7142C50.4072 25.6911 50.8574 25.6725 51.3041 25.7133C51.6122 25.7418 51.9711 25.9178 52.0097 26.2654C52.0861 26.5551 51.9597 26.8422 51.7535 27.0395C52.2186 27.3436 52.1361 28.1667 51.6104 28.3551C51.09 28.5551 50.5099 28.5125 49.9701 28.4333C49.8876 28.2005 49.9394 27.9409 49.9271 27.6982C49.9455 27.0369 49.8902 26.3729 49.9596 25.7142ZM50.3896 26.0725C50.3887 26.332 50.3887 26.5907 50.3896 26.8502C50.6959 26.8449 51.004 26.8689 51.3094 26.828C51.6192 26.7533 51.6762 26.2458 51.3673 26.132C51.0531 26.0262 50.7135 26.0849 50.3896 26.0725ZM50.3896 27.2271C50.3887 27.5231 50.3879 27.8191 50.3887 28.1151C50.7161 28.1089 51.0636 28.156 51.3743 28.0254C51.6964 27.8893 51.6797 27.2947 51.3067 27.2458C51.0022 27.2084 50.695 27.2316 50.3896 27.2271ZM52.7031 25.7516C53.1384 25.7071 53.593 25.6307 54.023 25.7507C54.3539 25.8493 54.5242 26.2067 54.5128 26.5382C54.5101 27.1765 54.5259 27.8165 54.4996 28.4556C54.3232 28.4627 54.145 28.4627 54.0178 28.3205C53.7343 28.4191 53.4403 28.548 53.1357 28.476C52.8558 28.4449 52.603 28.2298 52.5565 27.9444C52.5091 27.6173 52.4968 27.1889 52.8154 26.9933C53.1989 26.7702 53.6606 26.8128 54.0862 26.7995C54.0546 26.5676 54.0959 26.2325 53.8387 26.1222C53.4666 26.0084 53.0717 26.1151 52.6917 26.1205C52.6943 25.9969 52.6978 25.8742 52.7031 25.7516ZM53.0945 28.0209C53.4043 28.2244 53.7905 28.0654 54.0836 27.9054C54.0748 27.6484 54.0739 27.3916 54.0731 27.1356C53.7975 27.1391 53.5158 27.1231 53.2481 27.1987C52.919 27.3027 52.9067 27.7836 53.0945 28.0209ZM55.1578 25.716C55.3061 25.7178 55.4545 25.7214 55.6037 25.7258C55.6151 26.1089 55.6116 26.492 55.6168 26.8742C56.0407 26.8671 56.4637 26.876 56.8876 26.868C56.8815 26.4831 56.878 26.0973 56.8938 25.7125C57.0254 25.7116 57.158 25.7151 57.2905 25.7231C57.337 25.8689 57.3177 26.0254 57.3238 26.1773C57.3142 26.9347 57.337 27.692 57.3089 28.4484C57.1702 28.4493 57.0316 28.4493 56.8938 28.4493C56.8762 28.0476 56.885 27.6458 56.8833 27.2449C56.4602 27.252 56.0372 27.2502 55.6142 27.252C55.6124 27.6476 55.6142 28.0431 55.6081 28.4387C55.4571 28.4431 55.3061 28.4467 55.1561 28.4484C55.1464 27.5382 55.1403 26.6271 55.1578 25.716ZM57.9847 25.7187C58.1269 25.7187 58.2699 25.7195 58.4139 25.7214C58.4358 26.3862 58.4007 27.0528 58.4332 27.7187C58.7939 27.1009 59.1353 26.4725 59.5021 25.8591C59.6145 25.6262 59.9173 25.7454 60.12 25.7107C60.1779 26.6227 60.163 27.5418 60.1279 28.4556C59.984 28.4511 59.8409 28.4467 59.6987 28.4431C59.6856 27.7782 59.6935 27.1125 59.6943 26.4476C59.2897 27.1089 58.9413 27.8049 58.5288 28.4609C58.3489 28.4511 58.169 28.444 57.9908 28.4333C57.9698 27.5284 57.9785 26.6236 57.9847 25.7187ZM61.2592 25.7854C61.7691 25.5765 62.4914 25.6716 62.7529 26.2218C62.8573 26.5418 62.7845 26.8902 62.8073 27.2227C62.2535 27.2298 61.6997 27.2307 61.1468 27.2209C61.1258 27.5444 61.2127 27.9782 61.5786 28.0609C61.9727 28.1365 62.3764 28.0582 62.7713 28.0147C62.7775 28.1373 62.7827 28.2591 62.7889 28.3827C62.2202 28.4822 61.5321 28.6395 61.038 28.2414C60.629 27.8849 60.6966 27.2928 60.6992 26.8031C60.6843 26.396 60.8791 25.9595 61.2592 25.7854ZM61.3136 26.2725C61.1635 26.4405 61.1653 26.6822 61.1249 26.892C61.5567 26.892 61.9876 26.8956 62.4194 26.8982C62.3983 26.6369 62.4054 26.2876 62.1289 26.1605C61.87 26.0431 61.5198 26.0591 61.3136 26.2725Z" fill="#053B7B"/>
</g>
<defs>
<clipPath id="clip0">
<rect width="26" height="24" fill="white"/>
</clipPath>
</defs>
</svg>
