<svg width="50" height="50" viewBox="0 0 50 50" fill="none" xmlns="http://www.w3.org/2000/svg">
<g clip-path="url(#clip0)">
<path d="M17.3886 0.522217C15.0228 0.522217 13.0981 2.58219 13.0981 5.1142C13.0981 6.27264 13.4968 7.37245 14.2206 8.21116L14.6555 8.71518H20.1202L20.555 8.21304C21.2798 7.37601 21.6789 6.27546 21.6789 5.1142C21.6789 2.58219 19.7542 0.522217 17.3886 0.522217Z" fill="#8BD96C"/>
<path d="M20.5551 8.21304C21.28 7.376 21.6791 6.27546 21.6791 5.11419C21.6791 2.58219 19.7544 0.522217 17.3887 0.522217V8.71517H20.1204L20.5551 8.21304Z" fill="#52AF2D"/>
<path d="M23.2579 30.1699H11.5193C5.16755 30.1699 0 35.7006 0 42.4987V50H34.7774V42.4987C34.7774 35.7006 29.6097 30.1699 23.2579 30.1699Z" fill="#8BD96C"/>
<path d="M34.7773 42.4987C34.7773 35.7005 29.6098 30.1698 23.258 30.1698H17.3887V50H34.7773V42.4987Z" fill="#69BF46"/>
<path d="M15.9237 30.1699H18.8535V50.0001H15.9237V30.1699Z" fill="#C8FFFF"/>
<path d="M17.3887 30.1699H18.8536V50.0001H17.3887V30.1699Z" fill="#9DDFF6"/>
<path d="M6.34351 22.652L6.67233 24.5115C7.57345 29.6071 11.7557 33.3056 16.6167 33.3056H18.1606C23.0216 33.3056 27.204 29.6071 28.105 24.5115L28.4338 22.652H6.34351Z" fill="#FFEF4A"/>
<path d="M17.3887 22.652V33.3056H18.1606C23.0216 33.3056 27.2039 29.6071 28.1049 24.5115L28.4338 22.652H17.3887Z" fill="#FFD321"/>
<path d="M18.1607 5.47253H16.6167C11.0343 5.47253 6.49268 10.3334 6.49268 16.3081V17.876H28.2847V16.3081C28.2847 10.3334 23.7431 5.47253 18.1607 5.47253Z" fill="#78C858"/>
<path d="M28.2846 16.3081C28.2846 10.3334 23.743 5.47253 18.1606 5.47253H17.3887V17.876H28.2846V16.3081Z" fill="#56BA2E"/>
<path d="M6.57471 16.308H28.2027V22.0531C28.2027 23.7208 26.9395 25.0727 25.3813 25.0727H19.5162L17.3887 23.9342L15.2613 25.0727H9.39614C7.83795 25.0727 6.5748 23.7208 6.5748 22.0531V16.308H6.57471Z" fill="#C8FFFF"/>
<path d="M17.3887 16.308V23.9342L19.5161 25.0727H25.3813C26.9395 25.0727 28.2026 23.7208 28.2026 22.0531V16.308H17.3887Z" fill="#9DDFF6"/>
<path d="M25.3813 26.6406H19.1703L17.3887 25.6871L15.6071 26.6406H9.39609C7.03259 26.6406 5.10974 24.5827 5.10974 22.0531V14.7401H29.6675V22.0531C29.6675 24.5827 27.7448 26.6406 25.3813 26.6406ZM19.862 23.5048H25.3813C26.1293 23.5048 26.7378 22.8536 26.7378 22.0531V17.8759H8.03958V22.0531C8.03958 22.8536 8.64801 23.5048 9.39609 23.5048H14.9154L17.3887 22.1812L19.862 23.5048Z" fill="#83B5FC"/>
<path d="M6.56482 42.5016H9.49465V49.9999H6.56482V42.5016Z" fill="#5199FF"/>
<path d="M25.2826 42.5016H28.2124V49.9999H25.2826V42.5016Z" fill="#5E69E2"/>
<path d="M31.8474 22.5228V50H50V41.9511L31.8474 22.5228Z" fill="#5199FF"/>
<path d="M50 50V41.9512L40.9237 32.2371V50H50Z" fill="#327EEB"/>
<path d="M40.9237 0C35.919 0 31.8473 4.35774 31.8473 9.71411V14.5187L49.9999 33.947V9.71411C50 4.35774 45.9284 0 40.9237 0Z" fill="#5199FF"/>
<path d="M50 9.71411C50 4.35774 45.9285 0 40.9238 0H40.9237V24.2329L50 33.9471V9.71411Z" fill="#327EEB"/>
<path d="M31.8474 10.084V26.9573L50 46.3856V29.5123L31.8474 10.084Z" fill="#83B5FC"/>
<path d="M25.2826 42.5016H28.2124V49.9999H25.2826V42.5016Z" fill="#5199FF"/>
<path d="M17.3886 14.7401V17.8759H26.7377V22.0531C26.7377 22.8536 26.1292 23.5048 25.3811 23.5048H19.8618L17.3885 22.1812V25.6871L19.1702 26.6406H25.3811C27.7446 26.6406 29.6675 24.5827 29.6675 22.0531V14.7401H17.3886Z" fill="#83B5FC"/>
<path d="M50 29.5124L40.9237 19.7982V36.6716L50 46.3857V29.5124Z" fill="#276BCB"/>
</g>
<defs>
<clipPath id="clip0">
<rect width="50" height="50" fill="white"/>
</clipPath>
</defs>
</svg>
