<svg width="62" height="62" xmlns="http://www.w3.org/2000/svg" xmlns:xlink="http://www.w3.org/1999/xlink"><defs><circle id="a" cx="30" cy="30" r="30"/></defs><g transform="translate(1 1)" fill="none" fill-rule="evenodd"><mask id="b" fill="#fff"><use xlink:href="#a"/></mask><use stroke="#E3E6E7" fill="#FFF" xlink:href="#a"/><g mask="url(#b)"><circle fill="#FFD05B" cx="30" cy="30" r="30"/><path d="M37.984 52.515a1.22 1.22 0 01-.63-.166L18.428 41.917a1.338 1.338 0 01-.678-1.165c.012-.487.274-.914.701-1.14l19.343-10.04-14.198-7.402a1.302 1.302 0 01-.558-1.758 1.302 1.302 0 011.758-.559l16.42 8.567c.428.226.7.677.7 1.164 0 .487-.272.939-.7 1.153L21.814 40.812l16.788 9.255c.63.345.867 1.14.51 1.77-.225.44-.676.678-1.128.678z" fill="#FFF"/><g fill="#FF7058"><path d="M24.51 7.485a5.14 5.14 0 00-5.144 5.145c0 2.84 5.145 8.412 5.145 8.412s5.144-5.573 5.144-8.412a5.14 5.14 0 00-5.144-5.145zm0 7.414a2.282 2.282 0 11.002-4.564 2.282 2.282 0 01-.001 4.564zM40.622 13.865a5.955 5.955 0 00-5.953 5.953c0 3.29 5.953 9.742 5.953 9.742s5.952-6.451 5.952-9.742a5.948 5.948 0 00-5.952-5.953zm0 8.59a2.632 2.632 0 01-2.638-2.637 2.632 2.632 0 012.638-2.638 2.632 2.632 0 012.637 2.638 2.632 2.632 0 01-2.637 2.637zM19.366 25.426a5.917 5.917 0 00-5.916 5.917c0 3.267 5.916 9.683 5.916 9.683s5.917-6.416 5.917-9.683c.012-3.28-2.637-5.917-5.917-5.917zm0 8.53a2.627 2.627 0 11.002-5.253 2.627 2.627 0 01-.002 5.253zM38.055 34.729a6.25 6.25 0 00-6.25 6.25c0 3.457 6.25 10.229 6.25 10.229s6.25-6.772 6.25-10.23a6.25 6.25 0 00-6.25-6.25zm0 9.03a2.763 2.763 0 01-2.768-2.769 2.763 2.763 0 012.768-2.768 2.763 2.763 0 012.769 2.768 2.771 2.771 0 01-2.769 2.768z"/></g></g></g></svg>