<svg width="25" height="18" xmlns="http://www.w3.org/2000/svg"><g fill="#303030" fill-rule="evenodd"><g opacity=".497"><path d="M19.616 13.703a.387.387 0 01-.267-.106l-4.495-4.224a.391.391 0 01.535-.57l4.495 4.224a.391.391 0 01-.268.676zM4.61 13.703a.39.39 0 01-.267-.676L8.84 8.803a.39.39 0 11.535.57l-4.497 4.224a.387.387 0 01-.267.106z"/></g><path d="M22.275 17.631H1.953A1.957 1.957 0 010 15.675V2.334C0 1.254.877.377 1.953.377h20.322c1.077 0 1.953.878 1.953 1.957v13.34c0 1.08-.876 1.957-1.953 1.957zM1.953 1.16c-.646 0-1.172.527-1.172 1.174v13.34c0 .648.526 1.175 1.172 1.175h20.322c.646 0 1.172-.527 1.172-1.174V2.334c0-.647-.526-1.174-1.172-1.174H1.953z" opacity=".543"/><path d="M12.114 10.97c-.52 0-1.039-.172-1.434-.517L.648 1.687a.393.393 0 01-.038-.553.393.393 0 01.552-.038l10.031 8.766c.5.436 1.343.436 1.841 0l10.02-8.751a.39.39 0 11.513.59l-10.019 8.75a2.18 2.18 0 01-1.434.52z" opacity=".543"/></g></svg>