<svg width="45" height="19" viewBox="0 0 45 19" fill="none" xmlns="http://www.w3.org/2000/svg">
<g clip-path="url(#clip0)">
<path d="M8.59418 2.82065C8.08039 3.42864 7.25831 3.90818 6.43624 3.83968C6.33348 3.0176 6.73595 2.14415 7.20693 1.60466C7.72073 0.979543 8.61987 0.534253 9.34775 0.5C9.43338 1.35633 9.09942 2.19553 8.59418 2.82065ZM9.33919 4.00238C8.14889 3.93387 7.12986 4.67888 6.56469 4.67888C5.99095 4.67888 5.12606 4.03663 4.1841 4.05376C2.95955 4.07088 1.82064 4.76451 1.19552 5.86917C-0.0889735 8.0785 0.86155 11.3497 2.10322 13.148C2.71122 14.0385 3.43909 15.0147 4.39818 14.9805C5.30589 14.9462 5.66554 14.3896 6.76164 14.3896C7.86631 14.3896 8.18315 14.9805 9.14223 14.9634C10.1356 14.9462 10.7607 14.0728 11.3687 13.1822C12.0623 12.1717 12.3449 11.187 12.362 11.1356C12.3449 11.1185 10.4439 10.3906 10.4267 8.19838C10.4096 6.36584 11.9253 5.49239 11.9938 5.44101C11.1375 4.17364 9.80161 4.03663 9.33919 4.00238ZM16.2155 1.51903V14.8692H18.2878V10.3049H21.1565C23.7769 10.3049 25.618 8.50666 25.618 5.90343C25.618 3.30019 23.8111 1.51903 21.225 1.51903H16.2155ZM18.2878 3.26594H20.677C22.4752 3.26594 23.5028 4.22502 23.5028 5.91199C23.5028 7.59895 22.4752 8.5666 20.6684 8.5666H18.2878V3.26594ZM29.4029 14.9719C30.7046 14.9719 31.912 14.3126 32.46 13.2678H32.5028V14.8692H34.421V8.22407C34.421 6.29734 32.8796 5.05566 30.5076 5.05566C28.3068 5.05566 26.6798 6.31446 26.6199 8.04424H28.4867C28.6408 7.22217 29.4029 6.68268 30.4477 6.68268C31.715 6.68268 32.4258 7.27355 32.4258 8.36109V9.09753L29.8397 9.25167C27.4334 9.39724 26.1318 10.382 26.1318 12.0947C26.1318 13.8245 27.4762 14.9719 29.4029 14.9719ZM29.9595 13.3877C28.8549 13.3877 28.1527 12.8568 28.1527 12.0433C28.1527 11.2041 28.8292 10.716 30.1222 10.6389L32.4258 10.4933V11.2469C32.4258 12.4971 31.3639 13.3877 29.9595 13.3877ZM36.9814 18.5C39.0024 18.5 39.9529 17.7293 40.7835 15.3915L44.4229 5.18411H42.3163L39.8758 13.0709H39.833L37.3925 5.18411H35.226L38.7369 14.9034L38.5485 15.4943C38.2317 16.4962 37.7179 16.8815 36.8016 16.8815C36.6389 16.8815 36.3221 16.8644 36.1936 16.8473V18.4486C36.3135 18.4829 36.8273 18.5 36.9814 18.5Z" fill="black"/>
</g>
<defs>
<clipPath id="clip0">
<rect width="43.844" height="18" fill="white" transform="translate(0.578125 0.5)"/>
</clipPath>
</defs>
</svg>
