<svg width="20" height="20" viewBox="0 0 20 20" fill="none" xmlns="http://www.w3.org/2000/svg">
<g clip-path="url(#clip0)">
<path d="M4.91485 2.96875L3.74243 6.48438H4.85133L6.02293 2.96875H4.91485Z" fill="#A1D96E"/>
<path d="M19.4143 2.96875H18.8284V2.38281C18.8284 2.05895 18.5663 1.79688 18.2424 1.79688C17.9186 1.79688 17.6565 2.05895 17.6565 2.38281V2.96875H7.25863L6.08691 6.48438H20.0002V3.55469C20.0002 3.23082 19.7382 2.96875 19.4143 2.96875Z" fill="#A1D96E"/>
<path d="M1.75781 2.96875C1.43395 2.96875 1.17188 3.23082 1.17188 3.55469C1.17188 3.87797 0.908672 4.14062 0.585938 4.14062C0.26207 4.14062 0 4.4027 0 4.72656V6.48438H2.50711L3.67898 2.96875H1.75781Z" fill="#A1D96E"/>
<path d="M0 7.65625V8.24219C0 8.56605 0.26207 8.82812 0.585938 8.82812C0.908672 8.82812 1.17188 9.09078 1.17758 9.33109L0.204648 16.1964C0.0538672 17.2532 0.87 18.2031 1.9375 18.2031H4.24234C5.12355 18.2031 5.87313 17.5434 5.98641 16.6685L6.39039 13.5156H8.78906C9.75836 13.5156 10.5469 12.7271 10.5469 11.7578V10H17.0703C17.2923 10 17.4949 9.87469 17.5945 9.67613L18.6044 7.65625C4.42688 7.65625 7.58867 7.65625 0 7.65625ZM7.03125 12.3438C6.38465 12.3438 5.85938 11.8179 5.85938 11.1719C5.85938 10.5259 6.38465 10 7.03125 10H7.07016C6.90879 10.5171 6.87988 11.0711 7.02211 11.6045C7.09234 11.8697 7.21094 12.1129 7.34941 12.3438H7.03125ZM9.375 11.7578C9.375 12.0364 9.17559 12.259 8.91508 12.3183C8.54473 12.087 8.26805 11.7298 8.15391 11.3041C8.03633 10.8611 8.10754 10.394 8.335 10H9.375V11.7578Z" fill="#A1D96E"/>
</g>
<defs>
<clipPath id="clip0">
<rect width="20" height="20" fill="white"/>
</clipPath>
</defs>
</svg>
