<svg width="15" height="15" xmlns="http://www.w3.org/2000/svg"><g fill="#000" fill-rule="evenodd"><path d="M8.526.492c-.67.348-1.47.348-2.141 0-2.896-1.5-6.37.614-6.37 3.877 0 2.053 1.703 10.542 4.365 10.542.933 0 1.783-.953 2.597-2.912a.518.518 0 01.956 0c.815 1.96 1.664 2.912 2.598 2.912 2.635 0 4.364-8.423 4.364-10.542 0-3.262-3.473-5.378-6.37-3.877zm2.005 13.642c-.552 0-1.238-.887-1.88-2.433-.442-1.063-1.95-1.063-2.391 0-.643 1.546-1.328 2.433-1.88 2.433-1.702 0-3.587-7.354-3.587-9.765 0-2.685 2.858-4.418 5.234-3.187a3.106 3.106 0 002.856 0c2.374-1.23 5.235.5 5.235 3.187 0 2.4-1.884 9.765-3.587 9.765z"/><path d="M12.693 3.98a.389.389 0 00-.388.389c0 .649-.267 2.494-.86 4.565a.388.388 0 10.747.214c.614-2.143.89-4.085.89-4.779a.388.388 0 00-.389-.389zM4.38 1.818a2.554 2.554 0 00-2.551 2.55.389.389 0 10.777 0c0-.977.796-1.773 1.774-1.773a.389.389 0 100-.777z"/></g></svg>