<svg width="34" height="40" xmlns="http://www.w3.org/2000/svg"><g fill="#79C930" fill-rule="evenodd"><path d="M25.186 24.369a2.227 2.227 0 00-1.323-1.083 2.244 2.244 0 00-1.707.164 1.818 1.818 0 01-1.378.133 1.823 1.823 0 01-1.068-.874l-2.832-5.288a1.81 1.81 0 01.758-2.46 2.196 2.196 0 00.916-2.976l-1.008-1.88a2.146 2.146 0 00-1.276-1.045 2.161 2.161 0 00-1.644.158l-.542.284a5.157 5.157 0 00-2.239 2.339 5.671 5.671 0 00.129 5.077L17.372 27a5.763 5.763 0 004.182 2.951 5.186 5.186 0 003.19-.533l.546-.288c.51-.27.883-.72 1.051-1.267a2.111 2.111 0 00-.158-1.633l-.997-1.861zm-.049 3.129a.89.89 0 01-.437.527l-.547.29a3.901 3.901 0 01-2.406.4 4.496 4.496 0 01-3.263-2.303l-5.4-10.08a4.423 4.423 0 01-.101-3.96 3.897 3.897 0 011.69-1.766l.541-.284a.892.892 0 01.686-.066c.23.07.42.224.532.435l1.008 1.882a.948.948 0 01-.397 1.284 3.052 3.052 0 00-1.505 1.813 3.028 3.028 0 00.228 2.338l2.833 5.289a3.05 3.05 0 001.812 1.481 3.074 3.074 0 002.337-.225.985.985 0 011.327.403l.996 1.86c.113.211.136.453.066.682z"/><path d="M30.1 0H6.734c-1.89 0-3.427 1.55-3.427 3.456v8.419H1.102c-.348 0-.63.28-.63.625s.282.625.63.625h2.204V26.25H1.102c-.348 0-.63.28-.63.625s.282.625.63.625h2.204v9.044C3.306 38.45 4.843 40 6.733 40H30.1c1.89 0 3.427-1.55 3.427-3.456V3.456C33.528 1.55 31.99 0 30.1 0zm2.169 36.544c0 1.217-.973 2.206-2.168 2.206H6.733c-1.195 0-2.168-.99-2.168-2.206V27.5h2.204c.348 0 .63-.28.63-.625a.627.627 0 00-.63-.625H4.565V13.125h2.204c.348 0 .63-.28.63-.625a.627.627 0 00-.63-.625H4.565v-8.42c0-1.216.973-2.205 2.168-2.205H30.1c1.195 0 2.168.99 2.168 2.206v33.088z"/></g></svg>