<svg width="45" height="33" xmlns="http://www.w3.org/2000/svg"><g fill="#79C930" fill-rule="evenodd"><path d="M6.737 25.487H20.21a.749.749 0 000-1.498H6.737a.749.749 0 000 1.498z"/><path d="M44.164 13.504H3.743a.749.749 0 000 1.498h39.672v14.23a2.249 2.249 0 01-2.245 2.247H3.743c-1.042 0-2.246-.769-2.246-2.247V12.755a.749.749 0 00-1.497 0v16.477c0 1.8 1.457 3.745 3.743 3.745H41.17a3.748 3.748 0 003.742-3.745V14.253a.75.75 0 00-.748-.749zM41.17.023H3.743A3.748 3.748 0 000 3.768v4.494c0 .413.335.749.749.749h40.42a.749.749 0 000-1.498H1.498V3.768a2.249 2.249 0 012.246-2.247H41.17a2.249 2.249 0 012.245 2.247v7.49a.749.749 0 001.497 0v-7.49A3.748 3.748 0 0041.17.023z"/><path d="M26.199 22.492a.749.749 0 000-1.498H20.21a.749.749 0 000 1.498h5.988zM6.737 22.492h10.48a.749.749 0 000-1.498H6.736a.749.749 0 000 1.498z"/></g></svg>