<svg width="20" height="20" viewBox="0 0 20 20" fill="none" xmlns="http://www.w3.org/2000/svg">
<g clip-path="url(#clip0)">
<path d="M17.2411 3.10622L16.2066 3.79591L14.4823 3.45106L13.4477 3.10622L12.0683 3.45106L11.0338 3.10622L11.7234 1.7268H13.1029L14.4547 1.0509C15.4972 1.56645 16.4404 2.26235 17.2411 3.10622Z" fill="#03AA6F"/>
<path d="M9.30957 1.72676L8.96473 2.76134L7.93016 3.10618L6.89558 4.83044L5.17132 5.86501L2.75737 6.20986V7.24443L3.44706 7.93412V9.31354L2.41257 8.62381L1.37799 7.93412L0.777954 6.13056C1.81077 3.66931 3.78507 1.72364 6.26109 0.726685L7.24047 1.38192L9.30957 1.72676Z" fill="#03AA6F"/>
<path d="M9.99927 11.3826L9.65443 13.1069L8.27501 14.4863V15.5209L6.8956 16.5554V18.2797L5.86106 17.9348L5.17133 16.2105V12.762L3.44707 12.4172L2.75739 11.0378V10.0032L3.44707 9.3135L4.48165 8.27893L5.17133 9.65835H7.58529L8.61986 11.3826H9.99927Z" fill="#03AA6F"/>
<path d="M18.724 5.11673C20.6066 8.47525 20.3921 12.6166 18.1723 15.7623L17.2412 14.8312V13.4518L16.5515 12.0724L15.8618 10.693V9.31353L14.8272 8.62385L13.4478 8.96869L11.0339 7.93412L10.689 5.52017L11.7236 4.4856H13.7927L14.4824 5.52017L16.5515 5.86501L18.6206 5.17532L18.724 5.11673Z" fill="#03AA6F"/>
<path d="M12.0684 3.45103L13.4478 3.10618L14.4824 3.45103L16.2067 3.79587L17.2412 3.10618C17.8189 3.71071 18.3172 4.38626 18.7241 5.11665L18.6207 5.17529L16.5516 5.86497L14.4824 5.52013L13.7928 4.48556H11.7237L10.6891 5.52013L11.0339 7.93408L13.4479 8.96865L14.8273 8.62381L15.8619 9.3135V10.6929L16.5516 12.0723L17.2412 13.4517V14.8312L18.1723 15.7623C14.9876 20.275 8.74752 21.3513 4.23512 18.1666C0.402773 15.4615 -1.03493 10.4567 0.777969 6.13052L1.37801 7.93408L2.41258 8.62377L3.44715 9.31346L2.75743 10.0032V11.0378L3.44712 12.4172L5.17138 12.762V16.2105L5.86107 17.9348L6.89564 18.2796V16.5554L8.27505 15.5208V14.4862L9.65447 13.1068L9.99932 11.3826H8.6199L7.58533 9.6583H5.17138L4.48169 8.27889L3.44712 9.31346V7.93404L2.75743 7.24439V6.20982L5.17138 5.86497L6.89564 4.8304L7.93021 3.10614L8.96478 2.7613L9.30963 1.72673L7.24052 1.38188L6.26114 0.726645C8.91306 -0.341365 11.8953 -0.223435 14.4548 1.05083L13.103 1.72673H11.7236L11.0339 3.10614L12.0684 3.45103Z" fill="#86DAF1"/>
</g>
<defs>
<clipPath id="clip0">
<rect width="20" height="20" fill="white"/>
</clipPath>
</defs>
</svg>
