<svg width="17" height="15" xmlns="http://www.w3.org/2000/svg"><path d="M16.922 8.695l-2.113-6.29-5.998-1.118V.762A.318.318 0 008.49.448a.318.318 0 00-.324.314v.404L2.084.033.028 7.088l.153.042H0c0 1.003 1.105 1.82 2.462 1.82 1.284 0 2.41-.886 2.457-1.912l.011-.003-.009-.029.003-.033H4.91L2.897.823l5.268.982v11.404h-3.39L3.714 14.92h9.321l-.808-1.712H8.811V1.925l4.973.927-1.403 6h-.008c0 1.003 1.027 1.82 2.29 1.82 1.22 0 2.29-.924 2.29-1.977h-.031zM4.262 7.068c-.071.61-.813 1.254-1.8 1.254-.927 0-1.718-.485-1.806-1.081L2.38 1.32l1.882 5.747zm7.55 6.767l.215.459h-7.17l.285-.459h6.67zm2.851-3.792c-.878 0-1.591-.503-1.636-1.132l1.357-5.751 1.904 5.67c-.09.599-.752 1.213-1.625 1.213z" fill="#010002" fill-rule="evenodd"/></svg>