<svg width="166" height="115" viewBox="0 0 166 115" fill="none" xmlns="http://www.w3.org/2000/svg">
<path d="M26.3954 110.178C31.7025 105.822 32.3889 98.5002 31.6374 92.0325C31.5108 90.952 31.5376 89.8022 30.9394 88.8948C30.3412 87.9873 29.0758 87.4374 28.1325 87.9758C27.3655 88.4218 27.0741 89.387 26.683 90.1983C26.1571 91.2883 25.3358 92.2078 24.3131 92.8515C23.6459 93.2668 22.8023 93.5552 22.0814 93.2361C21.0959 92.7977 20.8811 91.5172 20.8006 90.4406C20.6472 88.4333 20.4964 86.4248 20.3481 84.4151C20.3229 83.3326 20.1235 82.2614 19.7576 81.2427C19.3358 80.2507 18.5113 79.3624 17.4568 79.1624C16.4022 78.9625 15.156 79.6546 15.0333 80.7275C15.0283 81.1773 15.054 81.627 15.11 82.0733C15.1318 82.2964 15.0882 82.5211 14.9847 82.7198C14.8812 82.9186 14.7222 83.0827 14.5271 83.1923C14.1053 83.3538 13.6451 83.0846 13.2923 82.8077C12.0806 81.8157 11.2024 80.4775 10.378 79.1432C9.55354 77.8089 8.74443 76.4515 7.62854 75.3364C6.51265 74.2213 5.02481 73.4138 3.46027 73.4522C1.89572 73.4907 0.312009 74.5866 0.0435828 76.1439C-0.224843 77.7012 0.791342 79.1624 1.86505 80.3083C3.46421 82.0011 5.2981 83.4541 7.31026 84.6227C7.69588 84.7951 8.01684 85.0859 8.22675 85.4533C8.52202 86.1531 7.89313 86.9222 7.19906 87.2182C6.40912 87.5528 5.51948 87.5412 4.67969 87.7104C3.8399 87.8796 2.95026 88.3257 2.69333 89.1447C2.34054 90.2983 3.3644 91.3596 4.3384 92.0402C6.30129 93.4031 8.48107 94.4212 10.7845 95.051C11.6089 95.274 12.4717 95.4586 13.162 95.9623C13.8522 96.4661 14.3124 97.4005 13.9941 98.1926C13.6758 98.9847 12.6865 99.3077 11.8352 99.2231C10.9839 99.1385 10.1978 98.7501 9.37331 98.5194C7.83945 98.0849 5.92212 98.3464 5.05548 99.7038C4.79922 100.167 4.65495 100.683 4.6343 101.212C4.61365 101.741 4.7172 102.268 4.93661 102.749C5.38297 103.707 6.01674 104.565 6.80025 105.272C9.41036 107.9 12.6676 109.789 16.2412 110.747C19.8074 111.651 23.0477 111.709 26.3954 110.178Z" fill="#EBEBEB"/>
<path d="M26.8594 114.981C26.3082 111.998 25.4696 109.076 24.3554 106.256C22.9786 102.811 21.4024 99.4499 19.6349 96.1892L18.2506 93.6206C17.7981 92.7746 17.3495 91.9364 16.8586 91.1443C15.918 89.6259 14.8938 88.1611 13.7909 86.7568C12.7441 85.4071 11.6972 84.1613 10.7232 83.0077C9.74918 81.8541 8.80585 80.7967 7.89704 79.8661C6.48287 78.395 4.95583 77.0373 3.32996 75.8056C2.75476 75.3672 2.2946 75.0365 1.98399 74.8289L1.62737 74.5828C1.58664 74.5548 1.5444 74.5291 1.50082 74.5059C1.50082 74.5059 1.53917 74.5405 1.61586 74.5981L1.96482 74.8558C2.27159 75.0788 2.73175 75.4095 3.29161 75.8555C4.8989 77.1036 6.41019 78.4713 7.81267 79.9469C8.70615 80.8774 9.64181 81.9387 10.6235 83.0961C11.6052 84.2536 12.6405 85.4994 13.6912 86.8491C14.7938 88.251 15.8179 89.7132 16.7589 91.2289C17.2459 92.0171 17.6908 92.8516 18.1433 93.6975L19.5161 96.27C21.2689 99.526 22.8384 102.878 24.2174 106.31C25.3329 109.12 26.1803 112.03 26.7482 115" fill="#E0E0E0"/>
<path d="M16.828 91.1247C16.864 90.9708 16.8845 90.8136 16.8893 90.6556C16.92 90.3556 16.9507 89.9134 16.9814 89.3713C17.0466 88.2869 17.0849 86.7872 17.1232 85.1415C17.1616 83.4957 17.2229 81.9884 17.3111 80.9117C17.3495 80.3695 17.3917 79.935 17.4223 79.6312C17.4447 79.4759 17.4549 79.319 17.453 79.1621C17.4056 79.3123 17.3735 79.4669 17.3572 79.6235C17.3073 79.9235 17.2498 80.3618 17.1961 80.9002C17.0772 81.9845 16.9967 83.4842 16.9584 85.1299C16.92 86.7757 16.8932 88.2561 16.8702 89.3597C16.851 89.8788 16.8395 90.3133 16.828 90.644C16.8125 90.8039 16.8125 90.9648 16.828 91.1247Z" fill="#E0E0E0"/>
<path d="M2.62825 89.6947H2.77397H3.19195C3.5524 89.6947 4.07392 89.6947 4.72581 89.7139C6.01809 89.7408 7.79354 89.8408 9.76839 90.0446C11.7432 90.2484 13.4995 90.5098 14.7726 90.7367C15.4092 90.8482 15.923 90.9482 16.2796 91.0174L16.6861 91.0982C16.782 91.0982 16.8318 91.1212 16.8318 91.0982C16.7887 91.0752 16.742 91.0596 16.6938 91.052L16.2911 90.9405C15.9422 90.8521 15.4283 90.7329 14.7918 90.6098C13.5225 90.3522 11.7509 90.0715 9.78373 89.8639C7.81655 89.6562 6.02576 89.5793 4.72581 89.5831C4.07775 89.5831 3.57541 89.5831 3.19195 89.6178L2.7778 89.6447C2.72564 89.6533 2.67517 89.6702 2.62825 89.6947Z" fill="#E0E0E0"/>
<path d="M24.1792 106.01C24.2093 105.952 24.235 105.891 24.2559 105.829C24.3096 105.694 24.3709 105.521 24.4514 105.31C24.6202 104.856 24.8349 104.191 25.1187 103.387C25.6594 101.745 26.3381 99.4536 27.059 96.9119C27.7799 94.3702 28.4357 92.0784 28.9495 90.4288C29.2064 89.6213 29.4135 88.9599 29.5669 88.4754C29.6359 88.2601 29.6896 88.0909 29.7318 87.9448C29.7553 87.884 29.772 87.8208 29.7816 87.7563C29.7474 87.8117 29.7204 87.8711 29.7011 87.9332C29.6512 88.0717 29.5861 88.2447 29.5055 88.4562C29.3368 88.9099 29.1221 89.5713 28.8421 90.3788C28.2976 92.0207 27.6189 94.3125 26.9018 96.8542C26.1847 99.3959 25.5367 101.695 25.0075 103.337C24.7544 104.145 24.5435 104.806 24.3939 105.287C24.3249 105.506 24.2712 105.671 24.2252 105.821C24.2038 105.882 24.1883 105.946 24.1792 106.01Z" fill="#E0E0E0"/>
<path d="M5.10503 101.615C5.16441 101.643 5.22776 101.663 5.29292 101.672L5.84895 101.803L7.89666 102.272C9.62226 102.657 11.9997 103.245 14.6265 103.891C17.2532 104.537 19.6346 105.099 21.3678 105.468C22.2345 105.652 22.9362 105.795 23.4232 105.883L23.9831 105.983C24.0486 105.998 24.1153 106.007 24.1825 106.01C24.1215 105.982 24.057 105.962 23.9907 105.952L23.4347 105.821L21.3908 105.352C19.6652 104.968 17.2877 104.379 14.6648 103.733C12.0419 103.087 9.65677 102.526 7.9235 102.157C7.05687 101.972 6.35512 101.83 5.86812 101.742L5.30443 101.638C5.2387 101.625 5.17201 101.617 5.10503 101.615Z" fill="#E0E0E0"/>
<path d="M76.7711 0.301615L49.0464 8.66357L54.6672 27.4028L82.3919 19.0408L76.7711 0.301615Z" fill="white"/>
<path d="M82.3968 19.0231C82.3968 19.0231 82.3547 18.9039 82.2856 18.6808C82.2166 18.4578 82.1131 18.1194 81.9789 17.6888C81.7143 16.8197 81.3231 15.547 80.8285 13.9243C79.8391 10.6673 78.4241 5.99536 76.6985 0.30823L76.7982 0.362063L49.0813 8.75625L49.1503 8.62935L54.7643 27.3711L54.6492 27.3096L74.6201 21.3302L80.3376 19.6345L81.8715 19.1846L82.255 19.0692L82.393 19.0346L82.2703 19.0769L81.8868 19.1999L80.3836 19.6614L74.7007 21.4033L54.6991 27.4826L54.6109 27.5095L54.584 27.4211C52.8699 21.7109 50.9603 15.3624 48.9548 8.68319L48.9279 8.58705L49.02 8.56013L76.7484 0.215942L76.8251 0.192871L76.8481 0.269778C78.5468 5.98767 79.9388 10.6827 80.9128 13.955C81.3883 15.5777 81.7641 16.8467 82.0172 17.7195C82.1437 18.1425 82.2358 18.4693 82.3048 18.7001C82.3738 18.9308 82.3968 19.0231 82.3968 19.0231Z" fill="#E0E0E0"/>
<path d="M76.7754 0.297237C76.7652 0.32656 76.7524 0.354877 76.737 0.38183L76.6066 0.620237C76.4801 0.839416 76.3075 1.14319 76.0928 1.52772L74.1563 4.86155L67.6604 15.909L67.6144 15.982L67.5377 15.9512L66.6902 15.6244L54.2007 10.7371L50.4236 9.23744L49.4036 8.81831L49.139 8.7068C49.1073 8.69621 49.0775 8.68063 49.0508 8.66066C49.0841 8.66356 49.1166 8.67268 49.1466 8.68757L49.4151 8.77986L50.4542 9.16438L54.2506 10.6064L66.7592 15.436L67.6105 15.7667L67.4878 15.809C70.057 11.4831 72.3655 7.60706 74.0374 4.78849L76.0276 1.48926C76.2577 1.10474 76.4417 0.816346 76.5721 0.597167L76.7217 0.370295C76.7523 0.320307 76.7715 0.293392 76.7754 0.297237Z" fill="#E0E0E0"/>
<path d="M157.449 75.1633C157.449 75.1633 155.65 73.3791 152.145 77.8358C150.308 80.0918 148.621 82.4669 147.095 84.9456C147.095 84.9456 146.221 85.8531 145.646 85.0302C145.07 84.2073 144.476 82.0848 143.195 82.1924C141.914 82.3001 141.178 83.6229 141.006 85.7339C140.833 87.8449 140.292 92.4631 140.239 92.8784C140.185 93.2937 139.855 93.8358 139.361 93.3398C138.866 92.8438 136.377 88.6217 134.441 89.9214C132.504 91.2211 132.995 97.1966 133.037 97.8464C133.079 98.4963 132.903 98.7424 132.581 98.8347C132.259 98.927 131.549 97.4273 130.786 96.2545C130.023 95.0817 128.938 93.8474 127.887 94.6972C126.837 95.547 125.721 99.7268 128.374 107.406L129.835 110.866L133.574 111.401C141.654 112.051 145.412 109.924 145.968 108.69C146.524 107.456 145.067 106.71 143.74 106.264C142.413 105.818 140.787 105.495 140.799 105.168C140.81 104.841 140.998 104.603 141.638 104.479C142.279 104.356 148.157 103.326 148.924 101.13C149.691 98.9347 144.994 97.5581 144.392 97.212C143.79 96.8659 144.234 96.3929 144.618 96.243C145.001 96.093 149.327 94.4049 151.325 93.7128C153.323 93.0207 154.423 92.0132 154.197 90.6981C153.971 89.383 151.781 89.3869 150.842 89.0293C149.902 88.6717 150.562 87.6027 150.562 87.6027C152.582 85.506 154.461 83.2772 156.187 80.9312C159.611 76.4092 157.38 75.0903 157.38 75.0903" fill="#EBEBEB"/>
<path d="M154.289 79.1317C154.272 79.1657 154.251 79.1979 154.228 79.2278L154.032 79.5047C153.848 79.7508 153.591 80.1007 153.265 80.5467C152.594 81.4504 151.616 82.7501 150.397 84.3497C147.962 87.5489 144.557 91.9402 140.776 96.7698L131.105 109.155L128.186 112.92L127.389 113.939L127.178 114.2C127.128 114.258 127.105 114.289 127.101 114.285C127.118 114.251 127.139 114.219 127.163 114.189L127.358 113.916L128.125 112.87C128.792 111.966 129.774 110.667 130.99 109.067C133.425 105.868 136.834 101.476 140.618 96.6468C144.403 91.8171 147.805 87.4413 150.286 84.2612C151.509 82.6808 152.506 81.4004 153.204 80.5006C153.541 80.0661 153.81 79.7315 153.998 79.4777L154.212 79.2163C154.258 79.1586 154.285 79.1278 154.289 79.1317Z" fill="#E0E0E0"/>
<path d="M143.909 85.1958C143.992 85.5255 144.04 85.8633 144.05 86.2033C144.108 86.8262 144.158 87.6914 144.192 88.6488C144.227 89.6063 144.242 90.3984 144.261 91.0944C144.29 91.4322 144.29 91.7718 144.261 92.1096C144.178 91.7799 144.132 91.442 144.123 91.1021C144.073 90.4753 144.031 89.6101 143.997 88.6565C143.962 87.7029 143.939 86.9069 143.912 86.211C143.882 85.8733 143.881 85.5337 143.909 85.1958Z" fill="#E0E0E0"/>
<path d="M144.583 92.2439C145.895 92.0314 147.218 91.8864 148.544 91.8094C150.734 91.6287 152.517 91.5248 152.521 91.5787C151.209 91.7889 149.887 91.9326 148.56 92.0093C146.37 92.1939 144.591 92.2977 144.583 92.2439Z" fill="#E0E0E0"/>
<path d="M138.222 99.6577C138.566 99.6843 138.907 99.7396 139.242 99.8231C139.871 99.9423 140.733 100.108 141.692 100.261C142.651 100.415 143.521 100.531 144.154 100.611C144.499 100.639 144.841 100.694 145.178 100.777C144.833 100.806 144.486 100.799 144.142 100.754C143.502 100.707 142.609 100.615 141.661 100.458C140.714 100.3 139.832 100.115 139.211 99.9615C138.871 99.896 138.54 99.7942 138.222 99.6577Z" fill="#E0E0E0"/>
<path d="M136.212 93.4204C136.371 93.6992 136.5 93.9944 136.596 94.301C136.799 94.8585 137.071 95.6276 137.363 96.4812C137.654 97.3349 137.899 98.1116 138.072 98.6807C138.18 98.9815 138.26 99.2917 138.31 99.6074C138.148 99.3285 138.02 99.0317 137.926 98.723C137.719 98.1693 137.451 97.4002 137.159 96.5466C136.868 95.6929 136.623 94.9124 136.45 94.3471C136.337 94.0478 136.258 93.7371 136.212 93.4204Z" fill="#E0E0E0"/>
<path d="M129.766 99.25C129.951 99.6156 130.107 99.9948 130.234 100.384C130.499 101.096 130.852 102.08 131.231 103.172C131.611 104.264 131.941 105.256 132.175 105.975C132.319 106.36 132.43 106.756 132.508 107.16C132.32 106.789 132.164 106.403 132.04 106.006C131.776 105.299 131.423 104.314 131.043 103.222C130.664 102.13 130.33 101.138 130.1 100.415C129.956 100.037 129.845 99.6471 129.766 99.25Z" fill="#E0E0E0"/>
<path d="M132.497 106.952C132.933 106.977 133.368 107.033 133.797 107.121C134.594 107.248 135.714 107.421 136.922 107.583C138.13 107.744 139.253 107.867 140.055 107.967C140.491 107.996 140.926 108.054 141.355 108.14C140.917 108.167 140.479 108.156 140.043 108.109C139.234 108.055 138.126 107.956 136.895 107.79C135.664 107.625 134.563 107.433 133.77 107.275C133.337 107.202 132.911 107.094 132.497 106.952Z" fill="#E0E0E0"/>
<path d="M140.522 37.331L139.614 67.1523L161.346 67.8182L162.255 37.9968L140.522 37.331Z" fill="#F5F5F5"/>
<path d="M136.521 41.2951L135.613 71.1165L157.345 71.7823L158.254 41.9609L136.521 41.2951Z" fill="white"/>
<path d="M157.341 71.7756C157.339 71.7269 157.339 71.6781 157.341 71.6294C157.341 71.5295 157.341 71.391 157.341 71.2103C157.341 70.8258 157.36 70.2874 157.38 69.5799C157.418 68.1533 157.472 66.0807 157.541 63.4544C157.69 58.2057 157.901 50.7651 158.15 41.9556L158.239 42.0479L136.508 41.3904L136.611 41.2943C136.262 52.4455 135.944 62.7469 135.683 71.1142L135.603 71.0296L151.386 71.5564L155.777 71.7102L156.927 71.7563L157.33 71.7756H156.946L155.796 71.7486L151.424 71.6371L135.591 71.1949H135.511V71.1142C135.76 62.7431 136.067 52.4301 136.4 41.2904V41.1904H136.504L158.231 41.8672H158.323V41.9595C158.035 50.8036 157.794 58.2556 157.621 63.516C157.533 66.1307 157.46 68.1995 157.414 69.6184C157.387 70.3182 157.368 70.8565 157.353 71.2295C157.353 71.4064 157.353 71.5448 157.334 71.641C157.314 71.7371 157.341 71.7756 157.341 71.7756Z" fill="#E0E0E0"/>
<path d="M149.779 48.1927C149.779 48.2504 147.413 48.2196 144.499 48.1312C141.585 48.0428 139.219 47.9236 139.219 47.8697C139.219 47.8159 141.589 47.8428 144.503 47.9312C147.417 48.0197 149.779 48.1389 149.779 48.1927Z" fill="#E0E0E0"/>
<path d="M155.394 50.9612C155.394 51.015 151.751 50.9612 147.256 50.8112C142.762 50.6612 139.119 50.5151 139.123 50.4613C139.127 50.4075 142.766 50.4613 147.264 50.6113C151.762 50.7612 155.397 50.9035 155.394 50.9612Z" fill="#E0E0E0"/>
<path d="M155.313 53.6643C155.313 53.7181 151.666 53.6643 147.172 53.5143C142.678 53.3644 139.039 53.2182 139.039 53.1644C139.039 53.1106 142.685 53.1644 147.18 53.3144C151.674 53.4643 155.313 53.6066 155.313 53.6643Z" fill="#E0E0E0"/>
<path d="M155.228 56.3677C155.228 56.4215 151.586 56.3677 147.091 56.2177C142.597 56.0677 138.958 55.9216 138.958 55.8678C138.958 55.814 142.605 55.8678 147.099 56.0177C151.593 56.1677 155.232 56.3215 155.228 56.3677Z" fill="#E0E0E0"/>
<path d="M155.148 59.0708C155.148 59.1246 151.501 59.0708 147.011 58.9208C142.52 58.7709 138.874 58.6247 138.874 58.5709C138.874 58.5171 142.52 58.5709 147.015 58.7209C151.509 58.8708 155.148 59.0131 155.148 59.0708Z" fill="#E0E0E0"/>
<path d="M155.067 61.7742C155.067 61.828 151.421 61.7742 146.926 61.6242C142.432 61.4742 138.793 61.3281 138.793 61.2743C138.793 61.2204 142.44 61.2743 146.934 61.4242C151.428 61.5742 155.067 61.7049 155.067 61.7742Z" fill="#E0E0E0"/>
<path d="M154.983 64.4773C154.983 64.5311 151.336 64.4773 146.846 64.3273C142.355 64.1774 138.709 64.0312 138.713 63.9774C138.716 63.9236 142.355 63.9774 146.85 64.1274C151.344 64.2773 154.987 64.4196 154.983 64.4773Z" fill="#E0E0E0"/>
<path d="M147.375 66.9497C147.375 67.0036 145.416 66.9882 143 66.9151C140.584 66.842 138.628 66.7344 138.628 66.6806C138.628 66.6267 140.588 66.6421 143.004 66.7152C145.419 66.7882 147.375 66.892 147.375 66.9497Z" fill="#E0E0E0"/>
<path d="M92.9704 14.0109L86.1702 31.1375L107.532 39.6661L114.332 22.5396L92.9704 14.0109Z" fill="white"/>
<path d="M114.328 22.5409L114.224 22.5025L113.925 22.3871L112.775 21.9257L108.392 20.1761L92.9535 14.0237L92.9995 14.0045L86.2045 31.1274L86.1815 31.0735L107.541 39.61H107.498C109.554 34.4496 111.26 30.1737 112.449 27.186C113.047 25.694 113.515 24.5212 113.833 23.7252L114.217 22.8139L114.343 22.4986L114.224 22.8101C114.144 23.0177 114.025 23.3215 113.868 23.7176C113.553 24.5174 113.101 25.6902 112.503 27.1783C111.318 30.1699 109.619 34.4573 107.575 39.6292V39.66H107.544L86.1547 31.1735H86.1163V31.135C88.5743 24.9519 90.8943 19.1071 92.919 14.0121V13.9775H92.9497L108.426 20.1761L112.786 21.9295L113.937 22.3909L114.232 22.5102L114.328 22.5409Z" fill="#E0E0E0"/>
<path d="M93.2624 15.4023L87.319 30.3711L107.181 38.3009L113.124 23.3322L93.2624 15.4023Z" fill="#EBEBEB"/>
<path d="M87.3972 30.4163L98.0307 23.8794L100.017 31.4161L104.166 29.4704L107.261 38.3452L87.3972 30.4163Z" fill="#E0E0E0"/>
<path d="M104.603 25.1751C104.48 25.4854 104.268 25.7521 103.993 25.9414C103.719 26.1307 103.395 26.2342 103.062 26.2388C102.729 26.2433 102.402 26.1487 102.123 25.9669C101.843 25.7851 101.624 25.5243 101.492 25.2175C101.361 24.9106 101.323 24.5716 101.384 24.2432C101.445 23.9149 101.601 23.6119 101.833 23.3727C102.066 23.1336 102.364 22.9689 102.69 22.8996C103.015 22.8302 103.354 22.8594 103.664 22.9833C103.869 23.0651 104.056 23.1867 104.215 23.3412C104.373 23.4957 104.5 23.68 104.587 23.8836C104.674 24.0872 104.721 24.3061 104.724 24.5277C104.726 24.7494 104.685 24.9693 104.603 25.1751Z" fill="#E0E0E0"/>
<path d="M37.9799 48.9617C38.1242 49.0214 38.2805 49.0464 38.4362 49.0347C38.6228 49.0133 38.7963 48.9277 38.927 48.7925C39.0788 48.5819 39.2134 48.3594 39.3297 48.1273L41.8184 43.7744L42.6467 42.3363L43.0877 41.5673C43.1644 41.4447 43.2311 41.3161 43.2871 41.1827C43.3274 41.0499 43.3274 40.908 43.2871 40.7752C43.2526 40.6384 43.1761 40.516 43.0685 40.4252C42.9456 40.338 42.8176 40.2584 42.685 40.1868L41.8299 39.71L40.0506 38.7102L32.1282 34.2536C31.9719 34.1698 31.7902 34.147 31.6181 34.1896C31.446 34.2322 31.2958 34.3372 31.1964 34.4843L30.602 35.5072C30.2185 36.1839 29.8351 36.8568 29.4516 37.5144L27.2275 41.325C27.1393 41.475 27.0511 41.6249 26.9667 41.7749C26.8813 41.9048 26.8372 42.0577 26.8402 42.2133C26.8462 42.3651 26.9014 42.5109 26.9974 42.6286C27.1063 42.7417 27.2367 42.8319 27.3809 42.8939L29.0566 43.8475L32.0553 45.5548L36.3962 48.0427L37.5734 48.7271L37.8763 48.9079C37.9454 48.9502 37.9799 48.9732 37.9761 48.9771L37.8687 48.9271L37.5542 48.7617L36.3617 48.108L31.9863 45.6778L28.9876 43.9744L27.308 43.0323C27.1453 42.9602 26.9981 42.8571 26.8747 42.7285C26.7549 42.58 26.6863 42.3965 26.6791 42.2056C26.6709 42.0153 26.7218 41.8272 26.8249 41.6672C26.9092 41.5173 26.9974 41.3673 27.0856 41.2174L29.2829 37.4144L30.4333 35.4072L31.0353 34.3728C31.1623 34.1841 31.3545 34.0494 31.5748 33.9947C31.7951 33.94 32.0278 33.9692 32.2279 34.0767L40.1426 38.5487L41.9219 39.5562L42.7694 40.0407C42.9157 40.1153 43.0567 40.2001 43.1912 40.2945C43.3249 40.4089 43.42 40.5621 43.4635 40.7329C43.5095 40.8963 43.5095 41.0693 43.4635 41.2327C43.4023 41.3783 43.3292 41.5185 43.2449 41.6519L42.7962 42.4209L41.9603 43.8552C40.8904 45.6702 40.0238 47.1429 39.4179 48.1773C39.2921 48.4098 39.1485 48.6322 38.9884 48.8425C38.8457 48.9828 38.6584 49.0685 38.4592 49.0847C38.3387 49.0936 38.2179 49.0739 38.1064 49.0271C38.0614 49.0112 38.0189 48.9892 37.9799 48.9617Z" fill="#E0E0E0"/>
<path d="M35.9553 41.0791L36.9216 42.7979L34.9276 42.8364L32.9336 42.871L33.9613 41.1137L34.9889 39.3564L35.9553 41.0791Z" fill="#E0E0E0"/>
<path d="M166 114.385C166 114.443 129.322 114.489 84.0917 114.489C38.8619 114.489 2.17184 114.45 2.17184 114.385C2.17184 114.319 38.8427 114.277 84.0917 114.277C129.341 114.277 166 114.335 166 114.385Z" fill="#263238"/>
<path d="M42.719 89.9637L31.1421 78.301L36.9631 67.5805C42.7842 60.1053 55.1088 60.586 55.1088 60.586C61.189 60.1715 67.2972 60.5476 73.2812 61.7049C83.0711 63.6276 82.2812 70.1106 82.2812 70.1106L83.5926 94.1704L84.9999 113.762L48.8966 114.493L42.719 89.9791" fill="#3D6CBE"/>
<path d="M62.1682 113.347L29.8305 113.731C28.0491 113.752 26.2916 113.318 24.7232 112.471C23.1548 111.624 21.8269 110.39 20.8642 108.887C19.9015 107.384 19.3356 105.66 19.2198 103.878C19.1039 102.095 19.4418 100.312 20.2017 98.6961L34.0295 72.9829L46.6263 81.5194L38.0328 99.3882L64.2082 99.8574L62.1682 113.347Z" fill="#3D6CBE"/>
<path d="M81.1385 66.1885L107.088 106.364L91.9484 107.356C91.9484 107.356 82.9063 93.0706 83.1095 93.3629C83.47 93.9012 81.1385 66.1885 81.1385 66.1885Z" fill="#3D6CBE"/>
<path d="M45.9745 83.8304C45.9755 83.7598 45.9871 83.6898 46.009 83.6227C46.0474 83.4689 46.0896 83.2767 46.1471 83.0382C46.266 82.5345 46.4423 81.8039 46.6226 80.8964C46.8028 79.989 47.006 78.8969 47.1326 77.6818C47.2883 76.3649 47.2883 75.0342 47.1326 73.7174C46.9245 72.4116 46.4703 71.1575 45.7943 70.0221C45.251 69.0873 44.6081 68.2145 43.877 67.4188C43.3841 66.875 42.8591 66.3613 42.3047 65.8807C42.0934 65.7149 41.8912 65.5378 41.6989 65.3501C41.7613 65.3812 41.8204 65.4185 41.8753 65.4616C41.9826 65.5424 42.1552 65.6539 42.3546 65.8192C42.9312 66.2758 43.4746 66.7731 43.9805 67.3073C44.7363 68.0971 45.4001 68.9704 45.9592 69.9106C46.659 71.0635 47.1279 72.3422 47.3397 73.6751C47.4915 75.0082 47.4812 76.355 47.309 77.6857C47.1795 78.7684 46.9952 79.8439 46.7568 80.908C46.5574 81.8193 46.3733 82.5461 46.2161 83.0459C46.1471 83.2959 46.0857 83.4881 46.0435 83.6189C46.0274 83.6914 46.0043 83.7623 45.9745 83.8304Z" fill="#263238"/>
<path d="M44.9314 85.2146C44.8761 85.4149 44.8016 85.6093 44.709 85.7952C44.5556 86.1797 44.3256 86.695 44.0303 87.3333C43.4436 88.6369 42.6115 90.4287 41.6528 92.3898C40.6941 94.3509 39.7892 96.1082 39.1181 97.3887C38.7806 98.0193 38.5045 98.5422 38.309 98.8768C38.2156 99.063 38.1079 99.2417 37.9869 99.4113C38.0557 99.215 38.1404 99.0247 38.24 98.8422C38.4355 98.4576 38.6886 97.9424 39.0069 97.3233L41.4879 92.3245C42.4274 90.3749 43.2825 88.6138 43.9191 87.2949C44.2182 86.6758 44.4636 86.1605 44.6553 85.7568C44.7321 85.5686 44.8244 85.3873 44.9314 85.2146Z" fill="#263238"/>
<path d="M62.1683 113.346C62.1683 113.346 62.1683 113.323 62.1683 113.281C62.1683 113.239 62.1683 113.162 62.1683 113.081C62.1875 112.896 62.2143 112.639 62.245 112.312C62.3217 111.628 62.429 110.655 62.5632 109.428C62.847 106.94 63.2535 103.441 63.7136 99.3151L63.8057 99.415H54.2535L37.5689 99.3881L32.5072 99.3574L31.1305 99.3381H30.7701H30.6474C30.6881 99.3332 30.7293 99.3332 30.7701 99.3381H31.1305L32.5072 99.3189L37.5689 99.2881L54.2804 99.2612H63.8325H63.9361V99.3612C63.4299 103.483 63.0042 106.982 62.6975 109.467C62.5441 110.689 62.4175 111.662 62.314 112.347C62.2731 112.67 62.2386 112.926 62.2105 113.116L62.1798 113.312C62.1759 113.323 62.1721 113.346 62.1683 113.346Z" fill="#263238"/>
<path d="M38.2593 99.6728C38.0277 99.4162 37.8125 99.1452 37.6151 98.8614C36.5816 97.5604 35.3019 96.4771 33.8495 95.6737C33.5393 95.5231 33.2372 95.3563 32.9445 95.1738C33.2849 95.2538 33.6117 95.3833 33.9146 95.5584C35.4274 96.3078 36.7355 97.415 37.7263 98.7845C37.944 99.0545 38.1234 99.3534 38.2593 99.6728Z" fill="#263238"/>
<path d="M84.1295 102.219C84.1014 102.109 84.0835 101.997 84.0758 101.884C84.049 101.649 84.0145 101.33 83.9684 100.927C83.8802 100.096 83.7614 98.8924 83.6348 97.4043C83.3702 94.4242 83.0673 90.3021 82.7989 85.7494C82.5304 81.1966 82.3425 77.0668 82.2352 74.079C82.1815 72.5832 82.1431 71.3873 82.1278 70.5375C82.1278 70.1338 82.1278 69.8146 82.1086 69.5762C82.1028 69.4648 82.1028 69.3531 82.1086 69.2417C82.1298 69.352 82.1414 69.4639 82.1431 69.5762C82.1431 69.8108 82.1738 70.1338 82.1968 70.5375C82.239 71.3912 82.2965 72.5948 82.3694 74.0713C82.5113 77.0591 82.7222 81.1812 82.9906 85.7378C83.259 90.2944 83.5428 94.4089 83.7575 97.3928C83.8726 98.8655 83.9646 100.084 84.0298 100.923C84.0605 101.307 84.0835 101.646 84.1026 101.88C84.1218 101.992 84.1308 102.105 84.1295 102.219Z" fill="#263238"/>
<path d="M55.2622 80.3583C55.2638 80.1819 55.2779 80.0058 55.3043 79.8315C55.3503 79.4662 55.4079 78.9778 55.4807 78.3779C55.6495 77.109 55.8642 75.371 56.148 73.356L56.2937 73.4483L53.8127 75.1902L51.2894 76.9514L51.1092 77.0783L51.1399 76.8591C51.4467 74.8634 51.7074 73.1407 51.9068 71.8602C52.0065 71.2719 52.0832 70.7874 52.1446 70.426C52.1652 70.2526 52.2011 70.0815 52.2519 69.9146C52.2522 70.0899 52.2368 70.2649 52.2059 70.4375C52.1599 70.799 52.1024 71.2835 52.0257 71.8795C51.8531 73.1407 51.6116 74.8672 51.3355 76.8783L51.1897 76.786L53.7091 75.0172L56.194 73.283L56.3742 73.1561L56.3435 73.3753C56.0483 75.3825 55.7913 77.1206 55.6073 78.3741C55.5114 78.9701 55.4347 79.4585 55.3772 79.8199C55.355 80.0024 55.3165 80.1826 55.2622 80.3583Z" fill="#E0E0E0"/>
<path d="M69.6959 81.9153C69.5577 81.805 69.4294 81.6828 69.3124 81.55C69.0632 81.2809 68.7257 80.9233 68.3116 80.4849L64.8872 76.7627L65.0521 76.705C64.9716 77.6471 64.8872 78.6699 64.799 79.7312C64.7108 80.7925 64.6188 81.8461 64.5383 82.8074L64.5191 83.0305L64.3734 82.8651L61.041 79.0968L60.0901 77.997C59.969 77.8712 59.8611 77.7333 59.7679 77.5856C59.9059 77.7032 60.0341 77.8318 60.1514 77.9701L61.1408 79.0314L64.5229 82.7498L64.358 82.8074C64.4386 81.85 64.5229 80.8117 64.615 79.7312C64.707 78.6507 64.7913 77.6471 64.8719 76.705L64.8911 76.4858L65.0368 76.6473L68.4113 80.4195L69.3738 81.5231C69.4912 81.6452 69.5989 81.7764 69.6959 81.9153Z" fill="#E0E0E0"/>
<path d="M76.9589 81.4004C76.8875 81.5625 76.8001 81.7171 76.6982 81.8618L75.9312 83.1L73.1933 87.3605L73.1012 87.2144L76.0769 86.6991L79.1063 86.1877L79.3249 86.1493L79.2214 86.3146L76.4221 90.4906L75.5784 91.698C75.4848 91.8458 75.3796 91.9859 75.264 92.1171C75.3397 91.9596 75.4269 91.808 75.5248 91.6634L76.2917 90.4329L79.0335 86.2031L79.1293 86.3492L76.1 86.876L73.1128 87.3836L72.8942 87.4182L73.0169 87.2375L75.8124 83.0077L76.633 81.7965C76.7336 81.658 76.8425 81.5257 76.9589 81.4004Z" fill="#E0E0E0"/>
<path d="M67.2991 88.8521C67.227 89.0126 67.1397 89.1658 67.0383 89.3096L66.2714 90.5516L63.5373 94.8083L63.4414 94.6622L66.4248 94.147L69.458 93.6317L69.6766 93.5971L69.55 93.7778L66.7507 97.9576L65.9263 99.1573C65.8347 99.3054 65.7294 99.4444 65.6118 99.5726C65.6886 99.4157 65.7757 99.2641 65.8726 99.1189C66.072 98.8112 66.3328 98.3998 66.6395 97.8922L69.3813 93.6625L69.4772 93.8086L66.4478 94.3354L63.4606 94.8391L63.242 94.8776L63.3647 94.693L66.1602 90.4632C66.4976 89.9633 66.7737 89.5557 66.9846 89.252C67.0797 89.1112 67.1848 88.9776 67.2991 88.8521Z" fill="#E0E0E0"/>
<path d="M88.1713 81.3154C88.0953 81.4739 88.0081 81.6268 87.9106 81.773L87.1436 83.015L84.4095 87.2717L84.3137 87.1256L87.297 86.6103L90.3302 86.0951L90.5488 86.0605L90.4261 86.2412L87.623 90.421C87.2855 90.9132 87.0094 91.3169 86.7985 91.6169C86.7078 91.7666 86.6024 91.907 86.4841 92.036C86.5615 91.8787 86.6499 91.727 86.7487 91.5823L87.5156 90.3556L90.2574 86.1258L90.3533 86.272L87.3239 86.7949L84.3367 87.3025L84.1219 87.3409L84.2408 87.1564L87.0363 82.9266L87.8607 81.7153C87.951 81.5722 88.0551 81.4383 88.1713 81.3154Z" fill="#E0E0E0"/>
<path d="M100.212 100.673C100.075 100.568 99.9467 100.452 99.8285 100.327L98.7779 99.3114L95.1694 95.766L95.3305 95.7007C95.2998 96.6466 95.2691 97.6694 95.2346 98.7346C95.2001 99.7997 95.1579 100.857 95.1234 101.811V102.034L94.9662 101.876L91.4536 98.2808L90.449 97.2311C90.3242 97.1121 90.2088 96.9835 90.1039 96.8466C90.2404 96.9518 90.3686 97.0675 90.4873 97.1926L91.5303 98.2039L95.0966 101.749L94.9317 101.815C94.9624 100.853 94.9969 99.8151 95.0314 98.7384C95.0659 97.6618 95.1081 96.6505 95.1426 95.7045V95.4854L95.296 95.6392L98.8507 99.2383L99.8669 100.292C99.9923 100.409 100.108 100.536 100.212 100.673Z" fill="#E0E0E0"/>
<path d="M39.2983 75.1401C39.2232 75.2992 39.1361 75.4522 39.0375 75.5977L38.2706 76.8397L35.5365 81.1003L35.4406 80.9542L38.424 80.435L41.4572 79.9236L41.6758 79.8852L41.5531 80.0698L38.7499 84.2457L37.9293 85.4454C37.8362 85.5923 37.731 85.7313 37.6149 85.8607C37.6884 85.7033 37.7756 85.5527 37.8756 85.4108L38.6425 84.1803C39.3366 83.1152 40.2876 81.654 41.3843 79.9505L41.4802 80.0967L38.4508 80.6235L35.4636 81.131L35.2489 81.1656L35.3677 80.9849C36.4913 79.293 37.4576 77.8318 38.1632 76.7551L38.9877 75.5439C39.0804 75.4013 39.1843 75.2663 39.2983 75.1401Z" fill="#E0E0E0"/>
<path d="M24.1362 103.895C24.2654 104.012 24.3835 104.14 24.489 104.279L25.4246 105.406L28.6036 109.34L28.4349 109.386C28.5729 108.451 28.7186 107.436 28.8758 106.379C29.0331 105.321 29.1864 104.279 29.3283 103.33L29.359 103.11L29.4971 103.287L32.5878 107.256L33.4659 108.409C33.5775 108.543 33.6776 108.685 33.765 108.836C33.6391 108.717 33.5224 108.588 33.4161 108.451L32.4958 107.329L29.3705 103.403L29.5392 103.36C29.4012 104.31 29.2516 105.341 29.0944 106.41C28.9372 107.479 28.7876 108.478 28.6458 109.413L28.6151 109.632L28.477 109.459L25.348 105.483L24.4545 104.329C24.3388 104.192 24.2324 104.047 24.1362 103.895Z" fill="#E0E0E0"/>
<path d="M58.7633 85.2763C58.5916 85.3132 58.4172 85.3363 58.2418 85.3455L56.7846 85.4724L51.7459 85.8569L51.8072 85.6954L54.016 87.7719L56.2516 89.8867L56.4127 90.0405H56.1903L51.1784 90.3174L49.7289 90.3789C49.5553 90.394 49.3808 90.394 49.2073 90.3789C49.3781 90.3446 49.5511 90.3227 49.725 90.3136L51.1707 90.1982L56.1788 89.8521L56.1212 90.0136L53.878 87.9064L51.6769 85.8223L51.5158 85.6685H51.7344L56.777 85.3647L58.2341 85.2917C58.4099 85.2732 58.5868 85.268 58.7633 85.2763Z" fill="#E0E0E0"/>
<path d="M50.2653 104.656C50.3933 104.777 50.5137 104.905 50.6258 105.041L51.5806 106.148L54.8439 110.017L54.6752 110.063C54.7941 109.125 54.9244 108.109 55.0587 107.052C55.1929 105.995 55.3309 104.945 55.4421 103.995L55.4728 103.772L55.6108 103.945L58.786 107.848L59.6871 109.002C59.7988 109.135 59.9013 109.277 59.9939 109.424C59.8645 109.306 59.7452 109.178 59.6372 109.04L58.6939 107.936L55.4728 104.091L55.6377 104.041C55.5188 104.995 55.3884 106.025 55.2542 107.098C55.12 108.171 54.9858 109.175 54.8708 110.113L54.8401 110.332L54.702 110.163L51.4924 106.248L50.5798 105.095C50.4608 104.959 50.3555 104.813 50.2653 104.656Z" fill="#E0E0E0"/>
<path d="M35.0762 90.4442C34.9046 90.482 34.7301 90.5052 34.5547 90.5134L33.1013 90.6365L28.0626 91.021L28.1201 90.8557L30.3327 92.936L32.5683 95.0508L32.7294 95.2046H32.507L27.495 95.4815L26.0455 95.543C25.8758 95.5575 25.7052 95.5575 25.5355 95.543C25.7059 95.5062 25.8791 95.4844 26.0532 95.4777L27.4989 95.3623L32.507 95.0124L32.4494 95.1777L30.2062 93.0705L28.0012 90.9864L27.844 90.8326H28.0626L33.1052 90.525L34.5623 90.4558C34.7331 90.439 34.9048 90.4352 35.0762 90.4442Z" fill="#E0E0E0"/>
<path d="M48.126 104.222C47.9543 104.258 47.7798 104.28 47.6045 104.287L46.1473 104.414L41.1086 104.798L41.1699 104.633L43.3787 106.713L45.6143 108.828L45.7753 108.982H45.5568L40.541 109.255L39.0915 109.321C38.918 109.336 38.7435 109.336 38.57 109.321C38.7404 109.284 38.9136 109.262 39.0877 109.255L40.5334 109.14L45.5414 108.79L45.4839 108.955L43.2406 106.848L41.0395 104.772L40.8785 104.622H41.097L46.1396 104.314L47.6006 104.245C47.7747 104.221 47.9505 104.213 48.126 104.222Z" fill="#E0E0E0"/>
<path d="M77.5801 69.1686C77.4084 69.2055 77.234 69.2287 77.0586 69.2378L75.6014 69.3609L70.5665 69.7454L70.6241 69.5839L72.8328 71.6603L75.0684 73.7752L75.2295 73.929H75.0109L69.9952 74.2059L68.5457 74.2674C68.3722 74.2825 68.1977 74.2825 68.0242 74.2674C68.1945 74.2306 68.3677 74.2088 68.5418 74.202L69.9875 74.0867L74.9994 73.7406L74.938 73.9021L72.7024 71.7988L70.5013 69.7146L70.3403 69.5608H70.5589L75.6014 69.2532L77.0624 69.184C77.2344 69.1659 77.4074 69.1607 77.5801 69.1686Z" fill="#E0E0E0"/>
<path d="M63.2538 104.222C63.2538 104.222 69.7037 102.357 71.8396 101.811C72.6717 101.599 76.2341 103.483 78.6959 105.052C78.6959 105.052 82.0858 107.067 81.8135 107.686C81.5106 108.371 80.2797 108.232 78.2665 107.302C78.2665 107.302 78.9644 109.328 77.5954 109.282C77.5954 109.282 78.2741 111.474 76.9934 111.701C75.7126 111.928 75.4135 109.132 74.2861 108.982C73.1587 108.832 70.8349 108.678 70.8349 108.678C70.8349 108.678 68.8907 111.908 67.3837 112.139C65.8767 112.37 62.3986 111.958 62.3986 111.958L63.2538 104.222Z" fill="#FFBE9D"/>
<path d="M74.2627 104.668C74.8941 104.95 75.4976 105.291 76.065 105.687C76.667 106.028 77.2346 106.427 77.7599 106.879C76.5248 106.258 75.3534 105.518 74.2627 104.668Z" fill="#EB996E"/>
<path d="M73.8835 105.925C74.6202 106.158 75.336 106.452 76.0232 106.806C76.7336 107.095 77.4185 107.444 78.0709 107.848C77.3339 107.618 76.618 107.325 75.9312 106.971C75.2195 106.683 74.5343 106.333 73.8835 105.925Z" fill="#EB996E"/>
<path d="M74.5734 108.928C75.5476 108.925 76.5177 109.054 77.4571 109.313C76.483 109.316 75.513 109.186 74.5734 108.928Z" fill="#EB996E"/>
<path d="M54.8599 37.4797C54.9358 37.7289 54.9369 37.995 54.863 38.2448C54.7891 38.4946 54.6434 38.717 54.4443 38.8843C54.2451 39.0517 54.0012 39.1565 53.743 39.1857C53.4848 39.2149 53.2237 39.1672 52.9924 39.0486C52.1181 38.6064 52.0069 37.3952 52.1794 36.43C52.352 35.4648 52.6779 34.4305 52.2753 33.5345C51.9647 32.8501 51.2936 32.4156 50.7721 31.8772C50.3119 31.4093 49.9661 30.8408 49.7618 30.2163C49.5576 29.5919 49.5004 28.9284 49.5949 28.2781C49.7054 27.6297 49.9923 27.0244 50.424 26.5291C50.8557 26.0338 51.4154 25.6677 52.0414 25.471C53.326 25.1134 54.9097 25.5095 55.876 24.5751C56.5701 23.8983 56.6123 22.7947 57.1492 21.9872C57.9813 20.7337 59.7414 20.5337 61.2292 20.7375C62.7171 20.9413 64.2279 21.422 65.6851 21.0567C66.9007 20.7529 67.8977 19.9031 69.0404 19.3802C70.2859 18.8093 71.6781 18.643 73.0224 18.9045C74.3667 19.1661 75.5959 19.8423 76.5381 20.8388C77.4803 21.8353 78.0884 23.1021 78.2773 24.4622C78.4662 25.8222 78.2265 27.2075 77.5917 28.4242C77.1685 29.3146 76.4482 30.0287 75.5555 30.4429" fill="#263238"/>
<path d="M62.2606 69.2453C63.2384 69.2434 64.2062 69.0469 65.1078 68.6671C66.0093 68.2873 66.8267 67.7319 67.5127 67.033C68.1986 66.3341 68.7393 65.5057 69.1036 64.5957C69.4678 63.6857 69.6483 62.7122 69.6346 61.7317L69.5388 54.6642C69.5388 54.6642 75.4595 54.0681 75.8506 48.1849C76.2417 42.3017 75.9618 28.7241 75.9618 28.7241C72.704 27.1035 69.0742 26.3834 65.4464 26.6383C61.8187 26.8931 58.3243 28.1135 55.3237 30.1738L54.4187 30.8005L54.8597 61.924C54.8829 63.8758 55.6733 65.7396 57.059 67.1105C58.4448 68.4814 60.314 69.2485 62.2606 69.2453Z" fill="#FFBE9D"/>
<path d="M74.4122 39.4023C74.1981 39.3776 74.0005 39.2748 73.8571 39.1135C73.7137 38.9522 73.6344 38.7436 73.6344 38.5275C73.6344 38.3114 73.7137 38.1028 73.8571 37.9415C74.0005 37.7802 74.1981 37.6774 74.4122 37.6527C74.4588 37.6412 74.5075 37.6412 74.5541 37.6527C74.7682 37.6774 74.9658 37.7802 75.1092 37.9415C75.2526 38.1028 75.3319 38.3114 75.3319 38.5275C75.3319 38.7436 75.2526 38.9522 75.1092 39.1135C74.9658 39.2748 74.7682 39.3776 74.5541 39.4023C74.5071 39.41 74.4592 39.41 74.4122 39.4023Z" fill="#263238"/>
<path d="M75.5628 37.5028C75.4669 37.6028 74.9147 37.1182 74.1056 37.076C73.2965 37.0337 72.6868 37.4143 72.6063 37.3067C72.5257 37.199 72.6638 37.0798 72.9322 36.8991C73.2909 36.6683 73.714 36.559 74.1392 36.5874C74.5644 36.6158 74.9694 36.7803 75.2944 37.0567C75.5359 37.2721 75.6126 37.4797 75.5628 37.5028Z" fill="#263238"/>
<path d="M66.2098 37.7028C66.3489 37.7994 66.4563 37.9352 66.5184 38.093C66.5805 38.2508 66.5946 38.4236 66.5587 38.5894C66.5229 38.7552 66.4388 38.9067 66.3171 39.0246C66.1954 39.1424 66.0415 39.2215 65.875 39.2516C65.7085 39.2818 65.5368 39.2617 65.3817 39.194C65.2265 39.1263 65.0949 39.0139 65.0035 38.8711C64.912 38.7284 64.8649 38.5616 64.868 38.392C64.8711 38.2223 64.9244 38.0574 65.021 37.9181C65.1503 37.7317 65.3481 37.6043 65.571 37.564C65.7938 37.5236 66.0236 37.5735 66.2098 37.7028Z" fill="#263238"/>
<path d="M66.7432 37.7371C66.6435 37.8371 66.0913 37.3526 65.286 37.3103C64.4807 37.268 63.8672 37.6487 63.7828 37.541C63.7406 37.4911 63.8442 37.3142 64.1088 37.1334C64.4674 36.9027 64.8905 36.7934 65.3157 36.8218C65.741 36.8502 66.1459 37.0147 66.4709 37.2911C66.7125 37.5064 66.7892 37.6949 66.7432 37.7371Z" fill="#263238"/>
<path d="M69.6346 44.6051C69.6346 44.5436 70.1369 44.4667 70.9575 44.3975C71.1685 44.3975 71.341 44.3475 71.3602 44.236C71.3756 44.024 71.3346 43.8116 71.2413 43.6207C71.0611 43.0709 70.8809 42.5172 70.6891 41.9365C69.9222 39.5409 69.4199 37.5683 69.5387 37.5299C69.6576 37.4914 70.3708 39.4025 71.1263 41.7981C71.3027 42.3826 71.4752 42.9517 71.6401 43.49C71.7618 43.7699 71.7862 44.0828 71.7091 44.3783C71.6749 44.458 71.6223 44.5286 71.5557 44.584C71.489 44.6395 71.4102 44.6784 71.3257 44.6974C71.2062 44.7242 71.0835 44.7332 70.9614 44.7243C70.1331 44.7089 69.6346 44.6705 69.6346 44.6051Z" fill="#263238"/>
<path d="M66.9502 45.3586C68.1827 45.9931 69.4961 46.455 70.8539 46.7314C70.5562 47.1414 70.1289 47.4383 69.6415 47.5738C69.1541 47.7092 68.6353 47.6753 68.1696 47.4774C66.4402 46.7352 66.9502 45.3586 66.9502 45.3586Z" fill="white"/>
<path d="M69.562 54.5794C66.8475 54.4823 64.2231 53.5774 62.0231 51.98C62.0231 51.98 63.6029 56.3136 69.4891 56.1059L69.562 54.5794Z" fill="#EB996E"/>
<path d="M76.0115 30.212C76.0115 30.212 72.4645 32.0192 67.767 29.7813C64.6993 28.3124 61.1062 27.6318 60.3316 28.2663C59.557 28.9007 59.4535 32.0538 56.4471 33.0344C56.4471 33.0344 56.773 39.056 54.3725 38.8868C51.972 38.7177 53.2912 29.3622 53.2912 29.3622L59.093 26.3782L65.4624 25.0439L71.502 25.7784L76.1879 26.9666L76.0115 30.212Z" fill="#263238"/>
<path d="M54.8099 36.9528C54.714 36.9028 50.841 35.5339 50.7528 39.5676C50.6646 43.6013 54.7178 42.8591 54.7255 42.7438C54.7332 42.6284 54.8099 36.9528 54.8099 36.9528Z" fill="#FFBE9D"/>
<path d="M53.5291 41.1866C53.5291 41.1866 53.4563 41.2366 53.3374 41.2865C53.169 41.3552 52.9805 41.3552 52.8121 41.2865C52.3902 41.1212 52.0451 40.4367 52.0451 39.71C52.0446 39.3635 52.1192 39.0211 52.2637 38.7064C52.305 38.5815 52.3757 38.4684 52.4698 38.3767C52.5639 38.285 52.6787 38.2174 52.8044 38.1796C52.8855 38.1648 52.9693 38.1766 53.0432 38.2133C53.1171 38.25 53.1773 38.3097 53.2147 38.3834C53.2645 38.4949 53.2377 38.5756 53.2569 38.5833C53.2761 38.591 53.3451 38.518 53.3182 38.3526C53.2972 38.252 53.2432 38.1613 53.1648 38.095C53.0563 38.0094 52.9188 37.9694 52.7814 37.9835C52.6153 38.0122 52.4594 38.0831 52.3285 38.1895C52.1976 38.2959 52.0961 38.4341 52.0336 38.591C51.8565 38.9372 51.7645 39.3209 51.7652 39.71C51.7652 40.5213 52.1717 41.2942 52.7469 41.475C52.8544 41.5079 52.9679 41.5167 53.0792 41.5007C53.1906 41.4848 53.297 41.4445 53.3911 41.3827C53.5291 41.2865 53.5291 41.1943 53.5291 41.1866Z" fill="#EB996E"/>
<path d="M52.762 24.329C53.2209 24.194 53.711 24.2117 54.1589 24.3795C54.6069 24.5472 54.9886 24.856 55.2469 25.2595C54.8893 24.988 54.5036 24.7559 54.0965 24.5674C53.6611 24.4416 53.2139 24.3617 52.762 24.329Z" fill="#263238"/>
<path d="M55.182 21.9141C55.2549 21.9141 55.1437 22.7639 55.2817 23.7713C55.4011 24.377 55.5902 24.9667 55.8454 25.5286C55.8454 25.5286 55.6767 25.3863 55.508 25.0864C55.2915 24.6872 55.1486 24.2521 55.0862 23.8021C54.9745 23.1736 55.0072 22.5279 55.182 21.9141Z" fill="#263238"/>
<path d="M71.7052 35.5572C71.6822 35.511 71.8547 35.3688 72.1807 35.238C73.0459 34.9025 74.0065 34.9121 74.8649 35.2649C75.1871 35.4034 75.3596 35.5456 75.3366 35.5918C75.2868 35.6995 74.5122 35.3957 73.519 35.3957C72.5258 35.3957 71.7512 35.6764 71.7052 35.5572Z" fill="#263238"/>
<path d="M62.732 34.719C62.709 34.6728 62.8816 34.5344 63.2075 34.3998C63.6366 34.2335 64.0935 34.1513 64.5535 34.1576C65.0155 34.1575 65.4729 34.2489 65.8995 34.4267C66.2216 34.5652 66.3903 34.7074 66.3711 34.7574C66.352 34.8074 65.5467 34.5613 64.5497 34.5575C63.5527 34.5536 62.7857 34.8266 62.732 34.719Z" fill="#263238"/>
<path d="M71.011 36.2031C71.0196 36.2824 71.0196 36.3623 71.011 36.4415C71.011 36.6107 71.011 36.8261 71.0302 37.0914C71.0493 37.3567 71.0302 37.7143 71.0532 38.0988C71.0387 38.5426 71.1037 38.9854 71.2449 39.4062C71.4298 39.9521 71.7499 40.442 72.1751 40.8301C72.6003 41.2181 73.1167 41.4916 73.6761 41.6249C73.997 41.7036 74.3281 41.7321 74.6578 41.7095C75.0006 41.6941 75.3387 41.6226 75.6586 41.498C76.3408 41.2417 76.9219 40.771 77.3152 40.156C77.6874 39.5688 77.8745 38.8827 77.852 38.1873C77.852 37.499 77.852 36.8376 77.852 36.2031L77.9441 36.2954L72.959 36.2493L71.5133 36.2224H71.1299H70.988C71.1522 36.2041 71.3174 36.1964 71.4827 36.1993L72.9053 36.1724L77.9441 36.1262H78.0706V36.2224C78.0706 36.8568 78.0706 37.5182 78.0706 38.2065C78.0963 38.9399 77.8998 39.6638 77.5069 40.2829C77.09 40.934 76.4737 41.4318 75.7506 41.7018C75.4109 41.8327 75.0521 41.9067 74.6884 41.921C74.3417 41.9417 73.9939 41.9093 73.6569 41.8249C73.0703 41.6827 72.53 41.3916 72.0881 40.9794C71.6462 40.5673 71.3175 40.048 71.1337 39.4716C70.996 39.0318 70.9388 38.5706 70.965 38.1104C70.965 37.7258 70.965 37.3682 70.9841 37.076C71.0033 36.7838 70.9841 36.603 71.0033 36.4338C70.9997 36.3569 71.0023 36.2797 71.011 36.2031Z" fill="#263238"/>
<path d="M61.6125 36.0033C61.6125 36.0033 61.6125 36.0917 61.6125 36.2417V36.8916C61.6125 37.1761 61.6125 37.5145 61.6317 37.9029C61.6216 38.3464 61.6864 38.7884 61.8234 39.2102C62.0001 39.7166 62.29 40.1756 62.6709 40.5522C63.1107 40.9809 63.6579 41.2825 64.2546 41.4251C64.9143 41.5845 65.6067 41.5403 66.2409 41.2982C66.9211 41.0422 67.5008 40.5729 67.8937 39.9601C68.2673 39.3733 68.4557 38.6871 68.4344 37.9913C68.4344 37.303 68.4344 36.6378 68.4344 36.0033L68.5264 36.0956L63.5413 36.0494L62.0995 36.0264H61.716H61.5742C61.7371 36.0082 61.9011 36.0005 62.065 36.0033L63.4877 35.9802L68.5264 35.9341H68.6184V36.0264C68.6184 36.6608 68.6184 37.3261 68.6184 38.0144C68.6416 38.748 68.4438 39.4715 68.0509 40.0908C67.6341 40.7396 67.0194 41.2359 66.2985 41.5059C65.9586 41.6364 65.5999 41.7104 65.2363 41.725C64.8883 41.7456 64.5392 41.7132 64.2009 41.6289C63.5743 41.4742 63.0016 41.1511 62.5443 40.6945C62.1488 40.296 61.852 39.81 61.6777 39.2756C61.54 38.8358 61.4828 38.3746 61.509 37.9144C61.509 37.5299 61.509 37.1723 61.532 36.88C61.555 36.5878 61.532 36.4071 61.532 36.2379C61.546 36.1558 61.5732 36.0766 61.6125 36.0033Z" fill="#263238"/>
<path d="M71.0957 36.484C70.2187 36.6178 69.3267 36.6178 68.4497 36.484C69.3263 36.3452 70.2191 36.3452 71.0957 36.484Z" fill="#263238"/>
<path d="M54.2961 36.5342C55.5153 36.432 56.7389 36.3946 57.962 36.4224C59.186 36.3875 60.4109 36.4171 61.6318 36.5111C60.4129 36.6181 59.189 36.6554 57.9659 36.6229C56.7419 36.6622 55.5167 36.6326 54.2961 36.5342Z" fill="#263238"/>
<path d="M93.743 109.098C94.6047 110.701 95.9098 112.021 97.5016 112.899C99.0933 113.777 100.904 114.175 102.716 114.046C104.857 113.896 106.883 113.018 108.459 111.558C110.035 110.098 111.068 108.142 111.386 106.014L113.61 80.485L104.702 78.2778L101.063 98.2731C101.063 98.2731 99.1614 106.652 93.743 109.098Z" fill="#FFBE9D"/>
<path d="M104.622 80.1273L104.917 75.6476C104.917 75.6476 106.179 65.5961 106.179 64.6117C106.179 63.4812 106.719 63.2044 107.137 63.2352C107.785 63.2775 108.246 64.0811 108.288 65.0539C108.288 65.3885 108.257 70.7026 108.257 70.7026C108.564 70.2005 108.906 69.7211 109.281 69.2684C110.048 68.2724 111.904 67.7033 113.794 67.7649C115.685 67.8264 116.203 68.0109 116.214 68.7454C116.207 68.8857 116.169 69.0228 116.103 69.1466C116.037 69.2703 115.944 69.3776 115.831 69.4606C115.482 69.7523 115.038 69.9055 114.584 69.8913C111.559 69.8374 110.75 71.4563 110.75 71.4563L110.711 72.0446C110.711 72.0446 112.548 70.7257 114.013 71.2756C114.229 71.3559 114.428 71.4787 114.596 71.637C115.008 71.6387 115.413 71.7484 115.77 71.9554C116.127 72.1623 116.424 72.4593 116.632 72.8169C116.839 73.1744 116.95 73.5801 116.952 73.9937C116.955 74.4072 116.85 74.8144 116.647 75.1747C116.569 75.3595 116.435 75.5157 116.265 75.6222C116.095 75.7288 115.897 75.7806 115.696 75.7707C115.494 75.7097 115.31 75.5971 115.163 75.4438C115.078 75.3707 114.987 75.3039 114.891 75.2439L114.554 76.8704C114.554 76.8704 113.599 80.4849 113.361 82.1076" fill="#FFBE9D"/>
<path d="M105.492 79.7777C106.045 79.9315 106.616 79.5239 106.915 79.0317C107.214 78.5395 107.341 77.9589 107.602 77.4436C108.391 75.9055 110.286 75.1749 111.011 73.5984C111.11 73.3792 111.164 73.0793 110.972 72.9332C110.78 72.787 110.543 72.9062 110.347 73.0139L105.362 75.7825" fill="#FFBE9D"/>
<path d="M105.358 75.7747C105.513 75.6366 105.685 75.5179 105.868 75.4209C106.206 75.2094 106.7 74.9172 107.314 74.5596L109.48 73.3176L110.106 72.9638C110.338 72.7791 110.635 72.6947 110.93 72.7293C111.021 72.7588 111.101 72.8155 111.159 72.8917C111.218 72.968 111.251 73.0602 111.256 73.1561C111.266 73.3141 111.238 73.4723 111.175 73.6175C111.06 73.8741 110.916 74.1166 110.746 74.3404C110.056 75.2402 109.162 75.8055 108.518 76.463C108.205 76.7606 107.938 77.1042 107.728 77.482C107.54 77.8357 107.421 78.2049 107.276 78.5394C107.186 78.8187 107.037 79.0748 106.838 79.2901C106.639 79.5053 106.396 79.6743 106.125 79.7853C105.715 79.9083 105.485 79.7853 105.5 79.7622C105.699 79.7683 105.897 79.7357 106.083 79.6661C106.323 79.5433 106.535 79.3719 106.705 79.1627C106.875 78.9536 107 78.7112 107.072 78.451C107.195 78.0785 107.337 77.7127 107.498 77.3551C107.709 76.9457 107.985 76.5731 108.315 76.2515C108.974 75.5594 109.849 74.9787 110.493 74.1443C110.645 73.9428 110.773 73.7248 110.876 73.4945C110.972 73.2753 110.957 73.0561 110.834 73.033C110.711 73.01 110.47 73.1138 110.259 73.233L109.622 73.5791L107.425 74.7788C106.796 75.1133 106.275 75.3748 105.93 75.5478C105.751 75.6501 105.558 75.7265 105.358 75.7747Z" fill="#EB996E"/>
<path d="M110.642 72.087C110.676 71.7232 110.796 71.3726 110.991 71.0642C111.219 70.7478 111.541 70.5132 111.912 70.3951C112.376 70.2421 112.861 70.1643 113.35 70.1644C113.851 70.1694 114.352 70.1256 114.845 70.0336C115.258 69.9491 115.642 69.7568 115.957 69.4761C116.062 69.3791 116.144 69.2594 116.195 69.1262C116.247 68.9929 116.268 68.8496 116.256 68.707C116.251 68.6022 116.216 68.501 116.157 68.4148C116.138 68.4148 116.157 68.5263 116.176 68.7109C116.174 68.8398 116.144 68.9667 116.089 69.0829C116.033 69.1991 115.953 69.3018 115.854 69.3838C115.547 69.6257 115.187 69.7893 114.803 69.8606C114.32 69.9402 113.831 69.9762 113.342 69.9683C112.835 69.9627 112.331 70.042 111.85 70.2028C111.448 70.3432 111.104 70.6138 110.873 70.9719C110.722 71.2129 110.635 71.488 110.619 71.7717C110.598 71.8769 110.606 71.9861 110.642 72.087Z" fill="#EB996E"/>
<path d="M108.261 64.6772C108.228 65.029 108.228 65.383 108.261 65.7347C108.261 66.4576 108.261 67.3228 108.288 68.2764C108.315 69.23 108.288 70.0952 108.288 70.8181C108.265 71.1706 108.272 71.5244 108.311 71.8756C108.395 71.5307 108.437 71.1769 108.437 70.8219C108.483 70.1721 108.514 69.2839 108.51 68.2764C108.506 67.2689 108.468 66.3768 108.422 65.727C108.406 65.3723 108.352 65.0204 108.261 64.6772Z" fill="#EB996E"/>
<path d="M111.839 73.2674C111.946 73.2416 112.049 73.2015 112.145 73.1482C112.27 73.0841 112.408 73.0475 112.548 73.0409C112.688 73.0343 112.828 73.0577 112.958 73.1097C113.039 73.1534 113.106 73.217 113.154 73.2945C113.203 73.3719 113.23 73.4606 113.235 73.5519C113.247 73.7813 113.23 74.0113 113.185 74.2364C113.121 74.5194 113.166 74.8159 113.311 75.067C113.403 75.196 113.524 75.3015 113.663 75.375C113.803 75.4485 113.959 75.4879 114.117 75.49C114.272 75.4889 114.425 75.4563 114.568 75.3942C114.71 75.332 114.838 75.2417 114.945 75.1285C115.145 74.9274 115.279 74.6698 115.328 74.3902C115.388 73.938 115.382 73.4793 115.309 73.029C115.269 72.7244 115.177 72.4291 115.037 72.1561C114.929 71.9639 114.83 71.8908 114.822 71.8985C114.814 71.9062 114.883 72.0023 114.964 72.1907C115.069 72.4672 115.135 72.7572 115.16 73.0521C115.21 73.4856 115.203 73.9238 115.14 74.3556C115.092 74.6002 114.965 74.8223 114.78 74.9886C114.595 75.155 114.36 75.2567 114.113 75.2785C113.988 75.2777 113.865 75.2478 113.754 75.191C113.643 75.1343 113.546 75.0523 113.472 74.9516C113.356 74.7407 113.32 74.4952 113.369 74.2595C113.411 74.0171 113.422 73.7701 113.399 73.525C113.388 73.408 113.347 73.2958 113.28 73.1994C113.213 73.1031 113.122 73.0258 113.016 72.9752C112.867 72.9182 112.706 72.8976 112.548 72.915C112.389 72.9324 112.237 72.9872 112.103 73.0751C111.923 73.1828 111.816 73.2405 111.839 73.2674Z" fill="#EB996E"/>
<path d="M114.857 74.9671C114.83 75.0675 114.841 75.1743 114.887 75.2671C114.941 75.399 115.025 75.5168 115.131 75.6114C115.237 75.7061 115.364 75.775 115.501 75.8131C115.707 75.8576 115.922 75.8477 116.124 75.7843C116.325 75.721 116.507 75.6064 116.651 75.4516C116.997 75.0708 117.182 74.5706 117.169 74.0558C117.169 73.5472 117.011 73.0512 116.716 72.6369C116.476 72.299 116.149 72.0332 115.769 71.8679C115.52 71.7552 115.252 71.6913 114.979 71.6794C114.788 71.6794 114.684 71.6794 114.684 71.7102C115.038 71.756 115.383 71.8545 115.708 72.0024C116.048 72.172 116.341 72.4246 116.559 72.7369C116.814 73.1246 116.948 73.5799 116.943 74.0443C116.955 74.5054 116.797 74.9549 116.498 75.3055C116.376 75.4435 116.222 75.5481 116.049 75.6094C115.875 75.6706 115.69 75.6865 115.509 75.6554C115.388 75.6283 115.274 75.5755 115.176 75.5005C115.077 75.4255 114.996 75.3302 114.937 75.2209C114.884 75.0748 114.883 74.9671 114.857 74.9671Z" fill="#EB996E"/>
<path d="M111.214 78.5202C111.049 78.468 110.872 78.468 110.707 78.5202C110.276 78.6149 109.887 78.8501 109.603 79.1893L109.779 79.2431C109.756 79.0051 109.718 78.7688 109.664 78.5356C109.512 77.7089 109.133 76.9409 108.572 76.3169C108.947 77.0382 109.245 77.7974 109.461 78.5818C109.515 78.8202 109.553 79.0509 109.58 79.2662L109.611 79.5046L109.76 79.3162C110.015 79.0019 110.354 78.7682 110.738 78.6433C111.026 78.5548 111.214 78.5471 111.214 78.5202Z" fill="#EB996E"/>
<path d="M111.31 69.4798C111.26 69.5029 111.463 69.8643 111.931 70.0835C112.399 70.3027 112.813 70.1758 112.794 70.1219C112.774 70.0681 112.41 70.072 112.027 69.8912C111.643 69.7105 111.359 69.4413 111.31 69.4798Z" fill="#EB996E"/>
<path d="M103.088 83.0269L114.281 83.8305C114.281 83.8305 112.56 103.691 112.226 106.771C111.892 109.851 109.925 114.496 103.088 114.496C96.2508 114.496 94.9777 112.162 91.9368 107.356C95.5222 104.864 101.217 97.4235 101.217 97.4235L103.088 83.0269Z" fill="#3D6CBE"/>
<path d="M108.365 85.6992C108.307 85.8667 108.238 86.0298 108.158 86.1876L107.533 87.5103L105.324 92.0823L105.213 91.9478L108.115 91.0826L111.064 90.2136L111.279 90.152L111.175 90.3481L108.875 94.8279L108.196 96.116C108.121 96.2733 108.032 96.4239 107.931 96.5659C107.99 96.4014 108.059 96.2408 108.138 96.0852C108.299 95.7546 108.522 95.3162 108.767 94.774L110.995 90.2635L111.106 90.3981L108.161 91.2748L105.255 92.1285L105.044 92.19L105.144 91.9939L107.433 87.468C107.713 86.9335 107.939 86.4952 108.108 86.1683C108.18 86.005 108.266 85.8481 108.365 85.6992Z" fill="#E0E0E0"/>
<path d="M107.306 104.802C107.134 104.839 106.96 104.862 106.785 104.872L105.327 104.999L100.289 105.383L100.35 105.218L102.559 107.294L104.794 109.409L104.956 109.563H104.733L99.7212 109.84L98.2717 109.901C98.0982 109.916 97.9237 109.916 97.7502 109.901C97.9209 109.867 98.094 109.847 98.2679 109.84L99.7136 109.72L104.722 109.374L104.664 109.54L102.421 107.429L100.22 105.345L100.059 105.195H100.277L105.32 104.891L106.781 104.818C106.955 104.799 107.131 104.794 107.306 104.802Z" fill="#E0E0E0"/>
<path d="M95.4498 81.4041L82.7225 112.966H59.7721V114.392H128.133L142.118 81.4041H95.4498Z" fill="#79C930"/>
<path d="M114.907 100.038C114.447 101.626 113.105 102.63 111.908 102.284C110.712 101.938 110.118 100.361 110.578 98.7729C111.038 97.1848 112.384 96.1812 113.58 96.5272C114.777 96.8733 115.371 98.4499 114.907 100.038Z" fill="#FAFAFA"/>
</svg>
