<svg width="15" height="15" xmlns="http://www.w3.org/2000/svg"><g fill="#FFF" fill-rule="evenodd"><path d="M7.5.064C3.397.064.051 3.397.051 7.5s3.334 7.436 7.449 7.436A7.441 7.441 0 0014.936 7.5 7.441 7.441 0 007.5.064zm0 13.833A6.407 6.407 0 011.103 7.5 6.407 6.407 0 017.5 1.103 6.407 6.407 0 0113.897 7.5 6.407 6.407 0 017.5 13.897z"/><path d="M10.923 6.91H8.026V4a.52.52 0 00-.526-.526.52.52 0 00-.526.526v2.897H4.077a.52.52 0 00-.526.526c0 .295.231.526.526.526h2.897v2.897c0 .295.231.526.526.526a.52.52 0 00.526-.526V7.95h2.897a.52.52 0 00.526-.526.51.51 0 00-.526-.513z"/></g></svg>