<svg width="20" height="20" viewBox="0 0 20 20" fill="none" xmlns="http://www.w3.org/2000/svg">
<g clip-path="url(#clip0)">
<path d="M15.8593 6.41602L15.2706 0.527734C15.2406 0.228125 14.9886 0 14.6874 0H13.1722C13.0169 0 12.8679 0.0617187 12.7581 0.171523L11.4704 1.45918C11.2921 1.6375 11.2479 1.90996 11.3607 2.13555L12.1124 3.63891C12.2445 3.9032 12.1592 4.22457 11.9133 4.38848L8.82806 6.44531L9.86892 4.36359C9.95138 4.19863 9.95138 4.00445 9.86892 3.83949L9.01692 2.13555C8.90415 1.90996 8.94837 1.63754 9.12669 1.45918L9.58552 1.00039C9.95349 0.632422 9.69294 0 9.17145 0H5.31247C5.0113 0 4.75934 0.228125 4.72927 0.527734L4.14059 6.41602C3.81345 9.68832 6.22368 12.5464 9.41403 12.8614V18.8281H7.65622C7.32329 18.8281 7.05489 19.1063 7.07099 19.4428C7.08606 19.7578 7.35755 20 7.67294 20H12.3271C12.6425 20 12.914 19.7578 12.929 19.4428C12.9451 19.1063 12.6767 18.8281 12.3438 18.8281H10.586V12.8614C13.7856 12.5462 16.1854 9.67789 15.8593 6.41602Z" fill="#79C930" fill-opacity="0.7"/>
</g>
<defs>
<clipPath id="clip0">
<rect width="20" height="20" fill="white"/>
</clipPath>
</defs>
</svg>
