<svg width="24" height="24" viewBox="0 0 24 24" fill="none" xmlns="http://www.w3.org/2000/svg">
<path d="M13.5063 6.02502H9.74064C9.35232 6.02502 9.03751 6.33984 9.03751 6.72815V12.05H8.2344C7.84609 12.05 7.53128 12.3648 7.53128 12.7531C7.53128 13.1414 7.84609 13.4563 8.2344 13.4563H9.03751V15.0625H8.2344C7.84609 15.0625 7.53128 15.3773 7.53128 15.7656C7.53128 16.154 7.84609 16.4688 8.2344 16.4688H9.03751V18.025C9.03751 18.4133 9.35232 18.7281 9.74064 18.7281C10.1289 18.7281 10.4438 18.4133 10.4438 18.025V16.4688H13.5063C13.8946 16.4688 14.2094 16.154 14.2094 15.7656C14.2094 15.3773 13.8946 15.0625 13.5063 15.0625H10.4438V13.4563H13.5063C15.5551 13.4563 17.2219 11.7894 17.2219 9.74062C17.2219 7.64118 15.5117 6.02502 13.5063 6.02502ZM13.5063 12.05H10.4438V7.43127H13.5063C14.772 7.43127 15.8157 8.45221 15.8157 9.74066C15.8156 11.0141 14.7797 12.05 13.5063 12.05Z" fill="#BDBDBD"/>
<path d="M12 0C5.38317 0 0 5.38317 0 12C0 18.6168 5.38317 24 12 24C18.6168 24 24 18.6168 24 12C24 5.38317 18.6168 0 12 0ZM12 22.5938C6.15858 22.5938 1.40625 17.8414 1.40625 12C1.40625 6.15858 6.15858 1.40625 12 1.40625C17.8414 1.40625 22.5938 6.15858 22.5938 12C22.5938 17.8414 17.8414 22.5938 12 22.5938Z" fill="#BDBDBD"/>
</svg>
