<svg width="20" height="20" viewBox="0 0 20 20" fill="none" xmlns="http://www.w3.org/2000/svg">
<g clip-path="url(#clip0)">
<path d="M18.1161 1.88434C15.603 -0.628789 11.514 -0.62875 9.0009 1.88437C7.2843 3.60098 6.68805 6.1307 7.43133 8.42582L0.172656 15.6845C0.0627734 15.7944 0.000976562 15.9432 0.000976562 16.0988V19.4136C0.000976562 19.7375 0.263047 19.9995 0.586914 19.9995H3.90168C4.0573 19.9995 4.20609 19.9377 4.31594 19.8279L5.14449 18.9987C5.27094 18.8723 5.33273 18.6949 5.31215 18.5169L5.20914 17.6266L6.44281 17.5104C6.7232 17.4841 6.94465 17.2626 6.97098 16.9822L7.08715 15.7486L7.9775 15.8521C8.14285 15.8744 8.30937 15.8189 8.43469 15.7079C8.55941 15.5964 8.63094 15.4373 8.63094 15.2702V14.1792H9.70211C9.85773 14.1792 10.0065 14.1174 10.1164 14.0075L11.619 12.5248C13.9135 13.2687 16.3995 12.7173 18.1161 10.9996C20.6292 8.48648 20.6292 4.39746 18.1161 1.88434ZM16.4585 6.0277C15.773 6.7132 14.6583 6.7132 13.9728 6.0277C13.2873 5.34219 13.2873 4.22754 13.9728 3.54203C14.6583 2.85652 15.773 2.85652 16.4585 3.54203C17.144 4.22754 17.1439 5.34219 16.4585 6.0277Z" fill="#A1D96E"/>
</g>
<defs>
<clipPath id="clip0">
<rect width="20" height="20" fill="white"/>
</clipPath>
</defs>
</svg>
