<svg width="35" height="35" viewBox="0 0 35 35" fill="none" xmlns="http://www.w3.org/2000/svg">
<path d="M35 11.1426V9.29688C35 7.18266 33.2861 5.46875 31.1719 5.46875H3.82812C1.71391 5.46875 0 7.18266 0 9.29688V11.1426C0 11.3313 0.153057 11.4844 0.341797 11.4844H34.6582C34.8469 11.4844 35 11.3313 35 11.1426Z" fill="#303030"/>
<path d="M0 14.0137V25.7031C0 27.8173 1.71391 29.5312 3.82812 29.5312H31.1719C33.2861 29.5312 35 27.8173 35 25.7031V14.0137C35 13.8249 34.8469 13.6719 34.6582 13.6719H0.341797C0.153057 13.6719 0 13.8249 0 14.0137ZM8.75 22.9688C8.75 23.5728 8.26027 24.0625 7.65625 24.0625H6.5625C5.95848 24.0625 5.46875 23.5728 5.46875 22.9688V21.875C5.46875 21.271 5.95848 20.7812 6.5625 20.7812H7.65625C8.26027 20.7812 8.75 21.271 8.75 21.875V22.9688Z" fill="#303030"/>
</svg>
