<svg width="15" height="18" xmlns="http://www.w3.org/2000/svg"><g fill="#000" fill-rule="evenodd"><path d="M4.514 8.205a.29.29 0 00.407 0 .276.276 0 000-.397l-.518-.505a.293.293 0 00-.407 0 .276.276 0 000 .397l.518.505zM7.5 3.022c.578 0 1.048-.459 1.048-1.022 0-.564-.47-1.022-1.048-1.022-.578 0-1.048.458-1.048 1.022 0 .563.47 1.022 1.048 1.022zm0-1.483c.26 0 .472.207.472.46 0 .255-.211.461-.472.461A.467.467 0 017.028 2c0-.254.212-.46.472-.46zM3.565 10.438h-.732a.284.284 0 00-.288.281c0 .155.129.28.288.28h.732a.284.284 0 00.288-.28.284.284 0 00-.288-.28zM4.514 13.233l-.518.505a.276.276 0 000 .397.29.29 0 00.407 0l.518-.505a.276.276 0 000-.397.293.293 0 00-.407 0zM7.5 7.163a.284.284 0 00.288-.28v-.715a.284.284 0 00-.288-.28.284.284 0 00-.288.28v.714c0 .155.13.281.288.281z"/><path d="M7.5 4.95c-3.263 0-5.917 2.588-5.917 5.769s2.654 5.77 5.917 5.77 5.917-2.589 5.917-5.77c0-3.181-2.654-5.77-5.917-5.77zm0 10.977c-2.945 0-5.341-2.336-5.341-5.208 0-2.872 2.396-5.208 5.341-5.208 2.945 0 5.341 2.336 5.341 5.208 0 2.872-2.396 5.208-5.341 5.208z"/><path d="M7.5 14.275a.284.284 0 00-.288.28v.715c0 .155.13.28.288.28a.284.284 0 00.288-.28v-.714a.284.284 0 00-.288-.281zM10.486 13.233a.293.293 0 00-.407 0 .276.276 0 000 .397l.518.505a.29.29 0 00.407 0 .276.276 0 000-.397l-.518-.505z"/><path d="M8.796 3.548c.46-.367.755-.925.755-1.548 0-1.103-.92-2-2.051-2-1.13 0-2.05.897-2.05 2 0 .623.294 1.181.754 1.548-3.502.6-6.172 3.587-6.172 7.171C.032 14.734 3.382 18 7.5 18s7.468-3.266 7.468-7.281c0-3.584-2.67-6.57-6.172-7.171zM6.025 2C6.025 1.207 6.687.56 7.5.56c.813 0 1.475.646 1.475 1.439S8.313 3.438 7.5 3.438c-.813 0-1.475-.645-1.475-1.438zM7.5 17.439c-3.8 0-6.892-3.015-6.892-6.72 0-3.705 3.092-6.72 6.892-6.72 3.8 0 6.892 3.015 6.892 6.72 0 3.705-3.092 6.72-6.892 6.72z"/><path d="M12.167 10.438h-.732a.284.284 0 00-.288.281c0 .155.129.28.288.28h.732a.284.284 0 00.288-.28.284.284 0 00-.288-.28zM9.103 10.178a.355.355 0 00-.078-.181L5.987 6.253a.372.372 0 00-.43-.11.356.356 0 00-.226.375l.567 4.742c.007.066.034.13.077.181l3.038 3.744a.37.37 0 00.43.11.356.356 0 00.226-.375l-.566-4.742zm-3.116-3.02l2.365 2.913-1.924.777-.441-3.69zm.661 4.209l1.924-.777.441 3.69-2.365-2.913zM10.282 8.287a.29.29 0 00.204-.082l.518-.505a.276.276 0 000-.397.293.293 0 00-.407 0l-.518.505a.276.276 0 000 .397.29.29 0 00.203.082z"/></g></svg>