<svg width="50" height="50" viewBox="0 0 50 50" fill="none" xmlns="http://www.w3.org/2000/svg">
<g clip-path="url(#clip0)">
<path d="M48.7335 25.3014C49.5833 25.4688 50.1368 26.2924 49.9704 27.1412L49.3504 30.2987C49.1791 31.1727 48.3121 31.7332 47.437 31.5185C46.6174 31.3179 46.1204 30.4801 46.2827 29.6525L46.2999 29.5678L42.213 29.7543C42.09 29.7593 41.9831 29.841 41.9448 29.9589C41.5456 31.1646 41.0204 32.3139 40.3843 33.3885C40.3197 33.4974 40.3298 33.6355 40.4115 33.7323L42.219 35.8796C42.5779 35.5379 43.0467 35.3604 43.5205 35.3604C43.9197 35.3604 44.323 35.4864 44.6647 35.7486C45.4924 36.3816 45.6496 37.5662 45.0165 38.3949L44.4923 39.0794C43.8774 39.8839 42.7311 40.0996 41.8964 39.524C41.1776 39.029 40.9175 38.1388 41.1776 37.3656L38.5737 36.2214C38.4557 36.1699 38.3196 36.2002 38.2339 36.295C37.0282 37.6186 35.6249 38.7578 34.0704 39.6671C33.9636 39.7296 33.9061 39.8506 33.9263 39.9726L34.5926 44.0373L35.1693 43.8064C35.9969 43.4758 36.9385 43.8992 37.2339 44.751C37.5101 45.5485 37.0766 46.4205 36.2933 46.733L33.3466 47.9125C32.5199 48.2432 31.5783 47.8198 31.283 46.9679C31.0067 46.1705 31.4402 45.2984 32.2235 44.9849L32.3032 44.9537L29.926 41.6229C29.8545 41.522 29.7285 41.4777 29.6085 41.5089C28.188 41.8769 26.6981 42.0745 25.1617 42.0745C23.9459 42.0745 22.7603 41.9505 21.6141 41.7166C21.4931 41.6924 21.3691 41.7438 21.3026 41.8477L18.9245 45.5787L19.0081 45.6089C19.7824 45.8912 20.2622 46.6221 20.2622 47.4004C20.2622 47.6181 20.2249 47.8389 20.1463 48.0546C20.1463 49.1706 19.2884 49.7715 18.2399 49.3884L15.3174 48.3228C14.3395 47.9669 13.8294 46.8933 14.1672 45.9124C14.5139 44.9012 15.6662 44.3911 16.6703 44.7571L16.7379 44.7813L17.2217 40.4091C17.2359 40.2861 17.1713 40.1691 17.0615 40.1117C15.2106 39.156 13.5502 37.8827 12.1519 36.3635C12.0672 36.2718 11.9352 36.2415 11.8203 36.2889L8.25354 37.7517C8.65679 38.5058 8.42996 39.4614 7.69403 39.9453C6.92585 40.4504 5.88849 40.2155 5.36427 39.4615L4.45092 38.1459C3.9398 37.4109 4.05876 36.3867 4.76243 35.8322C5.51247 35.2415 6.58208 35.3947 7.1436 36.1377L9.65583 33.2988C9.7395 33.2041 9.75362 33.067 9.69212 32.9571C8.66082 31.0981 7.95513 29.0335 7.65169 26.8408C7.63455 26.7178 7.54483 26.618 7.42487 26.5908L3.41054 25.6633L3.40651 26.1341C3.40248 26.6049 3.20892 27.0314 2.89741 27.3388C2.58691 27.6473 2.15947 27.8368 1.68767 27.8368C0.75012 27.8368 -0.00899256 27.0717 8.04935e-05 26.1341L0.0262915 23.2177C0.0343565 22.264 0.822704 21.4605 1.77538 21.4857C2.69982 21.5099 3.43776 22.27 3.43272 23.1975L7.41781 22.263C7.53878 22.2347 7.6285 22.1349 7.64463 22.0119C7.95715 19.6933 8.7203 17.5168 9.84233 15.5731C9.90483 15.4642 9.89374 15.3281 9.81209 15.2313L7.91179 12.9994L7.74645 13.2171C7.23433 13.8946 6.25646 14.0125 5.59614 13.4631C4.97716 12.947 4.90155 12.0215 5.38746 11.3793L6.65366 9.70586C6.94803 9.31773 7.39462 9.11308 7.84727 9.11308C8.16079 9.11308 8.47734 9.21188 8.74752 9.41552C9.37356 9.88833 9.52074 10.7573 9.10741 11.4086L11.7648 12.5578C11.8818 12.6082 12.0168 12.578 12.1035 12.4842C13.3576 11.1092 14.8265 9.93369 16.4576 9.00925C16.5645 8.94775 16.6239 8.82779 16.6058 8.7058L15.9939 4.632L15.4132 4.8558C14.5825 5.17538 13.646 4.73886 13.3627 3.88398C13.0965 3.08253 13.5421 2.21655 14.3295 1.91412L17.2913 0.774945C18.123 0.455372 19.0585 0.890879 19.3418 1.74677C19.608 2.54722 19.1634 3.41319 18.375 3.71663L18.2954 3.74688L20.6262 7.10794C20.6967 7.20976 20.8217 7.25613 20.9417 7.2269C22.2946 6.89523 23.707 6.71981 25.1617 6.71981H25.1637C25.2907 6.71981 25.4046 6.64219 25.447 6.52222L26.2192 4.36284C25.325 4.08258 24.7292 3.20048 24.8431 2.23873C24.9732 1.14896 26.0166 0.374723 27.1063 0.511827L28.1669 0.644898C29.2476 0.780994 30.0581 1.74879 29.9402 2.83251C29.8474 3.67631 29.2405 4.3336 28.4703 4.53522L28.7385 6.87607C28.7526 7.00209 28.8463 7.10491 28.9714 7.13213C30.7638 7.52631 32.4544 8.19267 33.9968 9.08486C34.1047 9.14635 34.2378 9.13728 34.3335 9.05865L37.5323 6.46274L37.0464 6.07663C36.3477 5.52217 36.249 4.4949 36.8417 3.81644C37.3962 3.18031 38.369 3.12386 39.0293 3.64909L41.5144 5.62197C42.213 6.17543 42.3118 7.20371 41.719 7.88217C41.1645 8.51729 40.1917 8.57374 39.5314 8.04952L39.4638 7.99609L37.751 11.715C37.6986 11.8269 37.7228 11.959 37.8095 12.0477C39.0152 13.2827 40.0415 14.694 40.846 16.2385C40.9044 16.3504 41.0264 16.4139 41.1514 16.3967L43.58 16.057C43.2231 15.061 43.7524 13.9571 44.7706 13.6234C45.7414 13.3048 46.7878 13.8442 47.1447 14.8019L47.7042 16.302C48.057 17.2506 47.6336 18.3363 46.7062 18.7396C45.817 19.1257 44.8139 18.7769 44.3361 17.9886L42.3208 19.3556C42.215 19.4271 42.1676 19.5582 42.2019 19.6812C42.6162 21.1833 42.838 22.764 42.838 24.3972C42.838 24.6704 42.832 24.9415 42.8189 25.2107C42.8138 25.3347 42.8834 25.4486 42.9963 25.498L46.7747 27.1483L46.8937 26.5384C47.061 25.6886 47.8846 25.1351 48.7335 25.3014Z" fill="#56BA2E" fill-opacity="0.8"/>
<path d="M32.8375 17.7808C34.2158 17.7808 35.3332 16.8466 35.3332 15.6941C35.3332 14.5417 34.2158 13.6074 32.8375 13.6074C31.4592 13.6074 30.3418 14.5417 30.3418 15.6941C30.3418 16.8466 31.4592 17.7808 32.8375 17.7808Z" fill="#219653"/>
<path d="M23.8314 31.4167C25.3379 31.4167 26.5592 30.1954 26.5592 28.6888C26.5592 27.1822 25.3379 25.9609 23.8314 25.9609C22.3248 25.9609 21.1035 27.1822 21.1035 28.6888C21.1035 30.1954 22.3248 31.4167 23.8314 31.4167Z" fill="#219653"/>
<path d="M34.4624 29.2209C35.5411 29.2209 36.4155 28.3465 36.4155 27.2678C36.4155 26.1891 35.5411 25.3147 34.4624 25.3147C33.3837 25.3147 32.5093 26.1891 32.5093 27.2678C32.5093 28.3465 33.3837 29.2209 34.4624 29.2209Z" fill="#6FCF97"/>
<path d="M27.2495 38.6982C28.2982 38.6982 29.1484 37.848 29.1484 36.7993C29.1484 35.7506 28.2982 34.9004 27.2495 34.9004C26.2007 34.9004 25.3506 35.7506 25.3506 36.7993C25.3506 37.848 26.2007 38.6982 27.2495 38.6982Z" fill="#6FCF97"/>
<path d="M14.4115 23.5506C14.4115 16.7551 17.6533 10.7154 22.6726 6.89369C22.0866 6.97636 21.5081 7.08806 20.9417 7.22697C20.8217 7.25621 20.6967 7.20984 20.6262 7.10802L18.2954 3.74695L18.375 3.71671C19.1634 3.41327 19.608 2.54729 19.3418 1.74685C19.0585 0.890958 18.123 0.455451 17.2913 0.775024L14.3295 1.9142C13.5421 2.21663 13.0965 3.0826 13.3627 3.88406C13.646 4.73894 14.5825 5.17546 15.4132 4.85588L15.9939 4.63208L16.6058 8.70588C16.6239 8.82787 16.5645 8.94783 16.4576 9.00933C14.8265 9.93377 13.3576 11.1092 12.1035 12.4843C12.0168 12.5781 11.8818 12.6083 11.7648 12.5579L9.10741 11.4086C9.52074 10.7574 9.37356 9.88841 8.74752 9.4156C8.47734 9.21196 8.16079 9.11316 7.84727 9.11316C7.39462 9.11316 6.94803 9.31781 6.65366 9.70594L5.38746 11.3794C4.90155 12.0216 4.97716 12.947 5.59614 13.4632C6.25646 14.0126 7.23433 13.8947 7.74645 13.2172L7.91179 12.9995L9.81209 15.2314C9.89374 15.3282 9.90483 15.4643 9.84233 15.5732C8.7203 17.5168 7.95715 19.6934 7.64463 22.012C7.6285 22.135 7.53878 22.2348 7.41781 22.263L3.43272 23.1976C3.43776 22.2701 2.69982 21.51 1.77538 21.4858C0.822704 21.4606 0.0343565 22.2641 0.0262915 23.2177L8.04935e-05 26.1342C-0.00899256 27.0718 0.75012 27.8369 1.68767 27.8369C2.15947 27.8369 2.58691 27.6474 2.89741 27.3389C3.20892 27.0314 3.40248 26.605 3.40651 26.1342L3.41054 25.6634L7.42487 26.5909C7.54483 26.6181 7.63455 26.7179 7.65169 26.8409C7.95513 29.0336 8.66082 31.0982 9.69212 32.9572C9.75362 33.067 9.7395 33.2041 9.65583 33.2989L7.1436 36.1378C6.58208 35.3948 5.51247 35.2416 4.76243 35.8323C4.05876 36.3868 3.9398 37.411 4.45092 38.1459L5.36427 39.4615C5.88849 40.2156 6.92585 40.4505 7.69403 39.9454C8.42996 39.4615 8.65679 38.5058 8.25354 37.7518L11.8203 36.289C11.9352 36.2416 12.0672 36.2718 12.1519 36.3636C13.5502 37.8828 15.2106 39.1561 17.0615 40.1118C17.1713 40.1692 17.2359 40.2862 17.2217 40.4092L16.7379 44.7814L16.6703 44.7572C15.6662 44.3912 14.5139 44.9013 14.1672 45.9125C13.8294 46.8934 14.3395 47.967 15.3174 48.3229L18.2399 49.3885C19.2884 49.7715 20.1463 49.1707 20.1463 48.0547C20.2249 47.839 20.2622 47.6182 20.2622 47.4005C20.2622 46.6222 19.7824 45.8913 19.0081 45.609L18.9245 45.5788L21.3026 41.8477C21.3691 41.7439 21.4931 41.6925 21.6141 41.7167C22.7603 41.9506 23.9459 42.0746 25.1617 42.0746C25.3047 42.0746 25.4501 42.0728 25.5924 42.0694C18.9461 38.5647 14.4115 31.5865 14.4115 23.5506Z" fill="#56BA2E"/>
<path d="M15.3673 34.2351C16.4598 34.2351 17.3454 33.3494 17.3454 32.2569C17.3454 31.1644 16.4598 30.2788 15.3673 30.2788C14.2748 30.2788 13.3892 31.1644 13.3892 32.2569C13.3892 33.3494 14.2748 34.2351 15.3673 34.2351Z" fill="#219653"/>
<path d="M30.0075 23.5505H29.3391C28.9214 23.5505 28.583 23.212 28.583 22.7944C28.583 22.3769 28.9214 22.0383 29.3391 22.0383H30.0075C30.4251 22.0383 30.7636 22.3769 30.7636 22.7944C30.7636 23.212 30.4251 23.5505 30.0075 23.5505Z" fill="#6FCF97"/>
<path d="M21.1035 36.7671H20.4167C19.9991 36.7671 19.6606 36.4285 19.6606 36.011C19.6606 35.5934 19.9991 35.2549 20.4167 35.2549H21.1035C21.5211 35.2549 21.8596 35.5934 21.8596 36.011C21.8596 36.4285 21.5211 36.7671 21.1035 36.7671Z" fill="#6FCF97"/>
<path d="M14.0509 25.7561H13.3894C12.9717 25.7561 12.6333 25.4175 12.6333 25C12.6333 24.5824 12.9717 24.2439 13.3894 24.2439H14.0509C14.4686 24.2439 14.807 24.5824 14.807 25C14.807 25.4175 14.4686 25.7561 14.0509 25.7561Z" fill="#219653"/>
<path d="M27.4794 12.5278H26.5588C26.1412 12.5278 25.8027 12.1893 25.8027 11.7717C25.8027 11.3542 26.1412 11.0156 26.5588 11.0156H27.4794C27.8971 11.0156 28.2355 11.3542 28.2355 11.7717C28.2355 12.1893 27.8971 12.5278 27.4794 12.5278Z" fill="#6FCF97"/>
<path d="M33.5261 34.3056H32.5095C32.0918 34.3056 31.7534 33.9671 31.7534 33.5495C31.7534 33.132 32.0918 32.7935 32.5095 32.7935H33.5261C33.9438 32.7935 34.2822 33.132 34.2822 33.5495C34.2822 33.9671 33.9437 34.3056 33.5261 34.3056Z" fill="#219653"/>
<path d="M21.9937 21.1902C24.2513 19.41 24.8762 16.4384 23.3895 14.5529C21.9027 12.6675 18.8673 12.5822 16.6097 14.3624C14.3521 16.1426 13.7272 19.1141 15.214 20.9996C16.7007 22.885 19.7361 22.9704 21.9937 21.1902Z" fill="#219653"/>
</g>
<defs>
<clipPath id="clip0">
<rect width="50" height="50" fill="white"/>
</clipPath>
</defs>
</svg>
