<svg width="20" height="20" viewBox="0 0 20 20" fill="none" xmlns="http://www.w3.org/2000/svg">
<path d="M2.38308 16.4454C2.70694 16.4454 2.96901 16.1833 2.96901 15.8595V7.61744C2.96901 5.55675 4.50218 3.86256 6.48456 3.57519V5.01176C7.03708 4.81477 7.62301 4.68782 8.24233 4.68782C8.86165 4.68782 9.44758 4.81477 10.0001 5.01176V3.51597H11.6449L17.3997 5.81791C17.5752 5.88842 17.7805 5.87033 17.9456 5.75897C18.1064 5.64967 18.2031 5.46831 18.2031 5.27374V0.586344C18.2031 0.391817 18.1064 0.210415 17.9456 0.10112C17.7842 -0.00817426 17.5777 -0.0304785 17.3997 0.0421762L11.6449 2.34412C10.4644 2.34412 7.93664 2.34412 7.24786 2.34412L3.87993 0.0988547C3.60872 -0.0813758 3.2465 -0.00813519 3.0674 0.261351C2.88772 0.530838 2.96041 0.894189 3.2299 1.07387L5.52302 2.60263C3.37322 3.26859 1.79712 5.2516 1.79712 7.61748V15.8595C1.79716 16.1833 2.05922 16.4454 2.38308 16.4454Z" fill="#A1D96E"/>
<path d="M12.3438 10.0002H4.14087V17.0313H12.3438V10.0002ZM8.24234 15.8594C7.27307 15.8594 6.48457 15.0709 6.48457 14.1017C6.48457 13.7944 6.56523 13.4911 6.71859 13.2245L7.73482 11.465C7.94423 11.1022 8.54046 11.1022 8.74987 11.465L9.76551 13.2234C9.91942 13.4911 10.0001 13.7944 10.0001 14.1017C10.0001 15.071 9.21162 15.8594 8.24234 15.8594Z" fill="#A1D96E"/>
<path d="M8.24219 12.9293L7.73406 13.8093C7.68313 13.8975 7.65625 13.9988 7.65625 14.1017C7.65625 14.425 7.91891 14.6877 8.24219 14.6877C8.56547 14.6877 8.82812 14.425 8.82812 14.1017C8.82812 13.9987 8.80125 13.8975 8.74973 13.8082L8.24219 12.9293Z" fill="#A1D96E"/>
<path d="M4.14087 19.4141C4.14087 19.7379 4.40293 20 4.72679 20H11.7579C12.0818 20 12.3438 19.7379 12.3438 19.4141V18.2032H4.14087V19.4141Z" fill="#A1D96E"/>
<path d="M8.24226 5.85965C6.39085 5.85965 4.84007 7.14017 4.33203 8.82834H12.1525C11.6444 7.14017 10.0937 5.85965 8.24226 5.85965Z" fill="#A1D96E"/>
</svg>
