<svg viewBox="0 0 780 641" fill="none" xmlns="http://www.w3.org/2000/svg">
<g clip-path="url(#clip0)">
<path opacity="0.43" d="M345.46 573.094C346.232 572.658 346.875 572.026 347.322 571.26C347.77 570.494 348.005 569.623 348.005 568.736C348.005 567.849 347.77 566.978 347.322 566.213C346.875 565.447 346.232 564.814 345.46 564.379L303.552 541.289C301.58 540.17 299.353 539.583 297.086 539.583C294.82 539.583 292.592 540.17 290.62 541.289L251.077 563.54V574.681L289.752 596.993H303.821L345.46 573.094Z" fill="#0C25BA"/>
<path d="M331.032 533.951L305.498 518.767H218V554.346C218.009 555.256 218.257 556.147 218.719 556.93C219.182 557.714 219.842 558.361 220.634 558.808L285.203 595.735C286.974 596.737 288.975 597.264 291.01 597.264C293.045 597.264 295.046 596.737 296.817 595.735L330.254 576.628C331.154 576.108 331.904 575.362 332.429 574.464C332.954 573.566 333.236 572.547 333.247 571.506V537.755C333.238 536.983 333.029 536.227 332.641 535.561C332.253 534.894 331.699 534.339 331.032 533.951Z" fill="url(#paint0_linear)"/>
<path d="M255.207 494.3L220.513 514.215C219.779 514.634 219.169 515.24 218.744 515.971C218.319 516.702 218.096 517.532 218.096 518.378C218.096 519.224 218.319 520.054 218.744 520.785C219.169 521.516 219.779 522.122 220.513 522.541L286.369 560.126C287.936 561.024 289.711 561.497 291.518 561.497C293.324 561.497 295.099 561.024 296.666 560.126L331.66 540.121C332.197 539.826 332.645 539.393 332.957 538.866C333.269 538.339 333.434 537.738 333.434 537.126C333.434 536.513 333.269 535.912 332.957 535.385C332.645 534.858 332.197 534.425 331.66 534.131L264.726 494.3C263.284 493.449 261.641 493 259.967 493C258.293 493 256.649 493.449 255.207 494.3Z" fill="#01D101"/>
<path d="M283.166 588.248L243.713 565.607V540.6L283.166 563.271V588.248Z" fill="url(#paint1_linear)"/>
<path d="M273.767 578.005L279.514 581.27V579.952L273.767 576.688V578.005Z" fill="white"/>
<path d="M253.471 563.72L259.218 567.014V565.666L253.471 562.402V563.72Z" fill="white"/>
<path d="M253.471 561.144L259.218 564.409V563.091L253.471 559.827V561.144Z" fill="white"/>
<path d="M253.471 558.569L267.719 566.685V565.337L253.471 557.251V558.569Z" fill="white"/>
<path d="M279.544 577.227L260.565 566.445V567.763L279.544 578.544V577.227Z" fill="white"/>
<path d="M279.544 574.651L260.565 563.87V565.187L279.544 575.969V574.651Z" fill="white"/>
<path d="M279.545 572.075L271.253 567.374V568.691L279.545 573.393V572.075Z" fill="white"/>
<path d="M253.471 555.843L259.218 559.108V557.79L253.471 554.526V555.843Z" fill="white"/>
<path d="M253.471 553.268L259.218 556.532V555.215L253.471 551.95V553.268Z" fill="white"/>
<path d="M279.484 569.32V570.638L260.565 559.857V558.539L279.484 569.32Z" fill="white"/>
<path d="M279.484 566.715V568.062L260.565 557.281V555.963L279.484 566.715Z" fill="white"/>
<g style="mix-blend-mode:multiply" opacity="0.58">
<g style="mix-blend-mode:multiply" opacity="0.58">
<path d="M713.665 525.19L619.791 471.283C617.195 470.12 614.365 469.577 611.523 469.696C608.681 469.816 605.906 470.595 603.417 471.971L418.034 578.318C413.184 581.073 412.645 585.296 416.866 587.692L509.663 640.91H513.943C522.558 640.881 531.017 638.611 538.49 634.321L712.438 534.563C717.317 531.808 717.856 527.585 713.665 525.19Z" fill="#474AB6"/>
</g>
</g>
<path d="M702.561 524.471L518.764 629.859C516.292 631.223 513.538 631.995 510.717 632.115C507.897 632.234 505.088 631.698 502.509 630.548L409.473 577.18C408.712 576.827 408.056 576.283 407.568 575.601C407.08 574.918 406.777 574.121 406.689 573.287V576.641V581.942C406.766 582.841 407.085 583.703 407.612 584.436C408.139 585.169 408.855 585.746 409.683 586.105L502.719 639.473C505.297 640.623 508.107 641.159 510.927 641.039C513.747 640.92 516.501 640.148 518.973 638.784L702.77 533.366C703.843 532.858 704.755 532.063 705.405 531.07C706.055 530.076 706.417 528.922 706.452 527.735V525.04C706.467 524.851 706.467 524.66 706.452 524.471V519.35C706.284 520.461 705.84 521.513 705.16 522.407C704.48 523.302 703.586 524.012 702.561 524.471Z" fill="url(#paint2_linear)"/>
<path d="M409.471 577.21L502.507 630.578C505.085 631.728 507.895 632.264 510.715 632.145C513.535 632.025 516.29 631.253 518.761 629.889L702.558 524.471C703.584 524.012 704.478 523.302 705.158 522.407C705.838 521.513 706.282 520.461 706.45 519.35V519.05C706.466 518.891 706.466 518.73 706.45 518.571C706.258 517.855 705.916 517.188 705.447 516.615C704.977 516.042 704.39 515.575 703.726 515.247L610.66 461.789C608.082 460.639 605.272 460.103 602.452 460.222C599.632 460.342 596.877 461.114 594.406 462.478L410.609 567.896C409.516 568.349 408.569 569.094 407.871 570.051C407.174 571.007 406.754 572.137 406.657 573.317C406.748 574.154 407.055 574.954 407.549 575.636C408.042 576.319 408.705 576.861 409.471 577.21Z" fill="#F7F7F9"/>
<path d="M418.123 574.814L506.041 625.277C508.476 626.365 511.132 626.872 513.797 626.758C516.462 626.644 519.064 625.911 521.397 624.618L695.016 524.98C695.996 524.558 696.854 523.894 697.508 523.051C698.162 522.208 698.592 521.213 698.758 520.158V519.769C698.773 519.62 698.773 519.469 698.758 519.32C698.567 518.666 698.238 518.061 697.794 517.545C697.35 517.028 696.801 516.612 696.184 516.325L608.267 465.742C605.838 464.65 603.189 464.138 600.529 464.247C597.869 464.356 595.271 465.083 592.94 466.371L419.321 566.009C418.29 566.449 417.397 567.16 416.738 568.068C416.079 568.975 415.679 570.044 415.579 571.16C415.655 571.936 415.929 572.68 416.374 573.32C416.82 573.96 417.422 574.474 418.123 574.814Z" fill="#27317A"/>
<path d="M448.028 606.47L456.679 611.411C457.787 612.04 458.715 611.411 458.715 609.914C458.694 609.161 458.499 608.423 458.146 607.758C457.793 607.093 457.291 606.519 456.679 606.08L448.028 601.169C446.92 600.51 446.022 601.169 446.022 602.666C446.033 603.413 446.22 604.148 446.568 604.809C446.917 605.47 447.417 606.039 448.028 606.47Z" fill="#5E5E92"/>
<path d="M428.751 593.172C428.773 593.533 428.879 593.884 429.061 594.196C429.243 594.508 429.496 594.773 429.799 594.969C430.397 595.299 430.846 594.969 430.846 594.37C430.83 594.008 430.726 593.656 430.543 593.343C430.361 593.03 430.105 592.766 429.799 592.573C429.23 592.244 428.751 592.514 428.751 593.172Z" fill="#5E5E92"/>
<path d="M423.241 589.968C423.267 590.323 423.376 590.668 423.558 590.975C423.739 591.281 423.99 591.542 424.289 591.735C424.888 592.064 425.337 591.735 425.337 591.136C425.317 590.779 425.212 590.431 425.03 590.124C424.847 589.816 424.593 589.557 424.289 589.369C423.72 589.039 423.241 589.309 423.241 589.968Z" fill="#5E5E92"/>
<path d="M418.123 587.003C418.14 587.365 418.244 587.717 418.426 588.03C418.609 588.343 418.864 588.607 419.171 588.8C419.74 589.129 420.219 588.8 420.219 588.201C420.197 587.84 420.091 587.49 419.909 587.178C419.727 586.866 419.474 586.601 419.171 586.404C418.572 586.075 418.123 586.344 418.123 587.003Z" fill="#5E5E92"/>
<path d="M413.095 584.068C413.119 584.424 413.226 584.77 413.408 585.077C413.59 585.384 413.842 585.643 414.142 585.835C414.711 586.165 415.19 585.835 415.19 585.266C415.168 584.905 415.062 584.555 414.88 584.243C414.698 583.931 414.446 583.666 414.142 583.469C413.634 583.14 413.095 583.409 413.095 584.068Z" fill="#5E5E92"/>
<path d="M493.078 629.679C493.1 630.04 493.206 630.391 493.388 630.703C493.57 631.015 493.823 631.28 494.126 631.476C494.695 631.806 495.173 631.476 495.173 630.877C495.149 630.521 495.042 630.176 494.86 629.869C494.678 629.562 494.427 629.302 494.126 629.11C493.557 628.781 493.078 629.021 493.078 629.679Z" fill="#5E5E92"/>
<path d="M487.57 626.475C487.592 626.836 487.698 627.186 487.88 627.498C488.062 627.81 488.315 628.075 488.618 628.272C489.187 628.601 489.666 628.272 489.666 627.673C489.644 627.312 489.538 626.962 489.356 626.65C489.174 626.337 488.921 626.072 488.618 625.876C487.929 625.547 487.57 625.816 487.57 626.475Z" fill="#5E5E92"/>
<path d="M482.423 623.51C482.445 623.871 482.551 624.221 482.733 624.534C482.915 624.846 483.167 625.111 483.47 625.307C484.039 625.637 484.518 625.307 484.518 624.708C484.494 624.352 484.387 624.007 484.205 623.7C484.023 623.393 483.771 623.133 483.47 622.941C482.902 622.612 482.423 622.881 482.423 623.51Z" fill="#5E5E92"/>
<path d="M477.453 620.575C477.475 620.936 477.581 621.287 477.763 621.599C477.945 621.911 478.198 622.176 478.501 622.372C479.1 622.702 479.549 622.372 479.549 621.773C479.532 621.411 479.428 621.059 479.245 620.746C479.063 620.433 478.807 620.169 478.501 619.976C477.932 619.647 477.453 619.916 477.453 620.575Z" fill="#5E5E92"/>
<path d="M668.286 515.396L610.901 548.07C608.321 549.543 605.401 550.318 602.43 550.318C599.459 550.318 596.539 549.543 593.958 548.07L536.784 515.516C536.069 515.118 535.473 514.536 535.058 513.83C534.642 513.125 534.422 512.322 534.419 511.503V521.566H534.778C534.727 522.423 534.919 523.277 535.332 524.029C535.745 524.782 536.363 525.402 537.113 525.818L593.988 558.402C596.569 559.859 599.482 560.624 602.445 560.624C605.408 560.624 608.321 559.859 610.901 558.402L668.136 525.729C668.874 525.313 669.487 524.708 669.913 523.977C670.34 523.245 670.563 522.413 670.561 521.566V511.264C670.579 512.092 670.378 512.91 669.979 513.636C669.579 514.362 668.995 514.969 668.286 515.396Z" fill="url(#paint3_linear)"/>
<path d="M668.286 507.071L635.358 488.383L610.662 474.128C608.309 472.803 605.654 472.107 602.954 472.107C600.254 472.107 597.599 472.803 595.246 474.128L570.401 488.293L536.844 507.4C536.126 507.796 535.528 508.377 535.111 509.083C534.694 509.789 534.475 510.594 534.475 511.413C534.475 512.233 534.694 513.038 535.111 513.744C535.528 514.45 536.126 515.031 536.844 515.426L594.019 547.98C596.599 549.454 599.519 550.228 602.49 550.228C605.461 550.228 608.381 549.454 610.962 547.98L668.346 515.307C669.083 514.899 669.697 514.3 670.124 513.573C670.551 512.845 670.774 512.017 670.771 511.174C670.756 510.331 670.519 509.507 670.082 508.786C669.646 508.066 669.026 507.474 668.286 507.071Z" fill="#F5F5FC"/>
<path d="M578.422 524.531C564.234 516.415 564.144 503.267 578.422 495.211C592.701 487.155 615.571 487.215 629.76 495.211C643.949 503.207 644.039 516.475 629.76 524.531C615.481 532.587 592.701 532.647 578.422 524.531ZM627.305 496.619C614.374 489.252 593.42 489.222 580.608 496.619C567.796 504.016 567.826 515.906 580.608 523.273C593.39 530.64 614.493 530.67 627.305 523.273C640.117 515.876 640.207 504.076 627.305 496.619Z" fill="#6D86E0"/>
<g opacity="0.6">
<path opacity="0.6" d="M542.8 542.051C542.411 541.841 542.411 541.482 542.8 541.272C543.009 541.169 543.24 541.115 543.473 541.115C543.707 541.115 543.937 541.169 544.147 541.272C544.225 541.303 544.291 541.357 544.338 541.426C544.385 541.496 544.41 541.577 544.41 541.661C544.41 541.745 544.385 541.827 544.338 541.896C544.291 541.966 544.225 542.019 544.147 542.051C543.937 542.154 543.707 542.207 543.473 542.207C543.24 542.207 543.009 542.154 542.8 542.051Z" fill="#9FAFFC"/>
<path opacity="0.6" d="M539.327 544.027C538.938 543.788 538.938 543.458 539.327 543.249C539.531 543.146 539.757 543.092 539.986 543.092C540.214 543.092 540.44 543.146 540.644 543.249C541.033 543.458 541.033 543.818 540.644 544.027C540.438 544.126 540.213 544.177 539.986 544.177C539.758 544.177 539.533 544.126 539.327 544.027Z" fill="#9FAFFC"/>
<path opacity="0.6" d="M535.824 546.004C535.743 545.981 535.671 545.931 535.621 545.864C535.57 545.796 535.542 545.714 535.542 545.629C535.542 545.545 535.57 545.463 535.621 545.395C535.671 545.327 535.743 545.278 535.824 545.255C536.034 545.152 536.264 545.098 536.498 545.098C536.731 545.098 536.962 545.152 537.171 545.255C537.56 545.465 537.56 545.824 537.171 546.034C536.959 546.132 536.728 546.181 536.494 546.175C536.261 546.17 536.032 546.112 535.824 546.004Z" fill="#9FAFFC"/>
<path opacity="0.6" d="M532.352 547.95C532.27 547.927 532.199 547.878 532.148 547.811C532.097 547.743 532.069 547.661 532.069 547.576C532.069 547.491 532.097 547.409 532.148 547.342C532.199 547.274 532.27 547.225 532.352 547.202C532.561 547.099 532.792 547.045 533.025 547.045C533.259 547.045 533.489 547.099 533.699 547.202C533.78 547.225 533.851 547.274 533.902 547.342C533.953 547.409 533.981 547.491 533.981 547.576C533.981 547.661 533.953 547.743 533.902 547.811C533.851 547.878 533.78 547.927 533.699 547.95C533.489 548.053 533.259 548.107 533.025 548.107C532.792 548.107 532.561 548.053 532.352 547.95Z" fill="#9FAFFC"/>
<path opacity="0.6" d="M528.88 549.927C528.491 549.717 528.491 549.388 528.88 549.178C529.089 549.075 529.32 549.022 529.553 549.022C529.787 549.022 530.017 549.075 530.227 549.178C530.308 549.202 530.38 549.251 530.431 549.318C530.481 549.386 530.509 549.468 530.509 549.553C530.509 549.637 530.481 549.72 530.431 549.787C530.38 549.855 530.308 549.904 530.227 549.927C530.017 550.03 529.787 550.084 529.553 550.084C529.32 550.084 529.089 550.03 528.88 549.927Z" fill="#9FAFFC"/>
<path opacity="0.6" d="M525.378 551.993C525.3 551.962 525.233 551.909 525.186 551.839C525.139 551.77 525.114 551.688 525.114 551.604C525.114 551.52 525.139 551.438 525.186 551.369C525.233 551.3 525.3 551.246 525.378 551.215C525.585 551.105 525.816 551.047 526.051 551.047C526.286 551.047 526.517 551.105 526.725 551.215C527.114 551.424 527.114 551.754 526.725 551.963C526.518 552.071 526.288 552.13 526.055 552.135C525.821 552.14 525.59 552.092 525.378 551.993Z" fill="#9FAFFC"/>
<path opacity="0.6" d="M521.905 553.88C521.827 553.849 521.761 553.795 521.714 553.726C521.667 553.657 521.642 553.575 521.642 553.491C521.642 553.407 521.667 553.325 521.714 553.256C521.761 553.186 521.827 553.133 521.905 553.102C522.115 552.998 522.345 552.945 522.579 552.945C522.812 552.945 523.043 552.998 523.252 553.102C523.33 553.133 523.397 553.186 523.444 553.256C523.491 553.325 523.516 553.407 523.516 553.491C523.516 553.575 523.491 553.657 523.444 553.726C523.397 553.795 523.33 553.849 523.252 553.88C523.043 553.983 522.812 554.037 522.579 554.037C522.345 554.037 522.115 553.983 521.905 553.88Z" fill="#9FAFFC"/>
<path opacity="0.6" d="M518.432 555.857C518.073 555.617 518.043 555.288 518.432 555.078C518.642 554.975 518.872 554.922 519.106 554.922C519.339 554.922 519.57 554.975 519.779 555.078C519.857 555.109 519.924 555.163 519.971 555.232C520.018 555.302 520.043 555.384 520.043 555.468C520.043 555.551 520.018 555.633 519.971 555.703C519.924 555.772 519.857 555.826 519.779 555.857C519.57 555.96 519.339 556.014 519.106 556.014C518.872 556.014 518.642 555.96 518.432 555.857Z" fill="#9FAFFC"/>
<path opacity="0.6" d="M514.871 557.803C514.482 557.594 514.482 557.264 514.871 557.055C515.075 556.952 515.301 556.899 515.53 556.899C515.758 556.899 515.984 556.952 516.188 557.055C516.577 557.264 516.577 557.594 516.188 557.803C515.984 557.906 515.758 557.96 515.53 557.96C515.301 557.96 515.075 557.906 514.871 557.803Z" fill="#9FAFFC"/>
<path opacity="0.6" d="M511.459 559.78C511.378 559.757 511.306 559.708 511.255 559.64C511.204 559.573 511.177 559.49 511.177 559.406C511.177 559.321 511.204 559.239 511.255 559.171C511.306 559.104 511.378 559.055 511.459 559.031C511.669 558.928 511.899 558.875 512.133 558.875C512.366 558.875 512.597 558.928 512.806 559.031C513.195 559.241 513.195 559.57 512.806 559.78C512.597 559.883 512.366 559.937 512.133 559.937C511.899 559.937 511.669 559.883 511.459 559.78Z" fill="#9FAFFC"/>
<path opacity="0.6" d="M561.51 553.461L548.398 545.974L550.075 545.015L563.186 552.503L561.51 553.461Z" fill="#9FAFFC"/>
<path opacity="0.6" d="M558.217 555.318L545.136 547.831L546.812 546.872L559.893 554.359L558.217 555.318Z" fill="#9FAFFC"/>
<path opacity="0.6" d="M554.953 557.175L541.842 549.688L543.518 548.729L556.629 556.216L554.953 557.175Z" fill="#9FAFFC"/>
<path opacity="0.6" d="M562.318 565.081L538.55 551.544L540.226 550.586L563.994 564.153L562.318 565.081Z" fill="#9FAFFC"/>
<path opacity="0.6" d="M551.57 565.83L538.459 558.342L540.135 557.414L553.247 564.871L551.57 565.83Z" fill="#9FAFFC"/>
<path opacity="0.6" d="M548.279 567.686L535.168 560.199L536.844 559.271L549.956 566.728L548.279 567.686Z" fill="#9FAFFC"/>
<path opacity="0.6" d="M544.985 569.543L531.903 562.056L533.58 561.128L546.691 568.585L544.985 569.543Z" fill="#9FAFFC"/>
<path opacity="0.6" d="M588 566.638L564.861 553.461L563.185 554.419L586.324 567.597L588 566.638Z" fill="#9FAFFC"/>
<path opacity="0.6" d="M584.738 568.495L561.598 555.318L559.922 556.276L583.061 569.453L584.738 568.495Z" fill="#9FAFFC"/>
<path opacity="0.6" d="M581.446 570.352L558.307 557.175L556.631 558.133L579.77 571.31L581.446 570.352Z" fill="#9FAFFC"/>
<path opacity="0.6" d="M578.183 572.239L568.424 566.668L566.748 567.627L576.507 573.167L578.183 572.239Z" fill="#9FAFFC"/>
<path opacity="0.6" d="M572.137 575.653L554.924 565.83L553.248 566.788L570.46 576.611L572.137 575.653Z" fill="#9FAFFC"/>
<path opacity="0.6" d="M568.873 577.509L551.63 567.686L549.954 568.645L567.196 578.468L568.873 577.509Z" fill="#9FAFFC"/>
<path opacity="0.6" d="M565.58 579.366L548.368 569.543L546.691 570.502L563.904 580.325L565.58 579.366Z" fill="#9FAFFC"/>
<path opacity="0.6" d="M548.247 575.892L535.136 568.435L536.812 567.477L549.923 574.964L548.247 575.892Z" fill="#9FAFFC"/>
<path opacity="0.6" d="M561.658 581.612L551.66 575.922L549.983 576.881L559.982 582.571L561.658 581.612Z" fill="#9FAFFC"/>
<path opacity="0.6" d="M558.366 583.499L533.52 569.333L531.844 570.292L556.689 584.458L558.366 583.499Z" fill="#9FAFFC"/>
<path opacity="0.6" d="M555.074 585.356L530.258 571.19L528.582 572.149L553.398 586.314L555.074 585.356Z" fill="#9FAFFC"/>
<path opacity="0.6" d="M538.129 538.247L527.443 532.168L525.767 533.096L536.453 539.205L538.129 538.247Z" fill="#9FAFFC"/>
<path opacity="0.6" d="M534.867 540.104L524.151 534.024L522.475 534.953L533.191 541.062L534.867 540.104Z" fill="#9FAFFC"/>
<path opacity="0.6" d="M528.282 543.847L512.087 534.593L510.411 535.552L526.606 544.776L528.282 543.847Z" fill="#9FAFFC"/>
<path opacity="0.6" d="M506.071 538.008L504.395 538.966L517.057 546.184L518.733 545.255L506.071 538.008Z" fill="#9FAFFC"/>
<path opacity="0.6" d="M521.935 529.023L520.259 529.981L524.06 532.138L525.737 531.209L521.935 529.023Z" fill="#9FAFFC"/>
<path opacity="0.6" d="M518.673 530.88L516.997 531.838L520.799 533.994L522.475 533.066L518.673 530.88Z" fill="#9FAFFC"/>
<path opacity="0.6" d="M495.533 543.997L493.856 544.926L499.305 548.04L500.981 547.112L495.533 543.997Z" fill="#9FAFFC"/>
<path opacity="0.6" d="M492.241 545.854L490.564 546.782L496.012 549.897L497.689 548.969L492.241 545.854Z" fill="#9FAFFC"/>
</g>
<g opacity="0.6">
<path opacity="0.6" d="M506.311 563.074C506.234 563.043 506.167 562.99 506.12 562.92C506.073 562.851 506.048 562.769 506.048 562.685C506.048 562.601 506.073 562.519 506.12 562.45C506.167 562.381 506.234 562.327 506.311 562.296C506.521 562.193 506.751 562.139 506.985 562.139C507.218 562.139 507.449 562.193 507.658 562.296C507.736 562.327 507.803 562.381 507.85 562.45C507.897 562.519 507.922 562.601 507.922 562.685C507.922 562.769 507.897 562.851 507.85 562.92C507.803 562.99 507.736 563.043 507.658 563.074C507.449 563.177 507.218 563.231 506.985 563.231C506.751 563.231 506.521 563.177 506.311 563.074Z" fill="#9FAFFC"/>
<path opacity="0.6" d="M502.899 565.021C502.51 564.811 502.51 564.482 502.899 564.272C503.109 564.169 503.339 564.116 503.573 564.116C503.806 564.116 504.037 564.169 504.246 564.272C504.324 564.303 504.391 564.357 504.438 564.426C504.485 564.496 504.51 564.578 504.51 564.662C504.51 564.745 504.485 564.827 504.438 564.897C504.391 564.966 504.324 565.02 504.246 565.051C504.037 565.156 503.804 565.209 503.569 565.204C503.334 565.198 503.104 565.136 502.899 565.021Z" fill="#9FAFFC"/>
<path opacity="0.6" d="M499.335 566.968C499.254 566.944 499.182 566.895 499.131 566.828C499.08 566.76 499.053 566.678 499.053 566.593C499.053 566.509 499.08 566.426 499.131 566.359C499.182 566.291 499.254 566.242 499.335 566.219C499.545 566.116 499.775 566.062 500.008 566.062C500.242 566.062 500.472 566.116 500.682 566.219C501.071 566.429 501.071 566.758 500.682 566.968C500.472 567.071 500.242 567.124 500.008 567.124C499.775 567.124 499.545 567.071 499.335 566.968Z" fill="#9FAFFC"/>
<path opacity="0.6" d="M495.862 568.974C495.781 568.951 495.709 568.902 495.659 568.834C495.608 568.767 495.58 568.684 495.58 568.6C495.58 568.515 495.608 568.433 495.659 568.365C495.709 568.298 495.781 568.249 495.862 568.225C496.072 568.122 496.302 568.069 496.536 568.069C496.769 568.069 497 568.122 497.209 568.225C497.291 568.249 497.362 568.298 497.413 568.365C497.464 568.433 497.492 568.515 497.492 568.6C497.492 568.684 497.464 568.767 497.413 568.834C497.362 568.902 497.291 568.951 497.209 568.974C497 569.077 496.769 569.131 496.536 569.131C496.302 569.131 496.072 569.077 495.862 568.974Z" fill="#9FAFFC"/>
<path opacity="0.6" d="M492.391 570.951C492.032 570.741 492.002 570.382 492.391 570.172C492.601 570.069 492.831 570.015 493.065 570.015C493.298 570.015 493.529 570.069 493.738 570.172C493.819 570.195 493.891 570.244 493.942 570.312C493.993 570.38 494.02 570.462 494.02 570.547C494.02 570.631 493.993 570.713 493.942 570.781C493.891 570.849 493.819 570.898 493.738 570.921C493.531 571.029 493.302 571.087 493.068 571.093C492.835 571.098 492.603 571.049 492.391 570.951Z" fill="#9FAFFC"/>
<path opacity="0.6" d="M488.92 572.957C488.531 572.748 488.531 572.388 488.92 572.179C489.124 572.076 489.35 572.022 489.578 572.022C489.807 572.022 490.033 572.076 490.237 572.179C490.626 572.418 490.626 572.748 490.237 572.957C490.033 573.06 489.807 573.114 489.578 573.114C489.35 573.114 489.124 573.06 488.92 572.957Z" fill="#9FAFFC"/>
<path opacity="0.6" d="M485.416 574.904C485.338 574.873 485.271 574.819 485.224 574.75C485.177 574.68 485.152 574.598 485.152 574.515C485.152 574.431 485.177 574.349 485.224 574.279C485.271 574.21 485.338 574.156 485.416 574.125C485.625 574.022 485.856 573.969 486.089 573.969C486.323 573.969 486.553 574.022 486.763 574.125C487.152 574.335 487.152 574.694 486.763 574.904C486.553 575.007 486.323 575.061 486.089 575.061C485.856 575.061 485.625 575.007 485.416 574.904Z" fill="#9FAFFC"/>
<path opacity="0.6" d="M481.944 576.851C481.863 576.827 481.792 576.778 481.741 576.711C481.69 576.643 481.662 576.561 481.662 576.476C481.662 576.392 481.69 576.309 481.741 576.242C481.792 576.174 481.863 576.125 481.944 576.102C482.154 575.999 482.384 575.945 482.618 575.945C482.851 575.945 483.082 575.999 483.291 576.102C483.369 576.133 483.436 576.187 483.483 576.256C483.53 576.325 483.555 576.407 483.555 576.491C483.555 576.575 483.53 576.657 483.483 576.726C483.436 576.796 483.369 576.849 483.291 576.881C483.082 576.986 482.849 577.039 482.614 577.033C482.379 577.028 482.149 576.965 481.944 576.851Z" fill="#9FAFFC"/>
<path opacity="0.6" d="M478.473 578.947C478.083 578.737 478.083 578.408 478.473 578.198C478.682 578.095 478.913 578.042 479.146 578.042C479.38 578.042 479.61 578.095 479.82 578.198C479.901 578.222 479.972 578.271 480.023 578.338C480.074 578.406 480.102 578.488 480.102 578.573C480.102 578.657 480.074 578.74 480.023 578.807C479.972 578.875 479.901 578.924 479.82 578.947C479.61 579.05 479.38 579.104 479.146 579.104C478.913 579.104 478.682 579.05 478.473 578.947Z" fill="#9FAFFC"/>
<path opacity="0.6" d="M474.97 580.804C474.888 580.781 474.817 580.731 474.766 580.664C474.715 580.596 474.688 580.514 474.688 580.429C474.688 580.345 474.715 580.263 474.766 580.195C474.817 580.127 474.888 580.078 474.97 580.055C475.179 579.952 475.41 579.898 475.643 579.898C475.877 579.898 476.107 579.952 476.317 580.055C476.706 580.265 476.706 580.594 476.317 580.804C476.107 580.907 475.877 580.96 475.643 580.96C475.41 580.96 475.179 580.907 474.97 580.804Z" fill="#9FAFFC"/>
<path opacity="0.6" d="M525.02 574.455L511.909 566.998L513.586 566.039L526.697 573.526L525.02 574.455Z" fill="#9FAFFC"/>
<path opacity="0.6" d="M521.728 576.341L508.646 568.854L510.323 567.896L523.434 575.383L521.728 576.341Z" fill="#9FAFFC"/>
<path opacity="0.6" d="M518.464 578.198L505.353 570.711L507.029 569.753L520.14 577.24L518.464 578.198Z" fill="#9FAFFC"/>
<path opacity="0.6" d="M525.828 586.105L502.061 572.568L503.767 571.609L527.505 585.146L525.828 586.105Z" fill="#9FAFFC"/>
<path opacity="0.6" d="M515.082 586.853L501.971 579.366L503.647 578.408L516.758 585.895L515.082 586.853Z" fill="#9FAFFC"/>
<path opacity="0.6" d="M511.789 588.71L498.678 581.223L500.354 580.265L513.465 587.752L511.789 588.71Z" fill="#9FAFFC"/>
<path opacity="0.6" d="M508.525 590.567L495.414 583.08L497.09 582.121L510.202 589.609L508.525 590.567Z" fill="#9FAFFC"/>
<path opacity="0.6" d="M551.511 587.662L528.372 574.485L526.695 575.443L549.835 588.62L551.511 587.662Z" fill="#9FAFFC"/>
<path opacity="0.6" d="M548.248 589.519L525.109 576.341L523.433 577.3L546.572 590.477L548.248 589.519Z" fill="#9FAFFC"/>
<path opacity="0.6" d="M544.957 591.375L521.818 578.198L520.142 579.157L543.281 592.334L544.957 591.375Z" fill="#9FAFFC"/>
<path opacity="0.6" d="M541.694 593.262L531.935 587.692L530.259 588.65L540.017 594.191L541.694 593.262Z" fill="#9FAFFC"/>
<path opacity="0.6" d="M535.647 596.676L518.435 586.853L516.759 587.812L533.971 597.635L535.647 596.676Z" fill="#9FAFFC"/>
<path opacity="0.6" d="M532.383 598.533L515.141 588.71L513.465 589.669L530.707 599.492L532.383 598.533Z" fill="#9FAFFC"/>
<path opacity="0.6" d="M529.121 600.39L511.878 590.567L510.202 591.525L527.444 601.348L529.121 600.39Z" fill="#9FAFFC"/>
<path opacity="0.6" d="M511.758 596.916L498.646 589.459L500.323 588.5L513.434 595.988L511.758 596.916Z" fill="#9FAFFC"/>
<path opacity="0.6" d="M525.169 602.636L515.17 596.946L513.494 597.904L523.492 603.594L525.169 602.636Z" fill="#9FAFFC"/>
<path opacity="0.6" d="M521.876 604.523L497.031 590.357L495.354 591.316L520.2 605.451L521.876 604.523Z" fill="#9FAFFC"/>
<path opacity="0.6" d="M518.585 606.38L493.769 592.214L492.093 593.172L516.908 607.338L518.585 606.38Z" fill="#9FAFFC"/>
<path opacity="0.6" d="M501.64 559.271L490.954 553.191L489.277 554.12L499.964 560.229L501.64 559.271Z" fill="#9FAFFC"/>
<path opacity="0.6" d="M498.378 561.128L487.662 555.048L485.985 555.977L496.702 562.086L498.378 561.128Z" fill="#9FAFFC"/>
<path opacity="0.6" d="M491.822 564.841L475.627 555.617L473.951 556.576L490.146 565.8L491.822 564.841Z" fill="#9FAFFC"/>
<path opacity="0.6" d="M469.582 559.031L467.905 559.99L480.568 567.207L482.244 566.249L469.582 559.031Z" fill="#9FAFFC"/>
<path opacity="0.6" d="M485.446 550.047L483.77 551.005L487.571 553.161L489.277 552.233L485.446 550.047Z" fill="#9FAFFC"/>
<path opacity="0.6" d="M482.184 551.904L480.508 552.862L484.31 555.018L485.986 554.09L482.184 551.904Z" fill="#9FAFFC"/>
<path opacity="0.6" d="M459.044 565.021L457.367 565.949L462.815 569.064L464.492 568.106L459.044 565.021Z" fill="#9FAFFC"/>
<path opacity="0.6" d="M455.751 566.878L454.075 567.806L459.523 570.921L461.199 569.962L455.751 566.878Z" fill="#9FAFFC"/>
</g>
<path d="M87.1976 389.134L52.773 369.308C51.1144 368.374 49.2432 367.883 47.3399 367.883C45.4366 367.883 43.5654 368.374 41.9068 369.308L11.1642 386.888C9.81728 387.682 8.70073 388.813 7.92499 390.171C7.14926 391.529 6.74121 393.066 6.74121 394.63C6.74121 396.194 7.14926 397.73 7.92499 399.088C8.70073 400.446 9.81728 401.578 11.1642 402.371L36.5785 417.345H53.222L87.4071 396.382C88.0156 395.984 88.512 395.436 88.8486 394.791C89.1853 394.147 89.351 393.426 89.33 392.699C89.309 391.972 89.1019 391.263 88.7286 390.638C88.3552 390.014 87.8281 389.496 87.1976 389.134Z" fill="#C1C7ED"/>
<path d="M2.34155e-05 378.023V395.992C-0.00193522 396.454 0.119015 396.909 0.350469 397.309C0.581923 397.709 0.915551 398.04 1.31714 398.268L32.4788 416.088C33.8852 416.883 35.4732 417.301 37.0887 417.301C38.7042 417.301 40.2922 416.883 41.6986 416.088L72.7705 398.328C73.2012 398.108 73.5631 397.774 73.8166 397.362C74.07 396.95 74.2052 396.476 74.2073 395.992V378.023H2.34155e-05Z" fill="url(#paint4_linear)"/>
<path d="M32.6591 397.909L1.46748 379.94C1.06939 379.712 0.738559 379.383 0.508478 378.986C0.278397 378.589 0.157227 378.138 0.157227 377.679C0.157227 377.22 0.278397 376.769 0.508478 376.372C0.738559 375.975 1.06939 375.646 1.46748 375.418L32.8088 357.449C34.0829 356.713 35.5283 356.325 36.9996 356.325C38.4709 356.325 39.9162 356.713 41.1904 357.449L72.9208 375.418C73.3067 375.637 73.6275 375.956 73.8506 376.34C74.0738 376.724 74.1913 377.16 74.1913 377.604C74.1913 378.048 74.0738 378.484 73.8506 378.868C73.6275 379.252 73.3067 379.57 72.9208 379.79L41.9088 397.909C40.5007 398.715 38.9064 399.14 37.284 399.14C35.6615 399.14 34.0672 398.715 32.6591 397.909Z" fill="url(#paint5_linear)"/>
<mask id="path-107-inside-1" fill="white">
<path d="M27.5996 407.702L30.3835 409.289V408.631L27.5996 407.043V407.702Z"/>
</mask>
<path d="M27.5996 407.702L30.3835 409.289V408.631L27.5996 407.043V407.702Z" fill="url(#paint6_linear)"/>
<path d="M27.5996 407.702H26.5996V408.283L27.1043 408.571L27.5996 407.702ZM30.3835 409.289L29.8882 410.158L31.3835 411.011V409.289H30.3835ZM30.3835 408.631H31.3835V408.05L30.8788 407.762L30.3835 408.631ZM27.5996 407.043L28.0949 406.175L26.5996 405.322V407.043H27.5996ZM27.1043 408.571L29.8882 410.158L30.8788 408.421L28.0949 406.833L27.1043 408.571ZM31.3835 409.289V408.631H29.3835V409.289H31.3835ZM30.8788 407.762L28.0949 406.175L27.1043 407.912L29.8882 409.499L30.8788 407.762ZM26.5996 407.043V407.702H28.5996V407.043H26.5996Z" fill="#01D101" mask="url(#path-107-inside-1)"/>
<mask id="path-109-inside-2" fill="white">
<path d="M17.8115 400.784L20.5655 402.371V401.712L17.8115 400.155V400.784Z"/>
</mask>
<path d="M17.8115 400.784L20.5655 402.371V401.712L17.8115 400.155V400.784Z" fill="url(#paint7_linear)"/>
<path d="M17.8115 400.784H16.8115V401.362L17.3122 401.65L17.8115 400.784ZM20.5655 402.371L20.0661 403.238L21.5655 404.102V402.371H20.5655ZM20.5655 401.712H21.5655V401.129L21.0577 400.842L20.5655 401.712ZM17.8115 400.155L18.3038 399.285L16.8115 398.441V400.155H17.8115ZM17.3122 401.65L20.0661 403.238L21.0648 401.505L18.3109 399.918L17.3122 401.65ZM21.5655 402.371V401.712H19.5655V402.371H21.5655ZM21.0577 400.842L18.3038 399.285L17.3193 401.026L20.0733 402.583L21.0577 400.842ZM16.8115 400.155V400.784H18.8115V400.155H16.8115Z" fill="#01D101" mask="url(#path-109-inside-2)"/>
<mask id="path-111-inside-3" fill="white">
<path d="M17.8115 399.526L20.5655 401.113V400.485L17.8115 398.897V399.526Z"/>
</mask>
<path d="M17.8115 399.526L20.5655 401.113V400.485L17.8115 398.897V399.526Z" fill="url(#paint8_linear)"/>
<path d="M17.8115 399.526H16.8115V400.104L17.3122 400.393L17.8115 399.526ZM20.5655 401.113L20.0661 401.98L21.5655 402.844V401.113H20.5655ZM20.5655 400.485H21.5655V399.907L21.0648 399.618L20.5655 400.485ZM17.8115 398.897L18.3109 398.031L16.8115 397.167V398.897H17.8115ZM17.3122 400.393L20.0661 401.98L21.0648 400.247L18.3109 398.66L17.3122 400.393ZM21.5655 401.113V400.485H19.5655V401.113H21.5655ZM21.0648 399.618L18.3109 398.031L17.3122 399.764L20.0661 401.351L21.0648 399.618ZM16.8115 398.897V399.526H18.8115V398.897H16.8115Z" fill="#01D101" mask="url(#path-111-inside-3)"/>
<mask id="path-113-inside-4" fill="white">
<path d="M17.8115 398.298L24.6964 402.222V401.563L17.8115 397.64V398.298Z"/>
</mask>
<path d="M17.8115 398.298L24.6964 402.222V401.563L17.8115 397.64V398.298Z" fill="url(#paint9_linear)"/>
<path d="M17.8115 398.298H16.8115V398.879L17.3164 399.167L17.8115 398.298ZM24.6964 402.222L24.2013 403.09L25.6964 403.942V402.222H24.6964ZM24.6964 401.563H25.6964V400.982L25.1915 400.694L24.6964 401.563ZM17.8115 397.64L18.3066 396.771L16.8115 395.919V397.64H17.8115ZM17.3164 399.167L24.2013 403.09L25.1915 401.353L18.3066 397.43L17.3164 399.167ZM25.6964 402.222V401.563H23.6964V402.222H25.6964ZM25.1915 400.694L18.3066 396.771L17.3164 398.508L24.2013 402.432L25.1915 400.694ZM16.8115 397.64V398.298H18.8115V397.64H16.8115Z" fill="#01D101" mask="url(#path-113-inside-4)"/>
<mask id="path-115-inside-5" fill="white">
<path d="M30.4125 407.313L21.2227 402.102V402.731L30.4125 407.972V407.313Z"/>
</mask>
<path d="M30.4125 407.313L21.2227 402.102V402.731L30.4125 407.972V407.313Z" fill="url(#paint10_linear)"/>
<path d="M30.4125 407.313H31.4125V406.73L30.9058 406.443L30.4125 407.313ZM21.2227 402.102L21.7159 401.232L20.2227 400.385V402.102H21.2227ZM21.2227 402.731H20.2227V403.312L20.7273 403.599L21.2227 402.731ZM30.4125 407.972L29.9171 408.84L31.4125 409.693V407.972H30.4125ZM30.9058 406.443L21.7159 401.232L20.7294 402.972L29.9192 408.183L30.9058 406.443ZM20.2227 402.102V402.731H22.2227V402.102H20.2227ZM20.7273 403.599L29.9171 408.84L30.9079 407.103L21.7181 401.862L20.7273 403.599ZM31.4125 407.972V407.313H29.4125V407.972H31.4125Z" fill="#01D101" mask="url(#path-115-inside-5)"/>
<mask id="path-117-inside-6" fill="white">
<path d="M30.4125 406.055L21.2227 400.844V401.473L30.4125 406.714V406.055Z"/>
</mask>
<path d="M30.4125 406.055L21.2227 400.844V401.473L30.4125 406.714V406.055Z" fill="url(#paint11_linear)"/>
<path d="M30.4125 406.055H31.4125V405.472L30.9058 405.185L30.4125 406.055ZM21.2227 400.844L21.7159 399.974L20.2227 399.127V400.844H21.2227ZM21.2227 401.473H20.2227V402.054L20.7273 402.342L21.2227 401.473ZM30.4125 406.714L29.9171 407.583L31.4125 408.435V406.714H30.4125ZM30.9058 405.185L21.7159 399.974L20.7294 401.714L29.9192 406.925L30.9058 405.185ZM20.2227 400.844V401.473H22.2227V400.844H20.2227ZM20.7273 402.342L29.9171 407.583L30.9079 405.845L21.7181 400.604L20.7273 402.342ZM31.4125 406.714V406.055H29.4125V406.714H31.4125Z" fill="#01D101" mask="url(#path-117-inside-6)"/>
<mask id="path-119-inside-7" fill="white">
<path d="M30.4145 404.827L26.4033 402.551V403.18L30.4145 405.456V404.827Z"/>
</mask>
<path d="M30.4145 404.827L26.4033 402.551V403.18L30.4145 405.456V404.827Z" fill="url(#paint12_linear)"/>
<path d="M30.4145 404.827H31.4145V404.245L30.908 403.957L30.4145 404.827ZM26.4033 402.551L26.8968 401.681L25.4033 400.834V402.551H26.4033ZM26.4033 403.18H25.4033V403.762L25.9098 404.05L26.4033 403.18ZM30.4145 405.456L29.921 406.326L31.4145 407.173V405.456H30.4145ZM30.908 403.957L26.8968 401.681L25.9098 403.421L29.921 405.697L30.908 403.957ZM25.4033 402.551V403.18H27.4033V402.551H25.4033ZM25.9098 404.05L29.921 406.326L30.908 404.586L26.8968 402.31L25.9098 404.05ZM31.4145 405.456V404.827H29.4145V405.456H31.4145Z" fill="#01D101" mask="url(#path-119-inside-7)"/>
<mask id="path-121-inside-8" fill="white">
<path d="M17.8115 396.951L20.5655 398.538V397.909L17.8115 396.322V396.951Z"/>
</mask>
<path d="M17.8115 396.951L20.5655 398.538V397.909L17.8115 396.322V396.951Z" fill="url(#paint13_linear)"/>
<path d="M17.8115 396.951H16.8115V397.529L17.3122 397.817L17.8115 396.951ZM20.5655 398.538L20.0661 399.404L21.5655 400.269V398.538H20.5655ZM20.5655 397.909H21.5655V397.331L21.0648 397.043L20.5655 397.909ZM17.8115 396.322L18.3109 395.455L16.8115 394.591V396.322H17.8115ZM17.3122 397.817L20.0661 399.404L21.0648 397.672L18.3109 396.084L17.3122 397.817ZM21.5655 398.538V397.909H19.5655V398.538H21.5655ZM21.0648 397.043L18.3109 395.455L17.3122 397.188L20.0661 398.775L21.0648 397.043ZM16.8115 396.322V396.951H18.8115V396.322H16.8115Z" fill="#01D101" mask="url(#path-121-inside-8)"/>
<mask id="path-123-inside-9" fill="white">
<path d="M17.8115 395.723L20.5655 397.28V396.651L17.8115 395.064V395.723Z"/>
</mask>
<path d="M17.8115 395.723L20.5655 397.28V396.651L17.8115 395.064V395.723Z" fill="url(#paint14_linear)"/>
<path d="M17.8115 395.723H16.8115V396.306L17.3193 396.593L17.8115 395.723ZM20.5655 397.28L20.0733 398.151L21.5655 398.994V397.28H20.5655ZM20.5655 396.651H21.5655V396.073L21.0648 395.785L20.5655 396.651ZM17.8115 395.064L18.3109 394.198L16.8115 393.333V395.064H17.8115ZM17.3193 396.593L20.0733 398.151L21.0577 396.41L18.3037 394.852L17.3193 396.593ZM21.5655 397.28V396.651H19.5655V397.28H21.5655ZM21.0648 395.785L18.3109 394.198L17.3122 395.93L20.0661 397.518L21.0648 395.785ZM16.8115 395.064V395.723H18.8115V395.064H16.8115Z" fill="#01D101" mask="url(#path-123-inside-9)"/>
<mask id="path-125-inside-10" fill="white">
<path d="M30.3826 403.479V404.138L21.2227 398.897V398.268L30.3826 403.479Z"/>
</mask>
<path d="M30.3826 403.479V404.138L21.2227 398.897V398.268L30.3826 403.479Z" fill="url(#paint15_linear)"/>
<path d="M30.3826 403.479H31.3826V402.898L30.8771 402.61L30.3826 403.479ZM30.3826 404.138L29.886 405.006L31.3826 405.863V404.138H30.3826ZM21.2227 398.897H20.2227V399.477L20.726 399.765L21.2227 398.897ZM21.2227 398.268L21.7171 397.399L20.2227 396.549V398.268H21.2227ZM29.3826 403.479V404.138H31.3826V403.479H29.3826ZM30.8792 403.27L21.7193 398.029L20.726 399.765L29.886 405.006L30.8792 403.27ZM22.2227 398.897V398.268H20.2227V398.897H22.2227ZM20.7282 399.137L29.8881 404.349L30.8771 402.61L21.7171 397.399L20.7282 399.137Z" fill="#01D101" mask="url(#path-125-inside-10)"/>
<mask id="path-127-inside-11" fill="white">
<path d="M30.3826 402.222V402.88L21.2227 397.669V397.011L30.3826 402.222Z"/>
</mask>
<path d="M30.3826 402.222V402.88L21.2227 397.669V397.011L30.3826 402.222Z" fill="url(#paint16_linear)"/>
<path d="M30.3826 402.222H31.3826V401.64L30.8771 401.352L30.3826 402.222ZM30.3826 402.88L29.8881 403.75L31.3826 404.6V402.88H30.3826ZM21.2227 397.669H20.2227V398.251L20.7282 398.539L21.2227 397.669ZM21.2227 397.011L21.7171 396.141L20.2227 395.291V397.011H21.2227ZM29.3826 402.222V402.88H31.3826V402.222H29.3826ZM30.8771 402.011L21.7171 396.8L20.7282 398.539L29.8881 403.75L30.8771 402.011ZM22.2227 397.669V397.011H20.2227V397.669H22.2227ZM20.7282 397.88L29.8881 403.091L30.8771 401.352L21.7171 396.141L20.7282 397.88Z" fill="#01D101" mask="url(#path-127-inside-11)"/>
<path d="M323.112 91.8365L324.819 93.1243L323.861 93.9329L323.112 91.8365Z" fill="#F0F0FC"/>
<path d="M255.86 128.675C255.53 133.707 252.088 138.588 245.443 142.511C231.284 150.598 208.234 150.568 193.925 142.511C190.289 140.644 187.195 137.869 184.945 134.455C184.758 134.146 184.588 133.826 184.436 133.497C184.11 132.859 183.83 132.198 183.598 131.52C183.448 131.041 183.389 130.772 183.329 130.502C183.269 130.233 183.149 129.723 183.119 129.484C183.132 129.234 183.132 128.985 183.119 128.735C183.119 135.054 183.119 142.152 183.119 142.152C183.538 147.213 187.07 152.215 193.866 156.078C199.653 159.165 205.989 161.088 212.515 161.738C223.81 163.237 235.295 161.263 245.443 156.078C252.268 152.185 255.77 147.094 256.009 142.032C256.04 141.674 256.04 141.313 256.009 140.954C256.009 140.954 256.009 134.545 256.009 128.675H255.86Z" fill="url(#paint17_linear)"/>
<path d="M183.03 128.436V129.214C183.07 129.527 183.13 129.838 183.21 130.143C183.273 130.508 183.363 130.868 183.479 131.221C183.704 131.95 183.984 132.661 184.317 133.347C184.527 133.767 184.706 134.096 184.886 134.395C187.089 137.766 190.105 140.526 193.657 142.422C208.145 150.568 231.194 150.568 245.443 142.511C252.268 138.618 255.74 133.527 256.01 128.496C255.99 126.818 255.645 125.16 254.992 123.614C254.724 122.844 254.404 122.094 254.034 121.368C251.92 117.965 248.96 115.169 245.443 113.252C238.691 109.615 231.218 107.519 223.561 107.112C220.999 106.963 218.43 106.963 215.868 107.112C208.076 107.388 200.449 109.436 193.567 113.102L192.13 113.971C188.471 116.104 185.595 119.359 183.928 123.255C183.375 124.608 183.061 126.047 183 127.507L183.03 128.436Z" fill="#F0F0FC"/>
<path d="M292.56 122.985C292.387 124.157 291.921 125.266 291.203 126.209C290.486 127.152 289.542 127.897 288.459 128.376C285.35 129.933 281.922 130.744 278.445 130.744C274.969 130.744 271.541 129.933 268.432 128.376C267.046 127.691 265.861 126.659 264.99 125.381C264.909 125.258 264.839 125.127 264.78 124.992C264.646 124.743 264.535 124.483 264.451 124.213V123.824C264.451 123.614 264.451 123.524 264.451 123.434C264.451 125.591 264.451 128.346 264.451 128.346C264.646 129.526 265.127 130.639 265.853 131.59C266.578 132.54 267.526 133.298 268.612 133.796C270.889 135.005 273.381 135.758 275.946 136.013C280.323 136.587 284.771 135.814 288.698 133.796C289.791 133.312 290.744 132.558 291.466 131.604C292.189 130.651 292.658 129.53 292.829 128.346V122.985H292.56Z" fill="url(#paint18_linear)"/>
<path d="M264.212 122.895C264.212 122.895 264.212 123.105 264.212 123.195C264.22 123.314 264.22 123.434 264.212 123.554C264.212 123.794 264.212 123.883 264.212 123.973C264.301 124.261 264.411 124.541 264.542 124.812C264.542 124.962 264.542 125.111 264.781 125.231C265.635 126.501 266.8 127.532 268.164 128.226C271.283 129.784 274.721 130.595 278.207 130.595C281.693 130.595 285.131 129.784 288.25 128.226C289.344 127.747 290.297 126.994 291.015 126.039C291.733 125.084 292.193 123.96 292.351 122.775C292.368 122.109 292.245 121.446 291.992 120.829C291.911 120.515 291.79 120.213 291.632 119.93C290.795 118.668 289.652 117.637 288.31 116.935C285.679 115.513 282.765 114.695 279.778 114.54C278.791 114.54 277.803 114.54 276.785 114.54C273.752 114.655 270.785 115.454 268.104 116.876L267.565 117.205C266.136 118.037 265.013 119.308 264.362 120.829C264.14 121.35 264.018 121.909 264.003 122.476L264.212 122.895Z" fill="#F0F0FC"/>
<path d="M292.71 116.456C292.535 117.623 292.071 118.728 291.36 119.67C290.649 120.612 289.713 121.36 288.639 121.847C285.523 123.398 282.09 124.205 278.611 124.205C275.131 124.205 271.698 123.398 268.583 121.847C267.205 121.15 266.022 120.121 265.14 118.852L264.931 118.463C264.792 118.196 264.682 117.914 264.601 117.624C264.58 117.495 264.58 117.364 264.601 117.235C264.601 117.025 264.601 116.936 264.601 116.846C264.601 119.002 264.601 121.757 264.601 121.757C264.806 122.934 265.295 124.042 266.025 124.987C266.756 125.932 267.705 126.684 268.792 127.178C271.06 128.414 273.555 129.178 276.126 129.424C280.503 129.979 284.945 129.207 288.878 127.208C289.967 126.722 290.915 125.966 291.633 125.013C292.35 124.059 292.813 122.939 292.979 121.757V116.456H292.71Z" fill="url(#paint19_linear)"/>
<path d="M264.392 116.367C264.377 116.466 264.377 116.567 264.392 116.666C264.385 116.786 264.385 116.906 264.392 117.025C264.358 117.163 264.358 117.307 264.392 117.445C264.534 117.879 264.714 118.3 264.931 118.703C265.807 119.964 266.979 120.992 268.343 121.697C271.464 123.249 274.901 124.056 278.386 124.056C281.871 124.056 285.308 123.249 288.429 121.697C289.517 121.209 290.463 120.453 291.181 119.5C291.898 118.547 292.362 117.428 292.53 116.247C292.547 115.57 292.425 114.897 292.171 114.27C292.061 113.972 291.931 113.682 291.782 113.402C290.95 112.134 289.806 111.102 288.459 110.407C285.839 108.985 282.934 108.167 279.958 108.011C278.961 107.951 277.961 107.951 276.964 108.011C273.93 108.112 270.959 108.911 268.283 110.347C268.084 110.439 267.893 110.549 267.715 110.676C266.294 111.506 265.173 112.764 264.512 114.27C264.306 114.807 264.185 115.373 264.152 115.947C264.214 116.097 264.294 116.238 264.392 116.367Z" fill="#F0F0FC"/>
<path d="M444.676 519.919L750.935 344.182C754.915 341.937 758.226 338.674 760.531 334.727C762.836 330.78 764.05 326.291 764.05 321.72C764.05 317.149 762.836 312.661 760.531 308.714C758.226 304.767 754.915 301.504 750.935 299.259L443.03 122.683C430.506 115.515 416.328 111.745 401.9 111.745C387.472 111.745 373.294 115.515 360.77 122.683L49.0037 301.595C45.195 303.763 42.0282 306.902 39.8253 310.692C37.6224 314.482 36.4619 318.788 36.4619 323.173C36.4619 327.557 37.6224 331.863 39.8253 335.653C42.0282 339.443 45.195 342.582 49.0037 344.751L354.334 519.919C368.089 527.79 383.66 531.931 399.505 531.931C415.351 531.931 430.922 527.79 444.676 519.919Z" fill="#27317A"/>
<path d="M751.173 322.978L442.67 146.642C430.115 139.487 415.914 135.724 401.465 135.724C387.016 135.724 372.815 139.487 360.26 146.642L47.895 325.164C44.1733 327.329 41.0785 330.425 38.9147 334.149C37.2287 331.324 36.1228 328.191 35.662 324.933C35.2011 321.675 35.3945 318.358 36.2307 315.176C37.067 311.994 38.5294 309.011 40.5322 306.401C42.5351 303.791 45.0382 301.608 47.895 299.978L360.26 121.396C372.815 114.24 387.016 110.478 401.465 110.478C415.914 110.478 430.115 114.24 442.67 121.396L751.173 297.702C757.095 301.054 761.446 306.62 763.27 313.178C765.094 319.736 764.242 326.751 760.902 332.681C758.601 328.622 755.238 325.268 751.173 322.978Z" fill="url(#paint20_linear)"/>
<path d="M596.742 260.356V351.579C596.741 353.906 596.123 356.192 594.95 358.202C593.777 360.211 592.092 361.874 590.067 363.019L433.54 452.864C426.505 456.896 418.539 459.018 410.431 459.018C402.323 459.018 394.357 456.896 387.322 452.864L231.304 363.319C229.249 362.157 227.564 360.439 226.441 358.363C225.319 356.286 224.804 353.935 224.958 351.579H223.97V260.356H596.742Z" fill="url(#paint21_linear)"/>
<path d="M433.36 360.623L589.887 270.778C591.903 269.625 593.578 267.96 594.743 265.951C595.908 263.942 596.522 261.661 596.522 259.338C596.522 257.015 595.908 254.734 594.743 252.725C593.578 250.715 591.903 249.05 589.887 247.898L432.522 157.633C426.123 153.955 418.873 152.019 411.493 152.019C404.113 152.019 396.863 153.955 390.464 157.633L231.123 249.066C229.183 250.177 227.57 251.781 226.448 253.717C225.326 255.652 224.735 257.849 224.735 260.087C224.735 262.324 225.326 264.521 226.448 266.457C227.57 268.392 229.183 269.996 231.123 271.108L387.141 360.623C394.176 364.656 402.143 366.777 410.251 366.777C418.358 366.777 426.325 364.656 433.36 360.623Z" fill="white"/>
<path d="M425.966 332.023L543.728 264.489C545.246 263.622 546.508 262.369 547.386 260.857C548.264 259.345 548.726 257.628 548.726 255.879C548.726 254.13 548.264 252.413 547.386 250.9C546.508 249.388 545.246 248.135 543.728 247.269L425.338 179.286C420.519 176.534 415.066 175.086 409.517 175.086C403.969 175.086 398.516 176.534 393.697 179.286L273.959 248.167C272.497 249.003 271.282 250.21 270.437 251.667C269.592 253.124 269.146 254.778 269.146 256.463C269.146 258.147 269.592 259.802 270.437 261.259C271.282 262.716 272.497 263.923 273.959 264.758L391.332 332.112C396.616 335.108 402.588 336.675 408.661 336.659C414.734 336.644 420.698 335.046 425.966 332.023Z" fill="#27317A"/>
<path d="M543.787 256.283L425.067 188.51C420.243 185.758 414.786 184.311 409.232 184.311C403.679 184.311 398.221 185.758 393.397 188.51L273.42 257.152C271.985 257.968 270.789 259.145 269.948 260.566C269.304 259.477 268.884 258.27 268.71 257.017C268.537 255.764 268.614 254.489 268.937 253.266C269.26 252.043 269.823 250.896 270.592 249.892C271.362 248.888 272.323 248.048 273.42 247.418L393.517 178.807C398.341 176.055 403.799 174.607 409.352 174.607C414.905 174.607 420.363 176.055 425.187 178.807L543.787 246.52C544.917 247.155 545.91 248.008 546.71 249.028C547.51 250.049 548.101 251.217 548.448 252.466C548.796 253.715 548.894 255.021 548.736 256.308C548.578 257.595 548.168 258.839 547.529 259.967C546.641 258.42 545.347 257.146 543.787 256.283Z" fill="url(#paint22_linear)"/>
<path d="M522.475 249.874V-32H292.698V250.473C292.633 251.919 292.968 253.354 293.665 254.622C294.362 255.89 295.395 256.941 296.65 257.661L393.098 313.005C397.452 315.492 402.379 316.8 407.392 316.8C412.405 316.8 417.332 315.492 421.686 313.005L518.433 257.481C519.753 256.72 520.831 255.603 521.546 254.258C522.261 252.913 522.583 251.394 522.475 249.874Z" fill="url(#paint23_linear)"/>
<path d="M380.168 48.2616C375.076 48.8082 370.294 50.9733 366.522 54.4391C362.751 57.9049 360.19 62.489 359.214 67.5184L332.273 171.889C332.273 171.889 326.795 190.457 307.397 182.88L362.656 213.786H362.387L432.912 253.228C454.465 263.65 460.422 243.345 460.422 243.345L487.363 138.975C492.392 116.454 508.167 115.017 510.891 115.346L380.168 48.2616Z" fill="white"/>
<path d="M309.79 210.372C309.868 210.234 309.981 210.121 310.119 210.043C310.181 210.002 310.253 209.977 310.327 209.971C310.401 209.965 310.476 209.977 310.544 210.007C310.613 210.036 310.672 210.083 310.718 210.141C310.764 210.2 310.795 210.269 310.808 210.342L311.586 214.266C311.655 214.681 311.81 215.076 312.043 215.427C312.275 215.778 312.578 216.076 312.933 216.302L338.168 231.276C338.279 231.393 338.342 231.549 338.342 231.71C338.342 231.872 338.279 232.028 338.168 232.145C337.958 232.474 337.599 232.624 337.359 232.474L312.125 217.5C311.65 217.212 311.244 216.825 310.934 216.365C310.624 215.904 310.417 215.382 310.329 214.835L309.58 210.941C309.567 210.837 309.579 210.73 309.616 210.631C309.652 210.532 309.712 210.443 309.79 210.372Z" fill="white"/>
<path d="M337.451 215.284L310.81 199.531C310.271 199.082 309.403 199.142 308.325 199.92C306.231 201.624 304.801 204.008 304.284 206.659C304.188 207.035 304.187 207.429 304.281 207.805C304.375 208.182 304.561 208.529 304.823 208.815L331.764 224.747L337.451 215.284Z" fill="url(#paint24_linear)"/>
<path d="M330.954 222.561C331.446 219.902 332.881 217.509 334.996 215.823C336.911 214.445 338.229 215.224 337.989 217.53C337.484 220.185 336.052 222.573 333.948 224.268C331.972 225.556 330.655 224.718 330.954 222.561Z" fill="#F5F7FD"/>
<path d="M356.009 236.697C356.443 234.331 357.719 232.203 359.602 230.707C361.308 229.479 362.595 230.138 362.236 232.235C361.779 234.599 360.495 236.722 358.614 238.224C356.907 239.452 355.74 238.763 356.009 236.697Z" fill="#F5F7FD"/>
<path d="M377.383 249.335C377.829 246.974 379.103 244.851 380.975 243.345C382.711 242.117 383.968 242.776 383.609 244.873C383.163 247.233 381.889 249.357 380.017 250.862C378.281 252.09 377.173 251.431 377.383 249.335Z" fill="#F5F7FD"/>
<path d="M401.121 263.411C401.552 261.044 402.829 258.916 404.713 257.421C406.419 256.193 407.707 256.882 407.317 258.948C406.891 261.317 405.614 263.447 403.725 264.938C402.079 266.166 400.911 265.477 401.121 263.411Z" fill="#F5F7FD"/>
<path d="M420.427 264.968L407.107 257.032L396.779 251.042L383.159 242.986L361.756 230.348L359.361 228.91L337.958 216.272C337.479 215.853 336.701 215.913 335.743 216.631C333.871 218.137 332.598 220.26 332.151 222.621C332.049 222.954 332.04 223.308 332.125 223.646C332.209 223.984 332.384 224.292 332.63 224.538L354.003 237.206L356.697 238.793L377.651 251.282H377.951L391.122 259.068L401.748 265.357L415.189 273.294L420.427 264.968Z" fill="url(#paint25_linear)"/>
<path d="M414.621 271.347C415.067 268.987 416.341 266.863 418.213 265.358C419.919 264.1 421.206 264.788 420.847 266.885C420.403 269.254 419.116 271.381 417.225 272.875C415.519 274.102 414.351 273.474 414.621 271.347Z" fill="#F5F7FD"/>
<path d="M416.356 272.934L424.499 274.492C424.801 273.801 425.183 273.148 425.636 272.545L420.517 266.166C420.068 265.298 418.841 265.507 417.344 267.184C416.706 267.931 416.2 268.782 415.848 269.7C415.069 271.766 415.428 272.934 416.356 272.934Z" fill="white"/>
<path d="M424.498 274.492L426.234 274.821C426.341 274.825 426.447 274.8 426.541 274.749C426.635 274.698 426.713 274.622 426.768 274.531C426.823 274.439 426.853 274.334 426.853 274.227C426.854 274.12 426.827 274.015 426.773 273.923L425.636 272.545C425.182 273.148 424.801 273.801 424.498 274.492Z" fill="#F5F7FD"/>
<path d="M424.498 274.492L426.234 274.821C426.341 274.825 426.447 274.8 426.541 274.749C426.635 274.698 426.713 274.622 426.768 274.531C426.823 274.439 426.853 274.334 426.853 274.227C426.854 274.12 426.827 274.015 426.773 273.923L425.636 272.545C425.306 272.757 425.031 273.044 424.833 273.382C424.636 273.72 424.521 274.1 424.498 274.492Z" fill="url(#paint26_linear)"/>
<path d="M193.646 408.271L194.455 408.75L208.853 400.544L208.015 400.065L193.646 408.271Z" fill="#5760CE"/>
<path d="M193.646 408.271L194.455 408.75L212.625 398.358L211.817 397.909L193.646 408.271Z" fill="#5760CE"/>
<path d="M193.615 408.271L194.453 408.72L216.425 396.172L215.617 395.723L193.615 408.271Z" fill="#5760CE"/>
<path d="M193.615 408.271L194.423 408.72L220.227 394.016L219.419 393.536L193.615 408.271Z" fill="#5760CE"/>
<path d="M193.615 408.271L194.423 408.72L224.029 391.829L223.19 391.38L193.615 408.271Z" fill="#5760CE"/>
<path d="M193.615 408.271L194.423 408.72L227.8 389.643L226.992 389.194L193.615 408.271Z" fill="#5760CE"/>
<path d="M193.585 408.241L194.393 408.72L231.602 387.487L230.793 387.008L193.585 408.241Z" fill="#5760CE"/>
<path d="M193.585 408.241L194.393 408.72L235.403 385.301L234.595 384.852L193.585 408.241Z" fill="#5760CE"/>
<path d="M193.585 408.241L194.393 408.72L239.205 383.144L238.367 382.665L193.585 408.241Z" fill="#5760CE"/>
<path d="M175.565 397.939L176.374 398.418L221.185 372.842L220.347 372.393L175.565 397.939Z" fill="#5760CE"/>
<path d="M157.544 387.667L158.352 388.116L203.134 362.54L202.326 362.091L157.544 387.667Z" fill="#5760CE"/>
<path d="M139.493 377.364L140.331 377.844L185.113 352.268L184.305 351.788L139.493 377.364Z" fill="#5760CE"/>
<path d="M121.474 367.092L122.282 367.541L167.094 341.965L166.285 341.516L121.474 367.092Z" fill="#5760CE"/>
<path d="M103.452 356.79L104.26 357.269L149.072 331.693L148.264 331.214L103.452 356.79Z" fill="#5760CE"/>
<path d="M85.4326 346.518L86.2408 346.967L131.053 321.391L130.244 320.942L85.4326 346.518Z" fill="#5760CE"/>
<path d="M67.4111 336.215L68.2194 336.695L113.031 311.119L112.223 310.639L67.4111 336.215Z" fill="#5760CE"/>
<g opacity="0.6">
<path opacity="0.6" d="M716.061 327.56C715.552 327.291 715.552 326.812 716.061 326.512C716.353 326.38 716.669 326.311 716.989 326.311C717.309 326.311 717.626 326.38 717.917 326.512C718.03 326.55 718.128 326.623 718.197 326.719C718.267 326.816 718.304 326.932 718.304 327.051C718.304 327.17 718.267 327.286 718.197 327.383C718.128 327.48 718.03 327.552 717.917 327.59C717.626 327.726 717.307 327.794 716.986 327.789C716.664 327.783 716.348 327.705 716.061 327.56Z" fill="#9FAFFC"/>
<path opacity="0.6" d="M711.27 330.375C710.761 330.106 710.761 329.627 711.27 329.327C711.56 329.187 711.877 329.114 712.198 329.114C712.52 329.114 712.837 329.187 713.126 329.327C713.239 329.365 713.337 329.438 713.406 329.534C713.476 329.631 713.513 329.747 713.513 329.866C713.513 329.985 713.476 330.101 713.406 330.198C713.337 330.295 713.239 330.367 713.126 330.405C712.835 330.541 712.516 330.609 712.195 330.604C711.873 330.599 711.557 330.52 711.27 330.375Z" fill="#9FAFFC"/>
<path opacity="0.6" d="M706.453 333.011C705.944 332.711 705.944 332.262 706.453 331.963C706.74 331.816 707.058 331.739 707.381 331.739C707.704 331.739 708.022 331.816 708.309 331.963C708.818 332.262 708.818 332.741 708.309 333.011C708.022 333.158 707.704 333.235 707.381 333.235C707.058 333.235 706.74 333.158 706.453 333.011Z" fill="#9FAFFC"/>
<path opacity="0.6" d="M701.632 335.736C701.123 335.437 701.123 334.987 701.632 334.688C701.919 334.541 702.237 334.464 702.56 334.464C702.882 334.464 703.2 334.541 703.488 334.688C703.996 334.987 704.026 335.467 703.488 335.736C703.2 335.883 702.882 335.96 702.56 335.96C702.237 335.96 701.919 335.883 701.632 335.736Z" fill="#9FAFFC"/>
<path opacity="0.6" d="M696.844 338.461C696.335 338.162 696.335 337.713 696.844 337.413C697.131 337.266 697.449 337.189 697.772 337.189C698.094 337.189 698.412 337.266 698.7 337.413C699.208 337.713 699.208 338.192 698.7 338.461C698.412 338.609 698.094 338.685 697.772 338.685C697.449 338.685 697.131 338.609 696.844 338.461Z" fill="#9FAFFC"/>
<path opacity="0.6" d="M692.023 341.187C691.514 340.887 691.514 340.408 692.023 340.139C692.311 339.991 692.629 339.915 692.951 339.915C693.274 339.915 693.592 339.991 693.879 340.139C694.388 340.438 694.388 340.887 693.879 341.187C693.592 341.334 693.274 341.411 692.951 341.411C692.629 341.411 692.311 341.334 692.023 341.187Z" fill="#9FAFFC"/>
<path opacity="0.6" d="M687.234 343.912C686.695 343.613 686.695 343.133 687.234 342.864C687.521 342.717 687.839 342.64 688.162 342.64C688.485 342.64 688.803 342.717 689.09 342.864C689.599 343.163 689.599 343.613 689.09 343.912C688.803 344.059 688.485 344.136 688.162 344.136C687.839 344.136 687.521 344.059 687.234 343.912Z" fill="#9FAFFC"/>
<path opacity="0.6" d="M682.505 346.637C681.996 346.338 681.996 345.859 682.505 345.589C682.792 345.442 683.11 345.365 683.433 345.365C683.755 345.365 684.073 345.442 684.361 345.589C684.87 345.889 684.87 346.338 684.361 346.637C684.073 346.785 683.755 346.861 683.433 346.861C683.11 346.861 682.792 346.785 682.505 346.637Z" fill="#9FAFFC"/>
<path opacity="0.6" d="M677.594 349.363C677.085 349.063 677.085 348.584 677.594 348.314C677.881 348.167 678.199 348.09 678.522 348.09C678.844 348.09 679.162 348.167 679.45 348.314C679.958 348.584 679.958 349.063 679.45 349.363C679.162 349.51 678.844 349.587 678.522 349.587C678.199 349.587 677.881 349.51 677.594 349.363Z" fill="#9FAFFC"/>
<path opacity="0.6" d="M672.805 352.088C672.692 352.05 672.594 351.977 672.525 351.881C672.455 351.784 672.418 351.668 672.418 351.549C672.418 351.43 672.455 351.314 672.525 351.217C672.594 351.12 672.692 351.048 672.805 351.01C673.094 350.869 673.411 350.796 673.733 350.796C674.054 350.796 674.371 350.869 674.661 351.01C675.169 351.279 675.169 351.759 674.661 352.058C674.374 352.203 674.058 352.281 673.736 352.286C673.415 352.292 673.096 352.224 672.805 352.088Z" fill="#9FAFFC"/>
<path opacity="0.6" d="M709.626 322.349L694.868 313.904L692.533 315.222L707.321 323.667L709.626 322.349Z" fill="#9FAFFC"/>
<path opacity="0.6" d="M705.106 324.925L690.319 316.479L688.014 317.797L702.771 326.213L705.106 324.925Z" fill="#9FAFFC"/>
<path opacity="0.6" d="M696.035 330.046L673.674 317.288L671.369 318.606L693.73 331.364L696.035 330.046Z" fill="#9FAFFC"/>
<path opacity="0.6" d="M665.322 322.02L663.017 323.337L680.498 333.31L682.833 331.993L665.322 322.02Z" fill="#9FAFFC"/>
<path opacity="0.6" d="M687.264 309.591L684.959 310.909L690.198 313.904L692.532 312.586L687.264 309.591Z" fill="#9FAFFC"/>
<path opacity="0.6" d="M682.745 312.167L680.41 313.484L685.679 316.479L688.013 315.162L682.745 312.167Z" fill="#9FAFFC"/>
<path opacity="0.6" d="M650.773 330.256L648.468 331.573L655.981 335.856L658.316 334.538L650.773 330.256Z" fill="#9FAFFC"/>
<path opacity="0.6" d="M646.254 332.831L643.919 334.149L651.463 338.432L653.767 337.114L646.254 332.831Z" fill="#9FAFFC"/>
</g>
<path opacity="0.43" d="M769.314 464.275L731.237 442.562C729.378 441.515 727.28 440.965 725.146 440.965C723.012 440.965 720.914 441.515 719.054 442.562L681.846 463.526V474.128L718.426 495.091H731.716L769.553 472.211C770.23 471.782 770.784 471.185 771.16 470.477C771.535 469.769 771.72 468.976 771.696 468.174C771.672 467.373 771.44 466.592 771.022 465.909C770.604 465.225 770.016 464.662 769.314 464.275Z" fill="#0C25BA"/>
<path d="M757.34 392.788L721.419 413.332C719.802 414.246 717.977 414.726 716.12 414.726C714.264 414.726 712.439 414.246 710.822 413.332L674.901 392.728C674.446 392.452 674.068 392.066 673.801 391.605C673.534 391.145 673.387 390.625 673.374 390.092V470.684C673.387 471.216 673.534 471.736 673.801 472.196C674.068 472.657 674.446 473.043 674.901 473.319L710.822 493.924C712.439 494.837 714.264 495.317 716.12 495.317C717.977 495.317 719.802 494.837 721.419 493.924L757.34 473.379C757.844 473.132 758.268 472.748 758.564 472.272C758.861 471.795 759.017 471.245 759.016 470.684V390.092C759.017 390.654 758.861 391.204 758.564 391.681C758.268 392.157 757.844 392.541 757.34 392.788Z" fill="url(#paint27_linear)"/>
<path d="M673.523 390.092C673.537 390.625 673.683 391.145 673.95 391.605C674.217 392.066 674.595 392.452 675.05 392.728L710.971 413.332C712.588 414.246 714.413 414.726 716.27 414.726C718.126 414.726 719.951 414.246 721.568 413.332L757.34 392.788C757.843 392.541 758.268 392.157 758.564 391.681C758.861 391.204 759.017 390.654 759.016 390.092V355.622H673.523V390.092Z" fill="url(#paint28_linear)"/>
<path d="M673.523 390.092C673.537 390.625 673.683 391.145 673.95 391.605C674.217 392.066 674.595 392.452 675.05 392.728L710.971 413.332C712.588 414.246 714.413 414.726 716.27 414.726C718.126 414.726 719.951 414.246 721.568 413.332L757.34 392.788C757.843 392.541 758.268 392.157 758.564 391.681C758.861 391.204 759.017 390.654 759.016 390.092V355.622H673.523V390.092Z" fill="url(#paint29_linear)"/>
<path d="M710.911 379.042L674.99 358.437C674.514 358.18 674.117 357.8 673.841 357.336C673.564 356.872 673.418 356.342 673.418 355.802C673.418 355.261 673.564 354.731 673.841 354.267C674.117 353.803 674.514 353.423 674.99 353.166L711.061 332.472C712.518 331.619 714.176 331.17 715.865 331.17C717.554 331.17 719.212 331.619 720.669 332.472L757.189 353.436C757.616 353.706 757.967 354.079 758.211 354.522C758.454 354.964 758.582 355.461 758.582 355.966C758.582 356.471 758.454 356.968 758.211 357.411C757.967 357.853 757.616 358.227 757.189 358.497L721.418 379.042C719.812 379.939 718.003 380.41 716.164 380.41C714.325 380.41 712.517 379.939 710.911 379.042Z" fill="white"/>
<path d="M698.518 441.005L709.743 447.384V444.808L698.518 438.429V441.005Z" fill="#BDBDEF"/>
<path d="M693.907 430.433V433.008L709.802 442.053V439.477L693.907 430.433Z" fill="#BDBDEF"/>
<path d="M693.907 425.402V427.977L709.802 437.022V434.446L693.907 425.402Z" fill="#BDBDEF"/>
<path d="M693.907 420.37V422.946L709.802 431.99V429.385L693.907 420.37Z" fill="#BDBDEF"/>
<path d="M693.907 415.01V417.585L709.742 426.6V424.024L693.907 415.01Z" fill="#BDBDEF"/>
<path d="M693.907 409.978V412.554L709.742 421.538V418.963L693.907 409.978Z" fill="#BDBDEF"/>
<g opacity="0.6">
<path opacity="0.43" d="M210.315 180.247L151.405 146.854C148.592 145.264 145.416 144.428 142.185 144.428C138.954 144.428 135.778 145.264 132.965 146.854L83.0645 175.215V253.291H107.73L210.315 195.131C211.666 194.403 212.795 193.322 213.581 192.004C214.368 190.686 214.783 189.179 214.783 187.644C214.783 186.109 214.368 184.602 213.581 183.284C212.795 181.966 211.666 180.885 210.315 180.157V180.247Z" fill="#0C25BA"/>
<path d="M127.787 143.2C129.914 141.993 132.317 141.358 134.762 141.358C137.207 141.358 139.61 141.993 141.736 143.2L201.934 177.312C203.245 178.037 204.337 179.1 205.097 180.39C205.857 181.68 206.258 183.151 206.258 184.649C206.258 186.147 205.857 187.617 205.097 188.908C204.337 190.198 203.245 191.261 201.934 191.986L100.307 249.547C95.7404 252.127 90.5847 253.482 85.3402 253.482C80.0956 253.482 74.94 252.127 70.373 249.547L13.7971 217.502C12.9492 217.03 12.2428 216.339 11.7511 215.502C11.2593 214.665 11 213.712 11 212.741C11 211.769 11.2593 210.816 11.7511 209.979C12.2428 209.142 12.9492 208.451 13.7971 207.979L127.787 143.2Z" fill="url(#paint30_linear)"/>
<path d="M125.78 141.404C128.549 139.828 131.68 139 134.865 139C138.05 139 141.181 139.828 143.95 141.404L202.023 174.347C203.333 175.072 204.425 176.135 205.185 177.425C205.946 178.716 206.347 180.186 206.347 181.684C206.347 183.182 205.946 184.653 205.185 185.943C204.425 187.233 203.333 188.296 202.023 189.021L100.426 246.552C95.8567 249.126 90.7018 250.479 85.4584 250.479C80.2149 250.479 75.06 249.126 70.4912 246.552L14.2146 214.657C13.3429 214.164 12.6177 213.448 12.1131 212.582C11.6086 211.717 11.3428 210.733 11.3428 209.731C11.3428 208.729 11.6086 207.745 12.1131 206.879C12.6177 206.014 13.3429 205.298 14.2146 204.804L125.78 141.404Z" fill="#DFDFF7"/>
<path d="M38.4619 200.761L119.045 154.97L136.497 145.057L193.761 177.611L113.208 223.372L95.7563 233.315L38.4619 200.761Z" fill="white"/>
<path d="M168.197 166.83L151.943 157.606C150.476 156.767 150.656 155.27 152.362 154.311C153.243 153.832 154.221 153.561 155.223 153.52C156.225 153.478 157.222 153.667 158.14 154.072L174.394 163.326C175.861 164.164 175.681 165.632 173.975 166.59C173.094 167.069 172.115 167.34 171.114 167.382C170.112 167.423 169.115 167.234 168.197 166.83Z" fill="#232F6D"/>
<g opacity="0.6">
<path opacity="0.6" d="M143.052 164.584C142.812 164.434 142.812 164.254 143.052 164.104C143.178 164.045 143.316 164.015 143.456 164.015C143.595 164.015 143.733 164.045 143.86 164.104C144.099 164.254 144.099 164.464 143.86 164.584C143.733 164.642 143.595 164.673 143.456 164.673C143.316 164.673 143.178 164.642 143.052 164.584Z" fill="#9FAFFC"/>
<path opacity="0.6" d="M140.958 165.692C140.718 165.692 140.718 165.362 140.958 165.212C141.083 165.147 141.221 165.113 141.362 165.113C141.503 165.113 141.642 165.147 141.766 165.212C142.006 165.212 142.006 165.542 141.766 165.662C141.642 165.725 141.505 165.761 141.365 165.766C141.226 165.771 141.087 165.746 140.958 165.692Z" fill="#9FAFFC"/>
<path opacity="0.6" d="M138.802 166.979C138.562 166.979 138.562 166.65 138.802 166.53C138.923 166.456 139.063 166.417 139.206 166.417C139.348 166.417 139.488 166.456 139.61 166.53C139.849 166.53 139.849 166.86 139.61 166.979C139.485 167.045 139.347 167.079 139.206 167.079C139.065 167.079 138.926 167.045 138.802 166.979Z" fill="#9FAFFC"/>
<path opacity="0.6" d="M136.676 168.177C136.436 168.177 136.436 167.848 136.676 167.728C136.802 167.669 136.94 167.639 137.08 167.639C137.219 167.639 137.357 167.669 137.484 167.728C137.723 167.728 137.723 168.057 137.484 168.177C137.362 168.251 137.222 168.29 137.08 168.29C136.937 168.29 136.798 168.251 136.676 168.177Z" fill="#9FAFFC"/>
<path opacity="0.6" d="M134.551 169.405C134.311 169.255 134.311 169.046 134.551 168.926C134.677 168.867 134.815 168.837 134.955 168.837C135.094 168.837 135.232 168.867 135.359 168.926C135.598 168.926 135.598 169.255 135.359 169.405C135.232 169.464 135.094 169.495 134.955 169.495C134.815 169.495 134.677 169.464 134.551 169.405Z" fill="#9FAFFC"/>
<path opacity="0.6" d="M132.426 170.603C132.186 170.603 132.186 170.244 132.426 170.124C132.552 170.065 132.69 170.035 132.83 170.035C132.97 170.035 133.107 170.065 133.234 170.124C133.474 170.274 133.474 170.483 133.234 170.603C133.107 170.662 132.97 170.693 132.83 170.693C132.69 170.693 132.552 170.662 132.426 170.603Z" fill="#9FAFFC"/>
<path opacity="0.6" d="M130.301 171.681C130.061 171.681 130.061 171.352 130.301 171.202C130.427 171.143 130.565 171.113 130.705 171.113C130.844 171.113 130.982 171.143 131.109 171.202C131.348 171.202 131.348 171.561 131.109 171.681C130.982 171.74 130.844 171.771 130.705 171.771C130.565 171.771 130.427 171.74 130.301 171.681Z" fill="#9FAFFC"/>
<path opacity="0.6" d="M128.175 172.999C127.935 172.999 127.935 172.67 128.175 172.55C128.297 172.476 128.436 172.437 128.579 172.437C128.721 172.437 128.861 172.476 128.983 172.55C129.222 172.55 129.222 172.879 128.983 172.999C128.856 173.058 128.718 173.088 128.579 173.088C128.439 173.088 128.301 173.058 128.175 172.999Z" fill="#9FAFFC"/>
<path opacity="0.6" d="M125.991 174.197C125.752 174.197 125.752 173.867 125.991 173.748C126.113 173.674 126.253 173.634 126.395 173.634C126.538 173.634 126.678 173.674 126.799 173.748C127.039 173.748 127.039 174.077 126.799 174.197C126.678 174.271 126.538 174.31 126.395 174.31C126.253 174.31 126.113 174.271 125.991 174.197Z" fill="#9FAFFC"/>
<path opacity="0.6" d="M123.925 175.395C123.685 175.395 123.685 175.065 123.925 174.946C124.051 174.887 124.189 174.856 124.329 174.856C124.468 174.856 124.606 174.887 124.733 174.946C124.972 174.946 124.972 175.275 124.733 175.425C124.606 175.486 124.466 175.515 124.325 175.51C124.184 175.505 124.047 175.465 123.925 175.395Z" fill="#9FAFFC"/>
<path opacity="0.6" d="M154.457 171.532L146.465 166.979L147.483 166.41L155.475 170.963L154.457 171.532Z" fill="#9FAFFC"/>
<path opacity="0.6" d="M152.451 172.67L144.459 168.117L145.477 167.518L153.499 172.101L152.451 172.67Z" fill="#9FAFFC"/>
<path opacity="0.6" d="M150.477 173.808L142.454 169.255L143.472 168.656L151.494 173.239L150.477 173.808Z" fill="#9FAFFC"/>
<path opacity="0.6" d="M154.966 178.659L140.448 170.393L141.496 169.795L155.984 178.06L154.966 178.659Z" fill="#9FAFFC"/>
<path opacity="0.6" d="M148.38 179.109L140.388 174.526L141.405 173.957L149.428 178.51L148.38 179.109Z" fill="#9FAFFC"/>
<path opacity="0.6" d="M146.374 180.216L138.382 175.664L139.4 175.095L147.422 179.647L146.374 180.216Z" fill="#9FAFFC"/>
<path opacity="0.6" d="M144.399 181.355L136.377 176.802L137.395 176.233L145.417 180.785L144.399 181.355Z" fill="#9FAFFC"/>
<path opacity="0.6" d="M170.623 179.588L156.524 171.531L155.506 172.13L169.605 180.187L170.623 179.588Z" fill="#9FAFFC"/>
<path opacity="0.6" d="M168.648 180.726L154.519 172.669L153.501 173.268L167.63 181.325L168.648 180.726Z" fill="#9FAFFC"/>
<path opacity="0.6" d="M166.642 181.864L152.513 173.808L151.495 174.407L165.624 182.463L166.642 181.864Z" fill="#9FAFFC"/>
<path opacity="0.6" d="M164.636 183.002L158.679 179.618L157.661 180.187L163.618 183.601L164.636 183.002Z" fill="#9FAFFC"/>
<path opacity="0.6" d="M160.953 185.098L150.446 179.108L149.429 179.677L159.936 185.667L160.953 185.098Z" fill="#9FAFFC"/>
<path opacity="0.6" d="M158.949 186.236L148.442 180.247L147.424 180.816L157.931 186.805L158.949 186.236Z" fill="#9FAFFC"/>
<path opacity="0.6" d="M156.973 187.374L146.436 181.355L145.418 181.954L155.925 187.943L156.973 187.374Z" fill="#9FAFFC"/>
<path opacity="0.6" d="M146.375 185.248L138.353 180.696L139.4 180.097L147.393 184.679L146.375 185.248Z" fill="#9FAFFC"/>
<path opacity="0.6" d="M154.548 188.752L148.442 185.248L147.424 185.847L153.531 189.321L154.548 188.752Z" fill="#9FAFFC"/>
<path opacity="0.6" d="M152.542 189.89L137.395 181.235L136.348 181.834L151.524 190.459L152.542 189.89Z" fill="#9FAFFC"/>
<path opacity="0.6" d="M150.536 191.028L135.39 182.373L134.342 182.972L149.519 191.597L150.536 191.028Z" fill="#9FAFFC"/>
<path opacity="0.6" d="M140.208 162.277L133.653 158.534L132.635 159.133L139.16 162.846L140.208 162.277Z" fill="#9FAFFC"/>
<path opacity="0.6" d="M138.203 163.386L131.678 159.672L130.63 160.271L137.185 163.985L138.203 163.386Z" fill="#9FAFFC"/>
<path opacity="0.6" d="M134.192 165.662L124.313 160.031L123.266 160.6L133.174 166.261L134.192 165.662Z" fill="#9FAFFC"/>
<path opacity="0.6" d="M120.633 162.128L119.585 162.697L127.338 167.099L128.356 166.53L120.633 162.128Z" fill="#9FAFFC"/>
<path opacity="0.6" d="M130.3 156.647L129.282 157.216L131.617 158.534L132.635 157.965L130.3 156.647Z" fill="#9FAFFC"/>
<path opacity="0.6" d="M128.324 157.755L127.276 158.354L129.611 159.672L130.629 159.103L128.324 157.755Z" fill="#9FAFFC"/>
<path opacity="0.6" d="M114.196 165.751L113.148 166.35L116.501 168.237L117.519 167.668L114.196 165.751Z" fill="#9FAFFC"/>
<path opacity="0.6" d="M112.19 166.889L111.143 167.488L114.495 169.375L115.513 168.806L112.19 166.889Z" fill="#9FAFFC"/>
</g>
<path opacity="0.6" d="M120.78 177.402C120.541 177.402 120.541 177.072 120.78 176.952C120.907 176.893 121.045 176.863 121.184 176.863C121.324 176.863 121.462 176.893 121.588 176.952C121.828 176.952 121.828 177.282 121.588 177.402C121.467 177.476 121.327 177.515 121.184 177.515C121.042 177.515 120.902 177.476 120.78 177.402Z" fill="#9FAFFC"/>
<path opacity="0.6" d="M118.655 178.629C118.416 178.629 118.416 178.27 118.655 178.15C118.782 178.091 118.92 178.061 119.059 178.061C119.199 178.061 119.337 178.091 119.463 178.15C119.703 178.15 119.703 178.48 119.463 178.629C119.337 178.688 119.199 178.719 119.059 178.719C118.92 178.719 118.782 178.688 118.655 178.629Z" fill="#9FAFFC"/>
<path opacity="0.6" d="M116.529 179.827C116.29 179.827 116.29 179.468 116.529 179.348C116.656 179.289 116.794 179.259 116.933 179.259C117.073 179.259 117.211 179.289 117.338 179.348C117.577 179.348 117.577 179.678 117.338 179.827C117.211 179.886 117.073 179.917 116.933 179.917C116.794 179.917 116.656 179.886 116.529 179.827Z" fill="#9FAFFC"/>
<path opacity="0.6" d="M114.404 181.025C114.165 181.025 114.165 180.696 114.404 180.546C114.531 180.487 114.669 180.457 114.808 180.457C114.948 180.457 115.086 180.487 115.212 180.546C115.452 180.546 115.452 180.905 115.212 181.025C115.086 181.084 114.948 181.115 114.808 181.115C114.669 181.115 114.531 181.084 114.404 181.025Z" fill="#9FAFFC"/>
<path opacity="0.6" d="M112.279 182.223C112.04 182.223 112.04 181.894 112.279 181.774C112.401 181.7 112.541 181.661 112.683 181.661C112.826 181.661 112.966 181.7 113.087 181.774C113.327 181.774 113.327 182.103 113.087 182.223C112.961 182.282 112.823 182.313 112.683 182.313C112.544 182.313 112.406 182.282 112.279 182.223Z" fill="#9FAFFC"/>
<path opacity="0.6" d="M110.154 183.421C109.915 183.421 109.915 183.092 110.154 182.972C110.276 182.898 110.416 182.859 110.558 182.859C110.701 182.859 110.841 182.898 110.962 182.972C111.202 182.972 111.202 183.301 110.962 183.421C110.841 183.495 110.701 183.534 110.558 183.534C110.416 183.534 110.276 183.495 110.154 183.421Z" fill="#9FAFFC"/>
<path opacity="0.6" d="M108.028 184.619C107.789 184.619 107.789 184.29 108.028 184.17C108.155 184.111 108.293 184.08 108.432 184.08C108.572 184.08 108.71 184.111 108.836 184.17C109.076 184.17 109.076 184.499 108.836 184.649C108.709 184.71 108.569 184.739 108.429 184.734C108.288 184.729 108.15 184.689 108.028 184.619Z" fill="#9FAFFC"/>
<path opacity="0.6" d="M105.903 185.847C105.664 185.847 105.664 185.488 105.903 185.368C106.03 185.309 106.168 185.278 106.307 185.278C106.447 185.278 106.585 185.309 106.712 185.368C106.951 185.368 106.951 185.697 106.712 185.847C106.585 185.906 106.447 185.936 106.307 185.936C106.168 185.936 106.03 185.906 105.903 185.847Z" fill="#9FAFFC"/>
<path opacity="0.6" d="M103.778 187.045C103.539 186.895 103.539 186.715 103.778 186.566C103.905 186.507 104.043 186.476 104.182 186.476C104.322 186.476 104.46 186.507 104.586 186.566C104.826 186.715 104.826 186.925 104.586 187.045C104.46 187.104 104.322 187.134 104.182 187.134C104.043 187.134 103.905 187.104 103.778 187.045Z" fill="#9FAFFC"/>
<path opacity="0.6" d="M101.653 188.243C101.414 188.243 101.414 187.913 101.653 187.764C101.778 187.698 101.917 187.664 102.057 187.664C102.198 187.664 102.337 187.698 102.461 187.764C102.701 187.764 102.701 188.093 102.461 188.213C102.337 188.276 102.2 188.312 102.061 188.317C101.921 188.323 101.782 188.297 101.653 188.243Z" fill="#9FAFFC"/>
<path opacity="0.6" d="M132.186 184.379L124.193 179.827L125.211 179.228L133.204 183.78L132.186 184.379Z" fill="#9FAFFC"/>
<path opacity="0.6" d="M130.18 185.517L122.188 180.935L123.205 180.366L131.228 184.919L130.18 185.517Z" fill="#9FAFFC"/>
<path opacity="0.6" d="M128.175 186.656L120.183 182.073L121.2 181.504L129.223 186.057L128.175 186.656Z" fill="#9FAFFC"/>
<path opacity="0.6" d="M132.695 191.477L118.177 183.212L119.195 182.642L133.713 190.908L132.695 191.477Z" fill="#9FAFFC"/>
<path opacity="0.6" d="M126.109 191.926L118.116 187.374L119.134 186.775L127.126 191.357L126.109 191.926Z" fill="#9FAFFC"/>
<path opacity="0.6" d="M124.103 193.064L116.11 188.512L117.128 187.913L125.151 192.495L124.103 193.064Z" fill="#9FAFFC"/>
<path opacity="0.6" d="M122.127 194.202L114.104 189.62L115.122 189.051L123.145 193.633L122.127 194.202Z" fill="#9FAFFC"/>
<path opacity="0.6" d="M148.35 192.436L134.251 184.379L133.203 184.948L147.332 193.005L148.35 192.436Z" fill="#9FAFFC"/>
<path opacity="0.6" d="M146.376 193.574L132.247 185.517L131.229 186.086L145.329 194.143L146.376 193.574Z" fill="#9FAFFC"/>
<path opacity="0.6" d="M144.37 194.712L130.241 186.655L129.224 187.224L143.353 195.281L144.37 194.712Z" fill="#9FAFFC"/>
<path opacity="0.6" d="M142.363 195.85L136.406 192.436L135.389 193.034L141.346 196.419L142.363 195.85Z" fill="#9FAFFC"/>
<path opacity="0.6" d="M138.682 197.946L128.175 191.926L127.157 192.525L137.664 198.515L138.682 197.946Z" fill="#9FAFFC"/>
<path opacity="0.6" d="M136.676 199.054L126.169 193.064L125.151 193.663L135.658 199.653L136.676 199.054Z" fill="#9FAFFC"/>
<path opacity="0.6" d="M134.701 200.192L124.164 194.203L123.146 194.772L133.653 200.791L134.701 200.192Z" fill="#9FAFFC"/>
<path opacity="0.6" d="M124.104 198.096L116.081 193.514L117.099 192.945L125.121 197.497L124.104 198.096Z" fill="#9FAFFC"/>
<path opacity="0.6" d="M132.276 201.57L126.169 198.096L125.151 198.665L131.258 202.139L132.276 201.57Z" fill="#9FAFFC"/>
<path opacity="0.6" d="M130.27 202.708L115.123 194.083L114.075 194.652L129.252 203.307L130.27 202.708Z" fill="#9FAFFC"/>
<path opacity="0.6" d="M128.265 203.846L113.118 195.221L112.07 195.79L127.247 204.445L128.265 203.846Z" fill="#9FAFFC"/>
<path opacity="0.6" d="M117.937 175.095L111.381 171.382L110.363 171.951L116.889 175.694L117.937 175.095Z" fill="#9FAFFC"/>
<path opacity="0.6" d="M115.931 176.234L109.375 172.52L108.357 173.089L114.883 176.832L115.931 176.234Z" fill="#9FAFFC"/>
<path opacity="0.6" d="M111.92 178.51L102.042 172.879L100.994 173.448L110.902 179.079L111.92 178.51Z" fill="#9FAFFC"/>
<path opacity="0.6" d="M98.3312 174.946L97.3135 175.545L105.037 179.947L106.084 179.348L98.3312 174.946Z" fill="#9FAFFC"/>
<path opacity="0.6" d="M108.028 169.465L107.011 170.034L109.346 171.382L110.363 170.783L108.028 169.465Z" fill="#9FAFFC"/>
<path opacity="0.6" d="M106.023 170.603L105.005 171.172L107.34 172.49L108.358 171.921L106.023 170.603Z" fill="#9FAFFC"/>
<path opacity="0.6" d="M91.9246 178.599L90.877 179.168L94.1997 181.085L95.2474 180.486L91.9246 178.599Z" fill="#9FAFFC"/>
<path opacity="0.6" d="M89.9188 179.737L88.8711 180.306L92.2238 182.223L93.2415 181.624L89.9188 179.737Z" fill="#9FAFFC"/>
</g>
<path d="M386.869 146.462L390.941 148.338L388.765 153.063C388.573 153.479 388.262 153.774 387.83 153.948C387.417 154.131 386.948 154.101 386.423 153.86L383.979 152.734L379.789 161.829L372.459 158.452L376.649 149.357L360.739 142.028C360.214 141.786 359.81 141.402 359.525 140.876C359.259 140.358 359.184 139.83 359.301 139.292L360.346 134.737L389.976 118.57L398.013 122.272L386.869 146.462ZM384.291 132.768C384.583 132.135 384.914 131.464 385.283 130.757C385.68 130.04 386.102 129.313 386.551 128.577L369.357 138.395L379.538 143.085L384.291 132.768Z" fill="url(#paint31_linear)"/>
<path d="M424.614 158.486C423.021 161.943 421.27 164.768 419.361 166.96C417.451 169.152 415.452 170.776 413.364 171.833C411.294 172.898 409.166 173.42 406.981 173.401C404.813 173.39 402.68 172.901 400.581 171.934C398.481 170.967 396.723 169.663 395.306 168.023C393.908 166.391 392.94 164.443 392.404 162.177C391.868 159.912 391.813 157.341 392.238 154.465C392.681 151.597 393.699 148.435 395.292 144.978C396.884 141.521 398.626 138.692 400.518 136.492C402.427 134.3 404.417 132.671 406.487 131.606C408.558 130.541 410.663 130.019 412.804 130.04C414.971 130.051 417.104 130.54 419.204 131.508C421.304 132.475 423.062 133.778 424.478 135.418C425.922 137.049 426.911 138.996 427.447 141.262C428.001 143.536 428.066 146.111 427.641 148.987C427.215 151.863 426.206 155.029 424.614 158.486ZM415.926 154.484C417.185 151.751 418.043 149.436 418.499 147.54C418.964 145.626 419.136 144.038 419.016 142.775C418.913 141.521 418.583 140.547 418.026 139.851C417.477 139.137 416.832 138.61 416.09 138.268C415.348 137.926 414.527 137.778 413.628 137.825C412.755 137.862 411.809 138.249 410.789 138.986C409.788 139.731 408.711 140.902 407.558 142.5C406.432 144.087 405.239 146.247 403.98 148.98C402.712 151.732 401.841 154.051 401.367 155.939C400.91 157.835 400.72 159.415 400.796 160.678C400.898 161.932 401.215 162.912 401.746 163.617C402.303 164.313 402.953 164.832 403.695 165.173C404.437 165.515 405.253 165.672 406.144 165.644C407.043 165.597 408.003 165.205 409.022 164.468C410.068 163.721 411.164 162.558 412.308 160.979C413.452 159.4 414.658 157.235 415.926 154.484Z" fill="url(#paint32_linear)"/>
<path d="M449.865 175.483L453.938 177.36L451.761 182.084C451.569 182.5 451.258 182.795 450.827 182.97C450.413 183.152 449.944 183.123 449.419 182.881L446.976 181.755L442.786 190.85L435.455 187.473L439.645 178.378L423.735 171.049C423.211 170.807 422.806 170.423 422.522 169.897C422.255 169.38 422.181 168.851 422.297 168.313L423.342 163.758L452.973 147.591L461.009 151.293L449.865 175.483ZM447.287 161.789C447.579 161.156 447.91 160.486 448.28 159.778C448.676 159.061 449.098 158.334 449.548 157.598L432.353 167.416L442.535 172.106L447.287 161.789Z" fill="url(#paint33_linear)"/>
<path d="M367.639 169.121C368.318 169.492 368.879 169.937 369.321 170.455C369.764 170.973 370.075 171.539 370.255 172.154C370.441 172.771 370.488 173.425 370.396 174.115C370.312 174.802 370.077 175.501 369.69 176.21C369.3 176.924 368.835 177.508 368.296 177.962C367.766 178.413 367.189 178.731 366.566 178.914C365.952 179.095 365.305 179.143 364.627 179.057C363.952 178.965 363.275 178.734 362.596 178.363C361.91 177.989 361.344 177.542 360.896 177.021C360.457 176.497 360.141 175.925 359.95 175.304C359.767 174.68 359.718 174.022 359.805 173.329C359.901 172.633 360.144 171.928 360.534 171.213C360.921 170.504 361.378 169.927 361.905 169.482C362.441 169.034 363.019 168.721 363.639 168.543C364.265 168.368 364.915 168.327 365.59 168.418C366.271 168.513 366.954 168.747 367.639 169.121ZM363.681 176.375C364.297 176.711 364.867 176.742 365.391 176.467C365.923 176.189 366.432 175.606 366.916 174.718C367.401 173.831 367.614 173.091 367.556 172.498C367.504 171.909 367.17 171.446 366.554 171.11C365.92 170.764 365.339 170.727 364.809 170.999C364.28 171.271 363.773 171.851 363.288 172.739C362.804 173.626 362.589 174.369 362.644 174.968C362.702 175.56 363.047 176.029 363.681 176.375Z" fill="#F0F0FC"/>
<path d="M373.473 172.484L376.15 173.945L372.305 180.992L374.638 182.264L378.483 175.218L381.16 176.679L377.315 183.725L379.648 184.998L383.492 177.952L386.17 179.413L381.278 188.378L368.58 181.45L373.473 172.484Z" fill="#F0F0FC"/>
<path d="M383.084 189.375L387.977 180.41L390.654 181.871L388.163 186.436C388.082 186.586 387.983 186.746 387.869 186.915C387.754 187.084 387.632 187.253 387.502 187.422C387.819 187.183 388.111 186.998 388.377 186.867C388.389 186.858 388.473 186.814 388.628 186.735C388.784 186.655 388.978 186.552 389.212 186.425C389.455 186.295 389.724 186.151 390.021 185.991C390.323 185.834 390.631 185.673 390.945 185.508C391.679 185.123 392.503 184.687 393.42 184.199C393.512 184.153 393.611 184.109 393.715 184.069C393.828 184.026 393.941 183.998 394.053 183.984C394.168 183.964 394.281 183.963 394.392 183.978C394.506 183.988 394.615 184.021 394.719 184.078L396.36 184.974L391.468 193.939L388.79 192.478L391.281 187.913C391.36 187.769 391.456 187.612 391.571 187.443C391.686 187.274 391.808 187.105 391.937 186.936C391.783 187.054 391.633 187.159 391.486 187.25C391.338 187.342 391.199 187.419 391.068 187.482C391.05 187.488 390.963 187.53 390.808 187.61C390.658 187.693 390.462 187.799 390.219 187.928C389.985 188.055 389.717 188.197 389.415 188.353C389.119 188.513 388.813 188.676 388.499 188.841C387.766 189.226 386.941 189.662 386.025 190.15C385.932 190.196 385.829 190.241 385.716 190.284C385.612 190.325 385.502 190.354 385.387 190.374C385.275 190.388 385.162 190.389 385.048 190.379C384.937 190.364 384.829 190.328 384.726 190.271L383.084 189.375Z" fill="#F0F0FC"/>
<path d="M403.852 187.446C403.341 187.205 402.866 187.062 402.427 187.017C401.997 186.969 401.598 187.009 401.229 187.137C400.861 187.265 400.521 187.469 400.212 187.749C399.908 188.032 399.63 188.377 399.377 188.785C399.625 188.674 399.891 188.591 400.174 188.536C400.461 188.476 400.76 188.456 401.071 188.475C401.384 188.489 401.704 188.54 402.03 188.628C402.361 188.72 402.697 188.858 403.036 189.043C403.63 189.367 404.107 189.766 404.469 190.24C404.833 190.708 405.077 191.226 405.201 191.795C405.333 192.361 405.342 192.96 405.228 193.594C405.12 194.23 404.886 194.877 404.528 195.534C404.157 196.214 403.711 196.764 403.191 197.183C402.676 197.606 402.114 197.897 401.503 198.057C400.898 198.221 400.26 198.254 399.588 198.157C398.919 198.054 398.245 197.817 397.566 197.446C396.88 197.072 396.315 196.622 395.87 196.095C395.426 195.568 395.129 194.953 394.982 194.252C394.839 193.554 394.862 192.766 395.05 191.888C395.243 191.014 395.633 190.037 396.222 188.96C396.706 188.072 397.241 187.283 397.827 186.593C398.422 185.9 399.074 185.362 399.784 184.979C400.502 184.594 401.282 184.391 402.122 184.371C402.969 184.354 403.887 184.574 404.877 185.033L408.165 186.546L407.576 187.975C407.451 188.273 407.276 188.492 407.051 188.631C406.828 188.764 406.567 188.756 406.267 188.607L403.852 187.446ZM398.599 195.553C399.215 195.889 399.779 195.931 400.29 195.679C400.81 195.424 401.3 194.876 401.759 194.034C402.218 193.193 402.412 192.488 402.342 191.918C402.277 191.352 401.937 190.9 401.321 190.564C400.682 190.215 400.104 190.165 399.587 190.414C399.073 190.658 398.588 191.197 398.132 192.033C397.669 192.88 397.472 193.591 397.539 194.167C397.606 194.742 397.96 195.204 398.599 195.553Z" fill="#F0F0FC"/>
<path d="M413.363 195.127C413.606 194.998 413.87 194.932 414.154 194.931C414.448 194.926 414.716 194.99 414.958 195.122L417.074 196.277L413.413 198.509C413.137 198.672 412.883 198.788 412.651 198.856C412.42 198.925 412.175 198.941 411.918 198.905C412.159 199.163 412.322 199.432 412.409 199.711C412.496 199.991 412.537 200.305 412.533 200.654L412.398 205.36L410.549 204.352C410.313 204.223 410.115 204.092 409.956 203.96C409.805 203.826 409.681 203.683 409.584 203.533C409.486 203.383 409.416 203.224 409.372 203.058C409.328 202.892 409.302 202.714 409.294 202.522L409.576 199.747C409.599 199.498 409.553 199.282 409.436 199.099C409.328 198.913 409.168 198.762 408.955 198.646L408.281 198.278L406.248 202.004L403.57 200.543L408.462 191.578L411.14 193.039L409.201 196.592L409.754 196.894C409.996 197.026 410.195 197.086 410.351 197.074C410.516 197.059 410.695 196.985 410.887 196.85L413.363 195.127Z" fill="#F0F0FC"/>
<path d="M419.375 209.168C419.122 209.029 418.948 208.89 418.853 208.748C418.764 208.61 418.736 208.408 418.769 208.141L418.848 207.545C418.52 207.613 418.213 207.662 417.927 207.693C417.641 207.724 417.357 207.73 417.076 207.711C416.804 207.69 416.528 207.633 416.25 207.541C415.974 207.457 415.683 207.333 415.378 207.166C414.969 206.943 414.626 206.688 414.349 206.402C414.075 206.111 413.876 205.797 413.753 205.46C413.636 205.127 413.597 204.773 413.637 204.399C413.681 204.018 413.812 203.626 414.032 203.223C414.205 202.906 414.464 202.624 414.807 202.378C415.151 202.132 415.595 201.981 416.141 201.927C416.689 201.867 417.35 201.929 418.125 202.112C418.899 202.296 419.805 202.655 420.843 203.192L421.05 202.811C421.336 202.287 421.433 201.85 421.34 201.5C421.256 201.147 421.015 200.862 420.618 200.645C420.301 200.473 420.023 200.366 419.784 200.325C419.545 200.284 419.321 200.263 419.112 200.261C418.91 200.263 418.715 200.258 418.527 200.245C418.34 200.233 418.142 200.17 417.935 200.057C417.751 199.956 417.62 199.825 417.544 199.664C417.468 199.502 417.424 199.336 417.412 199.166L417.386 198.063C418.189 197.88 418.981 197.852 419.763 197.98C420.554 198.105 421.327 198.373 422.081 198.785C422.623 199.08 423.061 199.435 423.395 199.85C423.738 200.261 423.973 200.707 424.1 201.188C424.235 201.666 424.265 202.165 424.191 202.685C424.116 203.205 423.939 203.722 423.659 204.235L420.602 209.837L419.375 209.168ZM417.192 205.856C417.537 206.044 417.873 206.149 418.198 206.169C418.523 206.189 418.892 206.136 419.305 206.01L419.984 204.765C419.436 204.496 418.97 204.302 418.587 204.182C418.204 204.063 417.883 204 417.625 203.994C417.367 203.988 417.161 204.029 417.008 204.117C416.861 204.209 416.745 204.333 416.66 204.488C416.493 204.794 416.459 205.056 416.557 205.273C416.658 205.486 416.869 205.68 417.192 205.856Z" fill="#F0F0FC"/>
</g>
<defs>
<linearGradient id="paint0_linear" x1="211.474" y1="558" x2="362.553" y2="558" gradientUnits="userSpaceOnUse">
<stop offset="0.29" stop-color="#EAEAF9"/>
<stop offset="0.39" stop-color="#E3E3F7"/>
<stop offset="0.53" stop-color="#D0D0F2"/>
<stop offset="0.63" stop-color="#BEBEED"/>
</linearGradient>
<linearGradient id="paint1_linear" x1="9150.34" y1="4604.96" x2="9670.34" y2="4604.96" gradientUnits="userSpaceOnUse">
<stop stop-color="#00C100"/>
<stop offset="1" stop-color="#01D101"/>
</linearGradient>
<linearGradient id="paint2_linear" x1="405.791" y1="580.175" x2="618.505" y2="580.175" gradientUnits="userSpaceOnUse">
<stop offset="0.42" stop-color="#EAEAF9"/>
<stop offset="0.44" stop-color="#E3E3F7"/>
<stop offset="0.47" stop-color="#D0D0F2"/>
<stop offset="0.49" stop-color="#BEBEED"/>
</linearGradient>
<linearGradient id="paint3_linear" x1="24840" y1="9871.98" x2="31038.6" y2="9871.98" gradientUnits="userSpaceOnUse">
<stop offset="0.42" stop-color="#EAEAF9"/>
<stop offset="0.44" stop-color="#E3E3F7"/>
<stop offset="0.47" stop-color="#D0D0F2"/>
<stop offset="0.49" stop-color="#BEBEED"/>
</linearGradient>
<linearGradient id="paint4_linear" x1="-327.217" y1="6013.94" x2="1576.94" y2="6013.94" gradientUnits="userSpaceOnUse">
<stop offset="0.29" stop-color="#EAEAF9"/>
<stop offset="0.39" stop-color="#E3E3F7"/>
<stop offset="0.53" stop-color="#D0D0F2"/>
<stop offset="0.63" stop-color="#BEBEED"/>
</linearGradient>
<linearGradient id="paint5_linear" x1="3.85893" y1="6215.47" x2="1834.72" y2="6215.47" gradientUnits="userSpaceOnUse">
<stop stop-color="#00C100"/>
<stop offset="1" stop-color="#01D101"/>
</linearGradient>
<linearGradient id="paint6_linear" x1="27.5996" y1="408.181" x2="30.3835" y2="408.181" gradientUnits="userSpaceOnUse">
<stop stop-color="#FF6F1B"/>
<stop offset="1" stop-color="#FF3933"/>
</linearGradient>
<linearGradient id="paint7_linear" x1="34.1701" y1="720.762" x2="36.7313" y2="720.762" gradientUnits="userSpaceOnUse">
<stop stop-color="#FF6F1B"/>
<stop offset="1" stop-color="#FF3933"/>
</linearGradient>
<linearGradient id="paint8_linear" x1="34.1701" y1="718.578" x2="36.7313" y2="718.578" gradientUnits="userSpaceOnUse">
<stop stop-color="#FF6F1B"/>
<stop offset="1" stop-color="#FF3933"/>
</linearGradient>
<linearGradient id="paint9_linear" x1="58.7079" y1="1058.47" x2="74.612" y2="1058.47" gradientUnits="userSpaceOnUse">
<stop stop-color="#FF6F1B"/>
<stop offset="1" stop-color="#FF3933"/>
</linearGradient>
<linearGradient id="paint10_linear" x1="86.3787" y1="1258.7" x2="114.592" y2="1258.7" gradientUnits="userSpaceOnUse">
<stop stop-color="#FF6F1B"/>
<stop offset="1" stop-color="#FF3933"/>
</linearGradient>
<linearGradient id="paint11_linear" x1="86.3787" y1="1254.98" x2="114.592" y2="1254.98" gradientUnits="userSpaceOnUse">
<stop stop-color="#FF6F1B"/>
<stop offset="1" stop-color="#FF3933"/>
</linearGradient>
<linearGradient id="paint12_linear" x1="61.7822" y1="825.456" x2="67.1572" y2="825.456" gradientUnits="userSpaceOnUse">
<stop stop-color="#FF6F1B"/>
<stop offset="1" stop-color="#FF3933"/>
</linearGradient>
<linearGradient id="paint13_linear" x1="34.1701" y1="714.101" x2="36.7313" y2="714.101" gradientUnits="userSpaceOnUse">
<stop stop-color="#FF6F1B"/>
<stop offset="1" stop-color="#FF3933"/>
</linearGradient>
<linearGradient id="paint14_linear" x1="34.1701" y1="711.903" x2="36.7313" y2="711.903" gradientUnits="userSpaceOnUse">
<stop stop-color="#FF6F1B"/>
<stop offset="1" stop-color="#FF3933"/>
</linearGradient>
<linearGradient id="paint15_linear" x1="86.1665" y1="1247.35" x2="114.196" y2="1247.35" gradientUnits="userSpaceOnUse">
<stop stop-color="#FF6F1B"/>
<stop offset="1" stop-color="#FF3933"/>
</linearGradient>
<linearGradient id="paint16_linear" x1="86.1665" y1="1243.63" x2="114.196" y2="1243.63" gradientUnits="userSpaceOnUse">
<stop stop-color="#FF6F1B"/>
<stop offset="1" stop-color="#FF3933"/>
</linearGradient>
<linearGradient id="paint17_linear" x1="2961.1" y1="1345.57" x2="5394.94" y2="1345.57" gradientUnits="userSpaceOnUse">
<stop offset="0.29" stop-color="#EAEAF9"/>
<stop offset="0.39" stop-color="#E3E3F7"/>
<stop offset="0.53" stop-color="#D0D0F2"/>
<stop offset="0.63" stop-color="#BEBEED"/>
</linearGradient>
<linearGradient id="paint18_linear" x1="2289.49" y1="532.163" x2="2658.12" y2="532.163" gradientUnits="userSpaceOnUse">
<stop offset="0.29" stop-color="#EAEAF9"/>
<stop offset="0.39" stop-color="#E3E3F7"/>
<stop offset="0.53" stop-color="#D0D0F2"/>
<stop offset="0.63" stop-color="#BEBEED"/>
</linearGradient>
<linearGradient id="paint19_linear" x1="2292.21" y1="494.706" x2="2661.05" y2="494.706" gradientUnits="userSpaceOnUse">
<stop offset="0.29" stop-color="#EAEAF9"/>
<stop offset="0.39" stop-color="#E3E3F7"/>
<stop offset="0.53" stop-color="#D0D0F2"/>
<stop offset="0.63" stop-color="#BEBEED"/>
</linearGradient>
<linearGradient id="paint20_linear" x1="809.396" y1="222.292" x2="84.5048" y2="222.292" gradientUnits="userSpaceOnUse">
<stop offset="0.29" stop-color="#EAEAF9"/>
<stop offset="0.34" stop-color="#E3E5F8"/>
<stop offset="0.41" stop-color="#D0D5F4"/>
<stop offset="0.49" stop-color="#B1BDEE"/>
<stop offset="0.58" stop-color="#879AE5"/>
<stop offset="0.63" stop-color="#6D86E0"/>
</linearGradient>
<linearGradient id="paint21_linear" x1="28114.8" y1="26241.4" x2="74536.2" y2="26241.4" gradientUnits="userSpaceOnUse">
<stop offset="0.29" stop-color="#EAEAF9"/>
<stop offset="0.39" stop-color="#E3E3F7"/>
<stop offset="0.53" stop-color="#D0D0F2"/>
<stop offset="0.63" stop-color="#BEBEED"/>
</linearGradient>
<linearGradient id="paint22_linear" x1="51568.5" y1="7338.37" x2="26427.1" y2="7338.37" gradientUnits="userSpaceOnUse">
<stop offset="0.29" stop-color="#EAEAF9"/>
<stop offset="0.34" stop-color="#E3E5F8"/>
<stop offset="0.41" stop-color="#D0D5F4"/>
<stop offset="0.49" stop-color="#B1BDEE"/>
<stop offset="0.58" stop-color="#879AE5"/>
<stop offset="0.63" stop-color="#6D86E0"/>
</linearGradient>
<linearGradient id="paint23_linear" x1="413.618" y1="324.508" x2="408.155" y2="-8.96014" gradientUnits="userSpaceOnUse">
<stop stop-color="#00C100" stop-opacity="0.69"/>
<stop offset="0.848958" stop-color="#01D101" stop-opacity="0"/>
</linearGradient>
<linearGradient id="paint24_linear" x1="319.713" y1="177.769" x2="314.03" y2="187.348" gradientUnits="userSpaceOnUse">
<stop offset="0.29" stop-color="#E5EAFD"/>
<stop offset="0.38" stop-color="#DEE4FC"/>
<stop offset="0.5" stop-color="#CBD5FA"/>
<stop offset="0.63" stop-color="#AFBEF6"/>
</linearGradient>
<linearGradient id="paint25_linear" x1="-364901" y1="-395930" x2="-364602" y2="-395930" gradientUnits="userSpaceOnUse">
<stop offset="0.29" stop-color="#E5EAFD"/>
<stop offset="0.38" stop-color="#DEE4FC"/>
<stop offset="0.5" stop-color="#CBD5FA"/>
<stop offset="0.63" stop-color="#AFBEF6"/>
</linearGradient>
<linearGradient id="paint26_linear" x1="424.694" y1="241.344" x2="420.508" y2="248.399" gradientUnits="userSpaceOnUse">
<stop stop-color="#FF4A4B"/>
<stop offset="1" stop-color="#FF1B7B"/>
</linearGradient>
<linearGradient id="paint27_linear" x1="-65430.1" y1="17069.2" x2="-62985.9" y2="17069.2" gradientUnits="userSpaceOnUse">
<stop offset="0.29" stop-color="#EAEAF9"/>
<stop offset="0.39" stop-color="#E3E3F7"/>
<stop offset="0.53" stop-color="#D0D0F2"/>
<stop offset="0.63" stop-color="#BEBEED"/>
</linearGradient>
<linearGradient id="paint28_linear" x1="-65309" y1="8588.76" x2="-62869" y2="8588.76" gradientUnits="userSpaceOnUse">
<stop offset="0.29" stop-color="#EAEAF9"/>
<stop offset="0.39" stop-color="#E3E3F7"/>
<stop offset="0.53" stop-color="#D0D0F2"/>
<stop offset="0.63" stop-color="#BEBEED"/>
</linearGradient>
<linearGradient id="paint29_linear" x1="673.464" y1="385.181" x2="758.896" y2="385.181" gradientUnits="userSpaceOnUse">
<stop offset="0.47" stop-color="#00C100"/>
<stop offset="0.59" stop-color="#01D101"/>
</linearGradient>
<linearGradient id="paint30_linear" x1="32679.7" y1="5814.84" x2="43288.1" y2="5814.84" gradientUnits="userSpaceOnUse">
<stop offset="0.29" stop-color="#EAEAF9"/>
<stop offset="0.39" stop-color="#E3E3F7"/>
<stop offset="0.53" stop-color="#D0D0F2"/>
<stop offset="0.63" stop-color="#BEBEED"/>
</linearGradient>
<linearGradient id="paint31_linear" x1="410.445" y1="118.812" x2="409.596" y2="190.457" gradientUnits="userSpaceOnUse">
<stop stop-color="#00C100"/>
<stop offset="1" stop-color="#00C100" stop-opacity="0.37"/>
</linearGradient>
<linearGradient id="paint32_linear" x1="410.445" y1="118.812" x2="409.596" y2="190.457" gradientUnits="userSpaceOnUse">
<stop stop-color="#00C100"/>
<stop offset="1" stop-color="#00C100" stop-opacity="0.37"/>
</linearGradient>
<linearGradient id="paint33_linear" x1="410.445" y1="118.812" x2="409.596" y2="190.457" gradientUnits="userSpaceOnUse">
<stop stop-color="#00C100"/>
<stop offset="1" stop-color="#00C100" stop-opacity="0.37"/>
</linearGradient>
<clipPath id="clip0">
<rect width="780" height="673" fill="white" transform="translate(0 -32)"/>
</clipPath>
</defs>
</svg>
