<svg width="21" height="25" xmlns="http://www.w3.org/2000/svg"><g fill="#000" fill-rule="evenodd" opacity=".494"><path d="M16.866 6.798a2.148 2.148 0 002.156-2.136 2.148 2.148 0 00-2.156-2.135c-1.19 0-2.158.958-2.158 2.135 0 1.178.968 2.136 2.158 2.136zm0-3.612c.821 0 1.49.662 1.49 1.476s-.669 1.477-1.49 1.477a1.486 1.486 0 01-1.493-1.477c0-.814.67-1.476 1.493-1.476zM4.122 6.746c1.189 0 2.156-.958 2.156-2.136 0-1.177-.967-2.134-2.156-2.134-1.19 0-2.158.957-2.158 2.134 0 1.178.968 2.136 2.158 2.136zm0-3.611c.822 0 1.49.662 1.49 1.475 0 .814-.668 1.477-1.49 1.477A1.486 1.486 0 012.629 4.61c0-.813.67-1.475 1.493-1.475zM5.97 17.078h-.062c-.663 0-1.239-.587-1.239-1.243V8.393c0-.248.063-.503.148-.759a.334.334 0 00-.037-.3.321.321 0 00-.26-.142H1.916C.879 7.192.01 8.13.01 8.927v6.03c0 .182.213.309.397.309h.935v6.792c0 .182.175.293.358.293h4.27c.184 0 .363-.11.363-.293v-4.704c0-.182-.178-.276-.362-.276zm-.302 4.613h-3.66v-6.734c0-.182-.124-.35-.308-.35H.676v-5.68c0-.43.558-1.075 1.24-1.075H4.09c-.033.164-.087.365-.087.54v7.443c0 .929.665 1.7 1.664 1.829v4.027z"/><path d="M15.485 15.835V8.393c0-.971-.976-2.024-2.27-2.024H7.77c-1.237 0-2.27 1.075-2.27 2.024v7.442c0 .182.223.255.407.255h1.257v8.51c0 .182.156.387.34.387h5.977c.184 0 .34-.205.34-.387v-8.51h1.256c.184 0 .407-.073.407-.255zm-.665-.405h-1.338c-.184 0-.326.223-.326.405v8.493H7.83v-8.493c0-.182-.143-.405-.327-.405H6.167V8.393c0-.561.716-1.365 1.604-1.365h5.444c.934 0 1.605.796 1.605 1.365v7.037zM10.494 5.116c1.424 0 2.583-1.147 2.583-2.557 0-1.411-1.16-2.559-2.583-2.559-1.426 0-2.586 1.148-2.586 2.559 0 1.41 1.16 2.557 2.586 2.557zm0-4.457a1.91 1.91 0 011.917 1.9 1.91 1.91 0 01-1.917 1.898 1.912 1.912 0 01-1.92-1.898c0-1.048.861-1.9 1.92-1.9z"/><path d="M19.07 7.192h-2.584c-.105 0-.204.08-.267.164-.063.083-.063.206-.033.306.074.246.131.501.131.73v7.443c0 .656-.577 1.243-1.239 1.243h-.062c-.184 0-.363.094-.363.276v4.756c0 .182.179.405.363.405h4.27c.184 0 .359-.223.359-.405v-6.844h.935c.183 0 .396-.076.396-.258V8.98c0-.816-.82-1.787-1.906-1.787zm1.24 7.415h-1.023c-.184 0-.308.22-.308.401v6.848h-3.66v-4.192c.998-.13 1.664-.9 1.664-1.829V8.393c0-.158-.052-.377-.08-.542h2.167c.719 0 1.24.693 1.24 1.128v5.628z"/></g></svg>