<svg width="18" height="16" xmlns="http://www.w3.org/2000/svg"><g fill="#303030" fill-rule="evenodd"><path d="M16.482 1.483a5.118 5.118 0 00-7.199 0l-.298.296-.298-.296a5.118 5.118 0 00-7.199 0 5.044 5.044 0 000 7.155l7.287 7.243a.297.297 0 00.42 0l7.287-7.243a5.044 5.044 0 000-7.155zm-.42 6.737l-7.077 7.034L1.91 8.22a4.455 4.455 0 010-6.32A4.495 4.495 0 015.088.595c1.15 0 2.302.436 3.179 1.307l.508.505a.298.298 0 00.42 0l.509-.505a4.52 4.52 0 016.357 0 4.454 4.454 0 010 6.32z"/><path d="M11.458 6.205h-.466V5.157c0-1.1-.9-1.995-2.007-1.995a2.003 2.003 0 00-2.007 1.995v1.048h-.466a.296.296 0 00-.297.296v4.358c0 .163.133.295.297.295h4.946a.296.296 0 00.298-.295V6.5a.296.296 0 00-.298-.296zM7.573 5.157a1.41 1.41 0 011.412-1.403c.779 0 1.412.63 1.412 1.403v1.048H7.573V5.157zm3.588 5.406H6.81V6.796h4.352v3.767z"/><path d="M8.688 9.063v.718c0 .164.133.296.297.296a.296.296 0 00.298-.296v-.718a.912.912 0 00.618-.86c0-.502-.41-.91-.916-.91a.914.914 0 00-.915.91c0 .398.259.737.618.86zm.297-1.18a.32.32 0 01.321.32.32.32 0 01-.642 0 .32.32 0 01.321-.32z"/></g></svg>