<svg width="20" height="20" viewBox="0 0 20 20" fill="none" xmlns="http://www.w3.org/2000/svg">
<path d="M17.1129 10.6766H15.5662C15.7238 11.1082 15.8099 11.574 15.8099 12.0596V17.9053C15.8099 18.1077 15.7747 18.302 15.7106 18.4827H18.2677C19.2229 18.4827 19.9999 17.7056 19.9999 16.7504V13.5637C20 11.9717 18.7048 10.6766 17.1129 10.6766Z" fill="#A1D96E"/>
<path d="M4.19005 12.0596C4.19005 11.574 4.27618 11.1083 4.43384 10.6766H2.88712C1.29516 10.6766 0 11.9718 0 13.5637V16.7505C0 17.7057 0.777072 18.4828 1.73227 18.4828H4.28938C4.22528 18.302 4.19005 18.1077 4.19005 17.9053V12.0596Z" fill="#A1D96E"/>
<path d="M11.7679 9.17248H8.23184C6.63988 9.17248 5.34473 10.4676 5.34473 12.0596V17.9053C5.34473 18.2242 5.60324 18.4827 5.92215 18.4827H14.0775C14.3964 18.4827 14.655 18.2242 14.655 17.9053V12.0596C14.655 10.4676 13.3598 9.17248 11.7679 9.17248Z" fill="#A1D96E"/>
<path d="M10.0002 1.51717C8.08565 1.51717 6.52808 3.07475 6.52808 4.98932C6.52808 6.28796 7.24483 7.42214 8.30335 8.01761C8.80542 8.30003 9.38425 8.46144 10.0002 8.46144C10.6161 8.46144 11.195 8.30003 11.697 8.01761C12.7556 7.42214 13.4723 6.28792 13.4723 4.98932C13.4723 3.07479 11.9147 1.51717 10.0002 1.51717Z" fill="#A1D96E"/>
<path d="M3.90284 4.75349C2.471 4.75349 1.30615 5.91834 1.30615 7.35018C1.30615 8.78202 2.471 9.94686 3.90284 9.94686C4.26604 9.94686 4.6119 9.87163 4.92608 9.73639C5.46929 9.50253 5.91718 9.08854 6.19433 8.56999C6.38886 8.20604 6.49952 7.79084 6.49952 7.35018C6.49952 5.91838 5.33468 4.75349 3.90284 4.75349Z" fill="#A1D96E"/>
<path d="M16.0969 4.75349C14.6651 4.75349 13.5002 5.91834 13.5002 7.35018C13.5002 7.79088 13.6109 8.20608 13.8054 8.56999C14.0826 9.08858 14.5305 9.50257 15.0737 9.73639C15.3879 9.87163 15.7337 9.94686 16.0969 9.94686C17.5288 9.94686 18.6936 8.78202 18.6936 7.35018C18.6936 5.91834 17.5288 4.75349 16.0969 4.75349Z" fill="#A1D96E"/>
</svg>
