<svg width="18" height="16" xmlns="http://www.w3.org/2000/svg"><g fill="#303030" fill-rule="evenodd"><path d="M14.889 4.752l-3.755-.014c.056-.078.103-.166.174-.23.25-.221.299-.636.11-.927-.191-.29-.547-.348-.797-.127-.372.33-.64.774-.782 1.28l-1.693-.006c-.725 0-1.494.657-1.75 1.498l-1.287 4.22c-.135.446-.102.886.092 1.206a.97.97 0 00.854.476l3.441.012c-.115.461-.358.856-.713 1.105a1.422 1.422 0 01-1.233.217c-.305-.089-.613.128-.689.482-.075.356.11.714.415.802.223.066.448.097.671.097.497 0 .986-.159 1.422-.465.634-.445 1.081-1.153 1.258-1.991a.756.756 0 00.01-.242l2.157.009h.004c.223 0 .446-.08.662-.191.016.044.025.09.05.13.255.416.354.92.282 1.422-.072.5-.307.937-.663 1.232-.255.211-.315.626-.133.923a.548.548 0 00.462.277c.114 0 .23-.038.329-.121.604-.499 1.004-1.242 1.126-2.09a3.625 3.625 0 00-.479-2.412.593.593 0 00-.135-.147c.1-.163.19-.335.247-.52l1.286-4.22c.137-.446.103-.886-.091-1.207a.962.962 0 00-.852-.478zm.516 1.506l-1.286 4.22a1.728 1.728 0 01-.398.65c-.026.015-.054.021-.078.042a.646.646 0 00-.125.155c-.226.178-.48.297-.72.297v.266l-.003-.266-2.532-.009c-.018-.007-.032-.023-.05-.029a.466.466 0 00-.313.028l-2.27-.01.09-.298c.043-.137-.02-.289-.137-.337-.116-.05-.248.021-.29.16l-.145.475-1.092-.004c-.214 0-.386-.09-.483-.25-.11-.181-.123-.438-.036-.724l1.288-4.22c.189-.621.794-1.144 1.323-1.144l.932.003-.15.492c-.042.138.02.289.138.338.025.01.05.015.076.015.094 0 .181-.068.213-.177l.19-.623c.006-.015-.003-.03 0-.044h.191c-.069.69.089 1.37.454 1.924.45.683 1.132 1.042 1.82 1.042.486 0 .975-.178 1.388-.545.249-.221.298-.637.108-.928-.191-.29-.546-.347-.797-.126-.504.45-1.232.336-1.619-.25a1.49 1.49 0 01-.225-.988c.004-.044.027-.081.036-.124l3.983.014c.214 0 .385.089.482.25.11.177.123.442.037.725z"/><path d="M8.237 8.817c-.117-.049-.248.022-.29.16l-.328 1.075c-.042.137.02.288.138.337.026.01.05.014.077.014.092 0 .18-.068.213-.175l.328-1.076c.043-.135-.02-.287-.138-.335zM8.893 6.668c-.116-.048-.248.022-.29.16l-.328 1.075c-.042.137.02.289.137.338.025.01.05.015.077.015.093 0 .18-.069.214-.176l.327-1.075c.043-.137-.02-.289-.137-.337zM17.735 5.55L16.6 5.545c-.125 0-.227.118-.229.264 0 .146.103.265.228.266l1.136.004c.125 0 .227-.119.228-.265 0-.147-.102-.265-.227-.266zM16.805 4.661a.203.203 0 00.135-.052l.915-.785a.296.296 0 00.05-.37c-.074-.118-.218-.143-.318-.057l-.915.785a.296.296 0 00-.05.37c.044.07.113.109.183.109zM15.952 2.514c-.118-.05-.248.024-.289.16l-.38 1.248c-.042.137.02.289.137.338.026.01.051.015.076.015.094 0 .182-.067.215-.176l.38-1.248c.042-.136-.021-.287-.139-.337zM1.341 6.48h4.211c.125 0 .227-.12.227-.266 0-.145-.102-.265-.227-.265h-4.21c-.126 0-.229.119-.229.265 0 .147.103.265.228.265zM5.222 8.118c0-.146-.102-.265-.227-.265H.785c-.126 0-.228.118-.228.265 0 .146.102.264.227.264h4.21c.125 0 .228-.118.228-.264zM4.438 9.756H.227c-.125 0-.227.119-.227.266 0 .146.102.264.227.264h4.211c.125 0 .227-.118.227-.264 0-.147-.102-.266-.227-.266zM12.936.009c.902 0 1.633.852 1.633 1.903 0 1.05-.731 1.903-1.633 1.903-.901 0-1.633-.853-1.633-1.903 0-1.051.732-1.903 1.633-1.903z"/></g></svg>