<svg width="62" height="62" xmlns="http://www.w3.org/2000/svg" xmlns:xlink="http://www.w3.org/1999/xlink"><defs><circle id="a" cx="30" cy="30" r="30"/></defs><g transform="translate(1 1)" fill="none" fill-rule="evenodd"><mask id="b" fill="#fff"><use xlink:href="#a"/></mask><use stroke="#E3E6E7" fill="#FFF" xlink:href="#a"/><g mask="url(#b)"><circle fill="#FEE187" cx="30" cy="30" r="30"/><path fill="#808183" d="M13.333 15.253h33.333v6.667H13.333z"/><path fill="#59595B" d="M30 15.253h16.667v6.667H30z"/><path fill="#272525" d="M46.667 24.714L26.633 45.253V35.79l20.034-20.538z"/><path fill="#3A3838" d="M13.333 24.714l20.034 20.539V35.79L13.333 15.253z"/><circle fill="#C92F00" cx="30" cy="40.202" r="8.586"/><path d="M38.586 40.202A8.586 8.586 0 0030 31.616v17.172a8.586 8.586 0 008.586-8.586z" fill="#930000"/><circle fill="#FFC61B" cx="30" cy="40.202" r="6.765"/><path d="M36.765 40.202A6.765 6.765 0 0030 33.437v13.53a6.765 6.765 0 006.765-6.765z" fill="#EAA22F"/><path d="M30 44.497a1.111 1.111 0 01-1.111-1.111v-6.368a1.111 1.111 0 012.222 0v6.368c0 .613-.497 1.11-1.111 1.11z" fill="#FF7F4F"/><path d="M30 35.907v8.59c.614 0 1.111-.498 1.111-1.111v-6.368c0-.613-.497-1.11-1.111-1.11z" fill="#D35933"/></g></g></svg>