<svg width="28" height="26" xmlns="http://www.w3.org/2000/svg"><g fill="#FF757C" fill-rule="evenodd"><path d="M14.045 8.74c-.494 0-.823.334-.823.835v6.01c0 .501.33.835.823.835.494 0 .823-.334.823-.835v-6.01c0-.5-.33-.835-.823-.835zM14.539 19.258a.788.788 0 00-1.153 0c-.164.167-.164.501-.164.668 0 .334 0 .5.164.668.165.167.494.167.659.167.164 0 .494 0 .329-.167.165-.167.33-.501.33-.668 0-.334 0-.5-.165-.668z"/><path d="M27.378 19.425L17.666 2.23C17.008.894 15.526.06 14.045.06c-1.482 0-2.798.835-3.621 2.17L.712 19.425a4.124 4.124 0 000 4.34c.658 1.336 2.14 2.171 3.621 2.171h19.424c1.646 0 2.963-.835 3.621-2.17a4.124 4.124 0 000-4.34zm-1.317 3.673c-.329.835-1.152 1.336-2.14 1.336H4.333c-.823 0-1.646-.501-2.14-1.336a2.594 2.594 0 010-2.671L11.905 3.23c.33-.835 1.152-1.335 2.14-1.335.988 0 1.81.5 2.304 1.335l9.712 17.196a2.593 2.593 0 010 2.671z"/></g></svg>