<svg width="47" height="19" viewBox="0 0 47 19" fill="none" xmlns="http://www.w3.org/2000/svg">
<g clip-path="url(#clip0)">
<path d="M22.2735 9.29364V14.57H20.5996V1.53969H25.039C25.569 1.52862 26.0958 1.62261 26.5892 1.81622C27.0826 2.00984 27.5328 2.29924 27.9138 2.66775C28.2986 3.01388 28.6048 3.43837 28.812 3.9127C29.0191 4.38702 29.1223 4.90019 29.1146 5.4177C29.1256 5.93799 29.024 6.45451 28.8167 6.93186C28.6095 7.4092 28.3014 7.83609 27.9138 8.18326C27.1375 8.92351 26.1792 9.29329 25.039 9.2926H22.2735V9.29364ZM22.2735 3.14392V7.69253H25.0806C25.3884 7.70165 25.6946 7.64644 25.9798 7.53043C26.265 7.41442 26.5229 7.24017 26.7368 7.01881C26.9497 6.81185 27.1189 6.56431 27.2345 6.29082C27.35 6.01732 27.4096 5.72344 27.4096 5.42654C27.4096 5.12964 27.35 4.83576 27.2345 4.56227C27.1189 4.28878 26.9497 4.04123 26.7368 3.83427C26.5255 3.60825 26.2686 3.42973 25.9831 3.31053C25.6975 3.19133 25.3899 3.13419 25.0806 3.14288H22.2735V3.14392Z" fill="white"/>
<path d="M32.9722 5.36365C34.2094 5.36365 35.186 5.69427 35.902 6.3555C36.618 7.01674 36.9757 7.92334 36.975 9.07531V14.57H35.3739V13.3328H35.3011C34.608 14.3517 33.6861 14.8611 32.5355 14.8611C31.5534 14.8611 30.7317 14.57 30.0704 13.9878C29.7531 13.7206 29.4994 13.3859 29.3278 13.0082C29.1562 12.6305 29.0711 12.2193 29.0786 11.8045C29.0786 10.8819 29.4272 10.1483 30.1245 9.60347C30.8218 9.05867 31.7526 8.78559 32.9171 8.7842C33.911 8.7842 34.7296 8.96614 35.3728 9.33003V8.94743C35.3747 8.66465 35.3136 8.385 35.1941 8.12875C35.0745 7.8725 34.8994 7.64607 34.6814 7.46588C34.2388 7.06652 33.6619 6.84861 33.0658 6.85559C32.1307 6.85559 31.3908 7.24998 30.846 8.03875L29.3718 7.11031C30.1827 5.94587 31.3829 5.36365 32.9722 5.36365ZM30.8065 11.8409C30.8054 12.0539 30.8552 12.2641 30.9518 12.454C31.0484 12.6439 31.1889 12.808 31.3617 12.9325C31.7319 13.2237 32.1914 13.378 32.6624 13.3692C33.3687 13.368 34.0458 13.0869 34.5452 12.5874C35.0997 12.0654 35.377 11.4531 35.377 10.7502C34.8551 10.3344 34.1273 10.1264 33.1936 10.1264C32.5137 10.1264 31.9467 10.2904 31.4927 10.6182C31.0342 10.9509 30.8065 11.3553 30.8065 11.8409Z" fill="white"/>
<path d="M46.1664 5.65472L40.5771 18.5H38.8492L40.9233 14.0054L37.248 5.65472H39.0675L41.7239 12.0592H41.7603L44.3439 5.65472H46.1664Z" fill="white"/>
<path d="M15.5106 8.15619C15.5112 7.64607 15.4681 7.13684 15.3817 6.63409H8.32227V9.51713H12.3656C12.2828 9.97759 12.1077 10.4165 11.8508 10.8075C11.5938 11.1985 11.2604 11.5333 10.8705 11.792V13.6634H13.2836C14.6965 12.3607 15.5106 10.4341 15.5106 8.15619Z" fill="#4285F4"/>
<path d="M8.32108 15.4714C10.3412 15.4714 12.0421 14.8081 13.2824 13.6645L10.8693 11.793C10.1977 12.2484 9.33269 12.5083 8.32108 12.5083C6.36856 12.5083 4.71131 11.1921 4.11869 9.4184H1.63281V11.347C2.25586 12.5868 3.21123 13.629 4.39227 14.3573C5.57331 15.0856 6.93354 15.4714 8.32108 15.4714Z" fill="#34A853"/>
<path d="M4.11891 9.41836C3.80561 8.48893 3.80561 7.48243 4.11891 6.553V4.62439H1.63303C1.1089 5.66735 0.835937 6.81843 0.835938 7.98568C0.835937 9.15293 1.1089 10.304 1.63303 11.347L4.11891 9.41836Z" fill="#FBBC04"/>
<path d="M8.32108 3.46309C9.38861 3.44565 10.4201 3.849 11.1927 4.58595L13.3292 2.44941C11.9744 1.17691 10.1796 0.478295 8.32108 0.500003C6.93354 0.500066 5.57331 0.885782 4.39227 1.61409C3.21123 2.34239 2.25586 3.38462 1.63281 4.62442L4.11869 6.55303C4.71131 4.77933 6.36856 3.46309 8.32108 3.46309Z" fill="#EA4335"/>
</g>
<defs>
<clipPath id="clip0">
<rect width="45.327" height="18" fill="white" transform="translate(0.835938 0.5)"/>
</clipPath>
</defs>
</svg>
