<svg width="132" height="150" viewBox="0 0 132 150" fill="none" xmlns="http://www.w3.org/2000/svg">
<path d="M72.924 136.326C72.924 136.326 59.6364 100.018 77.7522 85.7261C85.629 79.5151 94.1104 75.1139 100.573 70.8161C102.543 69.5062 115.073 65.7913 110.79 74.3977C106.088 83.8399 84.7079 92.5668 87.4128 98.4278C88.4531 100.68 112.004 81.7919 114.268 77.4259C116.006 74.0722 111.387 58.6408 114.075 45.939C115.056 41.2927 116.006 38.1247 118.839 37.6038C118.839 37.6038 117.735 31.5469 121.03 29.6587C122.961 28.5518 125.944 29.1566 125.944 32.6696C125.944 32.6696 129.864 31.7728 130.377 35.68C131.094 41.1152 133.531 75.7656 130.558 81.6266C117.808 106.763 74.0825 126.561 72.924 136.326Z" fill="#FFDCCE"/>
<path d="M125.944 32.6696C125.944 32.6696 125.706 32.7098 125.361 32.9549C125.019 33.1981 124.593 33.6539 124.227 34.3375C123.485 35.713 123.115 37.967 123.048 40.6671C123.031 42.0268 123.066 43.4862 123.177 45.0641C123.261 46.6532 123.347 48.3288 123.439 50.0619C123.58 53.5311 123.71 57.2328 123.689 60.9624C123.648 62.8308 123.621 64.6875 123.37 66.5976C123.287 67.1012 123.225 67.5224 122.997 68.1806C122.93 68.3434 122.751 68.6822 122.611 68.8933C122.477 69.1054 122.337 69.2982 122.199 69.4885C121.645 70.2428 121.072 70.9189 120.501 71.5847C118.184 74.1994 115.932 76.5139 113.932 78.4346C111.937 80.3615 110.248 81.9318 109.025 82.9889C107.798 84.0434 107.05 84.5815 107.05 84.5815C107.05 84.5815 107.727 83.9554 108.812 82.7635C109.91 81.5834 111.462 79.8829 113.262 77.7886C115.044 75.6827 117.174 73.2583 119.269 70.5506C119.792 69.8791 120.323 69.1858 120.791 68.4818C120.907 68.3058 121.018 68.1313 121.117 67.9604C121.211 67.79 121.249 67.732 121.349 67.4766C121.378 67.2696 121.456 66.7879 121.472 66.385C121.572 64.6656 121.524 62.811 121.467 60.9797C121.417 59.1337 121.366 57.2898 121.315 55.4748C121.284 53.6512 121.251 51.8576 121.22 50.1219C121.223 48.3838 121.225 46.7031 121.227 45.1099C121.262 43.507 121.343 41.954 121.516 40.5445C121.749 39.1319 121.966 37.8342 122.389 36.7319C122.791 35.6301 123.267 34.7094 123.787 34.041C124.298 33.3634 124.873 32.9789 125.289 32.8196C125.705 32.6518 125.944 32.6696 125.944 32.6696Z" fill="#FFCBB6"/>
<path d="M110.79 74.3977C110.79 74.3977 110.735 74.5178 110.628 74.7482C110.53 74.9766 110.347 75.3047 110.088 75.7101C109.571 76.5118 108.727 77.576 107.616 78.7388C106.514 79.9128 105.155 81.1957 103.658 82.5051C102.171 83.8277 100.523 85.1477 98.8949 86.4804C97.2449 87.7776 95.5954 89.0747 94.0495 90.2899C92.5152 91.5052 91.0886 92.637 89.9331 93.6691C89.3671 94.1951 88.8394 94.6738 88.4305 95.1387C88.0069 95.6001 87.696 96.0279 87.4721 96.4109C87.283 96.7995 87.1824 97.1373 87.1814 97.381C87.205 97.6256 87.2181 97.7589 87.2181 97.7589C87.2181 97.7589 87.1623 97.6338 87.0551 97.4008C86.9787 97.1526 86.9344 96.7492 87.038 96.2537C87.1618 95.7751 87.364 95.1972 87.7076 94.6183C88.028 94.0171 88.4596 93.3959 88.9617 92.7525C90.9673 90.1546 94.1612 87.2918 97.4577 84.6441C99.1273 83.3424 100.793 82.0524 102.391 80.8921C103.982 79.7353 105.47 78.6564 106.743 77.7311C108.009 76.7977 109.052 76.0102 109.744 75.4039C110.429 74.8159 110.79 74.3977 110.79 74.3977Z" fill="#FFCBB6"/>
<path d="M118.839 37.6038C118.839 37.6038 118.695 39.8379 118.484 43.1866C118.431 44.0233 118.374 44.9298 118.357 45.8902C118.335 46.8511 118.285 47.8603 118.282 48.9077C118.302 51.0075 118.268 53.2279 118.383 55.4682C118.599 59.9405 118.817 64.4133 118.98 67.7676C119.055 69.4477 119.091 70.8644 119.108 71.8604C119.089 72.9002 116.669 74.4079 116.669 74.4079L116.774 73.2405C116.774 73.2405 116.822 72.714 116.903 71.7999C116.955 70.8385 117.022 69.4584 117.067 67.7803C117.149 64.4225 117.257 59.9456 117.364 55.4671C117.431 53.2325 117.562 50.9801 117.663 48.8848C117.722 47.8354 117.829 46.8211 117.904 45.8617C117.975 44.8998 118.079 43.9959 118.177 43.1616C118.575 39.8267 118.839 37.6038 118.839 37.6038Z" fill="#FFCBB6"/>
<path d="M101.646 74.1373C101.646 74.1373 105.301 74.0544 103.965 77.4259L101.646 74.1373Z" fill="#F6DFC8"/>
<path d="M59.0755 136.326C59.0755 136.326 72.3616 100.018 54.2453 85.7261C46.3699 79.5151 37.8888 75.1139 31.4256 70.8161C29.4561 69.5062 16.9252 65.7913 21.2094 74.3977C25.9103 83.8399 47.2905 92.5668 44.5855 98.4278C43.5452 100.68 19.9954 81.7919 17.7317 77.4259C15.9926 74.0722 20.6113 58.6408 17.9248 45.939C16.9415 41.2927 15.9926 38.1247 13.1595 37.6038C13.1595 37.6038 14.264 31.5469 10.9696 29.6587C9.03737 28.5518 6.05525 29.1566 6.05525 32.6696C6.05525 32.6696 2.1356 31.7728 1.62017 35.68C0.904702 41.1152 -1.53293 75.7656 1.43958 81.6266C14.1907 106.763 57.9165 126.561 59.0755 136.326Z" fill="#FFDCCE"/>
<path d="M6.05525 32.6696C6.05525 32.6696 6.29304 32.6518 6.71057 32.8196C7.12524 32.9789 7.69997 33.3634 8.21167 34.041C8.73283 34.7094 9.20836 35.6301 9.6098 36.7319C10.0321 37.8342 10.2486 39.1319 10.4803 40.5445C10.655 41.954 10.7352 43.507 10.7713 45.1099C10.7725 46.7031 10.7765 48.3838 10.779 50.1219C10.7477 51.8576 10.7145 53.6512 10.6825 55.4748C10.6326 57.2898 10.5819 59.1337 10.5312 60.9797C10.4742 62.811 10.4257 64.6656 10.5275 66.385C10.5408 66.7879 10.62 67.2696 10.6487 67.4766C10.7494 67.732 10.7886 67.79 10.8816 67.9604C10.9796 68.1313 11.092 68.3058 11.2076 68.4818C11.6755 69.1858 12.2068 69.8791 12.7297 70.5506C14.8262 73.2583 16.9538 75.6827 18.736 77.7886C20.5368 79.8829 22.0886 81.5834 23.1858 82.7635C24.2708 83.9554 24.9497 84.5815 24.9497 84.5815C24.9497 84.5815 24.2002 84.0434 22.973 82.9889C21.7502 81.9318 20.0612 80.3615 18.0657 78.4346C16.0655 76.5139 13.8144 74.1994 11.4972 71.5847C10.9274 70.9189 10.354 70.2428 9.79924 69.4885C9.6605 69.2982 9.52176 69.1054 9.38795 68.8933C9.24685 68.6822 9.06826 68.3434 9.00302 68.1806C8.77368 67.5224 8.7118 67.1012 8.62885 66.5976C8.37773 64.6875 8.35021 62.8308 8.30936 60.9624C8.28834 57.2328 8.41822 53.5311 8.56089 50.0619C8.65108 48.3288 8.73912 46.6532 8.82202 45.0641C8.93324 43.4862 8.96841 42.0268 8.94974 40.6671C8.88395 37.967 8.5137 35.713 7.77055 34.3375C7.40503 33.6539 6.98041 33.1981 6.63768 32.9549C6.29184 32.7098 6.05525 32.6696 6.05525 32.6696Z" fill="#FFCBB6"/>
<path d="M21.2094 74.3977C21.2094 74.3977 21.5696 74.8159 22.2546 75.4039C22.9455 76.0102 23.9909 76.7977 25.2552 77.7311C26.5297 78.6564 28.0157 79.7353 29.6074 80.8921C31.2049 82.0524 32.8719 83.3424 34.5414 84.6441C37.8369 87.2918 41.0309 90.1546 43.0374 92.7525C43.5402 93.3959 43.9698 94.0171 44.2903 94.6183C44.6338 95.1972 44.8381 95.7751 44.9594 96.2537C45.0634 96.7492 45.0187 97.1526 44.9433 97.4008C44.8356 97.6338 44.7798 97.7589 44.7798 97.7589C44.7798 97.7589 44.7934 97.6256 44.8185 97.381C44.8169 97.1373 44.7154 96.7995 44.5271 96.4109C44.3019 96.0279 43.991 95.6001 43.5686 95.1387C43.1588 94.6738 42.6312 94.1951 42.0653 93.6691C40.911 92.637 39.4842 91.5052 37.9481 90.2899C36.4029 89.0747 34.7534 87.7776 33.1038 86.4804C31.4752 85.1477 29.8269 83.8277 28.3401 82.5051C26.8431 81.1957 25.4847 79.9128 24.3833 78.7388C23.2725 77.576 22.4267 76.5118 21.9101 75.7101C21.6515 75.3047 21.468 74.9766 21.3702 74.7482C21.2652 74.5178 21.2094 74.3977 21.2094 74.3977Z" fill="#FFCBB6"/>
<path d="M13.1595 37.6038C13.1595 37.6038 13.3027 39.8379 13.5161 43.1866C13.5678 44.0233 13.6248 44.9298 13.6407 45.8902C13.6633 46.8511 13.7128 47.8603 13.7167 48.9077C13.6953 51.0075 13.7301 53.2279 13.6149 55.4682C13.3994 59.9405 13.1814 64.4133 13.0192 67.7676C12.9437 69.4477 12.9075 70.8644 12.8904 71.8604C12.9093 72.9002 15.3304 74.4079 15.3304 74.4079L15.2239 73.2405C15.2239 73.2405 15.1777 72.714 15.096 71.7999C15.0427 70.8385 14.9775 69.4584 14.9315 67.7803C14.8497 64.4225 14.7409 59.9456 14.6344 55.4671C14.567 53.2325 14.4361 50.9801 14.3357 48.8848C14.2762 47.8354 14.1697 46.8211 14.0954 45.8617C14.0236 44.8998 13.9195 43.9959 13.8217 43.1616C13.423 39.8267 13.1595 37.6038 13.1595 37.6038Z" fill="#FFCBB6"/>
<path d="M30.3529 74.1373C30.3529 74.1373 26.6971 74.0544 28.0343 77.4259L30.3529 74.1373Z" fill="#F6DFC8"/>
<path d="M65.999 150C48.8665 150 34.9774 148.108 34.9774 145.775C34.9774 143.442 48.8665 141.55 65.999 141.55C83.1323 141.55 97.0205 143.442 97.0205 145.775C97.0205 148.108 83.1323 150 65.999 150Z" fill="url(#paint0_radial)"/>
<g clip-path="url(#clip0)">
<path d="M89.6427 50.2593L94.385 50.2307C95.2889 50.2253 96.0262 50.9618 96.0317 51.876L96.0878 61.3979C96.0932 62.3119 95.3648 63.0574 94.4608 63.063L89.7185 63.0916C88.8146 63.097 88.0773 62.3605 88.0718 61.4463L88.0157 51.9244C88.0102 51.0102 88.7387 50.2649 89.6427 50.2593Z" fill="#2F4859"/>
<path d="M41.3843 50.5498L46.1266 50.5211C47.0305 50.5157 47.7677 51.2522 47.7732 52.1664L47.8292 61.6885C47.8346 62.6025 47.1062 63.348 46.2022 63.3536L41.4599 63.3822C40.556 63.3876 39.8187 62.6511 39.8132 61.737L39.7571 52.215C39.7517 51.3008 40.4802 50.5553 41.3843 50.5498Z" fill="#2F4859"/>
<path d="M95.0334 27.068C94.6373 27.1058 94.336 27.4443 94.3402 27.8465C94.4378 28.6316 93.9402 29.3668 93.1813 29.5592L92.0015 29.5666L92.6073 31.3545C92.6073 31.3545 100.203 31.3084 99.9759 28.7856C99.7998 26.8276 96.503 26.9255 95.0334 27.068Z" fill="#2F4859"/>
<path d="M40.4124 27.068C40.8086 27.1058 41.1098 27.4443 41.1056 27.8465C41.0081 28.6316 41.5056 29.3668 42.2646 29.5592L43.4444 29.5666L42.8385 31.3545C42.8385 31.3545 35.2428 31.3084 35.4699 28.7856C35.646 26.8276 38.9428 26.9255 40.4124 27.068Z" fill="#2F4859"/>
<path d="M98.283 42.0493C98.1411 40.173 97.6047 38.3491 96.7094 36.6994L93.5077 30.7618C93.5077 30.7618 87.8225 17.8039 85.454 16.7727C83.164 15.7756 68.5471 15.5514 67.5786 15.5377H67.525C66.5566 15.5635 51.9435 15.9642 49.6657 16.9889C47.3093 18.0484 41.7744 31.0717 41.7744 31.0717L38.6457 37.0481C37.7705 38.7084 37.2556 40.5382 37.1354 42.4158C36.9153 46.5631 37.3572 50.7194 38.444 54.7247C38.9559 56.6136 40.662 57.9167 42.5989 57.8982L67.7739 57.751H67.8275L93.0025 57.5996C94.9391 57.5942 96.6293 56.2706 97.1189 54.3758C98.1595 50.357 98.5526 46.1946 98.283 42.0493Z" fill="#FE7058"/>
<path d="M55.4787 49.7494L80.0113 49.6013C80.4503 49.5987 80.8083 49.9564 80.8109 50.4002L80.8358 54.6242C80.8384 55.0681 80.4846 55.4301 80.0458 55.4327L55.5132 55.5808C55.0742 55.5834 54.7162 55.2257 54.7136 54.7819L54.6887 50.5579C54.6861 50.114 55.0399 49.752 55.4787 49.7494Z" fill="#3A556A"/>
<path d="M85.9137 18.7274C85.6575 18.1634 85.1051 17.797 84.4913 17.7844L67.7164 17.4364H67.6637L50.8937 17.9868C50.2805 18.0071 49.7326 18.3799 49.4833 18.9467L44.6712 29.8917L67.7347 29.7524H67.7875L90.8542 29.6132L85.9137 18.7274Z" fill="#2F4859"/>
<path d="M91.374 48.8876C89.757 48.8971 88.4537 50.2301 88.4631 51.8652C88.4725 53.5004 89.7908 54.8182 91.4078 54.8087C93.0248 54.7992 94.3281 53.4662 94.3187 51.8311C94.3187 51.8306 94.3187 51.8301 94.3187 51.8296C94.3085 50.1951 92.9904 48.8781 91.374 48.8876Z" fill="#EBF0F3"/>
<path d="M44.3601 49.1717C42.743 49.1815 41.4401 50.5151 41.45 52.1502C41.4597 53.7853 42.7785 55.1028 44.3955 55.0929C46.0125 55.083 47.3153 53.7495 47.3056 52.1145C47.2957 50.4794 45.9771 49.1619 44.3601 49.1717Z" fill="#EBF0F3"/>
<path d="M56.7614 42.2403H78.1145V44.9356H56.7614V42.2403Z" fill="#3A556A"/>
<path d="M95.4825 38.0025C95.4119 37.3717 94.8489 36.9183 94.2253 36.9898C94.1768 36.9954 94.1285 37.0041 94.081 37.016L84.3161 39.4303C84.0229 39.5032 83.7703 39.691 83.6141 39.9523L81.6796 43.1898C81.3557 43.7324 81.5279 44.4378 82.0644 44.7656C82.2415 44.8737 82.4444 44.9308 82.6512 44.9308H92.1919C92.4151 44.9325 92.6337 44.868 92.8211 44.7454C95.0718 43.2383 95.7761 40.8904 95.4825 38.0025Z" fill="#E1E6E9"/>
<path d="M90.8546 38.9186C89.674 38.9674 88.756 39.9748 88.8044 41.1687C88.8526 42.3625 89.8489 43.2907 91.0295 43.2418C92.2099 43.1931 93.1279 42.1859 93.0798 40.9921C93.0311 39.7984 92.0352 38.8702 90.8546 38.9186Z" fill="#BDBEC1"/>
<path d="M86.3218 40.9833C85.4239 41.0198 84.7252 41.7855 84.7613 42.6935C84.7973 43.6015 85.5546 44.308 86.4525 44.2715C87.3505 44.235 88.0492 43.4693 88.0131 42.5613C88.0131 42.5608 88.0131 42.5605 88.0131 42.56C87.9764 41.6525 87.2194 40.9468 86.3218 40.9833Z" fill="#BDBEC1"/>
<path d="M39.9634 38.0025C40.0339 37.3717 40.5969 36.9183 41.2205 36.9898C41.2691 36.9954 41.3173 37.0041 41.3649 37.016L51.1298 39.4303C51.423 39.5032 51.6756 39.691 51.8317 39.9523L53.7662 43.1898C54.0902 43.7324 53.918 44.4378 53.3814 44.7656C53.2044 44.8737 53.0015 44.9308 52.7947 44.9308H43.2539C43.0308 44.9325 42.8121 44.868 42.6248 44.7454C40.3739 43.2383 39.6697 40.8904 39.9634 38.0025Z" fill="#E1E6E9"/>
<path d="M44.5913 38.9186C45.7719 38.9674 46.6899 39.9748 46.6415 41.1687C46.5933 42.3625 45.597 43.2907 44.4164 43.2418C43.236 43.1931 42.318 42.1859 42.366 40.9921C42.4147 39.7984 43.4107 38.8702 44.5913 38.9186Z" fill="#BDBEC1"/>
<path d="M49.1241 40.9833C50.022 41.0198 50.7207 41.7855 50.6846 42.6935C50.6485 43.6015 49.8912 44.308 48.9933 44.2715C48.0954 44.235 47.3967 43.4693 47.4328 42.5613C47.4328 42.5608 47.4328 42.5605 47.4328 42.56C47.4695 41.6525 48.2265 40.9468 49.1241 40.9833Z" fill="#BDBEC1"/>
</g>
<defs>
<radialGradient id="paint0_radial" cx="0" cy="0" r="1" gradientUnits="userSpaceOnUse" gradientTransform="translate(65.9995 145.775) scale(31.0218 4.22498)">
<stop stop-color="#D5D1CB"/>
<stop offset="0.0591398" stop-color="#D5D1CB"/>
<stop offset="1" stop-color="white"/>
</radialGradient>
<clipPath id="clip0">
<rect width="64.516" height="65.2384" fill="white" transform="translate(35.4649 6.8407)"/>
</clipPath>
</defs>
</svg>
