<svg width="20" height="20" viewBox="0 0 20 20" fill="none" xmlns="http://www.w3.org/2000/svg">
<path d="M10 17.5C14.1421 17.5 17.5 14.1421 17.5 10C17.5 5.85786 14.1421 2.5 10 2.5C5.85786 2.5 2.5 5.85786 2.5 10C2.5 14.1421 5.85786 17.5 10 17.5Z" fill="#F2994A" fill-opacity="0.6"/>
<path d="M10 14.1667V14.1751" stroke="white" stroke-width="2" stroke-linecap="round" stroke-linejoin="round"/>
<path d="M10.0001 11.25C9.98473 10.9795 10.0577 10.7113 10.208 10.4858C10.3583 10.2604 10.5778 10.0899 10.8334 9.99998C11.1466 9.88019 11.4278 9.68934 11.6547 9.44244C11.8816 9.19554 12.0482 8.89933 12.1412 8.57713C12.2342 8.25494 12.2511 7.91555 12.1907 7.5857C12.1302 7.25584 11.994 6.94452 11.7928 6.67624C11.5916 6.40796 11.3309 6.19005 11.0312 6.03966C10.7314 5.88927 10.4009 5.81051 10.0655 5.80958C9.73016 5.80865 9.39918 5.88557 9.09861 6.0343C8.79804 6.18302 8.5361 6.39948 8.3334 6.66664" stroke="white" stroke-width="2" stroke-linecap="round" stroke-linejoin="round"/>
</svg>
