<svg width="23" height="13" viewBox="0 0 23 13" fill="none" xmlns="http://www.w3.org/2000/svg">
<path fill-rule="evenodd" clip-rule="evenodd" d="M11.4169 11.4475C10.2695 12.4156 8.78122 13 7.15494 13C3.5259 13 0.583984 10.0899 0.583984 6.5C0.583984 2.91015 3.5259 0 7.15494 0C8.78122 0 10.2695 0.584412 11.4169 1.55251C12.5643 0.584412 14.0526 0 15.6788 0C19.3079 0 22.2498 2.91015 22.2498 6.5C22.2498 10.0899 19.3079 13 15.6788 13C14.0526 13 12.5643 12.4156 11.4169 11.4475Z" fill="#ED0006"/>
<path fill-rule="evenodd" clip-rule="evenodd" d="M11.418 11.4473C12.8309 10.2551 13.7268 8.48103 13.7268 6.5C13.7268 4.51897 12.8309 2.74492 11.418 1.5527C12.5654 0.584487 14.0538 0 15.6801 0C19.3092 0 22.2511 2.91015 22.2511 6.5C22.2511 10.0899 19.3092 13 15.6801 13C14.0538 13 12.5654 12.4155 11.418 11.4473Z" fill="#F9A000"/>
<path fill-rule="evenodd" clip-rule="evenodd" d="M11.4177 11.4467C12.8303 10.2545 13.726 8.48059 13.726 6.49977C13.726 4.51895 12.8303 2.74507 11.4177 1.55286C10.0051 2.74507 9.10938 4.51895 9.10938 6.49977C9.10938 8.48059 10.0051 10.2545 11.4177 11.4467Z" fill="#FF5E00"/>
</svg>
