<svg width="20" height="21" viewBox="0 0 20 21" fill="none" xmlns="http://www.w3.org/2000/svg">
<path fill-rule="evenodd" clip-rule="evenodd" d="M1.14258 9.28989C1.14258 13.4795 4.63502 16.8962 8.95899 16.8962C9.48971 16.8962 10.0204 16.8508 10.6302 16.7985C11.3103 16.7403 12.0887 16.6736 13.0751 16.6522C14.5718 16.6522 16.1933 17.1809 17.9811 18.7266C18.1474 18.8893 18.3969 18.6859 18.2306 18.4826C16.4428 16.3268 14.8213 15.92 13.1998 15.5539C11.2041 15.1065 10.1647 14.0489 9.45791 12.8287C9.33318 12.5846 9.25003 12.6253 9.25003 12.9507C9.20845 13.4388 9.25003 13.8862 9.33318 14.3337H9.08372C6.25651 14.3337 3.92822 12.0558 3.92822 9.28989C3.92822 6.52395 6.25651 4.24612 9.08372 4.24612C11.9109 4.24612 14.2392 6.52395 14.2392 9.28989C14.2392 9.45259 14.2392 9.65597 14.1977 9.85935C13.7819 9.778 13.0751 9.778 12.5346 9.81867C12.3267 9.81867 12.3267 9.90002 12.493 9.9407C14.1561 10.2661 15.3202 11.283 15.6113 13.1541C15.6113 13.2354 15.6528 13.2354 15.6944 13.1947C16.3596 12.0558 16.7754 10.7135 16.7754 9.28989C16.7754 5.05963 13.283 1.64288 8.95899 1.64288C4.63502 1.64288 1.14258 5.10031 1.14258 9.28989ZM14.6133 12.4219C14.9043 12.544 15.029 12.9507 15.029 13.1541C15.0706 13.4795 14.9875 13.6422 14.8627 13.6422C14.738 13.6422 14.5717 13.5202 14.4054 13.2354C14.2391 12.9507 14.1559 12.666 14.2391 12.5033C14.3638 12.4219 14.4885 12.3813 14.6133 12.4219ZM12.9089 13.6829C13.0752 13.6829 13.2831 13.7642 13.491 13.9269C13.8236 14.2116 13.9483 14.5371 13.782 14.7811C13.6988 14.9031 13.491 14.9845 13.3247 14.9845C13.1168 14.9845 12.9089 14.9031 12.7842 14.7811C12.4515 14.4964 12.3684 14.0896 12.5763 13.8456C12.6179 13.7642 12.7426 13.6829 12.9089 13.6829Z" fill="#F28A1A"/>
</svg>
