<svg width="20" height="21" viewBox="0 0 20 21" fill="none" xmlns="http://www.w3.org/2000/svg">
<path fill-rule="evenodd" clip-rule="evenodd" d="M10.2541 1.64288C11.5949 1.64288 12.8647 1.95629 13.9956 2.51271C14.1733 2.59729 14.3504 2.69035 14.5281 2.79309L13.742 3.49929L12.5609 2.27351L10.5675 4.05814L9.38352 2.76109L5.67023 6.12072L8.05081 8.75407L7.11529 9.57997L9.46002 12.2173L8.53002 13.0413L11.8806 16.7847L13.8695 14.9468L15.589 16.9164C15.247 17.1832 14.8744 17.4344 14.464 17.6665C13.2205 18.3782 11.7834 18.7857 10.2541 18.7857C5.55082 18.7857 1.71484 14.9349 1.71484 10.2146C1.71484 5.49321 5.55082 1.64288 10.2541 1.64288ZM8.69726 9.67271L10.7279 7.83723L12.5563 9.87594L10.5259 11.7107L8.69726 9.67271ZM12.1725 11.3596L10.1418 13.1945L11.9706 15.2333L14.0012 13.3978L12.1725 11.3596ZM7.24444 6.19202L9.27504 4.35706L11.103 6.39525L9.07239 8.23022L7.24444 6.19202ZM12.4939 3.82818L10.9709 5.20427L12.3421 6.73344L13.865 5.35682L12.4939 3.82818ZM13.6768 11.5084L15.2003 10.1318L16.5714 11.6608L15.0485 13.0371L13.6768 11.5084ZM16.5396 13.2194L15.017 14.5961L16.3881 16.1243L17.911 14.748L16.5396 13.2194ZM15.6301 7.51946L16.6454 6.60189L17.5593 7.62099L16.5446 8.53838L15.6301 7.51946ZM15.348 3.57408L14.3327 4.49148L15.2467 5.51057L16.2622 4.59318L15.348 3.57408ZM16.928 10.5473L17.9433 9.62971L18.8574 10.6486L17.8421 11.5662L16.928 10.5473ZM13.8976 6.90163L12.3749 8.27841L13.7463 9.80653L15.2688 8.43027L13.8976 6.90163Z" fill="#0068A3"/>
</svg>
