<svg width="20" height="20" viewBox="0 0 20 20" fill="none" xmlns="http://www.w3.org/2000/svg">
<path d="M7.49967 5.83331H4.99967C4.55765 5.83331 4.13372 6.00891 3.82116 6.32147C3.5086 6.63403 3.33301 7.05795 3.33301 7.49998V15C3.33301 15.442 3.5086 15.8659 3.82116 16.1785C4.13372 16.4911 4.55765 16.6666 4.99967 16.6666H12.4997C12.9417 16.6666 13.3656 16.4911 13.6782 16.1785C13.9907 15.8659 14.1663 15.442 14.1663 15V12.5" stroke="#5199FF" stroke-width="1.5" stroke-linecap="round" stroke-linejoin="round"/>
<path d="M7.5 12.5H10L17.0833 5.41666C17.4149 5.08514 17.6011 4.6355 17.6011 4.16666C17.6011 3.69782 17.4149 3.24818 17.0833 2.91666C16.7518 2.58514 16.3022 2.3989 15.8333 2.3989C15.3645 2.3989 14.9149 2.58514 14.5833 2.91666L7.5 10V12.5Z" stroke="#5199FF" stroke-width="1.5" stroke-linecap="round" stroke-linejoin="round"/>
<path d="M13.333 4.16666L15.833 6.66666" stroke="#5199FF" stroke-width="1.5" stroke-linecap="round" stroke-linejoin="round"/>
</svg>
