<svg width="20" height="20" viewBox="0 0 20 20" fill="none" xmlns="http://www.w3.org/2000/svg">
<path d="M10 0C4.47686 0 0 4.47686 0 10C0 15.5231 4.47686 20 10 20C15.5231 20 20 15.5225 20 10C20 4.47752 15.5231 0 10 0ZM15.3343 8.04938L10.5488 12.835C10.3988 12.985 10.1938 13.0312 9.99938 12.9975C9.80562 13.0319 9.6 12.985 9.45 12.835L4.66438 8.04938C4.42 7.805 4.42 7.41 4.66438 7.16562C4.90876 6.92124 5.30438 6.92124 5.5481 7.16562L10 11.6162L14.4506 7.16562C14.695 6.92124 15.0906 6.92124 15.3343 7.16562C15.5788 7.40938 15.5788 7.805 15.3343 8.04938Z" fill="#79C930" fill-opacity="0.5"/>
</svg>
