<svg width="50" height="50" viewBox="0 0 50 50" fill="none" xmlns="http://www.w3.org/2000/svg">
<g clip-path="url(#clip0)">
<path d="M51.7449 20.3975L30.2991 -0.969261C30.0976 -1.16947 29.8245 -1.28175 29.5399 -1.28125H1.6603C1.06809 -1.28225 0.587167 -0.804804 0.586061 -0.214782C0.585559 0.069663 0.698954 0.34259 0.901114 0.543504L50.2265 49.687C50.428 49.8872 50.7011 49.9995 50.9857 49.999C51.1263 49.9989 51.2655 49.9714 51.3954 49.9178C51.7964 49.7526 52.0579 49.363 52.058 48.9306V21.1539C52.0585 20.8704 51.946 20.5982 51.7449 20.3975Z" fill="#FFAD32"/>
<path d="M23.1066 15.8121C22.5144 15.8122 22.0342 15.3341 22.0341 14.7441C22.0341 14.6722 22.0413 14.6005 22.0558 14.5301L23.5055 7.30604L19.5766 11.2269C19.1506 11.6368 18.4718 11.625 18.0603 11.2006C17.659 10.7866 17.659 10.1302 18.0603 9.7163L24.4941 3.30629C24.9128 2.88904 25.5917 2.88894 26.0105 3.30609C26.2638 3.55838 26.374 3.91995 26.3041 4.26989L24.8544 11.494L28.7854 7.57956C29.1968 7.1552 29.8756 7.14338 30.3017 7.55332C30.7277 7.96326 30.7395 8.63952 30.328 9.06398C30.3194 9.0729 30.3106 9.08161 30.3017 9.09022L23.8679 15.5002C23.6659 15.701 23.3919 15.8132 23.1066 15.8121Z" fill="#FAFAFA"/>
<path d="M29.5402 22.222C29.2556 22.2225 28.9825 22.1103 28.781 21.91L25.5642 18.705C25.1456 18.2879 25.1456 17.6116 25.5642 17.1944L31.9979 10.7843C32.4166 10.3673 33.0954 10.3673 33.5142 10.7843L36.731 13.9894C37.157 14.3993 37.1687 15.0756 36.7574 15.5C36.3459 15.9244 35.6672 15.9361 35.2411 15.5263C35.2322 15.5176 35.2234 15.5089 35.2148 15.5L32.7571 13.0493L27.8396 17.9486L30.2973 20.3973C30.7166 20.8139 30.7174 21.4904 30.2992 21.9081C30.098 22.109 29.825 22.222 29.5402 22.222Z" fill="#FAFAFA"/>
<path d="M31.6849 17.9489C31.4003 17.9494 31.1272 17.8372 30.9257 17.6369L28.7812 15.5003C28.3698 15.0759 28.3816 14.3996 28.8075 13.9896C29.2231 13.5898 29.8819 13.5898 30.2973 13.9896L32.4419 16.1263C32.86 16.5441 32.859 17.2206 32.4395 17.6371C32.2392 17.8362 31.9679 17.9482 31.6849 17.9489Z" fill="#FAFAFA"/>
<path d="M38.1187 30.769C37.5265 30.7686 37.0467 30.2898 37.0471 29.6998C37.0472 29.5853 37.0657 29.4717 37.1021 29.363L38.569 24.9806L34.1704 26.4421C33.7587 26.5752 33.3069 26.4517 33.0209 26.128C32.7373 25.8014 32.6789 25.3369 32.8729 24.9507L37.1621 16.404C37.4268 15.876 38.0711 15.6617 38.6012 15.9254C39.1313 16.1891 39.3463 16.831 39.0816 17.3591L35.9505 23.5982L39.9287 22.2777C40.3144 22.1521 40.7382 22.252 41.0267 22.5362C41.3143 22.8224 41.4149 23.246 41.2862 23.6302L39.9608 27.5916L46.223 24.472C46.753 24.2083 47.3973 24.4226 47.6621 24.9507C47.9267 25.4787 47.7117 26.1206 47.1816 26.3844L38.6034 30.6578C38.4528 30.7322 38.2867 30.7703 38.1187 30.769Z" fill="#FAFAFA"/>
</g>
<defs>
<clipPath id="clip0">
<rect width="50" height="50" fill="white"/>
</clipPath>
</defs>
</svg>
