<svg width="166" height="40" viewBox="0 0 166 40" fill="none" xmlns="http://www.w3.org/2000/svg">
<path d="M114.545 2.87254L114.372 3.04645V3.98199C114.372 4.87554 114.378 4.91752 114.515 5.07944C114.653 5.23536 114.689 5.24735 115.24 5.26535C115.892 5.28933 116.06 5.26535 116.227 5.09743C116.335 4.98948 116.347 4.89353 116.347 3.99998C116.341 2.72262 116.323 2.69863 115.329 2.69863C114.737 2.69863 114.719 2.70463 114.545 2.87254Z" fill="#E94A4D"/>
<path d="M118.82 2.84255L118.652 2.98648L118.634 3.946C118.616 4.88753 118.616 4.90552 118.76 5.07344C118.904 5.24135 118.934 5.24735 119.532 5.26534C119.88 5.27734 120.221 5.25935 120.317 5.22336C120.58 5.12141 120.658 4.85155 120.658 3.99998C120.658 2.80057 120.574 2.69863 119.586 2.69863C119.041 2.69863 118.976 2.71062 118.82 2.84255Z" fill="#E94A4D"/>
<path d="M22.5619 6.66267C22.017 6.73463 21.1489 6.96851 20.7119 7.16042C19.3888 7.74812 18.5087 8.94153 18.0477 10.7766C17.473 13.0795 17.4849 17.3433 18.0776 19.6822C18.8559 22.7766 20.9155 23.97 25.0584 23.7421C26.9383 23.6402 28.1058 23.2084 29.0337 22.2849C30.2132 21.1034 30.734 19.2624 30.8298 15.922C30.8897 13.949 30.734 11.988 30.4047 10.7106C30.1054 9.51724 29.6803 8.71364 28.9978 8.02398C28.6147 7.64617 28.435 7.52024 27.9142 7.26237C26.8545 6.75262 25.9684 6.5967 24.1783 6.6027C23.5198 6.60869 22.7954 6.63868 22.5619 6.66267ZM25.6751 8.83958C26.8665 9.16941 27.5969 9.96102 27.9741 11.3343C28.2435 12.3058 28.3093 13.0375 28.3093 15.1724C28.3093 16.7736 28.2854 17.3253 28.2016 17.8711C27.8783 20.054 27.1598 21.0915 25.705 21.5052C25.1841 21.6552 23.6814 21.6852 23.0648 21.5652C20.8077 21.1214 20.0653 19.3403 20.1551 14.6387C20.197 12.4258 20.3826 11.3163 20.8616 10.3628C21.2507 9.5892 22.041 8.9895 22.8911 8.82159C23.0708 8.7856 23.2743 8.74362 23.3402 8.73163C23.6275 8.66566 25.3278 8.74362 25.6751 8.83958Z" fill="#E94A4D"/>
<path d="M5.43922 6.69265C4.65493 6.72863 3.05642 6.84258 2.91273 6.87856L2.77503 6.90854V15.1784V23.4483H3.97242H5.16981V20.2039V16.9535L5.57692 16.9895C7.85794 17.1994 9.97732 17.1934 10.9711 16.9775C12.3302 16.6837 13.1863 15.976 13.5815 14.8066C14.0185 13.5292 14.0844 11.0405 13.7311 9.53523C13.4258 8.27586 12.7373 7.46626 11.6058 7.05847C10.7676 6.75862 10.2288 6.70464 7.98367 6.68665C6.84615 6.68066 5.70264 6.68066 5.43922 6.69265ZM9.83962 8.82758C10.7975 9.08545 11.1927 9.49325 11.4381 10.4768C11.5818 11.0465 11.5818 12.7616 11.4381 13.3313C11.2525 14.081 10.9412 14.5247 10.4084 14.7826C9.85159 15.0585 9.3427 15.1064 7.16346 15.1124H5.16981V11.94V8.76162L5.33744 8.73763C5.42725 8.71964 6.40312 8.71364 7.50471 8.72563C9.03737 8.73763 9.58817 8.76162 9.83962 8.82758Z" fill="#E94A4D"/>
<path d="M35.5236 15.1724V23.4483H36.721H37.9184V19.5502V15.6522H41.5405H45.1625V19.5502V23.4483H46.3599H47.5573V15.1724V6.89655H46.3599H45.1625V10.2549V13.6132H41.5405H37.9184V10.2549V6.89655H36.721H35.5236V15.1724Z" fill="#E94A4D"/>
<path d="M54.6818 13.6611C54.6818 21.1334 54.6997 20.7616 54.3046 21.1694C53.9454 21.5412 53.682 21.6132 52.6642 21.6372L51.7602 21.6611L51.7003 22.027C51.5027 23.2204 51.4907 23.3403 51.5686 23.3883C51.6763 23.4542 52.2152 23.5562 52.8558 23.6282C55.1667 23.886 56.3461 23.2384 56.9089 21.3973L57.0466 20.9595L57.0646 13.925L57.0825 6.89653H55.8792H54.6818V13.6611Z" fill="#E94A4D"/>
<path d="M66.1767 6.93852C66.057 6.9805 65.8235 7.20239 65.7576 7.32233C65.7277 7.37631 64.5423 10.9805 63.1294 15.3343C61.7105 19.6941 60.531 23.2983 60.5131 23.3523C60.4771 23.4363 60.6029 23.4483 61.6985 23.4483H62.9198L63.5724 21.3313C63.9256 20.1739 64.2729 19.0525 64.3327 18.8426L64.4465 18.4708H67.7632H71.08L71.1938 18.8426C71.2536 19.0525 71.6009 20.1739 71.9541 21.3313L72.6067 23.4483H73.822C74.4926 23.4483 75.0374 23.4303 75.0374 23.4003C75.0374 23.3763 73.852 19.7481 72.4091 15.3283C70.0503 8.11394 69.7629 7.28635 69.5952 7.11244L69.4097 6.92653L67.8351 6.91454C66.973 6.90854 66.2246 6.92053 66.1767 6.93852ZM68.2901 9.36731C68.4098 9.73913 68.9247 11.4303 69.4396 13.1214C69.9545 14.8186 70.3915 16.2399 70.4095 16.2879C70.4334 16.3598 70.0503 16.3718 67.7632 16.3718C65.584 16.3718 65.0931 16.3598 65.117 16.2938C65.1709 16.1559 67.0628 10.003 67.1945 9.53523C67.4579 8.61769 67.404 8.69565 67.7632 8.69565H68.0806L68.2901 9.36731Z" fill="#E94A4D"/>
<path d="M79.0127 6.95652C78.9468 6.98051 78.8151 7.08845 78.7313 7.1964L78.5697 7.3883V15.4183V23.4483H79.7371H80.9106L80.8926 16.3838C80.8806 12.4798 80.8507 9.27736 80.8208 9.21739C80.7729 9.12144 80.7908 9.10944 80.9585 9.12743C81.1441 9.14542 81.162 9.17541 81.3775 9.71514C81.5033 10.027 81.7008 10.4888 81.8146 10.7346C81.9343 10.9805 83.2455 13.8411 84.7302 17.0915C86.8915 21.8231 87.4722 23.0345 87.6399 23.2084L87.8494 23.4183H89.4599H91.0704L91.2261 23.2744C91.3099 23.1904 91.4057 23.0285 91.4416 22.9145C91.4775 22.7766 91.5015 19.8441 91.5015 14.7946V6.89655H90.334H89.1666L89.1725 13.4753C89.1725 17.0974 89.1965 20.2939 89.2144 20.5817L89.2564 21.1094H89.0588C88.9091 21.1094 88.8492 21.0795 88.8073 20.9595C88.7774 20.8816 88.5319 20.3478 88.2625 19.7781C87.9931 19.2084 86.6161 16.2039 85.2032 13.1094C83.7903 10.009 82.5689 7.38231 82.4791 7.26836C82.2157 6.92054 82.084 6.89655 80.5334 6.90255C79.7671 6.90255 79.0845 6.92653 79.0127 6.95652Z" fill="#E94A4D"/>
<path d="M95.3331 7.94602V8.9955H97.9374H100.542V16.2219V23.4483H101.739H102.936V16.2219V8.9955H105.571H108.205V7.94602V6.89655H101.769H95.3331V7.94602Z" fill="#E94A4D"/>
<path d="M115.826 6.9925C115.719 7.04647 115.593 7.14842 115.545 7.22639C115.467 7.34033 110.241 23.3043 110.241 23.4183C110.241 23.4363 110.785 23.4423 111.45 23.4363L112.659 23.4183L113.414 20.9595L114.168 18.5007L117.491 18.4828L120.813 18.4708L121.394 20.3718C121.718 21.4213 122.059 22.5427 122.161 22.8606L122.34 23.4483H123.573C124.573 23.4483 124.795 23.4363 124.771 23.3703C124.753 23.3223 123.561 19.6882 122.125 15.2864C120.688 10.8846 119.466 7.23838 119.413 7.17241C119.173 6.91454 119.059 6.89655 117.503 6.89655C116.275 6.89655 115.988 6.91454 115.826 6.9925ZM118.987 12.5337L120.161 16.3718H117.503C116.048 16.3718 114.85 16.3598 114.85 16.3358C114.85 16.3178 115.294 14.8726 115.832 13.1154C116.377 11.3583 116.892 9.66716 116.982 9.35532C117.066 9.04348 117.149 8.76761 117.167 8.73763C117.179 8.71364 117.335 8.69565 117.509 8.69565H117.82L118.987 12.5337Z" fill="#E94A4D"/>
<path d="M128.261 15.1724V23.4483H129.459H130.656V19.5502V15.6522H134.308H137.96V19.5502V23.4483H139.128H140.295V15.1724V6.89655H139.128H137.96L137.948 10.2369L137.93 13.5832L134.296 13.6012L130.656 13.6132V10.2549V6.89655H129.459H128.261V15.1724Z" fill="#E94A4D"/>
<path d="M144.127 7.94602V8.9955H146.731H149.335V16.2219V23.4483H150.563H151.79V16.2219V8.9955H154.394H156.999V7.94602V6.89655H150.563H144.127V7.94602Z" fill="#E94A4D"/>
<path d="M160.83 15.1724V23.4483H162.028H163.225V15.1724V6.89655H162.028H160.83V15.1724Z" fill="#E94A4D"/>
<path d="M18.9996 32.3538V35.8621H19.4786H19.9575L19.9695 34.1109L19.9875 32.3538L20.6281 32.03C21.137 31.7721 21.3405 31.7061 21.6459 31.6822C21.9931 31.6522 22.047 31.6642 22.2086 31.8021L22.3823 31.952L22.4002 33.907L22.4182 35.8621H22.8971H23.3701V33.8231C23.3701 31.6342 23.3581 31.5202 23.0528 31.1964C22.6038 30.7166 21.6698 30.7106 20.7239 31.1904C20.5143 31.2923 20.2749 31.4303 20.185 31.4902C20.1012 31.5562 20.0114 31.6042 19.9875 31.6042C19.9635 31.6042 19.9516 31.3703 19.9635 31.0765C19.9755 30.7886 19.9755 30.1709 19.9695 29.6971L19.9575 28.8456H19.4786H18.9996V32.3538Z" fill="black"/>
<path d="M33.7634 28.9415C33.6377 29.0675 33.6317 29.8171 33.7514 29.919C33.8053 29.961 33.9968 29.985 34.2482 29.973L34.6551 29.955L34.6731 29.4753C34.6851 29.0795 34.6731 28.9835 34.5893 28.9235C34.4337 28.8096 33.8771 28.8216 33.7634 28.9415Z" fill="black"/>
<path d="M54.8614 32.3538V35.8621H55.3404H55.8193V34.6627V33.4633H56.1067H56.3941L57.1963 34.6627L58.0045 35.8561L58.5613 35.8621C58.8607 35.8621 59.1121 35.8501 59.1121 35.8261C59.1121 35.7901 57.6274 33.6732 57.3579 33.3253C57.1843 33.1034 57.1843 33.1034 57.3041 32.9955C57.4238 32.8935 58.8667 31.1664 58.9565 31.0165C58.9864 30.9625 58.8726 30.9445 58.4356 30.9445H57.8788L57.1424 31.8441L56.412 32.7436H56.1067H55.8013L55.8433 32.2579C55.8672 31.994 55.8672 31.1184 55.8433 30.3088L55.8013 28.8456H55.3344H54.8614V32.3538Z" fill="black"/>
<path d="M65.8175 32.3538V35.8621H66.2964H66.7814L66.7754 34.6747L66.7634 33.4932L67.0568 33.4813L67.3442 33.4633L68.1464 34.6627L68.9487 35.8621H69.5114C69.9485 35.8621 70.0622 35.8441 70.0323 35.7841C69.8706 35.5202 68.4038 33.4573 68.2602 33.3073C68.0985 33.1334 68.0925 33.1154 68.1883 33.0375C68.2482 32.9895 68.6313 32.5457 69.0385 32.054C69.4516 31.5562 69.8287 31.1064 69.8766 31.0465C69.9604 30.9505 69.9365 30.9445 69.3917 30.9445H68.8169L68.0805 31.8441L67.3442 32.7436H67.0448H66.7455L66.7634 30.7946L66.7814 28.8456H66.2964H65.8175V32.3538Z" fill="black"/>
<path d="M76.8693 28.9235C76.7856 28.9835 76.7736 29.0795 76.7856 29.4753L76.8035 29.955L77.2105 29.973C77.4618 29.985 77.6534 29.961 77.7072 29.919C77.8269 29.8171 77.8209 29.0675 77.6953 28.9415C77.5815 28.8216 77.025 28.8096 76.8693 28.9235Z" fill="black"/>
<path d="M109.582 32.3538V35.8621H110.103H110.618L110.582 34.6627L110.552 33.4633H110.839H111.127L111.923 34.6627L112.725 35.8561L113.306 35.8621H113.887L113.013 34.6147C112.534 33.931 112.091 33.3193 112.037 33.2594C111.929 33.1514 111.953 33.1154 112.821 32.078C113.312 31.4902 113.713 30.9925 113.713 30.9745C113.713 30.9565 113.462 30.9445 113.156 30.9445H112.605L111.869 31.8441L111.133 32.7436H110.851H110.57L110.588 30.7946L110.612 28.8456H110.097H109.582V32.3538Z" fill="black"/>
<path d="M146.462 32.3538V35.8621H146.94H147.419L147.431 34.1049L147.449 32.3538L148.096 32.024C148.695 31.7181 148.778 31.6941 149.156 31.6941C149.862 31.6941 149.868 31.7301 149.874 34.1049V35.8621H150.353H150.832V33.8771C150.832 32.4798 150.808 31.8141 150.76 31.6402C150.593 31.0825 150.006 30.7706 149.269 30.8486C148.701 30.9025 148.252 31.0944 147.509 31.5802C147.39 31.6582 147.39 31.6462 147.407 30.2549L147.425 28.8456H146.946H146.462V32.3538Z" fill="black"/>
<path d="M156.316 28.9415C156.214 29.0435 156.178 29.7691 156.274 29.913C156.304 29.967 156.448 29.985 156.765 29.973L157.208 29.955L157.226 29.4753C157.238 29.0795 157.226 28.9835 157.142 28.9235C156.986 28.8096 156.43 28.8216 156.316 28.9415Z" fill="black"/>
<path d="M16.4252 32.3838V35.8621H16.904H17.3828V32.3838V28.9055H16.904H16.4252V32.3838Z" fill="black"/>
<path d="M159.645 29.0375C159.543 29.1394 159.549 29.8891 159.657 29.979C159.705 30.021 159.878 30.045 160.064 30.033L160.381 30.015V29.5052V28.9955L160.052 28.9775C159.848 28.9655 159.693 28.9895 159.645 29.0375Z" fill="black"/>
<path d="M161.411 29.0015C161.339 29.0735 161.363 29.895 161.441 29.973C161.543 30.075 162.057 30.063 162.141 29.961C162.183 29.907 162.207 29.7091 162.195 29.4333L162.177 28.9955L161.818 28.9775C161.614 28.9655 161.435 28.9775 161.411 29.0015Z" fill="black"/>
<path d="M126.705 30.2189C126.705 31.0285 126.729 31.0045 126.124 31.0045H125.807V31.3643V31.7241H126.256H126.705V33.3253C126.705 34.3148 126.729 35.0225 126.77 35.1724C126.86 35.4902 127.208 35.8321 127.543 35.922C127.812 35.994 128.662 35.97 128.98 35.874C129.129 35.8321 129.129 35.8261 129.081 35.4543L129.028 35.0824H128.561C128.028 35.0824 127.824 35.0165 127.728 34.8006C127.687 34.7106 127.663 34.1349 127.663 33.1934V31.7241H128.411H129.159V31.3343V30.9445H128.411H127.663V30.2249V29.5052H127.184H126.705V30.2189Z" fill="black"/>
<path d="M152.688 30.2189C152.688 31.0285 152.712 31.0045 152.107 31.0045H151.79V31.3643V31.7241H152.233H152.682L152.7 33.4153C152.718 35.0465 152.724 35.1244 152.856 35.3643C152.927 35.5082 153.101 35.6942 153.239 35.7841C153.466 35.934 153.538 35.952 154.029 35.952C154.328 35.952 154.706 35.928 154.861 35.9041L155.149 35.8561L155.113 35.5742C155.041 35.0705 155.077 35.0945 154.484 35.0705C153.646 35.0405 153.682 35.1184 153.658 33.2534L153.634 31.7241H154.418H155.202V31.3343V30.9445H154.424H153.646V30.2249V29.5052H153.167H152.688V30.2189Z" fill="black"/>
<path d="M27.1 30.9145C26.6988 31.0225 26.3995 31.1784 26.0403 31.4483C25.8906 31.5682 25.7529 31.6642 25.7349 31.6642C25.723 31.6642 25.705 31.5082 25.693 31.3163L25.6751 30.9745L25.2739 30.9565L24.8668 30.9385V33.4033V35.8621H25.3458H25.8247V34.1229V32.3898L26.1959 32.1379C26.8246 31.7061 27.3454 31.5682 27.7106 31.7361C28.0279 31.8801 28.0399 31.982 28.0399 34.003V35.8621H28.5189H28.9978V34.1229V32.3838L29.4528 32.0839C30.0934 31.6642 30.5425 31.5622 30.9077 31.7481C31.201 31.904 31.213 32.006 31.213 34.003V35.8621H31.6919H32.1709V33.8051C32.1709 31.946 32.1589 31.7301 32.0571 31.5142C31.65 30.6087 30.3149 30.5967 29.1655 31.4962C28.9559 31.6582 28.9439 31.6642 28.908 31.5442C28.8482 31.3643 28.5907 31.0705 28.3872 30.9685C28.1297 30.8366 27.4712 30.8066 27.1 30.9145Z" fill="black"/>
<path d="M37.0143 30.8846C36.6371 30.9505 36.3258 31.1064 36.1881 31.2984C35.8648 31.7541 35.8648 32.6597 36.1941 33.1214C36.3617 33.3613 36.7689 33.5412 37.5591 33.7331C38.6428 33.997 38.984 34.1109 39.0858 34.2609C39.1996 34.4228 39.1996 34.7166 39.0858 34.8846C38.9182 35.1244 38.6308 35.1664 37.3436 35.1604C35.9846 35.1484 36.0624 35.1184 36.0624 35.6342C36.0624 35.8501 36.0684 35.8561 36.3498 35.9041C36.5054 35.928 37.1999 35.952 37.8884 35.952H39.1457L39.5049 35.7721C39.7743 35.6342 39.8881 35.5382 39.9719 35.3643C40.1156 35.0825 40.1694 34.4228 40.0796 34.081C39.9359 33.5412 39.6007 33.3373 38.3973 33.0435C37.0203 32.7017 36.9006 32.6357 36.9006 32.1919C36.9006 31.91 37.0502 31.7481 37.3556 31.6882C37.4753 31.6642 38.098 31.6582 38.7326 31.6762C40.0437 31.7121 39.918 31.7541 39.9659 31.2324C39.9958 30.9685 40.0258 30.9745 38.9361 30.8846C38.1459 30.8186 37.4154 30.8186 37.0143 30.8846Z" fill="black"/>
<path d="M42.5882 30.9085C41.9296 31.0465 41.4447 31.4782 41.265 32.0839C41.1393 32.5337 41.0795 33.4213 41.1453 34.033C41.2531 35.0225 41.6123 35.5922 42.2828 35.8381C42.8336 36.036 44.6058 36.012 45.2284 35.7901C45.414 35.7241 45.414 35.7181 45.3841 35.4243C45.3601 35.2624 45.3362 35.1124 45.3182 35.1004C45.3062 35.0824 44.9231 35.1064 44.4681 35.1424C43.5401 35.2204 43.0911 35.1904 42.7318 35.0165C42.4445 34.8845 42.2469 34.5667 42.193 34.1589L42.1511 33.883H43.4144C44.1627 33.883 44.7435 33.8591 44.8452 33.8171C45.3062 33.6432 45.5158 33.2294 45.5218 32.4977C45.5218 32.042 45.4978 31.934 45.3541 31.6582C45.2344 31.4303 45.1087 31.2863 44.9171 31.1724C44.4202 30.8606 43.3545 30.7406 42.5882 30.9085ZM44.049 31.7421C44.3902 31.8441 44.5339 32.072 44.5339 32.5037C44.5339 32.7916 44.51 32.8875 44.3962 32.9955C44.2645 33.1274 44.2226 33.1334 43.1988 33.1334H42.1391L42.1571 32.8636C42.199 32.2279 42.3846 31.898 42.7977 31.7541C43.0851 31.6522 43.7257 31.6462 44.049 31.7421Z" fill="black"/>
<path d="M49.2037 30.9025C48.8026 31.0105 48.4135 31.1904 48.0363 31.4423C47.8567 31.5622 47.695 31.6462 47.6651 31.6282C47.6412 31.6102 47.6172 31.4483 47.6172 31.2684V30.9445H47.1981H46.779V33.4033V35.8621H47.258H47.7369L47.7489 34.1109L47.7669 32.3598L48.4015 32.036C49.3654 31.5442 49.9461 31.5442 50.1138 32.024C50.1617 32.1679 50.1856 32.8096 50.1856 34.045L50.1916 35.8621H50.6705H51.1495V33.8651C51.1495 32.6837 51.1256 31.7841 51.0896 31.6522C51.0118 31.3823 50.7783 31.0944 50.5388 30.9685C50.2934 30.8426 49.5749 30.8066 49.2037 30.9025Z" fill="black"/>
<path d="M61.4171 30.8905C60.6867 31.0105 60.1898 31.4543 59.9683 32.1979C59.8246 32.6716 59.8186 34.1949 59.9623 34.6627C60.2616 35.6282 60.8723 35.994 62.1954 35.994C63.0036 35.994 63.4167 35.892 63.7939 35.6042C64.3088 35.2144 64.5004 34.6267 64.5004 33.4513C64.5004 32.0719 64.2489 31.4543 63.5365 31.0884C63.0635 30.8486 62.1595 30.7646 61.4171 30.8905ZM62.7342 31.7301C62.8659 31.7661 63.0575 31.886 63.1653 32C63.4287 32.2818 63.5005 32.6657 63.4706 33.6192C63.4527 34.3028 63.4287 34.4228 63.303 34.6627C63.1174 34.9925 62.836 35.1484 62.3271 35.1844C61.6326 35.2444 61.1836 35.0105 60.986 34.4947C60.8483 34.1409 60.8364 32.8695 60.9621 32.4318C61.0519 32.1079 61.2854 31.8501 61.5728 31.7481C61.8302 31.6522 62.4229 31.6462 62.7342 31.7301Z" fill="black"/>
<path d="M72.3492 30.8905C71.9062 30.9685 71.4572 31.2264 71.2237 31.5322C70.8944 31.964 70.8166 32.3358 70.8166 33.4333C70.8166 34.1769 70.8405 34.4708 70.9243 34.7346C71.1578 35.4902 71.6847 35.8861 72.5827 35.97C73.1575 36.03 73.9956 35.97 74.277 35.8561C75.1092 35.5262 75.4565 34.8066 75.4565 33.4333C75.4565 31.5922 74.8817 30.9085 73.3012 30.8546C72.9539 30.8426 72.5288 30.8546 72.3492 30.8905ZM73.8998 31.8201C74.2411 32.018 74.3908 32.3898 74.4267 33.1514C74.4866 34.4228 74.2471 34.9865 73.5885 35.1424C73.2054 35.2384 72.6486 35.1904 72.3612 35.0405C72.2055 34.9565 72.0858 34.8306 71.984 34.6267C71.8463 34.3568 71.8344 34.2789 71.8344 33.4633C71.8344 32.2699 71.9601 31.952 72.5049 31.7481C72.8342 31.6222 73.6364 31.6642 73.8998 31.8201Z" fill="black"/>
<path d="M81.8026 30.8905C81.5332 30.9445 80.731 31.3103 80.3837 31.5442L80.1921 31.6702L80.1502 31.3103L80.1083 30.9445H79.7012H79.2881V33.4033V35.8621H79.7671H80.246V34.1349V32.4078L80.7429 32.1319C81.5931 31.6522 82.1978 31.5442 82.5031 31.8081L82.6707 31.952L82.6887 33.907L82.7066 35.8621H83.1856H83.6586V33.8051C83.6586 31.946 83.6466 31.7301 83.5448 31.5142C83.2814 30.9325 82.6827 30.7166 81.8026 30.8905Z" fill="black"/>
<path d="M86.4125 30.9025C86.0234 30.9985 85.6522 31.1784 85.4726 31.3763C85.0894 31.7901 84.8799 32.7136 84.9398 33.7391C85.0116 35.0045 85.3768 35.6042 86.2329 35.868C86.6221 35.988 86.7538 35.994 87.6039 35.964C88.4062 35.934 89.0947 35.8321 89.2084 35.7241C89.2204 35.7061 89.2144 35.5562 89.1905 35.3883L89.1486 35.0824L88.514 35.1244C88.1667 35.1544 87.6518 35.1724 87.3705 35.1724C86.4964 35.1664 86.0892 34.8546 86.0054 34.1469L85.9755 33.883H87.2447C88.6038 33.883 88.7714 33.8531 89.0288 33.5772C89.3162 33.2593 89.4359 32.4498 89.2803 31.874C89.1785 31.5202 88.7415 31.1004 88.3284 30.9805C87.8913 30.8426 86.8376 30.8066 86.4125 30.9025ZM88.035 31.8201C88.2865 31.964 88.4122 32.2998 88.3583 32.6596C88.2924 33.1094 88.2266 33.1334 87.0172 33.1334H85.9635L85.9755 32.8396C85.9875 32.4917 86.1312 32.0779 86.2928 31.934C86.6161 31.6402 87.6159 31.5742 88.035 31.8201Z" fill="black"/>
<path d="M93.0281 30.9085C92.639 31.0045 92.2558 31.1784 91.8367 31.4483C91.6511 31.5682 91.4895 31.6642 91.4715 31.6642C91.4595 31.6642 91.4416 31.5082 91.4296 31.3163L91.4116 30.9745L91.0105 30.9565L90.6034 30.9385V33.4033V35.8621H91.0824H91.5613L91.5733 34.1109L91.5913 32.3598L92.2199 32.036C92.9144 31.6822 93.4173 31.5802 93.7166 31.7361C93.9681 31.8681 94.004 32.1859 94.01 34.1049L94.016 35.8621H94.4949H94.9739V33.907C94.9739 32.6297 94.9499 31.8621 94.902 31.6822C94.7284 30.9865 93.9681 30.6747 93.0281 30.9085Z" fill="black"/>
<path d="M105.301 30.8845C104.709 30.9445 104.074 31.0465 104.032 31.0884C104.014 31.1004 104.026 31.2683 104.044 31.4543L104.092 31.7961L104.403 31.7601C105.17 31.6701 106.445 31.6462 106.666 31.7181C107.008 31.8321 107.127 32.03 107.127 32.4797V32.8636H105.912C104.739 32.8636 104.685 32.8695 104.397 33.0135C103.978 33.2234 103.823 33.5112 103.787 34.1409C103.733 35.0165 103.954 35.5262 104.505 35.8081C105.164 36.1439 106.253 35.94 106.99 35.3463L107.241 35.1364L107.277 35.3643C107.361 35.898 107.331 35.8621 107.762 35.8621H108.151L108.133 33.865C108.115 31.988 108.109 31.8561 107.989 31.6042C107.732 31.0525 107.379 30.8785 106.469 30.8486C106.122 30.8426 105.601 30.8546 105.301 30.8845ZM107.127 34.033V34.4827L106.768 34.7166C106.116 35.1424 105.247 35.2624 104.954 34.9745C104.816 34.8366 104.751 34.3388 104.816 33.979C104.882 33.6312 105.032 33.5892 106.157 33.5832H107.127V34.033Z" fill="black"/>
<path d="M136.745 30.8846C136.11 30.9925 135.781 31.3103 135.715 31.8801C135.649 32.3718 135.727 32.8216 135.919 33.0855C136.128 33.3793 136.469 33.5292 137.421 33.7631C138.457 34.021 138.726 34.1109 138.828 34.2609C138.942 34.4228 138.942 34.7226 138.828 34.8846C138.661 35.1244 138.373 35.1664 137.092 35.1604C136.224 35.1544 135.883 35.1664 135.853 35.2204C135.829 35.2624 135.805 35.4183 135.805 35.5742V35.8561L136.092 35.9041C136.248 35.928 136.942 35.952 137.631 35.952H138.888L139.235 35.7841C139.493 35.6582 139.606 35.5562 139.69 35.3883C139.93 34.9205 139.924 34.1169 139.672 33.7511C139.475 33.4513 139.128 33.2954 138.02 33.0135C136.936 32.7316 136.799 32.6837 136.703 32.5038C136.607 32.3238 136.631 31.988 136.757 31.8381C136.87 31.6942 136.876 31.6942 138.253 31.6942C139.798 31.6942 139.696 31.7301 139.696 31.2324C139.696 30.9745 139.702 30.9745 138.679 30.8846C137.888 30.8186 137.158 30.8186 136.745 30.8846Z" fill="black"/>
<path d="M160.124 30.8845C159.435 31.0105 158.974 31.3763 158.729 32.006C158.603 32.3238 158.591 32.4498 158.585 33.4033C158.585 34.5667 158.645 34.8546 158.974 35.3163C159.327 35.8021 159.866 35.994 160.908 35.988C162.596 35.988 163.225 35.3043 163.225 33.4333C163.225 31.6042 162.644 30.9085 161.07 30.8546C160.722 30.8426 160.297 30.8546 160.124 30.8845ZM161.674 31.8261C162.052 32.066 162.207 32.5397 162.207 33.4513C162.207 34.7766 161.764 35.2803 160.704 35.1844C160.196 35.1424 159.932 34.9865 159.753 34.6267C159.621 34.3688 159.603 34.2429 159.585 33.5712C159.543 32.066 159.86 31.6342 160.986 31.6821C161.351 31.6941 161.519 31.7301 161.674 31.8261Z" fill="black"/>
<path d="M33.7275 33.4033V35.8621H34.2063H34.6851V33.4033V30.9445H34.2063H33.7275V33.4033Z" fill="black"/>
<path d="M76.7736 33.4033V35.8621H77.2524H77.7312V33.4033V30.9445H77.2524H76.7736V33.4033Z" fill="black"/>
<path d="M98.0871 30.9685C98.0871 31.0824 99.8951 35.7721 99.955 35.8081C100.087 35.892 101.236 35.874 101.308 35.7841C101.374 35.7061 103.116 31.0824 103.116 30.9925C103.116 30.9625 102.883 30.9505 102.595 30.9565L102.08 30.9745L101.38 33.0674C100.997 34.2249 100.655 35.1724 100.62 35.1844C100.59 35.1964 100.254 34.2968 99.8832 33.1814C99.512 32.0659 99.1827 31.1064 99.1528 31.0465C99.1108 30.9625 99.0151 30.9445 98.596 30.9445C98.3146 30.9445 98.0871 30.9565 98.0871 30.9685Z" fill="black"/>
<path d="M114.791 33.0135C114.791 34.7406 114.809 35.1244 114.88 35.3043C115.084 35.7961 115.437 35.994 116.108 35.994C116.359 35.994 116.688 35.958 116.832 35.922C117.114 35.8441 117.718 35.5562 117.976 35.3763C118.06 35.3103 118.143 35.2624 118.161 35.2624C118.179 35.2624 118.209 35.3943 118.233 35.5622L118.275 35.8621H118.658H119.041V33.4033V30.9445H118.562H118.083V32.7316V34.5187L117.712 34.7286C117.155 35.0465 116.838 35.1544 116.449 35.1604C116.15 35.1604 116.078 35.1424 115.94 34.9985L115.778 34.8426L115.761 32.8935L115.743 30.9445H115.27H114.791V33.0135Z" fill="black"/>
<path d="M120.538 33.0135C120.538 34.7406 120.556 35.1244 120.628 35.3043C120.831 35.7961 121.185 35.994 121.855 35.994C122.107 35.994 122.436 35.958 122.58 35.922C122.861 35.8441 123.466 35.5562 123.723 35.3763C123.807 35.3103 123.897 35.2624 123.915 35.2624C123.933 35.2624 123.963 35.4003 123.987 35.5622L124.028 35.8621H124.406H124.789V33.4033V30.9445H124.31H123.831V32.7316V34.5127L123.514 34.7046C122.568 35.2684 121.747 35.3103 121.556 34.8066C121.52 34.7226 121.496 33.8351 121.496 32.7976V30.9445H121.017H120.538V33.0135Z" fill="black"/>
<path d="M130.189 33.0555L130.207 35.1724L130.357 35.4423C130.758 36.1619 132.045 36.1919 133.171 35.5082C133.386 35.3763 133.578 35.2863 133.602 35.2983C133.632 35.3163 133.649 35.4483 133.649 35.5982V35.8621H134.039H134.428V33.4033V30.9445H133.949H133.47V32.7436V34.5367L133.093 34.7466C132.578 35.0405 132.237 35.1484 131.871 35.1544C131.476 35.1604 131.279 35.0345 131.201 34.7406C131.159 34.6027 131.135 33.7811 131.135 32.7256V30.9445H130.656H130.171L130.189 33.0555Z" fill="black"/>
<path d="M140.648 31.4063C141.798 34.5127 142.283 35.7721 142.343 35.8141C142.384 35.8381 142.498 35.8621 142.588 35.8621C142.738 35.8621 142.75 35.8801 142.72 35.994C142.582 36.4618 142.013 37.0255 141.504 37.2054C141.301 37.2774 141.283 37.3013 141.301 37.4872C141.337 37.961 141.349 37.973 141.66 37.931C142.354 37.8351 143.043 37.3133 143.402 36.5937C143.552 36.2998 145.396 31.4063 145.492 31.0465C145.516 30.9505 145.474 30.9385 144.989 30.9565L144.462 30.9745L143.761 33.0435C143.378 34.1769 143.037 35.1184 143.001 35.1304C142.965 35.1424 142.899 35.0045 142.845 34.8246C142.792 34.6447 142.474 33.6971 142.145 32.7196L141.54 30.9445H141.007H140.481L140.648 31.4063Z" fill="black"/>
<path d="M156.28 33.4033V35.8621H156.759H157.238V33.4033V30.9445H156.759H156.28V33.4033Z" fill="black"/>
</svg>
