<svg width="195" height="200" viewBox="0 0 195 200" fill="none" xmlns="http://www.w3.org/2000/svg">
<path d="M61.1603 99.2629C49.6279 100.538 27.6422 116.197 29.3834 127.318C30.444 134.087 36.385 134.804 40.4743 134.639C46.685 134.387 54.3304 131.457 54.3304 131.457" fill="#FFAD40"/>
<path d="M61.1604 99.2629L59.8606 105.388L54.3305 131.457C54.3305 131.457 46.6851 134.387 40.4744 134.639C36.3851 134.804 30.4441 134.093 29.3835 127.318C28.1573 119.446 38.8007 109.306 49.2172 103.598C53.5273 101.237 57.7945 99.6308 61.1604 99.2629Z" fill="#FFAD40"/>
<path d="M61.1604 99.2629L59.8606 105.388L59.6583 106.35L54.3305 131.463C54.3305 131.463 53.8461 131.647 53.0307 131.929C50.5844 132.763 45.1278 134.455 40.4744 134.645C36.3851 134.81 30.4441 134.099 29.3835 127.324C28.1573 119.452 38.8007 109.312 49.2172 103.604C53.5273 101.237 57.7945 99.6308 61.1604 99.2629Z" fill="#FAA327"/>
<path d="M59.6582 106.344L54.3303 131.457C54.3303 131.457 53.846 131.641 53.0305 131.923C51.0441 127.429 47.4146 120.948 42.4485 119.078C42.4485 119.078 49.9099 119.029 55.1887 107.589C56.4149 104.928 58.0396 105.032 59.6582 106.344Z" fill="#FF9343"/>
<path d="M61.1603 99.2629L59.8605 105.388C56.0531 105.087 52.4726 104.48 49.2171 103.598C53.5272 101.237 57.7943 99.6308 61.1603 99.2629Z" fill="#EF7F25"/>
<path d="M93.3173 100.489C88.0508 102.555 82.0669 104.107 75.6355 104.946C70.1421 105.658 64.8143 105.78 59.8788 105.388C60.2038 102.886 60.3938 100.403 60.3509 98C60.3509 98 63.956 95.4312 76.1321 94.6525C88.3144 93.8739 90.1108 93.1688 90.1108 93.1688C90.5829 95.1491 91.7968 97.6506 93.3173 100.489Z" fill="#F9D3B7"/>
<path d="M112.44 86.4921C108.817 92.4453 101.079 97.816 91.0305 101.341L90.117 95.2962C95.2425 94.5482 99.9388 93.0951 104.212 91.1455C107.155 89.8028 109.896 88.2271 112.44 86.4921Z" fill="#FF9343"/>
<path d="M96.015 99.3611C90.1415 101.997 83.189 103.965 75.6356 104.946C68.5359 105.866 61.7243 105.799 55.6608 104.916C56.7521 102.206 62.1351 90.7102 75.4516 89.858C86.935 89.1223 93.5197 96.0135 96.015 99.3611Z" fill="#FF9343"/>
<path d="M31.7499 122.279C33.3133 117.515 40.1125 116.154 43.7176 119.422C43.9322 119.606 43.7114 119.974 43.4539 119.869C39.4872 118.422 34.8889 119.035 32.2097 122.524C32.0319 122.757 31.6579 122.555 31.7499 122.279Z" fill="#003580"/>
<path d="M60.1241 103.236C65.1822 103.849 70.7369 103.861 76.7024 103.26C82.5207 102.678 87.9221 101.299 92.7656 99.4408C91.5026 97.0313 90.5277 94.8978 90.117 93.1688C90.117 93.1688 88.3145 93.8739 76.1383 94.6525C63.9621 95.4312 60.3571 98 60.3571 98C60.3816 99.7106 60.2958 101.464 60.1241 103.236Z" fill="#F9D3B7"/>
<path d="M56.6908 102.715C62.6256 103.812 69.3574 104.002 76.7023 103.26C83.5507 102.574 89.8104 100.79 95.2731 98.417C92.3364 94.8732 85.9356 89.1837 75.4516 89.852C64.5323 90.557 58.947 98.417 56.6908 102.715Z" fill="#FF9343"/>
<path d="M90.117 95.2962L90.8527 100.146C101.049 96.6144 108.994 90.9126 113.556 85.7196C110.699 87.7674 107.584 89.6128 104.212 91.1455C99.9388 93.0952 95.2425 94.5482 90.117 95.2962Z" fill="#FF9343"/>
<path d="M91.0795 98.1901L91.2941 102.292C99.1356 100.655 105.659 97.5954 109.761 93.7145C108.308 94.3644 106.799 94.9591 105.254 95.4925C100.889 96.9823 96.1621 97.951 91.0795 98.1901Z" fill="#FF9343"/>
<path d="M90.117 95.2963L91.2267 102.611L93.0537 114.713L93.1212 115.161C110.889 113.187 125.585 106.859 133.727 96.4979C135.027 94.8487 136.155 93.0952 137.105 91.2437C137.54 90.3976 137.896 89.5454 138.172 88.7054C141.838 77.6513 132.396 68.0011 121.826 78.6506C120.821 79.6684 119.76 80.6677 118.657 81.6425C114.512 85.3089 109.705 88.6319 104.206 91.1456C99.9388 93.0952 95.2486 94.5544 90.117 95.2963Z" fill="#FFAD40"/>
<path d="M90.117 95.2963L91.2267 102.611L93.0537 114.713L93.1212 115.161C110.889 113.187 125.585 106.859 133.727 96.4979C135.027 94.8487 136.155 93.0952 137.105 91.2437C137.54 90.3976 137.896 89.5454 138.172 88.7054C141.838 77.6513 132.396 68.0011 121.826 78.6506C120.821 79.6684 119.76 80.6677 118.657 81.6425C114.512 85.3089 109.705 88.6319 104.206 91.1456C99.9388 93.0952 95.2486 94.5544 90.117 95.2963Z" fill="#FAA327"/>
<path d="M112.44 86.4921C108.817 92.4453 101.079 97.816 91.0305 101.341L90.117 95.2962C95.2425 94.5482 99.9388 93.0951 104.212 91.1455C107.155 89.8028 109.896 88.2271 112.44 86.4921Z" fill="#EF7F25"/>
<path d="M93.0537 114.713L93.1211 115.161C110.889 113.187 125.585 106.859 133.727 96.4979C135.026 94.8487 136.155 93.0952 137.105 91.2437C137.54 90.3976 137.896 89.5454 138.172 88.7054C138.067 88.871 134.769 94.1007 128.074 98.2146C122.17 101.838 108.994 105.48 98.0504 102.537C94.6845 106.847 94.8255 112.04 93.0537 114.713Z" fill="#EF7F25"/>
<path d="M130.275 96.7493C131.336 96.7984 132.488 96.7248 133.733 96.4979C135.033 94.8487 136.161 93.0952 137.111 91.2437C137.393 90.7041 137.638 90.1585 137.847 89.619C137.884 89.527 137.92 89.4289 137.957 89.3369C137.994 89.2327 138.037 89.1224 138.074 89.0181C138.11 88.9139 138.147 88.8097 138.178 88.7054C138.086 88.8526 135.499 92.9604 130.275 96.7493Z" fill="#F9D3B7"/>
<path d="M133.733 96.4979C135.033 94.8487 136.161 93.0952 137.111 91.2437C143.273 79.2392 133.212 67.1918 121.833 78.6506C120.827 79.6683 119.766 80.6677 118.663 81.6425C118.442 86.9397 121.6 98.6744 133.733 96.4979Z" fill="white"/>
<g opacity="0.2">
<path d="M130.275 96.7493C131.336 96.7984 132.488 96.7248 133.733 96.4979C135.033 94.8487 136.161 93.0952 137.111 91.2437C137.393 90.7041 137.638 90.1585 137.847 89.619C137.884 89.527 137.92 89.4289 137.957 89.3369C137.994 89.2327 138.037 89.1224 138.074 89.0181C138.11 88.9139 138.147 88.8097 138.178 88.7054C138.086 88.8526 135.499 92.9604 130.275 96.7493Z" fill="#003580"/>
</g>
<path d="M129.119 91.0188C131.421 90.7705 133.087 88.7026 132.838 86.3999C132.59 84.0973 130.522 82.4319 128.219 82.6802C125.917 82.9285 124.251 84.9964 124.5 87.299C124.748 89.6017 126.816 91.267 129.119 91.0188Z" fill="#FF8080"/>
<path d="M128.302 80.5715C128.427 79.7 127.822 78.8923 126.95 78.7675C126.079 78.6427 125.271 79.2479 125.146 80.1194C125.021 80.9909 125.627 81.7986 126.498 81.9234C127.37 82.0483 128.177 81.443 128.302 80.5715Z" fill="#FF8080"/>
<path d="M136.305 85.463C136.841 84.7641 136.708 83.7635 136.009 83.2281C135.311 82.6926 134.31 82.8251 133.774 83.5239C133.239 84.2228 133.372 85.2234 134.07 85.7588C134.769 86.2943 135.77 86.1618 136.305 85.463Z" fill="#FF8080"/>
<path d="M133.273 81.7409C133.949 80.8593 133.782 79.597 132.9 78.9216C132.018 78.2461 130.756 78.4132 130.081 79.2948C129.405 80.1764 129.572 81.4387 130.454 82.1142C131.336 82.7897 132.598 82.6226 133.273 81.7409Z" fill="#FF8080"/>
<path d="M55.4523 105.486C53.3187 117.417 49.3826 125.442 49.0332 135.718C48.8676 140.512 49.7873 145.564 51.8841 149.034L64.2503 157.796C69.057 159.592 74.6669 160.42 80.8101 159.948C86.9534 159.475 92.3732 157.808 96.8488 155.3L107.731 144.773C110.092 140.586 111.079 135.883 110.417 131.12C109.148 121.96 104.28 111.329 97.1983 101.127C97.1983 101.127 90.5645 88.8955 75.4639 89.858C60.3571 90.8206 55.4523 105.486 55.4523 105.486Z" fill="#FFAD40"/>
<path d="M49.0761 138.863C49.3213 142.634 50.241 146.325 51.8779 149.034L64.2441 157.796C69.0508 159.592 74.6607 160.42 80.804 159.948C86.9472 159.475 92.3609 157.808 96.8365 155.3L107.719 144.773C110.079 140.592 111.067 135.883 110.404 131.12C109.135 121.96 104.267 111.335 97.186 101.127C97.186 101.127 90.5522 88.8955 75.4516 89.858C60.351 90.8267 55.4462 105.486 55.4462 105.486C53.3126 117.417 49.3765 125.442 49.027 135.718C48.9902 136.76 49.0086 137.815 49.0761 138.863Z" fill="#FAA327"/>
<path d="M96.015 99.3611C90.1415 101.997 83.189 103.965 75.6356 104.946C68.5359 105.866 61.7243 105.799 55.6608 104.916C56.7521 102.206 62.1351 90.7102 75.4516 89.858C86.935 89.1223 93.5197 96.0135 96.015 99.3611Z" fill="#EF7F25"/>
<path d="M49.076 138.863C49.3213 142.634 50.2409 146.325 51.8779 149.034L64.2441 157.796C69.0508 159.592 74.6607 160.42 80.8039 159.948C86.9472 159.475 92.3608 157.808 96.8365 155.3L107.719 144.773C110.079 140.592 111.067 135.883 110.404 131.12C107.229 139.856 97.9401 151.193 79.5593 151.481C60.4551 151.769 51.5897 142.609 49.076 138.863Z" fill="#FF9343"/>
<path d="M62.4908 148.722C66.5372 151.628 72.472 153.381 80.9328 152.756C88.8172 152.167 94.1022 149.788 97.6152 146.594C92.9557 149.427 87.0025 151.358 79.5594 151.475C72.5578 151.579 66.9357 150.42 62.4908 148.722Z" fill="#F9D3B7"/>
<path d="M60.3571 98C60.5533 109.716 55.3664 123.364 54.8269 131.641C54.2506 140.494 59.3945 154.356 80.9388 152.756C102.446 151.156 104.604 136.184 104.329 127.932C103.899 115.167 91.8704 100.563 90.1169 93.1749C90.1169 93.1749 88.3144 93.88 76.1382 94.6586C63.9621 95.4373 60.3571 98 60.3571 98Z" fill="white"/>
<g opacity="0.2">
<path d="M93.3173 100.489C88.0508 102.555 82.0669 104.107 75.6355 104.946C70.1421 105.658 64.8143 105.78 59.8788 105.388C60.2038 102.886 60.3938 100.403 60.3509 98C60.3509 98 63.956 95.4312 76.1321 94.6525C88.3144 93.8739 90.1108 93.1688 90.1108 93.1688C90.5829 95.1491 91.7968 97.6506 93.3173 100.489Z" fill="#003580"/>
</g>
<path d="M62.4908 148.722C66.5372 151.628 72.472 153.381 80.9328 152.756C88.8172 152.167 94.1022 149.788 97.6152 146.594C92.9557 149.427 87.0025 151.358 79.5594 151.475C72.5578 151.579 66.9357 150.42 62.4908 148.722Z" fill="#F9D3B7"/>
<path d="M107.271 144.516C110.766 136.766 109.84 130.047 107.253 122.273C106.008 118.588 104.451 115.014 102.673 111.556C100.901 108.073 98.8842 104.72 96.7629 101.421C96.6096 101.182 96.6771 100.857 96.9162 100.704C97.1491 100.557 97.4557 100.612 97.6151 100.833C101.134 105.615 104.243 110.734 106.756 116.129C108.939 120.899 110.662 125.933 111.428 131.138C112.17 135.957 110.913 141.101 108.173 145.031C107.817 145.528 107.02 145.092 107.271 144.516Z" fill="#003580"/>
<path d="M64.0848 157.305C72.0122 159.604 80.4974 159.586 88.48 157.593C91.1347 156.919 93.7281 155.999 96.2418 154.847C96.5055 154.724 96.812 154.84 96.9346 155.104C97.045 155.343 96.9592 155.613 96.7507 155.754C87.4132 161.83 73.8882 162.829 63.723 158.28C63.1529 158.01 63.4655 157.133 64.0848 157.305Z" fill="#512717"/>
<path d="M55.9612 105.578C54.6798 114.799 51.0932 123.579 50.1919 132.83C50.1061 133.627 50.0509 134.755 50.0141 135.558C50.0264 140.052 50.4862 144.632 52.3255 148.765C52.4481 149.028 52.3316 149.347 52.0619 149.464C51.835 149.562 51.5775 149.488 51.4304 149.298C48.6163 145.399 47.7395 140.193 48.0645 135.479C48.3404 128.857 50.3268 122.481 52.1784 116.172C53.2268 112.604 54.1771 109.017 54.9373 105.388C55.0783 104.762 56.047 104.891 55.9612 105.578Z" fill="#003580"/>
<path d="M106.652 121.206C106.665 122.291 105.837 123.198 104.758 123.284C102.974 123.425 100.19 123.609 97.4742 123.609C94.752 123.609 91.9685 123.431 90.1905 123.284C89.1115 123.198 88.2838 122.291 88.2961 121.206L88.3206 118.87C88.3329 117.773 89.1973 116.877 90.2886 116.828C92.2628 116.743 95.3283 116.62 97.4742 116.62C99.6261 116.62 102.686 116.736 104.66 116.828C105.757 116.877 106.615 117.773 106.628 118.87L106.652 121.206Z" fill="#CCCCCC"/>
<g opacity="0.5">
<path d="M106.652 121.206C106.652 121.286 106.652 121.365 106.64 121.445L106.628 120.311C106.615 119.219 105.751 118.318 104.653 118.269C102.679 118.183 99.6199 118.067 97.468 118.067C95.316 118.067 92.2566 118.183 90.2824 118.269C89.185 118.318 88.3205 119.213 88.3082 120.311L88.296 121.445C88.2837 121.365 88.2837 121.292 88.2837 121.206L88.3082 118.87C88.3205 117.779 89.185 116.877 90.2824 116.828C92.2566 116.742 95.316 116.626 97.468 116.626C99.6199 116.626 102.679 116.742 104.653 116.828C105.751 116.877 106.615 117.772 106.628 118.87L106.652 121.206Z" fill="white"/>
</g>
<path d="M106.652 121.206C106.664 122.291 105.837 123.198 104.758 123.284C102.974 123.425 100.19 123.609 97.468 123.609C94.7458 123.609 91.9624 123.431 90.1782 123.284C89.0992 123.198 88.2715 122.291 88.2838 121.206L88.3022 119.33C88.4186 120.286 89.1973 121.04 90.1782 121.12C91.0366 121.188 92.1279 121.267 93.3357 121.329C94.3167 121.378 95.1382 120.599 95.1382 119.618H99.7978C99.7978 120.599 100.619 121.378 101.6 121.329C102.802 121.267 103.893 121.188 104.758 121.12C105.739 121.04 106.517 120.286 106.634 119.33L106.652 121.206Z" fill="#A3A3A3"/>
<path d="M97.4679 124.645C94.7396 124.645 91.9562 124.467 90.0985 124.32C88.4799 124.192 87.2292 122.818 87.2476 121.194L87.2721 118.851C87.2905 117.202 88.5903 115.86 90.2334 115.786C92.3608 115.694 95.3466 115.578 97.4679 115.578C99.5893 115.578 102.569 115.688 104.703 115.786C106.346 115.86 107.652 117.208 107.664 118.851L107.688 121.194C107.707 122.818 106.45 124.192 104.837 124.32C102.986 124.467 100.196 124.645 97.4679 124.645ZM97.4679 117.662C95.3834 117.662 92.4344 117.772 90.3253 117.864C89.7858 117.889 89.3566 118.33 89.3505 118.876L89.326 121.212C89.3198 121.745 89.7306 122.199 90.264 122.242C92.0788 122.389 94.8071 122.561 97.4679 122.561C100.129 122.561 102.851 122.389 104.672 122.242C105.205 122.199 105.616 121.745 105.61 121.212L105.585 118.876C105.579 118.33 105.15 117.889 104.611 117.864C102.501 117.772 99.5525 117.662 97.4679 117.662Z" fill="#003580"/>
<path d="M97.4679 120.114C96.6832 120.114 96.0333 119.495 95.9965 118.71L95.6961 112.273H99.2398L98.9394 118.71C98.9026 119.495 98.2527 120.114 97.4679 120.114Z" fill="#CCCCCC"/>
<path d="M97.4679 121.151C96.1252 121.151 95.0217 120.096 94.9604 118.753L94.6599 112.316C94.6477 112.034 94.7519 111.758 94.9481 111.55C95.1443 111.341 95.414 111.231 95.7022 111.231H99.2459C99.5279 111.231 99.8038 111.347 100 111.55C100.196 111.752 100.3 112.034 100.288 112.316L99.9878 118.753C99.9142 120.102 98.8106 121.151 97.4679 121.151ZM96.7874 113.309L97.0388 118.661C97.051 118.894 97.2411 119.072 97.4679 119.072C97.7009 119.072 97.891 118.888 97.8971 118.661L98.1485 113.309H96.7874Z" fill="#003580"/>
<path d="M97.468 134.731C62.3374 134.731 42.4853 131.733 42.2891 131.702C41.9274 131.647 41.6147 131.402 41.4798 131.058C41.3449 130.715 41.4001 130.329 41.6269 130.034C42.0009 129.556 50.8663 118.226 54.4714 116.178C61.2155 112.347 82.2386 111.905 97.4619 111.905C112.685 111.905 133.708 112.347 140.452 116.178C144.057 118.226 152.923 129.556 153.297 130.034C153.524 130.323 153.579 130.715 153.444 131.058C153.309 131.402 153.003 131.647 152.635 131.702C152.451 131.733 132.599 134.731 97.468 134.731ZM44.3982 129.893C49.9896 130.611 68.493 132.652 97.468 132.652C126.443 132.652 144.953 130.611 150.538 129.893C147.485 126.092 141.795 119.33 139.435 117.987C132.384 113.984 106.107 113.984 97.468 113.984C88.8295 113.984 62.552 113.984 55.5014 117.987C53.141 119.33 47.4514 126.092 44.3982 129.893Z" fill="#512717"/>
<path d="M97.468 134.731C62.3374 134.731 42.4853 131.733 42.2891 131.702C41.9274 131.647 41.6147 131.402 41.4798 131.058C41.3449 130.715 41.4001 130.329 41.6269 130.034C42.0009 129.556 50.8663 118.226 54.4714 116.178C61.2155 112.347 82.2386 111.905 97.4619 111.905C112.685 111.905 133.708 112.347 140.452 116.178C144.057 118.226 152.923 129.556 153.297 130.034C153.524 130.323 153.579 130.715 153.444 131.058C153.309 131.402 153.003 131.647 152.635 131.702C152.451 131.733 132.599 134.731 97.468 134.731ZM44.3982 129.893C49.9896 130.611 68.493 132.652 97.468 132.652C126.443 132.652 144.953 130.611 150.538 129.893C147.485 126.092 141.795 119.33 139.435 117.987C132.384 113.984 106.107 113.984 97.468 113.984C88.8295 113.984 62.552 113.984 55.5014 117.987C53.141 119.33 47.4514 126.092 44.3982 129.893Z" fill="#512717"/>
<path d="M32.8411 127.147C31.6824 130.47 34.5517 134.142 39.6097 134.228C43.3803 134.289 48.5549 134.155 49.8179 131.451C50.713 129.526 50.7865 124.32 45.6794 122.984C40.5907 121.653 34.4781 122.444 32.8411 127.147Z" fill="white"/>
<path d="M40.6583 135.295C40.3027 135.295 39.9471 135.289 39.5915 135.289C36.5873 135.24 34.0429 134.038 32.6083 131.984C31.517 130.421 31.2411 128.532 31.8419 126.803C33.7119 121.433 40.4621 120.531 45.9432 121.96C48.132 122.53 49.7505 123.818 50.6273 125.681C51.6757 127.913 51.4366 130.47 50.7744 131.898C49.4317 134.78 45.0358 135.295 40.6583 135.295ZM33.8406 127.496C33.4605 128.594 33.6383 129.759 34.3434 130.77C35.3795 132.26 37.3108 133.131 39.6283 133.167C41.86 133.204 47.7886 133.302 48.8616 130.997C49.2601 130.139 49.4808 128.201 48.7205 126.577C48.1136 125.283 46.9977 124.412 45.4159 124.002C40.8422 122.812 35.2691 123.395 33.8406 127.496Z" fill="#003580"/>
<path d="M32.8535 135.914H25.6618C23.3075 135.914 21.0697 134.829 19.6657 132.941C19.0955 132.174 18.5866 131.23 18.2556 130.077C17.808 128.538 18.9974 127.006 20.6037 127.006H29.0093C30.4378 127.006 31.7928 127.625 32.7247 128.71L36.25 132.8" fill="#FF4A4A"/>
<path d="M36.25 132.793L32.8534 135.914H25.6618C23.3075 135.914 21.0697 134.829 19.6718 132.941C19.1016 132.174 18.5989 131.224 18.2617 130.071C17.8141 128.532 19.0035 127 20.6098 127H29.0154C30.4439 127 31.7989 127.619 32.7308 128.704L36.25 132.793Z" fill="#465597"/>
<g opacity="0.5">
<path d="M36.2501 132.793L35.4837 133.492L32.8228 130.402C31.8909 129.323 30.536 128.698 29.1074 128.698H20.6957C19.5799 128.698 18.6664 129.44 18.3598 130.408C18.323 130.298 18.2862 130.182 18.2495 130.065C17.8019 128.526 18.9913 126.993 20.5976 126.993H29.0032C30.4317 126.993 31.7867 127.613 32.7186 128.698L36.2501 132.793Z" fill="white"/>
</g>
<path d="M36.2501 132.793L32.8535 135.914H25.6618C23.3075 135.914 21.0697 134.829 19.6718 132.941C19.1017 132.174 18.5989 131.224 18.2617 130.071C18.2617 130.071 20.5915 133.431 25.2204 133.431C30.0148 133.431 33.4727 131.653 32.7309 128.704L36.2501 132.793Z" fill="#003580"/>
<path d="M162.015 135.914H169.207C171.561 135.914 173.799 134.829 175.203 132.941C175.773 132.174 176.282 131.23 176.613 130.077C177.061 128.538 175.871 127.006 174.265 127.006H165.859C164.431 127.006 163.076 127.625 162.144 128.71L158.619 132.8" fill="#FF4A4A"/>
<path d="M158.619 132.793L162.015 135.914H169.207C171.561 135.914 173.799 134.829 175.197 132.941C175.767 132.174 176.27 131.224 176.607 130.071C177.054 128.532 175.865 127 174.259 127H165.859C164.431 127 163.076 127.619 162.144 128.704L158.619 132.793Z" fill="#465597"/>
<g opacity="0.5">
<path d="M158.619 132.793L159.385 133.492L162.046 130.402C162.978 129.323 164.333 128.698 165.761 128.698H174.167C175.283 128.698 176.196 129.44 176.503 130.408C176.539 130.298 176.576 130.182 176.613 130.065C177.061 128.526 175.871 126.993 174.265 126.993H165.859C164.431 126.993 163.076 127.613 162.144 128.698L158.619 132.793Z" fill="white"/>
</g>
<path d="M158.619 132.793L162.015 135.914H169.207C171.561 135.914 173.799 134.829 175.197 132.941C175.767 132.174 176.27 131.224 176.607 130.071C176.607 130.071 174.277 133.431 169.648 133.431C164.854 133.431 161.396 131.653 162.138 128.704L158.619 132.793Z" fill="#003580"/>
<path d="M41.2652 194.526C36.8877 194.894 32.4672 194.851 28.0897 194.526C26.3853 194.391 24.8035 192.846 24.6502 191.142C24.3988 187.341 24.3988 183.65 24.6502 179.849C24.8035 178.144 26.3853 176.599 28.0897 176.464C32.4672 176.139 36.8877 176.097 41.2652 176.464C42.9696 176.599 44.5514 178.144 44.7047 179.849C44.9561 183.65 44.9561 187.341 44.7047 191.142C44.5514 192.846 42.9696 194.391 41.2652 194.526Z" fill="#464691"/>
<path d="M166.853 194.526C162.475 194.894 158.055 194.851 153.677 194.526C151.973 194.391 150.391 192.846 150.238 191.142C149.986 187.341 149.986 183.65 150.238 179.849C150.391 178.144 151.973 176.599 153.677 176.464C158.055 176.139 162.475 176.097 166.853 176.464C168.557 176.599 170.139 178.144 170.292 179.849C170.543 183.65 170.543 187.341 170.292 191.142C170.139 192.846 168.557 194.391 166.853 194.526Z" fill="#464691"/>
<path d="M171.095 140.476C170.641 139.777 170.059 139.121 169.397 138.495C166.111 135.405 160.795 133.18 158.643 131.463C154.995 128.557 148.521 118.116 142.537 114.063C133.432 107.895 97.4619 108.809 97.4619 108.809C97.4619 108.809 61.4914 107.889 52.3869 114.063C46.403 118.116 39.9287 128.557 36.2807 131.463C34.1288 133.18 28.8132 135.405 25.527 138.495C24.8648 139.121 24.2824 139.777 23.8287 140.476C20.1011 146.183 18.9055 178.929 24.6809 185.477C26.3056 187.322 30.4502 188.346 40.6705 188.512C47.9909 188.634 55.2746 188.481 58.7447 187.335C61.4607 186.44 70.1729 180.922 73.8208 178.144L97.4558 178.341L121.091 178.144C124.733 180.928 133.451 186.44 136.167 187.335C139.637 188.481 146.927 188.634 154.241 188.512C164.461 188.34 168.606 187.316 170.231 185.477C176.025 178.929 174.823 146.19 171.095 140.476ZM97.4681 133.695C62.0125 133.695 42.4485 130.678 42.4485 130.678C42.4485 130.678 51.5224 119.054 54.9864 117.086C62.2762 112.947 88.6701 112.947 97.4681 112.947C106.266 112.947 132.66 112.947 139.95 117.086C143.414 119.054 152.488 130.678 152.488 130.678C152.488 130.678 132.924 133.695 97.4681 133.695Z" fill="#465597"/>
<g opacity="0.4">
<path d="M123.905 144.804C123.758 145.84 118.05 146.141 115.922 146.202C109.779 146.386 103.611 146.257 97.468 146.257C91.3248 146.257 85.1631 146.386 79.0137 146.202C76.5736 146.128 71.1415 145.619 71.0312 144.804C70.8963 143.86 76.1506 142.088 78.5539 141.536C84.7646 140.108 91.2205 139.611 97.4741 139.611C103.728 139.611 110.178 140.108 116.394 141.536C118.479 142.014 124.046 143.805 123.905 144.804Z" fill="white"/>
</g>
<g opacity="0.4">
<path d="M47.1448 135.834C47.1448 139.476 53.1899 145.393 57.1322 146.122C59.652 146.588 57.7024 138.673 56.9605 136.846C55.9182 134.234 47.1448 133.523 47.1448 135.834Z" fill="white"/>
</g>
<g opacity="0.4">
<path d="M147.791 135.834C147.791 139.476 141.746 145.393 137.804 146.122C135.284 146.588 137.234 138.673 137.976 136.846C139.024 134.234 147.791 133.523 147.791 135.834Z" fill="white"/>
</g>
<path d="M170.243 185.483C168.618 187.329 164.474 188.353 154.253 188.518C146.933 188.641 139.649 188.487 136.179 187.341C133.463 186.446 124.745 180.928 121.103 178.151L97.468 178.347L73.833 178.151C70.1851 180.934 61.4729 186.446 58.7569 187.341C55.2868 188.487 47.997 188.641 40.6828 188.518C30.4624 188.346 26.3178 187.323 24.6931 185.483C18.9177 178.935 20.1133 146.19 23.8409 140.482C24.2946 139.783 24.877 139.127 25.5392 138.501C25.8335 140.181 30.5176 146.177 44.7966 150.966C52.6627 152.241 38.5798 135.601 40.2229 134.24C47.4452 146.6 59.3332 154.65 62.4723 155.153C72.1899 156.692 82.5145 157.593 97.468 157.336C112.428 157.599 122.746 156.692 132.464 155.153C135.603 154.657 147.497 146.6 154.713 134.24C156.356 135.601 142.273 152.241 150.139 150.966C164.418 146.177 169.103 140.181 169.397 138.501C170.059 139.127 170.641 139.783 171.095 140.482C174.823 146.19 176.024 178.929 170.243 185.483Z" fill="#465597"/>
<g opacity="0.5">
<path d="M170.243 185.483C170.01 185.747 169.728 185.992 169.385 186.225C174.97 179.499 173.781 147.532 170.126 141.935C169.679 141.248 169.103 140.598 168.453 139.985C165.209 136.932 159.967 134.737 157.84 133.045C154.241 130.175 147.853 119.875 141.948 115.878C132.966 109.79 97.468 110.691 97.468 110.691C97.468 110.691 61.9757 109.784 52.9877 115.878C47.0835 119.875 40.6889 130.182 37.0961 133.045C34.9687 134.737 29.7267 136.938 26.4834 139.985C25.8335 140.598 25.2572 141.248 24.8096 141.935C21.1555 147.532 19.96 179.499 25.5515 186.225C25.2081 185.992 24.92 185.747 24.6931 185.483C18.9177 178.935 20.1133 146.19 23.8409 140.482C24.2946 139.783 24.877 139.127 25.5392 138.501C28.8254 135.411 34.141 133.186 36.293 131.469C39.9348 128.563 46.4152 118.122 52.3991 114.069C61.5036 107.902 97.4741 108.815 97.4741 108.815C97.4741 108.815 133.445 107.895 142.549 114.069C148.533 118.122 155.007 128.563 158.655 131.469C160.807 133.186 166.123 135.411 169.409 138.501C170.071 139.127 170.654 139.783 171.107 140.482C174.823 146.19 176.024 178.929 170.243 185.483Z" fill="white"/>
</g>
<g opacity="0.3">
<path d="M152.488 130.678C152.488 130.678 147.098 131.512 136.854 132.297C133.469 132.554 129.551 132.812 125.125 133.033C118.258 133.376 110.159 133.627 100.901 133.682C99.7733 133.689 98.6329 133.689 97.468 133.689C91.8152 133.689 86.561 133.609 81.7297 133.486C78.793 133.407 76.0095 133.308 73.3916 133.198C64.8695 132.836 58.0151 132.327 52.9447 131.862C46.0474 131.23 42.4485 130.678 42.4485 130.678C42.4485 130.678 51.5223 119.054 54.9863 117.086C56.3352 116.319 58.3461 115.694 60.7801 115.185C66.7333 113.941 75.2248 113.389 82.8149 113.144C85.8927 113.039 88.8172 112.996 91.3677 112.972C93.8139 112.947 95.9107 112.947 97.4619 112.947C100.362 112.947 105.162 112.947 110.57 113.095C118.289 113.303 127.228 113.818 133.567 115.063C136.265 115.59 138.484 116.252 139.944 117.08C140.698 117.509 141.715 118.392 142.85 119.514C146.933 123.56 152.488 130.678 152.488 130.678Z" fill="#2BD4FC"/>
</g>
<g opacity="0.5">
<path d="M82.8211 113.144L73.3916 133.198C64.8695 132.836 58.0151 132.327 52.9448 131.861L60.7802 115.185C66.7395 113.941 75.2309 113.383 82.8211 113.144Z" fill="white"/>
</g>
<g opacity="0.5">
<path d="M110.576 113.095L100.901 133.682C99.7733 133.689 98.6329 133.689 97.4681 133.689C91.8153 133.689 86.561 133.609 81.7298 133.486L91.3738 112.972C93.8201 112.947 95.9169 112.947 97.4681 112.947C100.368 112.947 105.175 112.947 110.576 113.095Z" fill="white"/>
</g>
<g opacity="0.6">
<path d="M142.856 119.52L136.853 132.297C133.469 132.554 129.551 132.812 125.125 133.032L133.573 115.062C136.271 115.59 138.49 116.252 139.95 117.08C140.704 117.515 141.722 118.398 142.856 119.52Z" fill="white"/>
</g>
<g opacity="0.3">
<path d="M142.709 164.748C125.689 167.256 115.328 168.077 97.4741 168.028C79.6146 168.071 69.2593 167.256 52.2397 164.748C37.5805 162.584 25.1836 157.63 25.8887 156.435C26.6182 155.196 50.2961 164.84 97.4803 164.84C144.664 164.84 168.336 155.196 169.072 156.435C169.765 157.636 157.362 162.59 142.709 164.748Z" fill="white"/>
</g>
<path d="M164.369 181.296C161.807 184.852 142.966 185.17 139.484 184.582C136.001 183.987 123.267 174.932 123.267 174.932C113.298 175.067 97.4619 175.06 97.4619 175.06C97.4619 175.06 81.6317 175.067 71.6566 174.932C71.6566 174.932 58.9225 183.993 55.4401 184.582C51.9577 185.17 33.1171 184.858 30.5544 181.296C28.5986 178.58 30.6893 174.073 31.7377 172.038C32.7861 170.002 35.4469 165.79 38.4327 165.343C41.0568 164.95 49.5482 167.55 63.1161 169.543C72.2758 170.891 83.9676 171.284 97.4558 171.247C110.944 171.284 122.636 170.885 131.795 169.543C145.363 167.55 153.861 164.95 156.479 165.343C159.465 165.784 162.126 170.002 163.174 172.038C164.241 174.079 166.331 178.58 164.369 181.296Z" fill="#5665A7"/>
<path d="M144.401 179.622C142.653 179.622 141.513 179.567 140.894 179.518C140.581 179.493 140.281 179.426 139.993 179.303C138.497 178.672 135.486 176.863 132.231 174.742C132.341 174.723 132.458 174.711 132.568 174.693C139.22 173.718 144.75 172.584 148.791 171.756C150.765 171.351 152.672 170.959 154.063 170.726C155.136 170.548 156.215 170.959 156.896 171.811C157.441 172.498 158.048 173.399 158.582 174.429C158.594 174.447 158.6 174.466 158.612 174.484C159.538 176.287 158.429 178.469 156.43 178.788C153.469 179.254 149.281 179.622 144.401 179.622ZM50.5414 179.622C45.655 179.622 41.4737 179.254 38.5247 178.788C36.526 178.469 35.4163 176.287 36.342 174.484C36.3543 174.466 36.3604 174.447 36.3727 174.429C36.9061 173.399 37.5069 172.498 38.0526 171.811C38.727 170.959 39.8122 170.548 40.8851 170.726C42.283 170.959 44.1836 171.351 46.1578 171.756C50.1981 172.584 55.7282 173.718 62.3804 174.693C62.4907 174.711 62.6011 174.723 62.7176 174.742C59.462 176.863 56.4456 178.672 54.9557 179.303C54.6676 179.426 54.3672 179.493 54.0545 179.518C53.4291 179.561 52.2887 179.622 50.5414 179.622Z" fill="#F2994A"/>
<path d="M39.8857 132.659C44.4043 139.936 53.6682 150.322 61.3503 154.086C62.5827 154.693 61.7427 156.533 60.4675 155.969C55.6914 153.43 51.9209 149.666 48.3281 145.761C44.8396 141.837 41.5779 137.753 38.9783 133.161C38.6595 132.567 39.5363 132.058 39.8857 132.659Z" fill="#003580"/>
<path d="M63.723 152.474C63.723 152.474 63.2019 148.654 64.5752 144.43C66.3164 139.078 68.7137 136.454 68.7137 136.454C68.7137 136.454 62.7421 138.428 61.6201 145.252C60.9396 149.421 63.723 152.474 63.723 152.474Z" fill="#465597"/>
<path d="M131.219 152.474C131.219 152.474 131.74 148.654 130.367 144.43C128.626 139.078 126.229 136.454 126.229 136.454C126.229 136.454 132.2 138.428 133.322 145.252C134.003 149.421 131.219 152.474 131.219 152.474Z" fill="#465597"/>
<path d="M63.3368 152.523C62.7176 149.617 63.018 146.545 63.9867 143.756C64.9676 140.984 66.3165 138.281 68.4255 136.19C68.775 135.871 69.29 136.337 69.0018 136.717C66.7885 140.218 65.1638 144.173 64.4649 148.268C64.2564 149.635 64.1277 151.058 64.1093 152.443C64.1032 152.891 63.441 152.971 63.3368 152.523Z" fill="#003580"/>
<path d="M155.964 133.161C154.682 135.485 153.18 137.618 151.611 139.715C148.435 143.89 144.971 147.827 141.035 151.321C139.048 153.062 136.927 154.687 134.505 155.956C133.996 156.22 133.371 156.024 133.101 155.515C132.825 154.988 133.052 154.338 133.586 154.086C135.805 153.026 137.89 151.548 139.858 149.936C143.794 146.662 147.35 142.891 150.587 138.912C152.199 136.907 153.757 134.841 155.056 132.659C155.387 132.076 156.283 132.542 155.964 133.161Z" fill="#003580"/>
<path d="M130.833 152.419C130.79 146.852 128.902 141.383 125.94 136.717C125.652 136.343 126.167 135.865 126.517 136.19C128.626 138.287 129.974 140.991 130.955 143.756C131.924 146.551 132.225 149.617 131.605 152.523C131.489 152.977 130.814 152.891 130.833 152.419Z" fill="#003580"/>
<path d="M33.2826 146.128C33.2826 146.128 33.5217 151.591 34.8031 153.725C36.0845 155.858 45.5691 158.482 48.0338 158.354C50.4984 158.225 53.8889 153.847 53.8889 153.847C53.8889 153.847 50.149 153.001 44.5636 151.021C38.9783 149.041 33.2826 146.128 33.2826 146.128Z" fill="#AFAFAF"/>
<path d="M47.8376 156.796C45.1951 156.796 37.0287 154.252 36.1335 152.915C35.6431 152.1 35.2936 150.389 35.079 148.74C37.2862 149.782 40.6582 151.291 44.0364 152.486C46.9486 153.522 49.3581 154.246 51.0257 154.712C49.867 155.852 48.6469 156.759 47.948 156.796C47.9112 156.796 47.8805 156.796 47.8376 156.796Z" fill="#DBDBDB"/>
<path d="M43.064 153.407C43.5145 151.499 42.333 149.587 40.425 149.137C38.517 148.686 36.6051 149.868 36.1545 151.776C35.704 153.684 36.8855 155.596 38.7935 156.046C40.7015 156.497 42.6134 155.315 43.064 153.407Z" fill="#DBDBDB"/>
<path d="M42.2345 153.212C42.5769 151.762 41.679 150.309 40.2291 149.966C38.7791 149.624 37.3262 150.522 36.9838 151.972C36.6414 153.422 37.5393 154.875 38.9892 155.217C40.4392 155.559 41.8921 154.661 42.2345 153.212Z" fill="white"/>
<path d="M41.2439 152.978C41.4571 152.075 40.898 151.17 39.9951 150.957C39.0922 150.744 38.1874 151.303 37.9742 152.206C37.761 153.109 38.3201 154.014 39.223 154.227C40.1259 154.44 41.0307 153.881 41.2439 152.978Z" fill="#919191"/>
<g opacity="0.5">
<path d="M39.7386 151.983C39.7386 152.186 39.5731 152.351 39.3707 152.351C39.1684 152.351 39.0029 152.186 39.0029 151.983C39.0029 151.781 39.1684 151.616 39.3707 151.616C39.5731 151.616 39.7386 151.781 39.7386 151.983Z" fill="white"/>
</g>
<path d="M40.7195 152.554C40.7195 153.161 40.2291 153.657 39.616 153.657C39.009 153.657 38.5124 153.167 38.5124 152.554C38.5124 152.443 38.5246 152.339 38.5553 152.241C38.6902 152.695 39.1132 153.026 39.6098 153.026C40.1065 153.026 40.5295 152.695 40.6644 152.241C40.7012 152.339 40.7195 152.443 40.7195 152.554Z" fill="#666666"/>
<path d="M39.6159 154.65C38.4756 154.65 37.5437 153.718 37.5437 152.578C37.5437 151.438 38.4756 150.506 39.6159 150.506C40.7563 150.506 41.6882 151.438 41.6882 152.578C41.6882 153.725 40.7563 154.65 39.6159 154.65ZM39.6159 151.291C38.9048 151.291 38.3223 151.873 38.3223 152.584C38.3223 153.295 38.9048 153.878 39.6159 153.878C40.3271 153.878 40.9096 153.295 40.9096 152.584C40.9096 151.867 40.3271 151.291 39.6159 151.291Z" fill="#003580"/>
<path d="M39.6159 156.649C37.372 156.649 35.5511 154.822 35.5511 152.584C35.5511 150.34 37.3781 148.519 39.6159 148.519C41.8599 148.519 43.6808 150.346 43.6808 152.584C43.6808 154.822 41.8599 156.649 39.6159 156.649ZM39.6159 149.549C37.9483 149.549 36.5872 150.91 36.5872 152.578C36.5872 154.246 37.9483 155.607 39.6159 155.607C41.2836 155.607 42.6447 154.246 42.6447 152.578C42.6447 150.91 41.2836 149.549 39.6159 149.549Z" fill="#003580"/>
<path d="M46.9605 156.872C47.9834 156.449 48.4692 155.276 48.0455 154.253C47.6217 153.23 46.4489 152.744 45.426 153.168C44.403 153.592 43.9172 154.764 44.3409 155.787C44.7647 156.81 45.9375 157.296 46.9605 156.872Z" fill="#DBDBDB"/>
<path d="M46.1883 156.441C46.9739 156.441 47.6107 155.804 47.6107 155.018C47.6107 154.233 46.9739 153.596 46.1883 153.596C45.4028 153.596 44.766 154.233 44.766 155.018C44.766 155.804 45.4028 156.441 46.1883 156.441Z" fill="white"/>
<path d="M46.1883 157.416C44.864 157.416 43.7911 156.343 43.7911 155.018C43.7911 153.694 44.864 152.621 46.1883 152.621C47.5126 152.621 48.5855 153.694 48.5855 155.018C48.5855 156.343 47.5065 157.416 46.1883 157.416ZM46.1883 153.4C45.2932 153.4 44.5697 154.123 44.5697 155.018C44.5697 155.913 45.2932 156.637 46.1883 156.637C47.0834 156.637 47.8069 155.913 47.8069 155.018C47.8069 154.123 47.0773 153.4 46.1883 153.4Z" fill="#003580"/>
<path d="M33.7977 146.104C34.2207 148.403 34.5334 151.07 35.5879 153.099C35.6431 153.21 35.6615 153.234 35.7351 153.314C36.342 153.89 37.1391 154.246 37.9361 154.614C40.1065 155.545 42.4608 156.232 44.7722 156.753C45.8267 156.968 47.0038 157.262 48.0522 157.207C48.9045 157.097 49.9038 156.318 50.6211 155.711C51.4979 154.957 52.3378 154.068 53.0858 153.185C53.4598 152.75 54.1158 152.695 54.5511 153.069C54.9741 153.424 55.0354 154.05 54.7044 154.485C53.4782 156.06 52.1661 157.501 50.474 158.617L50.0142 158.893L49.5053 159.138C47.8438 159.874 45.9493 159.298 44.2694 158.973C41.7802 158.378 39.383 157.63 37.0532 156.539C36.1397 156.097 35.2078 155.607 34.4353 154.859C34.2269 154.638 33.9755 154.338 33.859 154.062C33.1968 152.701 33.0068 151.278 32.8596 149.948C32.737 148.679 32.7002 147.434 32.7615 146.165C32.7738 145.877 33.019 145.656 33.3072 145.668C33.5647 145.668 33.767 145.859 33.7977 146.104Z" fill="#003580"/>
<path d="M46.1883 155.969C46.7131 155.969 47.1386 155.543 47.1386 155.018C47.1386 154.493 46.7131 154.068 46.1883 154.068C45.6635 154.068 45.238 154.493 45.238 155.018C45.238 155.543 45.6635 155.969 46.1883 155.969Z" fill="#919191"/>
<path d="M46.1884 156.226C45.5201 156.226 44.9744 155.68 44.9744 155.012C44.9744 154.344 45.5201 153.798 46.1884 153.798C46.8566 153.798 47.4023 154.344 47.4023 155.012C47.3962 155.686 46.8566 156.226 46.1884 156.226ZM46.1884 154.325C45.8082 154.325 45.4956 154.638 45.4956 155.018C45.4956 155.398 45.8082 155.711 46.1884 155.711C46.5685 155.711 46.8812 155.398 46.8812 155.018C46.8812 154.638 46.5685 154.325 46.1884 154.325Z" fill="#003580"/>
<path d="M46.7525 154.963C46.7525 155.276 46.5011 155.527 46.1884 155.527C45.8757 155.527 45.6244 155.276 45.6244 154.963C45.6244 154.908 45.6305 154.853 45.6489 154.804C45.7163 155.037 45.9309 155.208 46.1884 155.208C46.4459 155.208 46.6605 155.037 46.7279 154.804C46.7402 154.853 46.7525 154.908 46.7525 154.963Z" fill="#666666"/>
<g opacity="0.5">
<path d="M46.0842 154.914C46.1993 154.914 46.2926 154.821 46.2926 154.706C46.2926 154.59 46.1993 154.497 46.0842 154.497C45.9691 154.497 45.8757 154.59 45.8757 154.706C45.8757 154.821 45.9691 154.914 46.0842 154.914Z" fill="white"/>
</g>
<path d="M161.647 146.128C161.647 146.128 161.408 151.591 160.127 153.725C158.845 155.858 149.361 158.482 146.896 158.354C144.431 158.225 141.041 153.847 141.041 153.847C141.041 153.847 144.781 153.001 150.366 151.021C155.952 149.041 161.647 146.128 161.647 146.128Z" fill="#AFAFAF"/>
<path d="M147.086 156.796C149.729 156.796 157.895 154.252 158.79 152.915C159.281 152.1 159.63 150.389 159.845 148.74C157.638 149.782 154.265 151.291 150.887 152.486C147.975 153.522 145.566 154.246 143.898 154.712C145.057 155.852 146.277 156.759 146.976 156.796C147.013 156.796 147.049 156.796 147.086 156.796Z" fill="#DBDBDB"/>
<path d="M158.592 153.937C159.343 152.126 158.483 150.05 156.671 149.299C154.86 148.549 152.783 149.409 152.033 151.22C151.283 153.032 152.143 155.108 153.954 155.859C155.766 156.609 157.842 155.749 158.592 153.937Z" fill="#DBDBDB"/>
<path d="M157.212 154.486C158.265 153.433 158.265 151.725 157.212 150.671C156.158 149.618 154.45 149.618 153.397 150.671C152.343 151.725 152.343 153.433 153.397 154.486C154.45 155.54 156.158 155.54 157.212 154.486Z" fill="white"/>
<path d="M156.865 153.222C157.22 152.365 156.813 151.382 155.956 151.027C155.099 150.672 154.116 151.079 153.761 151.936C153.406 152.793 153.813 153.776 154.67 154.131C155.527 154.486 156.51 154.079 156.865 153.222Z" fill="#919191"/>
<g opacity="0.5">
<path d="M155.185 151.983C155.185 152.186 155.351 152.351 155.553 152.351C155.755 152.351 155.921 152.186 155.921 151.983C155.921 151.781 155.755 151.616 155.553 151.616C155.351 151.616 155.185 151.781 155.185 151.983Z" fill="white"/>
</g>
<path d="M154.204 152.554C154.204 153.161 154.695 153.657 155.308 153.657C155.915 153.657 156.411 153.167 156.411 152.554C156.411 152.443 156.399 152.339 156.368 152.241C156.234 152.695 155.811 153.026 155.314 153.026C154.817 153.026 154.394 152.695 154.259 152.241C154.223 152.339 154.204 152.443 154.204 152.554Z" fill="#666666"/>
<path d="M155.308 154.65C154.167 154.65 153.235 153.718 153.235 152.578C153.235 151.438 154.167 150.506 155.308 150.506C156.448 150.506 157.38 151.438 157.38 152.578C157.38 153.725 156.448 154.65 155.308 154.65ZM155.308 151.291C154.597 151.291 154.014 151.873 154.014 152.584C154.014 153.295 154.597 153.878 155.308 153.878C156.019 153.878 156.601 153.295 156.601 152.584C156.601 151.867 156.019 151.291 155.308 151.291Z" fill="#003580"/>
<path d="M155.308 156.649C153.064 156.649 151.243 154.822 151.243 152.584C151.243 150.34 153.07 148.519 155.308 148.519C157.546 148.519 159.373 150.346 159.373 152.584C159.373 154.822 157.552 156.649 155.308 156.649ZM155.308 149.549C153.64 149.549 152.279 150.91 152.279 152.578C152.279 154.246 153.64 155.607 155.308 155.607C156.975 155.607 158.336 154.246 158.336 152.578C158.336 150.91 156.975 149.549 155.308 149.549Z" fill="#003580"/>
<path d="M149.196 156.953C150.274 156.698 150.941 155.619 150.687 154.541C150.432 153.463 149.352 152.796 148.275 153.051C147.197 153.305 146.53 154.385 146.784 155.462C147.039 156.54 148.119 157.207 149.196 156.953Z" fill="#DBDBDB"/>
<path d="M148.735 156.441C149.521 156.441 150.158 155.804 150.158 155.018C150.158 154.233 149.521 153.596 148.735 153.596C147.95 153.596 147.313 154.233 147.313 155.018C147.313 155.804 147.95 156.441 148.735 156.441Z" fill="white"/>
<path d="M148.735 157.416C147.411 157.416 146.338 156.343 146.338 155.018C146.338 153.694 147.411 152.621 148.735 152.621C150.06 152.621 151.133 153.694 151.133 155.018C151.133 156.343 150.06 157.416 148.735 157.416ZM148.735 153.4C147.84 153.4 147.117 154.123 147.117 155.018C147.117 155.913 147.84 156.637 148.735 156.637C149.631 156.637 150.354 155.913 150.354 155.018C150.354 154.123 149.631 153.4 148.735 153.4Z" fill="#003580"/>
<path d="M148.735 155.969C149.26 155.969 149.686 155.543 149.686 155.018C149.686 154.493 149.26 154.068 148.735 154.068C148.21 154.068 147.785 154.493 147.785 155.018C147.785 155.543 148.21 155.969 148.735 155.969Z" fill="#919191"/>
<path d="M148.735 156.226C148.067 156.226 147.521 155.68 147.521 155.012C147.521 154.344 148.067 153.798 148.735 153.798C149.404 153.798 149.949 154.344 149.949 155.012C149.949 155.686 149.404 156.226 148.735 156.226ZM148.735 154.325C148.355 154.325 148.043 154.638 148.043 155.018C148.043 155.398 148.355 155.711 148.735 155.711C149.115 155.711 149.428 155.398 149.428 155.018C149.428 154.638 149.122 154.325 148.735 154.325Z" fill="#003580"/>
<path d="M148.177 154.963C148.177 155.276 148.429 155.527 148.742 155.527C149.054 155.527 149.306 155.276 149.306 154.963C149.306 154.908 149.299 154.853 149.281 154.804C149.214 155.037 148.999 155.208 148.742 155.208C148.484 155.208 148.269 155.037 148.202 154.804C148.184 154.853 148.177 154.908 148.177 154.963Z" fill="#666666"/>
<g opacity="0.5">
<path d="M148.84 154.914C148.955 154.914 149.048 154.821 149.048 154.706C149.048 154.59 148.955 154.497 148.84 154.497C148.725 154.497 148.631 154.59 148.631 154.706C148.631 154.821 148.725 154.914 148.84 154.914Z" fill="white"/>
</g>
<path d="M162.162 146.147C162.291 148.06 162.199 149.96 161.831 151.848C161.66 152.658 161.408 153.565 160.948 154.332C160.219 155.404 158.968 155.999 157.883 156.545C156.706 157.103 155.522 157.544 154.315 157.943C152.5 158.531 150.661 159.028 148.766 159.334C147.712 159.524 146.43 159.604 145.419 159.126L144.91 158.881L144.45 158.605C142.764 157.483 141.446 156.054 140.219 154.473C139.876 154.013 139.962 153.363 140.422 153.019C140.875 152.676 141.513 152.762 141.863 153.203C142.966 154.479 144.211 155.803 145.639 156.692C146.399 157.152 146.78 157.268 147.57 157.182C148.429 157.097 149.293 156.931 150.152 156.741C152.463 156.214 154.811 155.521 156.982 154.589C157.772 154.227 158.563 153.866 159.158 153.289C159.232 153.216 159.244 153.191 159.299 153.087C160.36 150.959 160.63 148.446 161.12 146.11C161.224 145.503 162.119 145.54 162.162 146.147Z" fill="#003580"/>
<path d="M163.572 145.705C156.27 150.199 148.202 153.326 139.839 155.202C131.415 156.729 122.967 157.342 114.451 157.924C97.4925 159.083 80.4422 158.354 63.5636 156.441C57.9292 155.864 52.1906 154.798 46.8321 152.879C41.443 151.015 36.2317 148.679 31.3575 145.705C31.1123 145.552 31.0387 145.233 31.192 144.988C31.333 144.761 31.6273 144.681 31.8664 144.798C34.3985 145.975 36.9858 147.085 39.5853 148.109C44.766 150.15 50.0877 151.965 55.5198 153.112C60.9763 154.105 66.6475 154.571 72.2022 155.049C91.8152 156.759 111.557 156.373 131.121 154.252C142.347 153.394 152.868 149.359 163.064 144.792C163.327 144.663 163.646 144.78 163.762 145.049C163.873 145.288 163.787 145.57 163.572 145.705Z" fill="#003580"/>
<path d="M62.6685 24.9002L80.6569 29.4678L105.003 35.6478C108.97 28.4868 109.233 8.94733 103.556 2.87764C101.839 1.04448 99.5894 0.443638 96.7323 1.77406C89.5346 5.13385 79.3878 19.3394 62.6685 24.9002Z" fill="#FAA327"/>
<g opacity="0.5">
<path d="M62.6685 24.9002L65.8996 25.7217C81.0738 19.6398 90.5339 6.73404 97.3455 3.55818C100.202 2.22776 102.459 2.82859 104.169 4.66176C105.064 5.6182 105.812 6.91184 106.425 8.43845C105.733 6.1332 104.782 4.18968 103.556 2.87764C101.839 1.04448 99.5894 0.443638 96.7323 1.77406C89.5346 5.13385 79.3878 19.3394 62.6685 24.9002Z" fill="white"/>
</g>
<path d="M80.6568 29.4678L105.003 35.6478C108.97 28.4868 109.233 8.94733 103.556 2.87764C102.471 2.63854 101.208 2.9083 99.8652 4.23872C96.4257 7.64756 89.3812 24.3116 80.6568 29.4678Z" fill="#EF7F25"/>
<path d="M103.654 32.282C103.458 32.8154 103.237 33.2875 102.998 33.6921L84.4641 20.3817C93.1272 12.5954 98.6451 5.48953 100.717 6.09037C101.042 6.18233 101.41 6.51954 101.79 7.07746C102.814 8.57955 103.936 11.7248 104.604 16.2801C105.414 21.7735 105.058 28.4992 103.654 32.282Z" fill="#FFF3E9"/>
<path d="M103.654 32.282C103.458 32.8154 103.237 33.2875 102.998 33.6921L84.4641 20.3817C93.1272 12.5954 98.6451 5.48953 100.717 6.09037C101.042 6.18233 101.41 6.51954 101.79 7.07746C101.116 7.5005 100.251 8.43241 99.1479 10.2349C95.6839 15.9122 96.3583 21.2707 98.8475 26.01C99.5648 27.3894 101.754 30.0626 103.654 32.282Z" fill="#F9D3B7"/>
<path d="M67.7144 24.1277L51.9149 33.8699L30.5361 47.0515C24.6135 41.4049 18.5132 22.8402 22.1121 15.3481C23.1973 13.0858 25.1715 11.8351 28.2983 12.252C36.1643 13.3065 50.0939 23.8212 67.7144 24.1277Z" fill="#FAA327"/>
<g opacity="0.5">
<path d="M67.7145 24.1277L64.8758 25.8812C48.5735 24.6182 35.6923 15.1335 28.237 14.1403C25.1102 13.7234 23.1422 14.9741 22.0508 17.2365C21.4868 18.4197 21.1557 19.8789 21.0331 21.5159C21.0024 19.1064 21.3274 16.9728 22.106 15.3542C23.1912 13.0919 25.1654 11.8412 28.2922 12.2581C36.1644 13.3065 50.094 23.8211 67.7145 24.1277Z" fill="white"/>
</g>
<path d="M51.9149 33.8699L30.5361 47.0515C24.6135 41.4049 18.5132 22.8402 22.1121 15.3481C23.0747 14.7963 24.3622 14.6737 26.0421 15.5443C30.3338 17.7699 42.044 31.5585 51.9149 33.8699Z" fill="#EF7F25"/>
<path d="M30.812 43.4341C31.1614 43.8817 31.5109 44.274 31.8542 44.5867L45.557 26.3409C34.9627 21.5035 27.5748 16.3719 25.7784 17.5674C25.4964 17.7514 25.245 18.1805 25.055 18.8304C24.5277 20.5716 24.3989 23.9069 25.1224 28.4561C25.9869 33.9311 28.3412 40.246 30.812 43.4341Z" fill="#FFF3E9"/>
<path d="M30.8121 43.4341C31.1615 43.8817 31.511 44.274 31.8543 44.5867L45.5571 26.3409C34.9627 21.5035 27.5749 16.3719 25.7785 17.5674C25.4965 17.7514 25.2451 18.1805 25.0551 18.8304C25.8214 19.0327 26.9311 19.6581 28.5191 21.0498C33.5281 25.4335 34.4845 30.7491 33.5281 36.0156C33.2461 37.5422 31.9647 40.7487 30.8121 43.4341Z" fill="#F9D3B7"/>
<path d="M119.276 75.7813C111.392 94.2785 83.4097 99.0668 76.7575 100.085C70.1054 101.102 41.9764 104.903 28.9174 89.6189C23.5221 83.2979 23.8593 77.3692 25.0242 73.617C25.6925 71.4589 26.6305 70.0181 26.9187 69.6319C27.0597 60.791 22.9152 21.6201 63.7905 15.3664C104.666 9.10669 112.428 47.7258 115.211 56.1192C115.597 56.4012 116.928 57.4925 118.209 59.3502C120.441 62.5812 122.532 68.142 119.276 75.7813Z" fill="#FAA327"/>
<g opacity="0.5">
<path d="M108.988 38.8789C101.968 26.3778 89.0256 14.0422 64.1644 17.8434C39.2849 21.6508 30.634 37.3277 27.6789 51.3616C29.8615 36.9476 37.5498 19.3762 63.7843 15.3604C89.9943 11.3507 102.594 25.7892 108.988 38.8789Z" fill="white"/>
</g>
<path d="M119.282 75.7812C111.398 94.2784 83.4158 99.0667 76.7637 100.084C70.1115 101.102 41.9825 104.903 28.9235 89.6189C23.5282 83.2978 23.8654 77.3691 25.0303 73.617C28.01 68.516 33.8283 63.1943 44.484 66.223C48.0951 67.2469 50.1551 69.5337 56.3229 67.9274C58.6527 67.3204 62.7298 62.3727 70.8043 61.1404C78.8788 59.9019 84.2496 63.4027 86.6529 63.2862C93.0169 62.9674 94.2983 60.1778 97.4374 58.1178C106.701 52.042 113.838 55.3773 118.209 59.3563C120.441 62.5812 122.538 68.1359 119.282 75.7812Z" fill="white"/>
<g opacity="0.2">
<path d="M119.282 75.7814C111.398 94.2786 83.4158 99.0669 76.7636 100.085C70.1115 101.102 41.9825 104.904 28.9235 89.619C25.5269 85.64 24.405 81.8143 24.3253 78.5894C24.969 80.8517 26.2075 83.2857 28.3349 85.7749C41.3939 101.066 69.5229 97.2582 76.1751 96.2405C82.8272 95.2227 110.809 90.4344 118.694 71.9372C119.981 68.9208 120.429 66.2293 120.367 63.8811C121.262 66.9834 121.33 70.9685 119.282 75.7814Z" fill="#003580"/>
</g>
<path d="M72.6927 70.3308L72.5762 70.3676L72.57 70.3308H72.6927Z" fill="#512717"/>
<path d="M72.8092 70.2941L72.8153 70.3309H72.6927L72.8092 70.2941Z" fill="#512717"/>
<path d="M108.413 73.5375C114.481 72.6087 118.862 68.3365 118.197 63.9953C117.533 59.6541 112.075 56.8878 106.007 57.8166C99.9383 58.7455 95.5576 63.0177 96.222 67.3589C96.8865 71.7001 102.345 74.4664 108.413 73.5375Z" fill="#FF8080"/>
<path d="M39.6462 84.0624C45.7145 83.1336 50.0952 78.8614 49.4307 74.5202C48.7662 70.179 43.3082 67.4127 37.2399 68.3415C31.1716 69.2704 26.7909 73.5426 27.4554 77.8838C28.1198 82.225 33.5779 84.9913 39.6462 84.0624Z" fill="#FF8080"/>
<path d="M46.544 43.1214C45.9983 41.4967 50.1428 35.4392 53.3616 36.4325C56.5743 37.4257 56.654 41.0614 54.9925 42.3182C52.583 44.1514 47.0957 44.7461 46.544 43.1214Z" fill="#FFF3E9"/>
<path d="M88.5352 36.6962C88.572 34.9856 82.8027 30.4425 80.0315 32.3554C77.2603 34.2683 78.2719 37.7568 80.2339 38.4619C83.0848 39.4796 88.4984 38.4067 88.5352 36.6962Z" fill="#FFF3E9"/>
<path d="M80.5955 69.1475C79.0566 71.7225 78.8788 74.0155 78.3883 75.9651C78.2964 76.3453 78.186 76.7131 78.0511 77.0626C76.9537 79.9871 74.2131 80.5327 73.7778 80.5818C73.1831 80.6492 70.5468 80.968 68.6523 78.5034C68.4193 78.2029 68.2048 77.8841 68.0024 77.5469C66.954 75.8302 66.0834 73.7028 63.8517 71.7102C65.9302 68.8777 72.0182 69.0862 72.0182 69.0862C72.0182 69.0862 77.763 67.0629 80.5955 69.1475Z" fill="#512717"/>
<path d="M80.197 70.3248C78.7685 72.7097 78.6091 74.8372 78.1493 76.6458C78.1002 76.8604 78.0389 77.075 77.9715 77.2835C77.9347 77.4122 77.8856 77.541 77.8427 77.6636C76.825 80.3735 74.2867 80.8824 73.8821 80.9253C73.3303 80.9866 70.884 81.2809 69.1244 78.994C69.0447 78.8836 68.9589 78.7733 68.8853 78.6568C68.7627 78.479 68.6401 78.2951 68.5236 78.105C67.5488 76.5171 66.7456 74.5429 64.6733 72.6975C66.6046 70.0734 72.2451 70.2696 72.2451 70.2696C72.2451 70.2696 77.573 68.3935 80.197 70.3248Z" fill="#003580"/>
<path d="M77.9714 77.2834C77.9346 77.4121 77.8856 77.5409 77.8427 77.6635C76.8249 80.3734 74.2867 80.8823 73.882 80.9252C73.3303 80.9865 70.884 81.2808 69.1244 78.9939C69.0447 78.8835 68.9589 78.7732 68.8853 78.6567C69.4616 77.8658 70.3383 77.2956 71.3806 77.1362C72.0611 77.032 72.7294 77.1178 73.3303 77.3569C73.833 76.9523 74.4461 76.6703 75.1266 76.566C76.175 76.4066 77.1866 76.6948 77.9714 77.2834Z" fill="#FF8080"/>
<path d="M75.1328 76.5661C75.1328 76.5661 73.8085 76.8665 73.5878 78.2092C73.5694 78.3379 73.3977 78.3624 73.3426 78.2459C72.7295 77.032 71.3806 77.1424 71.3806 77.1424L71.7976 75.4931L73.0667 75.5912L74.25 75.1191L75.1328 76.5661Z" fill="#003580"/>
<path d="M73.1647 82.0042C71.1905 82.0042 69.4861 81.1766 68.2967 79.6315C67.7878 78.9755 67.3893 78.2582 66.9663 77.498C66.2244 76.1675 65.458 74.7942 63.9805 73.476C63.582 73.1204 63.5206 72.5196 63.8333 72.0843C65.875 69.307 70.8962 69.2089 72.0856 69.2273C73.2137 68.8533 78.0327 67.4431 80.8162 69.4847C81.2454 69.8036 81.368 70.3983 81.0921 70.8581C80.0866 72.5441 79.7678 74.0769 79.4551 75.5606C79.2773 76.425 79.1056 77.2405 78.8113 78.0314C77.4932 81.5322 74.1334 81.9429 73.9924 81.9613C73.7104 81.992 73.4345 82.0042 73.1647 82.0042ZM66.1508 72.6913C67.3893 73.9972 68.125 75.3092 68.781 76.4925C69.1673 77.1853 69.529 77.8352 69.9398 78.3686C70.8594 79.5641 72.1408 80.0791 73.741 79.9013C73.7778 79.8952 75.9911 79.6254 76.8617 77.3018C77.1008 76.6641 77.2541 75.9223 77.4196 75.1375C77.6955 73.8194 77.9959 72.3602 78.7807 70.7539C76.8249 70.0856 73.7533 70.8397 72.5884 71.2505C72.4658 71.2934 72.337 71.3118 72.2083 71.3057C70.9759 71.2689 67.8185 71.4651 66.1508 72.6913Z" fill="#003580"/>
<path d="M82.0179 66.5113C81.5703 67.3267 81.0676 69.9876 79.2344 71.3977C77.107 73.0286 74.4277 72.3358 73.0176 70.9992C72.4106 70.4229 72.0673 69.4787 71.9815 68.9147L71.7056 67.106L71.9815 68.9147C72.0673 69.4787 72.0244 70.4781 71.6136 71.2138C70.6694 72.9121 68.3213 74.3713 65.8014 73.4577C63.631 72.6668 62.3558 70.2696 61.6814 69.632C61.6814 69.632 63.9989 62.2687 70.7982 61.2264C77.6097 60.178 82.0179 66.5113 82.0179 66.5113Z" fill="white"/>
<path d="M82.4778 66.7625C82.1344 69.9813 80.4668 73.0652 76.9047 73.4147C74.0293 73.6783 71.1109 71.8206 70.8043 68.8164C70.7492 68.4853 70.6143 67.6147 70.5591 67.2714C70.4549 66.6338 70.8902 66.0329 71.5278 65.9349C72.1654 65.8306 72.7663 66.2659 72.8644 66.9036C72.8705 66.9036 73.0115 67.9397 73.0176 67.9458C73.0422 68.1236 73.1096 68.5528 73.1341 68.7183C73.4468 70.6005 72.5026 72.5625 70.9515 73.6293C68.9283 75.2049 65.8199 75.1804 63.8641 73.5189C62.6563 72.5625 61.9144 71.2259 61.2952 69.9016C61.1726 69.6441 61.2829 69.3314 61.5404 69.2088C61.7121 69.1291 61.9083 69.1475 62.0554 69.2456C62.4294 69.497 62.6747 69.7422 62.9383 69.9874C63.6004 70.6067 64.3852 71.4098 65.0964 71.8881C66.0038 72.5441 67.0828 72.82 68.1558 72.5502C69.6395 72.1333 71.0189 70.901 70.8595 69.2456C70.8289 68.9881 70.7553 68.5651 70.7185 68.3076L70.553 67.2775L72.8644 66.9219L73.0176 67.952C73.0422 68.1298 73.1096 68.5589 73.1341 68.7245C73.4775 70.9684 76.4265 71.8451 78.2412 70.7906C79.259 70.202 79.8721 69.172 80.4668 68.1236C80.7917 67.5228 81.1289 66.8361 81.5704 66.2598C81.9382 65.8 82.6433 66.1985 82.4778 66.7625Z" fill="#003580"/>
<path d="M77.0212 63.3845C76.402 66.591 72.006 69.0189 72.006 69.0189C72.006 69.0189 67.089 68.0195 65.5317 65.1379C64.422 63.0779 69.8479 61.8885 70.8902 61.7291C71.9325 61.5697 77.4626 61.0915 77.0212 63.3845Z" fill="#003580"/>
<g opacity="0.5">
<path d="M73.4407 62.4771C73.1096 63.317 71.1722 63.5929 71.1722 63.5929C71.1722 63.5929 69.2409 63.9056 68.6769 63.2005C68.2722 62.6978 70.5284 62.2625 70.9576 62.195C71.3929 62.1337 73.6798 61.8762 73.4407 62.4771Z" fill="white"/>
</g>
<path d="M90.225 64.8341C93.9195 64.0409 96.112 59.6595 95.1219 55.0479C94.1319 50.4363 90.3342 47.3408 86.6397 48.134C82.9451 48.9272 80.7527 53.3086 81.7427 57.9202C82.7328 62.5318 86.5304 65.6272 90.225 64.8341Z" fill="#003580"/>
<path d="M86.5059 58.6498C87.7504 58.3976 88.4578 56.7054 88.0859 54.8702C87.7141 53.035 86.4037 51.7517 85.1592 52.0038C83.9147 52.256 83.2073 53.9482 83.5792 55.7834C83.9511 57.6186 85.2614 58.902 86.5059 58.6498Z" fill="white"/>
<g opacity="0.35">
<path d="M92.8787 59.7849C93.2337 58.6294 93.0361 57.5436 92.4373 57.3596C91.8385 57.1756 91.0653 57.9632 90.7103 59.1187C90.3553 60.2742 90.5529 61.3601 91.1517 61.5441C91.7505 61.728 92.5237 60.9405 92.8787 59.7849Z" fill="white"/>
</g>
<path d="M53.3608 70.4686C57.1234 70.1203 59.8211 66.0306 59.3862 61.3341C58.9514 56.6376 55.5487 53.1128 51.7861 53.4611C48.0235 53.8095 45.3258 57.8992 45.7607 62.5957C46.1955 67.2922 49.5982 70.817 53.3608 70.4686Z" fill="#003580"/>
<path d="M55.0742 63.4501C56.3371 63.3184 57.2035 61.7019 57.0093 59.8395C56.8151 57.9771 55.6339 56.5741 54.371 56.7058C53.1081 56.8375 52.2417 58.454 52.4359 60.3163C52.6301 62.1787 53.8113 63.5817 55.0742 63.4501Z" fill="white"/>
<g opacity="0.35">
<path d="M51.5061 67.609C52.0224 67.2542 51.8859 66.159 51.2014 65.1627C50.5168 64.1663 49.5434 63.6463 49.0271 64.001C48.5108 64.3557 48.6472 65.451 49.3317 66.4473C50.0163 67.4436 50.9898 67.9637 51.5061 67.609Z" fill="white"/>
</g>
<g opacity="0.2">
<path d="M97.8481 199.088C143.604 199.088 180.696 197.208 180.696 194.888C180.696 192.569 143.604 190.688 97.8481 190.688C52.0924 190.688 15 192.569 15 194.888C15 197.208 52.0924 199.088 97.8481 199.088Z" fill="#003580"/>
</g>
</svg>
