<svg width="150" height="198" viewBox="0 0 150 198" fill="none" xmlns="http://www.w3.org/2000/svg">
<path d="M125.428 140.961C123.607 165.776 116.756 177.623 112.443 182.728C110.627 184.872 107.54 185.416 105.086 184.05L99.5262 180.95C99.5199 180.95 99.5199 180.95 99.5199 180.95L103.385 101.782C110.716 101.289 117.06 102.44 120.88 103.408C123.183 103.99 124.859 105.976 125.049 108.342C126.086 121.138 126.093 131.91 125.428 140.961Z" fill="white"/>
<path d="M107.958 184.954C106.952 184.954 105.934 184.707 105.004 184.189L99.4757 181.108H99.3492L99.3556 180.944L103.233 101.637L103.372 101.624C110.627 101.137 116.921 102.238 120.919 103.25C123.284 103.851 125.005 105.888 125.207 108.323C126.175 120.233 126.308 131.221 125.593 140.968C123.746 166.162 116.643 178.009 112.569 182.829C111.386 184.214 109.691 184.954 107.958 184.954ZM99.6718 180.855L105.156 183.91C107.553 185.245 110.564 184.701 112.316 182.626C116.364 177.838 123.43 166.054 125.264 140.949C125.979 131.214 125.846 120.246 124.878 108.348C124.688 106.046 123.063 104.123 120.83 103.554C116.877 102.554 110.678 101.46 103.524 101.928L99.6718 180.855Z" fill="#003580"/>
<g opacity="0.3">
<path d="M125.428 140.961C123.499 142.208 121.874 143.156 120.773 143.764C119.824 144.289 119.192 145.237 119.059 146.313C117.655 157.496 114.024 175.238 109.451 178.49C104.738 181.836 99.7476 180.988 99.5199 180.95C99.5136 180.95 99.5136 180.95 99.5136 180.95L103.378 101.782C110.709 101.289 117.054 102.44 120.874 103.408C123.177 103.99 124.853 105.976 125.043 108.342C126.086 121.138 126.093 131.91 125.428 140.961Z" fill="#003580"/>
</g>
<path d="M44.2556 127.539L43.3575 129.228C40.8843 133.884 35.2168 135.863 30.4095 133.7C13.4134 126.04 6.55041 110.72 7.41066 101.656C7.62572 99.3663 8.33415 97.4687 9.49801 96.2036C16.0004 89.1256 24.0969 95.8051 27.6137 102.51C29.6378 106.356 34.8752 110.455 39.6445 113.598C40.043 113.864 40.4352 114.117 40.821 114.364C45.2234 117.185 46.7035 122.922 44.2556 127.539Z" fill="white"/>
<path d="M34.4642 134.731C33.0789 134.731 31.6747 134.447 30.3401 133.846C20.5738 129.443 15.0201 122.96 12.0789 118.292C8.5936 112.763 6.78456 106.539 7.25263 101.643C7.47402 99.2904 8.20775 97.3738 9.37794 96.1025C11.5349 93.7558 14.0017 92.7374 16.6963 93.0916C21.5668 93.7305 25.6973 98.525 27.753 102.44C29.3976 105.571 33.5407 109.386 39.7268 113.472C40.119 113.737 40.5112 113.99 40.9033 114.237C45.3374 117.077 46.8681 122.953 44.3949 127.615L43.4967 129.304C41.6687 132.739 38.1265 134.731 34.4642 134.731ZM15.6716 93.3383C13.4641 93.3383 11.4337 94.3377 9.61198 96.3112C8.48607 97.532 7.77763 99.3853 7.5689 101.669C7.11347 106.495 8.89721 112.643 12.3508 118.121C15.2731 122.751 20.7825 129.19 30.4792 133.555C35.1853 135.674 40.7832 133.738 43.2247 129.152L44.1229 127.463C46.5266 122.947 45.0401 117.248 40.7452 114.496C40.3594 114.25 39.9609 113.99 39.5687 113.725C33.2434 109.55 29.1825 105.799 27.4873 102.58C25.3051 98.4302 21.1177 93.9771 16.671 93.3952C16.3231 93.3573 15.9942 93.3383 15.6716 93.3383Z" fill="#003580"/>
<g opacity="0.3">
<path d="M44.2558 127.539L43.3576 129.228C40.8844 133.884 35.2169 135.864 30.4096 133.7C13.4135 126.04 6.55054 110.72 7.41078 101.656C8.7138 112.65 16.2599 118.76 22.5093 121.98C26.3678 123.966 31.156 122.783 33.5154 119.139C35.6154 115.907 38.4428 114.206 39.6383 113.598C40.0368 113.864 40.429 114.117 40.8148 114.364C45.2236 117.185 46.7037 122.922 44.2558 127.539Z" fill="#003580"/>
</g>
<path d="M14.5901 122.182L14.1347 120.341C26.6146 117.248 29.3598 106.438 29.4673 105.983L31.3143 106.425C31.1941 106.925 28.2212 118.804 14.5901 122.182Z" fill="#003580"/>
<path d="M148.307 112.833C140.54 133.295 112.436 143.757 112.436 143.757C110.368 184.183 86.7998 189.23 86.7998 189.23C85.4715 192.146 83.8459 194.113 82.0685 195.366C80.6579 196.359 79.1399 196.903 77.5901 197.112C69.0699 198.244 59.4428 189.23 59.4428 189.23C50.3849 187.839 38.5376 182.842 38.5376 182.842C16.1397 191.254 0.452861 173.101 1.15497 162.721C1.2878 160.773 1.98991 159.103 3.34353 157.926C11.908 150.469 16.7595 162.923 16.7595 162.923C13.6222 140.968 33.0789 139.747 34.3566 127.09C35.0587 120.183 37.3801 116.331 39.3409 114.262C40.9792 112.542 42.3708 112.049 42.3708 112.049C77.3941 99.6763 111.304 113.447 111.304 113.447C112.803 113.13 114.429 112.479 116.111 111.6C122.386 108.336 129.344 102.01 132.557 98.9236C134.626 96.9311 137.542 96.0139 140.344 96.6148C141.501 96.8615 142.513 97.3296 143.405 97.9432C146.751 100.239 147.833 104.629 148.579 107.513C149.028 109.272 148.946 111.131 148.307 112.833Z" fill="white"/>
<path d="M76.0909 197.371C68.2665 197.371 59.993 189.951 59.3731 189.388C50.7264 188.047 39.4483 183.404 38.5375 183.018C25.0203 188.066 15.3299 183.12 10.7567 179.717C4.64011 175.169 0.629856 168.173 1.00305 162.714C1.14221 160.665 1.9139 158.97 3.24221 157.812C5.57626 155.782 7.8597 155.023 10.0293 155.56C13.407 156.395 15.5892 160.089 16.4748 161.886C15.0706 149.475 21.1239 143.839 26.4814 138.849C30.1944 135.395 33.6986 132.131 34.2047 127.071C34.9194 120.018 37.3357 116.153 39.2333 114.148C40.8779 112.422 42.2631 111.915 42.32 111.896C60.4421 105.495 78.2479 106.216 89.994 107.95C102.24 109.752 110.627 113.003 111.317 113.275C112.708 112.972 114.296 112.365 116.035 111.454C122.184 108.253 128.958 102.156 132.443 98.8031C134.6 96.7284 137.56 95.8492 140.375 96.4501C141.488 96.6904 142.538 97.1395 143.494 97.7974C146.821 100.081 147.94 104.414 148.687 107.279L148.731 107.462C149.205 109.29 149.104 111.163 148.453 112.883C144.423 123.491 134.859 131.366 127.541 136.097C120.128 140.892 113.461 143.529 112.582 143.865C111.494 164.732 104.568 175.991 98.9506 181.76C93.2199 187.649 87.6346 189.186 86.9072 189.363C85.6485 192.095 84.0482 194.157 82.1569 195.492C80.8033 196.447 79.2726 197.042 77.609 197.263C77.103 197.339 76.597 197.371 76.0909 197.371ZM38.5375 182.677L38.5944 182.702C38.7146 182.753 50.524 187.705 59.4617 189.078L59.5123 189.084L59.5502 189.116C59.6451 189.205 69.2153 198.06 77.5647 196.953C79.1777 196.738 80.6578 196.162 81.9735 195.239C83.8394 193.93 85.4144 191.887 86.6542 189.167L86.6858 189.097L86.7617 189.078C86.8187 189.065 92.6886 187.743 98.7356 181.526C104.321 175.782 111.203 164.567 112.265 143.744L112.272 143.643L112.367 143.605C112.645 143.498 140.495 132.928 148.149 112.769C148.775 111.112 148.87 109.303 148.415 107.538L148.37 107.355C147.637 104.534 146.536 100.271 143.304 98.0567C142.38 97.4242 141.368 96.9814 140.299 96.7537C137.592 96.1718 134.733 97.0257 132.658 99.0245C129.154 102.39 122.361 108.512 116.174 111.726C114.391 112.656 112.759 113.282 111.329 113.585L111.285 113.598L111.241 113.579C111.159 113.547 102.626 110.119 89.9371 108.253C78.2289 106.526 60.48 105.812 42.4212 112.187C42.4086 112.194 41.0423 112.693 39.4547 114.363C37.5887 116.331 35.2167 120.138 34.5083 127.096C33.9833 132.277 30.4411 135.578 26.6839 139.076C21.2314 144.149 15.0516 149.905 16.9112 162.898L17.1073 164.257L16.6076 162.98C16.5823 162.917 14.1977 156.907 9.94073 155.864C7.87235 155.358 5.69011 156.092 3.4383 158.046C2.17323 159.147 1.4395 160.766 1.30666 162.727C0.939796 168.084 4.89945 174.96 10.9338 179.451C15.4627 182.822 25.0646 187.724 38.4742 182.689L38.5375 182.677Z" fill="#003580"/>
<g opacity="0.3">
<path d="M148.864 112.833C141.096 133.295 112.43 143.757 112.43 143.757C110.362 184.182 86.7935 189.23 86.7935 189.23C85.4652 192.146 83.8396 194.113 82.0621 195.366C80.5251 195.966 79.0323 196.548 77.5838 197.111C69.0636 198.244 59.4365 189.23 59.4365 189.23C49.3349 178.547 53.2819 170.874 53.2819 170.874C57.463 194.455 80.5757 189.692 82.6694 188.3C83.9028 187.478 83.8712 185.27 83.6371 183.607C83.5106 182.715 84.3266 181.969 85.1995 182.171C90.5507 183.398 94.4598 180.912 97.2492 177.357C101.987 171.317 102.506 163.024 98.9254 156.231C96.7053 152.018 95.2504 147.571 94.289 143.549C92.5116 136.072 85.6802 130.917 78.0013 131.119C76.3377 131.164 75.2687 131.157 75.2687 131.157C44.4075 130.341 39.3979 114.838 39.3979 114.838L39.3346 114.262C40.9729 112.542 42.3644 112.048 42.3644 112.048C77.3877 99.6761 111.298 113.446 111.298 113.446C112.797 113.13 114.422 112.479 116.105 111.599C116.01 111.89 115.909 112.194 115.801 112.504C113.543 119.139 112.538 124.617 112.133 128.722C111.722 132.84 115.979 135.8 119.691 133.985C152.969 117.741 143.399 97.9366 143.399 97.9366C146.745 100.233 148.383 104.623 149.13 107.507C149.591 109.272 149.509 111.131 148.864 112.833Z" fill="#003580"/>
</g>
<g opacity="0.3">
<path d="M79.8292 178.49C79.8292 178.49 82.4289 170.868 69.8921 161.974L69.0192 165.32C69.0192 165.32 76.9828 168.679 79.8292 178.49Z" fill="#003580"/>
<path d="M79.8167 179.015L79.6775 178.534C76.8817 168.9 69.0383 165.504 68.9561 165.466L68.8296 165.415L69.791 161.715L69.9808 161.848C82.4733 170.709 80.0064 178.464 79.9748 178.54L79.8167 179.015ZM69.2028 165.232C70.2148 165.706 77.0335 169.185 79.7977 177.857C80.0823 175.934 80.114 169.501 69.9808 162.234L69.2028 165.232Z" fill="#003580"/>
</g>
<g opacity="0.3">
<path d="M93.0682 158.856C93.0682 158.856 86.9706 149.57 76.6034 153.315C76.6034 153.315 70.2338 156.572 69.0193 165.327C69.0193 165.327 56.4509 159.558 52.7759 172.48C52.7759 172.48 50.7328 181.108 59.4428 189.236C50.3849 187.845 38.5376 182.848 38.5376 182.848C16.1396 191.26 0.452823 173.107 1.15493 162.727C3.90012 168.242 9.73206 176.687 20.1878 178.262C22.2752 178.578 23.8692 176.421 22.971 174.505C22.971 174.505 19.1378 163.366 20.9216 154.011C20.9216 154.011 20.2321 166.269 34.9258 173.024C40.4668 175.574 46.9945 173.467 50.1066 168.224C52.7506 163.777 57.7539 159.501 67.1344 161.057C67.1344 161.057 70.8979 150.108 78.3492 149.342C87.6663 148.381 92.113 153.043 93.0682 158.856Z" fill="#003580"/>
</g>
<path d="M38.2783 183.594C37.7406 183.411 37.2283 183.208 36.7096 182.999C36.1909 182.797 35.6849 182.576 35.1789 182.342C34.1668 181.88 33.1738 181.386 32.1997 180.849C31.7126 180.577 31.2319 180.298 30.7575 180.001C30.5235 179.849 30.2831 179.71 30.0491 179.558L29.3596 179.084C28.4614 178.426 27.6012 177.686 26.9117 176.807C27.8921 177.351 28.8472 177.851 29.815 178.338C30.7828 178.831 31.7569 179.286 32.75 179.723C33.743 180.159 34.7488 180.564 35.7545 180.956C36.7602 181.348 37.7849 181.741 38.7843 182.101L38.2783 183.594Z" fill="#003580"/>
<path d="M17.6892 162.74C17.7145 162.885 17.7714 163.113 17.8157 163.309C17.8663 163.511 17.9106 163.72 17.9675 163.922C18.075 164.333 18.1952 164.757 18.328 165.175C18.4609 165.592 18.6064 166.01 18.7645 166.433C18.9037 166.864 19.0491 167.3 19.144 167.8C18.7012 167.559 18.3217 167.256 17.9928 166.908C17.6576 166.56 17.3793 166.174 17.1009 165.782C16.829 165.383 16.5823 164.966 16.3672 164.53C16.2597 164.308 16.1585 164.087 16.0699 163.859C15.975 163.619 15.9055 163.41 15.8359 163.113L17.6892 162.74Z" fill="#003580"/>
<path d="M58.9114 189.799C58.437 189.356 58.0195 188.933 57.602 188.477C57.1845 188.028 56.7924 187.56 56.4129 187.086C55.6538 186.13 54.9454 185.125 54.3192 184.068C53.0794 181.949 52.0737 179.622 51.6752 177.117C51.1945 174.618 51.555 171.873 52.7062 169.545C53.2818 168.382 54.0535 167.313 54.9644 166.389C55.8815 165.472 56.9379 164.694 58.0891 164.093C59.2466 163.505 60.499 163.1 61.7894 162.91C63.0797 162.733 64.4017 162.765 65.6731 163.018C66.9508 163.258 68.178 163.764 69.2659 164.371C70.3539 164.985 71.3659 165.668 72.34 166.414C73.3078 167.167 74.2123 167.989 75.0662 168.869C75.9075 169.761 76.6792 170.716 77.356 171.734C78.6906 173.777 79.6268 176.111 79.8229 178.502C79.0891 176.225 77.9 174.195 76.4135 172.436C74.9271 170.671 73.1813 169.153 71.2837 167.85C70.3475 167.192 69.3608 166.585 68.3551 166.079C67.3557 165.567 66.3563 165.175 65.2936 164.998C64.2373 164.814 63.1556 164.808 62.0993 164.972C61.043 165.156 60.0183 165.504 59.0632 165.991C58.1144 166.49 57.2415 167.142 56.4888 167.907C55.736 168.673 55.1225 169.564 54.6354 170.52C54.1484 171.475 53.8384 172.512 53.6866 173.568C53.5412 174.637 53.5412 175.7 53.7372 176.801L53.7942 177.212C53.8132 177.351 53.8511 177.484 53.8827 177.617L54.0662 178.433C54.1357 178.705 54.2243 178.97 54.3065 179.236C54.3888 179.502 54.4647 179.774 54.5722 180.033L54.8695 180.824L55.211 181.602L55.3818 181.987L55.5779 182.367C55.7107 182.62 55.8309 182.879 55.9701 183.126C56.5204 184.125 57.1403 185.093 57.8108 186.029C58.146 186.497 58.5002 186.953 58.8608 187.402C59.215 187.845 59.6071 188.294 59.974 188.686L58.9114 189.799Z" fill="#003580"/>
<path d="M68.2349 165.2C68.3614 164.447 68.5322 163.764 68.722 163.062C68.9181 162.366 69.1395 161.677 69.3925 161C69.9048 159.646 70.5247 158.324 71.328 157.091C71.7265 156.471 72.163 155.877 72.6627 155.32C72.903 155.035 73.175 154.776 73.4344 154.51C73.7127 154.264 73.9847 153.998 74.2883 153.777C75.4648 152.834 76.8817 152.164 78.3618 151.828C79.1018 151.683 79.8735 151.582 80.6009 151.588L81.7016 151.582C82.0684 151.582 82.4353 151.639 82.8022 151.658C83.5422 151.689 84.2633 151.86 84.9907 151.993C85.7055 152.202 86.4202 152.404 87.0907 152.733C88.4443 153.346 89.6778 154.213 90.7025 155.25C91.7145 156.294 92.5811 157.496 93.0618 158.849C92.1194 157.78 91.082 156.876 89.9751 156.104C88.8681 155.326 87.6853 154.713 86.4519 154.251C85.8446 153.992 85.2058 153.84 84.5796 153.637C83.9281 153.517 83.2955 153.327 82.6314 153.283C82.3025 153.252 81.9735 153.195 81.6383 153.188L80.6389 153.176C80.4744 153.176 80.3036 153.163 80.1392 153.176L79.6585 153.22C79.494 153.226 79.3359 153.252 79.1777 153.283L78.7033 153.365C77.4573 153.656 76.2744 154.207 75.2624 155.016C75.003 155.206 74.769 155.434 74.5223 155.649C74.2946 155.883 74.0542 156.104 73.8455 156.364C73.4091 156.851 73.0106 157.388 72.6563 157.945C71.9289 159.058 71.3533 160.285 70.8726 161.55C70.6386 162.183 70.4235 162.828 70.2401 163.48C70.0566 164.125 69.8985 164.808 69.791 165.434L68.2349 165.2Z" fill="#003580"/>
<path d="M92.6697 186.238C91.3983 177.357 87.2299 170.551 80.2784 166.022C75.0664 162.626 70.1579 161.841 70.1073 161.835L70.3413 160.273C70.5501 160.304 75.5914 161.095 81.0817 164.662C86.1546 167.958 92.5559 174.334 94.2321 186.017L92.6697 186.238Z" fill="#003580"/>
<path d="M86.028 189.331C86.047 188.907 86.0344 188.446 86.009 187.997C85.9837 187.548 85.9458 187.092 85.8889 186.643C85.7687 185.745 85.5979 184.84 85.3196 183.961C85.56 184.353 85.794 184.758 86.009 185.169C86.2241 185.587 86.4202 186.01 86.6036 186.441C86.7871 186.871 86.9642 187.313 87.1223 187.756C87.2804 188.205 87.4322 188.642 87.5714 189.129L86.028 189.331Z" fill="#003580"/>
<path d="M35.8493 182.639C23.1607 173.372 20.2954 162.689 20.1309 155.358C19.9475 147.413 22.7433 141.746 22.8571 141.505L24.274 142.214L23.5656 141.86L24.274 142.214C24.2487 142.271 21.5225 147.824 21.7122 155.389C21.9716 165.504 27.0382 174.239 36.7855 181.355L35.8493 182.639Z" fill="#003580"/>
<path d="M140.344 126.223C127.465 119.746 123.936 106.602 123.79 106.046L125.625 105.571C125.656 105.698 129.11 118.443 141.198 124.528L140.344 126.223Z" fill="#003580"/>
<path d="M112.632 144.51C112.386 144.586 112.133 144.63 111.873 144.662C111.614 144.693 111.355 144.719 111.089 144.725C110.823 144.738 110.558 144.738 110.286 144.719C110.014 144.693 109.735 144.662 109.444 144.573C109.653 144.352 109.875 144.181 110.096 144.023C110.324 143.871 110.551 143.732 110.785 143.612C111.019 143.485 111.253 143.371 111.494 143.27C111.734 143.169 111.975 143.074 112.228 143.017L112.632 144.51Z" fill="#003580"/>
<path d="M77.0397 145.067L67.6845 160.361C66.8686 161.69 65.2556 162.297 63.7691 161.81C57.564 159.805 41.3079 154.669 30.7004 152.41C28.8724 152.025 27.6958 150.222 28.1007 148.4C28.5118 146.553 29.3531 144.017 31.0546 140.936C32.6296 138.084 34.9447 134.756 38.3414 131.081C38.9992 130.373 39.929 129.981 40.8905 130.006C45.6155 130.12 60.5243 131.183 74.7752 139.735C75.1674 139.969 75.5532 140.209 75.9391 140.449C77.5141 141.43 78.0011 143.492 77.0397 145.067Z" fill="white"/>
<path d="M64.8191 162.132C64.4522 162.132 64.0853 162.075 63.7248 161.955C57.3046 159.881 41.2256 154.808 30.6687 152.562C29.7325 152.366 28.9355 151.816 28.4232 151.012C27.9108 150.222 27.7464 149.279 27.9488 148.362C28.4738 145.996 29.4732 143.473 30.9217 140.854C32.7118 137.609 35.1723 134.282 38.2338 130.967C38.9169 130.227 39.8973 129.823 40.903 129.842C45.2296 129.949 60.4736 130.955 74.87 139.589C75.2622 139.823 75.648 140.063 76.0402 140.304C77.6721 141.335 78.1845 143.504 77.1851 145.143L67.8363 160.431C67.1658 161.519 66.0209 162.132 64.8191 162.132ZM40.8082 130.158C39.9163 130.158 39.0624 130.531 38.4615 131.183C35.419 134.484 32.9711 137.786 31.1937 141.012C29.7578 143.599 28.7711 146.098 28.2524 148.432C28.069 149.267 28.2208 150.121 28.6825 150.842C29.1506 151.569 29.878 152.075 30.7319 152.252C41.3015 154.504 57.3932 159.577 63.8197 161.658C65.2366 162.12 66.7736 161.55 67.5516 160.273L76.9004 144.984C77.8113 143.492 77.3495 141.512 75.8568 140.576C75.4709 140.335 75.0851 140.095 74.6929 139.861C60.3661 131.265 45.1916 130.259 40.8841 130.158C40.8588 130.158 40.8335 130.158 40.8082 130.158Z" fill="#003580"/>
<g opacity="0.3">
<path d="M77.0396 145.067L67.6845 160.361C66.8685 161.69 65.2556 162.297 63.7691 161.81C57.564 159.805 41.3079 154.669 30.7004 152.41C28.8723 152.025 27.6958 150.222 28.1006 148.4C28.5118 146.553 29.3531 144.017 31.0546 140.936C31.0735 142.714 31.6238 146.541 35.7859 148.463C41.1308 150.93 67.4505 160.001 74.7815 139.728C75.1737 139.962 75.5595 140.203 75.9454 140.443C77.514 141.43 78.0011 143.492 77.0396 145.067Z" fill="#003580"/>
</g>
<path d="M64.8129 162.929C64.3701 162.929 63.921 162.86 63.4782 162.721C57.0643 160.646 41.0107 155.579 30.498 153.346C29.3594 153.106 28.379 152.429 27.7528 151.449C27.1266 150.475 26.9242 149.324 27.1709 148.198C28.0248 144.346 30.5423 138.134 37.6456 130.443C38.4805 129.532 39.676 129.019 40.9158 129.057C45.489 129.165 61.5553 130.253 76.4515 139.646C78.4503 140.905 79.0765 143.561 77.8493 145.566L68.5005 160.855C67.6909 162.17 66.2867 162.929 64.8129 162.929ZM40.8146 130.949C40.1378 130.949 39.4989 131.227 39.0435 131.72C32.2248 139.108 29.8338 144.978 29.0305 148.603C28.8914 149.229 29.0052 149.874 29.3531 150.418C29.7073 150.968 30.2576 151.348 30.8965 151.487C41.4914 153.739 57.621 158.831 64.0665 160.912C65.1355 161.259 66.293 160.829 66.8812 159.868L76.2301 144.58C76.9195 143.454 76.5653 141.961 75.4394 141.252C60.9544 132.119 45.3182 131.062 40.8715 130.955C40.8525 130.949 40.8336 130.949 40.8146 130.949Z" fill="#003580"/>
<path d="M38.1577 154.188L36.6206 153.821C37.7086 149.254 40.8143 144.434 42.2375 142.391L39.1254 141.746C38.8661 141.695 38.651 141.512 38.5498 141.265C38.4486 141.018 38.4866 140.74 38.6384 140.519L46.0074 129.968L47.3041 130.873L40.6119 140.443L43.7429 141.088C44.0086 141.145 44.23 141.328 44.3249 141.581C44.4197 141.834 44.3818 142.119 44.2173 142.334C44.1731 142.404 39.4797 148.634 38.1577 154.188Z" fill="#003580"/>
<path d="M59.8219 152.537C63.2874 152.537 66.0967 149.728 66.0967 146.262C66.0967 142.797 63.2874 139.988 59.8219 139.988C56.3565 139.988 53.5472 142.797 53.5472 146.262C53.5472 149.728 56.3565 152.537 59.8219 152.537Z" fill="#465597"/>
<g opacity="0.6">
<path d="M54.496 148.16C54.496 144.694 57.3045 141.885 60.7707 141.885C62.7253 141.885 64.4647 142.777 65.6159 144.175C64.6735 141.904 62.4343 140.304 59.8219 140.304C56.3557 140.304 53.5472 143.112 53.5472 146.579C53.5472 148.09 54.0849 149.476 54.9768 150.563C54.6668 149.817 54.496 149.007 54.496 148.16Z" fill="white"/>
</g>
<g opacity="0.3">
<path d="M63.478 141.164C63.8385 141.955 64.0409 142.834 64.0409 143.764C64.0409 147.23 61.2325 150.038 57.7662 150.038C56.3999 150.038 55.1412 149.602 54.1102 148.862C55.0969 151.032 57.2791 152.537 59.8219 152.537C63.2882 152.537 66.0967 149.729 66.0967 146.262C66.0903 144.162 65.0593 142.303 63.478 141.164Z" fill="#003580"/>
</g>
<path d="M59.8221 153.321C55.9257 153.321 52.7567 150.152 52.7567 146.256C52.7567 142.36 55.9257 139.191 59.8221 139.191C63.7185 139.191 66.8874 142.36 66.8874 146.256C66.8811 150.152 63.7121 153.321 59.8221 153.321ZM59.8221 140.778C56.7986 140.778 54.338 143.239 54.338 146.262C54.338 149.286 56.7986 151.746 59.8221 151.746C62.8456 151.746 65.3061 149.286 65.3061 146.262C65.2998 143.239 62.8456 140.778 59.8221 140.778Z" fill="#003580"/>
<path d="M115.808 112.504C111.329 118.88 101.689 137.141 112.183 165.807C112.335 166.218 112.234 166.598 112 166.87C111.645 167.287 110.994 167.439 110.475 167.015C105.175 162.613 94.9213 150.582 97.7045 124.756C97.774 124.092 97.8563 123.428 97.9448 122.745C97.9448 122.745 103.302 116.223 109.988 113.434C112.133 112.542 113.708 111.859 114.859 111.353C115.573 111.036 116.257 111.865 115.808 112.504Z" fill="white"/>
<g opacity="0.3">
<path d="M115.807 112.504C111.329 118.88 101.689 137.141 112.183 165.807C112.335 166.218 112.234 166.598 112 166.87C108.938 163.277 102.676 153.176 103.138 130.936C103.201 127.779 100.842 125.104 97.7106 124.756C97.7802 124.092 97.8624 123.428 97.951 122.745C97.951 122.745 103.309 116.223 109.994 113.434C112.139 112.542 113.714 111.859 114.865 111.353C115.573 111.036 116.256 111.865 115.807 112.504Z" fill="#003580"/>
</g>
<path d="M111.121 168.179C110.659 168.179 110.197 168.021 109.811 167.699C106.921 165.282 102.853 160.893 99.9311 153.682C96.4269 145.041 95.4401 134.598 97.0025 122.624C97.0278 122.447 97.0974 122.283 97.2112 122.144C97.4389 121.872 102.796 115.407 109.621 112.561C111.525 111.77 113.157 111.074 114.473 110.493C115.188 110.176 116.004 110.372 116.503 110.973C116.997 111.58 117.028 112.415 116.579 113.054C112.095 119.43 102.778 137.306 113.043 165.422C113.366 166.307 113.062 167.262 112.297 167.806C111.937 168.053 111.525 168.179 111.121 168.179ZM111.026 166.244C111.057 166.269 111.114 166.313 111.203 166.25C111.298 166.181 111.272 166.105 111.26 166.073C100.949 137.831 109.906 119.506 114.669 112.472C113.448 113.004 112 113.624 110.349 114.313C104.612 116.704 99.7983 122.043 98.8432 123.149C95.4275 150 106.218 162.227 111.026 166.244Z" fill="#003580"/>
<path d="M109.988 105.812C109.988 105.812 111.791 111.966 111.178 114.838C110.57 117.71 98.0083 128.02 75.2941 128.02C52.5799 128.02 40.0178 117.71 39.4106 114.838C38.8033 111.966 40.5997 105.812 40.5997 105.812C40.5997 105.812 53.554 119.006 75.4016 119.006C97.2493 119.006 109.988 105.812 109.988 105.812Z" fill="white"/>
<path d="M75.2876 128.178C62.9722 128.178 54.1863 125.173 48.9869 122.65C42.7691 119.632 39.5495 116.286 39.2459 114.87C38.6323 111.991 40.3655 106.02 40.4414 105.767L40.5173 105.508L40.707 105.698C40.8335 105.831 53.87 118.842 75.3951 118.842C96.9265 118.842 109.742 105.831 109.868 105.698L110.058 105.502L110.134 105.761C110.21 106.014 111.936 111.985 111.329 114.863C111.032 116.28 107.812 119.626 101.588 122.643C96.3888 125.173 87.603 128.178 75.2876 128.178ZM40.6754 106.109C40.3465 107.298 39.0371 112.327 39.5621 114.806C40.1314 117.482 52.5544 127.862 75.2939 127.862C98.0334 127.862 110.456 117.482 111.026 114.806C111.551 112.333 110.241 107.304 109.912 106.115C108.224 107.741 95.6361 119.164 75.4077 119.164C55.1604 119.164 42.3769 107.722 40.6754 106.109Z" fill="#003580"/>
<g opacity="0.3">
<path d="M109.988 105.812C109.988 105.812 107.793 108.082 103.675 110.739C103.758 112.428 103.707 114.218 103.309 115.382C102.36 118.165 88.6465 126.881 66.0968 124.149C53.8826 122.669 44.9955 118.545 39.366 114.604C39.3786 114.686 39.3912 114.762 39.4102 114.838C40.0175 117.71 52.5795 128.02 75.2938 128.02C98.008 128.02 110.57 117.71 111.177 114.838C111.785 111.966 109.988 105.812 109.988 105.812Z" fill="#003580"/>
<path d="M75.2876 128.178C62.9722 128.178 54.1864 125.174 48.987 122.65C42.7692 119.633 39.5496 116.287 39.246 114.87C39.227 114.794 39.2143 114.712 39.2017 114.629L39.1448 114.262L39.4484 114.477C44.4074 117.944 53.0541 122.409 66.1033 123.991C88.6783 126.73 102.259 117.918 103.144 115.331C103.48 114.351 103.6 112.808 103.505 110.746L103.499 110.657L103.574 110.606C107.635 107.988 109.837 105.73 109.862 105.704L110.052 105.508L110.128 105.768C110.203 106.021 111.93 111.992 111.323 114.87C111.026 116.287 107.806 119.633 101.582 122.65C96.3889 125.174 87.603 128.178 75.2876 128.178ZM39.6065 114.965C40.5996 117.868 52.9782 127.862 75.294 127.862C98.0335 127.862 110.456 117.482 111.026 114.806C111.551 112.333 110.241 107.305 109.912 106.115C109.293 106.716 107.205 108.646 103.84 110.821C103.929 112.877 103.802 114.433 103.461 115.433C102.993 116.799 99.3934 119.74 92.8531 121.979C87.388 123.858 78.2985 125.787 66.078 124.301C53.2439 122.745 44.6415 118.418 39.6065 114.965Z" fill="#003580"/>
</g>
<path d="M75.2877 128.798C62.8584 128.798 53.9777 125.755 48.715 123.206C42.6174 120.252 39.0309 116.837 38.6388 114.996C37.9936 111.966 39.7647 105.85 39.8406 105.59C39.9165 105.325 40.1315 105.122 40.3972 105.053C40.6629 104.983 40.9475 105.065 41.1373 105.261C41.2638 105.388 54.1421 118.222 75.3889 118.222C96.6293 118.222 109.293 105.394 109.419 105.268C109.609 105.072 109.893 104.989 110.165 105.053C110.431 105.116 110.646 105.325 110.722 105.59C110.798 105.85 112.569 111.966 111.924 114.996C111.532 116.837 107.945 120.246 101.848 123.206C96.604 125.755 87.7232 128.798 75.2877 128.798ZM41.0171 107.248C40.4858 109.386 39.79 112.89 40.1695 114.674C40.3909 115.705 43.3195 118.855 49.4045 121.808C54.5153 124.288 63.162 127.242 75.3003 127.242C87.4386 127.242 96.079 124.288 101.196 121.808C107.275 118.861 110.21 115.711 110.431 114.674C110.811 112.883 110.121 109.392 109.584 107.254C106.168 110.271 93.9474 119.778 75.4142 119.778C56.8367 119.778 44.4517 110.252 41.0171 107.248Z" fill="#003580"/>
<path d="M112.183 104.97C112.183 104.97 107.844 98.1454 75.2876 98.1454C42.7311 98.1454 38.392 104.97 38.392 104.97C48.2215 113.674 61.1378 118.968 75.2876 119C89.4373 118.975 102.354 113.68 112.183 104.97Z" fill="#003580"/>
<g opacity="0.3">
<path d="M110.127 29.2626C109.255 29.0223 108.344 29.0729 107.395 29.446C95.6172 34.1394 87.9825 45.9298 84.706 51.9832C83.7066 53.8302 81.3409 54.4247 79.5825 53.2799C79.5825 53.2799 87.9382 33.4753 104.106 27.0235C106.345 26.1379 108.407 27.0867 110.127 29.2626Z" fill="white"/>
<path d="M81.5499 54.0328C80.8225 54.0328 80.1077 53.8241 79.4941 53.4256L79.374 53.3497L79.4309 53.2168C79.5131 53.0207 87.9954 33.2731 104.049 26.8719C106.238 25.999 108.388 26.7896 110.261 29.1616L110.577 29.5665L110.083 29.4336C109.229 29.1996 108.344 29.2565 107.458 29.6107C95.8641 34.2345 88.318 45.6644 84.858 52.072C84.3583 52.9891 83.4917 53.6659 82.4797 53.9253C82.1697 53.9948 81.8598 54.0328 81.5499 54.0328ZM79.7978 53.2168C80.5758 53.6786 81.5182 53.8177 82.3975 53.59C83.3336 53.3497 84.1053 52.7551 84.5607 51.9012C88.046 45.4557 95.6427 33.9499 107.338 29.2881C108.129 28.9719 108.92 28.877 109.691 28.9972C108.439 27.5613 106.548 26.2393 104.176 27.1818C88.9378 33.2541 80.5631 51.4837 79.7978 53.2168Z" fill="#003580"/>
</g>
<path d="M102.885 62.3442C101.436 59.6812 97.3439 56.7906 93.9282 54.7159C90.8415 52.8372 90.0192 48.7384 92.1002 45.7908C95.7626 40.5977 100.424 36.8089 103.612 34.5887C105.497 33.273 108.122 34.2851 108.641 36.5306C109.451 40.0032 110.089 45.3607 108.774 51.6481C107.351 58.4478 103.258 62.2303 103.258 62.2303" fill="#FF6C6C"/>
<path d="M102.74 62.4264C101.291 59.7635 97.0974 56.8412 93.8399 54.8614C92.3155 53.9379 91.2781 52.4641 90.9176 50.7183C90.557 48.9788 90.9365 47.1508 91.9612 45.696C95.6173 40.5092 100.26 36.7203 103.511 34.4495C104.441 33.8044 105.63 33.6589 106.687 34.0637C107.749 34.4748 108.54 35.3794 108.799 36.4863C109.596 39.9083 110.267 45.3164 108.932 51.6797C107.515 58.4541 103.41 62.3126 103.366 62.3505L103.138 62.1038C103.176 62.0659 107.205 58.277 108.603 51.6101C109.925 45.3101 109.261 39.9526 108.47 36.5622C108.236 35.5628 107.528 34.7405 106.566 34.3736C105.599 34.0004 104.555 34.127 103.701 34.7215C100.475 36.9733 95.864 40.7369 92.2332 45.8857C91.2591 47.2646 90.8986 48.9978 91.2401 50.6487C91.5817 52.3059 92.5685 53.6975 94.0106 54.5704C97.3061 56.5692 101.544 59.5294 103.031 62.262L102.74 62.4264Z" fill="#003580"/>
<path d="M99.5199 54.608C99.2732 55.7845 98.9443 56.8662 98.5774 57.8592C97.091 56.7143 95.4401 55.6327 93.9283 54.7155C90.8416 52.8369 90.0193 48.7381 92.094 45.7842C94.175 42.8303 96.5786 40.3318 98.8557 38.3203C99.1024 38.6556 99.2859 39.0477 99.3871 39.4905C100.197 42.9631 100.842 48.3206 99.5199 54.608Z" fill="#FF6C6C"/>
<path d="M98.6534 58.1313L98.47 57.9922C97.167 56.9928 95.611 55.9364 93.8399 54.8611C92.3155 53.9376 91.2781 52.4638 90.9176 50.718C90.557 48.9786 90.9365 47.1442 91.9612 45.6894C93.8082 43.0707 96.0917 40.5469 98.7483 38.1939L98.8875 38.0737L98.995 38.2255C99.2607 38.5924 99.4504 39.0036 99.5516 39.459C100.349 42.881 101.013 48.2891 99.6845 54.6461C99.4567 55.7467 99.1341 56.8473 98.7357 57.9226L98.6534 58.1313ZM98.8305 38.5734C96.2561 40.8758 94.0359 43.3364 92.2396 45.8855C91.2655 47.2644 90.9049 49.0039 91.2528 50.6548C91.6007 52.312 92.5811 53.7036 94.0233 54.5765C95.7248 55.6075 97.2302 56.6259 98.5016 57.5937C98.8622 56.6006 99.1468 55.5885 99.3619 54.5765C100.684 48.2828 100.02 42.9189 99.2354 39.5349C99.1468 39.187 99.014 38.8644 98.8305 38.5734Z" fill="#003580"/>
<g opacity="0.3">
<path d="M36.5891 32.0459C37.443 31.7423 38.3539 31.717 39.328 32.0206C51.4283 35.8095 59.9296 46.9863 63.6552 52.774C64.7937 54.5388 67.191 54.9562 68.8609 53.6848C68.8609 53.6848 59.0314 34.5634 42.4211 29.364C40.1187 28.6492 38.1325 29.7562 36.5891 32.0459Z" fill="white"/>
<path d="M66.6662 54.5955C66.4511 54.5955 66.236 54.5765 66.021 54.5386C64.9899 54.3552 64.0728 53.7479 63.5098 52.8687C59.5691 46.7458 51.1818 35.9168 39.2712 32.1849C38.3604 31.9003 37.4748 31.9066 36.6399 32.2039L36.1591 32.3747L36.4438 31.9509C38.1326 29.446 40.2137 28.4972 42.4655 29.1994C58.9556 34.3671 68.9053 53.4127 69.0065 53.6088L69.0698 53.7353L68.9559 53.8238C68.2981 54.3235 67.4885 54.5955 66.6662 54.5955ZM37.9619 31.6409C38.4236 31.6409 38.898 31.7168 39.3724 31.8623C51.3842 35.6259 59.8285 46.5244 63.7945 52.6853C64.3195 53.4949 65.1291 54.0389 66.0842 54.2034C66.9761 54.3615 67.9059 54.1527 68.646 53.6341C67.7478 51.9642 58.0194 34.4241 42.3706 29.522C39.9354 28.7566 38.1453 30.2241 37.0067 31.7485C37.3167 31.6789 37.6393 31.6409 37.9619 31.6409Z" fill="#003580"/>
</g>
<path d="M46.3113 64.4885C47.5511 61.7243 51.4159 58.5364 54.6671 56.2023C57.602 54.096 58.1144 49.9466 55.812 47.1634C51.7638 42.2613 46.83 38.8393 43.4902 36.8595C41.5104 35.6893 38.974 36.8974 38.6197 39.1746C38.0758 42.7041 37.8417 48.0869 39.6318 54.2605C41.5673 60.9337 45.9318 64.3936 45.9318 64.3936" fill="#FF6C6C"/>
<path d="M46.4633 64.5581L46.1597 64.419C47.4374 61.5852 51.435 58.3087 54.566 56.0632C55.9386 55.0828 56.8115 53.6153 57.0329 51.9391C57.248 50.2692 56.7609 48.5677 55.6856 47.2647C51.6754 42.4069 46.7922 39.0038 43.4082 36.9987C42.5163 36.4737 41.4663 36.4231 40.5238 36.8659C39.594 37.3087 38.9488 38.1752 38.7907 39.1936C38.2594 42.6283 38.0063 48.0238 39.7964 54.2036C41.694 60.744 45.9952 64.2229 46.0395 64.2545L45.8308 64.5202C45.7865 64.4822 41.403 60.9464 39.4738 54.2985C37.6648 48.0554 37.9241 42.6093 38.4554 39.143C38.6262 38.0171 39.3473 37.0557 40.3783 36.5623C41.403 36.0752 42.5985 36.1322 43.5726 36.7078C46.9883 38.7255 51.9031 42.1539 55.9386 47.0497C57.0709 48.4223 57.5895 50.2186 57.3618 51.9834C57.1341 53.7545 56.2106 55.2979 54.7621 56.3352C51.6627 58.5617 47.7094 61.7877 46.4633 64.5581Z" fill="#003580"/>
<path d="M49.0819 56.5185C49.4171 57.6697 49.8219 58.7261 50.271 59.6875C51.6689 58.4351 53.2313 57.2333 54.6671 56.2022C57.6021 54.0959 58.1144 49.9465 55.8183 47.157C53.5222 44.3676 50.9289 42.0588 48.5126 40.2245C48.2975 40.5787 48.1394 40.9835 48.0698 41.4326C47.5258 44.9622 47.2918 50.3513 49.0819 56.5185Z" fill="#FF6C6C"/>
<path d="M50.2079 59.9659L50.113 59.7572C49.6323 58.7135 49.2275 57.6382 48.9176 56.5629C47.1085 50.3261 47.3615 44.88 47.8992 41.4074C47.9688 40.952 48.1269 40.5219 48.3609 40.136L48.4558 39.9779L48.6013 40.0918C51.4287 42.2424 53.8956 44.5827 55.9387 47.0496C57.0709 48.4222 57.5896 50.2249 57.3555 51.9834C57.1215 53.7545 56.198 55.2978 54.7558 56.3352C53.0733 57.5433 51.5995 58.7135 50.3724 59.8078L50.2079 59.9659ZM48.557 40.4776C48.3926 40.7812 48.285 41.1101 48.2344 41.458C47.7031 44.8927 47.4501 50.2882 49.2465 56.468C49.5311 57.4611 49.898 58.4478 50.3281 59.4093C51.5236 58.3466 52.9468 57.2271 54.5661 56.0632C55.9387 55.0828 56.8116 53.6153 57.0329 51.9391C57.248 50.2692 56.761 48.5614 55.6857 47.2584C53.6995 44.8611 51.3022 42.5776 48.557 40.4776Z" fill="#003580"/>
<path d="M116.788 86.3362C113.607 84.8688 110.785 79.6883 109.982 77.076C109.514 75.5642 108.413 72.5913 107.56 70.3458C121.792 57.4295 115.087 23.0261 104.89 27.0933C93.3719 31.6855 85.8195 43.0521 82.4291 49.2129C77.5966 48.3021 74.1492 48.6879 74.1492 48.6879C74.1492 48.6879 70.5944 48.5614 65.7492 49.8898C61.9098 44.0072 53.5097 33.2036 41.6498 29.4906C31.1307 26.1951 27.0636 61.2753 42.4278 72.9519C41.7573 75.2416 40.9097 78.2019 40.5681 79.7073C39.9609 82.3766 37.5383 87.7531 34.4768 89.4546C32.6678 90.4604 32.6362 91.9974 33.9518 93.1043C34.7931 93.8128 36.191 94.3441 38.0253 94.439C38.1708 94.4453 38.3226 94.4516 38.4744 94.4516C38.4744 94.4516 38.4744 94.4516 38.4681 94.458C38.3606 94.5339 37.4561 95.1601 35.1536 96.8173C32.8955 98.4366 34.8374 100.404 38.8097 102.301C42.782 104.193 47.9814 108.76 49.0377 109.417C49.6576 109.81 52.9784 112.27 59.1519 114.117C63.5417 115.433 69.38 116.438 76.7173 116.16C94.3586 115.49 102.803 108.089 103.802 107.343C104.808 106.603 109.641 101.656 113.467 99.4676C117.288 97.2791 119.072 95.1664 116.7 93.7242C114.106 92.1492 113.202 91.6179 113.202 91.6179C113.347 91.6052 113.493 91.5926 113.632 91.5736C115.46 91.3396 116.82 90.707 117.611 89.9354C118.819 88.7335 118.673 87.2028 116.788 86.3362Z" fill="#F99B28"/>
<g opacity="0.4">
<path d="M105.01 30.3127C95.2883 34.1901 89.2097 43.8615 85.5157 50.4905C84.4467 52.4071 82.3467 53.514 80.1645 53.2863C76.8627 52.951 74.3135 53.0333 74.3135 53.0333C74.3135 53.0333 71.7012 53.1408 68.3488 53.7543C66.1792 54.1528 63.9843 53.2357 62.7698 51.395C58.5825 45.0634 51.7828 35.841 41.7698 32.7037C36.1845 30.9516 32.421 40.0158 32.4146 50.6549C31.4911 38.5989 35.4508 27.2449 41.6369 29.1805C53.4969 32.8934 61.8969 43.6971 65.7364 49.5796C70.5816 48.2513 74.1364 48.3778 74.1364 48.3778C74.1364 48.3778 77.5837 47.992 82.4163 48.9028C85.813 42.7356 93.3591 31.3754 104.877 26.7832C110.906 24.3796 115.706 35.4046 115.7 47.4986C114.884 36.8974 110.444 28.1431 105.01 30.3127Z" fill="white"/>
</g>
<path d="M38.2149 94.4451C38.2971 94.4514 38.3794 94.4514 38.4616 94.4514C38.4616 94.4514 38.4616 94.4514 38.4553 94.4577C38.4426 94.4704 38.411 94.4893 38.3667 94.521C38.3098 94.4957 38.2592 94.4704 38.2149 94.4451Z" fill="#982E20"/>
<path d="M38.3857 94.7109L38.2971 94.6729C38.2655 94.6603 38.2276 94.6413 38.1959 94.6223L37.4053 94.2428L38.2276 94.2744C38.2972 94.2744 38.373 94.2807 38.4426 94.2807L38.8221 94.2871L38.4743 94.6539L38.3857 94.7109Z" fill="#003580"/>
<path d="M113.455 99.4737C109.634 101.662 104.795 106.602 103.79 107.349C102.784 108.095 94.3397 115.496 76.7047 116.166C69.3673 116.445 63.5354 115.439 59.1393 114.123C52.9658 112.276 49.645 109.816 49.0251 109.423C47.9688 108.759 42.7694 104.199 38.7971 102.307C34.8184 100.41 32.8766 98.4427 35.1347 96.8234C37.4434 95.1725 38.3416 94.5463 38.4492 94.4641C38.4555 94.4577 38.4555 94.4577 38.4555 94.4577C38.3037 94.4577 38.1519 94.4514 38.0064 94.4451C38.582 94.23 39.2209 94.0213 39.9293 93.8252C45.6537 92.2439 53.358 99.9481 63.4342 95.5647C71.1637 92.2059 67.1978 73.9194 69.0953 69.0489C69.1143 68.9983 69.1333 68.954 69.1523 68.9034C71.17 63.8685 78.2291 63.6028 80.6264 68.467C80.6517 68.5176 80.677 68.5619 80.696 68.6062C82.9541 73.3185 80.3797 91.8454 88.3433 94.6159C98.7232 98.2213 105.82 89.9541 111.646 91.099C112.367 91.2382 113.018 91.4026 113.613 91.5734C113.474 91.5924 113.328 91.605 113.183 91.6177C113.183 91.6177 114.087 92.1427 116.681 93.724C119.059 95.1725 117.269 97.2788 113.455 99.4737Z" fill="white"/>
<path d="M108.774 51.6417C107.351 58.4414 103.258 62.224 103.258 62.224L102.885 62.3505C102.076 60.8703 100.45 59.3143 98.5777 57.8658C97.0912 56.7209 95.4403 55.6393 93.9286 54.7221C90.8418 52.8435 90.0195 48.7447 92.0942 45.7908C94.1753 42.8368 96.5789 40.3383 98.856 38.3269C100.583 36.7962 102.234 35.5501 103.606 34.5886C105.491 33.273 108.11 34.285 108.635 36.5242C109.451 39.9968 110.09 45.3543 108.774 51.6417Z" fill="#FF6C6C"/>
<g opacity="0.3">
<path d="M99.5202 54.6081C99.2735 55.7846 98.9445 56.8663 98.5777 57.8594C97.0912 56.7145 95.4403 55.6328 93.9286 54.7157C90.8418 52.837 90.0195 48.7382 92.0942 45.7843C94.1753 42.8304 96.5789 40.3319 98.856 38.3204C99.1027 38.6557 99.2861 39.0478 99.3873 39.4906C100.197 42.9632 100.842 48.3208 99.5202 54.6081Z" fill="#003580"/>
</g>
<path d="M39.6318 54.2603C41.5674 60.9335 45.9318 64.3935 45.9318 64.3935L46.3113 64.4884C47.0071 62.9513 48.5126 61.2751 50.271 59.6875C51.6689 58.435 53.2312 57.2332 54.6671 56.2022C57.602 54.0959 58.1144 49.9465 55.8183 47.157C53.5222 44.3675 50.9288 42.0588 48.5126 40.2244C46.6782 38.8329 44.9324 37.707 43.4903 36.8594C41.5104 35.6892 38.974 36.8973 38.6261 39.1744C38.0758 42.704 37.8417 48.0931 39.6318 54.2603Z" fill="#FF6C6C"/>
<g opacity="0.3">
<path d="M49.0819 56.5186C49.4172 57.6698 49.822 58.7262 50.2711 59.6876C51.669 58.4352 53.2313 57.2334 54.6672 56.2024C57.6021 54.096 58.1145 49.9466 55.8184 47.1572C53.5223 44.3677 50.9289 42.059 48.5126 40.2246C48.2976 40.5788 48.1394 40.9836 48.0699 41.4327C47.5259 44.9623 47.2918 50.3514 49.0819 56.5186Z" fill="#003580"/>
</g>
<path d="M81.1765 97.8861C81.3853 103.364 79.241 107.893 76.3883 108C73.5355 108.108 71.056 103.756 70.8473 98.2783" fill="#FF6C6C"/>
<path d="M76.2872 108.171C74.883 108.171 73.5357 107.159 72.4857 105.318C71.4294 103.459 70.7842 100.96 70.683 98.2846L71.0182 98.2719C71.1194 100.897 71.7393 103.339 72.7767 105.154C73.7887 106.931 75.0728 107.886 76.3821 107.836C79.1336 107.728 81.2083 103.269 81.0059 97.8924L81.3411 97.8798C81.5499 103.44 79.3297 108.057 76.3947 108.171C76.3631 108.171 76.3252 108.171 76.2872 108.171Z" fill="#003580"/>
<path d="M81.1891 99.126C81.1448 100.929 80.8348 102.586 80.3415 103.977C79.4876 106.368 78.0643 107.943 76.3945 108.007C74.7246 108.07 73.1875 106.609 72.1565 104.281C71.5556 102.94 71.1318 101.308 70.9484 99.5181L81.1891 99.126Z" fill="#ED2E7A"/>
<path d="M75.8253 104.357L75.1865 98.683C75.1359 98.215 75.4711 97.7912 75.9455 97.7342C76.4199 97.6773 76.8437 98.0189 76.8943 98.4933C76.9006 98.5375 76.9006 98.5818 76.9006 98.6198L76.6919 104.325C76.6856 104.566 76.4832 104.749 76.2428 104.743C76.0214 104.73 75.8506 104.566 75.8253 104.357Z" fill="#003580"/>
<path d="M76.2491 108.861C74.6488 108.861 73.137 108.032 71.9795 106.514C70.8473 105.027 70.1768 103.035 70.0945 100.903C70.0756 100.429 70.4424 100.037 70.9168 100.018C71.3849 99.9862 71.7834 100.366 71.8024 100.84C71.872 102.624 72.4159 104.268 73.3394 105.477C74.1934 106.596 75.2687 107.191 76.3566 107.146C78.7349 107.058 80.5566 104.079 80.4175 100.511C80.3985 100.037 80.7654 99.6446 81.2398 99.6256C81.7142 99.6003 82.1063 99.9735 82.1253 100.448C82.2961 104.958 79.7343 108.734 76.4199 108.861C76.3693 108.861 76.306 108.861 76.2491 108.861Z" fill="#003580"/>
<g opacity="0.3">
<path d="M85.7433 97.127C85.5599 100.068 83.7445 103.686 80.234 103.471C77.1725 103.281 76.1225 101.068 76.1225 101.068H76.0593C76.0593 101.068 75.1737 103.307 72.1439 103.775C68.9433 104.268 66.5903 100.872 66.1855 97.9492" fill="#003580"/>
</g>
<path d="M84.8073 96.7034C84.6239 99.6446 82.8211 101.156 80.1455 100.954C77.0904 100.72 76.2112 98.3416 75.9898 97.4561H75.9265C75.7747 98.3606 75.0853 100.796 72.0491 101.258C69.3925 101.662 67.4822 100.29 67.0774 97.3739" fill="white"/>
<path d="M71.1763 101.498C70.2022 101.498 69.3483 101.239 68.6588 100.726C67.7227 100.03 67.1218 98.8793 66.9194 97.3991L67.2546 97.3549C67.4444 98.7401 68.001 99.8154 68.8612 100.454C69.6835 101.068 70.7778 101.289 72.0366 101.093C74.9209 100.65 75.6104 98.3796 75.7748 97.4308L75.8001 97.2979L76.1354 97.2853L76.167 97.4181C76.401 98.3606 77.2613 100.568 80.1709 100.79C81.436 100.884 82.5176 100.581 83.283 99.9103C84.0926 99.2082 84.567 98.0949 84.6492 96.697L84.9845 96.716C84.8896 98.2088 84.3773 99.3979 83.498 100.163C82.6568 100.897 81.4929 101.226 80.1393 101.125C77.4573 100.922 76.3947 99.1449 75.9899 98.0064C75.6673 99.1765 74.7438 101.024 72.0872 101.428C71.7709 101.473 71.4673 101.498 71.1763 101.498Z" fill="#003580"/>
<g opacity="0.3">
<path d="M84.8074 96.7034C84.624 99.6446 82.8212 101.156 80.1456 100.954C77.0905 100.72 76.2176 98.348 75.9899 97.4561H75.9266C75.7748 98.3606 75.0854 100.796 72.0492 101.258C69.3926 101.669 67.4823 100.29 67.0775 97.3739L67.8619 97.3422C68.7411 98.582 70.1832 99.107 71.9543 98.835C73.4914 98.601 74.4212 97.8609 74.9905 97.0766L76.8881 97.007C77.5143 97.7471 78.501 98.4175 80.0444 98.5314C81.8345 98.6705 83.2261 98.038 84.0167 96.735L84.8074 96.7034Z" fill="#003580"/>
</g>
<path d="M71.1699 102.187C70.0504 102.187 69.051 101.877 68.2413 101.276C67.1597 100.467 66.4639 99.1573 66.2299 97.4937C66.1666 97.0257 66.4892 96.5955 66.9573 96.5323C67.4254 96.4627 67.8555 96.7916 67.9187 97.2597C68.0832 98.4615 68.5449 99.3787 69.2597 99.9037C69.9302 100.403 70.8474 100.58 71.9163 100.416C74.2694 100.055 74.9082 98.316 75.079 97.3166C75.1486 96.9181 75.4838 96.6208 75.8886 96.6019H75.9519C76.363 96.5892 76.7173 96.8549 76.8121 97.247C77.0588 98.2338 77.8242 99.9163 80.2025 100.1C81.2841 100.182 82.1823 99.9353 82.8149 99.385C83.479 98.8031 83.8775 97.8543 83.9471 96.6461C83.9787 96.1717 84.3772 95.8175 84.8516 95.8428C85.326 95.8745 85.6802 96.2793 85.6549 96.7473C85.5537 98.4236 84.9591 99.7835 83.9344 100.669C82.954 101.523 81.6131 101.915 80.0697 101.795C77.976 101.637 76.7489 100.606 76.0341 99.5811C75.4016 100.656 74.2504 101.776 72.1757 102.092C71.8341 102.162 71.4989 102.187 71.1699 102.187Z" fill="#003580"/>
<g opacity="0.3">
<path d="M113.455 99.4738C109.634 101.662 104.795 106.602 103.79 107.349C102.784 108.095 94.3459 115.496 76.7046 116.166C69.3672 116.445 63.5353 115.439 59.1392 114.123C52.9657 112.276 49.6449 109.816 49.025 109.424C47.9687 108.759 42.7693 104.199 38.797 102.308C34.8247 100.41 32.8828 98.4427 35.1409 96.8235C35.4951 96.5704 35.8177 96.3364 36.1087 96.134C44.7744 102.377 59.797 111.087 76.4832 110.455C93.1694 109.822 107.496 99.9988 115.662 93.1168C115.966 93.3003 116.307 93.509 116.681 93.7367C119.059 95.1725 117.275 97.2789 113.455 99.4738Z" fill="#003580"/>
</g>
<path d="M76.11 98.2277C75.6673 98.2277 75.2878 97.8861 75.2561 97.437L74.9399 93.0726C74.9082 92.6045 75.2625 92.1934 75.7305 92.1554C76.2049 92.1238 76.6097 92.478 76.6477 92.9461L76.964 97.3105C76.9956 97.7786 76.6414 98.1898 76.1733 98.2277C76.148 98.2277 76.129 98.2277 76.11 98.2277Z" fill="#003580"/>
<path d="M81.1958 92.0035C81.2654 93.7745 78.8238 96.2414 75.7054 96.3616C72.587 96.4818 69.9683 94.2047 69.8987 92.4336C69.8292 90.6625 72.353 90.4221 75.4713 90.302C78.5897 90.1818 81.1325 90.2324 81.1958 92.0035Z" fill="#003580"/>
<path d="M77.9757 91.6305C77.9884 92.0226 76.9067 92.5856 75.5531 92.6362C74.1932 92.6868 73.0736 92.2061 73.0609 91.8202C73.0483 91.4344 74.1426 91.3585 75.5025 91.3079C76.8624 91.2509 77.9631 91.2446 77.9757 91.6305Z" fill="white"/>
<path d="M75.3572 92.7942C74.0922 92.7942 72.9283 92.3451 72.9093 91.8264C72.8904 91.2888 73.9214 91.2129 75.4964 91.1559C77.0714 91.0927 78.1088 91.099 78.1277 91.6303C78.1467 92.1743 76.9006 92.7436 75.5597 92.7942C75.4901 92.7879 75.4268 92.7942 75.3572 92.7942ZM76.5337 91.4342C76.1416 91.4342 75.7494 91.4469 75.5091 91.4596C74.8765 91.4849 73.2066 91.5481 73.213 91.8138C73.2193 92.0352 74.1618 92.5349 75.547 92.4843C76.9323 92.4337 77.8304 91.858 77.8241 91.6367C77.8178 91.4722 77.1726 91.4342 76.5337 91.4342Z" fill="#003580"/>
<path d="M96.9329 79.8968C96.1296 80.1877 95.3136 80.5167 94.5609 80.8899C93.8018 81.2631 93.0934 81.6868 92.4356 82.1612C92.1003 82.389 91.7967 82.6546 91.4868 82.9013L91.0566 83.3125C90.9871 83.382 90.9112 83.4453 90.8416 83.5149L90.6455 83.7363C90.0889 84.3055 89.6651 84.9697 89.2413 85.6465L87.6789 84.0715C87.7548 84.0335 87.7991 84.0146 87.8497 83.9956C87.9003 83.9703 87.9509 83.9513 88.0015 83.9323C88.0964 83.8944 88.1976 83.8564 88.2925 83.8248C88.4822 83.7552 88.672 83.7046 88.8681 83.6477C89.2476 83.5402 89.6398 83.4706 90.0256 83.4137C90.8036 83.2998 91.588 83.2935 92.3597 83.3947C93.1314 83.4959 93.8904 83.6793 94.5862 83.9956C95.2946 84.2739 95.9335 84.704 96.5154 85.1594C96.6862 85.2986 96.7178 85.5453 96.5787 85.7224C96.4775 85.8489 96.313 85.8995 96.1675 85.8616L96.1232 85.8489C95.788 85.7604 95.4717 85.6465 95.1491 85.5706C94.8202 85.501 94.5103 85.4125 94.1814 85.3745C93.5425 85.267 92.9036 85.2417 92.2711 85.2733C91.6449 85.2923 91.0187 85.3935 90.4178 85.5453C90.1142 85.6212 89.8232 85.7161 89.5322 85.811C89.3868 85.8616 89.2476 85.9185 89.1084 85.9754C89.0389 86.0007 88.9756 86.0323 88.9124 86.064C88.8807 86.0766 88.8491 86.0956 88.8175 86.1082L88.7542 86.1399L88.7289 86.1525C88.1596 86.4435 87.4639 86.2158 87.1729 85.6465C86.9958 85.2986 87.0148 84.8875 87.1919 84.5712C87.6663 83.6983 88.2039 82.8317 88.9187 82.1233C89.2476 81.7375 89.6524 81.4402 90.0256 81.1112C90.4368 80.8266 90.8353 80.5293 91.278 80.3016C92.1446 79.8272 93.0681 79.473 94.0106 79.2706C94.9594 79.0745 95.9018 78.9859 96.8886 79.1061C97.11 79.1314 97.2681 79.3338 97.2365 79.5552C97.2175 79.7133 97.11 79.8335 96.9772 79.8841L96.9329 79.8968Z" fill="#003580"/>
<path d="M64.4531 84.8692C64.8228 81.104 62.972 77.8406 60.3194 77.5802C57.6667 77.3198 55.2167 80.1609 54.847 83.9261C54.4774 87.6913 56.3281 90.9547 58.9808 91.2151C61.6334 91.4755 64.0835 88.6344 64.4531 84.8692Z" fill="#003580"/>
<path d="M62.4353 83.5913C62.5595 82.3258 62.0092 81.236 61.2061 81.1572C60.403 81.0784 59.6512 82.0403 59.527 83.3058C59.4027 84.5713 59.9531 85.6611 60.7562 85.7399C61.5593 85.8188 62.311 84.8568 62.4353 83.5913Z" fill="white"/>
<mask id="mask0_69_2582" style="mask-type:alpha" maskUnits="userSpaceOnUse" x="16" y="0" width="117" height="117">
<path d="M74.0032 116.006C106.037 116.006 132.006 90.0375 132.006 58.0032C132.006 25.9689 106.037 0 74.0032 0C41.9689 0 16 25.9689 16 58.0032C16 90.0375 41.9689 116.006 74.0032 116.006Z" fill="url(#paint0_linear_69_2582)"/>
</mask>
<g mask="url(#mask0_69_2582)">
<path opacity="0.3" d="M74.0032 120.006C106.037 120.006 132.006 94.0375 132.006 62.0032C132.006 29.9689 106.037 4 74.0032 4C41.9689 4 16 29.9689 16 62.0032C16 94.0375 41.9689 120.006 74.0032 120.006Z" fill="#BCC4FF"/>
<g opacity="0.5">
<path d="M126.137 39.105C118.477 25.1071 103.012 11.8555 85.8701 8.50944C75.7053 6.52328 66.2173 7.12419 57.7857 9.76817C61.2962 9.49618 64.4525 10.445 66.0275 13.848C67.6468 17.3522 66.3501 21.78 63.4658 24.3417C61.4227 26.1508 58.7914 27.1122 56.432 28.4911C50.929 31.7044 47.1022 37.0683 43.0856 42.0147C41.5675 43.887 39.8976 45.7972 37.6332 46.6195C34.7488 47.6695 31.2193 46.5436 29.4735 44.0198C27.4494 41.0975 27.9175 37.1315 28.9928 33.7475C29.3913 32.4951 29.8657 31.2743 30.416 30.0788C25.8997 36.5749 22.6738 44.1653 21.0102 52.4325C18.8976 62.9578 21.0545 74.1093 24.7928 83.4835C18.8913 72.6925 16.6015 59.9659 19.1822 47.1255C25.109 17.6242 54.4838 -1.29481 84.7884 4.87238C104.27 8.83203 119.394 22.2101 126.137 39.105Z" fill="white"/>
</g>
<g opacity="0.5">
<path d="M81.7395 20.5085C85.4075 20.5085 88.381 18.4639 88.381 15.9416C88.381 13.4194 85.4075 11.3748 81.7395 11.3748C78.0714 11.3748 75.0979 13.4194 75.0979 15.9416C75.0979 18.4639 78.0714 20.5085 81.7395 20.5085Z" fill="white"/>
</g>
</g>
<path d="M82.4227 141.55C82.7389 141.556 83.0615 141.588 83.3778 141.562C83.8332 141.524 84.2444 141.613 84.6365 141.847C85.2121 142.189 85.832 142.353 86.5025 142.239C87.6031 142.056 88.1598 141.094 87.7739 140.051C87.679 139.791 87.5272 139.538 87.3564 139.31C87.0275 138.861 86.7682 138.381 86.5911 137.856C86.3507 137.147 85.8636 136.704 85.1362 136.553C84.4025 136.401 83.7636 136.616 83.2766 137.179C82.9287 137.577 82.5365 137.887 82.0495 138.09C81.632 138.26 81.2904 138.545 81.0438 138.937C80.6136 139.614 80.7148 140.405 81.3031 140.949C81.6004 141.227 81.9799 141.417 82.4353 141.518C82.4227 141.524 82.4227 141.537 82.4227 141.55Z" fill="#465597"/>
<path d="M86.2494 133.377C86.1419 133.795 86.0723 134.212 86.1799 134.63C86.2368 134.851 86.319 135.073 86.4455 135.262C86.8567 135.888 87.6347 135.977 88.2293 135.465C88.7606 135.003 89.0199 134.408 88.944 133.694C88.8745 133.048 88.6151 132.479 88.1787 131.992C88.0648 131.872 87.932 131.758 87.7865 131.676C87.4955 131.505 87.2109 131.549 86.9705 131.79C86.7238 132.036 86.5847 132.346 86.4708 132.663C86.3949 132.897 86.3253 133.137 86.2494 133.377Z" fill="#465597"/>
<path d="M85.5601 133.225C85.5854 132.808 85.6297 132.384 85.636 131.967C85.636 131.783 85.5854 131.594 85.5222 131.423C85.421 131.151 85.1996 131.018 84.9086 131.024C84.5544 131.031 84.2444 131.176 83.9535 131.359C83.4475 131.688 83.0173 132.093 82.8023 132.669C82.5809 133.263 82.6062 133.864 82.9351 134.421C83.3463 135.117 84.1685 135.224 84.7948 134.674C85.111 134.402 85.3071 134.054 85.4273 133.656C85.4652 133.516 85.4905 133.371 85.5222 133.225C85.5348 133.225 85.5475 133.225 85.5601 133.225Z" fill="#465597"/>
<path d="M79.8481 135.015C79.6774 135.774 79.8355 136.413 80.3795 136.932C80.9804 137.501 81.8027 137.324 82.1442 136.565C82.2771 136.268 82.334 135.952 82.296 135.629C82.2328 135.079 82.0873 134.554 81.7963 134.079C81.7204 133.946 81.6129 133.826 81.499 133.725C81.265 133.523 80.9993 133.504 80.7337 133.668C80.3605 133.896 80.1454 134.25 79.9746 134.636C79.924 134.769 79.8861 134.908 79.8481 135.015Z" fill="#465597"/>
<path d="M87.894 137.502C87.9003 137.71 87.8813 137.932 87.9129 138.134C88.0141 138.735 88.5455 139.096 89.1464 138.975C89.8801 138.836 90.4747 138.216 90.6138 137.445C90.6897 137.033 90.6897 136.622 90.5696 136.218C90.5316 136.097 90.481 135.977 90.4114 135.863C90.2343 135.56 89.9623 135.458 89.6271 135.56C89.5322 135.591 89.4437 135.623 89.3614 135.68C88.7795 136.059 88.3241 136.553 88.0268 137.185C87.9825 137.286 87.9572 137.394 87.9192 137.502C87.9129 137.502 87.9066 137.502 87.894 137.502Z" fill="#465597"/>
<defs>
<linearGradient id="paint0_linear_69_2582" x1="26.9891" y1="24.0278" x2="121.014" y2="91.9739" gradientUnits="userSpaceOnUse">
<stop stop-color="white"/>
<stop offset="1"/>
</linearGradient>
</defs>
</svg>
