<svg width="20" height="20" viewBox="0 0 20 20" fill="none" xmlns="http://www.w3.org/2000/svg">
<path fill-rule="evenodd" clip-rule="evenodd" d="M7.55879 1.6972C8.75525 0.0221564 11.2447 0.022156 12.4412 1.6972L12.6317 1.96387C12.8422 2.25867 13.1958 2.41652 13.5558 2.37652L14.4048 2.28218C16.3156 2.06988 17.9301 3.68439 17.7178 5.59513L17.6235 6.44415C17.5835 6.8042 17.7413 7.15774 18.0361 7.36831L18.3028 7.55879C19.9778 8.75525 19.9778 11.2447 18.3028 12.4412L18.0361 12.6317C17.7413 12.8422 17.5835 13.1958 17.6235 13.5558L17.7178 14.4048C17.9301 16.3156 16.3156 17.9301 14.4048 17.7178L13.5558 17.6235C13.1958 17.5835 12.8422 17.7413 12.6317 18.0361L12.4412 18.3028C11.2447 19.9778 8.75525 19.9778 7.55879 18.3028L7.36831 18.0361C7.15774 17.7413 6.8042 17.5835 6.44414 17.6235L5.59513 17.7178C3.68439 17.9301 2.06988 16.3156 2.28218 14.4048L2.37652 13.5558C2.41652 13.1958 2.25867 12.8422 1.96387 12.6317L1.6972 12.4412C0.0221564 11.2447 0.022156 8.75525 1.6972 7.55879L1.96387 7.36831C2.25867 7.15774 2.41652 6.8042 2.37652 6.44414L2.28218 5.59513C2.06988 3.68439 3.68439 2.06988 5.59513 2.28218L6.44415 2.37652C6.8042 2.41652 7.15774 2.25867 7.36831 1.96387L7.55879 1.6972ZM13.7071 7.29289C14.0976 7.68342 14.0976 8.31658 13.7071 8.70711L9.88821 12.526C9.39766 13.0166 8.60234 13.0166 8.11179 12.526L6.29289 10.7071C5.90237 10.3166 5.90237 9.68342 6.29289 9.29289C6.68342 8.90237 7.31658 8.90237 7.70711 9.29289L9 10.5858L12.2929 7.29289C12.6834 6.90237 13.3166 6.90237 13.7071 7.29289Z" fill="#003580"/>
</svg>
