<svg width="500" height="310" viewBox="0 0 500 310" fill="none" xmlns="http://www.w3.org/2000/svg">
<rect width="500" height="280" rx="30" fill="#F6F7F8"/>
<rect x="104" width="60" height="280" fill="#003580"/>
<rect y="152" width="50" height="500" transform="rotate(-90 0 152)" fill="#003580"/>
<g opacity="0.2">
<path d="M293.9 309.249C208.84 307.186 140.044 298.937 140.241 290.825C140.438 282.713 209.552 277.809 294.613 279.872C379.673 281.934 448.469 290.183 448.272 298.295C448.075 306.407 378.961 311.311 293.9 309.249Z" fill="#E0E4EE"/>
</g>
<path d="M278.73 187.45C279.716 186.255 281.491 186.124 282.652 187.154C287.429 191.394 299.295 201.397 306.91 204.86C316.453 209.199 334.214 216.572 329.996 230.882C325.778 245.191 300.194 246.933 292.601 233.27C287.878 224.768 276.944 216.857 269.351 212.091C265.33 209.56 264.628 203.994 267.861 200.521L278.73 187.45Z" fill="#F9A429"/>
<g opacity="0.3">
<path d="M267.861 200.51L269.186 198.91C269.329 201.233 270.523 203.468 272.692 204.827C280.285 209.593 291.22 217.504 295.943 226.006C302.484 237.774 322.381 238.113 330.456 228.822C330.346 229.49 330.204 230.17 329.996 230.871C325.778 245.18 300.194 246.923 292.601 233.26C287.878 224.757 276.944 216.846 269.351 212.08C265.33 209.56 264.617 203.983 267.861 200.51Z" fill="#650000"/>
</g>
<g opacity="0.7">
<path d="M326.095 232.547C330.314 218.238 312.553 210.864 303.01 206.525C295.395 203.063 283.529 193.07 278.751 188.819C278.521 188.611 278.247 188.458 277.974 188.348L278.73 187.439C279.716 186.244 281.491 186.113 282.652 187.143C287.429 191.383 299.295 201.387 306.91 204.849C316.453 209.188 334.214 216.562 329.996 230.871C328.44 236.141 323.992 239.702 318.601 241.422C322.162 239.45 324.934 236.481 326.095 232.547Z" fill="white"/>
</g>
<path d="M325.449 239.001C325.613 238.289 325.657 237.697 325.679 237.04C325.701 236.404 325.679 235.758 325.602 235.122C325.46 233.851 325.186 232.58 324.715 231.364C324.233 230.148 323.586 228.986 322.754 227.967C321.91 226.959 320.836 226.138 319.675 225.645C319.543 225.59 319.379 225.656 319.324 225.787C319.291 225.864 319.302 225.951 319.335 226.028L319.346 226.05C319.96 227.102 320.442 228.088 320.781 229.118C321.099 230.159 321.329 231.189 321.483 232.251C321.614 233.314 321.713 234.377 321.778 235.451C321.8 235.714 321.822 235.988 321.822 236.262C321.844 236.536 321.855 236.799 321.866 237.072C321.91 237.598 321.91 238.179 321.965 238.639L321.987 238.836C322.107 239.79 322.973 240.469 323.926 240.359C324.704 240.25 325.285 239.691 325.449 239.001Z" fill="#650000"/>
<path d="M240.239 242.408C242.649 293.434 282.97 292.711 301.213 289.73C309.825 288.328 316.793 281.809 318.426 273.23C318.535 272.649 318.623 272.068 318.689 271.498C320.058 260.093 313.638 249.278 305.168 249.497C296.205 249.717 292.557 256.641 292.557 256.641C290.19 253.464 287.824 250.922 285.512 248.917C266.666 232.602 250.604 251.798 250.604 251.798L246.112 240.436L240.622 226.576C240.129 232.328 240.02 237.598 240.239 242.408Z" fill="#F9A429"/>
<path d="M300.842 274.995C300.774 271.268 302.832 268.208 305.44 268.161C308.047 268.113 310.216 271.095 310.285 274.822C310.353 278.549 308.295 281.609 305.687 281.657C303.08 281.704 300.91 278.722 300.842 274.995Z" fill="white"/>
<path d="M307.739 262.597C307.701 260.522 308.847 258.818 310.299 258.792C311.751 258.765 312.959 260.426 312.997 262.501C313.035 264.576 311.889 266.28 310.437 266.306C308.985 266.333 307.777 264.672 307.739 262.597Z" fill="white"/>
<path d="M295.027 265.059C294.988 262.984 296.135 261.28 297.587 261.253C299.039 261.227 300.247 262.887 300.285 264.962C300.323 267.038 299.177 268.741 297.725 268.768C296.273 268.795 295.065 267.134 295.027 265.059Z" fill="white"/>
<path d="M301.09 259.924C301.052 257.849 302.198 256.145 303.65 256.118C305.102 256.091 306.31 257.752 306.348 259.827C306.387 261.902 305.24 263.606 303.788 263.633C302.336 263.66 301.128 261.999 301.09 259.924Z" fill="white"/>
<g opacity="0.3">
<path d="M240.239 242.408C242.649 293.434 282.97 292.71 301.213 289.73C309.825 288.328 316.793 281.809 318.426 273.23C318.535 272.649 318.623 272.068 318.689 271.498C317.187 273.646 303.711 291.33 290.464 275.432C290.464 275.432 269.789 289.062 285.512 248.928C266.666 232.613 250.604 251.809 250.604 251.809L246.111 240.447C243.876 241.148 241.871 241.828 240.239 242.408Z" fill="#650000"/>
</g>
<path d="M181.467 226.412C181.456 226.587 181.445 226.773 181.445 226.949C178.859 291.79 224.921 290.355 224.921 290.355C242.463 290.355 255.184 287.145 264.3 281.973H264.311C264.311 281.973 264.322 281.973 264.322 281.962C266.677 280.625 268.792 279.157 270.687 277.579C280.494 269.428 284.46 258.361 285.545 247.328C285.556 247.273 285.567 247.207 285.567 247.153C285.753 245.191 285.851 243.23 285.884 241.28C286.071 225.721 281.491 211.357 280.724 206.81C278.664 194.615 280.724 186.727 280.724 186.727C263.73 195.163 234.574 192.402 209.056 185.971C188.304 180.733 169.963 173.053 162.523 166.994C154.886 160.77 148.619 159.247 144.083 159.412C139.415 159.587 135.46 162.644 133.871 166.895C133.586 167.662 133.378 168.462 133.247 169.295C129.259 195.93 181.467 226.412 181.467 226.412Z" fill="#F9A429"/>
<path d="M200.992 218.052C200.992 248.939 220.889 273.986 245.432 273.986C263.39 273.986 278.861 260.575 285.862 241.28C286.049 225.721 281.469 211.357 280.702 206.81C278.642 194.615 280.702 186.727 280.702 186.727C263.708 195.163 234.552 192.402 209.034 185.971C203.961 195.043 200.992 206.109 200.992 218.052Z" fill="white"/>
<g opacity="0.3">
<path d="M181.467 226.412C181.456 226.587 181.445 226.773 181.445 226.949C183.253 227.332 184.502 227.792 185.072 228.373C185.072 228.373 198.253 235.966 191.021 257.255C191.021 257.255 208.18 301.925 264.289 281.984H264.3C264.3 281.984 264.311 281.984 264.311 281.973C264.519 281.874 267.236 280.592 270.676 277.59C276.242 272.737 283.704 263.39 285.534 247.339C285.545 247.273 285.556 247.218 285.556 247.153C285.556 247.153 285.556 247.164 285.545 247.164C285.041 247.81 255.469 285.391 216.594 248.895C216.594 248.895 201.375 233.161 206.832 195.481C206.832 195.481 197.004 192.128 189.707 185.127C189.707 185.127 188.359 188.885 186.715 194.429C183.078 206.733 168.001 211.434 158.14 203.216C147.885 194.681 137.377 182.519 133.838 166.906C133.554 167.673 133.345 168.473 133.214 169.305C129.259 195.93 181.467 226.412 181.467 226.412Z" fill="#650000"/>
</g>
<path d="M147.823 184.607C145.8 181.476 145.937 177.79 148.127 176.375C150.318 174.96 153.734 176.351 155.756 179.482C157.779 182.613 157.643 186.299 155.452 187.714C153.261 189.129 149.845 187.738 147.823 184.607Z" fill="white"/>
<path d="M147.149 170.429C146.023 168.685 146.099 166.633 147.319 165.845C148.539 165.057 150.441 165.832 151.567 167.575C152.693 169.319 152.617 171.371 151.397 172.159C150.177 172.947 148.275 172.172 147.149 170.429Z" fill="white"/>
<path d="M137.646 179.233C136.52 177.49 136.596 175.438 137.816 174.65C139.036 173.862 140.938 174.636 142.064 176.38C143.19 178.123 143.114 180.175 141.894 180.963C140.674 181.751 138.773 180.977 137.646 179.233Z" fill="white"/>
<path d="M140.098 171.671C138.972 169.927 139.048 167.875 140.268 167.087C141.488 166.299 143.39 167.074 144.516 168.817C145.642 170.561 145.566 172.613 144.346 173.401C143.126 174.189 141.224 173.414 140.098 171.671Z" fill="white"/>
<g opacity="0.3">
<path d="M277.722 186.18C277.722 186.18 267.85 204.27 231.693 201.761C195.536 199.251 182.048 176.451 182.048 176.451C182.048 176.451 223.465 211.534 277.722 186.18Z" fill="#650000"/>
</g>
<path d="M183.538 253.398C187.921 299.186 224.319 298.178 241.937 295.307C249.53 294.069 255.852 288.854 258.35 281.754C258.69 280.801 258.953 279.814 259.15 278.806C261.429 266.787 254.8 254.844 245.892 255.074C236.93 255.293 233.281 262.218 233.281 262.218C211.587 233.172 191.328 257.375 191.328 257.375L183.615 232.449C182.935 240.327 182.946 247.284 183.538 253.398Z" fill="#F9A429"/>
<g opacity="0.3">
<path d="M231.21 280.22C231.21 280.22 223.289 274.336 229.512 256.882C229.512 256.882 231.189 259.873 233.939 261.78C233.939 261.791 229.687 266.984 231.21 280.22Z" fill="#650000"/>
</g>
<g opacity="0.3">
<path d="M183.538 253.398C187.921 299.186 224.319 298.178 241.937 295.307C249.53 294.069 255.852 288.854 258.35 281.754C256.981 283.901 248.993 294.748 232.788 285.063C231.364 284.208 229.687 283.901 228.066 284.241C219.717 285.994 192.61 288.744 183.538 253.398Z" fill="#650000"/>
</g>
<path d="M241.558 280.574C241.489 276.847 243.548 273.787 246.155 273.739C248.763 273.691 250.932 276.674 251.001 280.401C251.069 284.127 249.01 287.187 246.403 287.235C243.795 287.283 241.626 284.3 241.558 280.574Z" fill="white"/>
<path d="M248.455 268.176C248.417 266.101 249.563 264.397 251.015 264.37C252.467 264.343 253.675 266.004 253.713 268.079C253.751 270.154 252.605 271.858 251.153 271.885C249.701 271.912 248.493 270.251 248.455 268.176Z" fill="white"/>
<path d="M235.742 270.637C235.704 268.562 236.851 266.858 238.303 266.832C239.755 266.805 240.963 268.466 241.001 270.541C241.039 272.616 239.892 274.32 238.44 274.347C236.988 274.373 235.781 272.713 235.742 270.637Z" fill="white"/>
<path d="M241.806 265.502C241.768 263.427 242.914 261.723 244.366 261.697C245.818 261.67 247.026 263.331 247.064 265.406C247.102 267.481 245.956 269.185 244.504 269.211C243.052 269.238 241.844 267.577 241.806 265.502Z" fill="white"/>
<path d="M300.807 290.311L319.116 205.364C320.288 199.93 325.087 196.051 330.653 196.051H444.942C449.982 196.051 453.686 200.762 452.513 205.66L432.123 290.311H300.807Z" fill="#465597"/>
<path d="M383.289 247.81C390.608 247.273 402.869 263.993 382.434 263.062C361.989 262.13 373.669 248.522 383.289 247.81Z" fill="#003580"/>
<path d="M391.435 246.258C391.024 243.725 392.744 241.339 395.277 240.928C397.81 240.517 400.196 242.237 400.607 244.769C401.018 247.302 399.298 249.688 396.765 250.099C394.233 250.51 391.847 248.79 391.435 246.258Z" fill="#003580"/>
<path d="M371.73 249.508C369.164 249.508 367.084 247.428 367.084 244.863C367.084 242.297 369.164 240.217 371.73 240.217C374.295 240.217 376.375 242.297 376.375 244.863C376.375 247.428 374.295 249.508 371.73 249.508Z" fill="#003580"/>
<path d="M379.188 239.465C378.433 236.267 380.413 233.063 383.611 232.308C386.808 231.553 390.013 233.533 390.768 236.731C391.523 239.929 389.543 243.133 386.345 243.888C383.147 244.643 379.943 242.663 379.188 239.465Z" fill="#003580"/>
<g opacity="0.3">
<path d="M325.252 198.669C325.361 198.144 325.526 197.629 325.701 197.136C327.213 196.434 328.9 196.051 330.653 196.051H333.031C315.106 266.305 333.097 280.823 401.488 280.823H434.402L433.734 283.617H306.943L325.252 198.669Z" fill="#003580"/>
</g>
<g opacity="0.7">
<path d="M320.836 201.299C322.973 198.1 326.61 196.04 330.642 196.04H444.942C449.982 196.04 453.686 200.751 452.513 205.649L432.123 290.3H427.62L448.021 205.605C448.646 202.997 446.674 200.499 444 200.499H437.459C436.287 200.499 435.169 200.894 434.183 201.529C432.32 202.745 428.54 203.567 424.19 203.567C419.841 203.567 416.061 202.734 414.198 201.529C413.212 200.894 412.094 200.499 410.922 200.499H325.076C323.586 200.51 322.162 200.795 320.836 201.299Z" fill="white"/>
</g>
<path d="M300.807 292.042H432.123C432.923 292.042 433.624 291.494 433.81 290.716L454.201 206.065C454.891 203.205 454.245 200.247 452.426 197.946C450.607 195.634 447.879 194.32 444.942 194.32H330.642C324.309 194.32 318.743 198.812 317.407 205.002L299.098 289.949C298.988 290.464 299.12 291.001 299.449 291.407C299.788 291.812 300.281 292.042 300.807 292.042ZM430.753 288.569H302.955L320.803 205.725C321.8 201.124 325.931 197.782 330.642 197.782H444.942C446.805 197.782 448.536 198.626 449.698 200.083C450.848 201.551 451.264 203.425 450.826 205.243L430.753 288.569Z" fill="#003580"/>
<path d="M234.465 296.797H431.718C434.227 296.797 436.254 294.771 436.254 292.261C436.254 289.752 434.227 287.725 431.718 287.725H234.465C231.956 287.725 229.929 289.752 229.929 292.261C229.929 294.76 231.956 296.797 234.465 296.797Z" fill="#465597"/>
<g opacity="0.3">
<path d="M235.736 292.886H430.447C432.759 292.886 434.753 291.834 435.684 290.3C436.046 290.892 436.254 291.549 436.254 292.25C436.254 294.76 433.657 296.787 430.447 296.787H235.736C232.525 296.787 229.929 294.76 229.929 292.25C229.929 291.549 230.137 290.892 230.498 290.3C231.43 291.834 233.424 292.886 235.736 292.886Z" fill="#003580"/>
</g>
<path d="M234.465 298.529H431.718C435.18 298.529 437.985 295.713 437.985 292.262C437.985 288.799 435.169 285.994 431.718 285.994H234.465C231.002 285.994 228.197 288.81 228.197 292.262C228.186 295.713 231.002 298.529 234.465 298.529ZM431.718 289.468C433.263 289.468 434.512 290.728 434.512 292.262C434.512 293.806 433.252 295.056 431.718 295.056H234.465C232.92 295.056 231.671 293.796 231.671 292.262C231.671 290.717 232.931 289.468 234.465 289.468H431.718Z" fill="#003580"/>
<path d="M300.807 298.529C301.18 298.529 301.563 298.408 301.881 298.156C304.018 296.469 305.102 294.54 305.102 292.426C305.102 288.996 302.21 286.619 301.881 286.356C301.125 285.764 300.029 285.896 299.438 286.652C298.846 287.408 298.978 288.492 299.723 289.084C300.259 289.511 301.629 290.947 301.629 292.437C301.629 293.434 300.983 294.442 299.734 295.428C298.978 296.02 298.846 297.115 299.449 297.871C299.777 298.299 300.292 298.529 300.807 298.529Z" fill="#003580"/>
<path d="M258.924 89.652C258.924 89.652 277.161 73.4169 289.781 75.5462C302.394 77.6755 298.037 118.571 292.519 127.208" fill="#FA9B27"/>
<g opacity="0.3">
<path d="M269.238 101.183L292.512 127.201C296.579 120.842 300.01 96.9949 296.509 84.014C295.766 83.4834 294.952 83.1226 294.04 82.967C283.818 81.248 272.98 95.6579 269.238 101.183Z" fill="#003580"/>
</g>
<g opacity="0.6">
<path d="M289.781 79.4582C295.426 80.4132 297.669 89.1214 297.938 99.2303C298.228 87.4166 296.211 76.2819 289.781 75.1925C277.168 73.0632 258.924 89.2983 258.924 89.2983L261.11 91.7388C266.316 87.5722 279.807 77.7746 289.781 79.4582Z" fill="white"/>
</g>
<path d="M290.616 87.261C290.191 85.6623 288.409 84.8487 286.923 85.5703C276.213 90.7415 272.464 98.7069 272.464 98.7069L287.538 114.107C292.879 100.9 291.769 91.6399 290.616 87.261Z" fill="#FF6C6C"/>
<g opacity="0.3">
<path d="M284.27 104.529C280.479 100.652 280.705 94.3847 284.773 90.7981C286.322 89.4328 288.189 88.0392 290.425 86.7517C289.795 85.4996 288.246 84.9266 286.923 85.5633C276.213 90.7344 272.464 98.6998 272.464 98.6998L287.538 114.1C288.175 112.523 288.72 111.009 289.18 109.551L284.27 104.529Z" fill="#003580"/>
</g>
<path d="M216.55 89.652C216.55 89.652 198.313 73.4169 185.693 75.5462C173.08 77.6755 177.438 118.571 182.955 127.208" fill="#FA9B27"/>
<g opacity="0.3">
<path d="M206.229 101.183L182.955 127.201C178.888 120.842 175.457 96.9949 178.958 84.014C179.701 83.4834 180.515 83.1226 181.427 82.967C191.656 81.248 202.487 95.6579 206.229 101.183Z" fill="#003580"/>
</g>
<g opacity="0.6">
<path d="M185.693 79.4582C180.048 80.4132 177.805 89.1214 177.537 99.2303C177.247 87.4166 179.263 76.2819 185.693 75.1925C198.306 73.0632 216.55 89.2983 216.55 89.2983L214.364 91.7388C209.158 87.5722 195.668 77.7746 185.693 79.4582Z" fill="white"/>
</g>
<path d="M184.858 87.261C185.283 85.6623 187.065 84.8487 188.551 85.5703C199.261 90.7415 203.01 98.7069 203.01 98.7069L187.935 114.107C182.587 100.9 183.698 91.6399 184.858 87.261Z" fill="#FF6C6C"/>
<g opacity="0.3">
<path d="M191.204 104.529C194.995 100.652 194.769 94.3847 190.701 90.7981C189.152 89.4328 187.284 88.0392 185.049 86.7517C185.679 85.4996 187.228 84.9266 188.551 85.5633C199.261 90.7344 203.01 98.6998 203.01 98.6998L187.935 114.1C187.299 112.523 186.754 111.009 186.294 109.551L191.204 104.529Z" fill="#003580"/>
</g>
<path d="M237.992 194.667C165.956 194.773 175.4 151.734 180.635 136.645C181.838 133.186 182.856 129.67 183.755 126.112C197.309 72.6814 278.675 72.6814 292.222 126.112C293.12 129.67 294.139 133.193 295.341 136.645C300.59 151.727 310.027 194.773 237.992 194.667Z" fill="#FA9B27"/>
<g opacity="0.6">
<path d="M180.642 141.144C181.845 137.685 182.863 134.169 183.762 130.611C197.316 77.1804 278.682 77.1804 292.229 130.611C293.127 134.169 294.146 137.692 295.348 141.144C296.77 145.233 298.496 151.381 298.829 158.158C299.267 149.64 297.081 141.618 295.348 136.638C294.146 133.179 293.127 129.663 292.229 126.105C278.682 72.6742 197.309 72.6742 183.762 126.105C182.863 129.663 181.845 133.186 180.642 136.638C178.916 141.618 176.73 149.64 177.162 158.158C177.494 151.381 179.22 145.233 180.642 141.144Z" fill="white"/>
</g>
<path d="M298.885 156.05C284.794 147.094 276.079 166.3 259.122 151.487C246.792 140.713 229.192 140.713 216.861 151.487C199.905 166.3 191.197 147.094 177.105 156.05V156.064C177.155 173.841 187.773 194.738 237.992 194.66C288.232 194.738 298.843 173.834 298.885 156.05Z" fill="#FFF3E9"/>
<path d="M239.308 151.161V158.341V158.349C239.308 158.872 238.996 159.325 238.544 159.53C237.829 159.926 237.136 160.23 236.407 160.52C235.686 160.803 234.936 161.044 234.172 161.256C233.408 161.454 232.623 161.624 231.795 161.702C231.392 161.751 230.96 161.758 230.536 161.772C230.316 161.765 230.09 161.751 229.871 161.737C229.652 161.723 229.411 161.673 229.185 161.638C228.251 161.454 227.437 161.072 226.73 160.641C226.023 160.209 225.4 159.707 224.806 159.176C223.639 158.115 222.641 156.962 221.771 155.667C221.615 155.434 221.679 155.123 221.905 154.967C222.089 154.84 222.337 154.861 222.5 154.995L222.521 155.01C223.653 155.922 224.827 156.813 226.023 157.563C226.624 157.931 227.232 158.278 227.833 158.547C228.442 158.801 229.022 158.985 229.567 159.028C230.111 159.07 230.755 159.013 231.406 158.893C231.731 158.844 232.064 158.759 232.396 158.695C232.729 158.61 233.061 158.532 233.401 158.433C234.738 158.073 236.117 157.592 237.433 157.146L236.669 158.334V151.154C236.669 150.433 237.256 149.845 237.978 149.845C238.72 149.853 239.308 150.44 239.308 151.161Z" fill="#003580"/>
<path d="M239.307 151.161V158.341L238.543 157.153C239.88 157.542 241.267 158.002 242.604 158.327C243.276 158.504 243.941 158.653 244.585 158.752C244.91 158.815 245.221 158.83 245.532 158.872L245.971 158.886C246.12 158.893 246.24 158.872 246.381 158.872C246.898 158.83 247.464 158.66 248.065 158.419C248.666 158.172 249.275 157.846 249.89 157.5C251.121 156.799 252.345 155.979 253.625 155.165L253.632 155.158C253.76 155.073 253.929 155.116 254.014 155.243C254.071 155.328 254.071 155.434 254.028 155.512C253.675 156.219 253.243 156.856 252.776 157.478C252.302 158.094 251.8 158.695 251.22 159.24C250.647 159.785 250.032 160.308 249.317 160.761C248.949 160.98 248.588 161.199 248.164 161.369L247.853 161.504C247.747 161.546 247.626 161.574 247.513 161.61C247.287 161.673 247.053 161.758 246.82 161.787C245.865 161.97 244.995 161.928 244.167 161.836C243.332 161.744 242.547 161.574 241.783 161.355C240.248 160.909 238.833 160.336 237.447 159.523C236.966 159.304 236.683 158.837 236.683 158.341V158.334V151.154C236.683 150.433 237.27 149.845 237.992 149.845C238.72 149.853 239.307 150.44 239.307 151.161Z" fill="#003580"/>
<path d="M239.025 145.389H235.827C233.719 145.389 231.95 146.853 231.484 148.82C231.349 149.4 231.576 150.001 232.064 150.341L235.105 152.484C236.803 153.68 239.102 153.581 240.687 152.229L242.915 150.334C243.304 150.001 243.502 149.485 243.403 148.982C243.007 146.938 241.196 145.389 239.025 145.389Z" fill="#003580"/>
<path d="M237.73 154.627C236.549 154.627 235.367 154.274 234.348 153.552L231.307 151.409C230.38 150.758 229.948 149.619 230.21 148.508C230.833 145.891 233.139 144.066 235.834 144.066H239.032C241.79 144.066 244.174 146.025 244.698 148.728C244.882 149.683 244.528 150.68 243.771 151.324L241.543 153.22C240.446 154.161 239.088 154.627 237.73 154.627ZM235.827 146.697C234.356 146.697 233.096 147.695 232.757 149.124C232.743 149.18 232.764 149.244 232.813 149.272L235.855 151.416C237.065 152.272 238.706 152.194 239.838 151.232L242.066 149.336C242.109 149.301 242.123 149.251 242.123 149.237C241.833 147.766 240.531 146.69 239.024 146.69H235.827V146.697Z" fill="#003580"/>
<path d="M221.488 136.44C221.622 139.27 220.321 142.213 218.085 144.222C216.968 145.226 215.624 146.018 214.152 146.457C212.688 146.91 211.124 147.016 209.604 146.818C208.083 146.62 206.611 146.082 205.324 145.276C204.036 144.469 202.933 143.401 202.098 142.163C200.407 139.708 199.848 136.596 200.506 133.865C200.577 133.589 200.853 133.412 201.136 133.483C201.362 133.54 201.518 133.731 201.532 133.95V133.964C201.617 135.238 201.864 136.461 202.31 137.586C202.749 138.711 203.371 139.737 204.135 140.614C205.663 142.375 207.771 143.521 209.986 143.762C211.096 143.889 212.228 143.804 213.303 143.521C214.386 143.231 215.418 142.743 216.352 142.071C218.234 140.741 219.67 138.718 220.469 136.284V136.277C220.561 136.002 220.851 135.853 221.127 135.945C221.347 136.037 221.481 136.235 221.488 136.44Z" fill="#003580"/>
<path d="M274.551 133.462C275.074 134.771 275.223 136.235 275.053 137.685C274.876 139.135 274.345 140.571 273.511 141.824C272.676 143.069 271.565 144.151 270.257 144.922C268.955 145.707 267.462 146.188 265.949 146.33C264.435 146.471 262.893 146.28 261.471 145.764C260.049 145.247 258.747 144.42 257.7 143.366C255.585 141.272 254.524 138.23 254.934 135.457C254.977 135.174 255.238 134.976 255.521 135.018C255.748 135.054 255.925 135.231 255.96 135.45V135.457C256.165 136.695 256.561 137.855 257.148 138.874C257.743 139.892 258.514 140.777 259.398 141.477C261.181 142.885 263.444 143.528 265.63 143.281C267.809 143.033 269.846 141.916 271.289 140.197C272.011 139.341 272.591 138.343 272.966 137.232C273.355 136.129 273.525 134.919 273.525 133.66V133.646C273.525 133.356 273.758 133.122 274.048 133.122C274.289 133.137 274.473 133.271 274.551 133.462Z" fill="#003580"/>
<path d="M214.407 118.776C214.647 121.033 217.951 122.533 221.792 122.122C225.633 121.712 228.548 119.554 228.307 117.298C228.067 115.041 225.174 113.775 221.339 114.185C217.505 114.595 214.166 116.512 214.407 118.776Z" fill="white"/>
<path d="M259.596 118.776C259.355 121.033 256.052 122.533 252.211 122.122C248.369 121.712 245.455 119.554 245.695 117.298C245.936 115.041 248.829 113.775 252.663 114.185C256.505 114.588 259.837 116.512 259.596 118.776Z" fill="white"/>
<path d="M186.374 129.672C186.402 129.284 186.629 128.932 186.979 128.747C189.084 127.618 191.294 126.85 193.353 126.323C194.675 125.989 195.949 125.499 197.196 124.962C211.181 118.883 221.729 123.454 226.799 126.757C227.678 127.331 228.811 127.396 229.755 126.924C235.629 124.009 242.05 125.24 245.657 126.378C246.545 126.656 247.508 126.517 248.273 125.999C252.796 122.88 263.617 117.448 278.084 123.648C279.859 124.407 281.663 125.129 283.514 125.684C285.346 126.23 287.282 126.98 289.113 128.016C289.453 128.21 289.68 128.562 289.699 128.951L289.944 132.698C289.982 133.226 289.652 133.707 289.132 133.874C288.197 134.179 286.592 134.873 284.619 136.474C284.505 139.935 283.722 143.831 281.446 147.208C278.386 151.761 273.278 154.454 266.28 155.194C265.827 155.24 265.374 155.277 264.93 155.305C258.905 155.685 254.127 154.112 250.709 150.632C245.194 145.006 244.892 135.965 245.138 131.514C242.541 130.551 235.969 128.682 230.803 132.106C231.049 136.104 230.973 146.116 224.92 152.057C221.436 155.472 216.629 156.962 210.614 156.471C210.17 156.434 209.727 156.388 209.273 156.332C202.286 155.453 197.234 152.677 194.259 148.069C192.049 144.645 191.341 140.74 191.294 137.279C189.358 135.65 187.753 134.919 186.827 134.595C186.317 134.42 185.996 133.929 186.044 133.402L186.374 129.672ZM253.504 148.041C256.299 150.891 260.464 152.039 265.874 151.456C271.682 150.836 275.846 148.707 278.254 145.135C281.635 140.111 280.898 133.374 280.256 130.061C280.086 129.219 279.519 128.506 278.745 128.109C263.995 120.631 253.542 126.693 249.982 129.376C249.425 129.793 249.085 130.422 249.038 131.107C248.792 134.716 248.773 143.229 253.504 148.041ZM197.517 146.061C199.849 149.679 203.976 151.881 209.774 152.603C215.175 153.279 219.358 152.205 222.21 149.411C227.026 144.682 227.177 136.178 226.998 132.569C226.96 131.884 226.639 131.246 226.091 130.82C222.588 128.071 212.248 121.825 197.356 129.025C196.573 129.404 195.987 130.107 195.808 130.949C195.09 134.253 194.231 140.98 197.517 146.061Z" fill="#003580"/>
</svg>
