<svg width="14" height="25" viewBox="0 0 14 25" fill="none" xmlns="http://www.w3.org/2000/svg">
<path d="M13.625 1.07769C13.625 0.753546 13.3651 0.467241 13.0624 0.58315C12.811 0.679412 12.586 0.859236 12.4331 1.12262L9.04056 6.96926C8.8026 7.37937 8.39128 7.65923 7.92245 7.73004L1.56456 8.69032C0.49671 8.85161 0.122135 10.1999 0.953767 10.8889L5.69013 14.8129C6.12856 15.1761 6.33471 15.7491 6.22821 16.3084L4.98925 22.8148C4.79339 23.8433 5.87313 24.6425 6.79956 24.1547L12.7863 21.0024C12.8449 20.9716 12.9049 20.9447 12.9661 20.9218C13.3056 20.7945 13.625 20.518 13.625 20.1554V1.07769Z" fill="#003580"/>
</svg>
