<svg width="195" height="199" viewBox="0 0 195 199" fill="none" xmlns="http://www.w3.org/2000/svg">
<g clip-path="url(#clip0_69_2334)">
<path d="M112.848 177.857C112.848 180.923 112.048 184.123 109.915 186.522C107.916 188.788 104.983 189.855 102.05 190.788C93.9182 193.454 85.5198 195.321 76.9881 196.387C76.5882 196.387 76.1883 196.52 75.7884 196.52C71.2559 197.054 66.8567 197.32 62.3243 197.32C58.725 197.32 55.2589 196.654 51.6596 196.387C42.5947 195.72 33.5298 193.454 25.398 189.455C22.0653 187.855 17.6662 185.989 15.9332 182.523C15.2666 181.19 15 179.857 15 178.39C15.1333 175.858 16.0665 173.191 16.4664 170.659C17.2662 165.726 16.0665 160.794 15.3999 155.995C13.0004 137.598 31.5302 134.266 45.7941 131.999C59.6581 129.733 74.0554 129.067 87.9194 131.733C93.9182 132.799 101.917 134.399 106.582 138.531C109.782 141.331 111.515 145.73 111.648 149.863C111.648 149.996 111.648 150.129 111.648 150.262C111.648 154.528 109.515 158.394 110.982 162.66C111.515 164.26 112.581 165.86 112.581 167.726C112.581 168.926 112.048 170.125 111.781 171.325C111.515 173.191 112.848 175.591 112.848 177.857Z" fill="#465597"/>
<path d="M95.5179 151.995C101.783 150.662 108.049 148.129 107.649 142.93C107.516 141.197 106.449 139.731 105.116 138.665C98.3174 133.332 87.7861 132.666 79.6543 131.733C68.1898 130.533 56.1921 130.666 44.7277 132.799C39.3953 133.866 20.199 136.532 20.199 144.663C20.199 149.063 30.0638 151.196 33.2632 152.129C43.2613 154.928 53.7926 155.461 64.0573 155.061C74.5886 154.795 85.2532 154.128 95.5179 151.995Z" fill="#003580"/>
<path d="M58.4584 153.995C48.8602 153.995 40.8617 152.928 33.6631 150.929C33.3965 150.796 32.9966 150.796 32.5967 150.662C29.5306 149.862 21.5321 147.596 21.5321 144.53C21.5321 137.731 37.5291 134.799 43.5279 133.732C44.0611 133.599 44.5943 133.599 44.9943 133.466C51.393 132.266 58.325 131.599 65.657 131.599C70.1894 131.599 74.8552 131.866 79.521 132.399L81.1207 132.532C88.7192 133.332 98.1841 134.265 104.183 139.198C105.383 140.131 106.049 141.464 106.183 142.664C106.449 146.396 102.717 149.063 95.118 150.796C84.4534 153.062 73.3888 153.728 64.0573 154.128C62.191 153.995 60.3247 153.995 58.4584 153.995Z" fill="#465597"/>
<path d="M112.448 177.99C115.247 184.123 106.716 189.188 102.183 190.655C94.0515 193.321 85.6531 195.187 77.1214 196.254C76.7215 196.254 76.3216 196.387 75.9216 196.387C71.3892 196.92 66.99 197.187 62.4575 197.187C58.8582 197.187 55.3922 196.52 51.7929 196.254C42.728 195.587 33.6631 193.321 25.5313 189.322C22.1986 187.722 17.7994 185.856 16.0664 182.39C15.3999 181.057 15.1333 179.723 15.1333 178.257C15.9331 178.257 16.733 178.924 17.3995 179.59C21.932 184.656 28.1975 187.989 34.8628 188.922C35.6627 189.055 36.5958 189.055 37.3957 188.655C38.4622 187.988 38.7288 186.389 38.5954 185.189C38.4621 183.856 38.0622 182.523 38.3288 181.323C38.7287 179.99 39.9285 178.924 41.1283 178.39C42.4614 177.857 43.9278 177.857 45.2608 177.857C47.2605 177.99 49.7933 177.99 50.8598 176.257C51.5263 175.191 51.1264 173.725 50.4598 172.658C49.2601 170.925 45.3941 169.192 45.9274 166.526C46.194 165.193 47.7937 164.393 49.1268 163.993C58.8582 160.794 69.3895 161.06 79.6542 160.26C83.2535 159.994 86.9862 159.594 90.5855 158.927C93.6516 158.394 96.7176 157.728 99.6504 156.528C101.517 155.861 105.649 152.395 107.516 153.462C108.582 154.128 109.115 155.595 108.849 156.794C108.582 157.994 107.915 159.194 107.116 160.127C106.316 161.06 105.383 161.993 104.716 163.193C104.316 163.86 104.05 164.526 104.449 165.193C104.983 166.259 106.716 166.126 107.782 166.793C109.515 167.859 108.582 170.525 109.115 172.525C109.648 174.524 111.648 175.591 112.581 177.324C112.181 177.59 112.315 177.857 112.448 177.99Z" fill="#465597"/>
<path d="M19.2659 167.992C18.866 169.859 17.9328 171.725 17.2663 173.458C16.5997 175.324 16.1998 177.457 17.133 179.19C18.5994 177.591 18.9993 175.324 19.6658 173.325C20.3324 171.325 21.6654 169.059 23.7984 168.926C25.1314 168.792 26.7312 169.459 27.531 168.392C28.0642 167.726 27.6643 166.526 26.9977 165.993C26.3312 165.326 25.3981 165.06 24.5982 164.66C21.3988 163.06 19.5325 159.727 18.866 156.261C18.4661 154.128 18.4661 151.862 18.5994 149.729C18.7327 148.796 19.1326 147.33 18.7327 146.397C16.9997 147.73 16.3331 151.596 16.4664 153.595C16.733 158.528 20.1991 162.793 19.2659 167.992Z" fill="#7177AE"/>
<path d="M24.8647 140.264C23.665 141.331 22.5985 142.397 21.9319 143.864C44.3277 135.465 68.723 132.532 92.5851 135.065C88.9858 133.866 85.2532 133.599 81.5205 133.199C78.3212 132.932 75.1218 132.666 71.9224 132.399C65.6569 131.999 59.2581 131.999 52.9926 132.666C49.1267 133.066 44.8609 133.332 41.2616 134.665C37.7956 135.865 33.9296 135.865 30.3303 137.198C28.3307 137.865 26.4644 138.931 24.8647 140.264Z" fill="#7177AE"/>
<path d="M68.8563 140.398C72.589 139.598 76.4549 139.065 80.1875 138.931C74.322 137.332 68.5897 137.198 62.9908 138.398C57.5251 137.065 51.7929 137.332 45.7941 138.931C49.66 139.198 53.3926 139.598 57.1252 140.398C53.126 142.264 49.2601 144.93 45.7941 148.663C51.2597 145.73 56.9919 143.464 62.9908 141.731C68.8563 143.33 74.5886 145.597 80.1875 148.663C76.7215 144.93 72.8556 142.131 68.8563 140.398Z" fill="#003580"/>
<path d="M37.6985 119.228C42.1956 121.582 43.9599 126.722 42.1908 130.557L45.1584 130.764C45.3071 133.213 44.8085 135.735 43.5907 138.07C40.0142 144.902 31.5762 147.539 24.7492 143.962C17.9221 140.386 15.2805 131.948 18.857 125.121C22.4336 118.289 30.8715 115.652 37.6985 119.228Z" fill="#FA9B27"/>
<g opacity="0.6">
<path d="M43.5763 132.686L45.0625 132.787C45.1872 131.88 45.2208 130.97 45.168 130.068L44.2331 130.001C44.1708 130.931 43.9646 131.837 43.5763 132.686Z" fill="white"/>
<path d="M20.2377 127.244C23.8143 120.413 32.2522 117.776 39.0793 121.352C40.5175 122.105 41.673 123.145 42.5263 124.329C41.8504 122.004 40.2011 119.837 37.7033 118.528C30.8714 114.952 22.4383 117.589 18.8618 124.421C16.4598 129.009 16.8626 134.321 19.4611 138.401C18.1954 134.867 18.3584 130.835 20.2377 127.244Z" fill="white"/>
</g>
<path d="M26.758 140.127C32.933 143.358 40.4169 141.512 44.4393 136.085C44.2092 136.756 43.9311 137.423 43.5907 138.07C40.0142 144.902 31.5762 147.539 24.7492 143.962C17.9221 140.386 15.2805 131.948 18.857 125.121C19.1974 124.469 19.5857 123.855 20.0124 123.28C17.831 129.68 20.5782 136.891 26.758 140.127Z" fill="white"/>
<g opacity="0.3">
<path d="M45.1632 130.763L42.4688 130.576C42.3202 130.926 42.1572 131.272 41.9798 131.612C38.4033 138.444 29.9653 141.081 23.1383 137.504C20.535 136.138 18.5406 134.067 17.2653 131.65C17.2893 136.656 20.0076 141.483 24.7492 143.967C31.581 147.543 40.0142 144.907 43.5907 138.075C44.8132 135.735 45.3118 133.213 45.1632 130.763Z" fill="#003580"/>
</g>
<path d="M38.0387 117.55C38.0915 116.146 38.197 114.789 38.3408 113.49C38.2017 114.774 38.1011 116.126 38.0387 117.55ZM57.8823 130.241C57.8679 130.241 57.8391 130.298 57.8199 130.332C57.796 130.37 57.7768 130.418 57.7528 130.461C57.7097 130.552 57.6713 130.644 57.633 130.739C57.5611 130.931 57.5035 131.133 57.4652 131.344C57.422 131.554 57.4028 131.765 57.4028 131.981C57.3981 132.202 57.4316 132.417 57.4748 132.643L57.4796 132.667C57.5083 132.806 57.4172 132.94 57.2734 132.964C57.1775 132.983 57.0768 132.94 57.0241 132.863C56.8707 132.652 56.7221 132.432 56.607 132.187C56.4871 131.948 56.396 131.689 56.3289 131.42C56.257 131.152 56.2091 130.878 56.1803 130.6C56.1707 130.461 56.1611 130.318 56.1563 130.174C56.1563 130.107 56.1563 130.039 56.1611 129.968V129.953C56.1659 129.872 56.1659 129.814 56.1899 129.699L56.2235 129.507C56.257 129.316 56.4967 129.239 56.631 129.383C56.7796 129.531 56.9378 129.666 57.1152 129.785C57.3741 129.968 57.6569 130.116 57.959 130.226C57.935 130.231 57.911 130.236 57.8823 130.241Z" fill="#F4A526"/>
<path d="M125.726 104.567C125.726 104.567 126.91 100.32 123.698 98.402C121.685 97.1986 119.081 97.2322 118.051 98.8766C118.051 98.8766 116.933 94.6193 112.988 96.1343C109.042 97.6445 108.702 102.592 108.702 102.592L105.931 102.942L104.08 103.177C100.321 87.2792 91.1978 87.5285 91.1978 87.5285C85.3344 89.5517 77.6491 90.7647 67.6483 90.7503C56.5303 90.7695 48.2746 89.2688 42.2002 86.819C42.2002 86.819 35.2677 86.7902 31.5665 101.969L29.7447 101.748L27.0167 101.418C27.0167 101.418 26.6859 96.7 22.7977 95.2521C18.9096 93.8042 17.8117 97.8698 17.8117 97.8698C16.7953 96.2973 14.2352 96.2685 12.2503 97.4143C9.0861 99.2457 10.2511 103.302 10.2511 103.302C10.2511 103.302 4.94384 109.908 15.2851 115.144C18.9144 116.985 22.5676 117.896 25.8565 118.293C32.7555 119.123 38.034 117.661 38.034 117.661C37.9333 120.005 37.9429 122.546 38.0915 125.274C22.4717 151.259 53.2654 149.26 63.7793 146.326C64.9587 145.995 66.1381 145.511 67.2551 144.859C68.6503 145.817 70.17 146.503 71.6898 146.93C82.2037 149.864 113.002 151.863 97.3776 125.878C97.5598 122.618 97.531 119.636 97.368 116.922C97.4351 117.8 97.4879 118.696 97.5214 119.617C97.5214 119.617 102.877 121.146 109.881 120.278C113.218 119.861 116.924 118.902 120.611 116.98C131.115 111.49 125.726 104.567 125.726 104.567Z" fill="#FA9B27"/>
<g opacity="0.6">
<path d="M102.062 104.107L104.008 102.88C100.206 87.2842 91.1978 87.5239 91.1978 87.5239C91.0683 87.567 90.9389 87.6102 90.8094 87.6533C93.2162 88.1759 99.3049 91.6518 102.062 104.107Z" fill="white"/>
</g>
<g opacity="0.6">
<path d="M33.7047 102.602C36.3176 91.1674 40.7907 87.7251 42.7707 87.0395C42.579 86.9676 42.392 86.8909 42.2002 86.8142C42.2002 86.8142 35.354 86.7902 31.6384 101.676L33.7047 102.602Z" fill="white"/>
</g>
<path d="M57.959 130.226C57.9303 130.226 57.9063 130.236 57.8823 130.236C57.8679 130.236 57.8392 130.294 57.82 130.327C57.796 130.365 57.7769 130.413 57.7529 130.457C57.7097 130.548 57.6714 130.639 57.633 130.735C57.5611 130.926 57.5036 131.128 57.4652 131.339C57.4221 131.55 57.4029 131.761 57.4029 131.976C57.3981 132.197 57.4317 132.413 57.4748 132.638L57.4796 132.662C57.5084 132.801 57.4173 132.935 57.2735 132.959C57.1776 132.978 57.0769 132.935 57.0242 132.859C56.8707 132.648 56.7221 132.427 56.6071 132.183C56.4872 131.943 56.3961 131.684 56.329 131.415C56.2571 131.147 56.2091 130.874 56.1804 130.596C56.1708 130.457 56.1612 130.313 56.1564 130.169C56.1564 130.102 56.1564 130.035 56.1612 129.963V129.948C56.166 129.867 56.166 129.809 56.1899 129.694L56.2235 129.503C56.2571 129.311 56.4968 129.234 56.631 129.378C56.7796 129.526 56.9379 129.661 57.1152 129.781C57.3741 129.968 57.657 130.116 57.959 130.226Z" fill="#003580"/>
<path d="M105.672 106.662C105.672 112.056 107.297 116.913 109.886 120.273C113.223 119.861 116.929 118.902 120.615 116.975C131.115 111.49 125.726 104.567 125.726 104.567C125.726 104.567 126.91 100.32 123.698 98.4019C121.685 97.1985 119.081 97.2321 118.055 98.8765C118.055 98.8765 116.938 94.6192 112.993 96.1342C109.047 97.6444 108.711 102.592 108.711 102.592L105.94 102.942C105.763 104.141 105.672 105.387 105.672 106.662Z" fill="white"/>
<g opacity="0.3">
<path d="M108.87 118.883C112.206 118.466 115.912 117.507 119.599 115.585C122.792 113.916 124.518 112.114 125.367 110.412C124.072 111.035 122.289 110.929 120.898 109.702C117.566 106.758 120.064 103.028 120.064 103.028C117.648 100.051 120.285 97.6492 120.285 97.6492C120.285 97.6492 120.606 97.5965 121.109 97.5725C119.834 97.4862 118.664 97.8938 118.046 98.8766C116.871 100.775 118.046 103.575 118.046 103.575C115.049 107.741 118.827 110.177 118.827 110.177C114.162 119.171 96.8839 112.396 96.8839 112.396L97.4113 118.432C99.2379 118.83 103.582 119.54 108.87 118.883Z" fill="#003580"/>
</g>
<path d="M104.392 104.007C104.075 104.05 103.725 104.122 103.394 104.198C103.059 104.275 102.728 104.361 102.397 104.467C102.071 104.567 101.75 104.687 101.443 104.836C101.136 104.985 100.844 105.157 100.647 105.435L100.642 105.44C100.623 105.464 100.59 105.474 100.561 105.454C100.542 105.44 100.532 105.416 100.537 105.397C100.623 105.023 100.868 104.697 101.112 104.419C101.366 104.141 101.644 103.882 101.932 103.642C102.22 103.402 102.517 103.177 102.824 102.961C103.135 102.746 103.433 102.544 103.778 102.338L103.797 102.329C104.229 102.074 104.785 102.213 105.039 102.65C105.293 103.081 105.154 103.637 104.718 103.891C104.622 103.954 104.502 103.992 104.392 104.007Z" fill="#003580"/>
<path d="M116.962 106.663C116.957 105.43 117.37 104.289 118.324 103.58C117.753 102.257 117.547 101.173 117.61 100.305C117.61 100.305 115.39 102.357 113.961 103.167C112.537 103.987 113.918 107.708 116.962 106.663Z" fill="#FF6C6C"/>
<path d="M30.0036 105.296C30.0036 110.445 28.4023 115.081 25.8517 118.289C22.5628 117.896 18.9096 116.98 15.2803 115.139C4.93907 109.904 10.2463 103.297 10.2463 103.297C10.2463 103.297 9.08132 99.2458 12.2456 97.4096C14.2304 96.259 16.7905 96.2926 17.8069 97.8651C17.8069 97.8651 18.9096 93.8043 22.793 95.2474C26.6763 96.6905 27.0119 101.413 27.0119 101.413L29.7399 101.744C29.9173 102.89 30.0036 104.078 30.0036 105.296Z" fill="white"/>
<g opacity="0.3">
<path d="M57.8824 130.241C57.868 130.241 57.8392 130.298 57.82 130.332C57.7961 130.37 57.7769 130.418 57.7529 130.461C57.7098 130.552 57.6714 130.644 57.6331 130.739C57.5611 130.931 57.5036 131.133 57.4653 131.343C57.4221 131.554 57.4029 131.765 57.4029 131.981C57.3981 132.202 57.4317 132.417 57.4748 132.643L57.4796 132.667C57.5084 132.806 57.4173 132.94 57.2735 132.964C57.1776 132.983 57.0769 132.94 57.0242 132.863C56.8708 132.652 56.7221 132.432 56.6071 132.187C56.4872 131.948 56.3961 131.689 56.329 131.42C56.2571 131.152 56.2092 130.878 56.1804 130.6C56.1708 130.461 56.1612 130.318 56.1564 130.174C56.1564 130.107 56.1564 130.039 56.1612 129.968V129.953C56.166 129.872 56.166 129.814 56.19 129.699L56.2235 129.507C56.2571 129.315 56.4968 129.239 56.6311 129.383C56.7797 129.531 56.9379 129.665 57.1153 129.785C57.3742 129.968 57.657 130.116 57.9591 130.226C57.9351 130.231 57.9111 130.236 57.8824 130.241Z" fill="#003580"/>
</g>
<g opacity="0.3">
<path d="M63.7169 124.397C63.7169 124.397 63.5827 124.464 63.3574 124.617C60.1404 125.298 58.4912 127.196 57.6713 128.664C57.657 128.659 57.6426 128.654 57.6282 128.649C59.6706 124.516 63.7169 124.397 63.7169 124.397Z" fill="#003580"/>
</g>
<path d="M31.8638 101.125C32.1994 101.322 32.4919 101.518 32.7987 101.724C33.1007 101.93 33.3932 102.151 33.6761 102.381C33.9589 102.611 34.2322 102.861 34.4863 103.129C34.7308 103.398 34.9753 103.709 35.0616 104.078C35.0712 104.107 35.052 104.141 35.0184 104.145C34.9945 104.15 34.9705 104.141 34.9609 104.121L34.9561 104.117C34.7596 103.853 34.4671 103.69 34.1651 103.551C33.863 103.417 33.5466 103.306 33.2254 103.211C32.9042 103.119 32.5734 103.038 32.2474 102.966C31.9213 102.899 31.5762 102.832 31.2693 102.793C30.7707 102.731 30.4207 102.276 30.4831 101.777C30.5454 101.278 31.0008 100.929 31.4994 100.991C31.6241 101.005 31.7392 101.048 31.8398 101.106L31.8638 101.125Z" fill="#003580"/>
<path d="M18.881 105.296C18.8858 104.121 18.483 103.028 17.5386 102.357C18.0995 101.096 18.3009 100.061 18.2385 99.2313C18.2385 99.2313 20.4247 101.187 21.8342 101.964C23.239 102.741 21.8822 106.293 18.881 105.296Z" fill="#FF6C6C"/>
<path d="M88.8677 109.865C88.8677 125.84 79.2552 132.964 67.3989 132.964C55.5426 132.964 45.9301 125.84 45.9301 109.865C45.9301 93.8906 55.5426 80.9413 67.3989 80.9413C79.2552 80.9413 88.8677 93.8906 88.8677 109.865Z" fill="white"/>
<g opacity="0.3">
<path d="M95.1916 88.7367C92.9287 87.4806 91.2027 87.5285 91.2027 87.5285C85.3393 89.5517 77.6541 90.7647 67.6532 90.7503C56.5353 90.7695 48.2795 89.2688 42.2052 86.819C42.2052 86.819 40.9826 86.8142 39.295 87.9312C44.8276 93.6988 55.4566 97.6013 67.6532 97.6013C79.2745 97.5965 89.4672 94.0535 95.1916 88.7367Z" fill="#003580"/>
</g>
<path d="M74.2453 134.153C73.4926 140.922 68.6168 144.974 63.7794 146.33C61.3487 147.011 57.8297 147.639 54.0518 147.879C53.9655 147.884 53.8744 147.893 53.7881 147.898C42.8523 148.55 29.9126 145.928 34.8267 131.986H40.997C43.9263 130.27 47.2583 129.968 51.2903 129.939C51.9567 129.934 52.6327 129.939 53.3374 129.944C54.5168 129.953 55.749 129.972 57.0434 129.972C58.731 125.844 62.1829 123.73 66.3012 123.802C71.5893 123.884 75.0028 127.383 74.2453 134.153Z" fill="#FA9B27"/>
<path d="M74.2452 134.153C73.4925 140.922 68.6167 144.974 63.7793 146.33C61.3486 147.011 57.8296 147.639 54.0517 147.879C51.7888 144.557 50.4464 140.424 50.4464 135.946C50.4464 133.851 50.7388 131.832 51.2854 129.939C51.9518 129.934 52.6278 129.939 53.3326 129.944C54.5119 129.953 55.7441 129.972 57.0385 129.972C58.7261 125.844 62.178 123.73 66.2963 123.802C71.5892 123.884 75.0027 127.383 74.2452 134.153Z" fill="white"/>
<path d="M81.6859 148.497C77.8073 148.267 74.1829 147.625 71.6946 146.93C66.8572 145.578 61.9814 141.522 61.2287 134.757C60.4712 127.987 63.8895 124.488 69.1824 124.401C73.3007 124.334 76.7526 126.448 78.4402 130.572C79.7346 130.572 80.9668 130.552 82.1462 130.543C87.113 130.504 91.0731 130.586 94.4818 132.585H100.647C105.561 146.527 92.6217 149.149 81.6859 148.497Z" fill="#FA9B27"/>
<path d="M81.6859 148.497C77.8073 148.267 74.1828 147.625 71.6946 146.93C66.8572 145.578 61.9814 141.522 61.2287 134.757C60.4712 127.987 63.8895 124.488 69.1824 124.401C73.3007 124.334 76.7526 126.448 78.4402 130.572C79.7346 130.572 80.9668 130.552 82.1462 130.543C80.7606 135.328 79.7442 141.958 81.6859 148.497Z" fill="white"/>
<path d="M81.8396 19.5792C81.8396 19.5792 94.1993 8.57632 102.752 10.0194C111.3 11.4625 108.347 39.1782 104.608 45.032" fill="#F9A528"/>
<g opacity="0.3">
<path d="M88.8296 27.3939L104.603 45.0273C107.359 40.7172 109.685 24.5557 107.312 15.7582C106.808 15.3986 106.257 15.1541 105.638 15.0486C98.7106 13.8836 91.3657 23.6496 88.8296 27.3939Z" fill="#003580"/>
</g>
<g opacity="0.6">
<path d="M102.752 12.9056C106.578 13.5528 108.098 19.4546 108.28 26.3056C108.477 18.2992 107.11 10.753 102.752 10.0147C94.1993 8.57638 81.8396 19.5793 81.8396 19.5793L83.3211 21.2333C86.8496 18.3999 95.9923 11.7646 102.752 12.9056Z" fill="white"/>
</g>
<path d="M103.318 17.9589C103.03 16.8754 101.822 16.324 100.815 16.8131C93.5568 20.3177 91.0158 25.716 91.0158 25.716L101.232 36.1532C104.852 27.2023 104.099 20.9266 103.318 17.9589Z" fill="#FF6C6C"/>
<g opacity="0.3">
<path d="M99.0175 29.6616C96.4477 27.0343 96.6012 22.7866 99.3579 20.3559C100.408 19.4306 101.674 18.4861 103.189 17.6136C102.762 16.765 101.712 16.3766 100.815 16.8081C93.5568 20.3128 91.0158 25.7111 91.0158 25.7111L101.232 36.1483C101.664 35.0791 102.033 34.0532 102.345 33.0655L99.0175 29.6616Z" fill="#003580"/>
</g>
<path d="M101.232 37.0401C101.122 37.0401 101.007 37.0209 100.902 36.973C100.446 36.7908 100.226 36.273 100.413 35.8175C103.941 27.0967 103.212 21.0272 102.465 18.1842C102.373 17.8342 102.119 17.6712 101.976 17.6041C101.731 17.489 101.448 17.4938 101.204 17.6089C94.3095 20.9361 91.85 26.0372 91.826 26.0899C91.6151 26.5358 91.0877 26.7228 90.6419 26.5166C90.196 26.3057 90.009 25.7783 90.2152 25.3325C90.3254 25.1023 92.9767 19.6081 100.432 16.0124C101.156 15.6624 101.99 15.6576 102.719 15.9932C103.447 16.3288 103.98 16.9616 104.181 17.7335C104.986 20.7875 105.782 27.2885 102.057 36.4839C101.918 36.8291 101.582 37.0401 101.232 37.0401Z" fill="#003580"/>
<path d="M81.8394 19.5792C81.8394 19.5792 94.1991 8.57632 102.752 10.0194C111.3 11.4625 108.347 39.1782 104.607 45.032" fill="#FA9B27"/>
<g opacity="0.3">
<path d="M88.8295 27.3939L104.603 45.0273C107.359 40.7172 109.685 24.5557 107.311 15.7582C106.808 15.3986 106.257 15.1541 105.638 15.0486C98.7105 13.8836 91.3657 23.6496 88.8295 27.3939Z" fill="#003580"/>
</g>
<g opacity="0.6">
<path d="M102.752 12.6706C106.578 13.3178 108.098 19.2196 108.28 26.0706C108.476 18.0642 107.11 10.518 102.752 9.77965C94.2039 8.33657 81.8394 19.3394 81.8394 19.3394L83.3208 20.9935C86.8494 18.1696 95.9921 11.5296 102.752 12.6706Z" fill="white"/>
</g>
<path d="M103.318 17.9588C103.03 16.8753 101.822 16.3239 100.815 16.8129C93.5565 20.3176 91.0155 25.7159 91.0155 25.7159L101.232 36.1531C104.852 27.2021 104.099 20.9264 103.318 17.9588Z" fill="#FF6C6C"/>
<g opacity="0.3">
<path d="M99.0172 29.6616C96.4475 27.0343 96.6009 22.7866 99.3576 20.3559C100.408 19.4306 101.673 18.4861 103.188 17.6136C102.762 16.765 101.712 16.3766 100.815 16.8081C93.5565 20.3128 91.0155 25.7111 91.0155 25.7111L101.232 36.1483C101.664 35.0791 102.033 34.0532 102.344 33.0655L99.0172 29.6616Z" fill="#003580"/>
</g>
<path d="M53.1217 19.5792C53.1217 19.5792 40.762 8.57632 32.209 10.0194C23.6608 11.4625 26.6141 39.1782 30.3536 45.032" fill="#FA9B27"/>
<g opacity="0.3">
<path d="M46.1267 27.3939L30.3535 45.0273C27.5968 40.7172 25.2716 24.5557 27.6448 15.7582C28.1482 15.3986 28.6995 15.1541 29.318 15.0486C36.2505 13.8836 43.5905 23.6496 46.1267 27.3939Z" fill="#003580"/>
</g>
<g opacity="0.6">
<path d="M32.209 12.6706C28.3832 13.3178 26.8634 19.2196 26.6812 26.0706C26.4846 18.0642 27.851 10.518 32.209 9.77965C40.7572 8.33657 53.1217 19.3394 53.1217 19.3394L51.6402 20.9935C48.1117 18.1696 38.969 11.5296 32.209 12.6706Z" fill="white"/>
</g>
<path d="M31.6433 17.9588C31.9309 16.8753 33.1391 16.3239 34.1459 16.8129C41.4044 20.3176 43.9454 25.7159 43.9454 25.7159L33.7288 36.1531C30.1043 27.2021 30.857 20.9264 31.6433 17.9588Z" fill="#FF6C6C"/>
<g opacity="0.3">
<path d="M35.9437 29.6616C38.5134 27.0343 38.36 22.7866 35.6033 20.3559C34.5533 19.4306 33.2876 18.4861 31.7726 17.6136C32.1993 16.765 33.2493 16.3766 34.1458 16.8081C41.4043 20.3128 43.9453 25.7111 43.9453 25.7111L33.7287 36.1483C33.2972 35.0791 32.928 34.0532 32.6164 33.0655L35.9437 29.6616Z" fill="#003580"/>
</g>
<path d="M67.6531 90.7504C18.8329 90.8223 25.2333 61.6539 28.7811 51.4277C29.5961 49.0833 30.2865 46.7005 30.8953 44.289C40.0812 8.07781 95.225 8.07781 104.406 44.289C105.015 46.7005 105.705 49.0881 106.52 51.4277C110.078 61.6491 116.473 90.8223 67.6531 90.7504Z" fill="#FA9B27"/>
<g opacity="0.6">
<path d="M28.7858 54.4768C29.6008 52.1324 30.2912 49.7496 30.9001 47.3381C40.0859 11.1269 95.2297 11.1269 104.411 47.3381C105.02 49.7496 105.71 52.1372 106.525 54.4768C107.489 57.2479 108.659 61.4141 108.884 66.007C109.181 60.2347 107.7 54.798 106.525 51.4228C105.71 49.0784 105.02 46.6957 104.411 44.2841C95.2297 8.07293 40.0811 8.07293 30.9001 44.2841C30.2912 46.6957 29.6008 49.0832 28.7858 51.4228C27.616 54.798 26.1345 60.2347 26.427 66.007C26.6523 61.4141 27.8221 57.2479 28.7858 54.4768Z" fill="white"/>
</g>
<path d="M108.922 64.5783C99.3721 58.5088 93.4655 71.5253 81.9736 61.486C73.6172 54.1843 61.689 54.1843 53.3326 61.486C41.8407 71.5253 35.9389 58.5088 26.3887 64.5783V64.5879C26.4223 76.636 33.6185 90.7983 67.6531 90.7455C101.702 90.7983 108.894 76.6312 108.922 64.5783Z" fill="white"/>
<path d="M68.545 61.2655V66.1317V66.1365C68.545 66.4913 68.334 66.7981 68.0272 66.9372C67.543 67.2056 67.0731 67.4118 66.5793 67.6084C66.0903 67.8001 65.5821 67.9631 65.0643 68.107C64.5466 68.2412 64.0144 68.3563 63.4535 68.409C63.1802 68.4426 62.8877 68.4473 62.6001 68.4569C62.4515 68.4521 62.298 68.4426 62.1494 68.433C62.0008 68.4234 61.8378 68.3898 61.6844 68.3658C61.0515 68.2412 60.5002 67.9823 60.0207 67.6899C59.5413 67.3974 59.1194 67.057 58.7167 66.6974C57.9256 65.9783 57.2497 65.1968 56.66 64.3195C56.5545 64.1613 56.5976 63.9503 56.751 63.8448C56.8757 63.7585 57.0435 63.7729 57.1538 63.864L57.1681 63.8736C57.9352 64.4921 58.7311 65.0961 59.5413 65.6043C59.9488 65.8536 60.3611 66.0886 60.7687 66.2707C61.181 66.4433 61.5741 66.568 61.9433 66.5968C62.3124 66.6255 62.7487 66.5872 63.1898 66.5057C63.4103 66.4721 63.6356 66.4146 63.861 66.3714C64.0863 66.3139 64.3116 66.2612 64.5418 66.194C65.4479 65.9495 66.3828 65.6235 67.2745 65.3215L66.7567 66.1269V61.2607C66.7567 60.7717 67.1546 60.3738 67.6437 60.3738C68.1471 60.3786 68.545 60.7765 68.545 61.2655Z" fill="#003580"/>
<path d="M68.5447 61.2655V66.1317L68.0269 65.3263C68.933 65.59 69.8727 65.9016 70.7788 66.1221C71.2343 66.242 71.685 66.3427 72.1212 66.4098C72.3418 66.4529 72.5527 66.4625 72.7637 66.4913L73.0609 66.5009C73.1616 66.5057 73.2431 66.4913 73.339 66.4913C73.689 66.4625 74.0725 66.3475 74.48 66.1844C74.8875 66.0166 75.2999 65.7961 75.717 65.5612C76.5512 65.0866 77.3806 64.5304 78.2483 63.9791L78.2531 63.9743C78.3394 63.9168 78.4545 63.9455 78.512 64.0318C78.5504 64.0893 78.5504 64.1613 78.5216 64.214C78.2819 64.6934 77.9895 65.1249 77.673 65.5468C77.3518 65.9639 77.0114 66.3714 76.6183 66.7406C76.2299 67.1097 75.8128 67.4645 75.3286 67.7714C75.0793 67.92 74.8348 68.0686 74.5472 68.1837L74.3362 68.2748C74.2643 68.3035 74.1828 68.3227 74.1061 68.3467C73.9527 68.3898 73.7945 68.4473 73.6362 68.4665C72.989 68.5912 72.3993 68.5624 71.8384 68.5001C71.2727 68.4378 70.7405 68.3227 70.2227 68.1741C69.1823 67.872 68.2235 67.4837 67.2838 66.9324C66.9578 66.7837 66.766 66.4673 66.766 66.1317V66.1269V61.2607C66.766 60.7717 67.164 60.3738 67.653 60.3738C68.1468 60.3786 68.5447 60.7765 68.5447 61.2655Z" fill="#003580"/>
<path d="M68.3531 57.3534H66.186C64.7573 57.3534 63.5588 58.3458 63.2423 59.6786C63.1513 60.0718 63.3047 60.4793 63.6355 60.7094L65.697 62.1621C66.8476 62.9723 68.4058 62.9052 69.4797 61.9895L70.9899 60.7046C71.2536 60.4793 71.3878 60.1293 71.3207 59.7889C71.0522 58.4033 69.8249 57.3534 68.3531 57.3534Z" fill="#003580"/>
<path d="M67.4757 63.6147C66.675 63.6147 65.8744 63.3749 65.184 62.8859L63.1225 61.4333C62.4944 60.9922 62.202 60.2203 62.3793 59.4676C62.8012 57.6937 64.3642 56.4568 66.1908 56.4568H68.3578C70.2276 56.4568 71.8433 57.7848 72.198 59.6162C72.3227 60.2634 72.083 60.9394 71.57 61.3757L70.0598 62.6606C69.3167 63.2982 68.3962 63.6147 67.4757 63.6147ZM66.186 58.2403C65.1888 58.2403 64.3354 58.9163 64.1053 59.8847C64.0957 59.9231 64.1101 59.9662 64.1436 59.9854L66.2052 61.438C67.025 62.0182 68.1373 61.9654 68.9044 61.3134L70.4146 60.0285C70.4433 60.0046 70.4529 59.971 70.4529 59.9614C70.2563 58.9642 69.3742 58.2355 68.353 58.2355H66.186V58.2403Z" fill="#003580"/>
<path d="M56.4681 51.2886C56.5592 53.2064 55.6771 55.2008 54.1621 56.5624C53.4046 57.2431 52.4937 57.7801 51.4965 58.0773C50.504 58.3842 49.4445 58.4561 48.4137 58.3219C47.383 58.1876 46.3858 57.8233 45.5132 57.2767C44.6406 56.7302 43.8927 56.0062 43.327 55.1672C42.1812 53.5036 41.8024 51.3941 42.2483 49.5435C42.2962 49.3566 42.4832 49.2367 42.675 49.2846C42.8284 49.323 42.9339 49.4524 42.9435 49.6011V49.6106C43.001 50.4736 43.1688 51.303 43.4708 52.0653C43.7681 52.8276 44.19 53.5228 44.7078 54.1173C45.7433 55.311 47.172 56.0877 48.6726 56.2507C49.4253 56.337 50.1924 56.2795 50.9212 56.0877C51.6547 55.8912 52.3546 55.5604 52.9875 55.1049C54.2628 54.2036 55.236 52.8324 55.7778 51.1832V51.1784C55.8401 50.9914 56.0366 50.8907 56.2236 50.953C56.3722 51.0154 56.4633 51.1496 56.4681 51.2886Z" fill="#003580"/>
<path d="M92.43 49.2703C92.7847 50.1572 92.8854 51.1496 92.7703 52.1325C92.6505 53.1153 92.2909 54.0885 91.7252 54.9371C91.1595 55.7809 90.4068 56.5144 89.5198 57.037C88.6377 57.5692 87.6261 57.8952 86.6001 57.9911C85.5741 58.087 84.529 57.9575 83.5653 57.6075C82.6017 57.2576 81.7195 56.6966 81.01 55.9823C79.5765 54.5632 78.8573 52.5016 79.1354 50.6223C79.1642 50.4305 79.3416 50.2963 79.5333 50.325C79.6868 50.349 79.8066 50.4689 79.8306 50.6175V50.6223C79.9696 51.4613 80.2381 52.2475 80.636 52.9379C81.0387 53.6283 81.5613 54.2276 82.1606 54.7022C83.3687 55.6563 84.9029 56.0925 86.3844 55.9247C87.861 55.7569 89.2417 54.9995 90.2198 53.8344C90.7088 53.2543 91.1019 52.5783 91.356 51.8256C91.6197 51.0777 91.7348 50.2579 91.7348 49.4045V49.3949C91.7348 49.1984 91.893 49.0402 92.0896 49.0402C92.2526 49.0497 92.3772 49.1408 92.43 49.2703Z" fill="#003580"/>
<path d="M51.669 39.3173C51.832 40.8467 54.0709 41.8631 56.6742 41.585C59.2775 41.307 61.2528 39.8447 61.0897 38.3153C60.9267 36.786 58.9659 35.9278 56.3674 36.2059C53.7689 36.4839 51.506 37.7832 51.669 39.3173Z" fill="white"/>
<path d="M82.2948 39.3173C82.1318 40.8467 79.8929 41.8631 77.2896 41.585C74.6863 41.307 72.7111 39.8447 72.8741 38.3153C73.0371 36.786 74.9979 35.9278 77.5964 36.2059C80.1997 36.4791 82.4578 37.7832 82.2948 39.3173Z" fill="white"/>
<g opacity="0.3">
<path d="M67.6531 83.2425C41.8168 83.2808 30.7803 75.4805 26.662 66.381C28.2489 77.3887 37.2286 88.6984 67.6531 88.6552C98.0777 88.7032 107.057 77.3887 108.644 66.381C104.531 75.4805 93.4943 83.2856 67.6531 83.2425Z" fill="#003580"/>
</g>
<g opacity="0.3">
<path d="M15.2851 113.749C18.9143 115.59 22.5676 116.5 25.8565 116.898C32.7554 117.728 38.0339 116.266 38.0339 116.266L38.149 112.421C38.1586 112.416 38.1682 112.416 38.173 112.411C37.5737 112.641 20.8273 119.017 16.2487 110.182C16.2487 110.182 20.6882 106.293 17.6918 102.132C17.6918 102.132 18.9863 99.7636 17.8117 97.8651C17.3946 97.2226 16.7186 96.8391 15.9275 96.6857C16.5508 97.4767 17.6439 99.4088 15.8028 101.681C15.8028 101.681 18.3007 105.411 14.9686 108.355C13.0318 110.067 10.347 109.601 9.25386 108.024C9.92027 109.865 11.6174 111.893 15.2851 113.749Z" fill="#003580"/>
</g>
<g opacity="0.3">
<path d="M101.453 135.51C100.94 132.835 99.6501 129.651 97.3824 125.873C97.5358 123.102 97.5071 119.852 97.5167 119.506L96.8934 112.401C96.8934 112.401 92.1614 126.42 76.3499 128.501C74.8541 126.789 72.0398 124.727 67.0298 124.392C65.6203 124.296 64.4073 124.392 63.3574 124.612C62.1253 125.461 58.2035 128.927 59.5507 138.046C60.1548 142.15 56.7029 145.559 49.8375 145.559C42.9769 145.559 37.4155 142.198 37.4155 138.046C37.4155 133.894 42.5214 129.968 52.297 129.948C54.325 129.944 55.7872 130.289 56.842 130.883C57.0385 130.03 57.3118 129.287 57.6282 128.644C41.9557 125.586 38.1874 112.401 38.1874 112.401L38.034 117.656C37.9333 120 37.9429 122.541 38.0915 125.269C22.4718 151.254 53.2654 149.255 63.7793 146.321C64.9587 145.99 66.1381 145.506 67.2551 144.854C68.6503 145.813 70.1701 146.498 71.6899 146.925C76.4218 148.243 85.2577 149.375 92.1279 147.855C98.3077 146.489 102.891 142.97 101.453 135.51ZM86.9069 143.54C84.4378 144 81.5277 144.192 78.4162 144.192C75.5013 144.192 66.4929 143.607 64.7813 135.299C63.8129 130.61 66.5312 126.612 70.5296 126.429C72.5193 126.338 74.4897 127.201 76.067 128.678C76.7478 129.316 77.3615 130.068 77.8649 130.902C78.0471 130.902 78.2293 130.898 78.4162 130.898C86.2501 130.898 92.7943 131.406 94.3285 135.515C94.5538 136.114 94.6689 136.785 94.6689 137.547C94.6689 140.851 91.5621 142.677 86.9069 143.54Z" fill="#003580"/>
</g>
<g opacity="0.19">
<path d="M188.44 124.532C188.44 124.417 188.44 124.302 188.44 124.187V124.072C188.44 123.957 188.44 123.726 188.44 123.611C188.44 123.151 188.44 122.575 188.44 122.115C188.44 121.655 188.44 121.194 188.325 120.734C188.44 120.389 188.44 120.043 188.44 119.813L188.785 119.698L188.555 118.547C188.555 117.626 188.44 116.706 187.979 115.9L162.428 6.79057C162.313 6.56038 162.083 6.3302 161.853 6.3302C161.623 6.3302 161.392 6.56038 161.277 6.79057L134.575 119.813L135.151 119.928H134.115C134 120.619 134 121.425 134 122.23C134 124.072 134.23 125.913 134.575 127.64H134.46V128.791H134.806C137.568 139.725 146.775 148.011 158.285 149.162C158.745 149.162 159.091 149.277 159.551 149.277C159.666 149.277 159.666 149.277 159.781 149.277C160.126 149.277 160.357 149.277 160.702 149.277H161.277H161.853C162.198 149.277 162.428 149.277 162.774 149.277C163.234 149.277 163.694 149.162 164.155 149.162C165.651 149.047 167.147 148.702 168.643 148.242C169.104 148.126 169.564 147.896 170.14 147.781C170.715 148.472 171.291 149.047 171.866 149.508C170.255 149.968 169.219 152.04 169.679 153.881C170.14 155.723 171.636 156.989 173.247 157.334C174.398 157.564 175.549 157.334 176.47 156.643C177.736 155.723 178.311 153.881 177.966 152.385C179.117 153.421 181.189 152.5 181.419 150.889C181.649 149.277 179.808 147.781 178.426 148.472C177.851 148.817 177.275 149.508 176.585 149.277C175.549 149.047 175.779 147.321 176.47 146.4C177.621 145.134 179.232 144.789 180.728 144.098C182.225 143.408 183.721 142.142 183.606 140.415C183.606 139.725 183.375 139.034 182.915 138.574C183.375 137.998 183.721 137.538 184.066 136.962C184.066 136.847 184.181 136.847 184.181 136.732C184.526 136.157 184.872 135.581 185.217 135.006C185.562 134.43 185.792 133.855 186.138 133.164C186.138 133.049 186.253 133.049 186.253 132.934C186.483 132.358 186.713 131.783 186.943 131.092C186.943 130.977 187.058 130.862 187.058 130.747C187.174 130.517 187.289 130.172 187.289 129.941C187.289 129.826 187.289 129.711 187.404 129.711C187.519 129.481 187.519 129.136 187.634 128.906C187.634 128.791 187.634 128.791 187.749 128.675C187.749 128.56 187.864 128.33 187.864 128.215C187.979 127.87 187.979 127.525 188.094 127.179C188.094 127.064 188.094 126.949 188.209 126.834C188.209 126.719 188.209 126.719 188.209 126.604C188.209 126.374 188.325 126.258 188.325 126.028H188.555V124.877H188.44C188.44 124.647 188.44 124.647 188.44 124.532ZM182.8 115.209C183.26 113.713 181.419 112.102 179.808 112.562C178.426 112.908 177.621 114.174 177.16 115.44C177.16 113.828 175.779 112.332 174.053 112.102C171.981 111.872 170.14 113.368 168.989 115.209C169.449 113.598 169.564 111.987 169.334 110.26C169.104 108.764 168.528 107.153 167.147 106.577C165.766 106.002 163.809 107.498 164.5 108.879C163.579 109.109 162.889 108.189 162.658 107.268C162.543 106.808 162.543 106.232 162.428 105.657V11.7396L186.483 114.519C185.217 113.828 183.491 114.058 182.8 115.209ZM161.392 104.16C160.126 103.585 158.17 104.275 157.479 105.657C156.904 106.808 156.904 108.074 157.249 109.455C156.789 108.074 155.983 106.808 154.602 106.347C153.106 105.772 151.264 107.038 151.034 108.419C150.689 107.038 149.998 105.772 148.732 105.542C147.351 105.311 146.085 106.462 145.74 107.843C145.394 109.225 145.625 110.606 145.97 111.872C145.279 110.606 144.474 109.225 142.977 108.994C141.366 108.764 139.985 110.26 139.64 111.757C139.294 113.368 139.87 114.864 140.33 116.475C139.409 115.44 137.453 116.13 136.762 117.396C136.302 118.202 136.302 119.123 136.302 120.043H135.842L161.392 11.9698V104.16Z" fill="#003580"/>
</g>
<path d="M140.215 113.598C140.1 114.289 140.1 115.094 140.1 115.9C140.1 130.862 152.3 143.062 167.262 143.062C182.225 143.062 194.425 130.862 194.425 115.9C194.425 115.094 194.425 114.404 194.31 113.598H140.215Z" fill="#003580"/>
<path opacity="0.42" d="M166.457 141.566C155.868 136.732 151.264 124.762 150.459 113.598H141.251C142.978 122.115 144.819 130.402 151.725 136.502C154.372 138.919 157.825 140.991 161.623 142.487C163.464 142.832 165.421 143.062 167.378 143.062C168.413 143.062 169.334 142.947 170.37 142.947C168.989 142.487 167.723 142.142 166.457 141.566Z" fill="#003580"/>
<path opacity="0.21" d="M194.425 113.598H184.872C184.987 117.281 184.872 120.964 184.296 124.647C183.376 130.862 180.153 138.113 174.744 142.026C186.138 138.804 194.425 128.33 194.425 115.9C194.54 115.094 194.54 114.289 194.425 113.598Z" fill="white"/>
<path opacity="0.32" d="M194.425 113.598H189.591C189.591 121.885 187.749 129.942 184.181 137.192C190.512 132.243 194.54 124.532 194.54 115.9C194.54 115.094 194.54 114.289 194.425 113.598Z" fill="white"/>
<g opacity="0.75">
<path d="M140.612 117.783L140.597 118.934L194.456 119.629L194.471 118.478L140.612 117.783Z" fill="white"/>
</g>
<g opacity="0.75">
<path d="M193.159 121.309H140.676V122.46H193.159V121.309Z" fill="white"/>
</g>
<path d="M142.517 115.094C142.287 113.713 142.057 112.217 142.747 110.951C143.438 109.685 145.279 108.994 146.315 110.03C145.855 108.534 145.279 106.923 145.625 105.311C145.97 103.7 147.351 102.319 148.962 102.549C150.344 102.779 151.264 104.16 151.955 105.426C151.61 104.045 151.379 102.664 151.725 101.398C152.07 100.017 153.336 98.8661 154.717 99.0962C156.444 99.4415 157.019 101.513 157.364 103.24C156.213 101.513 158.745 99.2114 160.702 99.9019C162.659 100.592 163.579 102.894 163.81 104.851C163.349 103.009 162.889 100.938 163.695 99.2113C164.5 97.4849 167.262 96.6793 168.298 98.2906C168.759 99.0962 168.759 100.017 168.874 100.938C169.104 101.859 169.794 102.779 170.715 102.549C170.025 101.168 171.981 99.7868 173.362 100.247C174.744 100.823 175.434 102.434 175.549 103.93C175.779 105.542 175.664 107.268 175.204 108.879C176.24 107.038 178.196 105.657 180.268 105.772C182.34 106.002 184.066 108.419 183.03 110.145C183.261 108.419 184.296 106.577 186.023 106.117C187.749 105.657 189.821 107.613 188.9 109.109C189.591 106.923 193.159 107.383 194.31 109.34C195.461 111.296 194.885 113.828 194.31 116.015L142.517 115.094Z" fill="#32656B"/>
<path d="M141.826 113.713L140.676 113.483L167.377 0.46037C167.492 0.230182 167.723 0 167.953 0C168.183 0 168.413 0.230182 168.528 0.46037L195 113.483L193.849 113.713L167.953 3.10754L141.826 113.713Z" fill="#003580"/>
<path d="M167.953 143.062L166.802 142.947L167.377 113.598V0.575439H168.528V113.598L167.953 143.062Z" fill="#003580"/>
<path d="M185.332 114.404C186.828 115.325 188.094 116.706 189.015 118.317C188.094 121.655 183.375 123.266 183.951 126.604C184.411 129.942 189.706 130.632 189.706 134.085C189.706 135.811 188.209 137.193 186.828 137.768C185.332 138.459 183.721 138.804 182.57 140.07C181.879 140.876 181.649 142.717 182.685 142.947C183.376 143.062 183.951 142.372 184.526 142.142C185.908 141.451 187.749 142.832 187.519 144.559C187.289 146.17 185.217 147.091 184.066 146.055C184.411 147.666 183.836 149.393 182.57 150.313C181.649 151.004 180.383 151.234 179.347 151.004C177.736 150.659 176.125 149.393 175.779 147.551C175.319 145.709 176.355 143.638 177.966 143.177C176.125 141.566 174.168 139.264 174.858 136.732C175.549 134.085 179.002 132.704 178.657 130.057C178.426 128.33 176.93 127.409 175.664 126.374C174.513 125.338 173.708 123.036 174.974 122.115C175.434 121.77 176.125 121.77 176.585 121.309C178.081 119.928 175.089 117.396 175.549 115.325C175.779 114.404 176.7 113.828 177.391 113.483C178.887 112.677 180.383 111.872 182.109 111.987C183.721 111.987 185.562 113.138 185.792 114.979" fill="#32656B"/>
</g>
<defs>
<clipPath id="clip0_69_2334">
<rect width="195" height="199" fill="white"/>
</clipPath>
</defs>
</svg>
