<svg width="42" height="40" viewBox="0 0 42 40" fill="none" xmlns="http://www.w3.org/2000/svg">
<g clip-path="url(#clip0_17_42)">
<path d="M41.5 20C41.5 31.0394 32.3166 40 21 40C9.68342 40 0.5 31.0394 0.5 20C0.5 8.96057 9.68342 0 21 0C32.3166 0 41.5 8.96057 41.5 20Z" fill="#0054F0"/>
<path d="M18.3607 14.5878C18.3245 14.6953 18.3968 14.8029 18.5053 14.8029L20.2407 14.767C20.2407 14.767 17.8906 24.086 17.4206 25.9857C16.8421 28.3512 15.866 30.7527 15.179 31.6129C14.5644 32.3656 14.1667 32.6165 13.7328 32.6165C13.1543 32.6165 12.8651 32.1864 12.6843 31.5054C12.5758 31.0036 12.2504 30.3226 11.5273 30.3226C10.7681 30.3226 9.75572 31.1469 9.75572 32.1864C9.75572 33.5484 12.0697 33.871 12.8289 33.871C14.3474 33.871 16.336 32.9032 17.6376 31.3978C19.3369 29.4982 20.2769 27.1326 21.1446 23.7993L23.2778 14.7312L25.5194 14.767C25.7002 14.767 25.7725 14.6236 25.8086 14.552L26.0979 13.7276C26.134 13.6201 26.0617 13.5125 25.9533 13.5125H23.6393C24.1816 11.577 25.0132 8.74551 26.604 7.20429C26.7487 7.06092 27.1464 6.73834 27.5079 6.73834C28.1226 6.73834 28.3033 7.09676 28.5926 7.67024C28.8457 8.24372 28.8095 9.21146 29.6772 9.21146C30.6896 9.21146 31.4488 8.10035 31.4488 7.34766C31.4488 6.30823 29.6411 5.62723 28.1587 5.62723C26.4594 5.62723 24.7963 6.34407 23.6032 7.52687C21.9039 9.2473 21.1085 11.7921 20.5661 13.5484L18.8307 13.5125C18.7222 13.5125 18.6137 13.6201 18.5776 13.6917L18.3607 14.5878ZM27.3633 24.0502C27.3272 24.5161 27.0741 25.7706 25.664 25.7706C24.8324 25.7706 24.2178 25.233 24.2901 24.2652C24.3263 23.2975 25.0132 22.5089 25.9894 22.4731C26.6402 22.5089 27.4356 22.9391 27.3633 24.0502ZM32.3889 24.0502C32.3527 24.5161 32.0996 25.7706 30.6896 25.7706C29.858 25.7706 29.2434 25.233 29.3157 24.2652C29.3518 23.2975 30.0388 22.5089 31.015 22.4731C31.6296 22.5089 32.425 22.9391 32.3889 24.0502ZM37.3783 24.0502C37.3421 24.5161 37.0891 25.7706 35.679 25.7706C34.8474 25.7706 34.2328 25.233 34.3051 24.2652C34.3413 23.2975 35.0282 22.5089 36.0044 22.4731C36.6552 22.5089 37.4144 22.9391 37.3783 24.0502ZM15.866 7.27597C14.8175 7.31182 14.0943 8.13619 14.022 9.17562C13.9497 10.1792 14.5644 10.7527 15.4682 10.7527C16.9868 10.7527 17.3122 9.39067 17.3122 8.88888C17.3845 7.74192 16.5891 7.27597 15.866 7.27597Z" fill="white"/>
<path d="M13.3712 20.5735L14.9621 16.7383C15.2875 15.9857 15.6852 14.9821 15.6852 14.3011C15.6852 13.4409 15.0344 13.2258 14.5644 13.2258C12.3951 13.2258 10.0811 15.7348 9.2134 16.7383C9.14109 16.81 9.10493 16.9534 9.24955 17.0609L9.64726 17.4552C9.71957 17.5269 9.86419 17.5269 9.9365 17.4193C9.9365 17.4193 10.985 16.2724 11.3827 15.9857C11.4912 15.914 11.6358 15.8064 11.7443 15.8064C11.8889 15.8064 11.9612 16.0215 11.9612 16.129C11.9612 16.4874 11.5996 17.3477 11.4189 17.7778L9.75573 21.9713C9.17724 23.3692 8.888 24.1219 8.888 24.7312C8.888 25.448 9.28571 26.0215 10.2981 26.0215C12.612 26.0215 15.5044 22.5806 15.5044 22.5806C15.6129 22.4373 15.5767 22.3297 15.5044 22.2581L15.0705 21.8638C14.9982 21.7921 14.8536 21.7563 14.7451 21.8638C14.7451 21.8638 13.1905 23.5842 12.6481 23.5842C12.3951 23.5842 12.4312 23.2975 12.4312 23.2616C12.4312 23.0107 12.5758 22.5448 12.6843 22.3297L13.3712 20.5735Z" fill="white"/>
</g>
<defs>
<clipPath id="clip0_17_42">
<rect width="41" height="40" fill="white" transform="translate(0.5)"/>
</clipPath>
</defs>
</svg>
