<svg width="25" height="16" viewBox="0 0 25 16" fill="none" xmlns="http://www.w3.org/2000/svg">
<g clip-path="url(#clip0_20_1473)">
<path d="M23.1277 0.0131531H1.87231C0.838233 0.0131531 0 0.830629 0 1.83911V14.161C0 15.1694 0.838233 15.9869 1.87231 15.9869H23.1277C24.1617 15.9869 25 15.1694 25 14.161V1.83911C25 0.830629 24.1618 0.0131531 23.1277 0.0131531Z" fill="#41479B"/>
<path d="M24.9741 1.53723C24.8265 0.67252 24.0562 0.013092 23.1277 0.013092H22.6405L14.6552 5.11533V0.0131396H10.3448V5.11538L2.35947 0.0131396H1.87231C0.94375 0.0131396 0.173486 0.67252 0.0259277 1.53728L6.85103 5.89824H0V10.1019H6.85103L0.0259277 14.4627C0.173486 15.3274 0.94375 15.9869 1.87231 15.9869H2.35947L10.3448 10.8846V15.9869H14.6552V10.8846L22.6405 15.9869H23.1277C24.0562 15.9869 24.8265 15.3275 24.9741 14.4627L18.149 10.1018H25V5.89814H18.149L24.9741 1.53723Z" fill="#F5F5F5"/>
<path d="M13.7931 0.0131531H11.2069V6.73891H0V9.26111H11.2069V15.9869H13.7931V9.26111H25V6.73891H13.7931V0.0131531Z" fill="#FF4B55"/>
<path d="M1.21058 15.8691L10.3211 10.1018H8.73768L0.450378 15.3481C0.653162 15.5789 0.913757 15.7598 1.21058 15.8691Z" fill="#FF4B55"/>
<path d="M16.9135 10.1018H15.3301L24.1541 15.6878C24.401 15.5296 24.6071 15.316 24.7541 15.0651L16.9135 10.1018Z" fill="#FF4B55"/>
<path d="M0.197693 1.0226L7.89935 5.89817H9.48275L0.755603 0.373413C0.521277 0.543508 0.329529 0.765889 0.197693 1.0226Z" fill="#FF4B55"/>
<path d="M16.2386 5.89819L24.541 0.642235C24.336 0.412187 24.0734 0.232377 23.7745 0.125092L14.6552 5.89819H16.2386Z" fill="#FF4B55"/>
</g>
<defs>
<clipPath id="clip0_20_1473">
<rect width="25" height="16" fill="white"/>
</clipPath>
</defs>
</svg>
