<svg width="163" height="24" viewBox="0 0 163 24" fill="none" xmlns="http://www.w3.org/2000/svg">
<g clip-path="url(#clip0_93_3161)">
<path d="M13.8526 23.4893H8.10768L0.119141 1.02124H5.84709L10.9801 17.0042L16.1132 1.02124H21.8411L13.8526 23.4893Z" fill="#003580"/>
<path d="M33.0028 23.4894V21.2255C32.9008 21.4524 32.6403 21.7816 32.221 22.2128C31.813 22.6439 31.2691 23.0354 30.5893 23.3873C29.9094 23.7277 29.1163 23.8979 28.2097 23.8979C26.8499 23.8979 25.6602 23.5689 24.6404 22.9107C23.6205 22.2412 22.8275 21.3503 22.2608 20.2383C21.6943 19.1149 21.4109 17.8724 21.4109 16.5106C21.4109 15.1489 21.6943 13.9121 22.2608 12.8C22.8275 11.6766 23.6205 10.7801 24.6404 10.1106C25.6602 9.44114 26.8499 9.10638 28.2097 9.10638C29.0823 9.10638 29.8472 9.24822 30.5043 9.53192C31.1615 9.80426 31.6941 10.1333 32.102 10.5192C32.5099 10.8936 32.7932 11.2397 32.9518 11.5574V9.51489H38.0849V23.4894H33.0028ZM26.476 16.5106C26.476 17.1461 26.6234 17.7192 26.9179 18.2298C27.2127 18.729 27.6036 19.1205 28.0907 19.4043C28.5894 19.688 29.1389 19.8298 29.7394 19.8298C30.3627 19.8298 30.9122 19.688 31.3881 19.4043C31.864 19.1205 32.238 18.729 32.5099 18.2298C32.7932 17.7192 32.9348 17.1461 32.9348 16.5106C32.9348 15.8752 32.7932 15.3078 32.5099 14.8085C32.238 14.2979 31.864 13.9007 31.3881 13.617C30.9122 13.322 30.3627 13.1745 29.7394 13.1745C29.1389 13.1745 28.5894 13.322 28.0907 13.617C27.6036 13.9007 27.2127 14.2979 26.9179 14.8085C26.6234 15.3078 26.476 15.8752 26.476 16.5106Z" fill="#003580"/>
<path d="M50.882 9.51486H56.7289L50.1511 16.1872L57.4088 23.4893H51.4259L46.0379 17.8723V23.4893H40.8708V0.0680542H46.0379V14.3829L50.882 9.51486Z" fill="#003580"/>
<path d="M63.6873 15.983C63.6873 17.095 63.8969 17.9859 64.3162 18.6553C64.7355 19.3135 65.438 19.6426 66.4238 19.6426C67.4322 19.6426 68.1405 19.3135 68.5484 18.6553C68.9677 17.9859 69.1773 17.095 69.1773 15.983V9.51489H74.2763V16.5277C74.2763 18.0255 73.9648 19.3306 73.3415 20.4426C72.7296 21.5433 71.8402 22.3944 70.673 22.9958C69.5058 23.5971 68.0895 23.8979 66.4238 23.8979C64.7695 23.8979 63.3587 23.5971 62.1916 22.9958C61.0244 22.3944 60.1349 21.5433 59.5231 20.4426C58.9112 19.3306 58.6052 18.0255 58.6052 16.5277V9.51489H63.6873V15.983Z" fill="#003580"/>
<path d="M82.3108 15.983C82.3108 17.095 82.5205 17.9859 82.9396 18.6553C83.359 19.3135 84.0614 19.6426 85.0473 19.6426C86.0559 19.6426 86.7639 19.3135 87.1719 18.6553C87.5912 17.9859 87.8008 17.095 87.8008 15.983V9.51489H92.8998V16.5277C92.8998 18.0255 92.5883 19.3306 91.965 20.4426C91.3531 21.5433 90.4637 22.3944 89.2965 22.9958C88.1295 23.5971 86.713 23.8979 85.0473 23.8979C83.393 23.8979 81.9822 23.5971 80.815 22.9958C79.648 22.3944 78.7584 21.5433 78.1465 20.4426C77.5346 19.3306 77.2287 18.0255 77.2287 16.5277V9.51489H82.3108V15.983Z" fill="#003580"/>
<path d="M99.5067 23.8979C98.668 23.8979 97.943 23.5971 97.3311 22.9958C96.7304 22.383 96.4302 21.6567 96.4302 20.817C96.4302 19.9546 96.7304 19.2227 97.3311 18.6213C97.943 18.0085 98.668 17.7021 99.5067 17.7021C100.368 17.7021 101.099 18.0085 101.699 18.6213C102.3 19.2227 102.6 19.9546 102.6 20.817C102.6 21.6567 102.3 22.383 101.699 22.9958C101.099 23.5971 100.368 23.8979 99.5067 23.8979Z" fill="#003580"/>
<path d="M113.927 19.8298C114.573 19.8298 115.106 19.7221 115.525 19.5064C115.944 19.2795 116.227 19.0979 116.375 18.9617L118.737 22.4681C118.556 22.6157 118.244 22.8085 117.802 23.0468C117.361 23.2737 116.805 23.4724 116.137 23.6426C115.479 23.8128 114.726 23.8979 113.876 23.8979C112.278 23.8979 110.873 23.5971 109.661 22.9958C108.448 22.383 107.502 21.5205 106.822 20.4085C106.154 19.2965 105.82 17.9915 105.82 16.4936C105.82 14.9844 106.154 13.6794 106.822 12.5787C107.502 11.478 108.448 10.6269 109.661 10.0255C110.873 9.41277 112.278 9.10638 113.876 9.10638C114.715 9.10638 115.462 9.19716 116.12 9.37872C116.788 9.54894 117.349 9.74752 117.802 9.97447C118.256 10.1901 118.573 10.3773 118.754 10.5362L116.341 14.0766C116.261 13.9972 116.114 13.8837 115.899 13.7362C115.695 13.5886 115.428 13.4582 115.1 13.3447C114.771 13.2312 114.38 13.1745 113.927 13.1745C113.372 13.1745 112.851 13.3163 112.363 13.6C111.888 13.8837 111.502 14.2752 111.208 14.7745C110.913 15.2738 110.766 15.8468 110.766 16.4936C110.766 17.1404 110.913 17.7192 111.208 18.2298C111.502 18.729 111.888 19.1205 112.363 19.4043C112.851 19.688 113.372 19.8298 113.927 19.8298Z" fill="#003580"/>
<path d="M127.942 23.8979C126.412 23.8979 125.053 23.5859 123.863 22.9617C122.684 22.3263 121.755 21.4582 121.075 20.3575C120.407 19.2455 120.073 17.9745 120.073 16.5447C120.073 15.1149 120.407 13.844 121.075 12.7319C121.755 11.6085 122.684 10.7234 123.863 10.0766C125.053 9.42979 126.412 9.10638 127.942 9.10638C129.472 9.10638 130.82 9.42979 131.987 10.0766C133.154 10.7234 134.067 11.6085 134.724 12.7319C135.381 13.844 135.71 15.1149 135.71 16.5447C135.71 17.9745 135.381 19.2455 134.724 20.3575C134.067 21.4582 133.154 22.3263 131.987 22.9617C130.82 23.5859 129.472 23.8979 127.942 23.8979ZM127.942 19.6426C128.531 19.6426 129.041 19.512 129.472 19.2511C129.902 18.9901 130.237 18.6213 130.475 18.1447C130.713 17.6681 130.832 17.129 130.832 16.5277C130.832 15.9149 130.713 15.3702 130.475 14.8936C130.237 14.417 129.902 14.0426 129.472 13.7702C129.041 13.4979 128.531 13.3617 127.942 13.3617C127.353 13.3617 126.837 13.4979 126.395 13.7702C125.965 14.0426 125.625 14.417 125.376 14.8936C125.138 15.3702 125.019 15.9149 125.019 16.5277C125.019 17.129 125.138 17.6681 125.376 18.1447C125.625 18.6213 125.965 18.9901 126.395 19.2511C126.837 19.512 127.353 19.6426 127.942 19.6426Z" fill="#003580"/>
<path d="M157.588 9.10638C158.642 9.10638 159.571 9.32766 160.376 9.77021C161.18 10.2014 161.809 10.8709 162.262 11.7787C162.727 12.6865 162.959 13.8553 162.959 15.2851V23.4894H157.877V16.0681C157.877 15.0922 157.73 14.3035 157.435 13.7021C157.141 13.1007 156.557 12.8 155.684 12.8C155.163 12.8 154.704 12.9362 154.308 13.2085C153.911 13.4809 153.605 13.861 153.39 14.3489C153.175 14.8255 153.067 15.3986 153.067 16.0681V23.4894H148.325V16.0681C148.325 15.0922 148.161 14.3035 147.832 13.7021C147.515 13.1007 146.948 12.8 146.132 12.8C145.611 12.8 145.152 12.9362 144.755 13.2085C144.359 13.4695 144.053 13.844 143.838 14.3319C143.634 14.8085 143.532 15.3872 143.532 16.0681V23.4894H138.399V9.51489H143.532V11.5064C143.668 11.1546 143.962 10.7972 144.415 10.434C144.88 10.0596 145.452 9.74752 146.132 9.49787C146.812 9.23689 147.532 9.10638 148.291 9.10638C149.118 9.10638 149.809 9.2312 150.364 9.48085C150.92 9.71915 151.373 10.0426 151.724 10.4511C152.087 10.8596 152.376 11.3021 152.591 11.7787C152.75 11.3702 153.061 10.9617 153.526 10.5532C154.002 10.1333 154.591 9.78723 155.293 9.51489C156.007 9.24255 156.772 9.10638 157.588 9.10638Z" fill="#003580"/>
</g>
<defs>
<clipPath id="clip0_93_3161">
<rect width="163" height="24" fill="white"/>
</clipPath>
</defs>
</svg>
