<svg width="195" height="199" viewBox="0 0 195 199" fill="none" xmlns="http://www.w3.org/2000/svg">
<path d="M20.6544 133.413C9.54293 128.972 8.82406 125.54 6.31647 126.287C2.3598 127.46 0.214485 142.228 9.92785 147.167C19.1827 151.869 29.3999 136.982 20.6544 133.413Z" fill="#F89B29"/>
<path d="M9.92798 147.167C17.7677 151.149 26.3037 141.072 23.4056 135.73C20.8017 139.356 15.8941 141.961 11.2299 139.588C6.56001 137.22 4.62979 132.575 4.32412 128.264C1.96937 132.717 2.05427 143.168 9.92798 147.167Z" fill="white"/>
<path d="M138.59 150.198C137.475 156.44 132.601 160.887 125.254 160.887C125.254 160.887 119.894 160.887 119.209 160.887C116.667 160.887 115.767 156.882 117.714 155.409C118.614 154.729 120.069 154.639 120.035 154.446C120.035 154.441 120.03 154.429 120.024 154.424C119.865 154.214 116.463 150.141 117.545 145.468C118.784 140.109 124.36 138.285 128.803 138.432L136.807 141.095L137.877 140.37C138.335 142.16 138.652 144.12 138.788 146.283C138.879 147.643 138.805 148.957 138.59 150.198Z" fill="#D6D6E7"/>
<path d="M138.59 150.198C137.475 156.44 132.601 160.887 125.254 160.887C125.254 160.887 119.894 160.887 119.209 160.887C116.667 160.887 115.767 156.882 117.714 155.409C118.614 154.729 120.069 154.639 120.035 154.446C121.716 154.35 124.031 154.418 127.19 154.843C132.969 155.624 136.807 153.693 138.59 150.198Z" fill="white"/>
<g opacity="0.3">
<path d="M138.59 150.203C137.481 156.446 132.602 160.893 125.254 160.893C125.254 160.893 119.894 160.893 119.209 160.893C117.562 160.893 116.599 159.205 116.667 157.619C116.667 157.59 116.667 157.562 116.673 157.534C116.673 157.505 116.679 157.471 116.679 157.443C116.679 157.432 116.679 157.42 116.684 157.409C116.69 157.364 116.696 157.313 116.701 157.267C116.707 157.233 116.713 157.199 116.718 157.165C116.724 157.131 116.73 157.092 116.741 157.058C116.747 157.035 116.747 157.018 116.752 156.995C116.758 156.961 116.769 156.933 116.775 156.899C116.797 156.803 116.831 156.706 116.865 156.61C117.216 157.675 118.043 158.531 119.215 158.531C119.894 158.531 125.26 158.531 125.26 158.531C130.575 158.531 134.6 156.202 136.836 152.549C137.549 151.875 138.132 151.087 138.59 150.203Z" fill="#003580"/>
</g>
<g opacity="0.7">
<path d="M124.756 141.044C124.756 141.044 120.935 141.797 119.826 145.196C118.773 148.425 120.494 148.974 121.026 147.196C121.558 145.417 122.124 143.31 124.756 141.044Z" fill="white"/>
</g>
<path d="M125.249 129.584C115.988 138.161 106.252 135.645 101.027 133.204C98.6104 132.077 97.1613 130.961 97.1613 130.961C94.9198 131.856 91.9141 131.573 90.9574 128.729C90.0461 126.027 90.0008 123.297 91.031 121.433C92.1461 119.405 94.5348 118.397 98.4462 119.552C98.9896 119.711 99.5387 119.886 100.093 120.068C107.611 122.543 115.626 126.287 119.65 113.791C120.488 111.197 124.02 113.978 126.075 118.136C127.881 121.801 128.554 126.52 125.249 129.584Z" fill="#D6D6E7"/>
<g opacity="0.3">
<path d="M125.249 129.585C115.988 138.161 106.252 135.646 101.027 133.204C98.6104 132.077 97.1613 130.961 97.1613 130.961C94.9198 131.856 91.9141 131.573 90.9574 128.729C90.0461 126.027 90.0008 123.297 91.031 121.433C91.1329 124.192 91.6876 129.046 94.3424 129.284C98.8085 129.675 97.9991 123.076 97.9651 122.838C98.0387 123.099 100.541 131.369 106.614 132.026C117.431 133.199 119.792 117.768 119.792 117.768L126.081 118.142C127.881 121.801 128.554 126.52 125.249 129.585Z" fill="#003580"/>
</g>
<g opacity="0.3">
<path d="M101.452 129.148C101.288 130.757 101.146 132.105 101.027 133.204C98.6104 132.077 97.1613 130.961 97.1613 130.961C94.9197 131.856 91.914 131.573 90.9574 128.729C90.5046 127.392 90.2668 126.044 90.2668 124.798C90.2668 124.702 90.2668 124.605 90.2725 124.503V124.486C90.2782 124.39 90.2838 124.299 90.2895 124.203C90.2895 124.141 90.3008 124.079 90.3008 124.016C90.3065 123.965 90.3121 123.914 90.3178 123.863C90.3348 123.705 90.3574 123.552 90.3801 123.404C90.3857 123.365 90.3914 123.319 90.4027 123.28C90.414 123.229 90.4197 123.178 90.431 123.121C90.4706 122.929 90.5159 122.747 90.5668 122.566C90.5838 122.504 90.6065 122.441 90.6235 122.379C90.6404 122.328 90.6574 122.283 90.6744 122.232C90.6914 122.175 90.714 122.119 90.7367 122.068C90.7989 121.903 90.8669 121.75 90.9461 121.597C90.9744 121.541 91.0027 121.49 91.031 121.439C91.031 121.427 91.0367 121.422 91.0423 121.416C91.1442 124.175 91.6989 129.029 94.3537 129.267C98.8198 129.658 98.0104 123.059 97.9764 122.821C98.016 123.002 99.0745 126.503 101.452 129.148Z" fill="#003580"/>
</g>
<path d="M101.571 127.964C101.356 130.106 101.175 131.845 101.028 133.204C98.6106 132.077 97.1615 130.961 97.1615 130.961C94.9199 131.856 91.9142 131.573 90.9576 128.729C89.0557 123.093 90.9406 117.332 98.4521 119.552C98.9955 119.711 99.5445 119.887 100.099 120.068C101.09 122.141 101.882 124.854 101.571 127.964Z" fill="white"/>
<g opacity="0.3">
<path d="M101.452 129.148C101.288 130.757 101.146 132.105 101.027 133.204C98.6104 132.077 97.1613 130.961 97.1613 130.961C94.9197 131.856 91.914 131.573 90.9574 128.729C90.5046 127.392 90.2668 126.044 90.2668 124.798C90.2668 124.702 90.2668 124.605 90.2725 124.503V124.486C90.2782 124.39 90.2838 124.299 90.2895 124.203C90.2895 124.141 90.3008 124.079 90.3008 124.016C90.3065 123.965 90.3121 123.914 90.3178 123.863C90.3348 123.705 90.3574 123.552 90.3801 123.404C90.3857 123.365 90.3914 123.319 90.4027 123.28C90.414 123.229 90.4197 123.178 90.431 123.121C90.4706 122.929 90.5159 122.747 90.5668 122.566C90.5838 122.504 90.6065 122.441 90.6235 122.379C90.6404 122.328 90.6574 122.283 90.6744 122.232C90.6914 122.175 90.714 122.119 90.7367 122.068C90.7989 121.903 90.8669 121.75 90.9461 121.597C90.9744 121.541 91.0027 121.49 91.031 121.439C91.031 121.427 91.0367 121.422 91.0423 121.416C91.1442 124.175 91.6989 129.029 94.3537 129.267C98.8198 129.658 98.0104 123.059 97.9764 122.821C98.016 123.002 99.0745 126.503 101.452 129.148Z" fill="#003580"/>
</g>
<path d="M191.029 118.686C191.012 118.816 190.995 118.946 190.972 119.071C190.916 119.439 190.842 119.796 190.752 120.136C188.753 127.823 179.306 126.894 179.125 118.386C179 112.33 176.204 110.404 173.578 110.772C173.17 110.829 172.768 110.942 172.383 111.101C171.517 111.458 170.719 112.058 170.119 112.823C169.61 113.469 169.242 114.228 169.078 115.06C168.772 116.641 168.897 118.221 169.327 119.807C170.227 123.144 172.474 126.48 174.908 129.788C175.604 130.74 176.317 131.68 177.014 132.626C177.806 133.697 178.44 134.785 178.921 135.895C179.742 137.776 180.127 139.69 180.133 141.554C180.133 143.185 179.844 144.777 179.295 146.267C176.663 153.433 168.076 158.316 157.496 154.588L158.617 145.304C160.706 146.709 162.817 147.219 164.679 147.145C164.9 147.139 165.115 147.122 165.325 147.1C165.398 147.094 165.472 147.083 165.546 147.071C168.33 146.692 170.442 145.038 170.906 143.31C172.389 137.872 164.821 128.571 162.415 123.342C157.932 113.605 161.64 104.496 169.615 101.352C170.702 100.921 171.868 100.604 173.102 100.412C173.765 100.304 174.455 100.242 175.157 100.208C175.672 100.185 176.17 100.185 176.663 100.213C187.287 100.746 191.878 111.707 191.029 118.686Z" fill="#EAEBF3"/>
<g opacity="0.3">
<path d="M179.295 146.267C176.663 153.433 168.076 158.316 157.496 154.588L158.617 145.304C160.706 146.709 162.817 147.219 164.679 147.145C167.289 150.867 175.406 152.566 179.295 146.267Z" fill="#003580"/>
</g>
<path d="M172.389 111.106C172.78 110.948 173.176 110.834 173.583 110.778C176.21 110.41 179.006 112.336 179.131 118.385C179.312 126.894 188.759 127.823 190.757 120.136C190.848 119.796 190.916 119.439 190.972 119.071C190.989 118.941 191.006 118.81 191.023 118.68C191.872 111.707 187.282 100.74 176.657 100.219C176.17 100.191 175.667 100.191 175.151 100.213C174.45 100.242 173.759 100.31 173.097 100.417C172.502 100.961 171.121 102.91 170.974 104.711C170.957 104.932 171.953 104.326 171.908 104.564C171.766 105.374 170.374 107.974 170.793 108.28C170.889 108.348 171.891 107.883 171.88 108.002C171.857 108.529 171.817 109.583 172.389 111.106Z" fill="white"/>
<g opacity="0.3">
<path d="M165.795 117.587C167.43 123.648 172.627 128.083 174.914 129.794C172.48 126.486 170.232 123.15 169.332 119.813C168.902 118.233 168.778 116.647 169.089 115.066C169.253 114.233 169.621 113.469 170.13 112.829C171.002 111.724 172.276 110.959 173.595 110.778C176.221 110.41 179.012 112.336 179.142 118.391C179.323 126.9 188.77 127.829 190.768 120.142C190.859 119.802 190.927 119.445 190.984 119.077C189.551 120.629 185.799 123.529 183.036 121.393C179.142 118.391 182.442 111.577 177.387 107.929C173.521 105.153 163.666 109.724 165.795 117.587Z" fill="#003580"/>
</g>
<path d="M155.204 160.162C154.576 160.389 153.194 160.604 151.638 160.763C150.059 160.927 148.292 161.029 146.945 161.029H131.424C131.424 161.029 120.29 152.974 118.247 137.487C118.218 137.294 118.196 137.107 118.173 136.915C117.517 131.273 118.247 125.155 119.311 119.938C120.805 112.642 122.973 107.113 122.973 107.113L145.423 108.116C145.423 108.116 146.26 111.894 148.202 116.624C148.626 117.666 149.108 118.759 149.645 119.864C150.885 122.424 152.43 125.075 154.31 127.432C156.07 129.647 159.806 133.323 161.912 140.364C162.115 141.05 162.427 142.93 162.574 143.888C162.602 144.092 162.63 144.296 162.659 144.494C164.244 156.99 156.025 159.873 155.204 160.162Z" fill="#D6D6E7"/>
<g opacity="0.3">
<path d="M151.632 160.763C150.053 160.927 148.287 161.029 146.94 161.029H131.424C131.424 161.029 120.29 152.974 118.247 137.487C120.918 139.809 124.932 141.797 128.651 137.77L138.075 145.366L140.673 146.448C140.673 146.448 142.524 142.959 145.547 142.664C147.211 142.494 149.713 152.073 151.632 160.763Z" fill="#003580"/>
</g>
<g opacity="0.3">
<path d="M151.632 160.763C151.621 160.763 151.609 160.763 151.598 160.768C151.434 160.785 151.258 160.802 151.089 160.814C151.038 160.819 150.981 160.825 150.93 160.831C150.76 160.848 150.591 160.859 150.421 160.876C150.296 160.887 150.177 160.893 150.053 160.904C149.764 160.927 149.481 160.944 149.198 160.961C148.389 161.006 147.613 161.035 146.94 161.035H131.424C131.424 161.035 131.396 161.018 131.351 160.978C131.322 160.955 131.277 160.921 131.232 160.887C130.926 160.655 130.292 160.134 129.449 159.341C129.324 159.222 129.194 159.103 129.064 158.973C128.951 158.865 128.843 158.752 128.724 158.638C128.645 158.559 128.566 158.48 128.486 158.395C128.39 158.299 128.294 158.197 128.192 158.095C128.124 158.021 128.051 157.947 127.983 157.874C127.886 157.772 127.79 157.67 127.688 157.562C127.615 157.477 127.535 157.392 127.456 157.302C127.128 156.939 126.794 156.554 126.449 156.14C126.358 156.027 126.262 155.914 126.171 155.8C125.752 155.285 125.328 154.73 124.903 154.141C124.818 154.016 124.728 153.891 124.637 153.767C124.535 153.62 124.434 153.472 124.332 153.319C124.235 153.178 124.139 153.036 124.043 152.894C123.958 152.764 123.867 152.628 123.783 152.492C123.658 152.3 123.534 152.101 123.409 151.903C123.33 151.779 123.256 151.654 123.183 151.529C123.092 151.388 123.007 151.24 122.922 151.093C122.815 150.912 122.713 150.731 122.611 150.544C122.52 150.385 122.43 150.226 122.345 150.062C122.26 149.915 122.181 149.762 122.101 149.609C121.898 149.224 121.694 148.827 121.501 148.419C121.439 148.295 121.383 148.17 121.326 148.046C121.218 147.819 121.117 147.587 121.015 147.354C120.952 147.213 120.89 147.071 120.828 146.93C120.8 146.867 120.771 146.799 120.743 146.731C120.686 146.595 120.63 146.465 120.579 146.323C120.562 146.284 120.545 146.25 120.533 146.21C120.46 146.023 120.386 145.836 120.313 145.649C120.262 145.513 120.211 145.372 120.16 145.236C120.12 145.134 120.081 145.032 120.047 144.924C119.984 144.754 119.928 144.579 119.866 144.403C119.809 144.245 119.758 144.08 119.707 143.922C119.684 143.865 119.667 143.803 119.65 143.74C119.588 143.553 119.532 143.361 119.475 143.168C119.424 142.993 119.373 142.817 119.322 142.641C119.305 142.574 119.283 142.506 119.266 142.438C119.215 142.268 119.169 142.092 119.124 141.916C119.118 141.894 119.113 141.865 119.107 141.843C119.062 141.667 119.016 141.492 118.977 141.31C118.96 141.248 118.943 141.18 118.932 141.112C118.892 140.965 118.858 140.812 118.83 140.659C118.813 140.597 118.801 140.529 118.784 140.466C118.739 140.274 118.699 140.081 118.666 139.888C118.66 139.854 118.654 139.826 118.649 139.792C118.615 139.622 118.581 139.452 118.552 139.277C118.524 139.129 118.496 138.976 118.473 138.824C118.439 138.642 118.411 138.455 118.382 138.274C118.371 138.189 118.354 138.104 118.343 138.013C118.32 137.861 118.298 137.708 118.281 137.56C118.275 137.543 118.275 137.521 118.269 137.504C120.686 139.605 124.196 141.429 127.598 138.778C127.598 138.807 127.598 138.835 127.598 138.863C127.439 145.276 131.877 144.539 135.737 146.924C137.56 148.051 138.8 152.662 140.056 154.067C142.53 156.82 146.328 156.763 150.308 155.013C150.76 156.888 151.208 158.848 151.632 160.763Z" fill="#003580"/>
</g>
<g opacity="0.3">
<path d="M149.651 119.864C145.343 121.416 140.079 122.328 134.385 122.328C128.781 122.328 123.59 121.444 119.322 119.938C120.816 112.642 122.984 107.113 122.984 107.113L145.434 108.116C145.434 108.116 146.272 111.894 148.213 116.624C148.632 117.666 149.113 118.759 149.651 119.864Z" fill="#003580"/>
</g>
<g opacity="0.3">
<path d="M148.202 116.624C145.666 117.768 142.003 119.626 138.46 122.169C137.13 122.271 135.766 122.328 134.379 122.328C128.775 122.328 123.584 121.444 119.316 119.937C119.526 118.906 119.752 117.915 119.984 116.963C120.086 116.55 120.188 116.142 120.29 115.746C120.307 115.683 120.324 115.621 120.335 115.559C120.392 115.332 120.454 115.105 120.511 114.885C120.511 114.873 120.516 114.868 120.516 114.856C120.607 114.505 120.703 114.16 120.799 113.825C120.839 113.678 120.884 113.531 120.924 113.389C120.963 113.253 121.003 113.117 121.043 112.981C121.082 112.851 121.116 112.721 121.156 112.59C121.19 112.471 121.224 112.352 121.258 112.239C121.28 112.166 121.303 112.092 121.32 112.024C121.354 111.911 121.388 111.797 121.422 111.684C121.597 111.101 121.767 110.568 121.926 110.087C121.937 110.047 121.954 110.002 121.965 109.962C121.982 109.9 122.005 109.832 122.028 109.769C122.045 109.707 122.067 109.645 122.09 109.582C122.537 108.234 122.865 107.373 122.95 107.152C122.956 107.135 122.962 107.124 122.962 107.118C122.967 107.101 122.973 107.096 122.973 107.096L145.422 108.098C145.428 108.115 146.266 111.894 148.202 116.624Z" fill="#003580"/>
</g>
<path d="M155.204 160.162C153.936 160.615 149.617 161.029 146.945 161.029H131.424C131.424 161.029 120.018 152.776 118.173 136.909C116.605 123.376 122.973 107.107 122.973 107.107L145.423 108.11C145.423 108.11 146.26 111.888 148.202 116.618C141.726 119.536 127.864 127.137 127.575 138.841C127.417 145.253 131.854 144.517 135.715 146.901C137.538 148.029 138.777 152.64 140.034 154.044C145.241 159.845 156.325 153.178 162.653 144.488C164.244 156.99 156.025 159.873 155.204 160.162Z" fill="white"/>
<g opacity="0.3">
<path d="M151.632 160.763C151.621 160.763 151.609 160.763 151.598 160.768C151.434 160.785 151.258 160.802 151.089 160.814C151.038 160.819 150.981 160.825 150.93 160.831C150.76 160.848 150.591 160.859 150.421 160.876C150.296 160.887 150.177 160.893 150.053 160.904C149.764 160.927 149.481 160.944 149.198 160.961C148.389 161.006 147.613 161.035 146.94 161.035H131.424C131.424 161.035 131.396 161.018 131.351 160.978C131.322 160.955 131.277 160.921 131.232 160.887C130.926 160.655 130.292 160.134 129.449 159.341C129.324 159.222 129.194 159.103 129.064 158.973C128.951 158.865 128.843 158.752 128.724 158.638C128.645 158.559 128.566 158.48 128.486 158.395C128.39 158.299 128.294 158.197 128.192 158.095C128.124 158.021 128.051 157.947 127.983 157.874C127.886 157.772 127.79 157.67 127.688 157.562C127.615 157.477 127.535 157.392 127.456 157.302C127.128 156.939 126.794 156.554 126.449 156.14C126.358 156.027 126.262 155.914 126.171 155.8C125.752 155.285 125.328 154.73 124.903 154.141C124.818 154.016 124.728 153.891 124.637 153.767C124.535 153.62 124.434 153.472 124.332 153.319C124.235 153.178 124.139 153.036 124.043 152.894C123.958 152.764 123.867 152.628 123.783 152.492C123.658 152.3 123.534 152.101 123.409 151.903C123.33 151.779 123.256 151.654 123.183 151.529C123.092 151.388 123.007 151.24 122.922 151.093C122.815 150.912 122.713 150.731 122.611 150.544C122.52 150.385 122.43 150.226 122.345 150.062C122.26 149.915 122.181 149.762 122.101 149.609C121.898 149.224 121.694 148.827 121.501 148.419C121.439 148.295 121.383 148.17 121.326 148.046C121.218 147.819 121.117 147.587 121.015 147.354C120.952 147.213 120.89 147.071 120.828 146.93C120.8 146.867 120.771 146.799 120.743 146.731C120.686 146.595 120.63 146.465 120.579 146.323C120.562 146.284 120.545 146.25 120.533 146.21C120.46 146.023 120.386 145.836 120.313 145.649C120.262 145.513 120.211 145.372 120.16 145.236C120.12 145.134 120.081 145.032 120.047 144.924C119.984 144.754 119.928 144.579 119.866 144.403C119.809 144.245 119.758 144.08 119.707 143.922C119.684 143.865 119.667 143.803 119.65 143.74C119.588 143.553 119.532 143.361 119.475 143.168C119.424 142.993 119.373 142.817 119.322 142.641C119.305 142.574 119.283 142.506 119.266 142.438C119.215 142.268 119.169 142.092 119.124 141.916C119.118 141.894 119.113 141.865 119.107 141.843C119.062 141.667 119.016 141.492 118.977 141.31C118.96 141.248 118.943 141.18 118.932 141.112C118.892 140.965 118.858 140.812 118.83 140.659C118.813 140.597 118.801 140.529 118.784 140.466C118.739 140.274 118.699 140.081 118.666 139.888C118.66 139.854 118.654 139.826 118.649 139.792C118.615 139.622 118.581 139.452 118.552 139.277C118.524 139.129 118.496 138.976 118.473 138.824C118.439 138.642 118.411 138.455 118.382 138.274C118.371 138.189 118.354 138.104 118.343 138.013C118.32 137.861 118.298 137.708 118.281 137.56C118.275 137.543 118.275 137.521 118.269 137.504C120.686 139.605 124.196 141.429 127.598 138.778C127.598 138.807 127.598 138.835 127.598 138.863C127.439 145.276 131.877 144.539 135.737 146.924C137.56 148.051 138.8 152.662 140.056 154.067C142.53 156.82 146.328 156.763 150.308 155.013C150.76 156.888 151.208 158.848 151.632 160.763Z" fill="#003580"/>
</g>
<g opacity="0.3">
<path d="M148.202 116.624C145.666 117.768 142.003 119.626 138.46 122.169C137.13 122.271 135.766 122.328 134.379 122.328C128.775 122.328 123.584 121.444 119.316 119.937C119.526 118.906 119.752 117.915 119.984 116.963C120.086 116.55 120.188 116.142 120.29 115.746C120.307 115.683 120.324 115.621 120.335 115.559C120.392 115.332 120.454 115.105 120.511 114.885C120.511 114.873 120.516 114.868 120.516 114.856C120.613 114.505 120.703 114.16 120.799 113.825C120.839 113.678 120.884 113.531 120.924 113.389C120.963 113.253 121.003 113.117 121.043 112.981C121.082 112.851 121.116 112.721 121.156 112.59C121.19 112.471 121.224 112.352 121.258 112.239C121.28 112.166 121.303 112.092 121.32 112.024C121.354 111.911 121.388 111.797 121.422 111.684C121.597 111.101 121.767 110.568 121.926 110.087C121.937 110.047 121.954 110.002 121.965 109.962C121.982 109.9 122.005 109.832 122.028 109.769C122.045 109.707 122.067 109.645 122.09 109.582C122.537 108.234 122.865 107.373 122.95 107.152C122.956 107.135 122.962 107.124 122.962 107.118C122.967 107.101 122.973 107.096 122.973 107.096L145.422 108.098C145.428 108.115 146.266 111.894 148.202 116.624Z" fill="#003580"/>
</g>
<g opacity="0.3">
<path d="M107.101 99.3466C107.118 99.3749 107.135 99.4089 107.152 99.4372L107.09 99.341C107.096 99.3353 107.096 99.341 107.101 99.3466Z" fill="#003580"/>
<path d="M174.659 99.3354L174.596 99.4317C174.613 99.4034 174.63 99.3694 174.647 99.3411C174.647 99.3411 174.653 99.3354 174.659 99.3354Z" fill="#003580"/>
</g>
<path d="M141.33 142.772C141.33 142.772 141.296 142.942 141.228 143.248C140.888 144.817 139.7 149.972 138.075 154.407C137.622 155.648 137.13 156.837 136.615 157.874C136.23 158.656 135.692 159.296 135.166 159.794C134.226 160.684 132.981 161.176 131.69 161.176H127.043C126.092 161.176 125.169 160.786 124.569 160.049C123.964 159.313 123.754 158.378 123.839 157.579C123.901 156.973 124.128 156.446 124.467 156.129C125.288 155.37 126.001 155.183 126.539 154.991C127.083 154.798 127.445 154.594 127.575 153.812C127.983 151.36 128.209 145.032 128.651 138.053L141.33 142.772Z" fill="#D6D6E7"/>
<g opacity="0.3">
<path d="M141.228 143.248C140.888 144.817 139.7 149.972 138.075 154.407C137.622 155.648 137.13 156.837 136.615 157.874C136.23 158.656 135.692 159.296 135.166 159.794C134.226 160.683 132.981 161.176 131.69 161.176H127.043C126.092 161.176 125.169 160.785 124.569 160.049C123.964 159.313 123.754 158.378 123.839 157.579C124.818 158.321 126.794 159.182 130.575 158.871C135.97 158.435 139.032 145.264 141.228 143.248Z" fill="#003580"/>
</g>
<path d="M138.075 154.407C137.622 155.648 137.13 156.837 136.615 157.874C136.23 158.656 135.692 159.296 135.166 159.794C134.226 160.684 132.981 161.176 131.69 161.176H127.043C126.092 161.176 125.169 160.785 124.569 160.049C123.511 158.758 123.664 156.871 124.467 156.129C125.288 155.37 126.001 155.183 126.539 154.991C127.722 154.855 129.279 154.86 131.328 155.132C134.39 155.546 136.558 155.183 138.075 154.407Z" fill="white"/>
<g opacity="0.3">
<path d="M138.075 154.407C137.622 155.648 137.13 156.837 136.615 157.874C136.23 158.656 135.692 159.296 135.166 159.794C134.226 160.684 132.981 161.176 131.69 161.176H127.043C126.092 161.176 125.169 160.785 124.569 160.049C124.049 159.415 123.822 158.633 123.822 157.914C123.822 157.857 123.822 157.8 123.828 157.749C123.833 157.693 123.839 157.636 123.839 157.579C124.818 158.321 126.794 159.182 130.575 158.871C132.33 158.729 133.836 157.239 135.149 155.223C136.32 155.104 137.288 154.809 138.075 154.407Z" fill="#003580"/>
</g>
<path d="M162.602 150.198C161.487 156.44 156.613 160.887 149.266 160.887C149.266 160.887 143.905 160.887 143.22 160.887C140.679 160.887 139.779 156.882 141.726 155.409C142.626 154.73 144.081 154.639 144.047 154.446C144.047 154.441 144.041 154.429 144.036 154.424C143.877 154.214 140.475 150.141 141.556 145.468C142.796 140.109 148.371 138.285 152.815 138.432L160.819 141.095L161.889 140.37C162.347 142.16 162.664 144.12 162.8 146.284C162.896 147.643 162.823 148.957 162.602 150.198Z" fill="#EAEBF3"/>
<path d="M162.602 150.198C161.487 156.44 156.613 160.887 149.266 160.887C149.266 160.887 143.905 160.887 143.22 160.887C140.679 160.887 139.779 156.882 141.726 155.409C142.626 154.73 144.081 154.639 144.047 154.446C145.728 154.35 148.043 154.418 151.202 154.843C156.987 155.625 160.819 153.693 162.602 150.198Z" fill="white"/>
<g opacity="0.3">
<path d="M162.602 150.204C161.492 156.446 156.613 160.893 149.266 160.893C149.266 160.893 143.905 160.893 143.22 160.893C141.573 160.893 140.611 159.205 140.679 157.619C140.679 157.59 140.679 157.562 140.685 157.534C140.685 157.505 140.69 157.471 140.69 157.443C140.69 157.432 140.69 157.42 140.696 157.409C140.702 157.364 140.707 157.313 140.713 157.268C140.719 157.234 140.724 157.2 140.73 157.166C140.736 157.132 140.741 157.092 140.752 157.058C140.758 157.035 140.758 157.018 140.764 156.996C140.769 156.962 140.781 156.933 140.786 156.899C140.809 156.803 140.843 156.707 140.877 156.61C141.228 157.675 142.054 158.531 143.226 158.531C143.905 158.531 149.272 158.531 149.272 158.531C154.587 158.531 158.611 156.203 160.847 152.549C161.56 151.875 162.149 151.087 162.602 150.204Z" fill="#003580"/>
</g>
<g opacity="0.7">
<path d="M148.773 141.044C148.773 141.044 144.953 141.797 143.843 145.196C142.79 148.425 144.511 148.975 145.043 147.196C145.575 145.417 146.136 143.31 148.773 141.044Z" fill="white"/>
</g>
<path d="M102.284 90.7761C102.063 90.5552 101.82 90.3059 101.571 90.0793C101.327 89.8471 101.061 89.6318 100.807 89.4109C100.28 88.9804 99.7538 88.5555 99.1991 88.1703C98.0897 87.3886 96.9406 86.6636 95.7236 86.0631C95.4236 85.9045 95.1066 85.7799 94.8009 85.6269L94.3368 85.4117C94.184 85.3437 94.0198 85.2871 93.8613 85.2191C93.5443 85.0945 93.2273 84.9698 92.916 84.8395L91.9481 84.511C91.3084 84.2731 90.6348 84.1428 89.9782 83.9445C89.316 83.7689 88.6424 83.6613 87.9688 83.497L87.9348 83.4857C87.7027 83.4291 87.5612 83.1968 87.6178 82.9645C87.6688 82.7493 87.8725 82.6133 88.0876 82.636C88.4386 82.6757 88.7895 82.7153 89.1461 82.7606L89.6726 82.8286L89.9386 82.8626L90.199 82.9136C90.5499 82.9815 90.8952 83.0552 91.2462 83.1288C91.5971 83.1968 91.9367 83.2931 92.282 83.3894L93.3122 83.684C93.6519 83.8029 93.9858 83.9219 94.3198 84.0465C94.4896 84.1088 94.6594 84.1655 94.8236 84.2334L95.3161 84.4487C95.6444 84.596 95.9783 84.7263 96.2953 84.8962C97.5859 85.525 98.8086 86.2784 99.9407 87.162C101.073 88.0514 102.109 89.0314 102.969 90.2436C103.105 90.4362 103.06 90.7081 102.867 90.8441C102.692 90.9687 102.454 90.946 102.307 90.7931L102.284 90.7761Z" fill="#003580"/>
<path d="M101.548 96.1461C100.467 95.676 99.318 95.2681 98.1746 94.9339C97.0255 94.6054 95.8594 94.3335 94.6821 94.1975C94.0934 94.1295 93.5047 94.0785 92.9103 94.0785C92.3216 94.0729 91.7273 94.0899 91.1443 94.1635C89.9726 94.2825 88.8235 94.5714 87.714 95.0019L87.7027 95.0075C87.4819 95.0925 87.2272 94.9849 87.1423 94.7583C87.0631 94.5487 87.1536 94.3221 87.3461 94.2202C88.4782 93.6197 89.7122 93.2005 90.9858 93.0023C91.6197 92.9003 92.265 92.838 92.9047 92.8323C93.5443 92.821 94.1896 92.8437 94.8236 92.923C96.0972 93.0589 97.3481 93.3365 98.5425 93.7557C99.7482 94.1748 100.892 94.6903 101.973 95.4041C102.171 95.5344 102.227 95.8063 102.097 96.0045C101.978 96.1858 101.752 96.2481 101.56 96.1631L101.548 96.1461Z" fill="#003580"/>
<path d="M110.152 77.4359L120.935 68.9842L133.394 59.2184C126.754 52.0583 113.531 44.1108 109.36 46.5183C108.567 46.9771 107.939 48.0477 107.475 49.5715C105.737 55.2985 106.399 67.4264 110.152 77.4359Z" fill="#D6D6E7"/>
<g opacity="0.3">
<path d="M110.152 77.4358L120.935 68.9841C118.303 61.9996 111.692 46.014 107.475 49.5714C105.737 55.2984 106.399 67.4264 110.152 77.4358Z" fill="#003580"/>
</g>
<g opacity="0.5">
<path d="M107.288 50.2456C107.679 49.3846 108.154 48.7671 108.703 48.4499C112.722 46.1274 125.118 53.4065 131.962 60.34L133.394 59.2184C126.754 52.0583 113.531 44.1108 109.36 46.5183C108.46 47.0338 107.758 48.3593 107.288 50.2456Z" fill="white"/>
</g>
<path d="M111.165 67.302C113.43 64.3677 115.314 62.3681 116.956 60.8839C118.394 59.5867 119.645 58.6804 120.799 57.8817C120.539 56.4882 112.043 48.6313 110.622 51.0161C110.197 51.7299 109.886 52.8232 109.694 54.126C109.088 58.1649 109.58 64.2317 111.165 67.302Z" fill="#F27E80"/>
<g opacity="0.3">
<path d="M109.694 54.126C110.277 53.4236 111.165 52.5966 111.952 52.8118C113.288 53.1744 116.022 57.7287 116.956 60.8839C118.394 59.5867 119.645 58.6804 120.799 57.8817C120.539 56.4882 112.043 48.6313 110.622 51.0161C110.197 51.7299 109.892 52.8232 109.694 54.126Z" fill="#003580"/>
</g>
<path d="M141.856 60.3625L156.494 75.9516L162.823 82.6868C168.596 73.0343 171.228 60.4305 169.955 54.7942C169.694 53.6329 169.264 52.7719 168.67 52.2847C164.758 49.1295 149.849 54.5223 141.856 60.3625Z" fill="#D6D6E7"/>
<g opacity="0.3">
<path d="M156.489 75.9459L162.817 82.6812C168.591 73.0286 171.223 60.4248 169.949 54.7885C168.698 53.0608 166.604 51.7579 164.289 56.9751C161.889 62.3791 158.447 70.9837 156.489 75.9459Z" fill="#003580"/>
</g>
<g opacity="0.5">
<path d="M141.856 60.3625L142.779 61.3425C151.009 55.9101 165.562 51.5823 168.375 53.293C170.668 54.6865 169.87 62.9569 168.421 69.5279C170.73 61.4388 170.934 54.1201 168.659 52.2847C164.758 49.1295 149.849 54.5223 141.856 60.3625Z" fill="white"/>
</g>
<g opacity="0.7">
<path d="M148.909 56.607C149.238 56.7713 149.045 57.2811 148.689 57.1735C146.249 56.4654 143.877 56.0009 141.709 55.814C139.213 55.5987 135.947 55.4967 132.205 55.7743C132.29 54.851 132.432 53.9446 132.63 53.0609C135.839 53.0326 138.613 53.3555 140.651 53.7124C143.204 54.1599 146.079 55.1795 148.909 56.607Z" fill="white"/>
</g>
<path d="M133.117 117.745C135.228 117.802 137.339 117.745 139.439 117.547C157.038 115.91 164.866 109.118 167.476 103.918C167.549 103.765 167.629 103.607 167.702 103.454C167.742 103.363 167.781 103.272 167.821 103.182C167.923 102.949 168.025 102.717 168.11 102.479C168.161 102.343 168.206 102.213 168.257 102.077C168.262 102.066 168.262 102.054 168.268 102.049C168.274 102.026 168.285 102.003 168.291 101.981C168.325 101.873 168.364 101.766 168.398 101.658C168.444 101.528 168.483 101.397 168.523 101.267C168.562 101.148 168.591 101.029 168.625 100.904C168.664 100.757 168.704 100.61 168.744 100.463C168.806 100.202 168.868 99.9359 168.925 99.6696C168.942 99.5847 168.959 99.4997 168.976 99.409C168.998 99.3184 169.015 99.2278 169.027 99.1315C169.049 99.0239 169.066 98.9105 169.083 98.7973C169.74 94.7131 169.259 90.221 168.313 85.9499C167.374 81.7071 165.976 77.6908 164.781 74.5186C164.781 74.5186 162.987 70.4288 158.493 65.036C154.655 60.442 150.998 57.8589 150.007 57.2018C149.838 57.0885 149.747 57.0319 149.747 57.0319C146.662 55.3778 143.464 54.1996 140.668 53.7068C136.156 52.9137 128.085 52.3133 119.594 55.2136C112.948 57.4794 108.652 61.8695 105.811 66.6221C101.684 73.5273 100.637 81.2029 99.9237 84.3015C99.7312 85.1285 98.0727 87.2527 97.0368 90.3626C96.9576 90.6005 96.884 90.8441 96.8104 91.0934C96.7765 91.2123 96.7425 91.3313 96.7142 91.4559C96.6802 91.5805 96.6463 91.7108 96.618 91.8354C96.618 91.8354 96.6123 91.8411 96.618 91.8468C96.5953 91.9544 96.567 92.062 96.5444 92.1753C96.5331 92.2376 96.5217 92.2999 96.5048 92.3622C96.4651 92.5775 96.4255 92.7984 96.3916 93.025C96.3689 93.1609 96.3519 93.2969 96.3349 93.4385C96.318 93.5518 96.3066 93.6651 96.2953 93.7784C96.2897 93.8294 96.284 93.8804 96.2783 93.9313C96.267 94.0503 96.2614 94.1636 96.25 94.2825C96.2387 94.4298 96.2331 94.5714 96.2274 94.7187C96.2161 95.0076 96.2161 95.3078 96.2217 95.6081C96.2274 95.761 96.233 95.9083 96.2387 96.0612C96.2444 96.1972 96.2557 96.3275 96.267 96.4634C96.2727 96.5031 96.2727 96.5427 96.2783 96.5824C96.2897 96.7127 96.3066 96.8543 96.318 96.9902C96.3463 97.2055 96.3746 97.4208 96.4085 97.6417C97.5123 104.337 105.663 111.412 119.43 115.565C123.873 116.913 128.481 117.615 133.117 117.745Z" fill="#D6D6E7"/>
<g opacity="0.5">
<path d="M149.713 57.4905C149.543 57.3772 149.453 57.3206 149.453 57.3206C146.368 55.6665 143.17 54.4883 140.373 53.9955C135.862 53.2024 127.79 52.602 119.3 55.5022C112.654 57.7681 108.358 62.1582 105.516 66.9108C101.39 73.816 100.343 81.4916 99.6294 84.5902C99.4369 85.4172 97.7784 87.5414 96.7425 90.6513C96.6633 90.8892 96.5897 91.1328 96.5161 91.382C96.4822 91.501 96.4482 91.62 96.4199 91.7446C96.3859 91.8692 96.352 91.9995 96.3237 92.1241C96.3237 92.1241 96.318 92.1298 96.3237 92.1354C96.301 92.2431 96.2727 92.3507 96.2501 92.464C96.2388 92.5263 96.2274 92.5886 96.2104 92.6509C96.1708 92.8662 96.1312 93.0871 96.0972 93.3137C96.0746 93.4496 96.0576 93.5856 96.0406 93.7272C96.0293 93.8405 96.0123 93.9538 96.001 94.0671C95.9954 94.1181 95.9897 94.169 95.984 94.22C95.9727 94.339 95.967 94.4523 95.9557 94.5712C95.9444 94.7185 95.9387 94.8601 95.9331 95.0074C95.9218 95.2963 95.9218 95.5965 95.9274 95.8968C95.9331 96.0497 95.9387 96.197 95.9444 96.3499C95.9501 96.4859 95.9614 96.6162 95.9727 96.7521C95.9784 96.7918 95.9784 96.8314 95.984 96.8711C95.9953 97.0014 96.0123 97.143 96.0237 97.2789C96.052 97.4942 96.0803 97.7094 96.1142 97.9304C96.6859 101.397 99.1482 104.96 103.297 108.172C100.173 105.345 98.2992 102.309 97.8124 99.3465C97.7784 99.1256 97.7444 98.9103 97.7218 98.6951C97.7048 98.5591 97.6935 98.4232 97.6822 98.2872C97.6765 98.2476 97.6765 98.2079 97.6708 98.1683C97.6595 98.0323 97.6482 97.8964 97.6425 97.7661C97.6369 97.6131 97.6312 97.4659 97.6256 97.3129C97.6199 97.0127 97.6199 96.7125 97.6312 96.4236C97.6369 96.2763 97.6425 96.1347 97.6539 95.9874C97.6595 95.8684 97.6708 95.7551 97.6822 95.6362C97.6878 95.5852 97.6935 95.5286 97.6992 95.4832C97.7105 95.3699 97.7218 95.251 97.7388 95.1434C97.7558 95.0017 97.7727 94.8658 97.7954 94.7298C97.8293 94.5033 97.869 94.288 97.9086 94.0671C97.9199 94.0048 97.9369 93.9425 97.9482 93.8802C97.9709 93.7669 97.9992 93.6592 98.0218 93.5516C98.0218 93.5459 98.0218 93.5459 98.0218 93.5403C98.0501 93.41 98.0841 93.2854 98.118 93.1607C98.1463 93.0418 98.1803 92.9172 98.2143 92.7982C98.2878 92.549 98.3558 92.3054 98.4407 92.0675C99.4709 88.9576 101.135 86.8333 101.328 86.0063C102.041 82.9078 103.088 75.2322 107.214 68.327C110.056 63.5744 114.347 59.1843 120.998 56.9184C129.488 54.0181 137.56 54.6186 142.072 55.4116C142.394 55.4683 142.728 55.5362 143.062 55.6155C143.034 55.6099 143.017 55.6042 143.017 55.6042C143.017 55.6042 143.034 55.6099 143.062 55.6155C144.5 55.9384 146.023 56.4256 147.568 57.0544C148.711 57.4792 149.974 57.989 151.242 58.5895C150.54 58.0513 150.008 57.6831 149.713 57.4905Z" fill="white"/>
</g>
<path d="M101.322 105.94C105.227 109.696 111.324 113.112 119.328 115.542C123.799 116.901 128.441 117.615 133.116 117.745C135.228 117.802 137.339 117.745 139.439 117.547C157.038 115.91 164.866 109.118 167.476 103.918C167.549 103.765 167.628 103.606 167.702 103.453C167.742 103.363 167.781 103.272 167.821 103.181C167.923 102.949 168.025 102.717 168.11 102.479C168.16 102.343 168.206 102.213 168.257 102.077C168.262 102.066 168.262 102.054 168.268 102.049C168.313 101.918 168.359 101.788 168.398 101.658C168.443 101.527 168.483 101.397 168.523 101.267C168.562 101.148 168.591 101.029 168.625 100.904C168.664 100.757 168.704 100.61 168.743 100.462C168.806 100.202 168.868 99.9356 168.925 99.6694C168.942 99.5844 168.959 99.4994 168.976 99.4088C168.998 99.3182 169.015 99.2275 169.027 99.1312C169.049 99.0236 169.066 98.9103 169.083 98.797C168.138 99.3578 167.074 99.9469 165.902 100.53C160.875 103.045 153.936 105.447 146.43 104.728C135.052 103.64 130.762 96.3272 128.792 94.1407C127.592 92.8095 122.231 91.7389 120.409 93.9538C116.537 98.6611 100.144 101.709 97.0423 90.368C96.9631 90.606 96.8895 90.8495 96.8159 91.0988C96.782 91.2177 96.748 91.3367 96.7197 91.4613C96.6857 91.5859 96.6518 91.7162 96.6235 91.8408C96.6235 91.8408 96.6178 91.8465 96.6235 91.8522C96.6008 91.9598 96.5725 92.0674 96.5499 92.1807C96.5385 92.243 96.5272 92.3053 96.5103 92.3677C96.4706 92.5829 96.431 92.8038 96.397 93.0304C96.3744 93.1664 96.3574 93.3023 96.3404 93.4439C96.3235 93.5572 96.3121 93.6705 96.3008 93.7838C96.2952 93.8348 96.2895 93.8858 96.2838 93.9368C96.2725 94.0557 96.2669 94.169 96.2555 94.288C96.2442 94.4352 96.2386 94.5769 96.2329 94.7241C96.2216 95.013 96.2216 95.3133 96.2272 95.6135C96.2329 95.7664 96.2386 95.9137 96.2442 96.0667C96.2499 96.2026 96.2612 96.3329 96.2725 96.4689C96.2782 96.5085 96.2782 96.5482 96.2838 96.5878C96.2952 96.7181 96.3121 96.8597 96.3235 96.9957C96.3518 97.2109 96.3801 97.4262 96.414 97.6471C96.8669 100.428 98.5367 103.266 101.322 105.94Z" fill="white"/>
<g opacity="0.3">
<path d="M168.732 100.474C168.698 100.621 168.659 100.763 168.619 100.91C168.585 101.029 168.551 101.148 168.517 101.267C168.483 101.397 168.444 101.527 168.393 101.658C168.353 101.788 168.308 101.913 168.263 102.049C168.263 102.06 168.257 102.066 168.257 102.077C168.206 102.213 168.161 102.343 168.11 102.479C168.025 102.717 167.923 102.949 167.821 103.182C167.781 103.272 167.742 103.363 167.702 103.453C167.629 103.606 167.555 103.765 167.476 103.918C164.866 109.118 157.038 115.91 139.44 117.547C137.339 117.745 135.228 117.802 133.122 117.745C128.447 117.615 123.805 116.896 119.334 115.542C111.33 113.112 105.233 109.696 101.328 105.94C98.5483 103.266 96.8785 100.428 96.42 97.6472C96.3803 97.4262 96.352 97.211 96.3294 96.9957C96.3124 96.8598 96.3011 96.7238 96.2841 96.5879C96.2784 96.5426 96.2784 96.5086 96.2728 96.4689C96.2615 96.333 96.2501 96.197 96.2445 96.0667C96.2388 95.9818 96.2388 95.8911 96.2332 95.8062C97.0822 97.143 102.477 107.815 119.034 110.783C152.9 116.85 164.725 105.442 168.732 100.474Z" fill="#003580"/>
</g>
<path d="M109.156 71.9186C108.828 71.3068 112.354 65.087 116.962 66.8544C118.648 67.5002 118.241 69.0069 117.205 69.4091C116.22 69.7943 114.748 69.647 113.486 70.0606C111.035 70.8706 109.484 72.5303 109.156 71.9186Z" fill="#003580"/>
<path d="M148.592 75.9802C149.056 75.3685 146.328 67.9705 140.99 69.0694C139.037 69.4716 139.213 71.1823 140.271 71.8111C141.279 72.4059 142.904 72.5078 144.205 73.1876C146.736 74.5018 148.128 76.5864 148.592 75.9802Z" fill="#003580"/>
<path d="M155.034 61.3823C157.298 63.5292 159.941 66.2483 163.423 72.485C163.649 72.1905 163.875 71.8619 164.085 71.4994C165.574 68.9843 166.655 64.9851 166.977 61.6033C167.181 59.496 167.091 57.6267 166.626 56.4938C165.551 53.871 155.526 60.0568 155.034 61.3823Z" fill="#F27E80"/>
<g opacity="0.3">
<path d="M155.034 61.3823C157.298 63.5292 159.941 66.2482 163.423 72.485C163.649 72.1904 163.875 71.8619 164.085 71.4993C163.955 69.0465 162.206 66.2652 161.606 64.1579C160.355 59.7792 163.796 57.3604 164.991 57.8872C165.698 58.1987 166.609 60.5666 166.977 61.5975C167.181 59.4903 167.091 57.621 166.626 56.488C165.551 53.871 155.526 60.0567 155.034 61.3823Z" fill="#003580"/>
</g>
<path d="M158.295 98.2081C159.557 97.3811 160.893 96.8316 162.296 96.4068C163.695 95.9876 165.132 95.727 166.581 95.608C166.944 95.5684 167.306 95.5627 167.668 95.5457L168.212 95.5231C168.393 95.5174 168.574 95.5287 168.755 95.5287C169.117 95.5344 169.48 95.5457 169.842 95.5571L170.923 95.659C171.285 95.693 171.642 95.7213 171.999 95.7893C172.355 95.846 172.712 95.9026 173.068 95.9706L173.334 96.0159L173.6 96.0782L174.127 96.2085L175.174 96.4747C175.406 96.5314 175.548 96.7693 175.485 97.0015C175.429 97.2168 175.225 97.3528 175.01 97.3244L174.97 97.3188C174.274 97.2225 173.595 97.0809 172.904 97.0015C172.208 96.9449 171.529 96.8203 170.832 96.8146L169.797 96.7636C169.451 96.7693 169.106 96.7693 168.761 96.775C168.591 96.775 168.415 96.7693 168.24 96.7806L167.725 96.8146C167.38 96.8429 167.034 96.8429 166.695 96.8883C165.319 97.0129 163.961 97.2734 162.625 97.6077C161.957 97.7719 161.3 97.9759 160.644 98.1911C160.321 98.3101 159.993 98.4177 159.676 98.548C159.359 98.6726 159.036 98.8142 158.747 98.9445L158.713 98.9615C158.498 99.0635 158.238 98.9672 158.142 98.7463C158.045 98.5537 158.119 98.3271 158.295 98.2081Z" fill="#003580"/>
<path d="M157.338 103.448C158.628 103.176 159.902 103.108 161.193 103.153C162.483 103.204 163.768 103.402 165.019 103.737C165.647 103.901 166.264 104.111 166.87 104.36C167.476 104.598 168.059 104.892 168.625 105.226C169.757 105.884 170.776 106.733 171.625 107.713C171.783 107.895 171.761 108.166 171.58 108.325C171.41 108.472 171.161 108.467 171.002 108.319L170.997 108.314C170.102 107.498 169.123 106.796 168.053 106.252C167.527 105.969 166.972 105.731 166.412 105.521C165.851 105.306 165.274 105.136 164.691 104.983C163.525 104.677 162.319 104.507 161.113 104.394C159.908 104.292 158.668 104.252 157.468 104.303H157.445C157.208 104.314 157.004 104.128 156.993 103.89C156.981 103.674 157.134 103.487 157.338 103.448Z" fill="#003580"/>
<path d="M97.8235 121.784C97.931 121.903 97.982 121.977 98.0556 122.079C98.1178 122.169 98.1801 122.266 98.2367 122.362C98.3499 122.555 98.4461 122.747 98.5367 122.945C98.7122 123.336 98.8594 123.744 98.9726 124.152C99.2046 124.973 99.3179 125.8 99.3858 126.644C99.4481 127.489 99.4367 128.361 99.2273 129.256C99.1197 129.703 98.9612 130.157 98.7009 130.593C98.4461 131.029 98.0612 131.448 97.5631 131.737L97.5008 131.771C97.082 132.009 96.5499 131.862 96.3122 131.448C96.0744 131.029 96.2216 130.496 96.6348 130.259C96.6744 130.236 96.714 130.219 96.7537 130.202C97.1782 130.038 97.5688 129.511 97.7895 128.848C98.016 128.191 98.1122 127.438 98.1348 126.678C98.1461 125.914 98.0895 125.143 97.9424 124.396C97.8688 124.022 97.7726 123.659 97.6424 123.308C97.5801 123.132 97.5065 122.962 97.4273 122.798C97.3876 122.719 97.3424 122.64 97.3027 122.56C97.2631 122.492 97.2008 122.402 97.1782 122.368L97.1499 122.328C97.0084 122.135 97.0537 121.864 97.2461 121.722C97.4273 121.592 97.6763 121.62 97.8235 121.784Z" fill="#003580"/>
<path d="M90.3347 128.729C89.3724 131.573 86.3724 131.856 84.1308 130.961C84.1308 130.961 82.7836 132.116 80.5704 133.487C75.0741 136.903 64.2456 141.667 55.6191 133.374C48.6737 126.701 60.0569 110.138 61.6248 115.015C62.2758 117.037 63.0286 118.601 63.872 119.802C68.0664 125.783 74.4005 122.543 80.4912 120.334C81.2836 120.051 82.0704 119.779 82.8403 119.552C85.7327 118.697 87.7988 119.025 89.1234 120.079C91.2404 121.756 91.5008 125.262 90.3347 128.729Z" fill="#F89B29"/>
<g opacity="0.3">
<path d="M90.3347 128.729C89.3724 131.573 86.3724 131.856 84.1308 130.961C84.1308 130.961 82.7836 132.116 80.5704 133.487C75.0741 136.903 64.2456 141.667 55.6191 133.374C48.6737 126.701 60.0569 110.138 61.6248 115.015C62.2758 117.037 63.0286 118.601 63.872 119.802C64.4947 125.851 64.2343 132.343 69.1929 133.153C80.661 135.034 83.1006 123.365 83.1006 123.365C83.1006 123.365 82.8176 129.76 86.8648 127.953C90.0347 126.531 89.7347 122.645 89.1234 120.079C91.2404 121.756 91.5008 125.262 90.3347 128.729Z" fill="#003580"/>
</g>
<g opacity="0.3">
<path d="M90.3348 128.729C89.3725 131.573 86.3725 131.856 84.1309 130.961C84.1309 130.961 82.7837 132.117 80.5705 133.487C80.4516 132.473 80.2705 131.176 79.9988 129.528C82.4045 126.707 83.1064 123.365 83.1064 123.365C83.1064 123.365 82.8234 129.76 86.8706 127.953C90.0405 126.531 89.7404 122.645 89.1291 120.079C89.1291 120.079 89.1291 120.079 89.1348 120.085C89.2084 120.142 89.2763 120.198 89.3442 120.261C89.3612 120.272 89.3838 120.294 89.4008 120.317C89.4461 120.357 89.4914 120.402 89.5367 120.447C89.5593 120.47 89.5819 120.493 89.5989 120.51C89.6669 120.578 89.7291 120.651 89.7914 120.725C89.8537 120.799 89.9103 120.878 89.9669 120.957C90.0121 121.02 90.0574 121.088 90.1027 121.156C90.1367 121.201 90.165 121.252 90.1876 121.297C90.2159 121.342 90.2442 121.388 90.2669 121.439C90.2839 121.467 90.3008 121.495 90.3121 121.524C90.3405 121.58 90.3744 121.637 90.3971 121.699C90.414 121.733 90.431 121.767 90.448 121.807C90.5216 121.971 90.5895 122.147 90.6518 122.322C90.6744 122.379 90.6914 122.436 90.7084 122.498C90.7197 122.532 90.731 122.566 90.7367 122.6C90.7537 122.657 90.7706 122.719 90.7876 122.776C90.8103 122.861 90.8273 122.946 90.8499 123.031C90.8725 123.132 90.8952 123.24 90.9122 123.348C90.9348 123.478 90.9518 123.614 90.9688 123.756C90.9801 123.841 90.9857 123.926 90.9971 124.01C91.0027 124.067 91.0084 124.124 91.0084 124.18C91.0084 124.203 91.014 124.226 91.014 124.248C91.0197 124.322 91.0254 124.396 91.0254 124.469C91.065 125.806 90.8273 127.273 90.3348 128.729Z" fill="#003580"/>
</g>
<path d="M90.3347 128.729C89.3724 131.573 86.3724 131.856 84.1308 130.961C84.1308 130.961 82.7836 132.116 80.5704 133.487C80.4345 132.343 80.2195 130.842 79.8855 128.876C79.1779 124.73 79.7949 121.971 80.4855 120.334C81.278 120.051 82.0648 119.779 82.8346 119.552C90.3517 117.332 92.2366 123.093 90.3347 128.729Z" fill="white"/>
<g opacity="0.3">
<path d="M90.3348 128.729C89.3725 131.573 86.3725 131.856 84.1309 130.961C84.1309 130.961 82.7837 132.117 80.5705 133.487C80.4516 132.473 80.2705 131.176 79.9988 129.528C82.4045 126.707 83.1064 123.365 83.1064 123.365C83.1064 123.365 82.8234 129.76 86.8706 127.953C90.0405 126.531 89.7404 122.645 89.1291 120.079C89.1291 120.079 89.1291 120.079 89.1348 120.085C89.2084 120.142 89.2763 120.198 89.3442 120.261C89.3612 120.272 89.3838 120.294 89.4008 120.317C89.4461 120.357 89.4914 120.402 89.5367 120.447C89.5593 120.47 89.5819 120.493 89.5989 120.51C89.6669 120.578 89.7291 120.651 89.7914 120.725C89.8537 120.799 89.9103 120.878 89.9669 120.957C90.0121 121.02 90.0574 121.088 90.1027 121.156C90.1367 121.201 90.165 121.252 90.1876 121.297C90.2159 121.342 90.2442 121.388 90.2669 121.439C90.2839 121.467 90.3008 121.495 90.3121 121.524C90.3405 121.58 90.3744 121.637 90.3971 121.699C90.414 121.733 90.431 121.767 90.448 121.807C90.5216 121.971 90.5895 122.147 90.6518 122.322C90.6744 122.379 90.6914 122.436 90.7084 122.498C90.7197 122.532 90.731 122.566 90.7367 122.6C90.7537 122.657 90.7706 122.719 90.7876 122.776C90.8103 122.861 90.8273 122.946 90.8499 123.031C90.8725 123.132 90.8952 123.24 90.9122 123.348C90.9348 123.478 90.9518 123.614 90.9688 123.756C90.9801 123.841 90.9857 123.926 90.9971 124.01C91.0027 124.067 91.0084 124.124 91.0084 124.18C91.0084 124.203 91.014 124.226 91.014 124.248C91.0197 124.322 91.0254 124.396 91.0254 124.469C91.065 125.806 90.8273 127.273 90.3348 128.729Z" fill="#003580"/>
</g>
<path d="M84.1027 122.368C84.08 122.402 84.0177 122.492 83.9781 122.56C83.9328 122.634 83.8932 122.713 83.8536 122.798C83.7743 122.962 83.7008 123.132 83.6385 123.308C83.514 123.659 83.4121 124.022 83.3385 124.396C83.1913 125.138 83.1347 125.914 83.146 126.678C83.1687 127.437 83.2592 128.191 83.4913 128.848C83.7121 129.505 84.097 130.038 84.5272 130.202C84.9744 130.377 85.2008 130.882 85.0253 131.329C84.8555 131.777 84.3461 132.003 83.8989 131.828C83.8593 131.811 83.8196 131.794 83.7857 131.777L83.7234 131.743C83.2253 131.459 82.8404 131.035 82.5856 130.598C82.3253 130.162 82.1668 129.709 82.0592 129.261C81.8498 128.366 81.8441 127.5 81.9007 126.65C81.9743 125.806 82.0875 124.979 82.3139 124.158C82.4272 123.75 82.5687 123.342 82.7498 122.951C82.8404 122.753 82.9366 122.56 83.0498 122.368C83.1064 122.271 83.163 122.181 83.2309 122.084C83.3045 121.988 83.3555 121.909 83.463 121.79C83.6215 121.614 83.8989 121.603 84.0743 121.762C84.2385 121.909 84.2611 122.158 84.131 122.334L84.1027 122.368Z" fill="#003580"/>
<path d="M39.6113 137.73C44.2076 137.577 49.97 139.463 51.2549 145.009C52.37 149.841 48.8548 154.056 48.6907 154.271C48.5265 154.486 50.1171 154.56 51.0851 155.29C53.1002 156.82 52.1662 160.955 49.5398 160.955C48.8379 160.955 43.2906 160.955 43.2906 160.955C34.1886 160.955 28.7545 154.344 29.2923 145.848C29.4338 143.61 29.7621 141.582 30.2319 139.73" fill="white"/>
<g opacity="0.3">
<path d="M43.285 160.955C43.285 160.955 48.8323 160.955 49.5341 160.955C51.5776 160.955 52.5965 158.446 51.9965 156.616C51.6512 157.766 50.7851 158.701 49.5341 158.701C48.8266 158.701 43.285 158.701 43.285 158.701C35.0094 158.701 29.7678 153.24 29.2867 145.859C28.7546 154.356 34.1886 160.955 43.285 160.955Z" fill="#003580"/>
</g>
<path d="M47.9889 155.279C47.5474 155.183 47.0549 155.104 46.5851 155.041C46.1096 154.979 45.6285 154.934 45.1473 154.911C44.1907 154.866 43.2228 154.894 42.3171 155.115L42.3058 155.121C42.0737 155.177 41.8416 155.03 41.785 154.798C41.7341 154.583 41.8473 154.373 42.0454 154.294C43.0416 153.897 44.0832 153.716 45.119 153.614C45.6341 153.569 46.1549 153.54 46.6756 153.529C47.2021 153.523 47.7002 153.529 48.2493 153.563C48.7304 153.597 49.087 154.01 49.0587 154.492C49.0304 154.973 48.6115 155.33 48.1304 155.302C48.0908 155.296 48.0511 155.291 48.0115 155.285L47.9889 155.279Z" fill="#003580"/>
<g opacity="0.3">
<path d="M46.4944 147.439C46.6359 147.456 46.7831 147.473 46.9246 147.49C46.7944 147.468 46.6529 147.451 46.4944 147.439Z" fill="#003580"/>
</g>
<g opacity="0.3">
<path d="M46.4095 147.428V147.434C46.4322 147.434 46.4548 147.434 46.4775 147.434C46.4831 147.434 46.4888 147.434 46.4945 147.434C46.4662 147.434 46.4378 147.434 46.4095 147.428Z" fill="#003580"/>
</g>
<path d="M62.774 119.235C62.7683 119.49 62.7626 119.745 62.7513 120C62.5645 125.965 61.9192 131.51 60.8268 135.068C60.7985 135.164 60.7702 135.255 60.7419 135.345C60.5437 135.963 60.3343 136.563 60.1135 137.158C54.2663 153.127 41.8529 160.944 37.0075 160.944C36.4018 160.944 26.0092 160.944 26.0092 160.944C24.8828 160.944 23.8186 160.842 22.8111 160.649C21.5375 160.406 20.3601 160.015 19.2902 159.494C19.2563 159.477 19.2167 159.46 19.1827 159.443C14.3034 157.024 11.6316 151.914 12.0165 145.836C12.1581 143.604 12.3618 141.537 12.9618 139.724C16.0128 130.406 25.5564 124.877 29.8017 118.538C30.147 118.023 30.464 117.513 30.7584 117.009C30.9282 116.714 31.0867 116.425 31.2395 116.131C32.1169 114.477 32.7565 112.874 33.215 111.395C34.5905 106.988 34.4207 103.714 34.4207 103.714L62.4287 106.96C62.7626 110.891 62.8758 115.145 62.774 119.235Z" fill="#F89B29"/>
<g opacity="0.3">
<path d="M62.774 119.235C62.7684 119.49 62.7627 119.745 62.7514 120C58.8457 121.648 54.2946 122.594 49.438 122.594C42.136 122.594 35.5245 120.464 30.7584 117.015C30.9282 116.72 31.0867 116.431 31.2396 116.136C32.1169 114.482 32.7566 112.879 33.2151 111.401C34.5906 106.994 34.4207 103.72 34.4207 103.72L62.4287 106.965C62.7627 110.891 62.8759 115.145 62.774 119.235Z" fill="#003580"/>
</g>
<g opacity="0.3">
<path d="M62.7514 120.006C58.8456 121.654 54.2946 122.594 49.4379 122.594C47.9606 122.594 46.5115 122.509 45.102 122.339C42.0397 118.533 38.7057 116.035 38.7057 116.035L33.2207 111.407C34.5962 107 34.4264 103.725 34.4264 103.725L62.4287 106.971C62.7797 111.14 62.8929 115.683 62.7514 120.006Z" fill="#003580"/>
</g>
<g opacity="0.3">
<path d="M60.8268 135.073C60.7985 135.17 60.7702 135.26 60.7419 135.351C60.5438 135.968 60.3343 136.569 60.1136 137.164C54.2663 153.132 41.8529 160.949 37.0075 160.949C36.4019 160.949 26.0093 160.949 26.0093 160.949C24.8828 160.949 23.8187 160.847 22.8111 160.655C21.1186 154.005 17.6431 137.73 24.2658 137.781C32.5811 137.843 32.7622 141.984 36.2151 142.16C46.0983 142.67 49.8002 136.07 49.8002 136.07C49.8002 136.07 55.2626 140.483 60.8268 135.073Z" fill="#003580"/>
</g>
<g opacity="0.3">
<path d="M60.8267 135.073C60.7984 135.17 60.7701 135.26 60.7418 135.351C60.589 135.832 60.4305 136.303 60.2607 136.761C60.2154 136.897 60.1645 137.028 60.1135 137.158C59.7456 138.155 59.355 139.124 58.9418 140.053C58.8399 140.285 58.7324 140.517 58.6305 140.749C58.5286 140.982 58.4154 141.208 58.3078 141.435C58.189 141.684 58.0644 141.939 57.9399 142.182C57.521 143.015 57.0852 143.82 56.6323 144.601C56.5021 144.834 56.3663 145.06 56.2248 145.287C56.1059 145.491 55.9814 145.689 55.8568 145.887C55.7323 146.085 55.6078 146.284 55.4833 146.476C55.3587 146.669 55.2285 146.861 55.104 147.054C54.9795 147.247 54.8493 147.434 54.7191 147.615C54.4587 147.989 54.204 148.351 53.9379 148.708C53.8304 148.85 53.7285 148.997 53.6153 149.133C53.4398 149.365 53.2587 149.597 53.0832 149.824C52.9926 149.943 52.8964 150.056 52.8059 150.17C52.6247 150.396 52.4436 150.617 52.2568 150.838C52.1436 150.968 52.036 151.099 51.9228 151.229C51.8039 151.371 51.6851 151.506 51.5605 151.642C51.5209 151.688 51.4813 151.733 51.4417 151.778C51.3285 151.903 51.2153 152.028 51.1021 152.152C50.9662 152.3 50.8247 152.452 50.6888 152.594C50.6888 152.594 50.6832 152.6 50.6832 152.605C50.5586 152.736 50.4341 152.866 50.3096 152.996C50.1624 153.155 50.0096 153.308 49.8567 153.455C49.7209 153.591 49.5794 153.733 49.4379 153.869C49.302 154.005 49.1605 154.135 49.0247 154.265C48.8888 154.395 48.7473 154.526 48.6058 154.65C48.3284 154.905 48.0511 155.154 47.7737 155.392C47.502 155.63 47.2303 155.851 46.9643 156.072C46.5001 156.452 46.0359 156.809 45.5774 157.143C45.4755 157.222 45.3737 157.296 45.2718 157.364C45.1359 157.466 44.9944 157.562 44.8586 157.658C44.7001 157.772 44.5416 157.874 44.3887 157.975C44.2699 158.055 44.1567 158.128 44.0378 158.202C43.9019 158.287 43.7661 158.372 43.6302 158.457C43.0982 158.791 42.5717 159.086 42.0623 159.352C41.9434 159.414 41.8245 159.477 41.7 159.539C41.4396 159.669 41.1792 159.794 40.9245 159.907C40.8226 159.952 40.7264 159.998 40.6302 160.037C40.5453 160.077 40.466 160.105 40.3868 160.139C40.3132 160.173 40.2396 160.202 40.166 160.224C39.9623 160.304 39.7698 160.377 39.5773 160.44C39.4641 160.479 39.3622 160.513 39.2547 160.547C39.1471 160.581 39.0453 160.61 38.9434 160.638C38.8415 160.666 38.7396 160.695 38.6377 160.717C38.5528 160.74 38.4735 160.757 38.3886 160.774C38.2754 160.796 38.1622 160.819 38.0547 160.836C37.9641 160.853 37.8679 160.87 37.7773 160.881C37.7433 160.887 37.7094 160.893 37.6754 160.893C37.5339 160.91 37.3924 160.921 37.2622 160.932C37.1773 160.938 37.0981 160.938 37.0245 160.938C36.4188 160.938 26.0262 160.938 26.0262 160.938C25.8677 160.938 25.7092 160.938 25.5507 160.932C25.5337 160.932 25.5111 160.932 25.4941 160.932C25.3582 160.932 25.2167 160.921 25.0809 160.915C25.0696 160.915 25.0639 160.915 25.0526 160.915C24.8997 160.904 24.7469 160.898 24.5997 160.887C24.4412 160.876 24.2884 160.859 24.1412 160.842C24.0111 160.83 23.8809 160.813 23.7563 160.796C23.5809 160.774 23.411 160.751 23.2412 160.723C23.1224 160.706 23.0091 160.683 22.8903 160.661C22.8676 160.661 22.8507 160.655 22.828 160.649C22.3356 158.712 21.6903 155.965 21.1921 153.036L22.511 148.782C22.511 148.782 45.9737 154.667 49.8624 136.586C49.8907 136.444 49.919 136.297 49.9473 136.155C50.7964 136.795 55.7663 139.99 60.8267 135.073Z" fill="#003580"/>
</g>
<path d="M19.1827 159.454C21.1243 160.417 23.4224 160.955 26.0149 160.955C26.0149 160.955 36.4075 160.955 37.0076 160.955C42.0284 160.955 55.1946 152.543 60.7419 135.357C62.6948 129.312 63.2891 117.032 62.423 106.982L34.4151 103.731C34.4151 103.731 34.5905 107.005 33.2094 111.412L38.6944 116.04C38.6944 116.04 52.104 126.067 49.8398 136.603C45.9511 154.684 22.4885 148.799 22.4885 148.799L19.1827 159.454Z" fill="white"/>
<g opacity="0.3">
<path d="M62.7514 120.006C58.8456 121.654 54.2946 122.594 49.4379 122.594C47.9606 122.594 46.5115 122.509 45.102 122.339C42.0397 118.533 38.7057 116.035 38.7057 116.035L33.2207 111.407C34.5962 107 34.4264 103.725 34.4264 103.725L62.4287 106.971C62.7797 111.14 62.8929 115.683 62.7514 120.006Z" fill="#003580"/>
</g>
<g opacity="0.3">
<path d="M60.8267 135.073C60.7984 135.17 60.7701 135.26 60.7418 135.351C60.589 135.832 60.4305 136.303 60.2607 136.761C60.2154 136.897 60.1645 137.028 60.1135 137.158C60.0965 137.209 60.0739 137.26 60.0513 137.317C59.9154 137.685 59.7739 138.047 59.6324 138.404C59.5758 138.546 59.5192 138.687 59.4626 138.835C59.2927 139.248 59.1229 139.656 58.9418 140.058C58.8399 140.29 58.7324 140.523 58.6305 140.755C58.5286 140.987 58.4154 141.214 58.3078 141.44C58.189 141.69 58.0644 141.945 57.9399 142.188C57.521 143.021 57.0852 143.825 56.6323 144.607C56.5021 144.839 56.3663 145.066 56.2248 145.292C56.1059 145.496 55.9814 145.695 55.8568 145.893C55.7323 146.091 55.6078 146.289 55.4833 146.482C55.3587 146.675 55.2285 146.867 55.104 147.06C54.9795 147.252 54.8493 147.439 54.7191 147.621C54.4644 147.994 54.204 148.357 53.9379 148.714C53.8304 148.855 53.7285 149.003 53.6153 149.139C53.4398 149.371 53.2587 149.603 53.0832 149.83C52.9926 149.949 52.8964 150.062 52.8059 150.175C52.6247 150.402 52.4436 150.623 52.2568 150.844C52.1436 150.974 52.036 151.104 51.9228 151.235C51.8039 151.376 51.6851 151.512 51.5605 151.648C51.5209 151.693 51.4813 151.739 51.4417 151.784C51.3285 151.909 51.2153 152.033 51.1021 152.158C50.9662 152.305 50.8247 152.458 50.6888 152.6C50.6888 152.6 50.6832 152.605 50.6832 152.611C50.5586 152.741 50.4341 152.872 50.3096 153.002C50.1624 153.161 50.0096 153.313 49.8567 153.461C49.7209 153.597 49.5794 153.738 49.4379 153.874C49.302 154.01 49.1605 154.141 49.0247 154.271C48.8888 154.401 48.7473 154.531 48.6058 154.656C48.3284 154.911 48.0511 155.16 47.7737 155.398C47.502 155.63 47.2303 155.857 46.9643 156.078C46.5001 156.457 46.0359 156.814 45.5774 157.148C45.4755 157.228 45.3737 157.301 45.2718 157.369C45.1359 157.471 44.9944 157.568 44.8586 157.664C44.7001 157.777 44.5416 157.879 44.3887 157.981C44.2699 158.06 44.1567 158.134 44.0378 158.208C43.9019 158.293 43.7661 158.378 43.6302 158.463C43.0982 158.797 42.5717 159.091 42.0623 159.358C41.9434 159.42 41.8245 159.482 41.7 159.545C41.4396 159.675 41.1792 159.8 40.9245 159.913C40.8226 159.958 40.7264 160.003 40.6302 160.043C40.5453 160.083 40.466 160.111 40.3868 160.145C40.3132 160.179 40.2396 160.207 40.166 160.23C39.9623 160.309 39.7698 160.383 39.5773 160.445C39.4641 160.485 39.3622 160.519 39.2547 160.553C39.1471 160.587 39.0453 160.615 38.9434 160.644C38.8415 160.672 38.7396 160.7 38.6377 160.723C38.5528 160.745 38.4735 160.762 38.3886 160.779C38.2754 160.802 38.1622 160.825 38.0547 160.842C37.9641 160.859 37.8679 160.876 37.7773 160.887C37.7433 160.893 37.7094 160.898 37.6754 160.898C37.5339 160.915 37.3924 160.927 37.2622 160.938C37.1773 160.944 37.0981 160.944 37.0245 160.944C36.4188 160.944 26.0262 160.944 26.0262 160.944C25.8677 160.944 25.7092 160.944 25.5507 160.938C25.5337 160.938 25.5111 160.938 25.4941 160.938C25.3582 160.938 25.2167 160.927 25.0809 160.921C25.0696 160.921 25.0639 160.921 25.0526 160.921C24.8997 160.91 24.7469 160.904 24.5997 160.893C24.4412 160.881 24.2884 160.864 24.1412 160.847C24.0111 160.836 23.8809 160.819 23.7563 160.802C23.5809 160.779 23.411 160.757 23.2412 160.729C23.1224 160.712 23.0091 160.689 22.8903 160.666C22.8676 160.666 22.8507 160.661 22.828 160.655C22.3356 158.718 21.6903 155.97 21.1921 153.042L22.511 148.787C22.511 148.787 45.9737 154.673 49.8624 136.591C49.8907 136.45 49.919 136.303 49.9473 136.161C50.7964 136.795 55.7663 139.99 60.8267 135.073Z" fill="#003580"/>
</g>
<path d="M12.2318 149.898C13.3809 156.355 18.4243 160.949 26.015 160.949C26.015 160.949 31.5623 160.949 32.2642 160.949C34.8907 160.949 35.8246 156.809 33.8095 155.285C32.8812 154.577 31.3755 154.486 31.4095 154.288C31.4095 154.282 31.4151 154.271 31.4208 154.265C31.5849 154.05 35.1001 149.841 33.985 145.004C32.7057 139.464 26.9434 137.577 22.3471 137.724L14.0714 140.477L12.9677 139.73C12.4922 141.576 12.1695 143.61 12.0224 145.842C11.9261 147.258 12.0054 148.618 12.2318 149.898Z" fill="#F89B29"/>
<g opacity="0.3">
<path d="M12.2316 149.898C13.3807 156.356 18.4242 160.95 26.0149 160.95C26.0149 160.95 31.5621 160.95 32.264 160.95C34.3414 160.95 35.3603 158.355 34.6924 156.52C34.3244 157.624 33.4754 158.502 32.264 158.502C31.5565 158.502 26.0149 158.502 26.0149 158.502C18.4185 158.502 13.3807 153.903 12.2316 147.451C12.1354 146.901 12.0618 146.34 12.0222 145.763C12.0222 145.791 12.0165 145.814 12.0165 145.842C11.926 147.258 12.0052 148.618 12.2316 149.898Z" fill="#003580"/>
</g>
<g opacity="0.3">
<path d="M12.2317 149.898C13.3808 156.356 18.4242 160.95 26.0149 160.95C26.0149 160.95 31.5622 160.95 32.2641 160.95C33.9679 160.95 34.9585 159.205 34.8962 157.562C34.8962 157.534 34.8962 157.5 34.8905 157.472C34.8905 157.438 34.8849 157.409 34.8849 157.375C34.8849 157.364 34.8849 157.353 34.8792 157.336C34.8736 157.285 34.8679 157.239 34.8622 157.188C34.8566 157.149 34.8509 157.115 34.8453 157.081C34.8396 157.041 34.8339 157.007 34.8226 156.967C34.817 156.945 34.817 156.922 34.8113 156.905C34.8056 156.871 34.7943 156.837 34.7887 156.803C34.766 156.701 34.732 156.605 34.6981 156.509C34.3302 157.613 33.4811 158.491 32.2697 158.491C31.5622 158.491 26.0206 158.491 26.0206 158.491C20.5243 158.491 16.3638 156.084 14.0544 152.305C13.3072 151.631 12.7015 150.816 12.2317 149.898Z" fill="#003580"/>
</g>
<path d="M12.2317 149.898C13.3808 156.356 18.4242 160.95 26.0149 160.95C26.0149 160.95 31.5622 160.95 32.2641 160.95C34.8905 160.95 35.8245 156.809 33.8094 155.285C32.8811 154.577 31.3754 154.486 31.4094 154.288C29.6716 154.186 27.2772 154.26 24.0111 154.702C18.0393 155.506 14.0713 153.506 12.2317 149.898Z" fill="white"/>
<g opacity="0.3">
<path d="M12.2317 149.898C13.3808 156.356 18.4242 160.95 26.0149 160.95C26.0149 160.95 31.5622 160.95 32.2641 160.95C33.9679 160.95 34.9585 159.205 34.8962 157.562C34.8962 157.534 34.8962 157.5 34.8905 157.472C34.8905 157.438 34.8849 157.409 34.8849 157.375C34.8849 157.364 34.8849 157.353 34.8792 157.336C34.8736 157.285 34.8679 157.239 34.8622 157.188C34.8566 157.149 34.8509 157.115 34.8453 157.081C34.8396 157.041 34.8339 157.007 34.8226 156.967C34.817 156.945 34.817 156.922 34.8113 156.905C34.8056 156.871 34.7943 156.837 34.7887 156.803C34.766 156.701 34.732 156.605 34.6981 156.509C34.3302 157.613 33.4811 158.491 32.2697 158.491C31.5622 158.491 26.0206 158.491 26.0206 158.491C20.5243 158.491 16.3638 156.084 14.0544 152.305C13.3072 151.631 12.7015 150.816 12.2317 149.898Z" fill="#003580"/>
</g>
<path d="M85.0591 100.066C84.9855 100.072 84.9063 100.072 84.827 100.077C84.827 100.077 84.827 100.077 84.8327 100.083C84.844 100.094 84.8723 100.111 84.9176 100.139C84.9685 100.111 85.0138 100.089 85.0591 100.066Z" fill="#982E20"/>
<g opacity="0.3">
<path d="M40.0415 152.798C40.5113 154.531 41.0717 156.186 41.7453 157.539C42.1472 158.344 42.6963 159.007 43.2453 159.522C44.2189 160.44 45.5039 160.95 46.8397 160.95H51.6455C52.6247 160.95 53.5813 160.547 54.204 159.788C54.3851 159.567 54.5266 159.335 54.6399 159.092C54.6795 159.018 54.7078 158.939 54.7417 158.859C54.9059 158.44 54.9795 158.004 54.9795 157.585C54.9795 157.528 54.9795 157.471 54.9738 157.42C54.9682 157.364 54.9682 157.307 54.9625 157.251C53.7059 158.264 51.47 158.423 48.6284 158.304C45.4133 158.168 42.8491 156.95 43.0472 154.628C41.8698 154.328 40.8736 153.653 40.0415 152.798Z" fill="#003580"/>
</g>
<path d="M54.204 159.788C53.5814 160.547 52.6247 160.95 51.6455 160.95H46.8397C45.5039 160.95 44.2133 160.44 43.2453 159.522C42.7019 159.007 42.1472 158.344 41.7453 157.534C40.1151 154.254 39.1132 149.184 38.5641 145.519C38.1679 142.891 38.0094 140.993 38.0094 140.993L49.8002 136.065C50.5926 144.42 50.9719 148.13 51.0907 153.336C51.1304 154.979 52.6077 154.163 54.3059 155.732C54.6795 156.078 54.9172 156.667 54.9682 157.33C55.0304 158.14 54.804 159.058 54.204 159.788Z" fill="#F89B29"/>
<g opacity="0.3">
<path d="M54.2041 159.788C53.5814 160.547 52.6248 160.949 51.6455 160.949H46.8398C45.5039 160.949 44.2134 160.44 43.2454 159.522C42.702 159.006 42.1473 158.344 41.7454 157.534C40.1152 154.254 39.1133 149.184 38.5642 145.519C39.8605 150.498 42.3907 156.995 46.9247 158.117C50.8021 159.074 53.4965 158.604 54.9739 157.324C55.0305 158.14 54.8041 159.057 54.2041 159.788Z" fill="#003580"/>
</g>
<g opacity="0.3">
<path d="M54.204 159.788C54.0851 159.93 53.9606 160.06 53.8191 160.174C53.4964 160.451 53.1228 160.649 52.721 160.78C52.6077 160.819 52.4889 160.848 52.37 160.87C52.3134 160.882 52.2511 160.893 52.1889 160.904C52.0077 160.933 51.8266 160.95 51.6455 160.95H46.8397C46.5907 160.95 46.3416 160.933 46.0925 160.893C45.9284 160.87 45.7699 160.836 45.6057 160.802C45.5265 160.785 45.4472 160.763 45.368 160.74C45.2095 160.695 45.0567 160.638 44.9038 160.581C44.8303 160.553 44.751 160.519 44.6774 160.485C44.4567 160.383 44.2359 160.264 44.0265 160.134C43.7491 159.958 43.4831 159.754 43.2453 159.522C43.1774 159.46 43.1095 159.392 43.0416 159.318C42.9057 159.182 42.7699 159.029 42.634 158.876C42.3057 158.485 41.9944 158.038 41.7453 157.534C41.6944 157.432 41.6434 157.33 41.5925 157.222C41.5415 157.115 41.4906 157.007 41.4453 156.899C41.3038 156.576 41.1623 156.242 41.0321 155.897C40.9415 155.659 40.8453 155.41 40.7604 155.16C40.7151 155.041 40.6755 154.917 40.6359 154.792C40.5226 154.458 40.4151 154.112 40.3132 153.761C40.2226 153.444 40.1264 153.121 40.0415 152.792C40.6642 153.433 41.3774 153.971 42.1868 154.328C43.4434 156.203 45.0057 157.641 46.9246 158.117C50.8021 159.075 53.4964 158.604 54.9738 157.324C55.0304 158.134 54.804 159.058 54.204 159.788Z" fill="#003580"/>
</g>
<path d="M40.0415 152.798C40.5113 154.531 41.0774 156.186 41.7453 157.539C42.1472 158.349 42.6963 159.007 43.2453 159.528C44.2189 160.445 45.5039 160.955 46.8397 160.955H51.6455C52.6247 160.955 53.5813 160.553 54.204 159.794C55.2965 158.457 55.138 156.508 54.3059 155.738C53.6266 155.109 52.9813 154.866 52.4493 154.69C50.7738 154.356 48.6001 154.26 45.3114 154.741C43.0925 155.064 41.3604 154.152 40.0415 152.798Z" fill="white"/>
<g opacity="0.3">
<path d="M54.204 159.788C54.0851 159.93 53.9606 160.06 53.8191 160.174C53.4964 160.445 53.1228 160.649 52.721 160.78C52.6077 160.819 52.4889 160.848 52.37 160.87C52.3134 160.882 52.2511 160.893 52.1889 160.904C52.0077 160.933 51.8266 160.944 51.6455 160.944H46.8397C46.5907 160.944 46.3416 160.927 46.0925 160.893C45.9284 160.87 45.7699 160.836 45.6057 160.802C45.5265 160.785 45.4472 160.763 45.368 160.74C45.2095 160.695 45.0567 160.638 44.9038 160.581C44.8303 160.553 44.751 160.519 44.6774 160.485C44.4567 160.383 44.2359 160.264 44.0265 160.134C43.7491 159.958 43.4831 159.754 43.2453 159.522C43.1774 159.46 43.1095 159.392 43.0416 159.318C42.9057 159.182 42.7699 159.035 42.634 158.876C42.3 158.485 41.9944 158.038 41.7396 157.534C41.6887 157.432 41.6378 157.33 41.5925 157.222C41.5415 157.115 41.4906 157.007 41.4453 156.899C41.2981 156.576 41.1623 156.242 41.0321 155.897C40.9415 155.659 40.8453 155.41 40.7604 155.16C40.7151 155.041 40.6755 154.917 40.6359 154.792C40.5226 154.458 40.4151 154.112 40.3132 153.761C40.2226 153.444 40.1264 153.121 40.0415 152.792C40.6642 153.433 41.3774 153.971 42.1868 154.328C43.4434 156.203 45.0057 157.641 46.9246 158.117C50.8021 159.075 53.4964 158.604 54.9738 157.324C55.0304 158.134 54.804 159.058 54.204 159.788Z" fill="#003580"/>
</g>
<path d="M128.43 98.9219C128.43 98.9219 128.373 101.165 127.83 103.34C127.275 105.555 126.211 107.702 124.179 107.328C122.69 107.056 121.824 105.538 121.32 103.816C120.573 101.256 120.63 98.2422 120.63 98.2422L128.43 98.9219Z" fill="#003580"/>
<path d="M127.83 103.34C127.275 105.555 126.211 107.702 124.179 107.328C122.69 107.056 121.824 105.538 121.32 103.816C121.649 103.68 122 103.595 122.373 103.561C123.149 103.493 123.89 103.68 124.513 104.048C125.062 103.578 125.758 103.272 126.534 103.204C126.987 103.176 127.422 103.221 127.83 103.34Z" fill="#F27E80"/>
<path d="M124.626 108.132C124.433 108.132 124.241 108.115 124.043 108.082C119.82 107.305 119.854 99.1654 119.871 98.2364C119.877 97.8172 120.222 97.483 120.641 97.4943C121.06 97.5 121.394 97.8455 121.382 98.2647C121.343 100.276 121.801 106.127 124.309 106.586C124.779 106.671 125.175 106.575 125.543 106.274C127.167 104.955 127.626 100.508 127.665 98.9048C127.677 98.4856 128.022 98.1571 128.441 98.1627C128.86 98.1741 129.188 98.5196 129.182 98.9388C129.165 99.6015 128.95 105.453 126.499 107.447C125.956 107.9 125.311 108.132 124.626 108.132Z" fill="#003580"/>
<path d="M118.66 96.8995C118.66 96.8995 118.564 99.3806 119.798 100.038C121.683 101.035 123.381 99.9017 124.258 98.8651C124.258 98.8651 125.701 101.703 128.498 100.74C130.134 100.179 130.898 98.1457 130.898 98.1457L123.992 95.3134L118.66 96.8995Z" fill="white"/>
<g opacity="0.3">
<path d="M119.803 100.038C121.518 101.233 123.381 99.9017 124.264 98.8707C124.264 98.8707 125.973 102.026 128.645 100.995C129.585 100.627 129.873 99.7714 129.936 99.0407C126.239 100.44 124.349 94.9225 124.349 94.9225C123.375 96.0724 121.043 98.6328 119.124 98.3156C119.067 98.9104 119.175 99.6015 119.803 100.038Z" fill="#003580"/>
</g>
<path d="M124.501 95.6702C124.484 95.9138 124.484 96.1857 124.501 96.4463C124.513 96.7069 124.541 96.9674 124.581 97.2167C124.62 97.4716 124.677 97.7152 124.745 97.9531C124.813 98.191 124.903 98.4176 124.999 98.6272L125.005 98.6328C125.181 99.0294 125.005 99.4939 124.609 99.6695C124.213 99.8451 123.749 99.6695 123.573 99.2729C123.55 99.2163 123.528 99.1596 123.516 99.103C123.454 98.7858 123.409 98.4742 123.398 98.1627C123.381 97.8568 123.386 97.5509 123.409 97.2507C123.432 96.9504 123.471 96.6559 123.522 96.367C123.579 96.0724 123.641 95.8005 123.732 95.5003C123.794 95.2907 124.015 95.1774 124.218 95.2397C124.394 95.2964 124.507 95.4606 124.496 95.6362L124.501 95.6702Z" fill="#003580"/>
<path d="M128.554 95.5173C128.35 96.2764 125.441 97.432 123.901 97.2394C122.248 97.0354 120.618 95.4947 120.494 94.7299C120.346 93.8349 121.846 92.9512 125.09 93.4327C127.745 93.8293 128.781 94.6846 128.554 95.5173Z" fill="#003580"/>
<g opacity="0.7">
<path d="M124.943 94.1291C124.983 94.3612 124.366 94.599 123.89 94.5707C123.618 94.5537 122.651 94.4801 122.611 94.2254C122.571 93.9707 122.854 93.7556 123.76 93.7329C124.575 93.7159 124.903 93.8971 124.943 94.1291Z" fill="white"/>
</g>
<path d="M119.13 96.9166C119.237 97.551 119.384 98.2308 119.634 98.7349C119.752 98.9898 119.911 99.1881 120.047 99.2844C120.081 99.307 120.115 99.3297 120.149 99.341L120.33 99.4203C120.46 99.4713 120.584 99.511 120.715 99.545C121.23 99.6582 121.739 99.6016 122.249 99.3807C122.752 99.1598 123.245 98.7972 123.664 98.3611L124.949 98.514L125.062 98.6726C125.102 98.7349 125.147 98.7972 125.198 98.8539C125.294 98.9728 125.39 99.0918 125.492 99.1994C125.696 99.4203 125.922 99.6129 126.154 99.7715C126.619 100.083 127.139 100.247 127.711 100.196C128.305 100.14 128.815 99.9415 129.29 99.5223C129.754 99.1201 130.173 98.548 130.468 97.9815L130.485 97.9532C130.604 97.7266 130.887 97.636 131.113 97.7549C131.317 97.8626 131.407 98.1005 131.339 98.3101C131.209 98.7123 131.051 99.0521 130.853 99.4033C130.66 99.7489 130.422 100.083 130.145 100.389C129.862 100.695 129.534 100.978 129.143 101.193C128.736 101.409 128.339 101.533 127.903 101.618C127.468 101.698 127.009 101.698 126.556 101.613C126.103 101.533 125.679 101.352 125.3 101.125C124.92 100.893 124.592 100.604 124.303 100.293C124.162 100.134 124.026 99.9698 123.907 99.7942C123.845 99.7092 123.788 99.6186 123.732 99.528C123.675 99.4317 123.63 99.3524 123.568 99.2221L124.852 99.375C124.349 100.015 123.709 100.559 122.917 100.91C122.135 101.261 121.156 101.363 120.301 101.097C120.092 101.029 119.883 100.955 119.69 100.859C119.588 100.808 119.509 100.769 119.396 100.701C119.277 100.627 119.164 100.548 119.067 100.457C118.666 100.094 118.462 99.6526 118.326 99.2504C118.196 98.8425 118.145 98.4404 118.128 98.0552C118.111 97.6586 118.133 97.2904 118.201 96.8939C118.247 96.639 118.49 96.4634 118.745 96.5087C118.949 96.5427 119.096 96.7013 119.13 96.8939V96.9166Z" fill="#003580"/>
<path d="M84.9405 125.608C84.6744 125.648 84.4254 125.653 84.1593 125.631C83.899 125.608 83.6273 125.557 83.3556 125.427C83.0895 125.302 82.8291 125.081 82.6763 124.787C82.5065 124.492 82.4952 124.169 82.4895 123.875C82.4838 123.637 82.6763 123.438 82.9197 123.433C83.1631 123.427 83.3556 123.62 83.3612 123.863C83.3612 123.88 83.3612 123.897 83.3612 123.92L83.3556 123.971C83.3329 124.152 83.3103 124.333 83.3669 124.475C83.4178 124.622 83.514 124.753 83.6725 124.86C83.8254 124.968 84.0291 125.047 84.2442 125.098C84.4537 125.149 84.6914 125.177 84.9065 125.177H84.9235C85.0424 125.177 85.1386 125.279 85.1386 125.398C85.1273 125.506 85.0424 125.591 84.9405 125.608Z" fill="#003580"/>
<path d="M85.1385 128.825C84.5838 128.978 83.9725 128.967 83.4064 128.729C83.1234 128.61 82.8574 128.435 82.6366 128.197C82.4159 127.964 82.2517 127.676 82.1442 127.381L82.1385 127.37C82.0592 127.143 82.1725 126.894 82.3989 126.815C82.6253 126.735 82.8743 126.849 82.9536 127.075C82.9593 127.092 82.9649 127.115 82.9706 127.137C83.0555 127.551 83.2932 127.919 83.6838 128.146C84.0687 128.372 84.5612 128.463 85.0423 128.401H85.048C85.1668 128.384 85.2744 128.469 85.2914 128.588C85.314 128.695 85.2461 128.797 85.1385 128.825Z" fill="#003580"/>
<path d="M96.2783 125.285C96.7368 125.347 97.2519 125.347 97.6425 125.211C97.8349 125.143 97.9821 125.036 98.0387 124.922C98.0953 124.803 98.0896 124.639 98.067 124.452L98.0613 124.418C98.033 124.18 98.1972 123.959 98.4349 123.931C98.6727 123.903 98.8934 124.067 98.9217 124.305C98.9217 124.322 98.9274 124.344 98.9274 124.361C98.9274 124.679 98.8934 125.036 98.667 125.347C98.4349 125.653 98.0953 125.783 97.8123 125.84C97.5179 125.897 97.2406 125.891 96.9689 125.863C96.6972 125.834 96.4481 125.783 96.1821 125.704C96.0689 125.67 96.0009 125.551 96.0349 125.438C96.0632 125.336 96.1651 125.268 96.2726 125.285H96.2783Z" fill="#003580"/>
<path d="M96.1763 128.667C96.6518 128.729 97.1499 128.701 97.5462 128.525C97.9424 128.35 98.1688 128.027 98.2481 127.63C98.2933 127.392 98.5254 127.239 98.7575 127.285C98.9952 127.33 99.1481 127.562 99.1028 127.794C99.0971 127.817 99.0915 127.834 99.0858 127.857L99.0802 127.868C98.9726 128.163 98.8085 128.452 98.5707 128.673C98.3386 128.899 98.0499 129.052 97.7613 129.131C97.1782 129.296 96.6065 129.228 96.0858 129.086C95.9725 129.052 95.9046 128.933 95.9329 128.82C95.9612 128.718 96.0688 128.65 96.1763 128.667Z" fill="#003580"/>
<g opacity="0.7">
<path d="M25.7091 139.832C25.7091 139.832 30.7639 141.135 31.9696 144.902C33.3224 149.133 31.0979 149.841 30.4016 147.519C29.7054 145.191 29.4337 142.834 25.7091 139.832Z" fill="white"/>
</g>
<g opacity="0.3">
<path d="M81.9968 40.2756C81.21 40.0377 80.3779 40.0604 79.5119 40.3776C68.689 44.3712 61.4663 54.9131 58.3417 60.3454C57.3907 61.9995 55.2228 62.4867 53.6492 61.4047C53.6492 61.4047 61.7153 43.5781 76.5741 38.1004C78.6345 37.3414 80.4911 38.259 81.9968 40.2756Z" fill="white"/>
</g>
<path d="M74.6271 70.2077C73.3762 67.7549 69.7252 65.0246 66.6629 63.0533C63.9006 61.2746 63.2496 57.5189 65.2138 54.8849C68.6667 50.2455 72.9969 46.9091 75.946 44.9661C77.6951 43.8105 80.0499 44.7962 80.4744 46.8524C81.1254 50.0359 81.5839 54.9245 80.2367 60.6118C78.7763 66.7693 74.9724 70.1114 74.9724 70.1114" fill="#FF6C6C"/>
<path d="M71.7515 63.0872C71.5025 64.1521 71.1742 65.1321 70.8176 66.0215C69.493 64.9452 68.0213 63.9199 66.6684 63.0475C63.9061 61.2688 63.2552 57.5132 65.2137 54.8791C67.1779 52.2394 69.4251 50.0245 71.5421 48.2458C71.7572 48.5574 71.9157 48.9199 71.9949 49.3221C72.6459 52.5113 73.0987 57.3942 71.7515 63.0872Z" fill="#FF6C6C"/>
<g opacity="0.3">
<path d="M15.0619 41.0575C15.843 40.8026 16.6751 40.8026 17.5525 41.1028C28.4659 44.8415 35.932 55.2135 39.1811 60.5722C40.1717 62.2036 42.3453 62.6398 43.8963 61.5239C43.8963 61.5239 35.4169 43.8899 20.4337 38.7577C18.3563 38.044 16.5223 39.0069 15.0619 41.0575Z" fill="white"/>
</g>
<path d="M23.1281 70.8081C24.3224 68.3213 27.9112 65.5116 30.9225 63.4667C33.6395 61.62 34.2056 57.8587 32.1791 55.2643C28.6187 50.7043 24.2149 47.4754 21.2205 45.5948C19.4488 44.4845 17.111 45.5211 16.7374 47.583C16.16 50.7779 15.8147 55.6778 17.2978 61.3368C18.8997 67.4546 22.7828 70.7118 22.7828 70.7118" fill="#FF6C6C"/>
<path d="M25.8394 63.6254C26.1168 64.6847 26.4621 65.6533 26.8413 66.537C28.1432 65.4268 29.5923 64.3731 30.9225 63.4725C33.6395 61.6258 34.2056 57.8645 32.1848 55.2701C30.1584 52.6813 27.8659 50.5174 25.7036 48.7841C25.4941 49.1013 25.347 49.4695 25.2734 49.8717C24.696 53.0665 24.3564 57.9664 25.8394 63.6254Z" fill="#FF6C6C"/>
<path d="M86.6952 92.3733C83.8366 90.9628 81.3913 86.1819 80.7234 83.7857C80.3385 82.4036 79.4045 79.6675 78.6856 77.6056C91.9368 66.1914 86.6612 34.7243 77.2875 38.1798C66.7024 42.0827 59.5702 52.2451 56.3324 57.7737C51.9569 56.8277 48.8153 57.0996 48.8153 57.0996C48.8153 57.0996 45.5832 56.8957 41.1454 57.9947C37.7944 52.5509 30.4131 42.5189 19.7205 38.8539C10.2392 35.6024 5.69388 67.4319 19.3922 78.4213C18.7299 80.4889 17.8865 83.1626 17.5412 84.5278C16.9242 86.9409 14.5978 91.7785 11.7676 93.2514C10.0977 94.1237 10.0355 95.5229 11.2015 96.5595C11.9487 97.2223 13.211 97.7434 14.8695 97.868C14.9997 97.8794 15.1412 97.885 15.277 97.8907C15.277 97.8907 15.2771 97.8907 15.2714 97.8964C15.1695 97.9643 14.3374 98.5138 12.1978 99.9639C10.1034 101.386 11.8242 103.221 15.3959 105.039C18.962 106.858 23.581 111.135 24.5263 111.763C25.081 112.132 28.0414 114.454 33.6113 116.278C37.5736 117.581 42.8605 118.635 49.5342 118.555C65.5929 118.368 73.444 111.831 74.378 111.18C75.3063 110.528 79.8234 106.144 83.3498 104.246C86.8763 102.343 88.5518 100.468 86.4235 99.0973C84.1027 97.6018 83.2932 97.0976 83.2932 97.0976C83.4291 97.092 83.5593 97.0806 83.6838 97.0637C85.3536 96.8994 86.6046 96.3499 87.3405 95.6645C88.4839 94.6052 88.3876 93.206 86.6952 92.3733Z" fill="#F89B29"/>
<g opacity="0.3">
<path d="M77.3215 41.386C66.7364 45.289 60.5948 54.9415 57.3626 60.4702C52.9928 59.5242 48.8436 59.5525 48.8436 59.5525C48.8436 59.5525 44.6153 59.6092 40.1775 60.7081C36.8265 55.2644 30.4528 45.7251 19.7545 42.0601C14.7167 40.3324 11.077 48.4951 10.8166 58.1703C10.2619 47.181 14.1337 36.9393 19.7149 38.8483C30.4132 42.5133 37.7944 52.5454 41.1397 57.9834C45.5776 56.8901 48.8097 57.0941 48.8097 57.0941C48.8097 57.0941 51.9512 56.8278 56.3268 57.7682C59.5589 52.2395 66.6968 42.0771 77.2818 38.1742C82.8178 36.1292 86.9273 46.2803 86.6273 57.281C86.1461 47.6171 82.3196 39.545 77.3215 41.386Z" fill="white"/>
</g>
<path d="M15.0507 97.8795C15.1242 97.8852 15.2035 97.8852 15.2771 97.8908C15.2771 97.8908 15.2771 97.8908 15.2714 97.8965C15.2601 97.9078 15.2318 97.9248 15.1922 97.9474C15.1412 97.9248 15.0959 97.9022 15.0507 97.8795Z" fill="#982E20"/>
<path d="M83.3499 104.247C79.8234 106.144 75.3064 110.529 74.3781 111.18C73.4497 111.832 65.593 118.368 49.5343 118.555C42.8606 118.635 37.5737 117.581 33.6114 116.278C28.0415 114.449 25.081 112.132 24.5263 111.764C23.581 111.135 18.9621 106.858 15.396 105.04C11.8242 103.221 10.1091 101.386 12.1978 99.9641C14.3318 98.5139 15.1696 97.9645 15.2715 97.8965C15.2771 97.8908 15.2771 97.8908 15.2771 97.8908C15.1413 97.8852 14.9997 97.8795 14.8696 97.8682C15.396 97.6812 15.9847 97.5113 16.63 97.347C21.8772 96.0442 28.6981 103.238 37.9586 99.4939C45.0682 96.622 41.8983 79.8886 43.7379 75.5042C43.7549 75.4589 43.7776 75.4192 43.7945 75.3739C45.7531 70.8422 52.172 70.7686 54.2381 75.2493C54.2608 75.2946 54.2777 75.3343 54.3004 75.3796C56.2419 79.7187 53.4626 96.52 60.6344 99.2277C69.9855 102.757 76.6366 95.4041 81.9121 96.5823C82.5631 96.7296 83.1574 96.8882 83.6895 97.0638C83.5593 97.0751 83.4291 97.0864 83.299 97.0978C83.299 97.0978 84.1084 97.5963 86.4292 99.0974C88.5462 100.468 86.8707 102.343 83.3499 104.247Z" fill="white"/>
<g opacity="0.3">
<path d="M54.8267 77.4982C55.0757 79.2089 55.1436 81.4691 55.2569 83.8935C55.0135 81.7636 54.9172 79.5488 54.8267 77.4982Z" fill="#003580"/>
</g>
<g opacity="0.3">
<path d="M83.3498 104.246C79.8234 106.144 75.3063 110.528 74.3723 111.18C73.444 111.831 65.5873 118.368 49.5342 118.555H49.5285C42.8548 118.635 37.5736 117.581 33.6113 116.278C28.0414 114.448 25.0753 112.132 24.5262 111.758C23.5809 111.129 18.962 106.852 15.3959 105.034C11.8242 103.215 10.1034 101.38 12.1977 99.9582C12.7695 99.5674 13.2506 99.2501 13.6468 98.9782C14.06 99.2331 14.5185 99.4824 15.0167 99.7373C18.5828 101.556 23.2017 105.827 24.147 106.461C24.7017 106.829 27.6621 109.152 33.232 110.976C35.2132 111.627 37.5227 112.216 40.1774 112.63C42.8265 113.044 45.8153 113.287 49.1549 113.247C65.208 113.061 73.0648 106.524 73.9987 105.872C74.9271 105.221 79.4498 100.836 82.9706 98.9386C83.5876 98.6044 84.148 98.2758 84.6404 97.9473C85.0933 98.2362 85.6819 98.6157 86.4235 99.0915C88.5518 100.468 86.8706 102.343 83.3498 104.246Z" fill="#003580"/>
</g>
<path d="M80.2308 60.6061C78.7704 66.7579 74.9666 70.1057 74.9666 70.1057L74.627 70.2077C73.9307 68.8368 72.4873 67.3867 70.8118 66.0215C69.4873 64.9452 68.0155 63.9199 66.6627 63.0476C63.9004 61.2689 63.2494 57.5132 65.208 54.8792C67.1721 52.2394 69.4193 50.0246 71.5364 48.2459C73.1439 46.8977 74.6723 45.7987 75.9459 44.9604C77.6949 43.8048 80.0497 44.7904 80.4686 46.841C81.1252 50.0302 81.5837 54.9188 80.2308 60.6061Z" fill="#FF6C6C"/>
<g opacity="0.3">
<path d="M71.7515 63.0872C71.5025 64.1521 71.1742 65.1321 70.8176 66.0215C69.493 64.9452 68.0213 63.9199 66.6684 63.0475C63.9061 61.2688 63.2552 57.5132 65.2137 54.8791C67.1779 52.2394 69.4251 50.0245 71.5421 48.2458C71.7572 48.5574 71.9157 48.9199 71.9949 49.3221C72.6459 52.5113 73.0987 57.3942 71.7515 63.0872Z" fill="#003580"/>
</g>
<path d="M17.2979 61.3424C18.8998 67.4602 22.7828 70.7173 22.7828 70.7173L23.1225 70.8136C23.7904 69.4314 25.1999 67.9417 26.8357 66.5425C28.1376 65.4322 29.5867 64.3786 30.9169 63.4779C33.634 61.6312 34.2 57.8699 32.1792 55.2755C30.1528 52.6868 27.8603 50.5229 25.698 48.7895C24.0621 47.481 22.5055 46.416 21.2149 45.606C19.4432 44.4957 17.1054 45.5324 16.7375 47.5943C16.1601 50.7891 15.8205 55.6834 17.2979 61.3424Z" fill="#FF6C6C"/>
<g opacity="0.3">
<path d="M25.8394 63.6254C26.1168 64.6847 26.4621 65.6533 26.8413 66.537C28.1432 65.4268 29.5923 64.3731 30.9225 63.4725C33.6395 61.6258 34.2056 57.8645 32.1848 55.2701C30.1584 52.6813 27.8659 50.5174 25.7036 48.7841C25.4941 49.1013 25.347 49.4695 25.2734 49.8717C24.696 53.0665 24.3564 57.9664 25.8394 63.6254Z" fill="#003580"/>
</g>
<path d="M54.04 102.032C54.0966 107.022 52.0418 111.095 49.4437 111.123C46.8512 111.152 44.7002 107.13 44.6379 102.139" fill="#FF6C6C"/>
<path d="M54.0172 103.159C53.9323 104.796 53.6154 106.303 53.1286 107.549C52.2965 109.707 50.9606 111.101 49.4436 111.118C47.9266 111.135 46.5567 109.77 45.6794 107.628C45.1643 106.393 44.819 104.898 44.6945 103.267L54.0172 103.159Z" fill="#FF6C6C"/>
<path d="M49.0077 107.793L48.5549 102.615C48.5153 102.173 48.8436 101.788 49.2794 101.748C49.7209 101.709 50.1058 102.037 50.1455 102.473C50.1511 102.513 50.1511 102.558 50.1455 102.592L49.8115 107.781C49.7945 108.002 49.6077 108.172 49.3813 108.155C49.1832 108.144 49.0247 107.985 49.0077 107.793Z" fill="#003580"/>
<path d="M49.4098 111.922C46.4041 111.922 43.9248 108.614 43.8738 104.513C43.8682 104.071 44.2191 103.714 44.6606 103.708C44.6663 103.708 44.6663 103.708 44.672 103.708C45.1078 103.708 45.4644 104.059 45.4644 104.496C45.5041 107.736 47.2871 110.364 49.4381 110.33C51.5891 110.308 53.3098 107.645 53.2759 104.405C53.2702 103.963 53.6212 103.606 54.0627 103.601C54.0683 103.601 54.0683 103.601 54.074 103.601C54.5099 103.601 54.8665 103.952 54.8665 104.388C54.9118 108.506 52.4891 111.888 49.4607 111.922C49.4381 111.922 49.4211 111.922 49.4098 111.922Z" fill="#003580"/>
<g opacity="0.3">
<path d="M58.2117 101.448C57.974 104.122 56.2362 107.373 53.055 107.09C50.2757 106.841 49.3757 104.807 49.3757 104.807H49.3191C49.3191 104.807 48.4587 106.824 45.6908 107.175C42.77 107.549 40.7096 104.399 40.4095 101.731" fill="#003580"/>
</g>
<path d="M57.3683 101.046C57.1306 103.72 55.4551 105.051 53.0267 104.802C50.2531 104.518 49.5116 102.332 49.3361 101.516H49.2795C49.121 102.332 48.4304 104.535 45.6625 104.887C43.2398 105.193 41.5303 103.895 41.236 101.233" fill="white"/>
<g opacity="0.3">
<path d="M57.3683 101.046C57.1306 103.72 55.4551 105.051 53.0267 104.802C50.2531 104.518 49.5172 102.332 49.3361 101.522H49.2795C49.121 102.343 48.4361 104.541 45.6625 104.887C43.2398 105.193 41.5303 103.895 41.236 101.233L41.9548 101.227C42.7247 102.377 44.0266 102.887 45.6398 102.683C47.0436 102.508 47.9097 101.856 48.4417 101.154L50.1682 101.131C50.7229 101.822 51.6003 102.451 53.0041 102.592C54.6286 102.762 55.9136 102.219 56.6551 101.052L57.3683 101.046Z" fill="#003580"/>
</g>
<path d="M44.9833 105.725C43.9022 105.725 42.9455 105.419 42.187 104.819C41.2134 104.054 40.6134 102.842 40.4436 101.318C40.3927 100.882 40.7097 100.485 41.1455 100.44C41.5814 100.389 41.9776 100.706 42.0229 101.142C42.1474 102.236 42.5436 103.074 43.172 103.572C43.7663 104.037 44.5927 104.218 45.5607 104.099C47.7003 103.827 48.3173 102.269 48.4928 101.369L48.6173 100.734L49.9645 100.723L50.106 101.352C50.3041 102.253 50.9608 103.793 53.1061 104.014C54.0797 104.116 54.9004 103.912 55.4835 103.431C56.1005 102.921 56.4797 102.071 56.5759 100.978C56.6156 100.542 57.0005 100.213 57.4363 100.253C57.8722 100.293 58.1948 100.678 58.1609 101.114C58.025 102.643 57.4533 103.867 56.4967 104.654C55.5797 105.413 54.3514 105.736 52.9419 105.589C51.0513 105.396 49.9532 104.439 49.3249 103.493C48.7192 104.45 47.6437 105.43 45.7588 105.668C45.4984 105.708 45.238 105.725 44.9833 105.725Z" fill="#003580"/>
<path d="M49.2907 100.995C48.8549 100.995 48.4983 100.644 48.4983 100.208L48.4643 97.4772C48.4586 97.0354 48.8096 96.6785 49.2511 96.6729C49.2568 96.6729 49.2568 96.6729 49.2624 96.6729C49.6983 96.6729 50.0549 97.0241 50.0549 97.4602L50.0889 100.191C50.0945 100.632 49.7436 100.989 49.302 100.995C49.2964 100.995 49.2907 100.995 49.2907 100.995Z" fill="#003580"/>
<path d="M54.1984 96.6787C54.2154 98.2931 51.9399 100.48 49.104 100.514C46.2625 100.548 43.936 98.412 43.919 96.7976C43.9021 95.1832 46.2002 95.0246 49.0418 94.9906C51.872 94.9566 54.1758 95.0642 54.1984 96.6787Z" fill="#003580"/>
<g opacity="0.3">
<path d="M51.5039 95.9305C51.5096 96.3211 50.4115 96.8532 49.053 96.8702C47.6944 96.8871 46.5906 96.3777 46.585 95.9871C46.5793 95.5966 47.6831 95.5513 49.0416 95.5343C50.4001 95.523 51.4983 95.5456 51.5039 95.9305Z" fill="white"/>
</g>
<path d="M34.0878 96.9945C36.8019 96.8176 38.8042 93.6322 38.56 89.8796C38.3159 86.1271 35.9178 83.2284 33.2037 83.4053C30.4896 83.5821 28.4874 86.7675 28.7315 90.5201C28.9757 94.2726 31.3738 97.1713 34.0878 96.9945Z" fill="#003580"/>
<path d="M34.983 91.3273C35.8034 91.2739 36.4022 90.2106 36.3202 88.9525C36.2383 87.6944 35.5068 86.7178 34.6863 86.7712C33.8659 86.8246 33.2672 87.8878 33.3491 89.146C33.431 90.4041 34.1625 91.3807 34.983 91.3273Z" fill="white"/>
<path d="M68.8307 87.5642C68.1005 87.7965 67.3534 88.0684 66.6684 88.3799C65.9779 88.6915 65.3213 89.0427 64.7156 89.4449C64.4043 89.6375 64.1269 89.8641 63.8382 90.0737L63.4363 90.4249C63.3684 90.4872 63.3005 90.5382 63.2382 90.6005L63.0514 90.7931C62.5306 91.2802 62.1231 91.8637 61.7212 92.4528L60.3457 90.9404C60.4136 90.912 60.4589 90.895 60.5042 90.878C60.5495 90.8611 60.5948 90.8441 60.64 90.8271C60.7306 90.7987 60.8155 90.7648 60.9061 90.7421C61.0816 90.6854 61.257 90.6458 61.4269 90.6061C61.7721 90.5268 62.1287 90.4759 62.4797 90.4362C63.1816 90.3682 63.8948 90.3909 64.5854 90.5098C65.276 90.6288 65.9552 90.8271 66.5722 91.1386C67.2005 91.4219 67.7552 91.8297 68.259 92.2659C68.4119 92.4018 68.4288 92.6341 68.293 92.787C68.1968 92.9003 68.0439 92.94 67.9081 92.9003L67.8628 92.889C67.5628 92.7984 67.2854 92.6851 66.9968 92.6058C66.7024 92.5321 66.425 92.4415 66.1364 92.3962C65.5646 92.2772 64.9929 92.2319 64.4269 92.2376C63.8609 92.2319 63.3005 92.2999 62.7571 92.4132C62.4854 92.4698 62.2137 92.5434 61.9533 92.6228C61.8231 92.6681 61.6929 92.7077 61.5684 92.753C61.5061 92.7757 61.4438 92.7984 61.3872 92.8267C61.3589 92.838 61.3306 92.8493 61.3023 92.8607L61.2457 92.889L61.2231 92.9003C60.6853 93.1439 60.057 92.906 59.8136 92.3735C59.6608 92.045 59.7004 91.6711 59.8702 91.3822C60.3344 90.6118 60.8495 89.8527 61.5231 89.241C61.8344 88.9068 62.208 88.6518 62.5646 88.3743C62.9439 88.1364 63.3174 87.8815 63.725 87.6945C64.5231 87.298 65.3665 87.0204 66.2269 86.8731C67.0873 86.7315 67.942 86.6919 68.8251 86.8448C69.0289 86.8788 69.1647 87.0714 69.1307 87.2753C69.1081 87.417 69.0062 87.5246 68.876 87.5642H68.8307Z" fill="#003580"/>
<path d="M118.995 88.4339C120.003 84.5489 118.453 80.7842 115.533 80.0252C112.613 79.2662 109.429 81.8004 108.42 85.6854C107.412 89.5704 108.962 93.3351 111.882 94.0941C114.802 94.8531 117.986 92.3189 118.995 88.4339Z" fill="#003580"/>
<path d="M115.173 81.6729C114.177 81.8485 113.543 83.1174 113.763 84.4939C113.984 85.8761 114.969 86.8504 115.971 86.6748C116.967 86.4992 117.601 85.2303 117.381 83.8538C117.16 82.4716 116.169 81.4973 115.173 81.6729Z" fill="white"/>
<path d="M110.576 89.541C110.084 89.7563 109.903 90.487 110.175 91.1724C110.446 91.8579 111.069 92.2374 111.567 92.0165C112.06 91.8012 112.241 91.0705 111.969 90.3851C111.697 89.6996 111.075 89.3258 110.576 89.541Z" fill="#B199C5"/>
<path d="M143.271 83.8536C140.379 83.0039 137.158 85.4454 136.077 89.3086C134.996 93.1719 136.473 97.0012 139.366 97.8509C142.258 98.7006 145.479 96.2591 146.56 92.3959C147.635 88.5326 146.164 84.709 143.271 83.8536Z" fill="#003580"/>
<path d="M142.785 85.4684C141.788 85.644 141.154 86.9129 141.375 88.2894C141.596 89.6715 142.581 90.6458 143.583 90.4702C144.579 90.2946 145.213 89.0258 144.992 87.6493C144.766 86.2671 143.781 85.2871 142.785 85.4684Z" fill="white"/>
<path d="M138.188 93.3306C137.696 93.5458 137.515 94.2766 137.786 94.962C138.058 95.6474 138.681 96.0269 139.179 95.806C139.671 95.5908 139.852 94.86 139.581 94.1746C139.309 93.4948 138.686 93.1153 138.188 93.3306Z" fill="#B199C5"/>
</svg>
