<svg width="18" height="18" viewBox="0 0 18 18" fill="none" xmlns="http://www.w3.org/2000/svg">
<path d="M6.71098 1.90245L6.01462 2.18099V2.18099L6.71098 1.90245ZM7.67739 4.31847L8.37375 4.03993V4.03993L7.67739 4.31847ZM7.38359 6.17303L7.95975 6.65317L7.95975 6.65317L7.38359 6.17303ZM6.86348 6.79716L7.43965 7.2773L6.86348 6.79716ZM6.97552 9.26719L6.44519 9.79752L6.97552 9.26719ZM8.73281 11.0245L9.26314 10.4941L8.73281 11.0245ZM11.2028 11.1365L10.7227 10.5604L11.2028 11.1365ZM11.827 10.6164L12.3071 11.1926L12.3071 11.1926L11.827 10.6164ZM13.6815 10.3226L13.403 11.019L13.6815 10.3226ZM16.0975 11.289L16.3761 10.5927L16.3761 10.5927L16.0975 11.289ZM2.48684 1.5H5.00877V0H2.48684V1.5ZM6.01462 2.18099L6.98103 4.59702L8.37375 4.03993L7.40734 1.62391L6.01462 2.18099ZM6.80742 5.69289L6.28731 6.31702L7.43965 7.2773L7.95975 6.65317L6.80742 5.69289ZM6.44519 9.79752L8.20248 11.5548L9.26314 10.4941L7.50585 8.73686L6.44519 9.79752ZM11.683 11.7127L12.3071 11.1926L11.3468 10.0402L10.7227 10.5604L11.683 11.7127ZM13.403 11.019L15.819 11.9854L16.3761 10.5927L13.9601 9.62625L13.403 11.019ZM16.5 12.9912V15.5132H18V12.9912H16.5ZM15.5132 16.5C7.7739 16.5 1.5 10.2261 1.5 2.48684H0C0 11.0545 6.94548 18 15.5132 18V16.5ZM16.5 15.5132C16.5 16.0582 16.0582 16.5 15.5132 16.5V18C16.8866 18 18 16.8866 18 15.5132H16.5ZM15.819 11.9854C16.2303 12.1499 16.5 12.5482 16.5 12.9912H18C18 11.9349 17.3569 10.985 16.3761 10.5927L15.819 11.9854ZM12.3071 11.1926C12.6128 10.9378 13.0335 10.8712 13.403 11.019L13.9601 9.62625C13.0791 9.27385 12.0758 9.43279 11.3468 10.0402L12.3071 11.1926ZM8.20248 11.5548C9.14725 12.4996 10.6566 12.568 11.683 11.7127L10.7227 10.5604C10.2923 10.9191 9.65934 10.8903 9.26314 10.4941L8.20248 11.5548ZM6.28731 6.31702C5.43196 7.34345 5.50042 8.85275 6.44519 9.79752L7.50585 8.73686C7.10966 8.34067 7.08095 7.70773 7.43965 7.2773L6.28731 6.31702ZM6.98103 4.59702C7.12881 4.96647 7.06216 5.3872 6.80742 5.69289L7.95975 6.65317C8.56721 5.92422 8.72615 4.92093 8.37375 4.03993L6.98103 4.59702ZM5.00877 1.5C5.45175 1.5 5.8501 1.7697 6.01462 2.18099L7.40734 1.62391C7.01502 0.643123 6.06511 0 5.00877 0V1.5ZM2.48684 0C1.1134 0 0 1.1134 0 2.48684H1.5C1.5 1.94182 1.94182 1.5 2.48684 1.5V0Z" fill="#003580"/>
</svg>
