<svg width="41" height="40" viewBox="0 0 41 40" fill="none" xmlns="http://www.w3.org/2000/svg">
<g clip-path="url(#clip0_17_119)">
<path d="M20.5 0C15.1957 0 10.1086 2.10714 6.35786 5.85786C2.60714 9.60859 0.5 14.6957 0.5 20C0.5 25.3043 2.60714 30.3914 6.35786 34.1421C10.1086 37.8929 15.1957 40 20.5 40C25.8043 40 30.8914 37.8929 34.6421 34.1421C38.3929 30.3914 40.5 25.3043 40.5 20C40.5 14.6957 38.3929 9.60859 34.6421 5.85786C30.8914 2.10714 25.8043 0 20.5 0V0Z" fill="#FF6A10"/>
<path d="M22.5 35.6H18.5V27.36C17.14 28.24 15.46 28.8 13.7 28.8C8.82002 28.8 4.90002 24.88 4.90002 20C4.90002 15.12 8.82002 11.2 13.7 11.2C15.46 11.2 17.14 11.76 18.5 12.64V4.39999H22.5V12.64C23.86 11.76 25.54 11.2 27.3 11.2C32.18 11.2 36.1 15.12 36.1 20C36.1 24.88 32.18 28.8 27.3 28.8C25.54 28.8 23.86 28.24 22.5 27.36V35.6ZM27.3 15.2C24.66 15.2 22.5 17.36 22.5 20C22.5 22.64 24.66 24.8 27.3 24.8C29.94 24.8 32.1 22.64 32.1 20C32.1 17.36 29.94 15.2 27.3 15.2ZM13.7 15.2C11.06 15.2 8.90002 17.36 8.90002 20C8.90002 22.64 11.06 24.8 13.7 24.8C16.34 24.8 18.5 22.64 18.5 20C18.5 17.36 16.34 15.2 13.7 15.2Z" fill="white"/>
</g>
<defs>
<clipPath id="clip0_17_119">
<rect width="40" height="40" fill="white" transform="translate(0.5)"/>
</clipPath>
</defs>
</svg>
