<svg width="65" height="40" viewBox="0 0 65 40" fill="none" xmlns="http://www.w3.org/2000/svg">
<g clip-path="url(#clip0_17_48)">
<path d="M9.62945 0.459656C15.9728 0.459656 19.5265 3.42616 19.5265 8.7183C19.5265 14.0104 15.9728 16.9787 9.62945 16.9787H7.66846V21.2614H0.497345V0.459656H9.62945ZM9.62945 11.0439C11.285 11.0439 12.2341 10.2183 12.2341 8.7183C12.2341 7.21825 11.285 6.39442 9.62945 6.39442H7.66846V11.0439H9.62945Z" fill="#41D87E"/>
<path d="M43.4674 10.8583C43.4674 17.068 38.9018 21.7175 32.0387 21.7175C25.1757 21.7175 20.6092 17.0706 20.6092 10.8583C20.6092 4.64598 25.1748 -0.00265503 32.0387 -0.00265503C38.9026 -0.00265503 43.4674 4.6504 43.4674 10.8583ZM36.175 10.8583C36.175 8.65464 34.5194 6.69672 32.0387 6.69672C29.5581 6.69672 27.9016 8.65729 27.9016 10.8583C27.9016 13.0593 29.5563 15.0181 32.0387 15.0181C34.5212 15.0181 36.175 13.0628 36.175 10.8583Z" fill="#41D87E"/>
<path d="M54.6021 0.459656C60.9454 0.459656 64.4991 3.42616 64.4991 8.7183C64.4991 14.0104 60.9454 16.9787 54.6021 16.9787H52.6411V21.2614H45.47V0.459656H54.6021ZM54.6021 11.0439C56.2576 11.0439 57.2067 10.2183 57.2067 8.7183C57.2067 7.21825 56.2576 6.39442 54.6021 6.39442H52.6411V11.0439H54.6021Z" fill="#41D87E"/>
<path d="M17.067 34.0201L18.0444 33.9689L17.4831 32.6633L17.067 34.0201Z" fill="#41D87E"/>
<path d="M4.29538 28.0898L4.91954 40L59.7795 37.1343L59.1597 25.2232L4.29538 28.0898Z" fill="#41D87E"/>
<path d="M14.6935 31.2623L13.0034 36.0355L11.5267 36.1124L9.34705 31.5425L10.8716 31.4629L12.1712 34.2765L13.1761 31.3427L14.6935 31.2623Z" fill="white"/>
<path d="M18.5057 35.0535L16.7209 35.1472L16.5164 35.8216L15.0468 35.8985L16.7289 31.1562L18.0754 31.0855L20.2498 35.6263L18.7864 35.7032L18.5057 35.0535ZM18.0445 33.9689L17.4823 32.6633L17.0671 34.0175L18.0445 33.9689Z" fill="white"/>
<path d="M23.2156 33.9106L22.6446 34.6531L22.6889 35.499L21.3148 35.5706L21.0714 30.929L22.4454 30.8574L22.5463 32.7756L24.0664 30.7726L25.6866 30.6842L24.0691 32.795L26.0389 35.3204L24.3506 35.4088L23.2156 33.9106Z" fill="white"/>
<path d="M31.5297 32.7853C31.6094 34.3074 30.8214 35.1719 29.4102 35.2435C27.999 35.3151 27.1243 34.5417 27.0446 33.0195L26.9189 30.6232L28.3142 30.5507L28.439 32.9948C28.4727 33.6295 28.8135 33.9883 29.3403 33.9601C29.867 33.9318 30.168 33.5411 30.1371 32.9055L30.0096 30.4623L31.404 30.3889L31.5297 32.7853Z" fill="white"/>
<path d="M37.5189 32.4724C37.5986 33.9945 36.8106 34.859 35.3994 34.9306C33.9882 35.0022 33.1135 34.2288 33.0339 32.7066L32.9081 30.3103L34.3034 30.2378L34.4318 32.6819C34.4645 33.3165 34.8054 33.6745 35.3322 33.6471C35.8589 33.6197 36.1599 33.2281 36.1289 32.5926L36.0006 30.1494L37.3958 30.076L37.5189 32.4724Z" fill="white"/>
<path d="M42.9194 30.9856L41.5383 31.0572L41.7153 34.5045L40.3342 34.577L40.1572 31.1297L38.7761 31.2021L38.7132 30.0071L42.8565 29.7905L42.9194 30.9856Z" fill="white"/>
<path d="M48.7873 31.8837C48.867 33.4058 48.079 34.2703 46.6669 34.3419C45.2548 34.4135 44.3819 33.6401 44.3022 32.1179L44.1765 29.7216L45.5709 29.6491L45.6993 32.0932C45.7329 32.7278 46.0738 33.0858 46.5996 33.0584C47.1255 33.031 47.4283 32.6394 47.3964 32.0039L47.2689 29.5607L48.6633 29.4873L48.7873 31.8837Z" fill="white"/>
<path d="M54.2772 30.6727L52.889 30.7452C52.8128 30.4756 52.6446 30.2652 52.2409 30.2864C51.9408 30.3023 51.7487 30.442 51.7602 30.6532C51.7717 30.8645 51.9125 30.9396 52.2029 30.9865L52.9766 31.1102C53.7734 31.2402 54.3648 31.5575 54.4082 32.3911C54.4587 33.3537 53.6999 33.9751 52.4516 34.0396C51.515 34.0891 50.4012 33.7638 50.1896 32.4741L51.5982 32.4008C51.6867 32.7384 51.9691 32.9311 52.4127 32.9126C52.7279 32.8958 52.9058 32.7632 52.8961 32.5723C52.889 32.4423 52.8279 32.3159 52.5163 32.2638L51.7274 32.1206C50.7996 31.9562 50.3357 31.6044 50.2968 30.8601C50.2454 29.8771 51.005 29.269 52.1303 29.2106C52.8615 29.1726 54.0851 29.3618 54.2772 30.6727Z" fill="white"/>
</g>
<defs>
<clipPath id="clip0_17_48">
<rect width="64" height="40" fill="white" transform="translate(0.5)"/>
</clipPath>
</defs>
</svg>
