<svg width="500" height="562" viewBox="0 0 500 562" fill="none" xmlns="http://www.w3.org/2000/svg">
<rect width="500" height="500" rx="30" fill="#F6F7F8"/>
<rect width="500" height="500" rx="30" fill="#F6F7F8"/>
<path d="M273.5 554.751C271.981 554.751 270.46 554.52 268.994 554.057C210.579 535.61 160.563 499.744 124.351 450.335C88.1402 400.924 69 342.429 69 281.171V128.793C69 120.529 75.6996 113.829 83.9634 113.829C127.183 113.829 166.477 90.1312 186.598 51.9825C189.187 47.0735 194.283 44 199.833 44H347.166C352.716 44 357.812 47.0725 360.402 51.9825C380.523 90.1312 419.817 113.829 462.947 113.829C471.211 113.829 478 120.529 478 128.793V281.171C478 342.429 458.86 400.924 422.649 450.334C386.437 499.743 336.421 535.609 278.006 554.056C276.54 554.52 275.019 554.751 273.5 554.751Z" fill="#465597"/>
<path d="M462.947 113.829C419.817 113.829 380.523 90.1312 360.402 51.9825C357.813 47.0725 352.717 44 347.167 44H273.5V554.751C275.019 554.751 276.54 554.52 278.006 554.057C336.421 535.61 386.437 499.744 422.649 450.335C458.86 400.924 478 342.429 478 281.171V128.793C478 120.529 471.211 113.829 462.947 113.829Z" fill="#003580"/>
<path d="M273.5 491.089C271.542 491.089 269.584 490.705 267.741 489.937C183.369 454.755 128.854 372.81 128.854 281.172V179.095C128.854 172.631 133.004 166.898 139.144 164.879C170.904 154.438 198.875 135.236 220.034 109.348C222.876 105.871 227.128 103.854 231.619 103.854H315.38C319.871 103.854 324.125 105.871 326.966 109.348C348.124 135.24 376.095 154.445 407.857 164.889C413.996 166.908 418.145 172.641 418.145 179.105V281.172C418.145 372.81 363.63 454.755 279.258 489.936C277.416 490.704 275.458 491.089 273.5 491.089Z" fill="#F5F5FF"/>
<path d="M407.858 164.889C376.096 154.445 348.125 135.24 326.967 109.348C324.125 105.871 319.871 103.854 315.38 103.854H273.5V491.089C275.458 491.089 277.416 490.705 279.259 489.937C363.631 454.755 418.146 372.81 418.146 281.172V179.105C418.146 172.641 413.997 166.908 407.858 164.889Z" fill="#E2E7FA"/>
<g opacity="0.15">
<path d="M189.85 561.667C271.505 561.667 337.699 551.642 337.699 539.275C337.699 526.909 271.505 516.884 189.85 516.884C108.195 516.884 42 526.909 42 539.275C42 551.642 108.195 561.667 189.85 561.667Z" fill="#314B90"/>
</g>
<path d="M252.325 495.044C195.444 498.639 166.876 447.665 166.876 447.665L178.408 436.208C190.953 445.875 202.962 449.888 213.539 450.216C216.463 450.306 219.267 450.127 221.938 449.694C231.53 448.172 239.451 443.607 244.792 437.909C250.595 431.748 253.369 424.259 251.997 417.889C250.953 413.071 247.342 410.222 243.3 412.056C235.811 415.458 241.719 424.289 236.721 426.885C232.305 429.182 222.758 426.989 218.671 419.441C218.208 418.59 217.776 417.71 217.388 416.845V416.83C217 415.995 216.672 415.144 216.358 414.309C206.766 388.009 229.769 358.741 266.81 362.858C291.051 365.558 307.073 385.592 312.503 409.312C320.947 446.143 303.821 491.792 252.325 495.044Z" fill="#FAA327"/>
<path d="M244.792 437.924C250.595 431.763 253.369 424.274 251.997 417.904C250.953 413.086 247.342 410.237 243.3 412.072C235.811 415.473 241.719 424.304 236.721 426.9C232.305 429.197 222.758 427.004 218.671 419.456C218.208 418.605 217.776 417.725 217.388 416.86V416.845C217 416.01 216.672 415.159 216.358 414.324C220.282 418.561 227.562 425.214 230.142 419.292C233.35 411.907 237.169 392.768 251.49 397.378C263.812 401.375 261.589 427.571 244.792 437.924Z" fill="#EF7F25"/>
<path d="M252.325 495.044C195.444 498.639 166.876 447.665 166.876 447.665L178.408 436.208C190.953 445.875 202.962 449.888 213.539 450.216C216.463 450.305 219.267 450.126 221.938 449.694C230.694 457.302 247.85 467.297 273.18 460.643C304.104 452.528 311.474 427.616 312.518 409.312C320.947 446.143 303.821 491.792 252.325 495.044Z" fill="#FF9343"/>
<path d="M314.562 427.511C314.562 459.704 295.557 492.314 252.325 495.044C195.444 498.639 166.876 447.665 166.876 447.665L178.408 436.208C190.953 445.875 202.962 449.888 213.539 450.216C222.818 459.823 236.96 476.367 266.169 469.609C279.58 466.506 288.202 459.689 293.065 451.141C307.565 439.863 311.757 422.812 312.518 409.327C312.548 409.446 312.563 409.55 312.593 409.67C312.712 410.147 312.816 410.625 312.906 411.117C313.04 411.803 313.174 412.489 313.294 413.175C313.368 413.533 313.428 413.891 313.473 414.235C313.577 414.831 313.667 415.443 313.756 416.04C313.861 416.756 313.95 417.472 314.025 418.203C314.04 418.277 314.055 418.337 314.055 418.397C314.129 419.023 314.189 419.665 314.249 420.306L314.278 420.619C314.353 421.38 314.398 422.156 314.442 422.917C314.487 423.692 314.517 424.453 314.532 425.214C314.547 425.99 314.562 426.751 314.562 427.511Z" fill="#F9D3B7"/>
<path d="M252.325 495.044C195.444 498.639 166.876 447.665 166.876 447.665L178.408 436.208C190.953 445.875 202.962 449.888 213.539 450.216C222.818 459.823 236.96 476.367 266.154 469.609C314.562 458.406 300.479 398.914 273.284 384.13C251.057 372.062 212.584 386.159 217.403 416.83C205.319 389.919 228.576 358.591 266.825 362.843C328.719 369.75 336.998 489.703 252.325 495.044Z" fill="white"/>
<g opacity="0.15">
<path d="M314.562 427.511C314.562 459.704 295.557 492.314 252.325 495.044C195.444 498.639 166.876 447.665 166.876 447.665L178.408 436.208C190.953 445.875 202.962 449.888 213.539 450.216C222.818 459.823 236.96 476.367 266.169 469.609C279.58 466.506 288.202 459.689 293.065 451.141C307.565 439.863 311.757 422.812 312.518 409.327C312.548 409.446 312.563 409.55 312.593 409.67C312.712 410.147 312.816 410.625 312.906 411.117C313.04 411.803 313.174 412.489 313.294 413.175C313.368 413.533 313.428 413.891 313.473 414.235C313.577 414.831 313.667 415.443 313.756 416.04C313.861 416.756 313.95 417.472 314.025 418.203C314.04 418.277 314.055 418.337 314.055 418.397C314.129 419.023 314.189 419.665 314.249 420.306L314.278 420.619C314.353 421.38 314.398 422.156 314.442 422.917C314.487 423.692 314.517 424.453 314.532 425.214C314.547 425.99 314.562 426.751 314.562 427.511Z" fill="#003580"/>
</g>
<path d="M162.49 415.398C162.043 432.419 160.7 442.653 160.208 453.975C158.821 473.473 163.49 517.077 160.745 531.652C159.492 538.29 148.333 542.945 122.869 542.945C108.488 542.945 100.477 542.84 98.6276 533.368C96.0916 520.359 108.056 516.332 108.056 516.332C108.056 516.332 92.9738 469.788 89.856 432.494" fill="#FFAD40"/>
<path d="M161.61 514.899C161.685 521.866 161.476 527.773 160.745 531.652C159.492 538.29 148.333 542.945 122.869 542.945C108.488 542.945 100.477 542.855 98.6127 533.368C96.0767 520.359 108.056 516.332 108.056 516.332C108.056 516.332 108.041 516.302 108.026 516.242C108.026 516.227 108.026 516.197 108.011 516.167C107.041 513.139 92.8694 468.505 89.856 432.494L162.505 415.383C162.058 432.404 160.715 442.638 160.223 453.961C159.194 468.296 161.446 495.626 161.61 514.899Z" fill="#FAA327"/>
<path d="M193.698 314.39C189.626 321.312 187.925 329.233 187.552 337.796C179.303 338.288 170.143 338.274 160.163 337.453C141.934 335.946 127.21 330.695 115.962 324.758C126.733 306.633 136.563 294.386 136.563 294.386L203.41 290.701C203.41 290.701 204.215 296.489 193.698 314.39Z" fill="#F9D3B7"/>
<path d="M211.48 334.708C198.621 337.319 181.212 339.183 160.163 337.453C139.741 335.767 123.719 329.383 112.054 322.61C119.199 314.062 133.55 304.246 161.476 305.962C198.129 308.214 208.586 326.205 211.48 334.708Z" fill="#EA5A1B"/>
<path d="M161.61 514.899C161.67 521.866 161.476 527.788 160.745 531.652C159.492 538.29 148.333 542.96 122.869 542.96C108.488 542.96 100.209 539.066 98.6127 533.382C98.0608 531.428 97.9712 529.638 98.195 528.027C103.491 530.921 117.424 537.336 142.545 532.592C159.969 529.295 150.929 492.732 148.93 485.153C145.365 471.713 108.056 480.395 92.5412 453.259C91.3627 446.263 90.408 439.252 89.856 432.524L162.505 415.413C162.058 432.449 160.715 442.668 160.223 453.99C159.194 468.296 161.446 495.626 161.61 514.899Z" fill="#EF7F25"/>
<path d="M160.745 531.652C159.492 538.29 148.334 542.96 122.869 542.96C108.488 542.96 100.209 539.066 98.6127 533.382C98.4188 532.711 98.2846 532.055 98.21 531.413C98.1652 531.13 98.1503 530.861 98.1204 530.593C98.0459 529.698 98.0906 528.847 98.195 528.027C103.491 530.921 117.424 537.336 142.545 532.592C149.631 531.249 152.346 524.402 152.928 516.242C156.374 516.108 159.238 515.615 161.625 514.914C161.67 521.866 161.476 527.788 160.745 531.652Z" fill="#F9D3B7"/>
<path d="M160.745 531.652C159.492 538.29 148.334 542.945 122.869 542.945C108.488 542.945 100.477 542.855 98.6127 533.368C96.0767 520.359 108.056 516.332 108.056 516.332C108.056 516.332 108.041 516.302 108.026 516.242C108.026 516.212 108.011 516.197 108.011 516.167C116.29 513.631 127.21 513.408 142.202 515.571C150.855 516.809 157.12 516.227 161.625 514.899C161.685 521.881 161.476 527.788 160.745 531.652Z" fill="#FFF3E9"/>
<path d="M160.745 531.652C159.492 538.29 148.334 542.945 122.869 542.945C108.488 542.945 100.477 542.855 98.6127 533.368C98.2249 531.413 98.1801 529.668 98.3591 528.102C99.3885 519.226 108.041 516.332 108.041 516.332C108.041 516.332 108.026 516.302 108.011 516.242C108.011 516.212 107.996 516.197 107.996 516.167C116.275 513.631 127.195 513.408 142.187 515.571C147.11 516.272 151.257 516.391 154.748 516.123C154.868 516.108 155.002 516.108 155.121 516.093C155.569 516.048 155.986 516.003 156.419 515.959C156.523 515.944 156.628 515.929 156.732 515.929C157.239 515.869 157.747 515.794 158.224 515.705C158.433 515.675 158.627 515.63 158.836 515.601C158.91 515.586 158.97 515.571 159.044 515.556C159.283 515.511 159.537 515.466 159.761 515.407C160.029 515.347 160.312 515.287 160.566 515.213C160.626 515.198 160.685 515.183 160.745 515.168C161.058 515.093 161.342 515.004 161.64 514.929C161.685 521.881 161.476 527.788 160.745 531.652Z" fill="white"/>
<g opacity="0.15">
<path d="M160.745 531.652C159.492 538.29 148.334 542.945 122.869 542.945C108.488 542.945 100.477 542.855 98.6127 533.368C98.2249 531.413 98.1801 529.668 98.3591 528.102C103.864 531.055 121.601 537.962 142.665 532.86C149.676 531.16 152.51 523.134 152.913 516.212C154.853 516.138 156.613 515.959 158.194 515.675C158.403 515.645 158.597 515.601 158.806 515.571C158.88 515.556 158.94 515.541 159.015 515.526C159.253 515.481 159.507 515.436 159.731 515.377C159.999 515.317 160.283 515.257 160.536 515.183C160.596 515.168 160.656 515.153 160.715 515.138C161.029 515.064 161.312 514.974 161.61 514.899C161.685 521.881 161.476 527.788 160.745 531.652Z" fill="#003580"/>
</g>
<path d="M189.835 434.896C181.242 461.882 118.244 468.863 98.2099 438.849C93.8987 432.39 91.2135 425.348 89.8262 417.964C97.1657 428.765 112.188 442.295 141.725 444.025C165.325 445.413 181.242 439.505 189.835 434.896Z" fill="#F9D3B7"/>
<path d="M107.757 458.585C86.604 443.13 80.8308 420.515 84.2022 393.425C86.1266 377.955 94.4507 355.176 105.49 334.365C105.49 334.365 113.292 303.008 161.491 305.962C209.69 308.916 212.569 339.124 212.569 339.124C221.967 373.644 221.639 390.695 222.206 396.483C225.428 429.421 220.461 440.893 218.193 445.965C218.193 445.965 208.213 463.866 188.134 467.551C138.756 476.576 107.757 458.585 107.757 458.585Z" fill="#F87B38"/>
<path d="M218.178 445.95C218.178 445.95 208.213 463.851 188.134 467.536C138.771 476.576 107.772 458.585 107.772 458.585C93.6899 448.307 86.4399 434.836 84.1425 419.008C82.9939 411.042 83.0834 402.48 84.2171 393.425C86.1415 377.955 94.4656 355.176 105.49 334.365C105.49 334.365 113.292 303.008 161.491 305.962C209.69 308.916 212.569 339.124 212.569 339.124C215.448 349.671 217.403 358.592 218.76 366.065C221.848 383.027 221.803 392.47 222.191 396.483C225.413 429.406 220.446 440.878 218.178 445.95Z" fill="#FFAD40"/>
<path d="M218.178 445.95C218.178 445.95 208.213 463.851 188.134 467.536C138.771 476.576 107.772 458.585 107.772 458.585C93.6899 448.307 86.4399 434.836 84.1425 419.008C84.1425 419.008 104.759 448.903 146.051 445.95C191.729 442.698 201.112 414.264 202.291 396.468C203.455 378.895 199.039 361.098 199.039 361.098L218.775 366.05C221.863 383.012 221.818 392.455 222.206 396.468C225.413 429.406 220.446 440.878 218.178 445.95Z" fill="#FF9343"/>
<path d="M192.923 424.006C192.296 427.154 191.446 430.227 190.297 433.195C179.87 460.36 118.662 469.49 98.2099 438.849C95.9424 435.448 94.1225 431.882 92.7053 428.198C102.342 436.716 120.124 447.815 146.036 445.95C170.919 444.175 185.046 434.926 192.923 424.006Z" fill="#F9D3B7"/>
<path d="M213.763 338.796C219.596 356.026 223.713 374.061 224.429 392.291C225.548 408.148 227.278 424.692 222.937 440.311C222.281 442.593 221.401 444.861 220.446 446.979C219.879 448.232 218.402 448.799 217.149 448.232C215.896 447.665 215.344 446.203 215.911 444.95C216.821 442.936 217.567 440.997 218.163 438.923C221.102 428.332 221.013 417.054 220.446 406.104C219.551 392.798 218.507 379.223 216.314 365.976C214.911 357.129 213.166 348.298 211.361 339.452C211.078 338.005 213.226 337.289 213.763 338.796Z" fill="#512717"/>
<path d="M221.803 518.778C221.729 525.118 222.191 529.191 220.759 533.293C217.522 542.527 208.765 544.526 183.211 543.765C169.591 543.362 165.489 537.843 164.31 533.144C162.416 525.551 166.473 518.092 166.473 518.092C166.473 518.092 166.473 518.092 166.473 518.077C166.369 517.062 161.297 469.803 160.432 469.579C159.044 469.236 143.172 470.146 124.033 465.059C124.033 465.059 167.965 467.729 198.054 448.172C215.985 436.522 223.802 415.756 223.802 415.756C222.266 435.686 223.071 486.973 221.878 515.511C221.833 516.66 221.803 517.749 221.803 518.778Z" fill="#F87B38"/>
<path d="M223.802 415.756C222.922 427.108 222.818 448.65 222.654 470.37C222.534 486.75 222.4 503.234 221.878 515.511C221.833 516.66 221.803 517.749 221.803 518.778C221.729 525.118 222.191 529.191 220.759 533.293C217.522 542.527 208.765 544.526 183.211 543.765C169.591 543.362 165.489 537.843 164.31 533.144C162.416 525.551 166.473 518.092 166.473 518.092C166.473 518.092 166.473 518.092 166.473 518.077C166.399 517.316 163.535 490.613 161.745 477.157C161.148 472.652 160.656 469.639 160.447 469.579C159.059 469.236 143.187 470.146 124.047 465.059C124.047 465.059 167.995 467.729 198.069 448.172C215.985 436.522 223.802 415.756 223.802 415.756Z" fill="#FAA327"/>
<path d="M223.802 415.756C222.922 427.108 222.818 448.65 222.654 470.37C200.889 462.135 171.426 473.055 161.73 477.157C161.133 472.652 160.641 469.639 160.432 469.579C159.044 469.236 143.172 470.146 124.033 465.059C124.033 465.059 167.98 467.729 198.054 448.172C215.985 436.522 223.802 415.756 223.802 415.756Z" fill="#EF7F25"/>
<path d="M220.744 533.293C217.507 542.527 208.75 544.526 183.196 543.765C169.576 543.363 165.474 537.843 164.296 533.144C162.401 525.551 166.459 518.092 166.459 518.092C166.459 518.092 166.459 518.092 166.459 518.077C181.973 511.931 203.962 509.261 221.788 518.778C221.729 525.118 222.191 529.206 220.744 533.293Z" fill="white"/>
<g opacity="0.15">
<path d="M220.744 533.293C217.507 542.527 208.75 544.526 183.196 543.765C169.576 543.362 165.474 537.843 164.296 533.144C163.55 530.16 163.729 527.207 164.206 524.715C164.236 524.85 164.266 524.984 164.296 525.118C165.474 529.817 169.576 535.322 183.196 535.74C208.75 536.515 217.507 534.516 220.744 525.267C221.475 523.194 221.714 521.135 221.774 518.778C221.774 518.778 221.774 518.778 221.788 518.778C221.714 525.118 222.176 529.206 220.744 533.293Z" fill="#003580"/>
</g>
<path d="M136.578 294.386C136.578 294.386 62.9593 386.01 98.2099 438.849C118.662 469.49 179.87 460.36 190.297 433.195C204.394 396.483 175.528 345.285 193.698 314.39C204.23 296.489 203.425 290.701 203.425 290.701" fill="#FFF3E9"/>
<path d="M192.923 424.006C192.296 427.154 191.446 430.227 190.297 433.195C179.87 460.36 118.662 469.49 98.2099 438.849C95.9424 435.448 94.1225 431.882 92.7053 428.198C102.342 436.716 120.124 447.815 146.036 445.95C170.919 444.175 185.046 434.926 192.923 424.006Z" fill="#F9D3B7"/>
<path d="M199.099 524.536C198.547 529.265 198.666 534.546 200.933 538.768C201.649 540.051 202.589 541.065 203.648 541.736L200.337 545.436C195.175 539.588 196.637 531.16 199.099 524.536Z" fill="#512717"/>
<path d="M222.833 448.247C146.036 473.503 91.8401 448.948 91.8401 448.948C91.8401 448.948 66.3308 392.544 100.179 333.321C123.436 292.625 209.616 313.286 219.625 328.249C229.247 375.135 228.128 444.189 222.833 448.247Z" fill="white"/>
<path d="M222.848 448.232C146.051 473.488 91.8401 448.933 91.8401 448.933C91.8401 448.933 85.6343 435.224 83.4116 414.22C82.1138 402.047 82.1585 387.427 85.515 371.6C88.1256 359.367 92.6904 346.404 100.179 333.306C123.436 292.61 209.616 313.271 219.625 328.234C221.774 338.706 223.385 350.282 224.548 361.978C225.906 375.792 226.622 389.784 226.816 402.375C227.174 426.944 225.548 446.159 222.848 448.232Z" fill="white"/>
<path d="M205.692 319.925C196.697 319.343 165.698 321.834 149.512 326.503C128.418 315.464 115.947 327.861 115.947 316.523C115.947 305.201 133.177 299.398 158.97 299.398C184.763 299.398 205.692 308.587 205.692 319.925Z" fill="#F9D3B7"/>
<g opacity="0.15">
<path d="M226.801 402.39C199.173 439.654 163.147 423.349 163.147 423.349L162.863 428.093C162.595 432.389 160.745 436.432 157.672 439.446L149.497 449.366C146.379 451.932 142.232 450.947 140.561 448.56L130.283 434.001L126.554 403.315C111.576 410.341 93.7347 409.953 83.4116 414.235C82.1138 402.062 82.1585 387.442 85.515 371.615L218.283 362.47L224.548 361.993C225.891 375.792 226.607 389.799 226.801 402.39Z" fill="#003580"/>
</g>
<path d="M279.416 456.168L272.762 454.483C272.762 454.483 272.449 438.476 266.02 435.463C264.558 434.776 262.544 434.06 260.276 433.583C255.473 432.554 249.565 432.569 245.582 436.238C242.703 438.909 240.838 443.488 241.152 450.992C225.995 453.931 222.907 450.753 222.907 450.753C222.907 450.753 221.49 441.534 224.921 434.239L224.951 434.195C226.428 431.047 228.83 428.272 232.649 426.781C242.882 422.738 272.091 424.409 276.387 436.671C276.895 438.133 277.327 439.535 277.685 440.893C280.042 449.799 279.416 456.168 279.416 456.168Z" fill="#D99D74"/>
<path d="M279.416 456.168L272.762 454.483C272.762 454.483 272.449 438.476 266.019 435.463C264.558 434.776 262.544 434.06 260.276 433.583L260.097 432.36C260.097 432.36 271.002 432.897 277.67 440.907C280.042 449.798 279.416 456.168 279.416 456.168Z" fill="#A55D2D"/>
<path d="M241.137 450.992C225.98 453.931 222.892 450.753 222.892 450.753C222.892 450.753 221.475 441.534 224.906 434.239L224.936 434.195C224.936 434.195 224.638 440.46 231.023 441.594C236.87 442.638 245.329 436.402 245.582 436.223C242.688 438.909 240.823 443.503 241.137 450.992Z" fill="#A55D2D"/>
<path d="M281.057 458.496L270.927 455.93L270.898 454.513C270.778 448.769 269.137 438.968 265.229 437.133C261.589 435.433 253.31 433.15 247.984 436.701C244.389 439.103 242.718 443.876 243.016 450.902L243.091 452.499L241.51 452.797C226.144 455.781 222.206 452.678 221.58 452.036L221.162 451.604L221.072 451.022C220.938 450.186 218.089 430.51 231.947 425.035C239.958 421.873 257.785 422.081 268.735 427.079C273.687 429.346 276.85 432.36 278.133 436.03C282.101 447.337 281.31 455.945 281.28 456.318L281.057 458.496ZM274.552 453.021L277.611 453.796C277.581 450.679 277.148 444.562 274.597 437.298C273.657 434.612 271.151 432.33 267.168 430.495C257.188 425.93 240.48 425.692 233.29 428.526C223.594 432.345 224.28 446.054 224.623 449.62C225.891 450.127 229.784 451.111 239.227 449.455C239.212 441.907 241.45 436.581 245.896 433.613C252.594 429.152 262.186 431.614 266.795 433.777C273.076 436.716 274.314 448.665 274.552 453.021Z" fill="#CA7841"/>
<g opacity="0.7">
<path d="M231.992 431.599C232.35 433.762 238.422 433.329 240.928 432.449C243.434 431.569 242.166 429.898 245.97 429.719C249.774 429.54 250.624 428.421 247.701 427.989C240.555 426.915 231.619 429.421 231.992 431.599Z" fill="white"/>
</g>
<path d="M304.418 466.521V533.502C304.418 537.127 301.628 540.155 298.003 540.439L224.026 546.272L220.625 521.612L210.212 446.054L290.335 451.454C291.663 451.544 292.931 451.798 294.139 452.215C300.136 454.229 304.418 459.898 304.418 466.521Z" fill="#C97339"/>
<path d="M304.418 466.521V490.166L281.698 511.99C279.371 514.213 276.313 515.302 273.285 515.153L271.3 495.864C271.3 495.864 287.725 489.927 295.497 479.604C296.138 478.754 296.72 477.888 297.227 476.979C302.658 467.297 298.734 458.316 294.139 452.215C300.136 454.229 304.418 459.898 304.418 466.521Z" fill="#A55D2D"/>
<path d="M304.418 471.668V481.439L281.698 503.264C279.147 505.71 275.701 506.769 272.375 506.337L271.286 495.85C271.286 495.85 290.514 488.898 297.213 476.964C298.302 475.024 299.018 473.085 299.435 471.22L304.418 471.668Z" fill="#A55D2D"/>
<path d="M304.418 480.395V490.166L281.698 511.991C279.371 514.213 276.313 515.302 273.285 515.153C271.3 515.064 269.331 514.452 267.571 513.303L227.502 486.974V473.548L295.497 479.619L304.418 480.395Z" fill="#A55D2D"/>
<path d="M304.418 484.497V533.502C304.418 537.127 301.628 540.155 298.003 540.439L224.026 546.271L220.625 521.612L226.846 516.167C226.846 516.167 247.283 534.561 276.432 530.175C299.018 526.789 296.646 497.013 286.114 507.739C290.201 497.953 301.688 486.735 304.418 484.497Z" fill="#A55D2D"/>
<g opacity="0.3">
<path d="M304.418 466.521V468.356C302.538 462.673 297.377 458.466 291.096 458.048L211.122 452.648L210.212 446.054L290.335 451.454C298.257 451.991 304.418 458.57 304.418 466.521Z" fill="white"/>
</g>
<path d="M227.517 464.821V541.99C227.517 544.392 225.563 546.346 223.161 546.346H194.221C191.804 546.346 189.865 544.392 189.865 541.99V464.821C189.865 454.423 198.293 445.995 208.691 445.995C219.088 445.98 227.517 454.408 227.517 464.821Z" fill="#C97339"/>
<path d="M227.517 518.167V541.99C227.517 544.392 225.563 546.346 223.161 546.346H194.221C191.804 546.346 189.865 544.392 189.865 541.99V520.777C195.593 526.61 210.824 538.156 227.517 518.167Z" fill="#A55D2D"/>
<g opacity="0.3">
<path d="M227.517 464.821V466.641C225.339 458.645 218.029 452.752 209.347 452.752C198.949 452.752 190.506 461.196 190.506 471.578V544.272C190.088 543.616 189.85 542.825 189.85 541.975V464.806C189.85 454.408 198.278 445.979 208.676 445.979C219.088 445.979 227.517 454.408 227.517 464.821Z" fill="white"/>
</g>
<path d="M224.399 548.793H192.938C189.879 548.793 187.403 546.301 187.403 543.258V459.391C187.403 450.664 194.504 443.563 203.231 443.563H214.091C222.818 443.563 229.919 450.664 229.919 459.391V543.258C229.949 546.301 227.457 548.793 224.399 548.793ZM203.246 448.411C197.204 448.411 192.281 453.334 192.281 459.376V543.243C192.281 543.616 192.58 543.915 192.953 543.915H224.414C224.787 543.915 225.085 543.616 225.085 543.243V459.376C225.085 453.334 220.162 448.411 214.121 448.411H203.246Z" fill="#CA7841"/>
<path d="M227.517 464.821V478.247L267.586 504.577C272.016 507.5 277.894 506.948 281.713 503.279L304.433 481.454V471.683" fill="#C97339"/>
<path d="M304.418 471.668V481.439L281.698 503.264C279.147 505.71 275.701 506.769 272.375 506.337L271.286 495.85C271.286 495.85 290.514 488.898 297.213 476.964C298.302 475.024 299.018 473.085 299.435 471.22L304.418 471.668Z" fill="#A55D2D"/>
<g opacity="0.3">
<path d="M304.418 481.439C296.959 488.6 281.698 503.264 281.698 503.264C277.864 506.948 272.002 507.486 267.571 504.577L227.502 478.247V464.821L228.367 464.895V471.28L268.973 499.43C281.922 507.65 302.314 479.455 304.418 481.439Z" fill="white"/>
</g>
<path d="M273.836 508.947C271.211 508.947 268.556 508.186 266.213 506.65L225.026 479.589V464.821C225.026 463.448 226.144 462.329 227.517 462.329C228.889 462.329 230.008 463.448 230.008 464.821V476.904L268.943 502.488C272.434 504.785 276.984 504.367 279.997 501.473L301.941 480.38V471.668C301.941 470.295 303.06 469.177 304.433 469.177C305.805 469.177 306.924 470.295 306.924 471.668V482.498L283.443 505.054C280.758 507.62 277.312 508.947 273.836 508.947Z" fill="#CA7841"/>
<path d="M271.3 495.864L276.745 496.237C279.446 496.416 281.549 498.669 281.549 501.369V511.215C281.549 513.87 279.52 516.093 276.865 516.347L271.226 516.854C268.183 517.137 265.557 514.706 265.617 511.633L265.811 500.907C265.856 497.968 268.362 495.671 271.3 495.864Z" fill="#FFAF2E"/>
<path d="M281.549 506.665V511.215C281.549 513.87 279.52 516.093 276.865 516.332L271.226 516.854C268.168 517.122 265.557 514.706 265.602 511.633L265.676 507.545C266.02 510.23 268.451 512.229 271.241 511.976L276.88 511.454C279.431 511.23 281.4 509.186 281.549 506.665Z" fill="#FF9331"/>
<g opacity="0.5">
<path d="M281.28 499.773L271.688 499.116C270.226 499.027 268.973 500.161 268.943 501.623L268.675 516.436C266.855 515.63 265.572 513.796 265.602 511.647L265.796 500.922C265.855 497.983 268.347 495.685 271.286 495.879L276.731 496.252C278.894 496.387 280.654 497.819 281.28 499.773Z" fill="white"/>
</g>
<path d="M270.763 518.733C269.003 518.733 267.288 518.062 265.99 516.854C264.528 515.496 263.722 513.587 263.752 511.588L263.946 500.862C263.976 498.923 264.781 497.132 266.214 495.82C267.646 494.507 269.495 493.865 271.42 493.985L276.865 494.358C280.535 494.611 283.399 497.669 283.399 501.354V511.2C283.399 514.855 280.654 517.853 277.029 518.181L271.39 518.689C271.181 518.718 270.972 518.733 270.763 518.733ZM270.942 497.714C270.122 497.714 269.346 498.013 268.735 498.579C268.063 499.191 267.69 500.026 267.675 500.936L267.482 511.662C267.467 512.602 267.84 513.482 268.526 514.124C269.212 514.765 270.122 515.078 271.062 514.989L276.701 514.482C278.401 514.333 279.684 512.915 279.684 511.215V501.369C279.684 499.654 278.342 498.207 276.626 498.087L271.181 497.714C271.092 497.714 271.017 497.714 270.942 497.714Z" fill="#FFAF2E"/>
<path d="M274.597 506.083C275.619 506.083 276.447 504.981 276.447 503.622C276.447 502.262 275.619 501.16 274.597 501.16C273.576 501.16 272.747 502.262 272.747 503.622C272.747 504.981 273.576 506.083 274.597 506.083Z" fill="#003580"/>
<g opacity="0.3">
<path d="M280.713 468.431C281.131 470.683 279.043 472.981 269.361 473.443C263.096 473.742 257.606 472.638 258.009 468.431C258.411 464.224 263.17 462.673 269.361 463.418C277.805 464.463 280.206 465.701 280.713 468.431Z" fill="white"/>
</g>
<g opacity="0.3">
<path d="M281.504 476.471C281.489 477.501 280.758 478.5 276.432 478.709C273.643 478.843 271.181 478.351 271.36 476.471C271.539 474.592 273.643 474.413 276.432 474.234C280.341 473.98 281.519 474.95 281.504 476.471Z" fill="white"/>
</g>
<path d="M134.937 322.491C134.937 322.491 143.53 334.708 149.572 334.395C155.613 334.082 163.878 326.16 163.878 326.31C163.878 326.459 168.965 335.216 168.965 335.216C168.965 335.216 155.882 344.151 148.617 341.809C141.367 339.482 131.67 333.052 131.67 333.052" fill="#465597"/>
<path d="M151.287 343.748C150.183 343.748 149.124 343.614 148.14 343.301C140.77 340.929 131.208 334.619 130.805 334.35C130.089 333.873 129.895 332.918 130.373 332.202C130.85 331.486 131.805 331.292 132.521 331.769C132.61 331.829 142.128 338.109 149.094 340.347C153.913 341.898 162.67 337.363 166.876 334.738C165.146 331.769 164.072 329.905 163.4 328.726C160.566 331.098 154.659 335.693 149.646 335.961C142.963 336.304 134.579 324.728 133.655 323.4C133.162 322.699 133.326 321.73 134.027 321.237C134.729 320.745 135.698 320.909 136.191 321.61C139.323 326.056 145.678 333.052 149.482 332.858C151.586 332.754 155.509 331.396 162.311 325.578C162.968 325.012 163.579 324.489 164.504 324.907C164.877 325.071 165.146 325.385 165.295 325.743C165.653 326.444 168.517 331.411 170.292 334.454C170.695 335.156 170.501 336.066 169.83 336.513C169.353 336.841 159.119 343.748 151.287 343.748Z" fill="#104692"/>
<path d="M147.916 333.351L150.944 333.321C152.332 333.306 153.614 334.007 154.345 335.186L156.285 338.303C157.045 339.527 157.09 341.048 156.389 342.316L154.629 345.509C153.868 346.896 152.361 347.687 150.78 347.537L146.976 347.164C145.454 347.015 144.157 346.016 143.634 344.584L142.366 341.138C141.904 339.87 142.113 338.467 142.918 337.393L144.783 334.932C145.544 333.947 146.693 333.366 147.916 333.351Z" fill="#003580"/>
<g opacity="0.5">
<path d="M156.896 340.422L155.33 337.915C154.599 336.737 153.301 336.036 151.914 336.051L148.886 336.081C147.662 336.095 146.514 336.677 145.783 337.647L143.918 340.108C143.187 341.078 142.933 342.316 143.247 343.495L142.381 341.123C141.919 339.855 142.128 338.452 142.933 337.378L144.798 334.917C145.544 333.947 146.693 333.366 147.901 333.351L150.929 333.321C152.317 333.306 153.6 334.007 154.33 335.186L156.285 338.303C156.702 338.945 156.896 339.691 156.896 340.422Z" fill="white"/>
</g>
<path d="M156.389 342.301L154.629 345.509C153.868 346.896 152.361 347.687 150.78 347.538L146.991 347.165C145.469 347.015 144.172 346.016 143.649 344.584L142.381 341.138C142.083 340.302 142.068 339.392 142.337 338.572C142.918 339.885 144.157 340.795 145.589 340.929L149.378 341.287C150.944 341.436 152.451 340.645 153.227 339.273L154.957 336.155L156.3 338.303C157.046 339.512 157.09 341.048 156.389 342.301Z" fill="#465597"/>
<path d="M129.925 386.145C127.493 400.033 127.523 422.275 127.523 422.275C127.24 426.542 128.538 430.749 131.178 434.12L141.054 446.711C142.71 448.829 145.962 448.739 147.498 446.532L156.508 433.658C158.97 430.152 160.044 425.856 159.522 421.604C159.522 421.604 154.733 393.499 156.881 379.327C157.926 372.42 151.362 375.374 148.93 376.314L132.491 382.654C131.029 383.221 130.731 381.535 129.925 386.145Z" fill="#F9572B"/>
<path d="M156.508 433.658L147.483 446.532C145.932 448.739 142.695 448.829 141.039 446.696L134.937 438.909L131.178 434.105C128.538 430.749 127.24 426.527 127.523 422.275C127.523 422.275 127.508 413.787 128.075 404.031C128.418 397.989 129 391.455 129.925 386.145C130.731 381.535 131.029 383.221 132.491 382.654L148.93 376.314C151.377 375.374 157.926 372.42 156.881 379.327C154.718 393.484 159.507 421.589 159.507 421.589C160.044 425.856 158.97 430.152 156.508 433.658Z" fill="#F9572B"/>
<path d="M156.508 433.658L147.483 446.532C145.932 448.739 142.695 448.829 141.039 446.696L134.937 438.909C142.053 444.771 147.841 442.698 151.392 431.614C155.3 419.426 135.355 412.519 128.672 404.881L128.075 404.016C128.418 397.974 129 391.44 129.925 386.13C130.731 381.52 131.029 383.206 132.491 382.639L148.93 376.299C151.377 375.359 157.926 372.405 156.881 379.312C154.718 393.469 159.507 421.574 159.507 421.574C160.044 425.856 158.97 430.152 156.508 433.658Z" fill="#DD330B"/>
<path d="M232.261 369.123C231.828 371.51 231.261 373.942 230.575 376.418C225.205 395.707 211.823 416.487 183.525 419.993C158.045 423.155 132.909 406.328 112.277 377.477C124.599 349.984 178.452 372.51 178.452 372.51C178.452 372.51 179.541 371.779 181.227 370.153C183.346 368.124 186.389 364.738 189.387 359.71C191.386 356.369 193.385 352.296 195.056 347.433L207.826 310.944C207.826 310.944 225.518 316.807 232.664 345.315C233.872 350.178 234.111 359.099 232.261 369.123Z" fill="#FAA327"/>
<path d="M232.261 369.123C231.828 371.51 231.261 373.942 230.575 376.418C225.205 395.707 211.823 416.487 183.525 419.993C158.045 423.156 132.909 406.328 112.277 377.477C124.599 349.984 178.452 372.51 178.452 372.51C178.452 372.51 179.541 371.779 181.227 370.153L181.451 372.376C181.451 372.376 166.071 384.504 169.994 395.96C176.618 415.279 215.18 407.089 215.016 388.725C214.822 369.004 196.175 366.483 195.026 366.349L232.261 369.123Z" fill="#EF7F25"/>
<path d="M230.575 376.433C221.132 366.349 199.591 361.53 189.387 359.74C191.386 356.399 193.385 352.326 195.056 347.463L197.219 335.663L207.826 310.974C207.826 310.974 225.518 316.837 232.664 345.345C234.17 351.327 234.155 363.559 230.575 376.433Z" fill="white"/>
<path d="M228.158 332.456C223.31 331.009 216.224 327.205 212.346 328.219C208.258 331.486 202.574 334.037 197.174 336.036L197.249 335.633L205.215 317.076C208.243 315.942 211.346 315.062 214.345 314.674C218.462 317.821 223.832 323.281 228.158 332.456Z" fill="white"/>
<g opacity="0.15">
<path d="M214.33 314.689C211.331 315.062 208.228 315.942 205.2 317.09L204.648 318.388C201.918 319.388 199.307 320.238 196.801 320.924C189.969 324.549 184.927 328.353 184.927 328.353L160.492 333.321C160.492 333.321 162.505 349.865 164.415 352.401C164.415 352.401 173.589 345.36 181.913 341.257C184.181 340.138 190.461 338.497 197.159 336.021C197.338 335.961 197.502 335.887 197.681 335.827C197.696 335.827 197.696 335.827 197.711 335.812C198.383 335.559 199.054 335.305 199.725 335.037C199.994 334.932 200.262 334.813 200.546 334.708C200.948 334.544 201.351 334.38 201.754 334.201C202.067 334.067 202.395 333.933 202.709 333.783C203.052 333.634 203.395 333.47 203.738 333.306C204.081 333.142 204.424 332.978 204.767 332.814C205.066 332.665 205.349 332.53 205.647 332.381C206.02 332.187 206.393 331.993 206.751 331.799C206.975 331.68 207.199 331.561 207.408 331.441C207.825 331.203 208.243 330.964 208.646 330.725C208.84 330.606 209.019 330.502 209.213 330.382C209.63 330.114 210.048 329.86 210.451 329.577C210.63 329.457 210.794 329.338 210.973 329.219C211.018 329.189 211.063 329.159 211.122 329.114C211.54 328.816 211.973 328.503 212.36 328.189C216.239 327.175 223.325 330.979 228.173 332.426C223.832 323.281 218.462 317.821 214.33 314.689Z" fill="#003580"/>
</g>
<rect x="83.8391" y="354.48" width="7" height="8" fill="#EF7F25"/>
<path d="M187.328 362.932C186.523 364.081 185.717 365.14 184.927 366.11C181.496 370.242 178.452 372.525 178.452 372.525C154.495 375.448 89.6621 422.588 71 390.978C65.391 381.475 65.212 370.869 68.4789 360.575C72.5962 347.582 82.2182 335.081 93.3617 325.922C104.237 316.986 116.141 311.914 126.927 312.69L101.984 341.391L84.4857 361.515C85.7537 360.203 87.2753 359.024 88.7074 358.069C89.2742 357.681 89.8262 357.353 90.3334 357.04L90.4975 356.95C92.2429 355.921 93.5556 355.324 93.5556 355.324C111.636 345.777 143.709 338.99 163.102 345.434C173.082 348.716 181.317 355.235 187.328 362.932Z" fill="#FAA327"/>
<path d="M184.927 366.11C181.496 370.242 178.452 372.525 178.452 372.525C154.495 375.448 89.6621 422.588 71 390.978C65.391 381.475 65.212 370.869 68.4789 360.575C72.5962 347.582 82.2182 335.081 93.3617 325.922C104.237 316.986 116.141 311.914 126.927 312.69L101.984 341.391L84.4857 361.515C85.7537 360.203 87.2753 359.024 88.7074 358.069C88.7074 358.069 75.7886 373.435 86.3802 384.623C103.192 402.345 163.982 360.262 184.927 366.11Z" fill="#EF7F25"/>
<path d="M126.927 312.689L101.984 341.391C87.8421 345.658 75.3858 354.802 68.464 360.59C72.5813 347.597 82.2032 335.096 93.3468 325.936C104.222 317.001 116.141 311.929 126.927 312.689Z" fill="white"/>
<path d="M217.537 318.314C211.779 324.982 192.803 331.441 178.363 335.588C168.502 338.423 160.76 340.168 160.76 340.168C160.76 340.168 158.821 339.542 159.761 330.83C160.566 323.311 153.018 327.055 148.766 328.577C147.856 328.905 148.99 326.653 148.99 326.653C149.467 325.877 153.077 322.192 155.554 321.998C157.523 321.849 159.507 321.625 161.476 321.342C186.672 317.911 211.674 306.171 211.674 306.171C211.674 306.171 217.835 317.971 217.537 318.314Z" fill="white"/>
<g opacity="0.15">
<path d="M217.537 318.314C211.779 324.982 192.803 331.441 178.363 335.588C177.423 333.276 176.797 330.293 175.857 326.981C174.678 322.879 166.891 321.685 161.461 321.342C186.657 317.911 211.659 306.171 211.659 306.171C211.659 306.171 217.835 317.971 217.537 318.314Z" fill="#003580"/>
</g>
<path d="M160.76 341.72C160.596 341.72 160.432 341.69 160.283 341.645C158.851 341.182 157.329 338.9 158.224 330.651C158.358 329.338 158.209 328.398 157.791 328.085C156.658 327.219 152.824 328.681 150.765 329.472C150.243 329.666 149.751 329.86 149.303 330.024C148.423 330.337 147.707 329.994 147.319 329.576C146.633 328.801 146.722 327.712 147.603 325.951C147.618 325.907 147.647 325.862 147.677 325.832C148.14 325.086 152.078 320.715 155.434 320.447C181.869 318.329 210.734 304.903 211.018 304.768C211.764 304.41 212.674 304.724 213.062 305.455C219.715 318.194 219.566 318.373 218.73 319.328C208.825 330.8 163.057 341.242 161.118 341.675C160.984 341.705 160.879 341.72 160.76 341.72ZM156.702 324.728C157.821 324.728 158.851 324.982 159.686 325.623C161.029 326.668 161.581 328.458 161.312 330.979C160.82 335.529 161.178 337.572 161.431 338.408C168.159 336.826 206.244 327.518 215.792 317.911C215.09 316.285 213.032 312.167 210.973 308.17C204.872 310.87 179.377 321.625 155.673 323.52C154.703 323.594 153.212 324.654 152.033 325.683C153.614 325.161 155.24 324.728 156.702 324.728Z" fill="#95AAC9"/>
<path d="M148.99 326.638C148.99 326.638 148.856 328.801 148.02 328.219C146.156 326.906 142.486 322.416 141.218 324.251C139.383 326.906 137.891 337.035 137.891 337.035C137.891 337.035 134.982 335.767 130.954 333.739C122.213 329.368 108.175 321.476 107.146 315.494C110.219 311.914 114.247 310.064 117.29 311.914C123.108 315.494 144.589 319.85 146.648 322.327C146.722 322.416 146.782 322.491 146.857 322.58C148.736 324.952 148.99 326.638 148.99 326.638Z" fill="white"/>
<g opacity="0.15">
<path d="M146.857 322.61C142.381 320.357 136.086 318.135 132.028 320.835C127.359 323.923 129.254 330.114 130.954 333.754C122.213 329.383 108.175 321.491 107.146 315.509C110.219 311.929 114.247 310.079 117.29 311.929C123.108 315.509 144.589 319.865 146.648 322.341C146.722 322.431 146.797 322.521 146.857 322.61Z" fill="#003580"/>
</g>
<path d="M137.891 338.602C137.682 338.602 137.473 338.557 137.265 338.467C134.192 337.125 107.205 325.042 105.624 315.763C105.55 315.3 105.669 314.838 105.982 314.495C109.861 309.99 114.619 308.468 118.11 310.616C120.84 312.287 127.732 314.301 133.819 316.061C142.844 318.687 146.648 319.895 147.856 321.357C150.124 324.087 150.497 326.175 150.526 326.414C150.541 326.518 150.541 326.638 150.541 326.742C150.482 327.801 150.168 329.174 149.094 329.696C148.468 329.994 147.737 329.92 147.125 329.502C146.529 329.084 145.857 328.458 145.141 327.801C144.425 327.145 143.053 325.877 142.292 325.489C141.158 327.622 139.95 333.724 139.428 337.289C139.353 337.766 139.07 338.184 138.637 338.423C138.413 338.542 138.16 338.602 137.891 338.602ZM108.876 315.927C110.92 321.417 126.091 329.964 136.683 334.798C137.235 331.561 138.428 325.549 139.935 323.371C140.368 322.744 140.994 322.356 141.725 322.282C143.306 322.103 144.902 323.371 146.558 324.877C146.275 324.415 145.917 323.908 145.454 323.341C144.53 322.401 137.831 320.462 132.938 319.045C126.36 317.135 119.557 315.151 116.469 313.257C114.247 311.884 111.159 313.54 108.876 315.927Z" fill="#95AAC9"/>
<path d="M152.287 136.571L192.624 153.667L247.223 176.789C259.023 161.498 266.631 115.999 255.562 99.7987C252.221 94.9056 247.178 92.6978 240.033 94.7863C222.042 100.037 193.281 129.56 152.287 136.571Z" fill="#FFAD40"/>
<g opacity="0.5">
<path d="M152.287 136.571L159.537 139.644C197.114 130.872 223.802 104.14 240.823 99.1572C247.969 97.0687 253.011 99.2765 256.353 104.17C258.098 106.72 259.381 110.017 260.261 113.791C259.471 108.153 257.949 103.289 255.547 99.7987C252.206 94.9056 247.163 92.6978 240.018 94.7863C222.042 100.037 193.281 129.56 152.287 136.571Z" fill="white"/>
</g>
<path d="M192.624 153.652L247.223 176.774C259.023 161.484 266.631 115.984 255.562 99.7838C253.116 98.829 250.072 99.0081 246.462 101.648C237.228 108.376 214.837 144.731 192.624 153.652Z" fill="#EF7F25"/>
<path d="M245.284 168.435C244.627 169.614 243.956 170.643 243.255 171.493L204.767 133.811C227.77 118.729 243.166 104.14 247.79 106.273C248.521 106.601 249.252 107.511 249.938 108.958C251.788 112.822 253.28 120.564 253.22 131.439C253.145 144.552 249.908 160.111 245.284 168.435Z" fill="#FFF3E9"/>
<path d="M245.284 168.435C244.627 169.614 243.956 170.643 243.255 171.493L204.767 133.811C227.77 118.729 243.166 104.14 247.79 106.273C248.521 106.601 249.252 107.511 249.938 108.958C248.223 109.704 245.866 111.569 242.643 115.373C232.529 127.382 232.201 140.136 236.303 152.085C237.497 155.561 241.644 162.587 245.284 168.435Z" fill="#F9D3B7"/>
<path d="M164.325 136.571L123.988 153.667L69.389 176.789C57.589 161.498 49.981 115.999 61.0649 99.7987C64.4064 94.9056 69.4486 92.6978 76.5942 94.7863C94.585 100.037 123.331 129.56 164.325 136.571Z" fill="#FFAD40"/>
<g opacity="0.5">
<path d="M164.325 136.571L157.075 139.644C119.498 130.872 92.8098 104.14 75.7887 99.1572C68.6431 97.0687 63.6009 99.2765 60.2593 104.17C58.514 106.72 57.231 110.017 56.3509 113.791C57.1415 108.153 58.6632 103.289 61.0649 99.7987C64.4065 94.9056 69.4487 92.6978 76.5943 94.7863C94.585 100.037 123.332 129.56 164.325 136.571Z" fill="white"/>
</g>
<path d="M123.988 153.652L69.389 176.774C57.589 161.484 49.981 115.984 61.0649 99.7838C63.5114 98.829 66.5546 99.0081 70.1647 101.648C79.3988 108.376 101.79 144.731 123.988 153.652Z" fill="#EF7F25"/>
<path d="M71.3432 168.435C71.9996 169.614 72.6709 170.643 73.3721 171.493L111.86 133.811C88.8567 118.729 73.4616 104.14 68.8371 106.273C68.1061 106.601 67.3751 107.511 66.6889 108.958C64.8391 112.822 63.3473 120.564 63.407 131.439C63.4667 144.552 66.7038 160.111 71.3432 168.435Z" fill="#FFF3E9"/>
<path d="M71.3432 168.435C71.9995 169.614 72.6709 170.643 73.372 171.493L111.86 133.811C88.8566 118.729 73.4615 104.14 68.837 106.273C68.106 106.601 67.3751 107.511 66.6888 108.958C68.4044 109.704 70.7614 111.569 73.9836 115.373C84.0978 127.382 84.426 140.136 80.3237 152.085C79.1302 155.561 74.9831 162.587 71.3432 168.435Z" fill="#F9D3B7"/>
<path d="M266.199 275.53C241.196 315.867 174.186 317.046 158.314 317.046C142.426 317.046 75.4306 315.867 50.4285 275.53C40.0905 258.852 42.9995 245.142 47.0571 236.803C49.3843 232.015 52.0993 228.986 52.89 228.181C56.3807 207.609 60.7068 114.731 158.314 114.731C255.92 114.731 260.246 207.609 263.737 228.181C264.543 228.971 267.243 232 269.57 236.803C273.628 245.127 276.537 258.852 266.199 275.53Z" fill="#FAA327"/>
<g opacity="0.5">
<path d="M255.383 185.74C243.464 154.07 217.671 120.654 158.313 120.654C98.8962 120.654 73.1034 154.129 61.214 185.829C71.4476 152.981 95.6739 114.731 158.313 114.731C220.893 114.717 245.135 152.906 255.383 185.74Z" fill="white"/>
</g>
<path d="M104.326 173.448C103.61 169.36 115.783 156.352 123.108 159.917C130.447 163.482 129.313 172.224 124.868 174.626C118.423 178.132 105.057 177.535 104.326 173.448Z" fill="#FFF3E9"/>
<path d="M212.286 173.448C213.002 169.36 200.829 156.352 193.504 159.917C186.165 163.482 187.299 172.224 191.744 174.626C198.203 178.132 211.57 177.535 212.286 173.448Z" fill="#FFF3E9"/>
<path d="M266.213 275.53C241.211 315.867 174.201 317.046 158.328 317.046C142.441 317.046 75.4455 315.867 50.4434 275.53C40.1054 258.852 43.0143 245.142 47.072 236.803C55.8585 225.958 71.3282 215.62 95.107 226.495C103.163 230.18 107.161 236.236 122.123 234.7C127.777 234.118 139.07 224.034 158.343 224.034C177.617 224.034 188.91 234.118 194.564 234.7C209.526 236.236 213.524 230.18 221.58 226.495C245.358 215.62 260.828 225.958 269.615 236.803C273.642 245.127 276.536 258.852 266.213 275.53Z" fill="white"/>
<g opacity="0.15">
<path d="M266.213 275.53C241.211 315.867 174.201 317.046 158.328 317.046C142.441 317.046 75.4455 315.867 50.4434 275.53C43.9393 265.027 42.6862 255.704 43.6558 248.156C44.357 253.66 46.3709 259.791 50.4434 266.355C75.4455 306.693 142.456 307.871 158.328 307.871C174.216 307.871 241.211 306.693 266.213 266.355C270.286 259.776 272.3 253.66 273.001 248.156C273.971 255.689 272.718 265.027 266.213 275.53Z" fill="#003580"/>
</g>
<path d="M159.447 246.157L159.164 246.201V246.112L159.447 246.157Z" fill="#512717"/>
<path d="M159.731 246.112V246.201L159.447 246.157L159.731 246.112Z" fill="#512717"/>
<path d="M132.456 221.081C133.483 210.527 126.585 201.219 117.048 200.291C107.511 199.363 98.9476 207.166 97.9204 217.719C96.8932 228.273 103.792 237.581 113.328 238.509C122.865 239.437 131.429 231.634 132.456 221.081Z" fill="#003580"/>
<path d="M126.03 218.748C126.43 214.64 124.547 211.095 121.824 210.83C119.102 210.565 116.571 213.68 116.171 217.788C115.771 221.897 117.654 225.442 120.376 225.707C123.099 225.972 125.63 222.856 126.03 218.748Z" fill="white"/>
<g opacity="0.35">
<path d="M110.579 232.479C112.307 231.787 112.716 228.746 111.492 225.686C110.267 222.627 107.874 220.707 106.145 221.399C104.416 222.091 104.007 225.132 105.232 228.191C106.456 231.251 108.85 233.17 110.579 232.479Z" fill="white"/>
</g>
<path d="M203.317 238.519C212.854 237.591 219.752 228.283 218.725 217.729C217.698 207.176 209.134 199.373 199.597 200.301C190.06 201.229 183.162 210.537 184.189 221.091C185.217 231.644 193.78 239.447 203.317 238.519Z" fill="#003580"/>
<path d="M196.274 225.715C198.996 225.45 200.879 221.905 200.479 217.796C200.079 213.688 197.548 210.573 194.826 210.838C192.103 211.103 190.221 214.648 190.621 218.756C191.02 222.864 193.552 225.98 196.274 225.715Z" fill="white"/>
<g opacity="0.35">
<path d="M211.394 228.199C212.618 225.139 212.209 222.098 210.481 221.406C208.752 220.714 206.358 222.634 205.134 225.694C203.91 228.753 204.318 231.794 206.047 232.486C207.776 233.178 210.17 231.258 211.394 228.199Z" fill="white"/>
</g>
<path d="M241.659 266.4C256.151 266.4 267.899 257.991 267.899 247.619C267.899 237.246 256.151 228.837 241.659 228.837C227.167 228.837 215.419 237.246 215.419 247.619C215.419 257.991 227.167 266.4 241.659 266.4Z" fill="#FF8080"/>
<path d="M77.4445 266.4C91.9366 266.4 103.685 257.991 103.685 247.619C103.685 237.246 91.9366 228.837 77.4445 228.837C62.9524 228.837 51.2042 237.246 51.2042 247.619C51.2042 257.991 62.9524 266.4 77.4445 266.4Z" fill="#FF8080"/>
<path d="M177.722 245.56C177.722 245.56 179.81 251.616 174.35 254.719C169.084 257.703 162.908 253.824 159.999 251.557C158.94 250.736 158.328 249.468 158.328 248.126V241.994V248.126C158.328 249.468 157.717 250.736 156.658 251.557C153.749 253.824 147.558 257.703 142.307 254.719C136.847 251.616 138.935 245.56 138.935 245.56C138.935 245.56 140.233 229.344 158.343 229.344C176.439 229.344 177.722 245.56 177.722 245.56Z" fill="white"/>
<g opacity="0.15">
<path d="M174.335 254.719C169.084 257.703 162.893 253.824 159.984 251.557C158.925 250.736 158.314 249.468 158.314 248.126C158.314 249.468 157.702 250.736 156.643 251.557C153.734 253.824 147.543 257.703 142.292 254.719C136.832 251.616 138.92 245.56 138.92 245.56C138.92 245.56 138.935 245.306 139.01 244.859C139.517 246.201 140.502 247.544 142.292 248.558C147.543 251.542 153.734 247.663 156.643 245.396C157.687 244.575 158.299 243.322 158.314 241.994C158.328 243.322 158.94 244.575 159.984 245.396C162.893 247.663 169.084 251.542 174.335 248.558C176.14 247.529 177.11 246.201 177.617 244.859C177.692 245.306 177.707 245.56 177.707 245.56C177.707 245.56 179.81 251.616 174.335 254.719Z" fill="#003580"/>
</g>
<path d="M178.885 245.157C182.048 250.9 178.139 257.211 171.904 258.195C166.802 259.075 160.596 256.107 157.12 252.571C156.001 251.214 155.479 249.424 155.539 247.678V246.544L155.509 242.009C155.599 238.325 160.954 238.28 161.103 241.98C161.103 242.875 161.073 246.888 161.073 247.678C161.237 250.557 159.626 253.078 157.21 254.54C153.585 257.002 149.303 258.941 144.709 258.21C139.726 257.464 135.609 252.825 136.787 247.708C137.086 246.5 137.667 243.844 139.428 244.695C139.92 244.963 140.069 245.47 140.069 245.978C140.129 248.185 140.711 250.692 142.605 251.974C145.947 254.719 150.899 252.467 154.047 250.095C154.644 249.632 155.449 249.215 155.524 248.394C155.569 247.126 155.494 243.337 155.509 242.024H161.103C161.103 243.248 161.073 247.037 161.058 248.185C161.058 248.707 161.312 249.185 161.745 249.483C162.55 250.11 163.386 250.692 164.251 251.214C167.16 253.078 171.292 254.242 174.022 251.974C175.916 250.706 176.513 248.17 176.543 245.963C176.439 244.575 178.169 243.949 178.885 245.157Z" fill="#003580"/>
<path d="M172.038 231.224C169.442 238.489 158.314 242.591 158.314 242.591C158.314 242.591 147.2 238.489 144.589 231.224C142.739 226.033 155.822 225.182 158.314 225.182C160.805 225.182 173.888 226.033 172.038 231.224Z" fill="#003580"/>
<g opacity="0.5">
<path d="M163.997 227.838C162.923 229.673 158.314 229.643 158.314 229.643C158.314 229.643 153.704 229.673 152.63 227.838C151.869 226.525 157.284 226.316 158.314 226.316C159.343 226.301 164.773 226.525 163.997 227.838Z" fill="white"/>
</g>
<path d="M98.0757 352.609C98.0757 352.609 71.7608 353.251 66.7634 379.327C66.7634 379.327 60.1698 376.12 61.4378 366.364C62.0942 361.321 64.2871 356.1 67.375 351.759V351.744C73.2824 343.42 82.4569 338.229 90.4975 343.166C96.1812 346.657 97.7326 349.432 98.0906 351.058C98.3144 352.057 98.0757 352.609 98.0757 352.609Z" fill="white"/>
<g opacity="0.15">
<path d="M98.0757 352.61C98.0757 352.61 71.7608 353.251 66.7634 379.327C66.7634 379.327 60.1698 376.12 61.4378 366.364C62.0942 361.321 64.2871 356.1 67.375 351.759C67.1811 352.251 62.0196 365.797 69.7619 361.694C76.4599 358.144 89.319 345.688 98.1056 351.043C98.3144 352.058 98.0757 352.61 98.0757 352.61Z" fill="#003580"/>
</g>
<path d="M131.67 343.793C129.209 337.17 118.901 330.561 110.278 330.979C102.357 331.367 87.2305 338.497 85.5001 347.702C84.0083 355.593 92.3175 355.369 92.3175 355.369C92.3175 355.369 109.861 345.717 131.67 343.793Z" fill="white"/>
<path d="M230.858 384.489C229.217 391.082 221.326 396.975 221.326 396.975C221.326 396.975 223.713 391.47 218.76 379.64C216.135 373.375 209.72 369.914 203.186 368.005C194.325 365.409 185.27 365.662 185.27 365.662C185.27 365.662 185.106 357.786 192.162 354.534C199.218 351.267 219.596 353.34 227.457 364.618C227.711 364.991 227.979 365.379 228.248 365.767C230.948 369.72 233.365 374.404 230.858 384.489Z" fill="white"/>
<g opacity="0.15">
<path d="M230.858 384.489C229.218 391.082 221.326 396.975 221.326 396.975C221.326 396.975 223.713 391.47 218.76 379.641C216.135 373.375 209.72 369.914 203.186 368.005L204.603 365.663C204.603 365.663 213.479 365.663 221.43 375.374C226.532 381.625 230.709 374.927 228.248 365.767C230.948 369.72 233.365 374.404 230.858 384.489Z" fill="#003580"/>
</g>
</svg>
