<svg width="477" height="426" viewBox="0 0 477 426" fill="none" xmlns="http://www.w3.org/2000/svg">
<path d="M278.526 384.03C278.526 384.03 298.248 398.834 319.25 409.266C338.189 418.694 358.184 424.564 365.664 412.824C372.536 402.024 360.757 384.621 346.373 369.243C330.262 352.015 310.891 337.339 310.891 337.339L278.526 384.03Z" fill="#F9A429"/>
<path d="M319.25 409.266C338.189 418.694 358.184 424.564 365.664 412.824C372.536 402.024 360.757 384.621 346.373 369.243C346.021 378.83 341.834 395.803 319.25 409.266Z" fill="white"/>
<g opacity="0.3">
<path d="M340.683 378.718C324.572 361.49 305.201 346.815 305.201 346.815L279.101 384.461C278.733 384.19 278.526 384.03 278.526 384.03L310.891 337.355C310.891 337.355 330.246 352.047 346.373 369.259C360.757 384.637 372.552 402.04 365.664 412.84C364.641 414.451 363.362 415.727 361.892 416.716C363.043 406.044 352.782 391.671 340.683 378.718Z" fill="#003580"/>
</g>
<path d="M444.811 355.157C450.149 356.864 455.519 358.475 460.873 360.15C466.244 361.761 471.614 363.405 477 364.968C471.949 362.511 466.867 360.15 461.8 357.758C456.718 355.413 451.635 353.004 446.537 350.707C445.322 350.164 443.9 350.691 443.356 351.903C442.813 353.115 443.34 354.535 444.555 355.078C444.635 355.094 444.731 355.125 444.811 355.157Z" fill="#003580"/>
<path d="M399.835 365.478C405.173 367.185 410.543 368.796 415.898 370.471C421.268 372.082 426.638 373.725 432.024 375.289C426.974 372.832 421.891 370.471 416.825 368.078C411.742 365.734 406.66 363.325 401.561 361.028C400.346 360.485 398.924 361.012 398.38 362.224C397.837 363.436 398.364 364.856 399.579 365.399C399.659 365.414 399.755 365.446 399.835 365.478Z" fill="#003580"/>
<path d="M356.218 383.52C361.556 385.227 366.927 386.838 372.281 388.513C377.651 390.124 383.021 391.767 388.407 393.33C383.357 390.874 378.274 388.513 373.208 386.104C368.125 383.759 363.043 381.35 357.944 379.053C356.729 378.511 355.307 379.037 354.764 380.25C354.22 381.462 354.748 382.882 355.962 383.424C356.042 383.472 356.122 383.504 356.218 383.52Z" fill="#003580"/>
<path d="M249.677 250.273C249.677 250.273 250.859 254.038 253.209 260.179C254.519 263.593 256.182 267.741 258.243 272.399C259.138 274.44 260.097 276.578 261.136 278.795C273.923 306.089 297.449 344.852 331.86 357.247C386.873 377.043 393.842 364.904 407.379 360.166C420.9 355.444 431.049 363.995 445.482 360.166C459.914 356.338 449.765 328.661 417.976 318.548C386.186 308.418 376.948 301.894 336.367 275.11C321.743 265.459 306.4 259.541 292.766 255.92C268.536 249.492 249.677 250.273 249.677 250.273Z" fill="#465597"/>
<g opacity="0.3">
<path d="M427.885 341.566C427.885 341.566 413.34 336.765 399.659 342.954C385.962 349.159 368.732 365.526 329.415 338.519C290.097 311.513 306.16 285.192 306.16 285.192C306.16 285.192 410.464 324.179 427.885 341.566Z" fill="#003580"/>
</g>
<g opacity="0.6">
<path d="M417.975 324.242C386.186 314.113 376.948 307.589 336.367 280.805C321.743 271.154 306.4 265.236 292.766 261.615C273.139 256.383 257.029 255.92 251.627 255.92C250.332 252.347 249.693 250.273 249.693 250.273C249.693 250.273 268.552 249.492 292.766 255.936C306.416 259.557 321.743 265.475 336.367 275.126C376.948 301.91 386.186 308.434 417.975 318.564C442.349 326.332 453.985 344.406 451.587 354.136C449.589 344.166 438.146 330.671 417.975 324.242Z" fill="white"/>
</g>
<path d="M294.557 324.131C294.557 342.954 309.852 358.22 328.712 358.22C347.571 358.22 362.867 342.954 362.867 324.131C362.867 317.814 361.141 311.896 358.152 306.823C358.168 306.807 358.168 306.807 358.152 306.807C352.19 296.757 341.258 290.042 328.728 290.042C321.791 290.042 315.318 292.115 309.932 295.657C300.662 301.766 294.557 312.231 294.557 324.131Z" fill="#F9A429"/>
<path d="M309.916 295.657C315.318 292.099 321.775 290.041 328.712 290.041C329.159 290.041 329.607 290.057 330.054 290.073C349.569 290.823 362.595 310.269 356.937 328.916C352.814 342.492 341.194 352.19 316.277 345.06L319.617 342.157C319.617 342.157 344.311 346.767 348.674 327.018C348.674 327.018 349.457 312.869 336.527 312.869C326.906 312.869 328.919 321.658 330.582 326.141C331.093 327.513 330.102 328.996 328.632 329.044C323.038 329.235 311.29 327.497 307.087 310.699C305.569 304.653 306.911 299.645 309.916 295.657Z" fill="white"/>
<g opacity="0.3">
<path d="M342.137 312.326C342.137 312.326 360.629 320.637 350.129 338.264C339.628 355.891 314.295 353.403 314.295 353.403L318.754 342.109C318.754 342.109 333.219 346.878 342.984 337.132C352.75 327.385 348.738 318.899 342.137 312.326Z" fill="#003580"/>
</g>
<path d="M3.95719 187.215C6.96196 196.914 15.5447 207.075 38.3362 207.139C38.3362 207.139 44.3937 211.861 53.4719 218.96C77.4142 237.719 122.262 273.18 131.676 282.576C131.676 282.576 130.397 270.038 129.47 253.32C128.335 232.79 127.68 205.959 130.557 188.396C130.557 188.396 105 177.038 80.4349 166.573C66.7376 160.751 53.36 155.2 44.8891 152.057C44.8891 152.057 28.6826 146.601 13.0194 159.06C10.9736 160.687 9.19953 162.569 7.72911 164.659C3.14204 171.12 1.55977 179.415 3.95719 187.215Z" fill="#F9A429"/>
<path d="M3.95725 187.215C6.96202 196.914 15.5448 207.075 38.3362 207.139C38.3362 207.139 44.3937 211.861 53.472 218.96C84.6544 207.618 84.5425 182.908 80.4189 166.573C66.7217 160.751 53.3441 155.2 44.8732 152.057C44.8732 152.057 28.6666 146.601 13.0035 159.06C4.56458 165.76 0.792664 176.91 3.95725 187.215Z" fill="white"/>
<g opacity="0.3">
<path d="M3.95719 187.215C6.96196 196.914 15.5447 207.075 38.3362 207.139C38.3362 207.139 44.3937 211.861 53.4719 218.96C77.4142 237.719 122.262 273.18 131.676 282.576C131.676 282.576 130.397 270.038 129.47 253.32C114.99 244.706 93.4449 230.19 70.7013 208.958C70.7013 208.958 51.2663 190.884 68.272 182.174C68.272 182.174 68.1921 170.115 50.7708 171.375C50.7708 171.375 54.4788 177.022 51.7617 184.902C51.7617 184.902 40.4779 199.801 22.3374 194.776C8.33648 190.9 6.2747 175.905 7.71315 164.643C3.14207 171.12 1.55977 179.415 3.95719 187.215Z" fill="#003580"/>
</g>
<path d="M74.9528 183.658C74.0418 183.004 73.1308 182.477 72.1718 181.983C71.2288 181.472 70.2378 181.042 69.2309 180.643C67.2011 179.861 65.0594 179.271 62.7419 179.048C60.4404 178.824 57.8992 178.92 55.3099 179.957C54.0313 180.483 52.7687 181.265 51.6978 182.286C50.627 183.323 49.8278 184.567 49.2365 185.843C48.6451 187.119 48.3095 188.539 48.1976 189.943C48.1017 191.347 48.2295 192.75 48.5652 194.011C49.2205 196.563 50.4671 198.685 51.8896 200.487C53.328 202.274 54.9743 203.773 56.7484 205.049C58.5225 206.31 60.3925 207.378 62.5022 208.096C62.9018 208.24 63.3333 208.017 63.4771 207.618C63.557 207.378 63.5251 207.139 63.3972 206.948L63.3653 206.916C61.0637 203.47 58.7303 200.264 57.148 197.058C56.7484 196.26 56.4127 195.478 56.125 194.713C55.8693 193.947 55.6456 193.197 55.5337 192.495C55.4058 191.793 55.3898 191.139 55.4538 190.517C55.5017 189.895 55.6296 189.321 55.9013 188.747C56.3808 187.598 57.0521 186.816 58.1868 186.194C59.3056 185.54 60.9199 185.189 62.662 185.03C66.1782 184.743 70.1739 185.173 74.1217 185.7H74.1856C74.8089 185.779 75.3843 185.349 75.4642 184.727C75.4802 184.296 75.2884 183.897 74.9528 183.658Z" fill="#003580"/>
<path d="M62.9018 182.222C62.9018 181.999 62.8858 181.903 62.8698 181.776C62.8538 181.648 62.8379 181.552 62.8219 181.441C62.7899 181.217 62.742 181.01 62.694 180.818C62.6141 180.404 62.4862 180.037 62.3584 179.654C62.0867 178.904 61.767 178.202 61.3675 177.532C60.6003 176.192 59.5774 175.06 58.4746 174.119C57.3398 173.193 56.1091 172.476 54.8305 171.965C54.1912 171.694 53.5199 171.534 52.8966 171.327C52.2413 171.183 51.586 171.072 50.9307 170.976C50.675 170.944 50.4512 171.12 50.4192 171.359C50.4033 171.518 50.4672 171.678 50.5791 171.774L50.611 171.806C51.1065 172.22 51.6179 172.587 52.0814 172.97C52.5449 173.385 53.0085 173.752 53.424 174.182C54.2711 175.012 54.9903 175.889 55.5817 176.783C56.1571 177.708 56.5726 178.649 56.8603 179.59C57.0201 180.053 57.0841 180.547 57.148 181.01C57.164 181.233 57.2119 181.472 57.2119 181.68C57.2119 181.791 57.2119 181.887 57.2119 181.983C57.2119 182.031 57.2119 182.079 57.2119 182.111C57.2119 182.142 57.2119 182.206 57.1959 182.142C57.18 183.722 58.4266 185.014 60.0089 185.03C61.5752 185.046 62.8699 183.785 62.9018 182.222Z" fill="#003580"/>
<path d="M227.029 378.511C227.045 378.527 227.045 378.543 227.061 378.575C227.125 378.655 227.173 378.75 227.205 378.83C227.301 378.974 227.381 379.133 227.461 379.277C227.461 379.293 227.461 379.293 227.477 379.309C229.538 382.914 239.384 398.004 264.237 409.234C269.08 411.42 273.875 413.446 278.542 415.232C278.686 415.296 278.829 415.344 278.973 415.392C301.557 424.006 320.912 427.101 325.547 415.982C325.771 415.456 325.963 414.929 326.122 414.371C330.358 400.796 320.097 380.218 302.548 369.402C302.548 369.402 313.128 358.093 316.884 340.513H316.9C321.551 318.739 315.734 287.346 266.267 256L143.583 242.058L126.593 240.128C126.593 240.144 107.654 345.443 227.029 378.511Z" fill="#F9A429"/>
<path d="M278.526 415.232C301.285 423.974 320.864 427.18 325.531 415.982C331.173 402.487 320.8 380.649 302.532 369.402C302.548 369.402 311.066 401.609 278.526 415.232Z" fill="white"/>
<path d="M227.029 378.511C218.75 364.17 226.294 354.216 226.294 354.216C230.066 269.798 167.301 260.052 167.301 260.052C167.301 260.052 154.275 248.231 143.599 242.074L126.609 240.144C126.593 240.144 107.654 345.443 227.029 378.511Z" fill="white"/>
<g opacity="0.3">
<path d="M303.778 348.984C303.778 348.984 293.565 354.503 272.34 351.52C269.991 351.185 268.744 354.216 270.646 355.636C286.533 367.456 319.09 393.618 314.023 405.853C309.772 416.142 294.333 417.466 278.941 415.392C301.525 424.006 320.88 427.101 325.515 415.982C331.157 402.487 320.784 380.649 302.516 369.402C302.516 369.402 313.096 358.093 316.852 340.513C315.382 340.896 282.601 349.08 239.639 317.224C240.519 318.149 267.673 347.835 303.778 348.984Z" fill="#003580"/>
</g>
<g opacity="0.3">
<path d="M234.637 348.984C234.637 348.984 223.241 345.794 215.17 354.966C211.51 359.129 205.788 360.836 200.466 359.321C189.47 356.21 171.617 349.702 155.57 337.339C155.57 337.339 181.206 368.557 227.029 378.511C227.029 378.527 214.85 353.706 234.637 348.984Z" fill="#003580"/>
</g>
<g opacity="0.6">
<path d="M227.029 378.511C227.045 378.527 227.045 378.543 227.061 378.575C227.125 378.655 227.173 378.75 227.205 378.83C227.301 378.974 227.381 379.133 227.461 379.277C227.461 379.293 227.461 379.293 227.477 379.309C229.538 382.914 239.384 398.004 264.237 409.235C269.08 411.42 273.875 413.446 278.542 415.232C278.685 415.296 278.829 415.344 278.973 415.392C301.557 424.006 320.912 427.101 325.547 415.982C325.771 415.456 325.963 414.929 326.122 414.371C326.122 414.371 296.73 424.134 254.935 396.282C212.836 368.206 234.637 348.984 234.637 348.984C212.149 356.577 227.029 378.511 227.029 378.511Z" fill="white"/>
</g>
<path d="M229.522 377.123C229.251 376.629 228.947 375.959 228.659 375.353C228.372 374.73 228.1 374.092 227.844 373.454C227.349 372.162 226.885 370.87 226.518 369.562C225.782 366.946 225.367 364.266 225.559 361.698C225.655 360.422 225.926 359.177 226.374 357.997C226.805 356.816 227.445 355.7 228.26 354.695C229.874 352.637 232.239 351.042 234.829 349.638L234.845 349.622C235.18 349.447 235.308 349.032 235.116 348.697C234.972 348.426 234.685 348.298 234.397 348.346C232.879 348.601 231.328 348.968 229.858 349.622C228.372 350.228 226.965 351.122 225.686 352.222C224.392 353.307 223.337 354.711 222.522 356.21C221.723 357.726 221.163 359.385 220.844 361.044C220.236 364.394 220.508 367.712 221.163 370.87C221.515 372.449 221.947 373.981 222.506 375.48C222.778 376.23 223.081 376.964 223.401 377.698C223.721 378.447 224.056 379.117 224.488 379.931C225.239 381.319 226.981 381.813 228.356 381.063C229.73 380.314 230.242 378.607 229.506 377.219L229.522 377.123Z" fill="#003580"/>
<path d="M304.194 367.073C301.717 365.526 299.319 364.138 296.794 362.814C294.301 361.49 291.759 360.262 289.186 359.113C286.613 357.949 284.008 356.88 281.339 355.955L279.341 355.269C278.669 355.062 277.982 354.87 277.311 354.663C275.968 354.248 274.578 353.961 273.203 353.642C272.868 353.562 272.532 353.77 272.468 354.105C272.404 354.392 272.548 354.679 272.804 354.79L272.82 354.806C275.313 356.035 277.774 357.263 280.188 358.555C282.601 359.879 284.999 361.187 287.332 362.623C289.666 364.059 291.983 365.526 294.253 367.042C296.506 368.573 298.792 370.136 300.902 371.731L300.933 371.763C302.196 372.72 303.986 372.465 304.929 371.221C305.872 369.977 305.632 368.174 304.386 367.233C304.322 367.169 304.258 367.121 304.194 367.073Z" fill="#003580"/>
<path d="M257.125 283.453C239.112 283.453 225.655 301.639 239.639 317.208C255.414 334.755 319.889 354.551 327.561 331.389C335.233 308.211 316.453 287.154 316.453 287.154C316.453 287.154 306.927 268.331 282.298 271.059C282.298 271.059 270.774 271.649 261.632 278.62L257.125 283.453Z" fill="#F9A429"/>
<path d="M279.852 289.547C279.852 289.547 286.661 316.506 262.415 331.644C262.415 331.644 224.696 317.766 236.331 294.556C247.998 271.362 279.852 289.547 279.852 289.547Z" fill="white"/>
<g opacity="0.3">
<path d="M241.254 287.984C241.254 287.984 232.112 314.847 286.997 329.921C341.898 344.996 316.085 284.474 307.519 278.173C307.519 278.173 322.734 287.617 328.04 309.327C333.347 331.038 325.563 341.518 312.026 341.518C298.488 341.518 287.684 342.938 263.55 331.644C239.432 320.35 224.808 308.243 241.254 287.984Z" fill="#003580"/>
</g>
<path d="M118.842 248.918C122.294 257.963 132.507 271.65 162.555 279.307C202.607 289.548 237.802 285.129 261.136 276.898C266.315 275.063 270.902 273.069 274.834 270.98C274.834 270.98 298.376 260.818 316.469 285.257C316.469 285.257 335.584 289.037 350.624 299.502C365.664 309.966 410.656 322.441 427.885 339.653C427.885 339.653 410.64 327.481 389.846 315.358C353.229 294.014 339.868 279.913 319.25 279.913C319.25 279.913 309.708 264.152 288.867 256.719C283.512 254.804 277.535 253.353 270.998 252.747C270.998 252.747 264.349 255.442 253.225 258.282C225.015 265.428 167.973 273.325 117.147 239.937C117.131 239.937 116.828 243.638 118.842 248.918Z" fill="#465597"/>
<g opacity="0.3">
<path d="M118.842 249.22C124.308 255.155 148.713 276.977 211.238 276.977C230.034 276.977 245.569 274.488 258.227 270.819C271.317 267.039 281.371 261.966 288.851 257.037C290.241 256.144 291.536 255.234 292.75 254.341C268.536 247.896 249.677 248.678 249.677 248.678C249.677 248.678 250.859 252.443 253.209 258.584C224.999 265.731 167.957 273.627 117.131 240.239C117.131 240.239 116.828 243.94 118.842 249.22Z" fill="#003580"/>
</g>
<path d="M167.509 280.646C167.509 280.646 186.449 276.259 191.18 296.343C195.91 316.426 203.854 330.767 203.854 330.767C203.854 330.767 158.207 315.581 167.509 280.646Z" fill="#465597"/>
<g opacity="0.3">
<path d="M167.509 280.646C167.509 280.646 174.366 279.067 180.855 282.177C179.081 282.273 177.946 282.544 177.946 282.544C171.888 305.308 189.15 319.68 201.92 326.938C203.103 329.411 203.854 330.767 203.854 330.767C203.854 330.767 158.207 315.581 167.509 280.646Z" fill="#003580"/>
</g>
<path d="M117.595 296.199C117.595 296.199 156.001 308.673 167.189 280.47C167.189 280.47 164.68 277.535 160.573 275.812C156.241 274.01 150.152 273.531 143.359 279.274C130.125 290.472 117.595 296.199 117.595 296.199Z" fill="#465597"/>
<g opacity="0.3">
<path d="M117.595 296.199C117.595 296.199 156.001 308.673 167.189 280.47C167.189 280.47 164.68 277.535 160.573 275.812C147.211 296.885 117.595 296.199 117.595 296.199Z" fill="#003580"/>
</g>
<g opacity="0.6">
<path d="M162.459 279.609C158.127 277.806 152.038 277.328 145.245 283.07C136.822 290.201 128.671 295.114 123.876 297.73C120.04 296.996 117.579 296.199 117.579 296.199C117.579 296.199 130.109 290.472 143.343 279.274C150.136 273.531 156.225 273.994 160.557 275.812C164.664 277.535 167.174 280.47 167.174 280.47C166.966 280.981 166.758 281.475 166.534 281.97C165.479 281.172 164.105 280.295 162.459 279.609Z" fill="white"/>
</g>
<path d="M167.509 294.652C159.759 294.652 153.476 288.381 153.476 280.646C153.476 272.911 159.759 266.64 167.509 266.64C175.259 266.64 181.542 272.911 181.542 280.646C181.542 288.381 175.259 294.652 167.509 294.652Z" fill="#465597"/>
<g opacity="0.3">
<path d="M164.664 288.016C172.416 288.016 178.697 281.746 178.697 274.01C178.697 273.324 178.633 272.654 178.537 271.984C180.423 274.361 181.542 277.36 181.542 280.63C181.542 288.367 175.261 294.636 167.509 294.636C160.445 294.636 154.627 289.419 153.636 282.656C156.209 285.926 160.189 288.016 164.664 288.016Z" fill="#003580"/>
</g>
<g opacity="0.6">
<path d="M167.509 266.64C172.352 266.64 176.619 269.097 179.145 272.813C176.907 271.298 174.206 270.421 171.297 270.421C163.545 270.421 157.264 276.69 157.264 284.426C157.264 287.33 158.143 290.026 159.662 292.259C155.922 289.738 153.476 285.479 153.476 280.646C153.476 272.909 159.757 266.64 167.509 266.64Z" fill="white"/>
</g>
<path d="M244.898 90.8813L193.385 92.2053L123.668 93.9919C117.339 72.2016 128.607 19.2411 147.706 6.31998C153.476 2.4277 159.949 2.17247 166.87 7.51638C184.291 20.9958 203.039 65.6134 244.898 90.8813Z" fill="#F9A429"/>
<g opacity="0.5">
<path d="M244.898 93.2741L235.644 93.5134C198.292 67.7669 180.599 27.1054 164.105 14.3438C157.184 8.98395 150.711 9.23919 144.941 13.1474C141.937 15.1893 139.108 18.2361 136.518 21.9848C139.811 16.1783 143.567 11.5203 147.706 8.71277C153.476 4.8205 159.949 4.56526 166.87 9.90917C184.291 23.3886 203.039 68.0062 244.898 93.2741Z" fill="white"/>
</g>
<path d="M180.167 54.0482L127.792 82.3469C127.92 81.5972 128.767 70.1756 131.388 57.7969C132.539 52.3573 134.041 46.7262 135.975 41.7333C140.93 28.9877 146.268 20.9479 150.008 17.917C151.063 17.0556 152.006 16.6089 152.757 16.5611C158.734 16.2101 164.488 31.1252 180.167 54.0482Z" fill="#FFF3E9"/>
<g opacity="0.3">
<path d="M180.167 54.0482L127.792 82.3469C127.92 81.5972 128.767 70.1756 131.388 57.7969C133.641 57.5736 136.47 56.8398 139.587 55.0053C144.11 52.3413 152.901 45.6575 154.994 37.0913C156.097 32.5609 153.508 24.553 150.024 17.917C151.079 17.0556 152.022 16.6089 152.773 16.5611C158.734 16.2101 164.488 31.1252 180.167 54.0482Z" fill="#003580"/>
</g>
<path d="M180.167 54.0482L160.444 64.7042C156.161 61.1788 151.526 56.5687 151.111 52.804C150.104 43.5838 161.627 47.0453 161.947 47.0932C162.251 47.141 155.937 39.516 161.851 36.6128C164.216 35.4483 167.301 36.6766 170.242 38.6706C173.039 43.2328 176.299 48.3853 180.167 54.0482Z" fill="#FFF3E9"/>
<path d="M310.012 152.041L288.946 125.784L242.388 67.735C272.356 37.9527 312.361 28.7803 323.869 36.1182C325.467 37.1392 326.825 38.9577 327.896 41.5259C333.97 56.122 330.741 95.0926 310.012 152.041Z" fill="#F9A429"/>
<g opacity="0.5">
<path d="M330.294 54.9256C329.846 52.453 329.239 50.3154 328.504 48.5607C327.433 45.9925 326.074 44.1739 324.476 43.153C313.192 35.9587 274.498 44.6525 244.738 73.0948L242.372 70.1437C272.34 40.3614 312.345 31.1891 323.853 38.527C325.451 39.5479 326.81 41.3664 327.88 43.9347C329.047 46.7103 329.878 50.3952 330.294 54.9256Z" fill="white"/>
</g>
<path d="M310.012 152.041L288.946 125.784C287.604 114.171 287.316 96.9909 293.853 81.9801C303.698 59.3921 315.254 35.847 327.88 41.5259C333.97 56.1219 330.741 95.0926 310.012 152.041Z" fill="#FF9343"/>
<path d="M72.619 176.416C72.5711 178.856 72.699 181.281 72.9707 183.674C76.5188 214.493 106.487 242.026 160.86 259.812L194.344 267.788C249.692 277.344 296.73 272.207 314.902 237.001C318.275 230.477 321.215 222.485 323.421 213.488C331.812 179.542 329.798 131.447 301.237 95.2202C270.998 56.8717 219.133 50.0921 207.865 48.5288C140.05 39.1012 114.925 83.1765 90.6476 136.855C90.6476 136.871 88.9375 138.354 86.572 141.114C85.5811 142.263 84.4783 143.65 83.3435 145.261C78.4687 152.121 72.8588 162.872 72.619 176.416Z" fill="#F9A429"/>
<path d="M72.619 176.416C71.9956 210.138 102.267 240.638 160.86 259.828L194.344 267.804C249.692 277.36 296.73 272.223 314.902 237.017C318.275 230.493 321.215 222.501 323.421 213.504C316.405 207.426 302.116 198.509 285.03 193.724C247.215 183.131 244.019 199.163 221.691 193.197C201.696 187.837 198.883 170.226 175.628 163.766C157.12 158.613 149.512 168.775 137.973 168.807C114.206 168.87 116.588 145.118 86.572 141.13C81.3616 147.271 72.9226 159.714 72.619 176.416Z" fill="#FFF3E9"/>
<g opacity="0.3">
<path d="M323.437 213.504C321.231 222.485 318.275 230.493 314.902 237.001C296.73 272.207 249.692 277.344 194.344 267.789L160.86 259.813C112.352 243.924 83.2635 220.3 75.0483 193.516C88.5219 215.195 116.316 234.082 157.583 247.593L192.49 255.904C250.204 265.874 299.239 260.514 318.179 223.809C319.857 220.555 321.439 216.95 322.878 213.025C323.069 213.201 323.261 213.36 323.437 213.504Z" fill="#003580"/>
</g>
<path d="M156.577 189.911C160.301 198.429 153.444 215.817 167.061 217.205C181.142 218.641 180.423 200.072 188.542 193.548" fill="#003580"/>
<path d="M150.2 182.908C150.2 182.908 146.603 188.858 151.702 193.181C158.047 198.557 166.47 193.771 168.708 191.426C169.235 190.884 170.434 191.187 170.514 191.937C170.961 196.005 174.621 204.826 184.499 204.172C188.383 203.917 192.858 200.615 192.41 195.845L180.167 170.067L150.2 182.908Z" fill="#FFF3E9"/>
<g opacity="0.3">
<path d="M191.291 200.28C189.773 202.545 187.008 203.981 184.515 204.156C174.637 204.826 170.977 196.005 170.53 191.921C170.45 191.171 169.251 190.868 168.724 191.426C166.502 193.771 158.063 198.541 151.718 193.181C149.4 191.235 148.873 188.938 149.001 187.024C157.248 191.458 166.374 188.045 168.388 182.557C168.74 181.6 177.994 180.547 177.674 181.52C174.445 190.996 177.786 201.221 191.259 200.312C191.259 200.296 191.275 200.28 191.291 200.28Z" fill="#003580"/>
</g>
<path d="M190.748 195.989C190.556 197.058 190.125 197.919 189.517 198.637C188.894 199.339 188.111 199.913 187.232 200.312C186.353 200.711 185.394 200.934 184.563 200.934C184.451 200.934 184.371 200.934 184.243 200.934L183.843 200.902L183.044 200.838C182.533 200.758 182.021 200.679 181.542 200.567C181.078 200.423 180.599 200.328 180.167 200.104C179.704 199.961 179.304 199.706 178.873 199.498C178.058 199.004 177.274 198.397 176.587 197.632C175.932 196.85 175.34 195.941 174.877 194.952C174.429 193.963 174.094 192.878 173.966 191.921L173.918 191.57L173.886 191.379C173.87 191.251 173.838 191.139 173.822 191.012C173.774 190.772 173.678 190.549 173.582 190.326C173.391 189.879 173.119 189.496 172.847 189.193C172.272 188.587 171.68 188.236 171.089 188.013C170.498 187.789 169.922 187.694 169.283 187.71C168.644 187.726 167.94 187.869 167.205 188.284C167.013 188.396 166.854 188.491 166.662 188.651C166.582 188.715 166.486 188.794 166.406 188.874L166.23 189.05L166.118 189.145C166.007 189.257 165.799 189.401 165.607 189.544C164.808 190.134 163.801 190.677 162.794 191.091C160.764 191.921 158.686 192.32 156.912 192.001C156.001 191.889 155.17 191.554 154.355 191.076C153.476 190.597 152.821 190.055 152.357 189.401C151.846 188.778 151.542 187.965 151.43 186.976C151.366 186.481 151.35 185.939 151.414 185.381C151.43 185.094 151.462 184.822 151.51 184.535C151.542 184.264 151.622 183.929 151.638 183.738L151.702 183.227C151.814 182.318 151.174 181.504 150.263 181.393C149.672 181.313 149.113 181.568 148.761 182.015C148.441 182.414 148.234 182.701 147.994 183.068C147.786 183.419 147.578 183.77 147.403 184.152C147.067 184.902 146.747 185.7 146.603 186.577C146.428 187.438 146.364 188.364 146.444 189.305C146.508 189.767 146.587 190.246 146.683 190.709C146.827 191.171 146.955 191.65 147.147 192.081C147.93 193.851 149.209 195.367 150.615 196.388L151.143 196.802L151.718 197.153C152.117 197.377 152.501 197.632 152.901 197.823C153.748 198.174 154.595 198.525 155.49 198.717C157.264 199.147 159.102 199.195 160.796 198.94C162.506 198.685 164.105 198.206 165.607 197.536C167.109 196.866 168.5 196.053 169.858 194.968C170.194 194.681 170.546 194.41 170.913 194.043L171.185 193.771C171.233 193.708 171.137 193.819 171.105 193.851C171.057 193.899 170.993 193.947 170.945 193.995C170.833 194.075 170.737 194.154 170.626 194.218C170.194 194.457 169.81 194.521 169.523 194.537C169.219 194.537 168.995 194.489 168.724 194.394C168.468 194.298 168.164 194.138 167.813 193.771C167.653 193.596 167.477 193.357 167.349 193.07C167.285 192.926 167.237 192.782 167.189 192.623C167.173 192.543 167.157 192.463 167.141 192.384L167.125 192.272V192.32L167.221 192.99C167.525 194.729 168.052 196.244 168.74 197.743C169.427 199.243 170.274 200.663 171.345 202.003C172.432 203.327 173.726 204.523 175.245 205.464C176.763 206.389 178.473 207.012 180.199 207.315C180.631 207.41 181.062 207.41 181.494 207.442C181.925 207.458 182.357 207.538 182.773 207.506L184.019 207.426L184.642 207.378C184.866 207.362 185.106 207.315 185.346 207.267C185.825 207.203 186.273 207.059 186.72 206.948C187.152 206.788 187.599 206.645 187.999 206.453C188.83 206.086 189.581 205.608 190.316 205.097C191.723 204.013 192.922 202.593 193.641 200.918C194.344 199.243 194.52 197.329 194.088 195.67C193.849 194.76 192.922 194.218 192.011 194.473C191.355 194.649 190.892 195.175 190.78 195.797L190.748 195.989Z" fill="#003580"/>
<path d="M159.342 166.382C157.983 171.231 162.203 177.022 165.655 180.755C168.036 183.339 171.696 184.36 175.069 183.371C179.944 181.951 186.561 179.175 187.919 174.326C190.109 166.446 161.547 158.502 159.342 166.382Z" fill="#003580"/>
<g opacity="0.35">
<path d="M166.598 166.557C166.342 167.451 168.132 168.807 169.539 169.716C170.514 170.338 171.872 170.721 173.023 170.689C174.701 170.641 176.923 170.402 177.179 169.508C177.578 168.041 166.997 165.106 166.598 166.557Z" fill="white"/>
</g>
<path d="M167.381 193.117L173.662 190.725C173.662 190.725 173.678 190.772 173.71 190.852C173.694 190.82 172.623 186.848 176.172 176.99C176.795 175.251 175.9 173.321 174.142 172.699C172.4 172.077 170.466 172.97 169.842 174.725C165.463 186.896 167.029 192.192 167.381 193.117Z" fill="#003580"/>
<path d="M238.792 135.451C240.934 131.256 230.785 112.496 221.051 113.645C211.318 114.793 209.895 124.763 214.338 129.07C220.811 135.292 236.666 139.646 238.792 135.451Z" fill="#FFF3E9"/>
<path d="M141.345 110.518C141.809 105.828 159.118 95.3319 166.055 101.473C172.991 107.615 169.075 116.803 163.481 118.079C155.346 119.93 140.882 115.208 141.345 110.518Z" fill="#FFF3E9"/>
<path d="M313.064 101.872C311.929 104.552 310.651 106.961 309.244 109.003C290.528 82.1556 273.698 83.4955 276.655 70.7818C279.852 57.0153 305.312 43.2009 319.138 45.5937C320.001 45.7373 320.608 47.476 320.96 50.3314C322.222 60.748 319.937 85.8883 313.064 101.872Z" fill="#FFF3E9"/>
<g opacity="0.3">
<path d="M313.064 101.872C311.929 104.552 310.651 106.961 309.244 109.003C290.529 82.1556 273.699 83.4955 276.655 70.7818C279.852 57.0153 305.313 43.2009 319.138 45.5937C320.001 45.7373 320.608 47.476 320.96 50.3314C313.799 51.2566 301.86 54.5108 298.488 65.9324C294.045 80.9592 307.63 88.2333 313.064 101.872Z" fill="#003580"/>
</g>
<path d="M294.141 81.1346C293.23 84.8834 287.38 82.4587 287.124 86.319C279.532 80.6242 275.009 77.9123 276.655 70.7978C277.359 67.7828 279.133 64.752 281.61 61.8966C285.318 61.0352 289.458 60.9554 292.43 63.3323C295.803 66.0441 294.492 68.6283 292.814 70.0321C290.337 72.1058 286.069 72.5206 286.069 72.5206C286.069 72.5206 295.243 76.5724 294.141 81.1346Z" fill="#FFF3E9"/>
<path d="M178.489 211.175C169.027 217.285 174.126 237.432 159.517 233.763C153.828 232.327 151.27 226.632 151.19 220.587C151.095 213.998 153.892 206.996 158.686 204.635C160.045 203.965 162.666 203.502 166.246 205.751C172.959 204.89 176.092 207.378 177.482 209.277C178.265 210.314 178.489 211.175 178.489 211.175Z" fill="#FF1D74"/>
<g opacity="0.3">
<path d="M178.489 211.175C169.027 217.285 174.126 237.432 159.517 233.763C153.828 232.327 151.27 226.632 151.19 220.587C151.19 220.587 154.531 229.424 160.189 229.009C167.205 228.499 167.093 223.889 170.562 215.945C171.952 212.77 174.893 210.186 177.498 209.261C178.265 210.314 178.489 211.175 178.489 211.175Z" fill="#003580"/>
</g>
<path d="M160.956 220.73C161.42 217.731 162.283 214.764 163.705 212.308C164.408 211.079 165.287 210.01 166.278 209.261C166.774 208.894 167.285 208.591 167.813 208.367C168.34 208.16 168.884 208.032 169.427 207.969C170.833 207.793 171.808 206.501 171.633 205.113C171.457 203.709 170.162 202.736 168.772 202.912C168.532 202.944 168.292 203.008 168.068 203.103L167.941 203.167C167.045 203.566 166.198 204.076 165.431 204.667C164.68 205.273 164.041 205.975 163.497 206.708C162.426 208.192 161.771 209.787 161.372 211.382C160.956 212.978 160.78 214.557 160.732 216.12C160.668 217.667 160.764 219.215 160.956 220.73Z" fill="#003580"/>
<path d="M245.585 184.424L245.681 183.674L245.745 183.116C245.777 182.765 245.793 182.414 245.809 182.063C245.841 181.377 245.841 180.691 245.825 180.021C245.793 178.665 245.681 177.309 245.489 175.969C245.297 174.629 245.057 173.273 244.69 171.933C244.354 170.593 243.923 169.253 243.363 167.929C242.292 165.281 240.758 162.633 238.425 160.288C237.865 159.714 237.146 159.14 236.587 158.725C235.995 158.262 235.372 157.848 234.733 157.449C233.438 156.651 232.047 155.949 230.593 155.407C227.668 154.306 224.344 153.844 221.131 154.274C217.919 154.689 214.882 155.933 212.357 157.672C209.831 159.427 207.802 161.644 206.283 164.069C204.765 166.494 203.694 169.094 203.119 171.774C202.879 172.874 203.582 173.959 204.685 174.198C205.452 174.358 206.203 174.071 206.667 173.528L206.715 173.465C208.313 171.566 209.815 169.748 211.478 168.2C213.092 166.637 214.818 165.329 216.576 164.356C220.124 162.394 223.928 162.155 227.556 163.542C228.467 163.893 229.378 164.308 230.257 164.819C231.12 165.329 232.079 165.983 232.687 166.478C234.093 167.61 235.324 169.333 236.427 171.247C236.97 172.22 237.482 173.225 237.977 174.278C238.441 175.331 238.92 176.416 239.336 177.532C239.767 178.649 240.167 179.782 240.566 180.93L241.126 182.653L241.381 183.498L241.509 183.897C241.557 184.009 241.573 184.152 241.621 184.105C241.525 185.205 242.34 186.162 243.427 186.258C244.514 186.354 245.489 185.524 245.585 184.424Z" fill="#003580"/>
<path d="M118.969 148.994C120.711 147.463 122.294 145.979 123.956 144.671C125.602 143.363 127.28 142.231 128.99 141.321C130.701 140.444 132.443 139.774 134.233 139.471C135.112 139.327 136.039 139.2 136.934 139.168C137.829 139.104 138.676 139.168 139.491 139.28C141.105 139.503 142.512 140.045 143.742 140.939C144.957 141.832 146.028 143.124 146.843 144.687C147.642 146.266 148.282 148.069 148.697 149.983C149.129 151.913 149.336 153.923 149.4 156.061V156.189C149.432 157.289 150.359 158.151 151.462 158.119C152.197 158.087 152.821 157.688 153.14 157.098C154.419 154.817 155.026 152.217 155.186 149.584C155.314 146.952 154.93 144.225 153.94 141.609C152.917 139.008 151.27 136.456 148.921 134.478C146.587 132.5 143.583 131.272 140.674 130.873C139.219 130.697 137.765 130.634 136.39 130.761C135 130.889 133.657 131.08 132.315 131.479C129.646 132.229 127.136 133.441 124.995 135.004C120.679 138.131 117.722 142.374 115.821 146.697C115.373 147.702 115.837 148.883 116.843 149.313C117.579 149.648 118.41 149.489 118.969 148.994Z" fill="#003580"/>
</svg>
