<svg width="50" height="50" xmlns="http://www.w3.org/2000/svg"><g fill="none" fill-rule="evenodd"><path d="M25 9.274c-1.371 0-2.42-1.048-2.42-2.42V2.42C22.58 1.05 23.63 0 25 0s2.42 1.048 2.42 2.42v4.435c0 1.29-1.049 2.42-2.42 2.42z" fill="#CBF1A8"/><path d="M25 50c-1.371 0-2.42-1.048-2.42-2.42v-4.435c0-1.37 1.049-2.42 2.42-2.42s2.42 1.05 2.42 2.42v4.436C27.42 48.95 26.37 50 25 50z" fill="#95DE52"/><path d="M15.887 11.694a2.43 2.43 0 01-2.097-1.21l-2.177-3.79c-.645-1.13-.242-2.662.887-3.307s2.661-.242 3.306.887l2.178 3.79c.645 1.13.242 2.662-.887 3.307-.323.161-.807.323-1.21.323z" fill="#D7F0BE"/><path d="M36.29 46.935a2.43 2.43 0 01-2.096-1.21l-2.178-3.79c-.645-1.129-.242-2.66.887-3.306 1.13-.645 2.662-.242 3.307.887l2.177 3.79c.645 1.13.242 2.662-.887 3.307a2.276 2.276 0 01-1.21.322z" fill="#95DE52"/><path d="M8.065 17.984l-3.79-2.178c-1.13-.645-1.533-2.177-.888-3.306.645-1.129 2.178-1.532 3.307-.887l3.79 2.177c1.129.645 1.532 2.178.887 3.307a2.43 2.43 0 01-2.097 1.21c-.403 0-.806-.081-1.21-.323z" fill="#DFF4CC"/><path d="M44.597 38.71c-.403 0-.807-.081-1.21-.323l-3.87-2.177c-1.13-.645-1.533-2.178-.888-3.307.645-1.129 2.177-1.532 3.306-.887l3.79 2.178c1.13.645 1.533 2.177.888 3.306-.403.806-1.21 1.21-2.016 1.21z" fill="#9FE262"/><path d="M6.855 27.42H2.419C1.05 27.42 0 26.37 0 25s1.048-2.42 2.42-2.42h4.435c1.37 0 2.42 1.049 2.42 2.42s-1.13 2.42-2.42 2.42z" fill="#F1FAE8"/><path d="M47.58 27.42h-4.435c-1.37 0-2.42-1.049-2.42-2.42s1.05-2.42 2.42-2.42h4.436C48.95 22.58 50 23.63 50 25s-1.048 2.42-2.42 2.42z" fill="#ABE774"/><path d="M5.403 38.71a2.43 2.43 0 01-2.097-1.21c-.645-1.129-.241-2.661.888-3.306l3.79-2.178c1.129-.645 2.661-.242 3.306.887.645 1.13.242 2.662-.887 3.307l-3.79 2.177c-.323.242-.726.323-1.21.323z" fill="#79C930"/><path d="M38.629 17.097c-.645-1.13-.242-2.662.887-3.307l3.79-2.177c1.13-.645 2.662-.242 3.307.887s.242 2.661-.887 3.306l-3.79 2.178a2.276 2.276 0 01-1.21.322 2.43 2.43 0 01-2.097-1.21z" fill="#B6E789"/><path d="M13.71 46.935c-.404 0-.807-.08-1.21-.322-1.129-.645-1.532-2.178-.887-3.307l2.177-3.79c.645-1.129 2.178-1.532 3.307-.887s1.532 2.177.887 3.306l-2.178 3.79a2.43 2.43 0 01-2.096 1.21z" fill="#89D841"/><path d="M34.113 11.694c-.403 0-.807-.081-1.21-.323-1.129-.645-1.532-2.177-.887-3.306l2.178-3.79c.645-1.13 2.177-1.533 3.306-.888 1.129.645 1.532 2.178.887 3.307l-2.177 3.79c-.484.726-1.29 1.21-2.097 1.21z" fill="#C3EE9C"/></g></svg>