<svg width="16" height="16" viewBox="0 0 16 16" fill="none" xmlns="http://www.w3.org/2000/svg">
<path fill-rule="evenodd" clip-rule="evenodd" d="M7.9756 0C5.5547 0 3.9756 1.75576 3.9756 4C3.9756 7.42737 5.73646 9 7.9756 9C3.44197 9 0.444898 9.9956 0.0260775 12.397C0.0173695 12.4061 0.00867699 12.4152 0 12.4244C0.00299944 12.4497 0.00627333 12.4749 0.00982056 12.5C0.00627333 12.5251 0.00299944 12.5503 0 12.5756C0.00867699 12.5848 0.0173695 12.5939 0.0260775 12.603C0.444898 15.0044 3.44197 16 7.9756 16C12.5092 16 15.5063 15.0044 15.9251 12.603C15.9338 12.5939 15.9425 12.5848 15.9512 12.5756C15.9482 12.5503 15.9449 12.5251 15.9414 12.5C15.9449 12.4749 15.9482 12.4497 15.9512 12.4244C15.9425 12.4152 15.9338 12.4061 15.9251 12.397C15.5063 9.9956 12.5092 9 7.9756 9C10.1937 9 11.9756 7.47961 11.9756 4.2C11.9756 1.92158 10.3898 0 7.9756 0ZM13.8387 12.5C13.3102 11.5842 11.2662 11 7.9756 11C4.685 11 2.641 11.5842 2.11246 12.5C2.641 13.4158 4.685 14 7.9756 14C11.2662 14 13.3102 13.4158 13.8387 12.5ZM7.9756 7C6.79381 7 5.9756 6.26926 5.9756 4C5.9756 2.81582 6.70934 2 7.9756 2C9.19125 2 9.9756 2.95042 9.9756 4.2C9.9756 6.29839 9.1533 7 7.9756 7Z" fill="#B5C0C9"/>
</svg>
