<svg width="13" height="13" xmlns="http://www.w3.org/2000/svg"><g fill="#FFF" fill-rule="evenodd" opacity=".497"><path d="M12.476 12.033H.524a.454.454 0 00-.448.456c0 .244.208.455.448.455h11.963a.454.454 0 00.447-.455.463.463 0 00-.458-.456zM.076 8l-.01 2.167c0 .122.043.244.13.333a.434.434 0 00.317.133l2.12-.01c.12 0 .23-.045.317-.134l7.319-7.445a.475.475 0 000-.655L8.17.233a.456.456 0 00-.644 0l-1.464 1.5L.208 7.678A.5.5 0 00.076 8zm7.779-6.789l1.474 1.5-.83.845-1.475-1.5.83-.845zM.983 8.2L6.38 2.711l1.475 1.5L2.458 9.69.972 9.7l.011-1.5z"/></g></svg>