<svg width="15" height="15" viewBox="0 0 15 15" fill="none" xmlns="http://www.w3.org/2000/svg">
<path d="M7.5 13.125C10.6066 13.125 13.125 10.6066 13.125 7.5C13.125 4.3934 10.6066 1.875 7.5 1.875C4.3934 1.875 1.875 4.3934 1.875 7.5C1.875 10.6066 4.3934 13.125 7.5 13.125Z" fill="#F2994A" fill-opacity="0.6"/>
<path d="M7.5 10.625V10.6312" stroke="white" stroke-width="1.2" stroke-linecap="round" stroke-linejoin="round"/>
<path d="M7.5 8.43748C7.48849 8.23459 7.54322 8.03345 7.65595 7.86436C7.76867 7.69528 7.93329 7.56739 8.125 7.49998C8.35992 7.41014 8.57078 7.267 8.74098 7.08183C8.91118 6.89665 9.03608 6.67449 9.10583 6.43285C9.17558 6.1912 9.18829 5.93666 9.14296 5.68927C9.09762 5.44188 8.99548 5.20839 8.84457 5.00718C8.69367 4.80597 8.49811 4.64253 8.27331 4.52974C8.04851 4.41695 7.80059 4.35788 7.54908 4.35718C7.29757 4.35649 7.04933 4.41418 6.8239 4.52572C6.59848 4.63727 6.40202 4.79961 6.25 4.99998" stroke="white" stroke-width="1.2" stroke-linecap="round" stroke-linejoin="round"/>
</svg>
