<svg width="30" height="29" xmlns="http://www.w3.org/2000/svg" xmlns:xlink="http://www.w3.org/1999/xlink"><defs><circle id="a" cx="7.5" cy="7.5" r="7.5"/></defs><g fill="none" fill-rule="evenodd"><g fill="#303030"><path d="M24.511 11.512h-1.488V8.839c0-.642-.523-1.165-1.165-1.165h-.54V0H4.264v.853h-1.28v.852H1.705V4.69h-.54C.523 4.69 0 5.213 0 5.855V24.48h.003a1.085 1.085 0 001.091 1.1h19.083c.493 0 .927-.332 1.044-.773l4.36-11.954v-.075c0-.735-.45-1.267-1.07-1.267zm-2.653-2.985c.172 0 .312.14.312.312v2.673h-.852V8.527h.54zM20.465.853V11.512H5.428c-.1 0-.195.016-.287.041l-.025.004V.853h15.349zm-16.201.852v10.909l-.027.073-.4 1.095V1.705h.427zm-1.706.853h.426V16.12l-.426 1.169V2.559zM.853 5.855c0-.173.14-.312.312-.312h.54v14.045l-.852 2.326V5.854zM20.409 24.55a.24.24 0 01-.232.177H1.094a.235.235 0 01-.191-.094c-.027-.035-.069-.11-.053-.174l.855-2.345 1.28-3.506 1.279-3.507v.001l.823-2.26.03-.079.067-.187.012-.035a.241.241 0 01.232-.178H24.51c.162 0 .203.233.214.35L20.409 24.55z"/><path d="M7.426 6.853H17.66a.426.426 0 100-.853H7.426a.426.426 0 100 .853zM7.426 3.853h4.264a.426.426 0 100-.853H7.426a.426.426 0 100 .853zM7.426 9.853H17.66a.426.426 0 100-.853H7.426a.426.426 0 100 .853z"/></g><g transform="translate(15 14)"><mask id="b" fill="#fff"><use xlink:href="#a"/></mask><use fill="#79C930" xlink:href="#a"/><g mask="url(#b)" fill="#FFF"><g transform="translate(1 3)"><rect transform="rotate(45 8.524 4.3)" x="7.774" y="-.994" width="1.5" height="10.588" rx=".75"/><rect transform="rotate(-45 3.724 5.56)" x="2.974" y="2.303" width="1.5" height="6.516" rx=".75"/></g></g></g></g></svg>