<svg width="37" height="21" xmlns="http://www.w3.org/2000/svg"><g fill="none" fill-rule="evenodd"><path d="M25.719 7.765v2.868c0 .54.211 1.043.574 1.423v.974a.747.747 0 101.495 0v-1.324a.757.757 0 00-.332-.624.534.534 0 01-.242-.449V7.765c0-1.005.815-1.826 1.812-1.826h.612c.996 0 1.812.821 1.812 1.826v2.868c0 .183-.09.35-.242.45a.738.738 0 00-.332.623v2.762a.89.89 0 00.49.791c.356.175 2.198 1.111 3.905 2.519a.639.639 0 01.226.494v1.21h-5.24a.747.747 0 00-.748.753c0 .419.333.754.748.754h5.988a.747.747 0 00.747-.754v-1.963c0-.646-.279-1.248-.777-1.658-1.503-1.24-3.111-2.146-3.844-2.534v-2.032c.363-.38.574-.882.574-1.422V7.757c0-1.841-1.487-3.333-3.307-3.333h-.612c-1.82.008-3.307 1.5-3.307 3.34zM.748 20.989h6.078a.747.747 0 00.748-.754.747.747 0 00-.748-.753h-5.33v-1.21a.65.65 0 01.226-.494 21.074 21.074 0 013.904-2.519.877.877 0 00.49-.791v-2.762a.757.757 0 00-.332-.624.534.534 0 01-.242-.449V7.765c0-1.005.816-1.826 1.813-1.826h.611c.997 0 1.813.821 1.813 1.826v2.868c0 .183-.091.35-.242.45a.738.738 0 00-.332.623v1.385a.747.747 0 101.495 0v-1.035c.362-.38.574-.883.574-1.423V7.765c0-1.842-1.488-3.333-3.308-3.333h-.611c-1.828 0-3.308 1.499-3.308 3.333v2.868c0 .54.212 1.043.574 1.423v2.032c-.74.388-2.34 1.285-3.843 2.533A2.157 2.157 0 000 18.28v1.955c0 .419.332.754.748.754z" fill="#757575"/><path d="M22.985 7.803V4.097c0-2.26-1.82-4.093-4.062-4.093h-.793c-2.243 0-4.062 1.833-4.062 4.093v3.706c0 .67.271 1.293.74 1.75v2.853c-.884.457-3.044 1.643-5.06 3.317a2.539 2.539 0 00-.92 1.971v2.541c0 .419.331.754.747.754H27.47a.747.747 0 00.747-.754v-2.541c0-.768-.332-1.484-.921-1.97-2.016-1.667-4.176-2.861-5.06-3.318V9.553c.476-.45.748-1.08.748-1.75zm3.368 9.084c.242.198.378.495.378.807v1.788H10.33v-1.788c0-.312.136-.609.377-.806 2.22-1.842 4.63-3.067 5.09-3.295a.93.93 0 00.513-.822V9.195a.757.757 0 00-.332-.624.918.918 0 01-.408-.76V4.104a2.58 2.58 0 012.568-2.587h.792c1.42 0 2.568 1.164 2.568 2.587V7.81a.908.908 0 01-.408.761.738.738 0 00-.332.624v3.576c0 .35.204.67.513.822.453.228 2.862 1.46 5.082 3.294z" fill="#34495E"/></g></svg>