<svg width="25" height="22" xmlns="http://www.w3.org/2000/svg"><g fill="#000" fill-rule="evenodd" opacity=".5"><path d="M22.892 2.039c-2.757-2.713-7.242-2.713-9.998 0l-.415.407-.414-.407c-2.756-2.713-7.241-2.713-9.998 0a6.886 6.886 0 000 9.838l10.12 9.959a.415.415 0 00.585 0l10.12-9.959a6.886 6.886 0 000-9.838zm-.584 9.264l-9.828 9.671-9.829-9.671a6.082 6.082 0 010-8.69A6.276 6.276 0 017.066.818c1.599 0 3.198.599 4.415 1.797l.706.694a.416.416 0 00.584 0l.706-.694c2.435-2.396 6.396-2.396 8.83 0a6.082 6.082 0 010 8.689z"/><path d="M15.914 8.532h-.647v-1.44c0-1.513-1.25-2.744-2.788-2.744-1.536 0-2.787 1.23-2.787 2.743v1.441h-.647a.41.41 0 00-.413.407v5.992a.41.41 0 00.413.406h6.87a.41.41 0 00.412-.406V8.939a.41.41 0 00-.413-.407zm-5.396-1.44c0-1.065.88-1.93 1.961-1.93 1.082 0 1.962.865 1.962 1.93v1.44h-3.923v-1.44zm4.983 7.432H9.457V9.345h6.044v5.18z"/><path d="M12.066 12.462v.987a.41.41 0 00.413.407.41.41 0 00.413-.407v-.987c.5-.17.86-.635.86-1.183 0-.69-.571-1.252-1.273-1.252-.7 0-1.271.562-1.271 1.252 0 .548.36 1.014.858 1.183zm.413-1.622c.246 0 .446.197.446.439s-.2.438-.446.438a.443.443 0 01-.445-.438c0-.242.2-.439.445-.439z"/></g></svg>