<svg width="21" height="16" xmlns="http://www.w3.org/2000/svg"><g fill="#211915" fill-rule="evenodd"><path d="M20.448 9.959a3.195 3.195 0 00-.146-.939l-1.585-5.053a2.98 2.98 0 00-2.855-2.097H15L14.684.456a.55.55 0 00-.537-.43H12.79a.55.55 0 00-.538.435l-.302 1.41H1.922C.862 1.87 0 2.732 0 3.792v7.455c0 1.06.862 1.922 1.922 1.922h.4a2.467 2.467 0 002.412 1.968 2.467 2.467 0 002.413-1.968h5.795a2.467 2.467 0 002.413 1.968 2.467 2.467 0 002.42-2.01 3.169 3.169 0 001.744-.9 3.172 3.172 0 00.93-2.27zm-6.455 2.715c0-.75.611-1.362 1.362-1.362.751 0 1.362.611 1.362 1.362 0 .751-.611 1.363-1.362 1.363a1.364 1.364 0 01-1.362-1.363zm-7.897 0c0 .751-.61 1.363-1.362 1.363a1.364 1.364 0 01-1.362-1.363c0-.75.611-1.362 1.362-1.362.751 0 1.362.611 1.362 1.362zm11.632-.66a2.467 2.467 0 00-2.373-1.803c-1.15 0-2.117.792-2.388 1.858H7.122a2.467 2.467 0 00-2.388-1.858c-1.149 0-2.117.792-2.387 1.858h-.425a.822.822 0 01-.821-.821V9.515h18.195a2.09 2.09 0 01-1.568 2.5zM1.922 2.972h13.94c.532 0 1.02.22 1.368.585h-3.146a.55.55 0 00-.55.55v3.138c0 .304.246.55.55.55h4.68l.194.62H1.101V3.793c0-.453.368-.822.821-.822zM17.78 4.657l.64 2.037h-3.785V4.657h3.145zm-4.543-3.53h.47l.098.44h-.662l.094-.44z"/><path d="M4.474 6.057h.74v.74a.55.55 0 101.101 0v-.74h.741a.55.55 0 100-1.101h-.74v-.741a.55.55 0 10-1.102 0v.74h-.74a.55.55 0 100 1.102z"/></g></svg>