<svg width="20" height="20" viewBox="0 0 20 20" fill="none" xmlns="http://www.w3.org/2000/svg">
<path d="M13.6493 4.28767V3.48513C13.6493 2.46025 12.8155 1.62642 11.7906 1.62642H8.71992C7.69504 1.62642 6.86125 2.46025 6.86125 3.48513V4.28763H3.94043V18.3736H16.1422V4.28767H13.6493ZM12.4769 4.28763H8.03363V3.48513C8.03363 3.10669 8.34148 2.7988 8.71992 2.7988H11.7906C12.169 2.7988 12.4769 3.10669 12.4769 3.48513V4.28763H12.4769Z" fill="#A1D96E"/>
<path d="M2.01465 4.28762C0.90375 4.28762 0 5.19137 0 6.30223V16.3589C0 17.4698 0.90375 18.3736 2.01465 18.3736H2.76781V4.28766H2.01465V4.28762Z" fill="#A1D96E"/>
<path d="M17.9855 4.28762H17.3145V18.3736H17.9855C19.0963 18.3736 20.0001 17.4698 20.0001 16.3589V6.30223C20.0001 5.19137 19.0963 4.28762 17.9855 4.28762Z" fill="#A1D96E"/>
</svg>
