<svg width="27" height="25" xmlns="http://www.w3.org/2000/svg"><g fill="#000" fill-rule="evenodd" opacity=".499"><path d="M4.45 18.016c-.715-1.142-1.236-2.889-1.236-4.756 0-5.6 4.606-10.157 10.267-10.157 1.166 0 2.284.203 3.328.558l-1.247-1.497a11.478 11.478 0 00-2.081-.198c-6.295 0-11.416 5.066-11.416 11.293 0 2.08.582 4.023 1.398 5.334l.987-.577zM23.43 10.756c.205.8.32 1.639.32 2.504 0 5.599-4.608 10.155-10.269 10.155-2.404 0-4.611-.826-6.36-2.202l-1.017.64a11.4 11.4 0 007.377 2.698c6.296 0 11.417-5.066 11.417-11.291 0-.413-.03-.817-.073-1.216l-1.396-1.288z"/><path d="M26.516 10.17c-.143-.673-2.951-4.591-2.951-4.591s2.385-2.28 2.543-2.55c.157-.27.762-.877-.009-1.503-.77-.626-1.323-.221-1.596.02L22.18 3.604S18.02.609 17.333.556c-.686-.054-1.144.554-1.144.554l4.231 4.22-2.074 2.42-1.852-.535-1.025.624s2.033.876 2.435 1.381c.403.506.934 2.182.934 2.182l.976-.508-.456-2.208 2.355-1.853 4.035 4.377c.001 0 .91-.369.768-1.04zM17.014 9.887c-.383-.355-.993-.578-.993-.578-5.056 4.859-11.364 10.21-12.737 10.382-.52.037-.85-.083-.98-.36-.146-.317-.322-.521.05-.892L1.29 16.09C.27 17.1-.354 19.05.219 20.28c.498 1.073 1.57 1.69 2.907 1.69.108 0 .22-.005.33-.012 2.716-.2 11.53-8.485 14.168-11.019-.001 0-.227-.697-.61-1.052z"/></g></svg>