<svg width="80" height="91" viewBox="0 0 80 91" fill="none" xmlns="http://www.w3.org/2000/svg">
<path d="M75.5308 61.3166L55.5652 81.2822C54.1882 82.6592 51.7098 82.5214 50.0575 81.0067L27.2002 58.012C25.5479 56.3597 24.4464 54.2942 24.1709 52.0911L21.4171 33.9156C20.7286 29.7847 24.0332 26.4801 28.3017 27.0309L46.4773 29.7847C48.6803 30.0602 50.7458 31.1617 52.3981 32.814L75.2553 55.6712C76.7699 57.4612 76.9076 59.9397 75.5308 61.3166Z" fill="#79C930"/>
<path d="M28.9904 65.0343L24.1711 60.215L26.7872 57.5989C25.4102 56.0843 24.4464 54.1565 24.1711 52.2287L22.5188 40.9379C22.1057 40.9379 21.8303 40.9379 21.4172 40.9379C18.3879 40.9379 15.6341 40.2494 13.1555 38.8726V78.1152L21.4172 84.9999L29.6789 78.1152V75.3613L24.1712 69.8537L28.9904 65.0343Z" fill="#4977C8"/>
<path d="M52.8114 74.8107C52.3984 74.8107 52.1229 74.673 51.8476 74.3977C51.2968 73.8469 51.2968 73.0207 51.8476 72.4699L60.66 63.6575C61.2108 63.1067 62.037 63.1067 62.5878 63.6575C63.1386 64.2082 63.1386 65.0345 62.5878 65.5852L53.7754 74.3977C53.4999 74.673 53.2246 74.8107 52.8114 74.8107Z" fill="white"/>
<path d="M48.9559 70.9552C48.5428 70.9552 48.2674 70.8175 47.9921 70.5422C47.4413 69.9914 47.4413 69.1652 47.9921 68.6144L53.7752 62.8313C54.326 62.2805 55.1522 62.2805 55.703 62.8313C56.2538 63.3821 56.2538 64.2083 55.703 64.7591L49.9198 70.5422C49.6444 70.8177 49.2313 70.9552 48.9559 70.9552Z" fill="white"/>
<path d="M44.9628 67.0998C44.5498 67.0998 44.2743 66.9621 43.999 66.6868C43.4482 66.136 43.4482 65.3097 43.999 64.759L52.8115 55.9465C53.3622 55.3958 54.1885 55.3958 54.7392 55.9465C55.29 56.4973 55.29 57.3235 54.7392 57.8743L45.9268 66.6868C45.789 66.9621 45.3759 67.0998 44.9628 67.0998Z" fill="white"/>
<path d="M18.6635 76.7384C17.8372 76.7384 17.2865 76.1876 17.2865 75.3614V40.6626C17.2865 39.8364 17.8372 39.2856 18.6635 39.2856C19.4897 39.2856 20.0405 39.8364 20.0405 40.6626V75.3615C20.0405 76.1876 19.4897 76.7384 18.6635 76.7384Z" fill="#ADCAF3"/>
<path d="M21.555 34.0533C20.8665 29.9225 24.1711 26.6179 28.4396 27.1686L38.4912 28.6832C39.042 26.8932 39.455 24.9656 39.455 22.9001C39.4552 12.9862 31.4689 5 21.555 5C11.5034 5.13773 3.51715 13.124 3.51715 23.0378C3.51715 32.9516 11.5034 40.938 21.4172 40.938C21.8303 40.938 22.1057 40.938 22.5188 40.938L21.555 34.0533Z" fill="#ADCAF3"/>
<path d="M39.3174 42.3149C36.4258 42.3149 33.5342 41.6264 30.9181 40.3872C24.1711 37.0825 20.0403 30.4732 20.0403 23.0377C20.0403 22.4869 20.0403 22.0739 20.178 21.5231C20.4535 18.6316 21.2796 15.8777 22.6566 13.3992L24.9974 14.7762C23.7581 16.8415 23.0696 19.1823 22.932 21.6609C22.932 22.0739 22.932 22.4871 22.932 22.9001C22.932 29.234 26.5121 34.8795 32.2953 37.771C34.6361 38.8726 36.9769 39.4233 39.4553 39.4233V42.3149H39.3174Z" fill="white"/>
<path d="M35.1865 38.1843C33.6719 38.1843 32.4327 39.4235 32.4327 40.9381C32.4327 42.4527 33.6719 43.692 35.1865 43.692C36.7011 43.692 37.9403 42.4527 37.9403 40.9381C37.9403 39.4235 36.7012 38.1843 35.1865 38.1843ZM35.1865 46.4458C32.1572 46.4458 29.6788 43.9673 29.6788 40.9381C29.6788 37.909 32.1574 35.4304 35.1865 35.4304C38.2157 35.4304 40.6942 37.909 40.6942 40.9381C40.6942 43.9673 38.2158 46.4458 35.1865 46.4458Z" fill="white"/>
<path d="M21.4171 14.7763C19.9025 14.7763 18.6632 16.0156 18.6632 17.5301C18.6632 19.0447 19.9025 20.284 21.4171 20.284C22.9316 20.284 24.1709 19.0447 24.1709 17.5301C24.1709 16.0156 22.9318 14.7763 21.4171 14.7763ZM21.4171 23.0378C18.3878 23.0378 15.9094 20.5593 15.9094 17.5301C15.9094 14.501 18.3879 12.0225 21.4171 12.0225C24.4462 12.0225 26.9248 14.501 26.9248 17.5301C26.9248 20.5593 24.4464 23.0378 21.4171 23.0378Z" fill="#4977C8"/>
<path d="M38.6287 6.51465C36.0126 6.51465 33.5341 7.06542 31.331 8.16696C36.1504 11.3338 39.3172 16.8417 39.3172 23.0379C39.3172 25.1032 39.0418 26.8933 38.3534 28.821L37.1142 28.5456L46.4774 29.9226C48.6805 30.198 50.746 31.2996 52.3983 32.9519L52.949 33.5026C54.8768 30.7488 55.9783 27.3064 55.9783 23.7264C55.8405 14.2256 48.1297 6.51465 38.6287 6.51465Z" fill="#4977C8"/>
</svg>
