<svg width="20" height="20" viewBox="0 0 20 20" fill="none" xmlns="http://www.w3.org/2000/svg">
<g clip-path="url(#clip0)">
<path d="M19.6817 9.04074L17.5 6.94908V1.66658C17.5 1.20658 17.1267 0.833251 16.6667 0.833251H14.1667C13.7067 0.833251 13.3333 1.20658 13.3333 1.66658V2.95491L10.4325 0.174085C10.1917 -0.0575809 9.80917 -0.0575809 9.56833 0.174085L0.310833 9.04741C0.113333 9.24241 0 9.51407 0 9.79157C0 10.3657 0.4675 10.8332 1.04167 10.8332H2.5V18.1249C2.5 19.1591 3.34167 19.9999 4.375 19.9999H15.625C16.6583 19.9999 17.5 19.1591 17.5 18.1249V10.8332H18.9583C19.5325 10.8332 20 10.3657 20 9.79157C20 9.51407 19.8867 9.2424 19.6817 9.04074ZM15 12.7082C15 13.5124 14.3458 14.1666 13.5417 14.1666H11.6667V16.0416C11.6667 16.8457 11.0125 17.4999 10.2083 17.4999H9.79167C8.9875 17.4999 8.33333 16.8457 8.33333 16.0416V14.1666H6.45833C5.65417 14.1666 5 13.5124 5 12.7082V12.2916C5 11.4874 5.65417 10.8332 6.45833 10.8332H8.33333V8.95824C8.33333 8.15407 8.9875 7.49991 9.79167 7.49991H10.2083C11.0125 7.49991 11.6667 8.15407 11.6667 8.95824V10.8332H13.5417C14.3458 10.8332 15 11.4874 15 12.2916V12.7082Z" fill="#A1D96E"/>
</g>
<defs>
<clipPath id="clip0">
<rect width="20" height="20" fill="white"/>
</clipPath>
</defs>
</svg>
