<svg width="20" height="20" viewBox="0 0 20 20" fill="none" xmlns="http://www.w3.org/2000/svg">
<path d="M9.99976 0V20C15.5228 20 19.9999 15.5229 19.9999 10.0001C19.9999 4.47697 15.5228 0 9.99976 0Z" fill="#214391"/>
<path d="M9.99985 0C4.47714 0 0 4.47697 0 10.0001C0 15.5229 4.47714 20 9.99985 20C15.5229 20 15.5229 0 9.99985 0Z" fill="#2B479D"/>
<path d="M9.98291 1.73438L10.2268 2.48501H11.0163L10.3777 2.94892L10.6216 3.69956L9.98291 3.23536L9.34438 3.69956L9.58834 2.94892L8.94946 2.48501H9.73895L9.98291 1.73438Z" fill="#F8D12E"/>
<path d="M9.98291 15.9048L10.2268 16.6558H11.0163L10.3777 17.1197L10.6216 17.8703L9.98291 17.4064L9.34438 17.8703L9.58834 17.1197L8.94946 16.6558H9.73895L9.98291 15.9048Z" fill="#F8D12E"/>
<path d="M13.8719 2.99036L14.1157 3.74116H14.9052L14.2665 4.20536L14.5104 4.956L13.8719 4.4918L13.2332 4.956L13.4772 4.20536L12.8386 3.74116H13.6281L13.8719 2.99036Z" fill="#F8D12E"/>
<path d="M16.5254 5.60815L16.7692 6.35879H17.5587L16.92 6.82286L17.1639 7.5735L16.5254 7.1096L15.8867 7.5735L16.1306 6.82286L15.4919 6.35879H16.2813L16.5254 5.60815Z" fill="#F8D12E"/>
<path d="M16.5886 12.2224L16.8324 12.9733H17.6219L16.9832 13.4372L17.2273 14.1877L16.5886 13.724L15.9499 14.1877L16.1939 13.4372L15.5552 12.9733H16.3447L16.5886 12.2224Z" fill="#F8D12E"/>
<path d="M3.53645 5.60815L3.78025 6.35879H4.56956L3.93102 6.82286L4.17482 7.5735L3.53645 7.1096L2.89779 7.5735L3.14171 6.82286L2.50317 6.35879H3.29266L3.53645 5.60815Z" fill="#F8D12E"/>
<path d="M17.1403 8.76257L17.3841 9.51321H18.1736L17.535 9.97711L17.7789 10.7279L17.1403 10.2642L16.5017 10.7279L16.7458 9.97711L16.1069 9.51321H16.8962L17.1403 8.76257Z" fill="#F8D12E"/>
<path d="M2.93331 8.76257L3.1771 9.51321H3.96641L3.32775 9.97711L3.57184 10.7279L2.93331 10.2642L2.2946 10.7279L2.53856 9.97711L1.8999 9.51321H2.68934L2.93331 8.76257Z" fill="#F8D12E"/>
<path d="M3.45089 12.2224L3.69468 12.9733H4.48399L3.8455 13.4372L4.08925 14.1877L3.45089 13.724L2.81222 14.1877L3.05614 13.4372L2.41748 12.9733H3.20696L3.45089 12.2224Z" fill="#F8D12E"/>
<path d="M13.9865 14.952L14.2303 15.7027H15.0198L14.381 16.1669L14.6251 16.9175L13.9865 16.4536L13.3477 16.9175L13.5918 16.1669L12.9531 15.7027H13.7426L13.9865 14.952Z" fill="#F8D12E"/>
<path d="M6.2198 2.99036L6.46355 3.74116H7.25304L6.61437 4.20536L6.85846 4.956L6.2198 4.4918L5.58127 4.956L5.82519 4.20536L5.18652 3.74116H5.97584L6.2198 2.99036Z" fill="#F8D12E"/>
<path d="M5.93172 14.9039L6.17564 15.6549H6.96512L6.32646 16.1186L6.57038 16.8693L5.93172 16.4057L5.29318 16.8693L5.5371 16.1186L4.89844 15.6549H5.68775L5.93172 14.9039Z" fill="#F8D12E"/>
</svg>
