<svg width="18" height="18" xmlns="http://www.w3.org/2000/svg"><g fill="#303030" fill-rule="evenodd"><path d="M17.653 8.125L8.903 0 .153 8.125a.305.305 0 00.415.447l1.013-.94v10.174h14.644V7.632l1.013.94a.304.304 0 00.43-.016.305.305 0 00-.015-.431zm-2.038 9.071H2.19V7.066L8.903.832l6.712 6.232v10.131z"/><path d="M4.022 10.79h4.27V6.517h-4.27v4.271zm.61-3.662h3.05v3.051h-3.05V7.13zM13.784 6.518h-4.27v4.271h4.27V6.52zm-.61 3.661h-3.05V7.13h3.05v3.05zM4.022 16.28h4.27v-4.27h-4.27v4.27zm.61-3.66h3.05v3.05h-3.05v-3.05zM13.784 12.01h-4.27v4.27h4.27v-4.27zm-.61 3.66h-3.05v-3.05h3.05v3.05z"/></g></svg>