<svg width="25" height="25" xmlns="http://www.w3.org/2000/svg"><g fill="#000" fill-rule="evenodd" opacity=".503"><path d="M12.5 21.825c1.077 0 1.953-.89 1.953-1.984v-.397c0-1.094-.876-1.984-1.953-1.984s-1.953.89-1.953 1.984v.397c0 1.094.876 1.984 1.953 1.984zm-1.172-2.38c0-.657.526-1.191 1.172-1.191.646 0 1.172.534 1.172 1.19v.397c0 .657-.526 1.19-1.172 1.19a1.183 1.183 0 01-1.172-1.19v-.397zM14.066 21.838h-.332a.39.39 0 00-.332.19c-.228.375-.557.591-.902.591s-.674-.216-.902-.592a.39.39 0 00-.332-.189h-.332c-.878 0-1.559.847-1.559 1.575v.86c0 .4.321.727.716.727h4.82a.721.721 0 00.714-.726v-.861c0-.346-.158-.732-.424-1.034-.306-.349-.709-.54-1.135-.54zm.778 2.368h-4.688v-.793c0-.268.303-.781.778-.781h.125c.37.499.885.78 1.441.78s1.071-.281 1.44-.78h.126c.475 0 .778.513.778.78v.794zM12.5 4.365c1.077 0 1.953-.89 1.953-1.984v-.397C14.453.89 13.577 0 12.5 0s-1.953.89-1.953 1.984v.397c0 1.094.876 1.984 1.953 1.984zm-1.172-2.38c0-.657.526-1.191 1.172-1.191.646 0 1.172.534 1.172 1.19v.397c0 .656-.526 1.19-1.172 1.19a1.183 1.183 0 01-1.172-1.19v-.397zM14.066 4.378h-.332a.39.39 0 00-.332.189c-.228.376-.557.592-.902.592s-.674-.216-.902-.592a.39.39 0 00-.332-.189h-.332c-.878 0-1.559.846-1.559 1.574v.86c0 .401.321.728.716.728h4.82a.721.721 0 00.714-.726v-.862c0-.345-.158-.732-.424-1.034-.306-.348-.709-.54-1.135-.54zm.778 2.368h-4.688v-.794c0-.268.303-.78.778-.78h.125c.37.499.885.78 1.441.78s1.071-.281 1.44-.78h.126c.475 0 .778.512.778.78v.794zM19.922 10.714v.397c0 1.094.876 1.984 1.953 1.984s1.953-.89 1.953-1.984v-.397c0-1.094-.876-1.984-1.953-1.984s-1.953.89-1.953 1.984zm.781 0c0-.656.526-1.19 1.172-1.19.646 0 1.172.534 1.172 1.19v.397c0 .657-.526 1.19-1.172 1.19a1.183 1.183 0 01-1.172-1.19v-.397zM24.576 13.648c-.306-.348-.709-.54-1.135-.54h-.332a.39.39 0 00-.332.19c-.228.375-.557.59-.902.59s-.674-.215-.902-.59a.39.39 0 00-.332-.19h-.332c-.878 0-1.559.847-1.559 1.575v.86c0 .4.321.727.716.727h4.82a.721.721 0 00.714-.726v-.861c0-.346-.158-.733-.424-1.035zm-.357 1.828H19.53v-.793c0-.269.303-.781.778-.781h.125c.37.499.885.78 1.441.78s1.071-.281 1.44-.78h.126c.475 0 .778.512.778.78v.794zM3.125 13.095c1.077 0 1.953-.89 1.953-1.984v-.397c0-1.094-.876-1.984-1.953-1.984s-1.953.89-1.953 1.984v.397c0 1.094.876 1.984 1.953 1.984zm-1.172-2.38c0-.657.526-1.191 1.172-1.191.646 0 1.172.534 1.172 1.19v.397c0 .657-.526 1.19-1.172 1.19a1.183 1.183 0 01-1.172-1.19v-.397zM6.25 15.544v-.861c0-.346-.158-.733-.424-1.035-.306-.348-.709-.54-1.135-.54h-.332a.39.39 0 00-.332.19c-.228.375-.557.59-.902.59s-.674-.215-.902-.59a.39.39 0 00-.332-.19h-.332c-.878 0-1.559.847-1.559 1.575v.86c0 .4.321.727.716.727h4.82a.721.721 0 00.714-.726zm-.781-.068H.78v-.793c0-.269.303-.781.778-.781h.125c.37.499.885.78 1.441.78s1.071-.281 1.44-.78h.126c.475 0 .778.512.778.78v.794zM8.82 21.46a9.493 9.493 0 01-4.547-4.19.387.387 0 00-.53-.158.4.4 0 00-.155.539 10.282 10.282 0 004.926 4.54.39.39 0 00.513-.21.4.4 0 00-.206-.52zM21.257 17.113a.387.387 0 00-.53.157 9.493 9.493 0 01-4.547 4.19.4.4 0 00-.206.521.39.39 0 00.513.21 10.282 10.282 0 004.925-4.54.4.4 0 00-.155-.538zM15.501 3.673a9.433 9.433 0 015.009 4.073.39.39 0 00.537.133.4.4 0 00.13-.546 10.217 10.217 0 00-5.426-4.412.39.39 0 00-.495.249.398.398 0 00.245.503zM3.953 7.878a.384.384 0 00.537-.132A9.433 9.433 0 019.5 3.673a.398.398 0 00.245-.503.39.39 0 00-.495-.25 10.217 10.217 0 00-5.427 4.413.4.4 0 00.13.545z"/></g></svg>