<svg width="22" height="24" xmlns="http://www.w3.org/2000/svg"><path d="M21.965 3.936a4.806 4.806 0 00-1.14-2.34c0-.002-.002-.003-.003-.005-.301-.343-.8-.815-1.468-1.114L19.339.47A4.68 4.68 0 0017.284 0c-1.064 0-2.07.346-2.91 1.002l-.006.004c-.722.57-1.198 1.382-1.257 1.486a4.844 4.844 0 00-.56 2.812.465.465 0 00.244.363 1.7 1.7 0 00.27.114 4.389 4.389 0 002.21 2.576 4.305 4.305 0 00-1.18.896.468.468 0 00.02.657.458.458 0 00.65-.02c.165-.177.346-.334.54-.47.28.797.998 1.381 1.816 1.381h.068c.82 0 1.537-.626 1.8-1.473a3.441 3.441 0 011.595 2.885v4.829l-4.19 2.744a.467.467 0 00-.136.643.46.46 0 00.637.137l4.4-2.881a.466.466 0 00.21-.39v-5.082c0-1.646-.91-3.122-2.35-3.858a4.424 4.424 0 002.422-3.686c.13-.12.243-.259.334-.416a.467.467 0 00.054-.317zM17.19 9.872h-.068c-.552 0-1.018-.54-1.018-1.178V8.67a4.34 4.34 0 002.068.039c-.036.628-.48 1.163-.982 1.163zm.028-1.987A3.445 3.445 0 0114.056 5.8c.64-.183 1.13-.73 1.232-1.405.275.036.554.054.833.054.937 0 1.84-.199 2.649-.578a1.726 1.726 0 001.822 1.242c-.325 1.58-1.72 2.773-3.375 2.773zm3.205-3.694a.803.803 0 01-.799-.806v-.258a.466.466 0 00-.238-.407.457.457 0 00-.468.013 5.208 5.208 0 01-2.796.785c-.398 0-.794-.043-1.176-.126a.458.458 0 00-.387.092.467.467 0 00-.171.362v.282a.803.803 0 01-.94.794 3.906 3.906 0 01.466-1.972c.004-.008.42-.736 1.022-1.21l.003-.003A3.779 3.779 0 0117.284.93a3.773 3.773 0 011.696.396c.512.23.906.602 1.147.875a3.874 3.874 0 01.894 1.715.798.798 0 01-.6.275zm-7.13 11.895a3.572 3.572 0 001.747-3.074 3.569 3.569 0 00-.425-1.693 3.53 3.53 0 00-3.107-1.871 3.53 3.53 0 00-3.138 1.929 3.567 3.567 0 00-.394 1.635c0 1.308.702 2.453 1.746 3.073a3.93 3.93 0 00-2.11 3.492v1.696c0 .159.08.307.213.392l3.436 2.207a.457.457 0 00.493.001l3.444-2.195a.466.466 0 00.215-.396l-.008-1.707a3.944 3.944 0 00-2.111-3.49zm-1.785-5.708c.802 0 1.52.366 2 .942-.621.18-1.302.274-2 .274s-1.379-.094-2-.274a2.597 2.597 0 012-.942zm-2.61 2.634c0-.302.05-.593.143-.863.76.246 1.604.374 2.467.374s1.706-.128 2.467-.374c.093.27.144.56.144.863 0 1.452-1.171 2.634-2.61 2.634-1.44 0-2.611-1.182-2.611-2.634zm3.428 3.467c-.058.44-.44.737-.786.737h-.056a.875.875 0 01-.826-.745 3.499 3.499 0 001.668.008zm-.817 6.45l-2.976-1.911v-1.44c0-1.023.512-1.956 1.34-2.506.288.663.967 1.074 1.611 1.074h.056c.695 0 1.31-.457 1.576-1.09a3.02 3.02 0 011.367 2.524l.007 1.45-2.98 1.9zm-3.31-12.478a.467.467 0 00-.147-.64 4.28 4.28 0 00-.435-.24 4.36 4.36 0 001.472-1.24c.165.058.342.09.526.09.885 0 1.605-.728 1.605-1.62V5.644c0-1.469-.556-2.86-1.565-3.917A5.546 5.546 0 005.848.005a5.568 5.568 0 00-4.185 1.654A5.614 5.614 0 00.03 5.644V6.8c0 .894.72 1.62 1.606 1.62.184 0 .36-.031.525-.089a4.353 4.353 0 001.648 1.326 4.316 4.316 0 00-2.3 3.832v3.806c0 .157.078.304.21.39l4.18 2.736a.455.455 0 00.636-.137.467.467 0 00-.135-.643l-3.97-2.599V13.49c0-1.075.496-2.063 1.328-2.7.285.835 1.017 1.462 1.827 1.462h.069c.88 0 1.581-.803 1.828-1.7.028.016.055.032.082.05.216.135.5.068.635-.15zM2.776 3.955a3.355 3.355 0 00-.455 1.69V6.8a.692.692 0 01-.684.69.688.688 0 01-.684-.69V5.645C.952 3.064 2.955.993 5.512.93c.096-.002.194-.001.3.003 2.515.1 4.486 2.17 4.486 4.71V6.8c0 .38-.307.69-.685.69a.676.676 0 01-.421-.147.692.692 0 01-.263-.543V5.645c0-1.641-1.211-3.06-2.818-3.299a.457.457 0 00-.354.097.466.466 0 00-.173.327 4.746 4.746 0 01-.174.956H3.172a.46.46 0 00-.397.23zm2.879 7.366h-.069c-.52 0-1.032-.638-1.032-1.288 0-.04-.005-.08-.015-.117a4.369 4.369 0 002.117.014c-.031.676-.538 1.391-1.001 1.391zm-.03-2.198A3.416 3.416 0 012.91 7.787c.208-.274.332-.616.332-.987V5.645c0-.343.073-.68.21-.989h2.292a.46.46 0 00.432-.304c.115-.314.202-.638.26-.969a2.42 2.42 0 011.573 2.262V6.8c0 .371.124.713.333.987a3.416 3.416 0 01-2.716 1.336z" fill="#000" fill-rule="evenodd" opacity=".498"/></svg>