<svg width="20" height="20" viewBox="0 0 20 20" fill="none" xmlns="http://www.w3.org/2000/svg">
<path d="M19.5072 9.80473C19.1981 9.49607 18.7873 9.3213 18.3507 9.3131L17.9112 9.30482L17.7965 8.88049C17.118 6.37161 15.2865 4.40383 12.9673 3.48521C13.2453 3.97817 13.4042 4.54678 13.4042 5.1519C13.4042 7.02896 11.877 8.55609 9.99998 8.55609C8.12292 8.55609 6.59579 7.02896 6.59579 5.1519H7.7669C7.7669 6.38321 8.76867 7.38498 9.99998 7.38498C11.2313 7.38498 12.2331 6.38321 12.2331 5.1519C12.2331 3.92059 11.2313 2.91882 9.99998 2.91882C9.88615 2.91882 9.77275 2.92124 9.65981 2.92596H9.55406C8.4554 2.92288 7.56254 2.02831 7.56254 0.928982H6.39143C6.39143 1.68544 6.65829 2.38058 7.10237 2.92596H6.5354C5.43416 2.92596 4.53826 2.03006 4.53826 0.928825H3.36715C3.36715 2.46107 4.46058 3.74254 5.90807 4.03446C4.13052 5.08019 2.76793 6.79314 2.20349 8.88049L2.08876 9.30482L1.64924 9.3131C1.21265 9.3213 0.801822 9.49607 0.492375 9.80516C0.175003 10.1228 0 10.5456 0 10.995C0 11.9052 0.739909 12.6597 1.64932 12.6768L2.0888 12.6852L2.20353 13.1095C3.15275 16.6196 6.35875 19.0711 9.99998 19.0711C13.6412 19.0711 16.8472 16.6196 17.7964 13.1095L17.9112 12.6852L18.3506 12.6768C19.2601 12.6597 20 11.9052 20 10.995C20 10.5456 19.825 10.1228 19.5072 9.80473ZM6.21943 10.3318C5.70848 10.3318 5.29277 10.7476 5.29277 11.2585H4.12166C4.12166 10.1018 5.06272 9.16074 6.21943 9.16074C7.37614 9.16074 8.31721 10.1018 8.31721 11.2585H7.14609C7.14613 10.7476 6.73043 10.3318 6.21943 10.3318ZM10 16.3585C8.72866 16.3585 7.53686 15.6772 6.8897 14.5805L7.8983 13.9854C8.33583 14.7268 9.14116 15.1874 10 15.1874C10.8589 15.1874 11.6642 14.7268 12.1017 13.9854L13.1103 14.5805C12.4632 15.6772 11.2714 16.3585 10 16.3585ZM14.7072 11.2585C14.7072 10.7476 14.2915 10.3318 13.7806 10.3318C13.2696 10.3318 12.8539 10.7476 12.8539 11.2585H11.6828C11.6828 10.1018 12.6239 9.16074 13.7806 9.16074C14.9373 9.16074 15.8783 10.1018 15.8783 11.2585H14.7072Z" fill="#A1D96E"/>
</svg>
