<svg width="32" height="40" xmlns="http://www.w3.org/2000/svg"><g fill="#79C930" fill-rule="evenodd"><path d="M26 16.667H9.333a.666.666 0 100 1.333H26a.666.666 0 100-1.333zM9.333 12.667H16a.666.666 0 100-1.334H9.333a.666.666 0 100 1.334zM26 22H9.333a.666.666 0 100 1.333H26A.666.666 0 1026 22zM26 27.333H9.333a.666.666 0 100 1.334H26a.666.666 0 100-1.334zM26 32.667H9.333a.666.666 0 100 1.333H26a.666.666 0 100-1.333z"/><path d="M28.667 9.724V0H0v36.667h3.333V40H32V13.057l-3.333-3.333zm-6-4.115l6 6 1.057 1.058h-7.057V5.609zM1.333 35.333v-34h26v7.058l-5.057-5.058H3.333v32h-2zm3.334 3.334v-34h16.666V14h9.334v24.667h-26z"/></g></svg>