<svg width="18" height="15" xmlns="http://www.w3.org/2000/svg"><g fill="#303030" fill-rule="evenodd"><path d="M16.56 3.15h-2.557l-1.2-3H5.197l-1.2 3H3.6v-1.5H1.8v1.5h-.36C.646 3.15 0 3.796 0 4.59v8.81c0 .8.65 1.45 1.45 1.45h15.1c.8 0 1.45-.65 1.45-1.45V4.59c0-.794-.646-1.44-1.44-1.44zM2.4 2.25H3v.9h-.6v-.9zm15 11.15a.85.85 0 01-.85.85H1.45a.85.85 0 01-.85-.85V4.59a.84.84 0 01.84-.84h2.963l1.2-3h6.794l1.2 3h2.963a.84.84 0 01.84.84v8.81z"/><path d="M9 2.85a5.406 5.406 0 00-5.4 5.4c0 2.977 2.422 5.4 5.4 5.4 2.977 0 5.4-2.423 5.4-5.4 0-2.978-2.423-5.4-5.4-5.4zm0 10.2a4.806 4.806 0 01-4.8-4.8c0-2.647 2.153-4.8 4.8-4.8s4.8 2.153 4.8 4.8-2.153 4.8-4.8 4.8z"/><path d="M9 4.65a3.604 3.604 0 00-3.6 3.6c0 1.985 1.615 3.6 3.6 3.6s3.6-1.615 3.6-3.6-1.615-3.6-3.6-3.6zm0 6.6c-1.654 0-3-1.346-3-3s1.346-3 3-3 3 1.346 3 3-1.346 3-3 3zM15.6 4.35a1.201 1.201 0 000 2.4 1.201 1.201 0 000-2.4zm0 1.8a.6.6 0 11.001-1.201.6.6 0 01-.001 1.201z"/></g></svg>