<svg width="26" height="21" xmlns="http://www.w3.org/2000/svg"><g fill="#000" fill-rule="evenodd" opacity=".489"><path d="M7.528 9.568c0 .985.79 1.787 1.762 1.787.973 0 1.763-.802 1.763-1.787 0-.986-.79-1.788-1.763-1.788-.972 0-1.762.802-1.762 1.788zm2.644 0a.888.888 0 01-.882.893.888.888 0 01-.881-.893c0-.493.395-.894.881-.894s.882.4.882.894zM8.549 17.686c-2.365.2-4.445-1.587-4.642-3.982a.433.433 0 00-.475-.408.444.444 0 00-.402.482c.224 2.739 2.495 4.816 5.158 4.816.144 0 .288-.005.434-.018a.444.444 0 00.402-.482.435.435 0 00-.475-.408z"/><path d="M25.838 12.228a1.768 1.768 0 00-.18-1.478l-4.26-6.838a1.687 1.687 0 00-2.233-.594l-.205.116c-.02-.016-.041-.036-.06-.05a9.11 9.11 0 00-.765-.69c-3.7-3.02-8.97-3.34-13.114-.796C2.612 3.378 1.1 5.28.533 7.522c-.087.264-2.076 6.519 2.235 11.352.208.258 1.319 1.26 6.238 1.7a40.85 40.85 0 003.643.16 45.37 45.37 0 007.3-.604c2.054-.335 3.685-.713 4.845-1.124a.444.444 0 00.27-.274c.045-.128 1.06-3.143.06-5.401a.472.472 0 00-.027-.05l-.067-.11c.38-.19.673-.522.808-.943zm-1.543 6.006c-1.096.366-2.604.707-4.487 1.014-3.666.598-7.275.744-10.725.436-4.7-.42-5.619-1.362-5.622-1.362a.5.5 0 00-.03-.037C-.54 13.845 1.35 7.864 1.379 7.775c.516-2.039 1.895-3.759 4.1-5.112C9.305.313 14.17.605 17.582 3.391c.258.21.45.387.569.502l-3.79 2.144a2.2 2.2 0 01-.587.229l-.121.028c-.683.16-1.827.427-3.948-.015-1.146-.239-2.291.211-2.993 1.174a3.015 3.015 0 00-.272 3.151c.016.032.027.065.044.097v.001a7.362 7.362 0 001.115 1.54 7.776 7.776 0 003.746 2.21c.09.022.194.052.306.084l.08.022c.841.24 2.233.636 4.296.636 2.033 0 4.72-.385 8.174-1.684l.129.214c.705 1.623.16 3.836-.036 4.51zm-8.493-3.946c-1.828-.027-3.076-.376-3.834-.592l-.302-.084a6.912 6.912 0 01-2.825-1.424 6.58 6.58 0 01-1.583-1.917 2.122 2.122 0 01-.252-.866 2.159 2.159 0 01.601-1.642c.02-.022.043-.041.064-.062.047-.045.094-.089.144-.129l.078-.06c.05-.036.1-.07.152-.102.027-.016.054-.033.082-.048.059-.033.12-.061.182-.088.022-.009.043-.02.064-.028.085-.033.171-.06.26-.081.015-.004.032-.005.047-.008a1.91 1.91 0 01.22-.035c.03-.003.062-.004.092-.006.052-.002.104-.003.157-.001.126.002.253.012.38.039.578.12 1.094.192 1.554.228.155 3.143 2.026 5.752 4.719 6.906zM25 11.95a.7.7 0 01-.405.45c-.224.09-.435.164-.652.246-.299.112-.596.223-.882.322l-.352.116c-.289.096-.576.189-.852.272-.102.03-.2.056-.3.084-.283.081-.563.16-.833.227l-.241.056c-.28.067-.557.13-.822.184l-.177.033c-.184.036-.362.066-.539.095-3.777-.003-6.759-2.88-6.982-6.628a8.36 8.36 0 001.888-.243l.117-.028c.287-.065.564-.173.823-.32l4.318-2.443.477-.27a.807.807 0 011.066.286l4.26 6.838a.879.879 0 01.088.723z"/></g></svg>