<svg width="39" height="39" viewBox="0 0 39 39" fill="none" xmlns="http://www.w3.org/2000/svg">
<path d="M19.5007 0C8.72697 0 0 8.72697 0 19.5007C0 30.2691 8.72697 39 19.5007 39C30.2744 39 38.9987 30.2691 38.9987 19.5007C38.9987 8.72697 30.2744 0 19.5007 0ZM19.5007 35.819C10.4872 35.819 3.18101 28.5142 3.18101 19.4993C3.18101 10.4832 10.4872 3.17572 19.5007 3.17572C28.5142 3.17572 35.8216 10.4845 35.8216 19.5007C35.8216 28.5142 28.5142 35.819 19.5007 35.819Z" fill="#F2C94C"/>
<path d="M19.5007 35.819C10.4872 35.819 3.18101 28.5142 3.18101 19.4993C3.18101 10.4832 10.4872 3.17572 19.5007 3.17572C28.5142 3.17572 35.8216 10.4845 35.8216 19.5007C35.8216 28.5142 28.5142 35.819 19.5007 35.819Z" fill="#F2C94C"/>
<path d="M21.5738 23.7183L22.3661 7.396H16.6709L17.4658 23.7183H21.5738Z" fill="white"/>
<path d="M19.5179 25.5154C17.6098 25.5154 16.2761 26.8504 16.2761 28.7967C16.2761 30.6692 17.5728 32.0741 19.4426 32.0741H19.5179C21.4629 32.0741 22.724 30.6692 22.724 28.7967C22.6883 26.8504 21.4273 25.5154 19.5179 25.5154Z" fill="white"/>
</svg>
