<svg width="40" height="40" xmlns="http://www.w3.org/2000/svg"><g fill="none" fill-rule="evenodd"><circle fill="#F0F0F0" cx="20" cy="20" r="20"/><g fill="#D80027"><path d="M19.13 20H40c0-1.805-.24-3.554-.689-5.217h-20.18V20zM19.13 9.565h17.935a20.105 20.105 0 00-4.615-5.217H19.13v5.217zM20 40c4.707 0 9.033-1.627 12.45-4.348H7.55A19.914 19.914 0 0020 40zM2.935 30.435h34.13a19.88 19.88 0 002.246-5.218H.689a19.88 19.88 0 002.246 5.218z"/></g><path d="M9.264 3.123h1.823L9.392 4.355l.647 1.993-1.695-1.232-1.695 1.232.56-1.722a20.11 20.11 0 00-3.88 4.323h.584l-1.08.784c-.167.28-.328.566-.483.855l.515 1.586-.961-.699a19.81 19.81 0 00-.654 1.553l.568 1.747h2.095l-1.695 1.232L2.865 18 1.17 16.768l-1.015.738C.053 18.323 0 19.156 0 20h20V0c-3.95 0-7.634 1.146-10.736 3.123zM10.04 18l-1.695-1.232L6.649 18l.647-1.993-1.695-1.232h2.095l.648-1.992.647 1.992h2.096l-1.695 1.232.647 1.993zm-.647-7.819l.647 1.993-1.695-1.232-1.695 1.232.647-1.993-1.695-1.232h2.095l.648-1.993.647 1.993h2.096l-1.695 1.232zM17.213 18l-1.695-1.232L13.823 18l.647-1.993-1.695-1.232h2.095l.648-1.992.647 1.992h2.096l-1.695 1.232.647 1.993zm-.647-7.819l.647 1.993-1.695-1.232-1.695 1.232.647-1.993-1.695-1.232h2.095l.648-1.993.647 1.993h2.096l-1.695 1.232zm0-5.826l.647 1.993-1.695-1.232-1.695 1.232.647-1.993-1.695-1.232h2.095l.648-1.993.647 1.993h2.096l-1.695 1.232z" fill="#0052B4"/></g></svg>