<svg width="48" height="40" xmlns="http://www.w3.org/2000/svg"><g fill="#79C930" fill-rule="evenodd"><path d="M44.16 8.4h-6.818l-3.2-8H13.858l-3.2 8H9.6v-4H4.8v4h-.96A3.843 3.843 0 000 12.24v23.494A3.87 3.87 0 003.866 39.6h40.268A3.87 3.87 0 0048 35.734V12.239A3.843 3.843 0 0044.16 8.4zM6.4 6H8v2.4H6.4V6zm40 29.734A2.269 2.269 0 0144.134 38H3.866A2.27 2.27 0 011.6 35.734V12.239A2.242 2.242 0 013.84 10H11.741l3.2-8h18.116l3.2 8h7.903a2.242 2.242 0 012.239 2.24v23.494z"/><path d="M24 7.6C16.06 7.6 9.6 14.06 9.6 22S16.06 36.4 24 36.4 38.4 29.94 38.4 22 31.94 7.6 24 7.6zm0 27.2c-7.058 0-12.8-5.742-12.8-12.8 0-7.058 5.742-12.8 12.8-12.8 7.058 0 12.8 5.742 12.8 12.8 0 7.058-5.742 12.8-12.8 12.8z"/><path d="M24 12.4c-5.294 0-9.6 4.306-9.6 9.6s4.306 9.6 9.6 9.6 9.6-4.306 9.6-9.6-4.306-9.6-9.6-9.6zM24 30c-4.411 0-8-3.589-8-8s3.589-8 8-8 8 3.589 8 8-3.589 8-8 8zM41.6 11.6a3.203 3.203 0 00-3.2 3.2c0 1.765 1.435 3.2 3.2 3.2 1.765 0 3.2-1.435 3.2-3.2 0-1.765-1.435-3.2-3.2-3.2zm0 4.8c-.882 0-1.6-.718-1.6-1.6 0-.882.718-1.6 1.6-1.6.882 0 1.6.718 1.6 1.6 0 .882-.718 1.6-1.6 1.6z"/></g></svg>