<svg width="14" height="16" xmlns="http://www.w3.org/2000/svg"><g fill="#000" fill-rule="evenodd"><path d="M3.937 9.245c.144 0 .28.057.383.16a.293.293 0 00.419 0 .305.305 0 000-.425 1.118 1.118 0 00-1.604 0 .305.305 0 000 .426.293.293 0 00.419 0 .534.534 0 01.383-.161zM9.27 8.98a.305.305 0 000 .426.293.293 0 00.42 0 .536.536 0 01.765 0 .293.293 0 00.42 0 .305.305 0 000-.426 1.122 1.122 0 00-1.605 0zM10.07 11.95a4.292 4.292 0 01-6.132 0 .293.293 0 00-.419 0 .305.305 0 000 .427 4.873 4.873 0 003.485 1.465 4.873 4.873 0 003.486-1.465.305.305 0 000-.426.293.293 0 00-.42 0z"/><path d="M13.996 9.57c0-.82-.582-1.501-1.347-1.643V2.888c0-.654-.32-1.26-.856-1.62a1.883 1.883 0 00-1.693-.215L8.24.411A7.268 7.268 0 003.889.265C2.033.785.969 1.885.806 3.449a2.3 2.3 0 00-.34.65l-.144.434a.52.52 0 00.213.61.5.5 0 00.632-.067c.06-.058.125-.107.193-.148v2.999A1.665 1.665 0 00.013 9.569c0 .85.63 1.555 1.44 1.657a5.816 5.816 0 001.556 3.039 5.53 5.53 0 003.995 1.706h.001a5.562 5.562 0 003.99-1.68 5.728 5.728 0 001.57-3.066 1.663 1.663 0 001.43-1.656zm-2.53-7.8c.375.252.59.66.59 1.118V6.83A1.947 1.947 0 0110.43 4.9l-.024-3.312a1.28 1.28 0 011.06.182zM.97 4.464l.058-.173c.15-.454.486-.822.919-1.01.433-.19.927-.182 1.354.02a2.24 2.24 0 002.638-.558l.073-.084a.305.305 0 00-.026-.425.293.293 0 00-.418.026l-.073.084a1.65 1.65 0 01-1.944.412 2.221 2.221 0 00-1.994.047C1.9 1.87 2.735 1.214 4.047.846a6.686 6.686 0 014.002.136l1.764.608.023 1.556A5.199 5.199 0 016.6 5.22a5.14 5.14 0 01-3.84-.77 1.584 1.584 0 00-1.79.016zM.606 9.57c0-.484.319-.894.754-1.024v1.632c0 .141.005.281.015.42a1.067 1.067 0 01-.77-1.028zm9.97 4.296a4.978 4.978 0 01-3.571 1.504 4.946 4.946 0 01-3.574-1.527 5.234 5.234 0 01-1.478-3.665V4.786c.168.012.334.067.484.167a5.722 5.722 0 004.274.858 5.769 5.769 0 003.127-1.73V4.9c0 1.307.97 2.388 2.218 2.538v2.797a5.144 5.144 0 01-1.48 3.631zm2.061-3.268c.008-.12.012-.241.012-.363v-1.69c.435.131.754.54.754 1.025 0 .489-.324.901-.766 1.028z"/></g></svg>