<svg width="20" height="20" viewBox="0 0 20 20" fill="none" xmlns="http://www.w3.org/2000/svg">
<path d="M6.35 13.7214L6.64375 13.3913C6.42914 12.7054 6.42856 11.9503 6.65781 11.253C4.96953 12.1805 2.83215 11.8109 1.55625 10.3018C0.608594 11.0534 0 12.2147 0 13.5155V19.3749C0 19.6983 0.2625 19.9608 0.585938 19.9608H5.41328C5.34805 19.7776 5.3125 19.5803 5.3125 19.3749V16.4452C5.3125 15.4405 5.68086 14.4729 6.35 13.7214Z" fill="#79C930" fill-opacity="0.7"/>
<path d="M4.6875 10.5858C6.30552 10.5858 7.61719 9.27414 7.61719 7.65612C7.61719 6.0381 6.30552 4.72644 4.6875 4.72644C3.06948 4.72644 1.75781 6.0381 1.75781 7.65612C1.75781 9.27414 3.06948 10.5858 4.6875 10.5858Z" fill="#79C930" fill-opacity="0.7"/>
<path d="M18.4438 10.3018C17.1656 11.8137 15.0268 12.1792 13.3423 11.2526C13.5712 11.9513 13.5712 12.7044 13.3563 13.3913L13.6501 13.7214C14.3192 14.4729 14.6876 15.4405 14.6876 16.4452V19.3749C14.6876 19.5803 14.6521 19.7776 14.5868 19.9608H19.4142C19.7376 19.9608 20.0001 19.6983 20.0001 19.3749V13.5155C20.0001 12.2147 19.3915 11.0534 18.4438 10.3018Z" fill="#79C930" fill-opacity="0.7"/>
<path d="M15.3125 10.5858C16.9305 10.5858 18.2422 9.27414 18.2422 7.65612C18.2422 6.0381 16.9305 4.72644 15.3125 4.72644C13.6945 4.72644 12.3828 6.0381 12.3828 7.65612C12.3828 9.27414 13.6945 10.5858 15.3125 10.5858Z" fill="#79C930" fill-opacity="0.7"/>
<path d="M10 15.8593C8.87344 15.8593 7.86914 15.3269 7.22539 14.5003C6.76445 15.0183 6.48438 15.6995 6.48438 16.4452V19.3749C6.48438 19.6984 6.74688 19.9609 7.07031 19.9609H12.9297C13.2531 19.9609 13.5156 19.6984 13.5156 19.3749V16.4452C13.5156 15.6995 13.2355 15.0183 12.7746 14.5003C12.1309 15.3269 11.1266 15.8593 10 15.8593Z" fill="#79C930" fill-opacity="0.7"/>
<path d="M10 14.6874C11.2944 14.6874 12.3438 13.638 12.3438 12.3436C12.3438 11.0492 11.2944 9.99988 10 9.99988C8.70558 9.99988 7.65625 11.0492 7.65625 12.3436C7.65625 13.638 8.70558 14.6874 10 14.6874Z" fill="#79C930" fill-opacity="0.7"/>
<path d="M8.33277 4.7651C9.00176 5.38339 9.66492 5.79401 9.69281 5.8112C9.88121 5.92714 10.1188 5.92714 10.3071 5.8112C10.3351 5.79401 10.9982 5.38339 11.6672 4.7651C12.6345 3.87112 13.125 3.00202 13.125 2.18198C13.125 0.319635 11.273 -0.554545 10 0.480026C8.7241 -0.556849 6.875 0.324557 6.875 2.18198C6.875 3.00202 7.36547 3.87112 8.33277 4.7651Z" fill="#79C930" fill-opacity="0.7"/>
</svg>
