<svg width="24" height="24" xmlns="http://www.w3.org/2000/svg"><g fill="#000" fill-rule="evenodd" opacity=".513"><path d="M11.994 0a.488.488 0 000 .976c6.075 0 11.017 4.943 11.017 11.018 0 6.075-4.942 11.017-11.017 11.017C5.919 23.01.976 18.069.976 11.994c0-4.134 2.282-7.884 5.954-9.788a.488.488 0 10-.45-.867A11.962 11.962 0 000 11.994c0 6.613 5.38 11.993 11.994 11.993 6.613 0 11.993-5.38 11.993-11.993C23.987 5.38 18.607 0 11.994 0z"/><path d="M16.695 5.815a7.694 7.694 0 00-4.701-1.585c-4.281 0-7.764 3.483-7.764 7.764 0 4.28 3.483 7.763 7.764 7.763a7.713 7.713 0 005.49-2.274.488.488 0 00-.69-.69 6.743 6.743 0 01-4.8 1.988 6.795 6.795 0 01-6.788-6.787 6.795 6.795 0 016.788-6.788c3.001 0 5.682 2.01 6.518 4.89a.488.488 0 10.938-.273 7.82 7.82 0 00-2.755-4.008z"/><path d="M17.717 10.516a.488.488 0 00-.69.69l1.836 1.837a.488.488 0 00.69 0l1.837-1.836a.488.488 0 00-.69-.69l-1.492 1.49-1.49-1.49z"/></g></svg>