<svg width="20" height="20" viewBox="0 0 20 20" fill="none" xmlns="http://www.w3.org/2000/svg">
<g clip-path="url(#clip0)">
<path d="M19.9656 3.01768C19.9341 2.79795 19.7813 2.61482 19.5708 2.54447C19.3614 2.47353 19.1285 2.529 18.9711 2.6858L18.1425 3.51494C17.6996 3.95783 16.9277 3.95783 16.4848 3.51494C16.0265 3.05666 16.0268 2.3158 16.4848 1.85783L17.3134 1.02928C17.4702 0.87248 17.5251 0.640175 17.4547 0.429589C17.3843 0.219003 17.2012 0.0662301 16.9815 0.0347848C15.888 -0.119707 14.7814 0.247636 13.9992 1.02869C13.1146 1.91389 12.7655 3.2151 13.0888 4.42529L4.42549 13.0883L4.42491 13.0877C3.21928 12.7678 1.91065 13.1169 1.02889 13.9986C0.251821 14.7757 -0.120093 15.8909 0.034399 16.9815C0.0658834 17.2012 0.218657 17.3844 0.429204 17.4547C0.638071 17.5251 0.871508 17.4702 1.02889 17.3134L1.85745 16.4842C2.30034 16.0413 3.07225 16.0413 3.51514 16.4842C3.97342 16.9424 3.97319 17.6833 3.51514 18.1413L2.68659 18.9699C2.52979 19.1267 2.47487 19.359 2.54526 19.5696C2.61565 19.7802 2.79873 19.9329 3.01846 19.9644C4.10909 20.1196 5.20651 19.764 6.00081 18.9705C6.88542 18.0853 7.23448 16.7841 6.9112 15.5739L15.5745 6.91092L15.5751 6.9115C16.787 7.23252 18.0893 6.88232 18.9711 6.00057C19.7481 5.2235 20.1201 4.1083 19.9656 3.01768Z" fill="#A1D96E"/>
<path d="M16.4839 12.9688C16.2064 12.9688 15.9209 13.0105 15.5856 13.0992L13.3146 10.8285L10.8281 13.3147L13.0988 15.5855C13.0101 15.9213 12.9683 16.2069 12.9683 16.4844C12.9683 18.423 14.5453 20 16.4839 20C18.4226 20 19.9996 18.423 19.9996 16.4844C19.9996 14.5458 18.4226 12.9688 16.4839 12.9688ZM18.4066 16.3671L18.0581 17.6671C18.0037 17.8691 17.8458 18.027 17.6438 18.0814L16.3438 18.4299C16.1528 18.4825 15.9321 18.4325 15.7779 18.2782L14.8263 17.3267C14.6781 17.1785 14.6204 16.9627 14.6747 16.7608L15.0232 15.4607C15.0775 15.2587 15.2355 15.1008 15.4374 15.0465L16.7375 14.698C16.9383 14.6419 17.1546 14.7014 17.3034 14.8496L18.2549 15.8012C18.4031 15.9494 18.4609 16.1651 18.4066 16.3671Z" fill="#A1D96E"/>
<path d="M6.91106 4.39223C7.23435 3.18203 6.88528 1.88027 6.00067 0.995625C4.67259 -0.331875 2.35571 -0.331875 1.0288 0.995625C-0.341631 2.36664 -0.341631 4.59707 1.0288 5.9675C1.90942 6.84813 3.21349 7.2023 4.4254 6.87789L6.68634 9.17117L9.17235 6.68543L6.91106 4.39223ZM5.37868 3.30562L5.0302 4.60566C4.97583 4.80766 4.8179 4.96559 4.61595 5.01992L3.31591 5.3684C3.12493 5.42105 2.90427 5.37105 2.75001 5.21676L1.79845 4.2652C1.65024 4.11699 1.59247 3.90129 1.64681 3.6993L1.99528 2.39926C2.04966 2.19727 2.20759 2.03934 2.40954 1.985L3.70958 1.63652C3.91157 1.5816 4.12728 1.63996 4.27548 1.78816L5.22704 2.73973C5.37524 2.88793 5.43302 3.10363 5.37868 3.30562Z" fill="#A1D96E"/>
</g>
<defs>
<clipPath id="clip0">
<rect width="20" height="20" fill="white"/>
</clipPath>
</defs>
</svg>
