<svg width="13" height="17" xmlns="http://www.w3.org/2000/svg"><g fill="#303030" fill-rule="evenodd"><path d="M10.563 7.083H3.792c-.15 0-.271.127-.271.284 0 .156.121.283.27.283h6.772c.149 0 .27-.127.27-.283a.277.277 0 00-.27-.284zM3.792 5.383H6.5c.15 0 .27-.126.27-.283a.277.277 0 00-.27-.283H3.792c-.15 0-.271.126-.271.283 0 .157.121.283.27.283zM10.563 9.35H3.792c-.15 0-.271.127-.271.283 0 .157.121.284.27.284h6.772c.149 0 .27-.127.27-.284a.277.277 0 00-.27-.283zM10.563 11.617H3.792c-.15 0-.271.126-.271.283 0 .157.121.283.27.283h6.772c.149 0 .27-.126.27-.283a.277.277 0 00-.27-.283zM10.563 13.883H3.792c-.15 0-.271.127-.271.284 0 .156.121.283.27.283h6.772c.149 0 .27-.127.27-.283a.277.277 0 00-.27-.284z"/><path d="M11.646 4.133V0H0v15.583h1.354V17H13V5.55l-1.354-1.417zM9.208 2.384l2.438 2.55.43.45H9.207v-3zM.542 15.017V.567h10.562v2.999L9.05 1.416H1.354v13.6H.542zm1.354 1.416V1.983h6.77V5.95h3.792v10.483H1.896z"/></g></svg>