<svg width="50" height="50" xmlns="http://www.w3.org/2000/svg"><g fill="none" fill-rule="evenodd"><path d="M24.942 0C38.66 0 49.884 11.224 49.884 24.942S38.66 49.884 24.942 49.884 0 38.66 0 24.942 11.224 0 24.942 0z" fill="#DD4B39"/><g fill="#FFF"><path d="M37.568 20.733v2.806h2.806v2.806h-2.806v2.806h-2.806v-2.806h-2.805v-2.806h2.805v-2.806zM12.315 31.957c-3.741-3.742-3.741-10.289.156-14.03 2.806-2.806 6.859-3.43 10.444-2.027l1.403.78 1.559 1.091-2.494 2.494-.936-.623c-2.182-1.403-5.3-1.091-7.326.935-2.338 2.338-2.494 6.547 0 9.041 2.338 2.495 6.547 2.495 8.73 0 .623-.623 1.247-1.558 1.402-2.494v-.312h-5.611v-3.117h8.885l.156.78v2.182c-.156 2.026-.935 4.053-2.338 5.456-3.742 3.585-10.289 3.585-14.03-.156z"/></g></g></svg>