<svg width="20" height="20" viewBox="0 0 20 20" fill="none" xmlns="http://www.w3.org/2000/svg">
<g clip-path="url(#clip0)">
<path d="M3.35944 1.03607C3.14444 0.959008 2.90412 1.01287 2.74252 1.17446L1.14905 2.76794C1.02331 2.89367 0.960905 3.06946 0.979215 3.24646C0.997678 3.42331 1.09472 3.58261 1.2438 3.67996L7.26478 7.61277L11.0745 3.8031L3.35944 1.03607Z" fill="#A1D96E"/>
<path d="M16.287 18.7233C16.3844 18.8723 16.5435 18.9693 16.7205 18.9878C16.741 18.9899 16.7613 18.9908 16.7816 18.9908C16.9374 18.9908 17.0878 18.9292 17.1991 18.8179L18.7925 17.2245C18.9541 17.0629 19.008 16.8225 18.9309 16.6074L16.1639 8.89253L12.3542 12.7022L16.287 18.7233Z" fill="#A1D96E"/>
<path d="M15.8799 0.667875L4.49681 12.0511L1.97681 11.613C1.7876 11.5801 1.59397 11.6414 1.45816 11.7774L0.212127 13.0234C0.0769335 13.1586 0.0154404 13.3509 0.0473314 13.5393C0.0792224 13.7279 0.200225 13.8893 0.372345 13.9725L4.18324 15.8168L6.02742 19.6277C6.11074 19.7997 6.27218 19.9208 6.46062 19.9527C6.49343 19.9582 6.52639 19.961 6.55904 19.961C6.71438 19.961 6.86498 19.8996 6.97668 19.7879L8.22271 18.5419C8.35867 18.4059 8.41986 18.2125 8.38705 18.0231L7.9392 15.4468L19.299 4.08692C19.7557 3.63037 20.0071 3.02323 20.0071 2.37747C20.0071 1.73172 19.7557 1.12457 19.299 0.667875C18.3564 -0.274662 16.8226 -0.274815 15.8799 0.667875Z" fill="#A1D96E"/>
</g>
<defs>
<clipPath id="clip0">
<rect width="20" height="20" fill="white"/>
</clipPath>
</defs>
</svg>
