<svg width="20" height="20" viewBox="0 0 20 20" fill="none" xmlns="http://www.w3.org/2000/svg">
<g clip-path="url(#clip0)">
<path d="M11.4781 12.5302C11.5131 12.3827 11.5371 12.2267 11.5443 12.0597C11.6828 9.02707 10.0258 6.54388 7.54188 4.94751C6.06451 3.99758 4.66328 5.03325 4.30731 6.35389C3.39167 5.62515 1.80594 6.71569 2.51924 7.91356C2.54531 7.95711 2.57206 8.00101 2.5988 8.04491C1.88276 8.04216 -0.399138 8.03496 0.239751 8.04559C0.994895 8.05862 2.80697 10.0909 2.80697 10.0909V8.37618C3.36355 9.22735 4.07514 10.0236 5.13413 10.144C5.61698 10.1992 6.01581 10.0497 6.34366 9.78805C6.75758 10.2946 6.96849 10.8632 7.00964 11.5456C6.64716 11.5401 6.28365 11.5549 5.91671 11.5977C4.65093 11.7469 3.86972 12.0257 3.61389 13.3498C3.22912 15.347 4.26787 16.8059 5.38824 18.3326C6.29977 19.5744 8.39785 18.371 7.47432 17.1118C6.71918 16.083 5.95957 15.2376 5.99078 14.0422C6.72878 13.93 7.46266 13.9602 8.21197 14.0319C8.57857 14.1896 8.99215 14.2534 9.40162 14.2215C10.0124 16.2637 11.1722 18.0826 12.6743 19.6341C13.76 20.7558 15.4668 19.0435 14.3828 17.9266C12.8934 16.3861 11.8958 14.6039 11.4781 12.5302Z" fill="#A1D96E"/>
<path d="M2.33367 2.72667C2.33676 2.76096 2.33779 2.79525 2.34259 2.82989C2.49657 3.94786 3.52709 4.72941 4.64438 4.57543C5.76234 4.4218 6.54287 3.39162 6.38992 2.27365C6.35837 2.04114 6.28704 1.82475 6.18621 1.62721C6.25514 1.59395 6.28635 1.51473 6.26303 1.34978L6.1965 0.861782C6.12106 0.316172 5.61797 -0.0658584 5.07304 0.00958737L2.89815 0.307941C2.35116 0.383387 1.97016 0.886473 2.04527 1.43277L2.09842 1.82749C1.79355 2.07063 1.53601 2.3779 1.59191 2.70369C1.6406 2.99278 1.9609 2.92111 2.33367 2.72667Z" fill="#A1D96E"/>
<path d="M7.85132 4.59497C7.85132 4.59497 12.7484 7.22048 12.1699 11.0902C10.9017 14.3165 16.4391 17.6395 19.4501 10.1985C19.4497 10.1985 23.2838 0.000315189 7.85132 4.59497ZM16.1425 10.667V11.2891H15.4806V10.7037C15.174 10.6749 14.8692 10.5737 14.672 10.4338L14.579 10.3669L14.8191 9.69545L14.9803 9.80278C15.1891 9.94236 15.459 10.0229 15.7176 10.0229C16.0341 10.0229 16.2454 9.85868 16.2454 9.61486C16.2454 9.45025 16.1799 9.27158 15.6953 9.07542C15.1836 8.87514 14.6593 8.58331 14.6593 7.94819C14.6593 7.43756 14.995 7.03941 15.5214 6.90669V6.3021H16.1775V6.86554C16.4281 6.89092 16.6473 6.96053 16.8445 7.0761L16.9545 7.14126L16.7042 7.80244L16.5499 7.71465C16.4593 7.66287 16.2457 7.54044 15.9065 7.54044C15.5722 7.54044 15.4532 7.71602 15.4532 7.88029C15.4532 8.05827 15.5416 8.1735 16.0674 8.3916C16.5221 8.57679 17.0458 8.87926 17.0458 9.57507C17.0447 10.1022 16.6871 10.5281 16.1425 10.667Z" fill="#A1D96E"/>
</g>
<defs>
<clipPath id="clip0">
<rect width="20" height="20" fill="white"/>
</clipPath>
</defs>
</svg>
