<svg width="20" height="20" viewBox="0 0 20 20" fill="none" xmlns="http://www.w3.org/2000/svg">
<path d="M0.585938 20H11.2109C11.5346 20 11.7969 19.7377 11.7969 19.4141V18.7891C11.7969 18.1418 11.2723 17.6172 10.625 17.6172V16.9167C10.625 15.9891 9.8703 15.2344 8.94272 15.2344H2.85416C1.92657 15.2344 1.17188 15.9891 1.17188 16.9167V17.6172C0.524597 17.6172 0 18.1418 0 18.7891V19.4141C0 19.7375 0.262451 20 0.585938 20Z" fill="#79C930" fill-opacity="0.7"/>
<path d="M7.33317 12.9044C7.72258 13.4212 8.45744 13.5245 8.97426 13.135C9.49122 12.7456 9.59437 12.0107 9.20497 11.4937L5.67866 6.81431C5.28911 6.29734 4.5544 6.19419 4.03758 6.5836C3.52061 6.97315 3.41731 7.70787 3.80687 8.22484L7.33317 12.9044Z" fill="#79C930" fill-opacity="0.7"/>
<path d="M15.7564 6.55684C16.1459 7.07365 16.8806 7.17695 17.3976 6.7874C17.9144 6.39799 18.0177 5.66328 17.6282 5.14632L14.1019 0.466902C13.7125 -0.0500659 12.9776 -0.153368 12.4608 0.236189C11.944 0.625746 11.8407 1.36046 12.2302 1.87742L15.7564 6.55684Z" fill="#79C930" fill-opacity="0.7"/>
<path d="M13.1859 9.96094C14.052 9.30832 14.7022 8.49792 15.1088 7.64465L11.0057 2.19971C10.0734 2.3555 9.11533 2.75696 8.24908 3.40973C7.383 4.06235 6.73282 4.87274 6.32617 5.72586L10.4293 11.1711C11.3616 11.0153 12.3197 10.6137 13.1859 9.96094Z" fill="#79C930" fill-opacity="0.7"/>
<path d="M14.7681 10.1135C14.4953 10.3915 14.208 10.6581 13.8912 10.8969C13.5743 11.1356 13.2387 11.3383 12.8965 11.524L13.6605 12.538L15.5323 11.1276L14.7681 10.1135Z" fill="#79C930" fill-opacity="0.7"/>
<path d="M16.2375 12.0634L14.3657 13.4738L17.892 18.1534C18.2816 18.6703 19.0163 18.7735 19.5331 18.3841C20.0501 17.9945 20.1532 17.2598 19.7638 16.7428L16.2375 12.0634Z" fill="#79C930" fill-opacity="0.7"/>
</svg>
