<svg width="20" height="20" viewBox="0 0 20 20" fill="none" xmlns="http://www.w3.org/2000/svg">
<path d="M9.99953 4.99068C7.23736 4.99068 4.99023 7.23824 4.99023 10.0004C4.99023 12.7626 7.23736 15.0102 9.99953 15.0102C12.7613 15.0102 15.0088 12.763 15.0088 10.0004C15.0088 7.2378 12.7613 4.99068 9.99953 4.99068Z" fill="#A1D96E"/>
<path d="M9.99988 3.51816C9.46002 3.51816 9.02246 3.0806 9.02246 2.54119V0.977414C9.02246 0.437555 9.46002 0 9.99988 0C10.5397 0 10.9773 0.437555 10.9773 0.977414V2.54119C10.9773 3.0806 10.5393 3.51816 9.99988 3.51816Z" fill="#A1D96E"/>
<path d="M9.99988 16.4814C9.46002 16.4814 9.02246 16.919 9.02246 17.4588V19.0222C9.02246 19.5625 9.46002 20 9.99988 20C10.5397 20 10.9773 19.5625 10.9773 19.0222V17.4588C10.9773 16.919 10.5393 16.4814 9.99988 16.4814Z" fill="#A1D96E"/>
<path d="M14.5829 5.41672C14.2015 5.03497 14.2015 4.41628 14.5829 4.03453L15.6887 2.92868C16.07 2.54737 16.6891 2.54737 17.0709 2.92868C17.4527 3.31043 17.4527 3.92957 17.0709 4.31088L15.9651 5.41672C15.5837 5.79848 14.9651 5.79848 14.5829 5.41672Z" fill="#A1D96E"/>
<path d="M5.41677 14.5837C5.03502 14.2015 4.41633 14.2015 4.03457 14.5837L2.92873 15.6891C2.54742 16.0704 2.54697 16.69 2.92873 17.0713C3.31048 17.4526 3.92961 17.4526 4.31092 17.0713L5.41677 15.965C5.79852 15.5837 5.79852 14.9646 5.41677 14.5837Z" fill="#A1D96E"/>
<path d="M16.4814 9.99997C16.4814 9.46012 16.919 9.02256 17.4589 9.02256H19.0226C19.5625 9.02256 20 9.46012 20 9.99997C20 10.5398 19.5625 10.9769 19.0226 10.9769H17.4589C16.919 10.9769 16.4814 10.5398 16.4814 9.99997Z" fill="#A1D96E"/>
<path d="M3.51816 9.99997C3.51816 9.46012 3.0806 9.02256 2.54074 9.02256H0.977414C0.437555 9.02256 0 9.46012 0 9.99997C0 10.5398 0.437555 10.9769 0.977414 10.9769H2.54119C3.0806 10.9769 3.51816 10.5398 3.51816 9.99997Z" fill="#A1D96E"/>
<path d="M14.5822 14.5837C14.964 14.2024 15.5831 14.2024 15.9644 14.5837L17.0703 15.6895C17.452 16.0704 17.452 16.69 17.0703 17.0713C16.6885 17.4526 16.0698 17.4526 15.6881 17.0713L14.5822 15.9654C14.2005 15.5837 14.2005 14.965 14.5822 14.5837Z" fill="#A1D96E"/>
<path d="M5.41694 5.41673C5.79869 5.03497 5.79869 4.41628 5.41694 4.03453L4.31109 2.92913C3.92934 2.54737 3.31065 2.54737 2.92889 2.92913C2.54714 3.31044 2.54714 3.92957 2.92889 4.31088L4.03474 5.41673C4.41649 5.79892 5.03518 5.79892 5.41694 5.41673Z" fill="#A1D96E"/>
</svg>
