<svg width="20" height="20" viewBox="0 0 20 20" fill="none" xmlns="http://www.w3.org/2000/svg">
<path d="M15.8594 3.59375H14.1016V0.585938C14.1016 0.262344 13.8392 0 13.5156 0C13.192 0 12.9297 0.262344 12.9297 0.585938V3.59375H7.07031V0.585938C7.07031 0.262344 6.80797 0 6.48438 0C6.16078 0 5.89844 0.262344 5.89844 0.585938V3.59375H4.14062C3.81719 3.59375 3.55469 3.85625 3.55469 4.17969V6.52344C3.55469 6.84688 3.81719 7.10938 4.14062 7.10938H4.72656V10.0391C4.72656 12.759 6.79609 15.0043 9.44336 15.2832H9.44344C9.72242 17.9303 11.9677 20 14.6875 20C15.0111 20 15.2734 19.7377 15.2734 19.4141C15.2734 19.0905 15.0111 18.8281 14.6875 18.8281C12.6121 18.8281 10.8921 17.2786 10.6228 15.2758H10.623C13.2383 14.9668 15.2734 12.7359 15.2734 10.0391V7.10938H15.8594C16.1828 7.10938 16.4453 6.84688 16.4453 6.52344V4.17969C16.4453 3.85625 16.1828 3.59375 15.8594 3.59375ZM11.5863 10.4535L10.4145 11.6254C9.87109 12.1687 9.03672 11.3457 9.58555 10.7965L10.1828 10.1996L8.56602 9.39141C8.20898 9.2125 8.13125 8.73555 8.41367 8.45273L9.58555 7.28086C10.1332 6.7332 10.9629 7.56094 10.4145 8.10977L9.81719 8.70664L11.434 9.51484C11.791 9.69375 11.8687 10.1707 11.5863 10.4535Z" fill="#A1D96E"/>
</svg>
