<svg width="20" height="20" viewBox="0 0 20 20" fill="none" xmlns="http://www.w3.org/2000/svg">
<g clip-path="url(#clip0)">
<path d="M19.8409 8.29206L10.2956 0.110381C10.1252 -0.0361223 9.87481 -0.0361223 9.70436 0.110381L0.159074 8.29206C0.0143603 8.41547 -0.0380109 8.61609 0.0285504 8.79455C0.0942595 8.97301 0.264711 9.09152 0.454679 9.09152H1.81829V19.5459C1.81829 19.7971 2.0216 20.0004 2.27284 20.0004H6.81823C6.99047 20.0004 7.14759 19.9032 7.22484 19.7492L9.04301 16.1129C9.09717 16.005 9.10603 15.8803 9.06785 15.7658L8.23421 13.2645L9.4549 11.6367C9.5579 11.4992 9.57477 11.3149 9.49752 11.1609L8.72516 9.61574L10.4661 7.62581L10.0133 9.43596C9.98756 9.54117 9.99911 9.65214 10.0479 9.74934L10.8558 11.3642L10.0479 12.9791C9.99378 13.0869 9.98492 13.2116 10.0231 13.3262L10.8904 15.9278L10.0133 19.4358C9.97959 19.5717 10.0098 19.7155 10.0959 19.8255C10.182 19.9361 10.3143 20.0004 10.4546 20.0004H17.7272C17.9785 20.0004 18.1818 19.7971 18.1818 19.5459V9.09152H19.5454C19.7353 9.09152 19.9058 8.97301 19.9715 8.79455C20.038 8.61609 19.9856 8.41547 19.8409 8.29206Z" fill="#A1D96E"/>
</g>
<defs>
<clipPath id="clip0">
<rect width="20" height="20" fill="white"/>
</clipPath>
</defs>
</svg>
