<svg width="20" height="20" viewBox="0 0 20 20" fill="none" xmlns="http://www.w3.org/2000/svg">
<path d="M19.7827 16.5829L11.5763 1.7322C11.2695 1.17759 10.6852 0.833374 10.0521 0.833374H9.94789C9.31477 0.833374 8.73047 1.17763 8.42363 1.73263L0.217305 16.5829C0.0748828 16.8405 0 17.1314 0 17.4251C0 18.3854 0.78125 19.1667 1.74152 19.1667H18.2584C19.2187 19.1667 20 18.3854 20 17.4251C20 17.1314 19.9251 16.8405 19.7827 16.5829ZM13.2332 11.521L8.23324 17.3543C8.15105 17.4496 8.03469 17.5 7.91668 17.5C7.84262 17.5 7.76773 17.4805 7.70102 17.4398C7.52688 17.334 7.45441 17.1179 7.53012 16.9287L8.96813 13.3333H7.08336C6.94746 13.3333 6.82051 13.2674 6.74238 13.1567C6.66508 13.046 6.64555 12.904 6.69109 12.7767L8.77441 6.94334C8.83383 6.77732 8.9909 6.66666 9.16668 6.66666H12.0834C12.2217 6.66666 12.3511 6.73541 12.4284 6.84979C12.5057 6.96412 12.5212 7.10979 12.4699 7.23799L11.0319 10.8334H12.9167C13.0795 10.8334 13.2275 10.9282 13.2951 11.0759C13.3634 11.2236 13.339 11.3977 13.2332 11.521Z" fill="#A1D96E"/>
</svg>
