<svg width="20" height="20" viewBox="0 0 20 20" fill="none" xmlns="http://www.w3.org/2000/svg">
<g clip-path="url(#clip0)">
<path d="M7.175 11.9737C7.61852 11.9737 8.04809 11.9129 8.45606 11.7998L9.00461 13.1242L8.76293 13.2243C8.46399 13.3482 8.322 13.6909 8.44586 13.9899C8.50063 14.1221 8.63598 14.2704 8.81938 14.3288L9.91489 12.2595L9.53821 11.35C10.9908 10.5244 11.9729 8.96273 11.9729 7.17582C11.9729 6.7323 11.9121 6.30273 11.7989 5.89477L13.1232 5.34617L13.2234 5.58805C13.3124 5.80281 13.6139 6.06059 13.989 5.90508C14.288 5.78125 14.43 5.43848 14.3061 5.13949L13.6572 3.57309C13.5333 3.2741 13.1905 3.13207 12.8916 3.25605C12.5926 3.37988 12.4507 3.72266 12.5745 4.02164L12.6747 4.26348L11.3491 4.81258C10.9202 4.05797 10.2927 3.43047 9.53817 3.00156L10.0872 1.6759L10.3291 1.77609C10.4024 1.80645 10.4784 1.82086 10.5531 1.82086C10.783 1.82086 11.0012 1.68469 11.0947 1.45902C11.2185 1.16004 11.0766 0.817266 10.7776 0.693398L9.21149 0.0446093C8.9125 -0.0791798 8.56973 0.0627733 8.4459 0.36168C8.32207 0.660664 8.46399 1.00344 8.76297 1.1273L9.00465 1.22742L8.4561 2.55184C8.04809 2.43867 7.61856 2.37789 7.175 2.37789C6.73145 2.37789 6.30188 2.43867 5.89391 2.55184L5.34536 1.22742L5.58704 1.1273C5.88602 1.00344 6.02797 0.660703 5.90411 0.36168C5.78028 0.0627733 5.4375 -0.0791798 5.13852 0.0446093L3.57239 0.693398C3.2734 0.817266 3.13145 1.16 3.25532 1.45902C3.34879 1.68465 3.56696 1.82086 3.79688 1.82086C3.87161 1.82086 3.94758 1.80648 4.0209 1.77609L4.26278 1.6759L4.81184 3.00156C4.05723 3.43047 3.42973 4.05797 3.00086 4.81258L1.67524 4.26348L1.77543 4.02164C1.89926 3.7227 1.75735 3.37988 1.45836 3.25605C1.15942 3.13207 0.816605 3.2741 0.692777 3.57309L0.0438319 5.13949C-0.0800353 5.43844 0.0619178 5.78125 0.360902 5.90508C0.736019 6.06059 1.03754 5.80277 1.12649 5.58805L1.22668 5.34617L2.55102 5.89477C2.43786 6.30277 2.37707 6.7323 2.37707 7.17582C2.37707 7.61934 2.43786 8.04891 2.55102 8.45687L1.22664 9.00547L1.12645 8.76359C1.00258 8.46465 0.659808 8.32262 0.360863 8.44656C0.0619178 8.57043 -0.0800744 8.91316 0.0437928 9.21215L0.692738 10.7785C0.780433 10.9902 1.08286 11.2513 1.45832 11.0955C1.75727 10.9717 1.89926 10.6289 1.77539 10.33L1.6752 10.0881L3.00075 9.53906C3.42965 10.2937 4.05715 10.9211 4.81172 11.35L4.26266 12.6757L4.02086 12.5755C3.72188 12.4516 3.37914 12.5936 3.25528 12.8925C3.13141 13.1915 3.27336 13.5343 3.57235 13.6581L5.13852 14.307C5.51364 14.4625 5.81516 14.2046 5.90411 13.9899C6.02797 13.691 5.88602 13.3482 5.58704 13.2243L5.34536 13.1242L5.89391 11.7998C6.30192 11.9129 6.73149 11.9737 7.175 11.9737Z" fill="#A1D96E"/>
<path d="M19.9319 19.1399L14.2835 8.47068C14.1819 8.27888 13.9827 8.15892 13.7656 8.15892C13.5486 8.15892 13.3493 8.27888 13.2478 8.47068L7.59933 19.1399C7.5032 19.3215 7.50922 19.5403 7.61519 19.7163C7.72117 19.8924 7.91168 20.0001 8.11719 20.0001H19.4141C19.6196 20.0001 19.8101 19.8924 19.9161 19.7163C20.0221 19.5403 20.0281 19.3216 19.9319 19.1399ZM13.1797 13.4519C13.1797 13.1283 13.442 12.866 13.7656 12.866C14.0892 12.866 14.3516 13.1283 14.3516 13.4519V15.0209C14.3516 15.3445 14.0892 15.6068 13.7656 15.6068C13.442 15.6068 13.1797 15.3445 13.1797 15.0209V13.4519ZM13.7656 17.8035C13.4422 17.8035 13.1797 17.5409 13.1797 17.2175C13.1797 16.8942 13.4422 16.6316 13.7656 16.6316C14.0891 16.6316 14.3516 16.8942 14.3516 17.2175C14.3516 17.5409 14.0891 17.8035 13.7656 17.8035Z" fill="#A1D96E"/>
</g>
<defs>
<clipPath id="clip0">
<rect width="20" height="20" fill="white"/>
</clipPath>
</defs>
</svg>
