<svg width="20" height="20" viewBox="0 0 20 20" fill="none" xmlns="http://www.w3.org/2000/svg">
<g clip-path="url(#clip0)">
<path d="M19.3641 0.0618173C19.0728 -0.0823624 18.7226 0.0343563 18.5773 0.323302L13.2288 11.0296L12.1813 10.5048C11.3138 10.0705 10.2564 10.4242 9.82204 11.2893L9.55981 11.8129L15.8472 14.962L16.1094 14.4381C16.5425 13.5732 16.1964 12.5171 15.3249 12.0795L14.2772 11.5547L19.6256 0.848575C19.7703 0.559044 19.653 0.20713 19.3641 0.0618173Z" fill="#A1D96E"/>
<path d="M6.75781 20C7.08142 20 7.34375 19.7377 7.34375 19.4141C7.34375 19.0905 7.08142 18.8281 6.75781 18.8281C6.43421 18.8281 6.17188 19.0905 6.17188 19.4141C6.17188 19.7377 6.43421 20 6.75781 20Z" fill="#A1D96E"/>
<path d="M0.898438 16.4844C1.22204 16.4844 1.48438 16.2221 1.48438 15.8985C1.48438 15.5749 1.22204 15.3125 0.898438 15.3125C0.574833 15.3125 0.3125 15.5749 0.3125 15.8985C0.3125 16.2221 0.574833 16.4844 0.898438 16.4844Z" fill="#A1D96E"/>
<path d="M3.24219 17.6563C3.56579 17.6563 3.82812 17.3939 3.82812 17.0703C3.82812 16.7467 3.56579 16.4844 3.24219 16.4844C2.91858 16.4844 2.65625 16.7467 2.65625 17.0703C2.65625 17.3939 2.91858 17.6563 3.24219 17.6563Z" fill="#A1D96E"/>
<path d="M4.41406 18.8281H2.07031C1.74703 18.8281 1.48438 18.5655 1.48438 18.2422C1.48438 17.9183 1.2223 17.6563 0.898438 17.6563C0.57457 17.6563 0.3125 17.9183 0.3125 18.2422C0.3125 19.2115 1.10102 20 2.07031 20H4.41406C4.73793 20 5 19.7379 5 19.4141C5 19.0902 4.73793 18.8281 4.41406 18.8281Z" fill="#A1D96E"/>
<path d="M4.24359 15.1592C3.98722 15.1912 3.78238 15.3875 3.7389 15.6415C3.69543 15.8962 3.823 16.1491 4.05363 16.2647L6.85343 17.6666C7.35871 17.9195 7.91714 18.0202 8.46191 17.9624C8.39781 18.2222 8.51968 18.5008 8.76863 18.6262L11.3882 19.9382C11.6084 20.0468 11.8635 20.0085 12.04 19.8524C12.1316 19.7707 14.1273 17.9752 15.2939 15.9962L8.98117 12.8345C7.56679 14.7138 4.27949 15.1544 4.24359 15.1592Z" fill="#A1D96E"/>
</g>
<defs>
<clipPath id="clip0">
<rect width="20" height="20" fill="white"/>
</clipPath>
</defs>
</svg>
