<svg width="20" height="20" viewBox="0 0 20 20" fill="none" xmlns="http://www.w3.org/2000/svg">
<path d="M10.9955 11.9643C10.8366 11.7353 10.649 11.5276 10.4371 11.3464C10.0307 12.886 9.19973 14.1628 7.96219 15.1472C6.38168 16.4046 4.12465 17.1862 1.25 17.4722V18.75H9.83176C10.8329 17.2176 11.4099 15.8147 11.5469 14.5781C11.6599 13.5589 11.4744 12.6794 10.9955 11.9643Z" fill="#A1D96E"/>
<path d="M13.7503 13.125C13.7503 11.8516 13.4876 11.0054 12.9908 10.6778C12.5407 10.3809 12.0036 10.5974 11.9984 10.5997C11.946 10.6222 11.8885 10.6299 11.8321 10.6221C11.7757 10.6142 11.7225 10.5911 11.6782 10.5552C11.634 10.5193 11.6004 10.472 11.5811 10.4184C11.5618 10.3648 11.5575 10.307 11.5687 10.2511C11.5786 10.1989 11.8035 8.93285 10.5091 8.4152C9.19631 7.8902 8.40721 8.89566 8.37424 8.93863C8.3315 8.99459 8.27119 9.03457 8.203 9.05215C8.13481 9.06972 8.06269 9.06387 7.99822 9.03555C7.98592 9.03008 6.71674 8.48016 5.81905 8.91973C5.40561 9.12211 5.13467 9.50027 4.99092 10.0757C4.84072 10.6765 4.90022 11.1555 5.16772 11.4995C5.51967 11.952 6.16096 12.1069 6.54979 12.16C6.55676 11.9185 6.59703 11.6791 6.66948 11.4486C6.84182 10.9118 7.27783 10.2257 8.37651 10.006C8.49173 9.98365 8.60887 9.97267 8.72623 9.97324C9.60807 9.97324 10.7889 10.5323 11.5151 11.6165C12.0703 12.4456 12.2963 13.4936 12.1684 14.647C12.0548 15.6717 11.669 16.7907 11.0183 17.9863C11.2996 17.7618 11.5681 17.5216 11.8226 17.267C13.1019 15.983 13.7503 14.5895 13.7503 13.125Z" fill="#A1D96E"/>
<path d="M9.94824 4.52954C10.235 5.39329 10.5393 6.54356 10.6661 7.80606C10.6909 7.81528 10.7159 7.82474 10.7411 7.83478C11.6707 8.20669 12.0145 8.87888 12.1391 9.37728C12.1823 9.55191 12.2066 9.73069 12.2115 9.91052C12.6032 9.85493 13.0018 9.94204 13.3345 10.1559C14.0249 10.6112 14.375 11.6101 14.375 13.1249C14.375 14.7429 13.6409 16.3322 12.2522 17.7209C11.8781 18.0937 11.4764 18.4377 11.0505 18.7499H16.7217C17.027 18.3297 18.1025 16.6445 18.5495 13.2416C16.7379 8.65587 14.5534 5.41122 9.94824 4.52954Z" fill="#A1D96E"/>
<path d="M14.3485 2.76215C13.241 2.36125 12.2657 2.45723 11.8029 3.01254C11.7697 3.05241 11.727 3.08338 11.6788 3.10264C11.6307 3.1219 11.5784 3.12886 11.5269 3.12288C11.4753 3.11689 11.426 3.09816 11.3835 3.06838C11.341 3.03859 11.3066 2.99869 11.2834 2.95227C11.2485 2.88348 10.3977 1.25 8.43784 1.25C6.48471 1.25 5.92093 2.60238 5.9155 2.61605C5.88743 2.68622 5.8349 2.74383 5.76762 2.77823C5.70034 2.81263 5.62287 2.82149 5.54956 2.80316C5.15213 2.72164 4.74208 2.7238 4.34554 2.80949C3.54866 2.99363 3.02975 3.54582 2.8035 4.45078C2.57725 5.35574 2.77518 6.08715 3.39175 6.62469C3.59024 6.79465 3.81149 6.93608 4.04909 7.04488C4.07018 6.20176 4.35022 5.50133 4.88456 4.95809C6.21046 3.61 8.62284 3.74129 8.76764 3.75047C9.02102 3.76213 9.27365 3.78656 9.52456 3.82367H9.52491C11.9765 4.18605 13.939 5.16742 15.5246 6.8241C16.7098 8.06238 17.7048 9.66395 18.6823 11.9249C18.7272 11.3032 18.7503 10.6598 18.7503 10C18.7503 8.15441 18.2539 6.46988 17.3145 5.12855C16.5326 4.01195 15.4792 3.17156 14.3485 2.76215Z" fill="#A1D96E"/>
</svg>
