<svg width="20" height="20" viewBox="0 0 20 20" fill="none" xmlns="http://www.w3.org/2000/svg">
<g clip-path="url(#clip0)">
<path d="M19.5941 15.0236L12.5212 2.00253C11.9874 1.10386 11.0445 0.567139 9.99924 0.567139C8.95392 0.567139 8.01111 1.10386 7.47728 2.00253C7.47326 2.00941 7.46986 2.01628 7.46584 2.02316L0.416462 15.003C-0.128812 15.9206 -0.139124 17.0226 0.388376 17.9505C0.917087 18.879 1.86959 19.4329 2.93783 19.4329H17.0216C18.0898 19.4329 19.0815 18.879 19.6101 17.9505C20.1376 17.0226 20.1274 15.9205 19.5941 15.0236ZM8.82619 6.52921C8.82619 5.88132 9.35138 5.35617 9.99924 5.35617C10.6471 5.35617 11.1723 5.88136 11.1723 6.52921V11.2214C11.1723 11.8693 10.6471 12.3945 9.99924 12.3945C9.35138 12.3945 8.82619 11.8692 8.82619 11.2214V6.52921ZM9.99924 17.0868C9.02896 17.0868 8.23963 16.2975 8.23963 15.3271C8.23963 14.3569 9.02892 13.5676 9.99924 13.5676C10.9695 13.5676 11.7588 14.3569 11.7588 15.3271C11.7588 16.2974 10.9695 17.0868 9.99924 17.0868Z" fill="#A1D96E"/>
</g>
<defs>
<clipPath id="clip0">
<rect width="20" height="20" fill="white"/>
</clipPath>
</defs>
</svg>
