<svg width="657" height="391" viewBox="0 0 657 391" fill="none" xmlns="http://www.w3.org/2000/svg">
<path d="M130.258 265.443C115.445 262.154 100.264 290.432 103.964 305.135C107.665 319.837 123.595 329.027 138.817 329.109C147.203 329.109 155.731 326.988 163.85 329.038C171.969 331.087 179.329 340.031 175.567 347.48C174.173 350.236 171.538 352.234 170.236 355.041C168.033 359.805 170.39 365.696 174.409 369.077C178.427 372.458 183.706 373.862 188.832 374.969C221.788 382.14 255.883 381.116 289.588 380.143L515.199 373.38C523.267 373.135 531.519 372.858 539.012 369.866C546.506 366.875 553.189 360.553 554.296 352.572C555.403 344.59 549.027 335.738 540.991 336.086C564.595 325.683 586.064 310.995 604.31 292.768C607.15 289.93 609.989 286.877 611.199 283.055C612.409 279.234 616.765 269.193 613.362 267.072C611.25 265.75 608.616 265.679 606.115 265.638C574.337 265.156 537.762 265.064 505.953 265.064C381.077 265.064 283.888 265.443 130.278 265.443" fill="#F5F5F5"/>
<path d="M316.66 140.734C327.988 140.734 337.172 131.555 337.172 120.232C337.172 108.91 327.988 99.7307 316.66 99.7307C305.332 99.7307 296.148 108.91 296.148 120.232C296.148 131.555 305.332 140.734 316.66 140.734Z" fill="#EBEBEB"/>
<path d="M301.12 47.9597L382.256 48.2978C382.256 48.2978 374.568 30.7266 358.156 30.7163C345.64 30.7163 345.076 38.503 337.572 40.7263C330.069 42.9496 314.159 29.3332 301.12 47.9597Z" fill="#F5F5F5"/>
<path d="M179.329 9.11858L222.239 9.303C222.239 9.303 218.139 0.0102456 209.487 0C202.865 0 202.578 4.09824 198.601 5.29698C194.623 6.49571 186.248 -0.72744 179.329 9.11858Z" fill="#F5F5F5"/>
<path d="M0 178.98L81.1358 179.319C81.1358 179.319 73.4476 161.758 57.036 161.747C44.5196 161.747 43.9558 169.534 36.4522 171.757C28.9485 173.981 13.0699 160.313 0 178.98Z" fill="#F5F5F5"/>
<path d="M206.812 229.686C206.812 229.686 178.653 180.118 175.772 134.217L167.643 133.336C167.643 133.336 172.256 191.173 197.453 233.641L206.812 229.686Z" fill="#E0E0E0"/>
<path d="M169.529 133.705C163.471 128.91 156.203 124.576 148.546 125.283C142.877 125.806 137.731 129.074 133.897 133.265C130.063 137.455 127.357 142.568 124.856 147.68C130.1 148.769 135.542 148.415 140.601 146.655C145.399 144.965 149.725 142.045 154.655 140.816C159.586 139.586 164.64 140.119 169.632 140.641C172.523 142.865 171.682 138.449 169.529 133.746" fill="#EBEBEB"/>
<path d="M170.052 136.748C170.462 130.467 170.646 123.654 167.048 118.49C163.163 112.917 155.906 110.816 149.13 110.191C142.354 109.566 135.373 109.976 128.946 107.763C130.062 111.736 132.143 115.371 135.005 118.346C137.866 121.32 141.419 123.542 145.347 124.812" fill="#EBEBEB"/>
<path d="M165.336 137.711C166.528 135.203 168.022 132.849 169.785 130.703C171.573 128.542 174.088 127.106 176.858 126.666C180.487 126.267 184.034 128.244 186.525 130.908C189.016 133.572 191.261 144.842 203.9 151.399C205.253 152.106 184.588 158.09 177.002 148.326C173.927 144.278 169.98 140.611 165.265 138.623" fill="#EBEBEB"/>
<path d="M169.201 137.486C163.942 135.191 157.494 138.039 154.173 142.731C150.852 147.424 150.073 153.438 150.145 159.124C150.216 164.811 151.016 170.62 150.442 176.337C155.641 173.668 160.211 169.921 163.847 165.347C167.483 160.773 170.102 155.476 171.528 149.811C172.379 146.72 172.581 143.486 172.122 140.313C171.642 137.118 169.963 134.224 167.428 132.219" fill="#EBEBEB"/>
<path d="M165.193 130.826C169.293 122.824 174.07 114.249 182.312 110.581C190.554 106.913 200.384 109.116 209.179 106.841C203.799 118.74 194.048 128.116 181.943 133.029" fill="#EBEBEB"/>
<path d="M170.575 134.197C164.424 129.166 161.349 121.247 160.437 113.388C159.524 105.53 160.734 97.5894 161.892 89.8232C166.285 92.8173 169.805 96.9216 172.093 101.718C174.382 106.515 175.358 111.832 174.921 117.128" fill="#EBEBEB"/>
<path d="M315.963 265.043H155.137C155.137 265.043 169.365 205.619 210.646 208.273C251.926 210.926 247.692 232.37 266.534 236.612C285.375 240.854 307.353 235.987 315.963 265.043Z" fill="#EBEBEB"/>
<path d="M635.832 265.289C635.832 265.371 500.11 265.443 332.734 265.443C165.357 265.443 29.6045 265.371 29.6045 265.289C29.6045 265.207 165.296 265.125 332.734 265.125C500.172 265.125 635.832 265.197 635.832 265.289Z" fill="#E0E0E0"/>
<path d="M261.941 292.707C261.941 292.799 240.322 292.553 213.669 292.164C187.017 291.774 165.388 291.375 165.388 291.293C165.388 291.211 187.007 291.446 213.669 291.836C240.332 292.225 261.941 292.625 261.941 292.707Z" fill="#E0E0E0"/>
<path d="M216.806 306.098C216.806 306.19 210.891 305.934 203.603 305.534C196.315 305.135 190.41 304.745 190.42 304.653C190.431 304.561 196.335 304.817 203.624 305.217C210.912 305.616 216.816 306.026 216.806 306.098Z" fill="#E0E0E0"/>
<path d="M235.514 318.813C235.514 318.905 229.138 318.977 221.276 318.977C213.413 318.977 207.037 318.905 207.037 318.813C207.037 318.72 213.413 318.659 221.276 318.659C229.138 318.659 235.514 318.731 235.514 318.813Z" fill="#E0E0E0"/>
<path d="M622.731 386.966C622.731 386.966 622.208 386.966 621.194 387.017L616.704 387.12L599.411 387.437L535.855 388.462L491.93 389.118C476.144 389.333 459.281 389.62 441.516 389.712C423.782 389.61 405.074 389.948 385.854 387.53C380.994 386.925 376.193 385.914 371.503 384.507L368.007 383.308L366.264 382.714C365.68 382.53 365.075 382.407 364.481 382.253C363.886 382.1 363.292 381.936 362.687 381.813L360.862 381.505C359.643 381.3 358.415 381.156 357.182 381.075C355.952 380.962 354.701 380.972 353.461 380.942C352.221 380.911 350.96 380.942 349.719 381.116C347.219 381.307 344.735 381.676 342.287 382.222C339.816 382.747 337.39 383.463 335.03 384.364C333.841 384.815 332.6 385.153 331.381 385.552C330.161 385.952 328.951 386.362 327.7 386.669C317.83 389.067 307.671 390.064 297.522 389.63C287.527 389.364 277.738 388.216 268.153 387.038C258.568 385.86 249.138 384.671 239.871 384.118C235.237 383.831 230.645 383.749 226.104 383.811C221.563 383.872 217.093 384.231 212.675 384.62C203.839 385.419 195.249 386.515 186.843 387.151C178.437 387.786 170.278 387.98 162.374 388.052C154.471 388.124 146.854 388.052 139.525 388.001L118.418 387.991L54.8012 387.591L37.5182 387.458L33.0181 387.407H31.4805C31.4805 387.407 32.0033 387.407 33.0181 387.407H37.5182H54.8115L118.418 387.632L139.494 387.714C146.823 387.714 154.45 387.806 162.343 387.714C170.237 387.622 178.396 387.427 186.781 386.792C195.167 386.157 203.747 385.05 212.593 384.241C217.022 383.852 221.511 383.524 226.063 383.421C230.614 383.319 235.227 383.421 239.871 383.729C249.168 384.272 258.589 385.46 268.184 386.638C277.779 387.817 287.537 388.944 297.501 389.22C307.602 389.644 317.712 388.651 327.536 386.269C328.767 385.962 329.966 385.522 331.186 385.153C332.406 384.784 333.615 384.435 334.804 383.974C337.192 383.068 339.646 382.345 342.144 381.813C344.615 381.262 347.123 380.889 349.648 380.696C350.908 380.552 352.169 380.573 353.42 380.522C354.671 380.47 355.942 380.522 357.192 380.655C358.443 380.788 359.693 380.85 360.913 381.095L362.769 381.413C363.374 381.536 363.978 381.7 364.583 381.854C365.188 382.007 365.793 382.14 366.387 382.325L368.15 382.929L371.636 384.118C376.289 385.517 381.052 386.521 385.874 387.12C405.033 389.538 423.731 389.169 441.465 389.333C459.209 389.251 476.092 388.985 491.879 388.79L535.794 388.196L599.4 387.315L616.693 387.089H621.194L622.731 386.966Z" fill="#263238"/>
<path d="M392.968 339.365C393.583 340.461 398.36 360.799 401.732 375.327C402.692 379.458 405.023 383.142 408.346 385.778C411.669 388.415 415.787 389.848 420.03 389.845H451.931C456.233 389.836 460.4 388.35 463.737 385.636C467.073 382.922 469.376 379.146 470.259 374.938L477.753 339.365H392.968Z" fill="#455A64"/>
<path d="M392.968 339.365C392.968 339.365 413.47 350.574 438.922 349.129C464.375 347.684 477.784 339.365 477.784 339.365H392.968Z" fill="#263238"/>
<path d="M449.081 348.678C449.081 348.678 449.214 348.801 449.358 349.078C449.563 349.494 449.724 349.93 449.84 350.379C450.302 352.048 450.379 353.799 450.065 355.502C449.634 358.055 448.436 360.417 446.631 362.274C444.34 364.534 441.249 365.797 438.031 365.789C434.819 365.827 431.71 364.661 429.317 362.52C427.477 360.726 426.129 358.489 425.402 356.025C424.885 354.416 424.541 352.757 424.376 351.076C424.259 350.463 424.259 349.834 424.376 349.221C424.625 349.787 424.781 350.389 424.838 351.004C425.166 352.607 425.615 354.182 426.181 355.717C426.971 357.977 428.297 360.012 430.045 361.649C432.25 363.545 435.072 364.569 437.979 364.528C440.884 364.543 443.684 363.443 445.801 361.455C447.493 359.773 448.664 357.638 449.173 355.307C449.531 353.727 449.587 352.093 449.337 350.492C449.245 349.918 449.153 349.467 449.081 349.17C449.009 348.873 449.04 348.689 449.081 348.678Z" fill="#263238"/>
<path d="M389.154 222.719C389.154 222.719 360.575 303.424 325.506 324.396C325.506 324.396 365.485 344.888 389.154 324.396C409.922 306.374 443.843 243.395 448.937 222.719H389.154Z" fill="#455A64"/>
<path d="M250.429 315.8L317.316 319.161C317.316 319.161 339.806 332.275 366.387 333.361L304.297 333.433C291.069 334.037 277.847 332.106 265.344 327.747C259.091 325.544 254.755 319.345 250.429 315.8Z" fill="#263238"/>
<path d="M291.474 386.864C291.105 386.618 314.405 350.369 343.507 305.924C372.609 261.478 396.514 225.598 396.894 225.844C397.273 226.09 373.962 262.328 344.85 306.784C315.737 351.24 291.894 387.099 291.474 386.864Z" fill="#455A64"/>
<path d="M324.051 383.759C323.753 384.087 307.7 369.754 288.172 351.762C268.645 333.771 253.094 318.905 253.401 318.577C253.709 318.249 269.752 332.583 289.28 350.584C308.808 368.586 324.348 383.431 324.051 383.759Z" fill="#455A64"/>
<path d="M353.881 380.983C353.502 380.747 374.783 345.533 401.404 302.327C428.026 259.122 449.922 224.276 450.291 224.461C450.66 224.645 429.399 259.911 402.767 303.127C376.136 346.342 354.26 381.208 353.881 380.983Z" fill="#455A64"/>
<path d="M385.351 384.968C385.033 385.276 369.165 369.754 349.924 350.287C330.683 330.82 315.317 314.786 315.625 314.479C315.932 314.171 331.801 329.693 351.062 349.16C370.323 368.627 385.659 384.661 385.351 384.968Z" fill="#455A64"/>
<path d="M364.962 364.805C364.962 365.246 351.452 365.952 334.763 366.383C318.075 366.813 304.523 366.803 304.513 366.383C304.502 365.963 318.023 365.235 334.722 364.805C351.421 364.375 364.952 364.364 364.962 364.805Z" fill="#455A64"/>
<path d="M415.632 195.998C417.762 193.773 420.5 192.222 423.505 191.542C426.519 191.029 429.942 192.064 431.593 194.615C432.977 196.757 432.977 199.625 434.576 201.613C435.703 203.037 437.456 203.785 438.953 204.82C440.172 205.617 441.201 206.673 441.966 207.913C442.732 209.152 443.215 210.545 443.381 211.992C443.502 213.446 443.158 214.901 442.4 216.147C441.641 217.394 440.506 218.367 439.158 218.928L425.617 216.735L411.911 206.305L415.632 195.998Z" fill="#263238"/>
<path d="M443.607 200.322C443.631 200.117 443.717 199.924 443.853 199.769C444.043 199.545 444.28 199.366 444.548 199.245C444.816 199.125 445.107 199.065 445.401 199.072C445.829 199.063 446.251 199.173 446.621 199.39C447.062 199.665 447.417 200.059 447.646 200.527C448.144 201.656 448.184 202.934 447.759 204.092C447.276 205.499 446.329 206.698 445.073 207.494C444.356 207.959 443.547 208.263 442.701 208.386C441.855 208.508 440.992 208.445 440.173 208.201C439.27 207.937 438.435 207.48 437.727 206.861C437.018 206.241 436.454 205.475 436.073 204.615C435.273 202.781 435.488 200.701 435.642 198.744C435.963 196.865 435.765 194.935 435.068 193.16C434.299 191.569 433.023 190.279 431.439 189.492C429.996 188.784 428.385 188.49 426.785 188.642C425.388 188.762 424.029 189.159 422.787 189.81C420.974 190.795 419.424 192.2 418.267 193.908C417.436 195.097 417.098 195.835 417.057 195.814C417.1 195.62 417.173 195.433 417.272 195.261C417.518 194.752 417.795 194.259 418.103 193.785C419.228 192.012 420.779 190.547 422.613 189.523C423.88 188.827 425.275 188.395 426.713 188.253C428.394 188.076 430.091 188.371 431.613 189.103C433.308 189.925 434.676 191.293 435.498 192.986C436.243 194.841 436.463 196.865 436.134 198.836C435.97 200.814 435.785 202.791 436.513 204.461C436.865 205.258 437.386 205.968 438.042 206.541C438.697 207.115 439.47 207.538 440.306 207.781C441.059 208.011 441.852 208.076 442.632 207.972C443.413 207.867 444.161 207.596 444.827 207.176C446.011 206.442 446.914 205.33 447.39 204.021C447.812 202.955 447.812 201.767 447.39 200.701C447.201 200.288 446.903 199.934 446.528 199.677C446.201 199.475 445.826 199.365 445.442 199.359C445.172 199.343 444.902 199.384 444.65 199.479C444.397 199.574 444.168 199.722 443.976 199.912C443.843 200.039 443.719 200.176 443.607 200.322Z" fill="#263238"/>
<path d="M338.166 321.394C332.395 322.419 304.502 311.876 284.421 309.212C279.726 308.587 271.945 313.659 270.285 313.546C262.463 313.003 259.142 295.104 268.634 288.68C278.885 281.764 340.391 294.561 340.391 294.561C340.391 294.561 350.508 298.721 349.545 309.745C348.55 321.579 338.166 321.394 338.166 321.394Z" fill="#EB996E"/>
<path d="M264.021 294.244L242.382 377.745C242.382 377.745 257.287 381.639 257.758 382.499C258.086 383.145 286.727 302.87 286.122 304.581L264.021 294.244Z" fill="#EB996E"/>
<path d="M243.766 375.891C243.766 375.891 228.83 372.715 231.465 375.133C234.099 377.551 256.508 386.31 256.508 386.31L257.738 382.069L243.766 375.891Z" fill="#EB996E"/>
<path d="M413.88 235.167C411.563 231.069 401.65 228.498 401.65 228.498L385.546 223.969L380.421 223.416C376.751 222.606 368.007 222.678 359.396 237.565C343.118 265.699 313.831 233.856 313.831 233.856C312.992 232.304 312.305 230.674 311.781 228.989C311.507 228.153 311.378 227.277 311.401 226.397C311.383 225.305 311.518 224.215 311.801 223.16C312.16 222.217 311.186 221.326 310.417 221.828C309.649 222.33 308.603 224.901 308.828 228.118C309.054 231.336 305.569 227.627 304.277 226.295C302.985 224.963 298.752 220.988 298.045 221.09C297.019 221.203 296.896 222.36 298.219 223.662C299.541 224.963 303.231 229.153 302.493 229.809C301.755 230.465 295.318 223.569 295.318 223.569C295.318 223.569 294.17 221.869 293.268 222.545C291.689 223.846 299.121 230.659 299.849 231.284C300.351 231.725 299.572 232.463 299.059 231.961C298.547 231.458 292.745 224.942 291.125 226.254C289.875 227.278 297.183 231.909 297.635 233.928C298.086 235.946 292.448 229.829 291.299 230.854C290.869 231.233 290.602 231.571 294.375 234.604C297.112 236.647 299.959 238.539 302.903 240.27C306.194 246.817 317.921 265.884 343.159 265.679C356.69 265.597 365.916 257.359 371.984 248.261L394.054 253.579L404.367 259.204C404.367 259.204 416.196 239.276 413.88 235.167Z" fill="#FFBE9D"/>
<path d="M398.923 225.68L430.465 228.497L406.048 212.914C406.048 212.914 410.322 204.871 411.788 202.617C412.085 202.146 452.464 225.157 456.359 228.497C460.06 231.674 458.471 243.64 447.902 243.999C437.333 244.358 408.949 243.999 408.949 243.999L398.923 225.68Z" fill="#FFBE9D"/>
<path d="M385.853 227.975C386.715 226.428 389.554 215.588 389.554 215.588C389.554 215.588 383.485 212.729 385.279 206.367C387.073 200.004 392.455 185.722 392.455 185.722L405.884 184.103L413.777 197.545L402.388 228.62L385.853 227.975Z" fill="#FFBE9D"/>
<path d="M390.067 196.634C390.012 196.793 390.005 196.964 390.047 197.127C390.089 197.29 390.178 197.436 390.304 197.548C390.429 197.66 390.585 197.732 390.752 197.756C390.918 197.779 391.088 197.753 391.239 197.68C391.391 197.607 391.517 197.491 391.603 197.346C391.688 197.202 391.729 197.035 391.72 196.867C391.711 196.699 391.652 196.538 391.551 196.403C391.45 196.269 391.312 196.167 391.153 196.111C391.048 196.074 390.936 196.058 390.824 196.064C390.712 196.07 390.602 196.098 390.501 196.147C390.401 196.195 390.31 196.263 390.236 196.347C390.161 196.431 390.104 196.528 390.067 196.634Z" fill="#263238"/>
<path d="M389.595 195.497C389.667 195.63 390.436 195.333 391.307 195.589C392.178 195.845 392.691 196.481 392.814 196.399C392.937 196.317 392.814 196.132 392.629 195.845C392.336 195.462 391.926 195.185 391.461 195.056C390.998 194.925 390.506 194.947 390.056 195.117C389.718 195.261 389.564 195.435 389.595 195.497Z" fill="#263238"/>
<path d="M399.333 199.861C399.278 200.02 399.271 200.192 399.313 200.354C399.356 200.517 399.445 200.664 399.57 200.776C399.696 200.888 399.852 200.96 400.018 200.983C400.185 201.007 400.354 200.98 400.506 200.908C400.657 200.835 400.784 200.719 400.869 200.574C400.955 200.429 400.996 200.262 400.987 200.094C400.977 199.927 400.919 199.765 400.818 199.631C400.717 199.496 400.579 199.394 400.42 199.339C400.206 199.266 399.973 199.28 399.77 199.378C399.567 199.476 399.41 199.649 399.333 199.861Z" fill="#263238"/>
<path d="M399.149 198.816C399.211 198.96 399.979 198.663 400.851 198.909C401.722 199.155 402.235 199.8 402.368 199.718C402.501 199.636 402.368 199.462 402.173 199.165C401.875 198.789 401.466 198.516 401.004 198.386C400.542 198.25 400.048 198.272 399.6 198.447C399.262 198.581 399.108 198.755 399.149 198.816Z" fill="#263238"/>
<path d="M393.5 205.004C392.997 204.967 392.505 204.842 392.045 204.636C391.913 204.595 391.786 204.54 391.665 204.472C391.581 204.419 391.512 204.347 391.462 204.261C391.412 204.175 391.383 204.079 391.378 203.98C391.402 203.636 391.543 203.31 391.778 203.058L392.967 201.459C393.926 200.044 395.028 198.733 396.258 197.546C395.453 199.056 394.491 200.478 393.388 201.787L392.178 203.355C392.005 203.52 391.881 203.729 391.819 203.959C391.819 204.082 391.952 204.185 392.178 204.277C393.019 204.666 393.531 204.933 393.5 205.004Z" fill="#263238"/>
<path d="M398.308 203.724C398.083 204.441 399.005 205.332 400.359 205.824C401.712 206.316 402.952 206.234 403.239 205.537C403.526 204.84 402.675 203.775 401.291 203.263C399.907 202.75 398.503 203.006 398.308 203.724Z" fill="#EB996E"/>
<path d="M396.197 206.808C396.279 206.756 393.122 207.402 391.399 206.808C391.561 207.355 391.903 207.832 392.371 208.159C392.838 208.487 393.403 208.647 393.972 208.612C394.505 208.661 395.036 208.5 395.452 208.163C395.868 207.825 396.135 207.339 396.197 206.808Z" fill="white"/>
<path d="M389.554 215.588C392.56 216.488 395.759 216.516 398.78 215.67C398.78 215.67 395.305 219.604 389.124 217.166L389.554 215.588Z" fill="#EB996E"/>
<path d="M403.321 198.591C403.464 198.591 403.393 199.134 402.89 199.37C402.388 199.605 401.947 199.37 402.009 199.226C402.07 199.083 402.357 199.052 402.654 198.888C402.952 198.724 403.188 198.539 403.321 198.591Z" fill="#263238"/>
<path d="M410.414 190.251C406.56 193.386 398.687 195.24 393.757 194.595C394.587 193.97 398.124 192.945 398.954 192.32C396.227 193.345 392.393 194.748 389.585 193.949C389.238 193.889 388.923 193.712 388.693 193.447C388.59 193.236 388.532 193.006 388.524 192.771C388.515 192.537 388.555 192.303 388.642 192.085C389.323 189.728 390.222 187.441 391.327 185.251C392.2 183.442 393.675 181.994 395.499 181.153C397.826 180.2 400.502 180.691 402.901 181.45C404.955 181.999 406.856 183.012 408.457 184.411C409.25 185.115 409.854 186.008 410.212 187.007C410.57 188.006 410.672 189.079 410.507 190.128" fill="#263238"/>
<path d="M407.114 189.052C407.114 189.052 402.285 197.003 407.575 204.42C407.575 204.42 404.623 211.838 406.734 216.715C406.734 216.715 411.716 209.021 413.172 205.547C414.627 202.074 422.398 190.179 410.24 187.105L407.114 189.052Z" fill="#263238"/>
<path d="M404.234 259.655C404.234 259.655 402.645 248.302 393.983 246.499C389.154 245.475 381.682 250.208 381.682 250.208L378.729 245.813C378.142 244.914 377.345 244.17 376.408 243.646C375.471 243.121 374.42 242.832 373.346 242.801C372.272 242.771 371.207 243.001 370.241 243.472C369.276 243.943 368.439 244.641 367.802 245.505C364.727 249.931 366.438 255.823 366.438 255.823L365.034 271.519L349.955 295.237C354.978 296.498 360.083 298.004 365.085 299.438L363.65 326.743C390.221 330.513 392.722 309.674 392.496 300.043L395.428 278.804L404.234 259.655Z" fill="#79C930"/>
<g opacity="0.2">
<path opacity="0.2" d="M382.245 275.289C376.701 274.336 371.223 273.033 365.844 271.386C368.63 271.776 371.39 272.34 374.106 273.076C376.864 273.639 379.582 274.378 382.245 275.289Z" fill="black"/>
</g>
<g opacity="0.4">
<path opacity="0.4" d="M404.233 259.296C404.122 259.405 403.978 259.473 403.823 259.49C403.602 259.511 403.38 259.483 403.171 259.409C402.962 259.334 402.772 259.215 402.613 259.06C402.151 258.563 401.802 257.973 401.588 257.329C401.434 256.969 401.199 256.65 400.902 256.396C400.561 256.125 400.154 255.948 399.723 255.884C398.691 255.787 397.649 255.874 396.647 256.14C395.388 256.399 394.078 256.195 392.957 255.566C391.791 254.857 390.687 254.052 389.656 253.159C388.623 252.209 387.295 251.641 385.894 251.55C384.491 251.739 383.147 252.236 381.958 253.005C380.749 253.717 379.363 254.072 377.96 254.03C376.684 253.971 375.45 253.552 374.403 252.821C373.557 252.149 372.775 251.402 372.066 250.587C371.49 249.946 370.793 249.424 370.016 249.05C369.429 248.781 368.784 248.661 368.14 248.702C367.587 248.773 367.065 248.997 366.633 249.347C366.706 249.214 366.807 249.099 366.93 249.009C367.269 248.734 367.677 248.557 368.109 248.497C368.805 248.407 369.512 248.503 370.159 248.774C370.988 249.136 371.734 249.662 372.353 250.321C373.065 251.101 373.843 251.817 374.68 252.462C375.67 253.105 376.82 253.46 378.001 253.487C379.319 253.499 380.615 253.144 381.743 252.462C382.994 251.64 384.418 251.118 385.904 250.935C387.428 251.022 388.876 251.63 390.005 252.657C391.01 253.539 392.083 254.34 393.213 255.054C394.243 255.646 395.451 255.846 396.617 255.618C397.676 255.357 398.773 255.291 399.856 255.423C400.347 255.512 400.806 255.727 401.189 256.048C401.509 256.35 401.76 256.716 401.927 257.124C402.111 257.747 402.422 258.326 402.839 258.825C402.969 258.968 403.127 259.083 403.304 259.164C403.48 259.245 403.67 259.29 403.864 259.296C404.09 259.368 404.223 259.265 404.233 259.296Z" fill="white"/>
</g>
<g opacity="0.4">
<path opacity="0.4" d="M400.707 267.574C400.516 267.087 400.283 266.617 400.01 266.171C399.61 265.593 399.096 265.102 398.501 264.729C397.905 264.355 397.24 264.107 396.545 263.999C395.591 263.871 394.62 264.043 393.767 264.49C392.779 265.065 391.752 265.569 390.692 265.996C389.412 266.371 388.043 266.303 386.807 265.802C386.154 265.542 385.553 265.167 385.033 264.695C384.537 264.199 384.081 263.665 383.67 263.097C383.28 262.552 382.822 262.06 382.307 261.632C381.811 261.244 381.226 260.987 380.605 260.884C379.383 260.745 378.146 260.885 376.986 261.294C375.899 261.673 374.786 261.975 373.655 262.195C372.623 262.379 371.56 262.28 370.58 261.908C369.779 261.575 369.122 260.969 368.724 260.197C368.469 259.647 368.094 259.161 367.627 258.773C367.334 258.55 366.97 258.44 366.602 258.466C366.346 258.466 366.233 258.589 366.213 258.568C366.192 258.548 366.305 258.435 366.582 258.363C366.786 258.322 366.996 258.322 367.2 258.363C367.404 258.403 367.598 258.483 367.771 258.599C368.796 259.111 369.011 260.966 370.744 261.56C371.656 261.875 372.635 261.946 373.583 261.765C374.69 261.525 375.779 261.21 376.843 260.822C378.076 260.378 379.395 260.223 380.697 260.372C381.404 260.484 382.07 260.773 382.635 261.212C383.184 261.667 383.674 262.19 384.09 262.769C384.483 263.315 384.919 263.828 385.392 264.306C386.075 264.924 386.903 265.359 387.799 265.572C388.694 265.785 389.63 265.769 390.518 265.525C391.575 265.12 392.603 264.64 393.593 264.091C394.526 263.62 395.586 263.458 396.617 263.63C397.352 263.757 398.051 264.04 398.668 264.458C399.284 264.877 399.805 265.422 400.194 266.058C400.403 266.401 400.559 266.774 400.656 267.164C400.687 267.299 400.705 267.436 400.707 267.574Z" fill="white"/>
</g>
<g opacity="0.4">
<path opacity="0.4" d="M396.853 276.549C396.492 276.246 396.073 276.02 395.622 275.883C394.348 275.668 393.038 275.873 391.891 276.467C391.043 276.842 390.139 277.074 389.216 277.154C388.103 277.176 387.017 276.814 386.14 276.129C384.275 274.797 383.168 272.492 381.281 270.935C380.846 270.543 380.338 270.241 379.785 270.046C379.233 269.851 378.648 269.766 378.063 269.798C376.95 269.946 375.866 270.257 374.844 270.72C373.869 271.153 372.831 271.426 371.769 271.529C370.822 271.566 369.884 271.347 369.052 270.894C367.905 270.215 366.893 269.329 366.069 268.281C365.739 267.928 365.454 267.535 365.218 267.113C365.586 267.428 365.928 267.77 366.243 268.138C367.102 269.106 368.118 269.923 369.247 270.556C370.022 270.953 370.889 271.137 371.758 271.088C372.768 270.959 373.753 270.68 374.68 270.259C375.743 269.752 376.877 269.406 378.042 269.234C379.355 269.16 380.643 269.605 381.63 270.474C382.569 271.301 383.415 272.228 384.152 273.24C384.817 274.148 385.595 274.968 386.468 275.678C387.234 276.32 388.196 276.681 389.195 276.703C390.076 276.635 390.94 276.431 391.758 276.099C392.462 275.815 393.199 275.622 393.952 275.525C394.529 275.45 395.116 275.499 395.674 275.668C396.027 275.781 396.35 275.974 396.617 276.232C396.801 276.416 396.863 276.539 396.853 276.549Z" fill="white"/>
</g>
<g opacity="0.4">
<path opacity="0.4" d="M394.269 290.33C394.137 290.356 394.002 290.356 393.87 290.33C393.481 290.309 393.099 290.218 392.742 290.063C391.479 289.403 390.417 288.416 389.667 287.205C389.135 286.424 388.508 285.711 387.801 285.084C386.966 284.424 385.959 284.018 384.9 283.916C382.624 283.598 380.174 284.469 377.499 284.94C376.181 285.217 374.819 285.217 373.501 284.94C372.234 284.682 371.102 283.977 370.313 282.953C369.705 282.011 369.19 281.013 368.775 279.971C368.419 279.105 367.881 278.326 367.197 277.687C366.175 276.779 364.872 276.251 363.506 276.191C362.533 276.14 362 276.324 361.989 276.262C361.979 276.201 362.112 276.201 362.369 276.119C362.742 276.034 363.123 275.986 363.506 275.976C364.948 275.973 366.345 276.477 367.453 277.4C368.19 278.064 368.777 278.878 369.175 279.787C369.598 280.788 370.113 281.749 370.713 282.656C371.434 283.579 372.464 284.212 373.614 284.438C374.866 284.69 376.155 284.69 377.407 284.438C378.719 284.203 379.98 283.854 381.24 283.609C382.463 283.347 383.719 283.281 384.962 283.414C386.093 283.549 387.16 284.008 388.037 284.736C388.753 285.401 389.387 286.151 389.923 286.969C390.611 288.159 391.592 289.153 392.773 289.858C393.245 290.089 393.75 290.248 394.269 290.33Z" fill="white"/>
</g>
<g opacity="0.4">
<path opacity="0.4" d="M393.091 297.174C392.62 296.916 392.13 296.697 391.625 296.518C390.216 296.154 388.747 296.081 387.309 296.303C386.387 296.405 385.372 296.579 384.234 296.672C383.041 296.813 381.832 296.736 380.667 296.446C379.391 296.039 378.241 295.312 377.325 294.336C376.3 293.383 375.48 292.287 374.455 291.344C373.491 290.402 372.278 289.755 370.959 289.479C369.711 289.255 368.437 289.214 367.176 289.356C365.002 289.723 362.786 289.778 360.595 289.52C359.09 289.256 357.734 288.45 356.782 287.256C356.537 286.93 356.347 286.567 356.218 286.18C356.168 286.045 356.136 285.904 356.126 285.76C356.353 286.241 356.628 286.697 356.946 287.123C357.907 288.222 359.224 288.947 360.667 289.172C362.471 289.52 364.665 289.172 367.135 288.895C368.442 288.741 369.764 288.776 371.062 288.998C372.476 289.289 373.778 289.979 374.813 290.985C375.838 292.01 376.751 293.035 377.694 293.998C378.528 294.93 379.587 295.635 380.769 296.047C381.872 296.333 383.018 296.42 384.152 296.303C385.239 296.231 386.253 296.077 387.227 296.006C388.714 295.804 390.227 295.937 391.656 296.395C392.035 296.54 392.396 296.729 392.732 296.959C392.998 297.061 393.111 297.153 393.091 297.174Z" fill="white"/>
</g>
<g opacity="0.2">
<path opacity="0.2" d="M391.983 307.624C391.983 307.624 391.983 307.758 391.901 307.922C391.737 308.145 391.496 308.298 391.225 308.352C390.828 308.428 390.418 308.385 390.046 308.229C389.664 308.049 389.27 307.895 388.867 307.768C388.511 307.694 388.144 307.697 387.79 307.779C387.436 307.86 387.104 308.017 386.817 308.24C386.345 308.578 386.14 308.896 386.068 308.855C385.997 308.814 386.068 308.424 386.571 307.953C386.882 307.64 387.267 307.412 387.69 307.288C388.112 307.164 388.56 307.15 388.99 307.245C389.424 307.38 389.843 307.558 390.241 307.778C390.525 307.926 390.843 307.997 391.163 307.983C391.706 307.942 391.912 307.583 391.983 307.624Z" fill="white"/>
</g>
<g opacity="0.2">
<path opacity="0.2" d="M384.316 256.97C384.235 258.912 384.924 260.808 386.233 262.246C386.897 263.03 387.779 263.599 388.768 263.882C389.756 264.164 390.805 264.147 391.784 263.834C392.763 263.52 393.626 262.924 394.266 262.12C394.905 261.315 395.292 260.34 395.377 259.316C393.576 260.65 391.345 261.271 389.113 261.058C387.063 260.884 385.013 258.876 384.316 256.96" fill="black"/>
</g>
<path d="M395.428 259.316C395.045 259.872 394.517 260.312 393.901 260.587C392.449 261.372 390.762 261.605 389.152 261.241C387.542 260.877 386.119 259.942 385.146 258.609C384.707 258.093 384.42 257.465 384.316 256.796C384.398 256.796 384.685 257.472 385.444 258.374C386.421 259.562 387.767 260.392 389.268 260.732C390.77 261.071 392.342 260.901 393.736 260.249C394.762 259.757 395.315 259.244 395.428 259.316Z" fill="#263238"/>
<g opacity="0.2">
<path opacity="0.2" d="M376.894 298.413C381.773 299.571 385.454 300.749 387.924 304.049C390.999 308.096 391.317 312.419 390.159 314.632C388.877 317.071 387.76 321.087 381.302 324.663C385.905 321.589 387.381 314.417 386.274 309.499C385.656 307.06 384.491 304.794 382.865 302.873C381.24 300.952 379.198 299.427 376.894 298.413Z" fill="black"/>
</g>
<path d="M294.703 212.31L300.628 240.792L311.289 239.173L307.803 211.193L294.703 212.31Z" fill="#E0E0E0"/>
<path d="M301.55 238.149L309.433 237.032L307.27 216.889C307.239 216.621 307.123 216.369 306.939 216.172C306.754 215.975 306.511 215.842 306.245 215.793C304.123 215.445 299.069 214.768 298.044 215.609L297.48 216.141C297.316 216.292 297.193 216.482 297.125 216.694C297.057 216.906 297.045 217.132 297.091 217.35L301.55 238.149Z" fill="#406FBF"/>
<g opacity="0.4">
<path opacity="0.4" d="M296.947 216.951C298.27 217.684 299.683 218.242 301.15 218.61C302.63 218.978 304.185 218.9 305.62 218.385C306.112 218.217 306.541 217.902 306.85 217.483C306.998 217.27 307.071 217.014 307.058 216.754C307.045 216.495 306.946 216.247 306.778 216.049C306.485 215.817 306.126 215.681 305.753 215.66L302.134 215.168C301.12 214.971 300.079 214.953 299.059 215.117C298.577 215.194 298.128 215.407 297.764 215.733C297.401 216.058 297.138 216.481 297.009 216.951" fill="white"/>
</g>
<g opacity="0.4">
<path opacity="0.4" d="M308.203 226.592C308.203 226.592 307.865 227.084 307.014 227.463C305.881 227.943 304.606 227.965 303.457 227.525C302.801 227.269 302.247 226.93 301.724 226.715C301.285 226.512 300.804 226.414 300.32 226.428C299.871 226.474 299.441 226.633 299.069 226.889C299.069 226.889 299.069 226.725 299.264 226.531C299.548 226.268 299.906 226.1 300.289 226.049C300.842 225.974 301.405 226.049 301.919 226.264C302.493 226.469 303.057 226.797 303.662 227.033C304.701 227.413 305.836 227.438 306.891 227.105C307.701 226.859 308.152 226.52 308.203 226.592Z" fill="white"/>
</g>
<g opacity="0.4">
<path opacity="0.4" d="M308.654 228.385C308.654 228.385 308.316 228.877 307.465 229.257C306.331 229.732 305.058 229.754 303.908 229.318C303.252 229.062 302.698 228.723 302.175 228.508C301.736 228.305 301.255 228.207 300.771 228.221C300.322 228.267 299.892 228.426 299.521 228.682C299.521 228.682 299.521 228.518 299.715 228.324C299.996 228.057 300.356 227.888 300.74 227.842C301.293 227.767 301.856 227.842 302.37 228.057C302.944 228.262 303.508 228.59 304.113 228.826C305.152 229.206 306.287 229.232 307.342 228.898C308.152 228.641 308.603 228.313 308.654 228.385Z" fill="white"/>
</g>
<path d="M303.416 217.432C303.354 217.186 301.366 205.609 301.366 205.609L307.937 201.88L308.962 203.724L303.652 206.572L305.046 217.617L303.416 217.432Z" fill="#263238"/>
<path d="M300.525 217.453C300.101 216.796 299.757 216.091 299.5 215.352C298.926 214.041 298.167 212.197 297.367 210.158C296.414 207.73 295.604 205.568 295.133 204.215L295.43 204.103C295.639 204.599 295.771 205.124 295.82 205.66C295.525 205.209 295.294 204.719 295.133 204.205L295.43 204.092C296.014 205.404 296.906 207.535 297.86 209.963C298.669 212.012 299.366 213.867 299.848 215.219C300.152 215.938 300.379 216.686 300.525 217.453Z" fill="#263238"/>
<path d="M286.194 211.479L291.863 199.799L304.974 202.699C304.974 202.699 299.592 203.262 299.849 207.494C299.849 207.494 294.59 205.363 292.827 210.107C292.796 210.107 289.956 207.402 286.194 211.479Z" fill="#455A64"/>
<path d="M292.048 199.523C292.676 203.066 292.95 206.663 292.868 210.26C292.463 208.505 292.236 206.713 292.191 204.912C291.969 203.125 291.921 201.32 292.048 199.523Z" fill="#263238"/>
<path d="M300.146 207.576C298.505 206.64 297.007 205.473 295.697 204.113C294.269 202.877 293.023 201.445 291.996 199.861C292.119 199.769 293.821 201.613 296.096 203.734C298.372 205.855 300.238 207.453 300.146 207.576Z" fill="#263238"/>
<path d="M376.71 298.229C376.71 298.229 310.878 284.551 299.941 291.949C298.064 293.249 296.528 294.981 295.461 297L243.182 372.581C243.182 372.581 227.026 366.291 229.538 369.508C232.049 372.725 255.626 386.782 255.626 386.782L258.64 382.684C269.178 371.26 301.048 335.39 313.636 321.21C333.881 323.638 368.386 327.952 374.27 326.855C374.27 326.855 385.372 327.06 386.468 314.397C387.545 302.676 376.71 298.229 376.71 298.229Z" fill="#FFBE9D"/>
<path d="M366.274 127.158L536.265 84.342L561.257 93.7373L657 223.262C657 223.262 586.597 193.089 560.908 214.574C560.908 214.574 522.805 165.477 459.691 180.763C459.691 180.763 437.826 134.474 366.274 127.158Z" fill="#406FBF"/>
<path opacity="0.2" d="M366.274 127.158L536.265 84.342L561.257 93.7373L657 223.262C657 223.262 586.597 193.089 560.908 214.574C560.908 214.574 522.805 165.477 459.691 180.763C459.691 180.763 437.826 134.474 366.274 127.158Z" fill="black"/>
<path d="M477.507 387.366C476.779 387.212 488.352 332.183 503.329 264.49C518.305 196.798 531.006 142.004 531.765 142.168C532.523 142.332 520.919 197.341 505.932 265.115C490.946 332.89 478.224 387.53 477.507 387.366Z" fill="#263238"/>
<path d="M506.691 139.679C507.265 139.217 516.358 149.832 526.988 163.366C527.121 163.551 527.265 163.735 527.398 163.899L525.912 163.459C541.924 157.987 554.973 154.145 555.209 154.832C555.445 155.518 542.785 160.477 526.783 165.979L525.881 166.286L525.297 165.549L524.887 165.016C514.256 151.481 506.138 140.129 506.691 139.679Z" fill="#263238"/>
<path d="M657 223.262C597.422 160.713 572.768 173.591 572.768 173.591C539.094 119.607 476.41 146.02 476.41 146.02C446.682 107.845 366.295 127.158 366.295 127.158L534.666 84.1985L561.318 93.7371L657 223.262Z" fill="#406FBF"/>
<path d="M574.501 188.499C574.06 188.56 570.554 167.383 566.649 141.215C562.743 115.048 559.945 93.7474 560.386 93.6859C560.826 93.6245 564.342 114.792 568.238 140.98C572.133 167.167 574.942 188.427 574.501 188.499Z" fill="#263238"/>
<path d="M536.265 84.342C535.543 85.4152 534.708 86.4079 533.774 87.303C532.093 89.1267 529.674 91.7496 526.598 94.9667C520.448 101.401 512.011 110.253 502.591 119.976C493.17 129.699 484.56 138.418 478.235 144.678C475.077 147.752 472.494 150.293 470.68 151.994C469.79 152.93 468.808 153.775 467.748 154.514C468.464 153.439 469.296 152.446 470.229 151.553C471.91 149.719 474.329 147.107 477.404 143.889C483.555 137.455 492.002 128.603 501.422 118.87C510.843 109.136 519.454 100.428 525.768 94.1778C528.936 91.1041 531.519 88.5632 533.333 86.8625C534.213 85.9154 535.197 85.07 536.265 84.342Z" fill="#263238"/>
<path d="M531.765 141.072C532.482 141.246 530.739 151.092 527.859 163.059C524.978 175.026 522.651 186.511 521.934 186.337C521.216 186.163 522.959 174.462 525.799 162.485C528.638 150.508 531.047 140.918 531.765 141.072Z" fill="#263238"/>
<path d="M157.812 390.531C150.636 380.972 142.436 371.7 131.97 365.942C121.78 360.317 109.889 358.329 98.234 358.422C86.5787 358.514 75.0567 360.604 63.5859 362.684C68.3987 368.667 74.423 373.566 81.2634 377.059C88.1039 380.552 95.606 382.559 103.277 382.95L106.127 378.851C105.984 381.771 105.85 384.681 105.707 387.591C123.027 389.631 140.51 389.895 157.884 388.38" fill="#78C82F"/>
<path d="M78.9829 370.071C80.0189 369.687 81.0954 369.422 82.1914 369.282C85.1544 368.752 88.1523 368.441 91.161 368.35C101.102 368.131 111.015 369.49 120.53 372.376C130.005 375.257 139.242 378.871 148.156 383.185C151.58 384.814 154.306 386.177 156.213 387.14C157.225 387.582 158.19 388.124 159.094 388.759C158.033 388.462 157.003 388.064 156.018 387.57L147.818 383.984C138.85 379.918 129.629 376.435 120.212 373.554C110.799 370.716 101.024 369.256 91.1917 369.22C88.215 369.238 85.2413 369.416 82.2837 369.753C81.1938 369.948 80.0899 370.054 78.9829 370.071Z" fill="#263238"/>
<path d="M159.36 390.747C164.167 382.629 166.801 373.411 167.007 363.981C167.214 354.55 164.986 345.226 160.539 336.906C158.4 341.523 156.261 346.151 154.122 350.789C156.725 335.502 149.058 319.878 137.802 309.212C126.547 298.546 112.093 291.979 97.8238 285.995C94.8402 307.559 99.2481 329.497 110.33 348.238C121.37 366.772 139.166 383.226 159.401 390.747" fill="#77C730"/>
<path d="M116.962 310.657C117.27 310.493 127.142 328.074 139.033 349.908C150.924 371.741 160.324 389.589 160.026 389.753C159.729 389.917 149.847 372.335 137.956 350.492C126.065 328.648 116.665 310.81 116.962 310.657Z" fill="#263238"/>
<path d="M572.133 357.561C568.569 355.89 564.564 355.402 560.703 356.168C558.653 356.516 556.459 357.131 555.055 358.688C553.65 360.245 553.373 362.991 554.993 364.333C556.042 365.036 557.303 365.355 558.56 365.235C561.574 365.235 564.936 364.661 567.345 366.485C568.729 367.51 569.642 369.241 571.292 369.753C572.116 369.944 572.98 369.861 573.754 369.517C574.527 369.173 575.167 368.587 575.577 367.848C576.36 366.334 576.532 364.577 576.059 362.94C575.864 361.801 575.408 360.724 574.726 359.79C574.045 358.857 573.158 358.094 572.133 357.561Z" fill="#79C930"/>
<path d="M580.108 342.182C577.976 345.256 573.845 344.231 571.907 342.367C569.97 340.502 569.181 337.828 568.442 335.267C566.761 329.406 565.06 323.269 566.31 317.306C566.616 315.501 567.41 313.815 568.606 312.429C569.213 311.746 569.989 311.234 570.857 310.947C571.724 310.659 572.652 310.605 573.547 310.79C575.598 311.333 576.93 313.382 577.863 315.318C580.628 321.05 582.082 327.326 582.117 333.689C582.117 336.65 581.779 339.754 580.067 342.193" fill="#81CC3C"/>
<path d="M585.951 346.537C584.857 345.111 584.128 343.44 583.828 341.668C583.528 339.897 583.665 338.079 584.228 336.373C585.393 332.963 587.479 329.942 590.256 327.644C593.401 324.841 597.065 322.68 601.04 321.281C602.577 320.658 604.231 320.375 605.889 320.451C606.721 320.498 607.53 320.748 608.245 321.178C608.959 321.608 609.558 322.207 609.989 322.921C611.127 325.082 610.04 327.705 608.861 329.847C606.785 333.622 604.417 337.229 601.778 340.635C599.656 343.371 597.216 346.065 593.987 347.305C590.758 348.545 587.386 348.401 585.674 346.158" fill="#81CC3C"/>
<path d="M580.251 387.99C580.139 387.537 580.074 387.074 580.056 386.607C579.964 385.583 579.841 384.343 579.687 382.837C579.502 380.983 579.222 379.14 578.847 377.315C578.337 375.092 577.652 372.913 576.797 370.798C575.971 368.686 574.85 366.703 573.465 364.907C572.339 363.44 570.9 362.243 569.252 361.403C568.135 360.852 566.938 360.479 565.705 360.297C565.241 360.285 564.78 360.22 564.332 360.102C564.798 360.046 565.269 360.046 565.736 360.102C567.014 360.201 568.263 360.527 569.426 361.065C571.164 361.877 572.687 363.084 573.875 364.589C575.316 366.412 576.477 368.439 577.319 370.604C578.177 372.751 578.846 374.969 579.318 377.233C579.676 379.081 579.919 380.949 580.046 382.827C580.169 384.425 580.22 385.716 580.241 386.618C580.295 387.073 580.298 387.534 580.251 387.99Z" fill="#263238"/>
<path d="M579.995 385.091C579.964 384.877 579.964 384.66 579.995 384.445V382.622C579.995 381.034 579.995 378.728 579.913 375.89C579.78 370.214 579.288 362.376 578.345 353.76C577.402 345.143 576.13 337.367 574.982 331.824C574.705 330.431 574.439 329.181 574.172 328.084C573.906 326.988 573.721 326.035 573.516 325.267C573.311 324.498 573.209 323.955 573.096 323.484C573.032 323.278 572.994 323.064 572.983 322.849C573.072 323.044 573.144 323.246 573.199 323.453C573.342 323.914 573.516 324.478 573.732 325.205C573.947 325.933 574.213 326.906 574.49 328.002C574.767 329.099 575.075 330.349 575.372 331.742C576.949 338.992 578.133 346.321 578.919 353.698C579.862 362.325 580.292 370.194 580.333 375.88C580.333 378.728 580.333 381.003 580.231 382.622C580.231 383.37 580.149 383.974 580.118 384.456C580.095 384.67 580.054 384.883 579.995 385.091Z" fill="#263238"/>
<path d="M579.944 369.928C579.894 369.29 579.894 368.649 579.944 368.012C580.015 366.782 580.19 365.01 580.528 362.838C580.947 360.29 581.512 357.769 582.219 355.287C583.058 352.237 584.114 349.252 585.377 346.352C587.552 341.021 590.678 336.13 594.602 331.916C595.283 331.189 596.009 330.504 596.776 329.867C597.114 329.591 597.411 329.304 597.709 329.078L598.559 328.505C599.069 328.123 599.607 327.781 600.169 327.48C598.311 328.935 596.548 330.505 594.89 332.183C591.084 336.417 588.027 341.268 585.848 346.527C584.593 349.403 583.532 352.361 582.67 355.379C581.84 358.155 581.297 360.706 580.877 362.848C580.456 364.989 580.251 366.762 580.118 367.971C580.114 368.627 580.056 369.281 579.944 369.928Z" fill="#263238"/>
</svg>
