<svg width="505" height="449" viewBox="0 0 505 449" fill="none" xmlns="http://www.w3.org/2000/svg">
<path d="M445.361 421.714C444.402 418.031 446.905 414.347 449.707 411.692C452.508 409.037 455.861 406.671 457.327 403.127C459.71 397.42 456.6 389.99 460.636 385.247C463.007 382.453 467.253 381.532 469.349 378.545C470.324 376.891 470.974 375.076 471.268 373.191C473.552 363.709 478.42 354.997 485.362 347.967C485.774 356.435 483.836 364.854 479.749 372.346C478.105 375.343 476.098 378.256 475.536 381.596C474.631 387.035 477.741 392.645 476.319 397.977C474.708 404.08 467.617 408.127 467.242 414.412C466.933 419.765 471.654 424.412 471.29 429.722C470.997 431.992 470.15 434.161 468.819 436.05C464.54 442.859 458.298 447.527 448.879 447.324L437.333 447.656L445.361 421.714Z" fill="#F5F5F5"/>
<path d="M434.994 447.891C433.939 448.044 432.863 448.015 431.818 447.805C430.54 447.615 429.284 447.303 428.068 446.874C426.397 446.296 424.835 445.453 423.447 444.379C422.622 443.715 421.974 442.866 421.561 441.906C421.218 440.82 421.043 439.691 421.043 438.555C421.028 437.341 420.943 436.13 420.789 434.925C420.571 433.647 420.099 432.421 419.4 431.317C418.054 428.983 415.804 426.778 415.099 423.619C414.393 420.461 414.911 417.195 415.463 413.801C416.014 410.407 416.565 406.788 415.253 403.277C413.941 399.765 411.525 396.585 410.29 392.624C409.055 388.662 409.661 384.347 409.419 380.108C409.35 377.958 408.852 375.842 407.952 373.876C407.026 371.885 405.746 370.011 404.743 367.924C402.724 363.641 402.394 358.898 401.853 354.208C401.596 351.846 401.335 349.458 401.07 347.046C400.911 344.619 400.493 342.215 399.824 339.872C399.063 337.506 398.157 335.186 397.111 332.924C396.566 331.752 396.124 330.538 395.788 329.294C395.6 328.016 395.482 326.73 395.435 325.44C395.326 322.847 395.444 320.251 395.788 317.678C396.118 315.097 396.615 312.538 396.89 309.947C396.89 309.787 396.89 309.637 396.89 309.498L396.957 308.984L397.431 309.219C399.871 310.441 401.988 312.192 403.618 314.337C405.199 316.439 406.468 318.745 407.39 321.189C409.287 326.018 409.959 331.061 410.897 335.889C411.834 340.718 413.102 345.45 415.562 349.465C416.819 351.468 418.33 353.298 419.664 355.247C421.085 357.158 422.05 359.353 422.488 361.671C423.149 366.414 420.425 370.568 420.966 374.765C421.222 376.828 421.929 378.813 423.039 380.589C424.076 382.388 425.245 384.058 426.458 385.729C427.642 387.365 428.668 389.103 429.524 390.921C430.327 392.7 430.798 394.603 430.914 396.542C431.167 400.322 430.594 403.908 430.858 407.249C431.162 410.473 432.114 413.609 433.66 416.478C435.038 419.24 436.571 421.735 437.862 424.165C438.502 425.327 439.08 426.521 439.593 427.741C440.047 428.89 440.38 430.081 440.586 431.296C440.902 433.426 440.902 435.589 440.586 437.72C440.275 440.676 439.13 443.492 437.277 445.857C436.998 446.21 436.684 446.537 436.34 446.831C436.111 447.065 435.856 447.273 435.579 447.452C435.149 447.762 434.917 447.902 434.917 447.902C435.726 447.264 436.465 446.546 437.123 445.76C438.913 443.393 440.011 440.6 440.299 437.677C440.574 435.58 440.537 433.457 440.189 431.371C439.987 430.182 439.65 429.019 439.185 427.902C438.672 426.696 438.094 425.516 437.454 424.369C436.152 421.97 434.597 419.476 433.186 416.692C431.593 413.778 430.611 410.587 430.296 407.302C430.009 403.844 430.572 400.257 430.296 396.596C430.225 394.701 429.807 392.834 429.061 391.082C428.207 389.303 427.192 387.601 426.028 385.996C424.87 384.337 423.635 382.666 422.565 380.825C421.392 378.981 420.64 376.915 420.359 374.765C419.83 370.29 422.565 366.114 421.859 361.703C421.429 359.489 420.494 357.397 419.124 355.579C417.823 353.662 416.29 351.832 414.999 349.776C412.408 345.643 411.161 340.814 410.235 335.975C409.309 331.136 408.614 326.125 406.75 321.404C405.852 319.023 404.612 316.777 403.066 314.733C401.513 312.67 399.485 310.988 397.144 309.819L397.673 309.53C397.673 309.68 397.673 309.83 397.673 309.99C397.376 312.603 396.879 315.172 396.571 317.72C396.228 320.254 396.11 322.812 396.218 325.365C396.284 326.607 396.361 327.924 396.548 329.101C396.878 330.3 397.306 331.471 397.828 332.603C398.882 334.89 399.799 337.235 400.574 339.626C401.249 342.008 401.67 344.452 401.831 346.917C402.085 349.337 402.35 351.724 402.603 354.091C403.133 358.802 403.463 363.512 405.415 367.602C406.375 369.637 407.621 371.521 408.603 373.566C409.527 375.593 410.04 377.774 410.114 379.99C410.345 384.272 409.739 388.555 410.919 392.377C412.099 396.2 414.591 399.39 415.849 403.009C417.106 406.628 416.598 410.45 416.025 413.801C415.452 417.152 414.867 420.45 415.595 423.437C416.323 426.424 418.429 428.64 419.808 431.028C420.524 432.207 420.989 433.514 421.175 434.872C421.326 436.09 421.403 437.317 421.407 438.544C421.401 439.631 421.557 440.713 421.87 441.756C422.254 442.677 422.868 443.49 423.657 444.122C425.006 445.19 426.526 446.036 428.156 446.627C429.354 447.069 430.591 447.402 431.851 447.623C432.626 447.761 433.412 447.836 434.2 447.848L434.994 447.891Z" fill="#E0E0E0"/>
<path d="M399.295 315.686C399.352 315.789 399.389 315.902 399.405 316.018C399.471 316.286 399.548 316.618 399.659 317.035C399.879 317.913 400.144 319.252 400.563 320.911C400.982 322.571 402.041 324.466 402.923 326.778C403.806 329.091 404.776 331.746 405.625 334.744C406.474 337.742 407.246 341.061 408.041 344.615C408.725 348.414 409.946 352.104 411.669 355.579C412.606 357.41 413.665 359.262 414.492 361.275C415.31 363.342 415.859 365.5 416.124 367.699C416.679 372.259 417.481 376.787 418.529 381.264L424.903 407.195C426.91 415.14 428.73 422.302 430.252 428.341C431.774 434.379 432.943 439.261 433.792 442.634C434.189 444.283 434.498 445.578 434.719 446.52C434.807 446.938 434.884 447.27 434.939 447.591C434.951 447.709 434.951 447.827 434.939 447.944C434.883 447.84 434.842 447.728 434.818 447.613L434.52 446.606C434.267 445.675 433.903 444.39 433.417 442.752C432.513 439.336 431.212 434.497 429.646 428.533C428.079 422.57 426.205 415.364 424.131 407.431C422.058 399.497 420.073 390.643 417.801 381.446C416.753 376.951 415.951 372.405 415.397 367.827C415.154 365.677 414.632 363.565 413.842 361.543C413.036 359.572 412 357.731 411.062 355.889C409.324 352.361 408.107 348.613 407.445 344.755C406.673 341.189 405.945 337.87 405.118 334.894C404.291 331.917 403.42 329.241 402.537 326.939C401.655 324.637 400.695 322.721 400.332 320.997C399.968 319.273 399.725 317.967 399.548 317.067C399.482 316.661 399.427 316.318 399.372 316.05C399.331 315.933 399.305 315.81 399.295 315.686Z" fill="#E0E0E0"/>
<path d="M432.954 447.912C425.444 443.523 423.359 430.3 426.546 422.377C429.734 414.454 435.281 407.206 436.185 398.737C436.88 392.228 434.719 385.536 436.318 379.176C438.523 370.611 447.159 363.984 447.104 355.151C447.104 350.194 444.203 345.515 444.468 340.568C444.788 334.498 449.618 329.701 452.618 324.369C457.217 316.211 457.57 306.5 459.18 297.357C460.79 288.213 464.452 278.363 472.867 273.899C474.058 281.704 476.175 287.057 475.414 297.614C475.149 301.404 470.573 308.641 469.9 316.95C469.503 321.907 469.216 326.885 468.874 331.853C468.532 336.821 468.201 341.618 466.393 346.114C465.003 349.573 462.786 352.71 461.75 356.286C459.798 363.009 462.268 370.322 460.647 377.142C459.301 382.913 455.133 387.849 454.272 393.727C453.037 401.96 458.485 410.547 455.629 418.352C454.206 422.238 450.886 425.354 449.927 429.369C449.177 432.495 449.927 435.793 449.276 438.94C448.173 443.994 438.248 447.859 432.921 447.506" fill="#E0E0E0"/>
<path d="M470.739 281.629C470.753 281.775 470.753 281.922 470.739 282.068C470.739 282.4 470.639 282.817 470.562 283.353C470.386 284.477 470.176 286.126 469.779 288.256C469.382 290.387 468.191 292.817 467.253 295.751C466.316 298.684 465.301 302.014 464.43 305.762C463.559 309.509 462.809 313.663 462.026 318.138C461.243 322.614 460.394 327.474 458.078 332.121C456.975 334.455 455.806 336.789 454.901 339.273C454.008 341.832 453.448 344.491 453.236 347.185C452.789 352.888 452.027 358.564 450.953 364.187C448.582 375.729 446.31 386.671 444.259 396.724C442.208 406.778 440.101 415.707 438.458 423.202C436.815 430.696 435.447 436.788 434.51 441.05L433.407 445.9C433.274 446.414 433.175 446.831 433.098 447.152C433.069 447.296 433.025 447.436 432.966 447.57C432.953 447.424 432.953 447.277 432.966 447.131C433.032 446.81 433.109 446.392 433.208 445.868C433.44 444.701 433.76 443.073 434.179 440.996C435.061 436.713 436.384 430.621 437.895 423.095C439.406 415.568 441.402 406.553 443.509 396.575C445.615 386.596 447.788 375.59 450.126 364.059C451.206 358.442 451.979 352.774 452.442 347.078C452.655 344.332 453.226 341.623 454.14 339.016C455.067 336.468 456.28 334.123 457.361 331.811C459.655 327.239 460.482 322.453 461.32 317.999C462.158 313.545 462.908 309.37 463.824 305.612C464.631 302.229 465.614 298.888 466.768 295.601C467.739 292.678 468.974 290.248 469.393 288.192C469.812 286.136 470.088 284.423 470.319 283.31C470.419 282.785 470.507 282.368 470.562 282.046C470.609 281.903 470.668 281.763 470.739 281.629Z" fill="#EBEBEB"/>
<path d="M298.416 3.75063C291.975 -3.54054 275.256 1.04186 263.764 6.96259C263.764 6.96259 255.868 10.5814 252.934 12.4551H252.835L226.013 9.24309C223.833 8.97105 221.619 9.34421 219.661 10.3138L217.455 11.3844C217.207 11.5088 216.999 11.6991 216.858 11.9332C216.716 12.1674 216.646 12.4357 216.655 12.707C216.665 12.9783 216.753 13.2415 216.91 13.466C217.067 13.6906 217.287 13.8672 217.543 13.9754L237.296 22.1659V22.4015L217.797 34.8425L217.499 35.0245C213.823 37.3135 209.391 38.1701 205.092 37.4228L194.648 35.6027C194.12 35.505 193.575 35.5494 193.071 35.7311C192.649 35.898 192.278 36.1679 191.994 36.5148C191.711 36.8617 191.525 37.2738 191.454 37.7111C191.383 38.1484 191.429 38.5961 191.589 39.0108C191.749 39.4255 192.016 39.7931 192.365 40.078L204.497 49.8852C205.423 50.6402 206.552 51.1237 207.751 51.2792C208.95 51.4346 210.17 51.2557 211.268 50.7631L216.937 48.2364L245.611 34.9924L242.303 50.8274C242.28 50.98 242.292 51.1355 242.338 51.2833C242.383 51.431 242.461 51.5675 242.565 51.6834C242.67 51.7993 242.799 51.8918 242.944 51.9547C243.089 52.0177 243.247 52.0494 243.405 52.0479H244.751C245.654 52.0107 246.532 51.7514 247.304 51.2945C248.076 50.8376 248.715 50.1979 249.162 49.4355L260.709 28.0224L294.545 12.4015C299.056 10.3887 300.666 6.63069 298.416 3.75063Z" fill="#E0E0E0"/>
<path d="M486.245 73.8573L401.203 72.0264C401.203 72.0264 409.044 58.8681 430.881 61.3199C451.747 63.6218 453.004 55.26 463.669 54.4677C474.334 53.6754 483.002 61.7374 486.245 73.8573Z" fill="#F5F5F5"/>
<path d="M88.5752 118.514H8.45235C8.45235 118.514 15.5327 105.988 36.1562 107.808C55.8644 109.542 56.8569 101.641 66.8819 100.677C76.9069 99.7135 85.2446 107.165 88.5752 118.514Z" fill="#F5F5F5"/>
<path d="M437.817 32.8831H376.697C376.697 32.8831 382.101 23.3328 397.839 24.7247C412.86 26.0523 413.621 20.0245 421.263 19.275C428.906 18.5256 435.27 24.2215 437.817 32.8831Z" fill="#F5F5F5"/>
<path d="M88.4976 157.765H48.5189C48.5189 157.765 52.048 151.512 62.3377 152.411C72.1752 153.279 72.6715 149.339 77.6675 148.857C82.6634 148.375 86.8322 152.101 88.4976 157.765Z" fill="#F5F5F5"/>
<path d="M108.492 50.3134H68.5024C68.5024 50.3134 72.0426 44.0608 82.3323 44.9602C92.1698 45.8274 92.6661 41.8874 97.6621 41.4056C102.658 40.9238 106.86 44.6497 108.492 50.3134Z" fill="#FAFAFA"/>
<path d="M7.12857 447.977C7.12857 448.127 118.44 448.255 255.735 448.255C393.03 448.255 504.364 448.127 504.364 447.977C504.364 447.827 393.075 447.698 255.735 447.698C118.396 447.698 7.12857 447.827 7.12857 447.977Z" fill="#263238"/>
<path d="M83.3147 259.177C83.3941 258.428 83.7577 257.735 84.3346 257.233C84.9116 256.73 85.6605 256.454 86.4358 256.458H109.982C110.441 256.458 110.895 256.558 111.309 256.749C111.724 256.941 112.09 257.219 112.382 257.564C112.673 257.909 112.881 258.312 112.993 258.745C113.104 259.177 113.115 259.628 113.026 260.066C112.887 260.764 112.497 261.393 111.925 261.838C111.354 262.283 110.637 262.516 109.905 262.496H86.4247C85.99 262.495 85.5603 262.406 85.1629 262.235C84.7656 262.063 84.4093 261.814 84.1167 261.501C83.8242 261.189 83.6018 260.821 83.4637 260.421C83.3256 260.021 83.2749 259.597 83.3147 259.177Z" fill="#263238"/>
<path d="M31.9541 440.482C32.1698 441.909 31.9447 443.366 31.3072 444.669C30.6698 445.972 29.6486 447.062 28.3728 447.801C27.0971 448.541 25.6241 448.896 24.1403 448.822C22.6565 448.749 21.2285 448.25 20.0369 447.388C18.8454 446.527 17.9438 445.341 17.4463 443.982C16.9488 442.623 16.8777 441.151 17.242 439.753C17.6063 438.355 18.3897 437.093 19.4929 436.127C20.5962 435.16 21.9698 434.534 23.44 434.326C25.4098 434.047 27.413 434.539 29.0095 435.693C30.606 436.848 31.6651 438.57 31.9541 440.482Z" fill="#263238"/>
<path d="M26.0867 441.585L30.6636 432.399L28.2593 430.91L23.8258 440.503L26.0867 441.585Z" fill="#455A64"/>
<path d="M68.5028 328.491L96.9456 256.447L102.35 259.081L74.7891 330.472L68.5028 328.491Z" fill="#263238"/>
<path d="M2.82878 423.653L44.8504 439.862C45.6006 440.152 46.4385 440.14 47.1798 439.83C47.9211 439.519 48.505 438.936 48.8031 438.207L90.5984 336.092C92.1775 332.234 92.1132 327.925 90.4197 324.113C88.7261 320.301 85.5421 317.298 81.568 315.765L63.8575 308.933C59.8834 307.4 55.4448 307.463 51.5181 309.107C47.5915 310.751 44.4984 313.842 42.9193 317.7L1.12399 419.816C0.825893 420.544 0.838021 421.357 1.15773 422.077C1.47744 422.797 2.07854 423.364 2.82878 423.653Z" fill="#406FBF"/>
<path d="M48.85 438.673C48.85 438.673 48.9162 438.458 49.0706 438.052L49.7654 436.242L52.5005 429.294L62.6799 403.801C67.0141 393.041 72.1534 380.247 77.8663 366.018L86.8546 343.716C87.6266 341.789 88.4206 339.84 89.2037 337.87C90.034 335.944 90.3379 333.842 90.086 331.768C89.8147 329.654 88.961 327.65 87.6151 325.968C86.2692 324.286 84.4808 322.987 82.4384 322.209C80.3959 321.431 78.1751 321.202 76.0098 321.546C73.8445 321.891 71.8151 322.796 70.1352 324.166C68.505 325.525 67.2565 327.264 66.5068 329.219L64.1467 335.076C61.0146 342.806 57.9927 350.258 55.1253 357.367L39.8066 395.097C35.3951 405.803 31.8991 414.487 29.4286 420.514L26.5833 427.42C26.2524 428.18 26.0098 428.78 25.8223 429.208C25.6348 429.636 25.5466 429.808 25.5466 429.808C25.5466 429.808 25.6127 429.593 25.7671 429.176L26.462 427.367C27.0906 425.761 28.017 423.426 29.197 420.429L39.3764 394.936L54.5628 357.153C57.4192 350.044 60.4301 342.581 63.5512 334.851C64.3232 332.913 65.1172 330.965 65.9113 328.995C66.6825 326.921 67.9933 325.077 69.7161 323.641C71.4856 322.197 73.6239 321.242 75.9056 320.879C78.1872 320.515 80.5277 320.756 82.68 321.576C84.8324 322.396 86.7169 323.765 88.1349 325.538C89.5528 327.311 90.4517 329.422 90.7367 331.65C91.0034 333.833 90.6843 336.046 89.8103 338.074L87.4501 343.973C84.318 351.693 81.2962 359.155 78.4287 366.253C72.6718 380.429 67.4773 393.223 63.121 403.93L52.7431 429.358L49.8867 436.253C49.5669 437.024 49.3132 437.613 49.1257 438.041C49.0471 438.257 48.9551 438.468 48.85 438.673Z" fill="#263238"/>
<path d="M51.5629 366.104C51.4747 366.382 45.9824 364.273 39.2881 361.414C32.5937 358.555 27.2448 355.997 27.3331 355.729C27.4213 355.461 32.9245 357.549 39.6079 360.418C46.2912 363.288 51.6511 365.825 51.5629 366.104Z" fill="#263238"/>
<path d="M88.7289 256.447L93.6366 247.025C94.1867 245.972 95.1057 245.145 96.2283 244.691L103.948 241.565L124.748 214.177L126.711 235.151L113.477 248.417C113.477 248.417 105.173 265.397 98.39 264.53C98.5582 263 99.0221 261.514 99.7575 260.151C101.963 256.447 99.6141 256.447 99.3053 256.468H93.6256L88.7289 256.447Z" fill="#FFBE9D"/>
<path d="M122.686 241.961C122.057 242.871 116.918 249.638 116.918 249.638L102.349 239.349L107.643 234.327L122.686 241.961Z" fill="#406FBF"/>
<path d="M99.7135 260.151C99.7135 260.151 95.9197 262.293 95.4455 264.027V265.098L99.9893 264.455L99.7135 260.151Z" fill="#FFBE9D"/>
<path d="M94.6295 262.164C95.3021 261.654 95.8265 260.982 96.1515 260.216C96.2978 259.829 96.2908 259.403 96.1318 259.022C95.9728 258.64 95.6732 258.329 95.2912 258.149C94.5082 257.892 93.7031 258.438 93.0855 258.985C92.3103 259.658 91.5739 260.373 90.8798 261.126C90.5511 261.4 90.2938 261.745 90.129 262.134C89.9641 262.523 89.8964 262.944 89.9313 263.364C90.0333 263.689 90.2364 263.976 90.5128 264.185C90.7892 264.393 91.1254 264.514 91.4753 264.531C91.8274 264.538 92.1774 264.475 92.5036 264.346C92.8299 264.217 93.1255 264.025 93.3722 263.781C93.8636 263.3 94.2565 262.734 94.5302 262.111" fill="#FFBE9D"/>
<path d="M90.7809 261.843C91.4535 261.332 91.9779 260.661 92.3028 259.894C92.4492 259.508 92.4422 259.082 92.2832 258.7C92.1242 258.318 91.8246 258.007 91.4426 257.828C90.6595 257.571 89.8545 258.117 89.2369 258.663C88.4616 259.337 87.7253 260.052 87.0311 260.805C86.7024 261.078 86.4452 261.424 86.2804 261.813C86.1155 262.202 86.0478 262.623 86.0827 263.042C86.1847 263.368 86.3878 263.654 86.6642 263.863C86.9406 264.072 87.2768 264.193 87.6267 264.209C87.9787 264.216 88.3285 264.153 88.6546 264.024C88.9808 263.895 89.2764 263.703 89.5236 263.46C90.0149 262.979 90.4079 262.412 90.6816 261.79" fill="#FFBE9D"/>
<path d="M102.35 245.762C102.35 245.633 101.368 245.676 100.232 246.629C99.7038 247.255 99.2625 247.947 98.9197 248.685C98.4062 249.581 98.1474 250.593 98.1698 251.618C98.3279 252.626 98.7367 253.582 99.3609 254.402C99.7829 255.062 100.089 255.786 100.265 256.543C100.425 257.246 100.477 257.967 100.42 258.685C100.611 258.35 100.731 257.981 100.773 257.6C100.814 257.22 100.777 256.835 100.662 256.468C100.529 255.656 100.241 254.876 99.813 254.166C99.2525 253.4 98.8757 252.522 98.7101 251.597C98.6977 250.666 98.9212 249.747 99.3609 248.92C99.6511 248.209 100.021 247.53 100.464 246.897C100.843 246.532 101.274 246.222 101.743 245.976C101.941 245.894 102.143 245.822 102.35 245.762Z" fill="#EB996E"/>
<path d="M259.298 149.125L274.76 197.111L229.278 243.224L187.601 232.711L259.298 149.125Z" fill="#F5F5F5"/>
<path d="M259.308 149.114L258.956 149.51L257.908 150.709L253.849 155.399L238.729 172.904L187.369 232.539L187.082 232.871L187.512 232.978L211.003 238.91L229.189 243.492H229.355L229.465 243.374L274.925 197.293L275.013 197.197V197.079C270.227 182.379 266.301 170.377 263.577 162.026C262.231 157.893 261.172 154.67 260.444 152.465L259.628 149.981C259.441 149.435 259.353 149.157 259.353 149.157C259.882 150.838 265.319 168 274.583 197.208L274.638 196.994L229.123 243.032L229.399 242.957L211.213 238.364L187.722 232.432L187.865 232.882L238.762 173.268L253.827 155.602L257.886 150.816L258.989 149.574L259.308 149.114Z" fill="#263238"/>
<path d="M257.886 180.773C257.309 179.902 256.556 179.152 255.673 178.57C254.79 177.988 253.795 177.585 252.748 177.385C251.7 177.185 250.622 177.192 249.578 177.407C248.534 177.621 247.545 178.038 246.67 178.632C243.825 180.773 242.512 184.81 239.093 185.88C236.623 186.651 233.899 185.527 231.373 185.966C228.385 186.49 226.157 189.178 225.297 191.962C224.436 194.745 224.668 197.818 224.911 200.762L239.7 200.955L257.886 180.773Z" fill="#E0E0E0"/>
<path d="M285.237 153.503L189.399 249.381L228.451 245.537L283.076 189.552L285.237 153.503Z" fill="#F5F5F5"/>
<path d="M285.226 153.503C285.138 154.906 284.344 167.24 282.888 189.542V189.424C268.915 203.706 249.802 223.225 228.197 245.355L228.374 245.269L198.409 248.203L189.321 249.102L189.553 249.573C242.843 196.041 283.064 155.634 285.171 153.503L189.145 249.188L188.593 249.734L189.376 249.659L198.475 248.76L228.429 245.805H228.528L228.605 245.74C250.177 223.567 269.235 203.985 283.164 189.692V189.627C284.487 167.251 285.16 154.906 285.226 153.503Z" fill="#263238"/>
<path d="M247.729 191.608C250.685 194.916 250.255 200.173 247.729 203.824C245.203 207.475 241.035 209.681 236.822 211.254C233.414 212.529 229.212 213.332 226.389 211.083" fill="#E0E0E0"/>
<path d="M252.714 186.394C252.538 187.197 253.575 187.796 254.413 187.721C255.251 187.646 256.023 187.186 256.872 187.143C259.177 187.015 260.434 189.67 262.309 190.965C263.44 191.683 264.814 191.944 266.14 191.694C267.466 191.444 268.639 190.703 269.412 189.627C270.669 187.732 270.636 184.927 272.621 183.76C273.79 183.205 275.129 183.087 276.382 183.428C277.623 183.763 278.912 183.893 280.198 183.813C280.838 183.756 281.439 183.486 281.899 183.05C282.359 182.613 282.65 182.036 282.723 181.415L283.418 180.345L285.05 153.878L252.714 186.394Z" fill="#E0E0E0"/>
<path d="M206.008 247.443C205.516 247.564 205.004 247.586 204.503 247.508C204.002 247.429 203.523 247.252 203.095 246.988C202.667 246.723 202.3 246.376 202.016 245.968C201.731 245.56 201.536 245.1 201.442 244.616C201.319 243.554 201.62 242.486 202.282 241.632C202.944 240.778 203.918 240.202 205.004 240.023C206.956 239.777 208.974 240.88 210.849 240.312C212.989 239.659 213.871 237.25 214.411 235.141C214.952 233.032 215.713 230.623 217.786 229.788C221.216 228.439 224.833 232.711 228.418 231.768C231.076 231.072 232.101 227.968 234.186 226.222C235.029 225.529 236.042 225.056 237.127 224.85C238.212 224.644 239.333 224.711 240.384 225.045C241.338 225.271 242.204 225.762 242.875 226.458C243.547 227.154 243.996 228.024 244.167 228.963L228.34 245.162L206.008 247.443Z" fill="#E0E0E0"/>
<path d="M232.211 409.476L236.148 431.51C236.148 431.51 260.544 435.022 261.68 439.005L217.94 447.955L210.353 413.866L232.211 409.476Z" fill="#406FBF"/>
<g opacity="0.6">
<path opacity="0.6" d="M222.219 432.442C221.826 432.651 221.526 432.994 221.378 433.405C221.229 433.816 221.242 434.266 221.414 434.668C221.616 435.058 221.965 435.357 222.387 435.505C222.81 435.652 223.275 435.636 223.686 435.461C224.104 435.238 224.42 434.872 224.575 434.435C224.73 433.997 224.712 433.52 224.524 433.095C224.27 432.709 223.872 432.434 223.413 432.329C222.954 432.223 222.471 432.294 222.065 432.527" fill="white"/>
</g>
<path opacity="0.6" d="M217.94 447.977L217.146 444.615L259.452 437.27C259.452 437.27 261.569 437.698 261.658 439.069L217.94 447.977Z" fill="white"/>
<path d="M236.811 431.146C236.811 431.36 235.796 431.671 234.892 432.549C233.987 433.427 233.612 434.422 233.403 434.379C233.193 434.337 233.248 433.073 234.362 432.024C235.476 430.975 236.811 430.953 236.811 431.146Z" fill="#263238"/>
<path d="M241.795 432.056C241.884 432.249 241.034 432.784 240.505 433.812C239.976 434.84 239.965 435.803 239.744 435.846C239.523 435.889 239.137 434.775 239.832 433.469C240.527 432.163 241.751 431.852 241.795 432.056Z" fill="#263238"/>
<path d="M245.556 436.853C245.369 436.938 244.85 435.964 245.148 434.711C245.446 433.459 246.35 432.806 246.482 432.966C246.615 433.127 246.129 433.855 245.887 434.883C245.644 435.91 245.766 436.788 245.556 436.853Z" fill="#263238"/>
<path d="M235.332 426.221C235.332 426.435 234.229 426.349 233.049 426.671C231.869 426.992 231.009 427.559 230.844 427.409C230.678 427.259 231.439 426.339 232.84 425.964C234.241 425.589 235.41 426.039 235.332 426.221Z" fill="#263238"/>
<path opacity="0.3" d="M232.984 413.844L233.689 417.763L212.151 421.971L211.357 418.469L232.984 413.844Z" fill="black"/>
<path d="M234.461 421.788C233.78 422.123 233.018 422.274 232.256 422.227C231.433 422.259 230.611 422.187 229.807 422.013C229.337 421.912 228.873 421.783 228.418 421.628C228.142 421.547 227.882 421.424 227.646 421.264C227.477 421.146 227.352 420.977 227.29 420.784C227.229 420.591 227.233 420.383 227.304 420.193C227.382 420.028 227.498 419.882 227.643 419.766C227.789 419.651 227.959 419.57 228.142 419.529C228.417 419.471 228.7 419.453 228.98 419.476C230.308 419.513 231.603 419.881 232.741 420.546C233.954 421.253 234.472 421.949 234.406 422.013C234.34 422.078 233.689 421.553 232.498 421.007C231.391 420.51 230.189 420.24 228.969 420.215C228.484 420.215 228.087 420.268 228.01 420.493C227.932 420.718 228.01 420.611 228.109 420.728C228.285 420.839 228.474 420.929 228.671 420.996C229.098 421.149 229.532 421.282 229.973 421.392C230.724 421.583 231.492 421.705 232.267 421.756C232.998 421.719 233.731 421.729 234.461 421.788Z" fill="#263238"/>
<path d="M234.241 422.131C234.175 422.185 233.59 421.532 233.215 420.204C233.013 419.424 232.946 418.617 233.017 417.816C233.052 417.336 233.144 416.862 233.293 416.403C233.35 416.099 233.487 415.815 233.689 415.577C233.892 415.339 234.154 415.155 234.451 415.043C234.647 415.013 234.848 415.035 235.032 415.107C235.217 415.178 235.378 415.297 235.498 415.45C235.665 415.678 235.798 415.926 235.895 416.189C236.075 416.645 236.179 417.125 236.204 417.613C236.256 418.436 236.101 419.259 235.752 420.011C235.134 421.285 234.296 421.714 234.263 421.649C234.23 421.585 234.826 421.007 235.245 419.808C235.494 419.122 235.584 418.39 235.509 417.666C235.463 417.248 235.359 416.838 235.201 416.446C235.035 416.018 234.781 415.686 234.616 415.771C234.451 415.857 234.098 416.221 233.998 416.617C233.858 417.018 233.754 417.43 233.69 417.848C233.583 418.584 233.583 419.33 233.69 420.065C233.954 421.36 234.351 422.131 234.241 422.131Z" fill="#263238"/>
<path d="M88.4859 410.814L97.9374 398.823L98.4337 398.202L114.58 409.84L99.6579 425.75L100.198 441.863C108.514 443.94 109.76 447.976 109.76 447.976H92.4893L76.7956 418.64L88.4859 410.814Z" fill="#406FBF"/>
<path opacity="0.6" d="M76.763 418.619L92.4567 447.955L109.728 447.977L107.786 445.45L93.7361 444.69L79.2555 416.96L76.763 418.619Z" fill="white"/>
<path d="M100.066 434.476C99.9337 434.647 98.9632 434.101 97.6067 434.133C96.2502 434.165 95.2907 434.711 95.1584 434.54C95.026 434.369 95.9635 433.469 97.5957 433.394C99.2279 433.319 100.243 434.347 100.066 434.476Z" fill="#263238"/>
<path d="M99.7911 430.482C99.6146 430.6 98.8537 429.615 97.4751 429.347C96.0965 429.08 94.9937 429.701 94.8834 429.529C94.7731 429.358 95.0157 429.165 95.501 428.908C96.156 428.594 96.8996 428.5 97.6158 428.639C98.332 428.779 98.9805 429.144 99.4603 429.679C99.8021 430.107 99.8793 430.439 99.7911 430.482Z" fill="#263238"/>
<path d="M99.9016 425.343C99.7141 425.439 99.1296 424.465 97.9275 424.058C96.7254 423.651 95.6446 424.058 95.5563 423.844C95.4681 423.63 95.7218 423.534 96.207 423.362C96.8452 423.14 97.543 423.14 98.1812 423.362C98.8149 423.586 99.3541 424.008 99.7141 424.561C99.9788 425 100.001 425.343 99.9016 425.343Z" fill="#263238"/>
<path d="M104.533 421.381C104.323 421.446 103.838 420.493 102.768 419.818C101.698 419.144 100.628 419.047 100.562 418.833C100.496 418.619 101.853 418.352 103.143 419.208C104.433 420.065 104.742 421.36 104.533 421.381Z" fill="#263238"/>
<path d="M106.783 417.934C106.695 417.987 106.133 417.313 105.283 416.178L103.817 414.165C103.486 413.751 103.219 413.293 103.022 412.805C102.963 412.63 102.941 412.444 102.958 412.26C102.976 412.076 103.031 411.897 103.122 411.735C103.227 411.56 103.382 411.418 103.567 411.325C103.753 411.232 103.962 411.192 104.169 411.21C104.776 411.323 105.336 411.606 105.78 412.024C106.204 412.354 106.576 412.744 106.882 413.18C107.373 413.912 107.683 414.744 107.787 415.611C107.968 416.391 107.829 417.208 107.401 417.891C107.396 417.154 107.348 416.417 107.257 415.686C107.093 414.917 106.771 414.189 106.309 413.544C106.038 413.175 105.719 412.84 105.361 412.548C105.022 412.248 104.613 412.031 104.169 411.917C104.104 411.909 104.038 411.919 103.979 411.948C103.92 411.977 103.871 412.022 103.839 412.077C103.781 412.229 103.781 412.396 103.839 412.548C104.017 412.961 104.242 413.352 104.511 413.716C104.952 414.433 105.394 415.129 105.835 415.857C106.263 416.496 106.583 417.197 106.783 417.934Z" fill="#263238"/>
<path d="M107.4 418.437C107.323 418.437 107.4 417.549 108.327 416.542C108.964 415.874 109.807 415.424 110.73 415.262C111.654 415.1 112.606 415.233 113.444 415.643C113.532 415.717 113.602 415.81 113.65 415.913C113.697 416.017 113.721 416.129 113.72 416.242C113.709 416.438 113.635 416.625 113.51 416.778C113.331 416.98 113.123 417.157 112.893 417.302C112.509 417.567 112.099 417.793 111.668 417.977C110.949 418.298 110.182 418.507 109.396 418.598C108.68 418.747 107.933 418.68 107.257 418.405C107.257 418.287 108.073 418.341 109.308 418.084C110.021 417.932 110.71 417.691 111.36 417.367C111.745 417.179 112.114 416.961 112.462 416.713C112.631 416.61 112.783 416.484 112.915 416.339C112.992 416.189 112.915 416.232 112.915 416.189C112.759 416.096 112.587 416.035 112.407 416.007C112.196 415.963 111.982 415.931 111.768 415.91C111.357 415.884 110.946 415.913 110.543 415.996C109.853 416.148 109.212 416.464 108.68 416.917C107.775 417.709 107.522 418.48 107.4 418.437Z" fill="#263238"/>
<path opacity="0.6" d="M90.5493 418.116C90.5493 418.51 90.429 418.895 90.2036 419.222C89.9782 419.55 89.6578 419.805 89.283 419.956C88.9082 420.106 88.4957 420.146 88.0978 420.069C87.6999 419.992 87.3344 419.803 87.0475 419.524C86.7606 419.246 86.5652 418.891 86.4861 418.504C86.4069 418.118 86.4476 417.718 86.6028 417.354C86.7581 416.99 87.021 416.679 87.3584 416.46C87.6957 416.241 88.0923 416.125 88.498 416.125C89.0421 416.125 89.5638 416.334 89.9485 416.708C90.3332 417.081 90.5493 417.588 90.5493 418.116Z" fill="white"/>
<path opacity="0.3" d="M113.047 411.435L109.728 414.979L95.7766 401.564L97.7176 399.112L113.047 411.435Z" fill="black"/>
<path d="M155.993 132.208C146.763 129.094 136.8 128.655 127.318 130.944C123.117 131.962 118.848 133.653 116.158 136.951C112.97 140.848 112.573 146.158 112.077 151.116C111.08 161.199 109.169 171.177 106.364 180.933C104.026 189.049 101.07 196.993 99.8021 205.377C98.5338 213.76 99.1183 222.635 103.497 229.916C110.246 241.136 124.594 246.094 137.972 246.318C145.008 246.425 152.221 245.43 158.463 242.261C164.705 239.091 169.9 233.556 171.422 226.886" fill="#455A64"/>
<path d="M137.597 142.486C136.148 143.715 134.863 145.114 133.77 146.651C132.635 148.357 131.639 150.147 130.793 152.004C129.756 154.311 128.566 156.55 127.23 158.707C125.858 160.892 123.967 162.728 121.716 164.06C119.834 165.152 117.619 165.572 115.452 165.248C114 165.047 112.64 164.441 111.537 163.503C111.243 163.247 110.984 162.955 110.765 162.636C110.61 162.422 110.544 162.304 110.566 162.293C110.588 162.283 110.941 162.7 111.669 163.289C112.777 164.105 114.092 164.616 115.474 164.767C117.52 165.003 119.589 164.557 121.341 163.503C123.485 162.191 125.285 160.413 126.602 158.311C127.919 156.177 129.108 153.971 130.164 151.705C131.054 149.833 132.113 148.041 133.329 146.351C134.155 145.207 135.139 144.176 136.252 143.289C136.649 142.949 137.105 142.677 137.597 142.486Z" fill="#E0E0E0"/>
<path d="M118.219 242.775C118.191 242.494 118.191 242.21 118.219 241.929C118.219 241.308 118.219 240.516 118.219 239.531C118.219 237.454 118.374 234.434 118.539 230.719C118.881 223.225 119.477 212.989 120.403 201.662C121.329 190.334 122.377 180.077 123.237 172.679C123.679 168.974 124.053 165.977 124.34 163.921C124.473 162.947 124.594 162.154 124.682 161.544C124.709 161.265 124.765 160.989 124.848 160.72C124.882 160.997 124.882 161.277 124.848 161.555C124.792 162.176 124.715 162.968 124.638 163.942C124.417 166.084 124.12 169.082 123.767 172.722C123.028 180.141 122.046 190.388 121.131 201.715C120.216 213.043 119.532 223.31 119.069 230.741C118.837 234.392 118.649 237.379 118.517 239.541L118.341 241.94C118.325 242.221 118.285 242.5 118.219 242.775Z" fill="#E0E0E0"/>
<path d="M120.966 197.293C120.966 197.475 116.742 197.432 111.581 196.801C106.42 196.169 102.317 195.227 102.35 195.055C102.383 194.884 106.53 195.505 111.669 196.126C116.808 196.747 120.977 197.058 120.966 197.293Z" fill="#E0E0E0"/>
<path d="M117.559 197.154C117.894 197.755 118.09 198.42 118.132 199.102C118.259 199.828 118.337 200.561 118.364 201.297C118.402 201.777 118.318 202.258 118.121 202.7C117.998 202.968 117.799 203.197 117.547 203.36C117.295 203.523 117.001 203.614 116.698 203.621C116.526 203.628 116.355 203.596 116.198 203.527C116.041 203.458 115.902 203.354 115.794 203.224C115.603 202.992 115.491 202.708 115.474 202.411C115.459 201.946 115.527 201.483 115.673 201.04C115.857 200.307 116.108 199.59 116.423 198.899C116.963 197.753 117.47 197.143 117.525 197.186C117.37 197.837 117.148 198.472 116.864 199.081C116.632 199.756 116.437 200.442 116.279 201.137C116.177 201.517 116.133 201.91 116.147 202.304C116.147 202.668 116.367 202.893 116.676 202.893C117.415 202.893 117.713 202.025 117.68 201.254C117.647 200.484 117.68 199.723 117.614 199.113C117.511 198.465 117.492 197.807 117.559 197.154Z" fill="#E0E0E0"/>
<path d="M165.09 136.083L120.78 131.061C114.978 130.403 110.824 125.304 111.502 119.672L112.462 111.685C113.14 106.053 118.392 102.02 124.194 102.678L168.503 107.7C174.305 108.358 178.459 113.457 177.782 119.09L176.821 127.076C176.144 132.708 170.891 136.741 165.09 136.083Z" fill="#455A64"/>
<path d="M124.936 103.365C124.936 103.365 125.068 103.279 125.355 103.193C125.779 103.076 126.216 103.011 126.656 103C128.304 103.007 129.903 103.546 131.2 104.532C133.187 105.889 134.763 107.737 135.766 109.885C136.887 112.541 137.319 115.423 137.023 118.279C136.863 121.16 135.823 123.929 134.035 126.234C132.566 128.116 130.549 129.526 128.245 130.281C126.712 130.794 125.081 130.969 123.469 130.795C123.032 130.748 122.6 130.662 122.179 130.538C121.892 130.452 121.749 130.399 121.76 130.377C121.771 130.356 122.377 130.463 123.491 130.527C125.054 130.593 126.614 130.353 128.079 129.82C130.253 129.041 132.143 127.66 133.516 125.848C135.188 123.623 136.157 120.975 136.306 118.225C136.61 115.484 136.231 112.712 135.204 110.142C134.262 108.085 132.793 106.297 130.936 104.949C129.735 103.985 128.255 103.409 126.701 103.3C125.554 103.225 124.947 103.429 124.936 103.365Z" fill="#263238"/>
<path d="M150.258 105.538L143.42 104.885C145.248 105.427 146.814 106.59 147.831 108.161C148.823 109.723 149.462 111.47 149.706 113.289C150.93 120.923 146.751 129.124 140.034 133.257L145.548 133.964C145.548 133.964 161.319 120.292 150.302 105.538" fill="#34495E"/>
<path d="M158 119.585C156.238 120.059 154.386 120.125 152.593 119.779C150.799 119.433 149.114 118.684 147.672 117.593C146.231 116.501 145.072 115.097 144.29 113.493C143.507 111.888 143.123 110.128 143.167 108.354C143.244 105.067 144.788 101.705 143.729 98.5682C143.001 96.4269 141.148 94.7352 140.52 92.5618C139.593 89.2963 141.623 86.0094 143.553 83.2043C144.702 81.3404 146.133 79.6549 147.799 78.2043C148.637 77.4816 149.629 76.9468 150.704 76.6378C151.778 76.3289 152.91 76.2532 154.019 76.4163" fill="#263238"/>
<path d="M189.321 76.7051C189.133 79.189 190.821 81.416 192.53 83.2789C194.24 85.1418 196.126 87.1012 196.501 89.5637C197.151 93.9426 192.74 98.0004 193.644 102.337C194.14 104.66 196.093 106.523 196.445 108.868C196.798 111.212 195.53 113.364 193.975 115.088C192.42 116.812 190.534 118.3 189.156 120.12C187.847 122.178 186.739 124.35 185.847 126.608C184.957 128.883 183.337 130.82 181.226 132.133C177.917 133.867 173.329 133.054 170.815 135.741C168.3 138.428 165.389 138.739 162.389 140.698" fill="#263238"/>
<path d="M149.873 80.5061C149.806 78.2577 151.957 76.5125 154.119 75.6881C156.28 74.8637 158.695 74.5425 160.625 73.2791C162.335 72.2085 163.482 70.4312 164.927 68.9965C166.713 67.2474 168.946 65.9899 171.397 65.3525C173.848 64.7151 176.429 64.7205 178.877 65.3683C181.325 66.016 183.552 67.2829 185.331 69.0395C187.11 70.7962 188.377 72.9796 189.002 75.3669C189.829 78.5789 189.267 82.3797 186.653 84.521C183.62 86.9942 179.131 86.4482 175.249 85.6773C171.367 84.9065 166.978 84.1463 163.735 86.3626C161.783 87.6902 160.67 89.8636 159.467 91.8764C158.265 93.8893 156.776 95.9342 154.516 96.6837C152.255 97.4331 149.189 96.1376 149.1 93.825" fill="#263238"/>
<path d="M159.081 80.9772C158.113 81.0765 157.219 81.5261 156.577 82.2364C155.935 82.9467 155.593 83.8657 155.618 84.8102L157.934 135.816C158.033 141.844 167.098 145.227 173.749 145.077C180.454 144.928 180.675 141.726 180.752 135.998C180.895 126.427 180.884 122.829 180.884 122.883C180.884 122.936 189.365 121.502 191.097 110.763C191.957 105.41 191.659 96.6623 191.174 89.5104C190.744 83.0864 186.332 75.1743 179.715 75.8595L159.081 80.9772Z" fill="#FFBE9D"/>
<path d="M189.078 95.6451C189.084 96.0049 188.944 96.3526 188.688 96.613C188.433 96.8735 188.081 97.0257 187.711 97.0369C187.532 97.0485 187.352 97.0255 187.182 96.9692C187.012 96.9128 186.856 96.8244 186.721 96.7088C186.587 96.5933 186.478 96.4531 186.399 96.2962C186.321 96.1393 186.276 95.9689 186.266 95.7949C186.26 95.4369 186.399 95.0908 186.652 94.8306C186.906 94.5705 187.254 94.417 187.623 94.4031C187.803 94.39 187.984 94.4119 188.155 94.4676C188.326 94.5232 188.484 94.6115 188.619 94.7271C188.755 94.8428 188.865 94.9835 188.944 95.1412C189.023 95.2988 189.069 95.4701 189.078 95.6451Z" fill="#263238"/>
<path d="M189.233 94.0604C189.056 94.2424 187.976 93.4715 186.454 93.4823C184.932 93.493 183.807 94.2317 183.641 94.0497C183.476 93.8677 183.741 93.6429 184.226 93.3002C184.875 92.8667 185.643 92.6318 186.432 92.6257C187.223 92.6239 187.994 92.8637 188.637 93.311C189.156 93.6643 189.321 93.9855 189.233 94.0604Z" fill="#263238"/>
<path d="M173.881 96.0196C173.887 96.3794 173.747 96.7271 173.491 96.9875C173.235 97.248 172.884 97.4002 172.514 97.4114C172.334 97.426 172.154 97.4055 171.983 97.3511C171.811 97.2967 171.653 97.2095 171.518 97.0946C171.382 96.9798 171.271 96.8397 171.192 96.6826C171.113 96.5256 171.068 96.3547 171.058 96.1802C171.052 95.821 171.19 95.4737 171.443 95.2119C171.696 94.95 172.045 94.7943 172.414 94.7776C172.595 94.7645 172.776 94.7864 172.948 94.8419C173.12 94.8974 173.279 94.9855 173.415 95.101C173.552 95.2166 173.663 95.3572 173.743 95.5149C173.823 95.6726 173.87 95.8441 173.881 96.0196Z" fill="#263238"/>
<path d="M174.223 94.371C174.046 94.553 172.977 93.7821 171.444 93.7928C169.911 93.8035 168.808 94.5423 168.642 94.3603C168.477 94.1783 168.731 93.9534 169.227 93.6108C169.873 93.1699 170.643 92.9342 171.433 92.9363C172.225 92.927 172.999 93.1674 173.638 93.6215C174.135 93.9641 174.311 94.296 174.223 94.371Z" fill="#263238"/>
<path d="M179.792 105.356C180.597 105.106 181.431 104.955 182.274 104.906C182.66 104.906 183.024 104.799 183.09 104.542C183.13 104.151 183.041 103.757 182.836 103.418L181.667 100.538C180.599 98.1099 179.728 95.604 179.065 93.0434C179.241 92.9792 180.686 96.2554 182.285 100.345C182.682 101.416 183.046 102.326 183.388 103.247C183.638 103.699 183.712 104.223 183.597 104.724C183.54 104.858 183.453 104.977 183.343 105.073C183.232 105.17 183.1 105.241 182.958 105.281C182.742 105.34 182.52 105.372 182.296 105.377C181.463 105.467 180.623 105.46 179.792 105.356Z" fill="#263238"/>
<path d="M180.884 122.883C175.681 122.987 170.551 121.69 166.061 119.135C166.061 119.135 169.723 126.448 180.751 125.42L180.884 122.883Z" fill="#EB996E"/>
<path d="M179.152 108.921C178.859 108.569 178.479 108.294 178.047 108.122C177.615 107.95 177.146 107.886 176.682 107.936C176.346 107.969 176.019 108.066 175.722 108.222C175.425 108.379 175.163 108.591 174.951 108.846C174.748 109.094 174.628 109.397 174.608 109.713C174.589 110.029 174.67 110.343 174.84 110.613C175.086 110.877 175.407 111.064 175.763 111.149C176.118 111.235 176.492 111.216 176.836 111.095C177.559 110.847 178.223 110.461 178.789 109.96C178.962 109.844 179.108 109.694 179.219 109.521C179.279 109.442 179.311 109.346 179.311 109.248C179.311 109.149 179.279 109.054 179.219 108.975" fill="#EB996E"/>
<path d="M175.304 106.384C175.546 106.384 175.557 107.979 176.98 109.114C178.403 110.249 180.167 110.078 180.178 110.303C180.19 110.527 179.781 110.613 179.076 110.635C178.104 110.654 177.157 110.335 176.407 109.735C175.68 109.167 175.212 108.344 175.105 107.444C175.006 106.78 175.238 106.373 175.304 106.384Z" fill="#263238"/>
<path d="M174.907 91.78C174.764 92.1761 173.231 91.9941 171.444 92.2082C169.658 92.4224 168.202 92.8934 167.97 92.5401C167.86 92.3581 168.114 91.9834 168.698 91.5872C169.471 91.1022 170.352 90.8014 171.268 90.7093C172.184 90.6023 173.113 90.705 173.981 91.0091C174.643 91.2982 174.973 91.5872 174.907 91.78Z" fill="#263238"/>
<path d="M188.659 89.7779C188.395 90.1098 187.336 89.7779 186.079 89.7779C184.821 89.7779 183.741 90.0027 183.498 89.6494C183.388 89.4888 183.553 89.1462 184.016 88.825C184.645 88.4404 185.377 88.2462 186.119 88.2672C186.862 88.2881 187.581 88.5233 188.185 88.9428C188.626 89.264 188.781 89.6173 188.659 89.7779Z" fill="#263238"/>
<path d="M151.361 116.298C152.889 116.597 154.469 116.539 155.97 116.128C157.47 115.717 158.849 114.965 159.991 113.935C161.133 112.904 162.006 111.625 162.539 110.202C163.071 108.779 163.246 107.254 163.051 105.752C162.698 103.118 161.242 100.399 162.18 97.9364C163.426 94.6388 168.19 93.6538 169.459 90.3347C170.187 88.4183 169.525 86.1806 170.363 84.3069C171.201 82.4333 173.054 81.5232 174.918 80.8701C176.835 80.3901 178.662 79.6205 180.333 78.5896C181.899 77.4119 182.87 75.1849 181.866 73.5361C173.602 74.4917 165.486 76.4039 157.691 79.232C155.894 79.8851 153.997 80.6774 152.927 82.2299C151.857 83.7823 151.824 86.0093 151.945 87.99L153.335 116.898" fill="#263238"/>
<path d="M145.405 125.227C145.41 124.307 145.605 123.397 145.979 122.551C146.436 121.571 147.076 120.682 147.865 119.927C148.925 118.944 150.129 118.118 151.438 117.476C152.883 116.715 154.548 116.02 156.246 115.077C158.118 114.112 159.696 112.687 160.823 110.945C161.415 109.97 161.734 108.863 161.75 107.733C161.701 106.585 161.535 105.444 161.253 104.328C160.946 103.23 160.868 102.083 161.022 100.955C161.142 100.401 161.387 99.8785 161.74 99.4267C162.093 98.975 162.544 98.6049 163.062 98.343C164.165 97.7434 165.268 97.3687 166.426 96.8548C167.611 96.3887 168.612 95.5672 169.282 94.51C169.84 93.4611 170.128 92.2965 170.12 91.1161C170.12 89.9919 170.12 88.9105 170.12 87.9041C170.094 86.8984 170.243 85.8957 170.562 84.9384C170.883 84.0611 171.467 83.2969 172.238 82.7435C173.731 81.8126 175.399 81.1759 177.146 80.8699C178.624 80.5842 180.037 80.04 181.315 79.2639C182.279 78.6274 182.985 77.6848 183.311 76.598C183.536 75.9228 183.536 75.196 183.311 74.5209C183.225 74.2939 183.098 74.0836 182.936 73.8999C182.936 73.8999 183.057 74.1247 183.2 74.5637C183.387 75.2151 183.364 75.9061 183.134 76.5444C182.788 77.5556 182.1 78.4234 181.182 79.0069C179.918 79.73 178.533 80.2337 177.091 80.4951C175.282 80.7883 173.55 81.425 171.995 82.3688C171.144 82.972 170.495 83.8065 170.131 84.7671C169.79 85.7755 169.622 86.8319 169.635 87.8934C169.635 88.964 169.635 90.0347 169.635 91.1054C169.638 92.1991 169.373 93.2778 168.863 94.2531C168.248 95.2177 167.332 95.9676 166.249 96.3944C165.147 96.8976 163.966 97.2616 162.831 97.904C162.26 98.2305 161.753 98.6507 161.331 99.146C160.926 99.6551 160.651 100.249 160.526 100.88C160.359 102.083 160.442 103.306 160.768 104.478C161.047 105.554 161.214 106.656 161.264 107.765C161.26 108.811 160.971 109.838 160.426 110.741C159.354 112.415 157.853 113.791 156.07 114.735C154.416 115.677 152.761 116.394 151.306 117.187C149.975 117.863 148.759 118.733 147.699 119.767C146.901 120.558 146.268 121.493 145.835 122.518C145.564 123.165 145.418 123.855 145.405 124.553C145.391 124.734 145.391 124.917 145.405 125.099C145.383 125.163 145.394 125.227 145.405 125.227Z" fill="#263238"/>
<path d="M177.642 132.594C177.811 132.675 177.994 132.73 178.182 132.754C178.407 132.807 178.635 132.843 178.866 132.861C179.176 132.907 179.489 132.928 179.803 132.925C181.838 132.927 183.825 132.322 185.494 131.191C186.66 130.425 187.639 129.42 188.361 128.247C189.131 126.878 189.632 125.382 189.839 123.836C190.038 122.187 190.523 120.584 191.273 119.093C192.133 117.604 193.732 116.619 195.177 115.345C196.653 114.103 197.617 112.384 197.89 110.506C198.147 108.761 197.785 106.982 196.864 105.463C195.966 104.225 195.195 102.906 194.559 101.523C194.127 100.288 193.966 98.9788 194.085 97.6795C194.304 95.7765 194.775 93.9088 195.486 92.1227C195.763 91.4688 196.002 90.8004 196.203 90.1206C196.088 90.2679 195.995 90.4301 195.927 90.6024C195.773 90.9343 195.541 91.4161 195.276 92.0478C194.472 93.8312 193.934 95.7166 193.677 97.6473C193.528 99.0072 193.674 100.382 194.107 101.684C194.731 103.1 195.5 104.452 196.401 105.72C197.255 107.142 197.582 108.804 197.328 110.431C197.073 112.182 196.172 113.784 194.791 114.938C193.412 116.159 191.736 117.187 190.788 118.814C190.006 120.36 189.51 122.027 189.321 123.739C189.138 125.236 188.675 126.687 187.953 128.022C187.28 129.153 186.362 130.128 185.262 130.88C183.67 132.003 181.77 132.64 179.803 132.711C178.414 132.743 177.653 132.529 177.642 132.594Z" fill="#263238"/>
<path d="M145.46 81.4163C145.353 81.5406 145.288 81.6938 145.273 81.8553C145.249 82.0867 145.275 82.3203 145.349 82.5415C145.423 82.7626 145.544 82.9664 145.703 83.1401C145.948 83.4255 146.25 83.6591 146.592 83.8267C146.933 83.9943 147.306 84.0922 147.688 84.1144C148.674 84.056 149.633 83.7775 150.49 83.3007C151.479 82.7642 152.579 82.4495 153.71 82.3799C155.024 82.3462 156.338 82.4612 157.625 82.7225C159.077 83.0277 160.553 83.2104 162.036 83.2685C163.706 83.3328 165.335 82.7558 166.569 81.6626C167.677 80.5226 168.56 79.1942 169.172 77.744C169.736 76.4443 170.446 75.2092 171.289 74.0609C172.009 73.1215 172.996 72.4064 174.128 72.0032C175.26 71.6001 176.489 71.5263 177.664 71.7911C179.265 72.2043 180.642 73.1965 181.513 74.5641C181.819 75.0751 182.092 75.6044 182.329 76.1487C182.329 76.1487 182.329 75.9881 182.241 75.6883C182.12 75.2541 181.942 74.8367 181.712 74.4463C181.009 73.1851 179.877 72.1998 178.509 71.6589C177.141 71.118 175.622 71.055 174.212 71.4806C172.893 71.8799 171.736 72.6699 170.903 73.7397C170.027 74.9127 169.287 76.1767 168.698 77.5084C168.106 78.8932 167.262 80.1627 166.205 81.2557C165.081 82.2573 163.594 82.7849 162.07 82.7225C160.616 82.6681 159.17 82.4962 157.746 82.2086C156.418 81.9529 155.063 81.8522 153.71 81.9088C152.522 82.0228 151.373 82.3883 150.346 82.9795C149.547 83.4498 148.651 83.7424 147.721 83.836C147.378 83.8258 147.041 83.7495 146.729 83.6116C146.416 83.4738 146.135 83.2771 145.902 83.033C145.748 82.8842 145.628 82.7071 145.546 82.5122C145.465 82.3172 145.424 82.1084 145.427 81.8981C145.46 81.5662 145.549 81.427 145.46 81.4163Z" fill="#455A64"/>
<path d="M151.714 78.3219C153.538 77.9152 155.162 76.909 156.31 75.4735C157.457 74.0381 158.059 72.2616 158.012 70.445C157.965 68.6284 157.273 66.8832 156.053 65.5052C154.833 64.1271 153.16 63.2007 151.317 62.883C150.446 62.6755 149.533 62.7035 148.678 62.964C147.823 63.2244 147.057 63.7074 146.464 64.3605C145.45 65.6988 145.516 67.701 144.259 68.793C143.001 69.8851 140.751 69.4568 138.965 69.8637C137.595 70.2428 136.409 71.0816 135.617 72.2307C134.826 73.3797 134.48 74.7643 134.642 76.1377C134.866 77.503 135.456 78.7871 136.352 79.8618C137.248 80.9364 138.419 81.764 139.748 82.2619C142.439 83.2153 145.382 83.268 148.108 82.4118C150.811 81.561 153.379 80.3503 155.739 78.8144" fill="#263238"/>
<path d="M138.425 70.5596C138.53 71.2686 138.805 71.9436 139.23 72.5296C140.148 74.0157 141.418 75.2675 142.935 76.1805C144.452 77.0996 146.172 77.6572 147.953 77.8079C148.692 77.9188 149.446 77.8639 150.159 77.6473C150.159 77.551 149.321 77.6473 148.031 77.4118C146.344 77.1631 144.726 76.5839 143.277 75.7095C141.832 74.8273 140.583 73.6733 139.605 72.3155C138.844 71.2769 138.513 70.5275 138.425 70.5596Z" fill="#455A64"/>
<path d="M144.269 82.433C145.69 80.615 147.473 79.0926 149.511 77.9561C151.549 76.8195 153.802 76.0918 156.136 75.8163C155.44 75.6849 154.725 75.6849 154.029 75.8163C150.614 76.3024 147.516 78.0281 145.361 80.645C144.873 81.1609 144.501 81.7698 144.269 82.433Z" fill="#406FBF"/>
<path d="M224.635 199.038L242.513 195.677L239.292 200.12L246.924 203.824L253.31 200.923C252.813 202.189 252.189 203.405 251.446 204.552C250.045 206.811 248.137 208.631 246.968 208.717C246.576 210.281 245.761 211.715 244.608 212.871C243.57 213.875 242.282 214.601 240.869 214.976C239.455 215.351 237.966 215.364 236.546 215.013L224.536 210.794L224.635 199.038Z" fill="#FFBE9D"/>
<path d="M242.667 207.743C242.962 208.102 243.336 208.393 243.761 208.595C244.187 208.796 244.653 208.904 245.126 208.91C245.59 209.004 246.07 209 246.532 208.898C246.995 208.797 247.429 208.6 247.806 208.321C247.74 208.16 246.604 208.524 245.192 208.321C243.781 208.118 242.755 207.604 242.667 207.743Z" fill="#EB996E"/>
<path d="M240.307 211.437C240.196 211.544 240.968 212.379 242.292 212.711C242.675 212.855 243.087 212.914 243.497 212.885C243.908 212.855 244.306 212.737 244.663 212.539C244.663 212.379 243.56 212.475 242.457 212.175C241.355 211.875 240.439 211.319 240.307 211.437Z" fill="#EB996E"/>
<path d="M235.818 198.364C236.307 198.706 236.827 199.004 237.373 199.252C238.332 199.777 239.579 200.655 240.979 201.597C242.179 202.441 243.512 203.089 244.928 203.514C245.512 203.727 246.144 203.783 246.758 203.674C246.758 203.589 246.075 203.514 245.049 203.139C243.725 202.612 242.467 201.94 241.299 201.137C240.114 200.299 238.864 199.551 237.56 198.899C237.029 198.594 236.433 198.411 235.818 198.364Z" fill="#EB996E"/>
<path d="M127.373 227.85C127.373 227.85 126.766 228.224 125.245 230.847C120.579 238.931 118.694 258.299 136.273 275.59C159.014 297.924 185.648 334.476 185.648 334.476L206.603 420.3L238.188 413.651L221.91 324.455L177.278 244.07L127.373 227.85Z" fill="#34495E"/>
<path d="M92.5337 393.951L141.192 321.661L155.948 259.263L193.534 277.196L174.686 340.526L114.547 413.244L92.5337 393.951Z" fill="#34495E"/>
<path d="M206.581 420.3C206.574 420.155 206.548 420.011 206.504 419.872C206.438 419.572 206.349 419.165 206.239 418.641C205.974 417.57 205.611 415.953 205.136 413.919L201.001 396.596C197.46 381.949 192.575 361.767 187.171 339.476C186.752 337.742 186.333 336.018 185.936 334.412V334.337C172.15 317.207 159.588 302.057 150.346 291.297C145.714 285.943 141.931 281.661 139.251 278.727C137.939 277.26 136.858 276.168 136.141 275.419L135.325 274.573C135.138 274.38 135.038 274.284 135.027 274.295C135.103 274.405 135.188 274.509 135.281 274.605L136.064 275.483C136.748 276.265 137.796 277.378 139.097 278.866C141.722 281.811 145.449 286.136 150.037 291.543C159.202 302.367 171.709 317.56 185.483 334.68V334.573C185.869 336.179 186.288 337.902 186.719 339.637L200.604 396.692C202.423 403.962 203.912 409.861 204.916 413.973C205.434 415.985 205.831 417.57 206.118 418.662C206.25 419.187 206.36 419.583 206.438 419.883C206.472 420.026 206.52 420.166 206.581 420.3Z" fill="#455A64"/>
<path d="M149.519 250.665C149.744 250.847 150.002 250.985 150.28 251.072C151.009 251.379 151.766 251.619 152.541 251.79C155.119 252.361 157.806 252.284 160.345 251.566C162.885 250.849 165.194 249.514 167.054 247.689C167.614 247.141 168.123 246.546 168.576 245.912C168.885 245.451 169.028 245.184 168.995 245.162C168.962 245.141 168.223 246.104 166.79 247.4C164.916 249.091 162.66 250.334 160.204 251.03C157.747 251.725 155.157 251.853 152.64 251.404C150.688 251.062 149.552 250.58 149.519 250.665Z" fill="#455A64"/>
<path d="M122.686 231.554C141.722 241.287 172.613 247.1 182.494 243.149L182.836 207.55C182.836 207.55 196.368 185.891 196.424 177.7C196.501 165.923 181.358 138.975 181.358 138.975L158.629 133.054C154.052 132.959 149.523 133.983 145.46 136.03C141.209 138.317 137.75 141.774 135.519 145.965C133.288 150.157 132.384 154.896 132.921 159.585L138.645 195.002L122.686 231.554Z" fill="#79C930"/>
<g opacity="0.3">
<path opacity="0.3" d="M147.082 135.998C145.759 135.805 145.274 137.893 146.211 138.814C147.148 139.735 148.637 139.777 149.95 139.97C155.872 140.87 160.449 145.795 162.6 151.223C164.75 156.651 164.96 162.582 165.313 168.353C165.665 174.124 166.25 180.131 169.062 185.28C171.688 180.761 173.244 175.731 173.618 170.556C173.992 165.38 173.174 160.188 171.224 155.358C169.273 150.527 166.239 146.179 162.342 142.628C158.445 139.078 153.782 136.414 148.692 134.831" fill="black"/>
</g>
<path d="M145.461 136.03C145.461 136.03 148.77 130.795 159.71 133.065C167.033 134.585 183.046 149.521 178.58 173.514C174.113 197.507 162.136 206.008 162.136 206.008C162.136 206.008 173.165 169.274 167.033 153.247C165.428 148.722 162.562 144.717 158.754 141.678C154.946 138.639 150.344 136.684 145.461 136.03Z" fill="#34495E"/>
<g opacity="0.3">
<path opacity="0.3" d="M182.417 215.109C177.884 216.522 173.539 218.321 168.819 218.899C164.096 219.652 159.251 219.16 154.79 217.475C148.736 214.97 144.236 209.616 141.92 203.631C139.604 197.646 139.284 191.094 139.902 184.724C144.037 189.691 143.541 197.047 147.059 202.454C149.265 205.826 152.849 208.128 156.533 209.948C164.593 213.711 173.481 215.494 182.417 215.141" fill="black"/>
</g>
<path d="M168.786 178.739C168.786 178.739 170.264 205.762 136.307 200.387L132.888 208.203C132.888 208.203 168.588 215.527 173.694 186.79L168.786 178.739Z" fill="#34495E"/>
<path d="M137.84 145.152C136.411 147.214 135.448 149.545 135.015 151.994C134.581 154.443 134.687 156.953 135.326 159.36L143.784 196.115C147.413 206.458 157.769 212.743 164.209 213.578L224.525 219.777V197.925L168.533 189.852L165.908 160.088C165.676 156.083 163.647 148.889 161.022 145.784C158.089 142.326 153.578 137.615 146.211 138.814C141.7 139.542 139.781 142.465 137.84 145.152Z" fill="#79C930"/>
<path d="M136.097 160.794C136.088 161.07 136.107 161.346 136.153 161.619C136.219 162.165 136.318 162.957 136.461 163.985C136.748 166.041 137.189 168.996 137.862 172.636C138.535 176.276 139.395 180.612 140.531 185.377C141.093 187.754 141.7 190.259 142.439 192.871C143.161 195.546 144.151 198.146 145.395 200.634C146.651 203.136 148.379 205.387 150.49 207.272C152.457 209.019 154.689 210.463 157.107 211.554C161.208 213.338 165.588 214.442 170.066 214.82C173.87 215.194 176.958 215.216 179.087 215.237H181.546C181.829 215.262 182.113 215.262 182.396 215.237C182.115 215.189 181.831 215.167 181.546 215.173L179.098 215.077C176.969 214.991 173.881 214.905 170.11 214.477C165.692 214.054 161.377 212.925 157.339 211.137C154.968 210.073 152.777 208.665 150.843 206.961C148.792 205.108 147.11 202.905 145.88 200.462C144.657 198.007 143.678 195.443 142.957 192.807C142.218 190.259 141.601 187.764 141.016 185.387C139.913 180.634 138.943 176.33 138.237 172.7C137.531 169.071 137.013 166.126 136.66 164.135C136.483 163.161 136.351 162.379 136.252 161.79C136.226 161.455 136.175 161.122 136.097 160.794Z" fill="#263238"/>
<path d="M166.911 196.115C167.539 195.123 167.998 194.038 168.268 192.903C168.726 191.837 169.002 190.705 169.084 189.552C167.995 191.597 167.25 193.799 166.878 196.073L166.911 196.115Z" fill="#263238"/>
<path d="M163.481 195.28C164.672 194.738 165.724 193.944 166.558 192.957C167.527 192.098 168.281 191.036 168.764 189.852C167.821 190.706 166.937 191.618 166.117 192.582C165.176 193.422 164.295 194.323 163.481 195.28Z" fill="#263238"/>
<path d="M219.275 197.175L219.021 197.111L218.271 196.972L215.382 196.512L204.651 194.874L168.621 189.584L168.863 189.831C168.665 187.796 168.455 185.655 168.235 183.471C167.518 175.752 166.757 168.396 166.382 161.683C166.121 158.492 165.492 155.338 164.507 152.283C163.716 149.578 162.373 147.055 160.559 144.863C156.985 141.084 152.982 139.082 150.037 138.718C148.912 138.562 147.769 138.584 146.652 138.782C146.277 138.857 145.99 138.942 145.802 138.996L145.516 139.092C146.988 138.764 148.511 138.71 150.004 138.932C152.872 139.349 156.776 141.373 160.25 145.131C162.007 147.288 163.298 149.768 164.044 152.422C165.005 155.447 165.612 158.568 165.852 161.726C166.194 168.439 166.955 175.805 167.672 183.525C167.882 185.666 168.091 187.807 168.301 189.884V190.098H168.521L204.629 195.216L215.382 196.672L218.293 197.047L219.043 197.133L219.275 197.175Z" fill="#263238"/>
<path d="M184.755 214.98C184.91 214.98 185.549 210.045 186.178 203.931C186.807 197.818 187.193 192.829 187.038 192.807C186.364 196.467 185.885 200.159 185.605 203.867C185.125 207.555 184.842 211.264 184.755 214.98Z" fill="#FAFAFA"/>
<path d="M140.597 181.801C141.873 181.908 143.156 181.925 144.435 181.854C146.806 181.854 150.07 181.726 153.688 181.597C157.305 181.469 160.57 181.319 162.93 181.18C164.208 181.16 165.484 181.049 166.746 180.848C165.47 180.726 164.187 180.705 162.908 180.784C160.548 180.784 157.272 180.912 153.666 181.041C150.059 181.169 146.795 181.319 144.424 181.458C143.141 181.473 141.861 181.588 140.597 181.801Z" fill="#FAFAFA"/>
<path d="M178.888 174.81C179.706 175.014 180.547 175.122 181.391 175.131C182.935 175.238 185.086 175.313 187.457 175.27C189.828 175.227 191.979 175.067 193.523 174.895C194.365 174.859 195.199 174.719 196.004 174.478C195.168 174.397 194.326 174.397 193.49 174.478C191.946 174.553 189.806 174.638 187.446 174.681C185.086 174.724 182.947 174.681 181.403 174.681C180.562 174.634 179.719 174.677 178.888 174.81Z" fill="#FAFAFA"/>
<path d="M173.903 149.413C173.991 149.553 176.307 148.343 179.307 147.272C182.307 146.201 184.821 145.548 184.821 145.388C180.9 145.852 177.153 147.234 173.903 149.413Z" fill="#FAFAFA"/>
<path d="M130.098 216.212C130.25 216.317 130.417 216.4 130.594 216.458L132.05 217.036C133.307 217.539 135.16 218.203 137.465 218.985C143.48 220.995 149.602 222.689 155.805 224.06C162.008 225.462 168.285 226.534 174.609 227.272C177.035 227.539 179.02 227.721 180.366 227.807L181.932 227.893C182.115 227.921 182.301 227.921 182.483 227.893C182.309 227.833 182.127 227.798 181.943 227.785L180.388 227.593C179.031 227.443 177.079 227.207 174.653 226.886C169.834 226.244 163.183 225.184 155.904 223.578C148.626 221.972 142.196 220.109 137.564 218.642C135.248 217.914 133.373 217.304 132.05 216.865L130.561 216.383C130.412 216.312 130.257 216.255 130.098 216.212Z" fill="#FAFAFA"/>
<path d="M133.693 152.186C133.693 152.336 140.2 152.261 148.218 152.004C156.235 151.747 162.72 151.426 162.72 151.276C162.72 151.126 156.213 151.201 148.196 151.448C140.178 151.694 133.693 152.026 133.693 152.186Z" fill="#FAFAFA"/>
<path d="M211.412 218.16C211.836 214.605 212.072 211.032 212.118 207.454C212.357 203.89 212.401 200.316 212.25 196.747C211.825 200.302 211.59 203.875 211.544 207.454C211.305 211.018 211.26 214.592 211.412 218.16Z" fill="#FAFAFA"/>
<path d="M334.789 108.664C324.97 106.895 314.833 107.929 305.607 111.641C301.515 113.3 297.457 115.645 295.251 119.381C292.626 123.793 293.045 129.231 293.343 134.317C293.92 144.678 293.551 155.068 292.24 165.366C291.137 173.931 289.406 182.497 289.439 191.062C289.472 199.627 291.457 208.642 297.027 215.366C305.618 225.719 320.915 228.631 334.524 226.865C341.67 225.944 348.806 223.867 354.64 219.734C360.474 215.601 364.842 209.231 365.338 202.25" fill="#455A64"/>
<path d="M317.782 121.791C316.51 123.251 315.428 124.859 314.562 126.576C313.667 128.468 312.929 130.427 312.356 132.433C311.667 134.92 310.816 137.363 309.809 139.745C308.758 142.169 307.124 144.313 305.044 145.998C303.31 147.382 301.135 148.139 298.89 148.139C297.399 148.153 295.936 147.748 294.677 146.972C294.341 146.757 294.033 146.502 293.762 146.212C293.574 146.019 293.486 145.902 293.508 145.891C293.53 145.88 293.949 146.244 294.832 146.737C296.08 147.399 297.491 147.718 298.912 147.658C301.022 147.594 303.047 146.84 304.658 145.516C306.62 143.873 308.16 141.81 309.158 139.488C310.161 137.133 311.022 134.724 311.739 132.272C312.347 130.246 313.137 128.276 314.099 126.384C314.76 125.107 315.594 123.922 316.58 122.861C316.915 122.44 317.322 122.078 317.782 121.791Z" fill="#263238"/>
<path d="M313.889 226.201C313.804 225.929 313.749 225.649 313.724 225.366C313.635 224.738 313.525 223.924 313.393 222.925C313.117 220.783 312.753 217.743 312.29 213.952C311.463 206.362 310.47 195.869 309.61 184.263C308.75 172.657 308.231 162.122 307.945 154.488C307.801 150.677 307.713 147.593 307.68 145.463C307.68 144.456 307.68 143.643 307.68 143.011C307.646 142.726 307.646 142.439 307.68 142.154C307.742 142.432 307.775 142.716 307.779 143C307.779 143.643 307.879 144.446 307.945 145.452C308.066 147.668 308.231 150.73 308.441 154.467C308.86 162.09 309.478 172.604 310.316 184.21C311.154 195.816 312.091 206.308 312.786 213.899C313.128 217.636 313.404 220.687 313.602 222.892C313.691 223.899 313.757 224.713 313.801 225.344C313.865 225.625 313.894 225.913 313.889 226.201Z" fill="#263238"/>
<path d="M309.533 179.702C309.533 179.884 305.276 180.463 299.949 180.591C294.622 180.72 290.321 180.377 290.332 180.184C290.343 179.991 294.633 180.024 299.927 179.884C305.221 179.745 309.511 179.499 309.533 179.702Z" fill="#263238"/>
<path d="M306.07 180.163C306.5 180.722 306.801 181.365 306.952 182.047C307.192 182.748 307.383 183.463 307.526 184.188C307.647 184.667 307.647 185.166 307.526 185.644C307.442 185.936 307.276 186.199 307.046 186.404C306.816 186.608 306.531 186.746 306.225 186.801C306.052 186.826 305.875 186.815 305.707 186.767C305.54 186.718 305.385 186.635 305.254 186.522C305.018 186.318 304.859 186.043 304.802 185.741C304.725 185.273 304.725 184.796 304.802 184.327C304.879 183.574 305.027 182.828 305.243 182.1C305.373 181.409 305.667 180.756 306.103 180.195C306.06 180.88 305.938 181.559 305.739 182.218C305.607 182.926 305.519 183.641 305.475 184.36C305.413 184.757 305.413 185.161 305.475 185.559C305.563 185.923 305.794 186.126 306.092 186.083C306.853 185.955 307.019 185.013 306.864 184.274C306.71 183.535 306.588 182.721 306.456 182.133C306.242 181.494 306.113 180.832 306.07 180.163Z" fill="#263238"/>
<path d="M344.869 111.263L298.718 112.742C292.88 112.929 287.991 108.486 287.798 102.819L287.502 94.1081C287.309 88.4406 291.886 83.6945 297.724 83.5075L343.876 82.029C349.714 81.842 354.602 86.2849 354.795 91.9524L355.091 100.663C355.284 106.33 350.707 111.076 344.869 111.263Z" fill="#34495E"/>
<path d="M298.824 84.0605C298.824 84.0605 298.945 83.9535 299.221 83.825C299.631 83.6389 300.065 83.5092 300.511 83.4395C302.177 83.1972 303.879 83.5064 305.342 84.3175C307.562 85.3862 309.447 87.0129 310.801 89.0284C312.357 91.5483 313.247 94.4023 313.393 97.3367C313.684 100.279 313.065 103.238 311.617 105.838C310.426 107.962 308.605 109.689 306.39 110.795C304.918 111.538 303.294 111.954 301.636 112.015C301.187 112.034 300.736 112.012 300.291 111.951C300.134 111.947 299.98 111.911 299.839 111.844C299.839 111.78 300.478 111.844 301.614 111.737C303.207 111.579 304.75 111.105 306.147 110.345C308.226 109.237 309.924 107.562 311.033 105.527C312.379 103.026 312.946 100.199 312.665 97.3902C312.524 94.568 311.692 91.819 310.239 89.371C308.961 87.4307 307.191 85.8417 305.099 84.7564C303.734 83.9453 302.141 83.5708 300.544 83.6858C299.42 83.8036 298.846 84.1248 298.824 84.0605Z" fill="#455A64"/>
<path d="M324.797 82.5188L317.782 82.8614C319.71 83.1479 321.468 84.098 322.734 85.538C323.984 86.9713 324.905 88.6466 325.436 90.4524C327.874 97.947 324.929 106.919 318.819 112.09L324.499 112.005C324.499 112.005 338.318 95.8163 324.841 82.5188" fill="#455A64"/>
<path d="M359.074 69.6923C361.941 62.9578 362.095 51.2663 357.717 45.0672C353.339 38.8681 345.133 34.8531 337.601 33.2899C336.361 32.92 335.036 32.92 333.796 33.2899C333.192 33.5105 332.696 33.9435 332.406 34.5028C332.116 35.0621 332.053 35.707 332.23 36.3092C330.766 35.3337 329.145 34.6027 327.433 34.1465C326.572 33.9105 325.664 33.8847 324.791 34.0715C323.917 34.2583 323.105 34.6518 322.426 35.2171C322.098 35.5079 321.835 35.8596 321.65 36.2513C321.466 36.643 321.364 37.0667 321.352 37.4972C321.34 37.9277 321.417 38.3562 321.578 38.7572C321.74 39.1583 321.983 39.5237 322.293 39.8317C321.232 39.4495 320.078 39.3791 318.976 39.629C317.873 39.879 316.871 40.4383 316.094 41.2374C315.317 42.0364 314.799 43.0398 314.605 44.1225C314.411 45.2052 314.55 46.3194 315.003 47.3262C316.035 49.3882 317.465 51.2383 319.216 52.7759C320.793 54.1892 321.058 55.6452 320.793 57.7116" fill="#263238"/>
<path d="M357.276 57.3476L359.261 98.5465C359.343 100.207 359.077 101.866 358.478 103.424C357.878 104.981 356.959 106.404 355.776 107.606C354.593 108.808 353.17 109.763 351.595 110.415C350.019 111.066 348.323 111.399 346.611 111.394C343.369 111.378 340.258 110.154 337.92 107.974C335.582 105.794 334.196 102.825 334.049 99.6814C333.906 96.5765 333.774 93.9855 333.741 93.675C333.741 93.675 322.888 93.1825 321.609 82.84C320.992 77.84 320.572 67.4439 320.319 58.0328C320.185 53.1584 321.946 48.4138 325.253 44.7434C328.56 41.073 333.169 38.746 338.163 38.2257L339.189 38.1186C350.328 37.5833 357.033 46.4912 357.276 57.3476Z" fill="#FFBE9D"/>
<path d="M333.674 93.5251C338.608 93.1019 343.301 91.2605 347.151 88.2361C347.151 88.2361 345.023 94.7136 334.281 94.8956L333.674 93.5251Z" fill="#EB996E"/>
<path d="M324.124 64.6388C324.163 65.0262 324.357 65.3832 324.664 65.6334C324.972 65.8836 325.367 66.007 325.767 65.9771C325.962 65.9717 326.154 65.9283 326.332 65.8494C326.509 65.7706 326.669 65.6578 326.8 65.518C326.932 65.3782 327.033 65.2141 327.098 65.0354C327.163 64.8568 327.191 64.6673 327.179 64.4782C327.14 64.0928 326.947 63.7374 326.643 63.4875C326.338 63.2376 325.945 63.1129 325.547 63.1398C325.352 63.1467 325.16 63.191 324.983 63.2703C324.805 63.3495 324.646 63.462 324.513 63.6014C324.381 63.7408 324.279 63.9042 324.212 64.0823C324.145 64.2603 324.115 64.4494 324.124 64.6388Z" fill="#263238"/>
<path d="M323.142 62.8722C323.352 63.0435 324.411 62.1013 326.054 61.93C327.697 61.7587 328.977 62.4332 329.131 62.2191C329.285 62.005 328.988 61.7908 328.414 61.4803C327.652 61.0795 326.783 60.9151 325.922 61.0093C325.068 61.0965 324.264 61.4452 323.628 62.005C323.164 62.3904 323.021 62.7972 323.142 62.8722Z" fill="#263238"/>
<path d="M340.302 63.4613C340.342 63.8467 340.534 64.2021 340.839 64.4519C341.144 64.7018 341.537 64.8265 341.935 64.7996C342.13 64.7927 342.321 64.7484 342.499 64.6692C342.676 64.5899 342.836 64.4774 342.968 64.338C343.1 64.1987 343.203 64.0352 343.27 63.8572C343.336 63.6791 343.366 63.49 343.357 63.3007C343.321 62.9142 343.129 62.5572 342.824 62.3067C342.518 62.0563 342.124 61.9326 341.725 61.9624C341.529 61.9663 341.336 62.0087 341.157 62.0869C340.978 62.1652 340.818 62.2777 340.685 62.4176C340.552 62.5576 340.45 62.7222 340.384 62.9016C340.318 63.0809 340.291 63.2713 340.302 63.4613Z" fill="#263238"/>
<path d="M339.288 61.4803C339.497 61.6516 340.556 60.7094 342.2 60.5381C343.843 60.3668 345.133 61.0413 345.288 60.8272C345.442 60.6131 345.133 60.4096 344.571 60.0884C343.805 59.6887 342.932 59.5244 342.067 59.6174C341.214 59.7096 340.413 60.0576 339.773 60.6131C339.321 61.0413 339.189 61.4054 339.288 61.4803Z" fill="#263238"/>
<path d="M334.645 73.9106C333.753 73.7312 332.841 73.6665 331.932 73.7179C331.513 73.7179 331.105 73.7179 331.006 73.4181C330.92 73.0033 330.97 72.5727 331.149 72.1869L332.042 68.9749C333.277 64.3925 334.116 60.6345 333.928 60.5917C333.741 60.5489 332.583 64.2212 331.347 68.8143C331.061 69.885 330.774 71.0199 330.509 72.0263C330.315 72.5486 330.315 73.1206 330.509 73.643C330.583 73.7813 330.69 73.9008 330.82 73.992C330.95 74.0831 331.101 74.1432 331.259 74.1676C331.497 74.1988 331.738 74.1988 331.976 74.1676C332.873 74.1954 333.771 74.109 334.645 73.9106Z" fill="#263238"/>
<path d="M339.564 74.5101C339.299 74.5101 339.486 76.2445 338.097 77.6364C336.707 79.0282 334.788 79.0282 334.788 79.2745C334.788 79.5207 335.24 79.5636 336.046 79.4993C337.092 79.4068 338.069 78.955 338.803 78.2253C339.506 77.5313 339.902 76.5974 339.906 75.6236C339.961 74.8955 339.718 74.4887 339.564 74.5101Z" fill="#263238"/>
<path d="M338.174 55.2919C338.383 55.7094 339.993 55.2919 341.945 55.3561C343.897 55.4203 345.508 55.7201 345.717 55.3561C345.805 55.1527 345.497 54.7779 344.824 54.4246C343.932 53.9867 342.945 53.7628 341.945 53.7715C340.948 53.7622 339.963 53.9785 339.067 54.4032C338.394 54.7137 338.074 55.0884 338.174 55.2919Z" fill="#263238"/>
<path d="M323.23 58.2041C323.561 58.536 324.642 58.0435 325.999 57.8829C327.355 57.7223 328.535 57.8829 328.756 57.4547C328.855 57.262 328.634 56.9194 328.094 56.6303C327.379 56.3018 326.58 56.1835 325.796 56.29C325.012 56.3965 324.278 56.7232 323.683 57.2298C323.197 57.6474 323.087 58.0435 323.23 58.2041Z" fill="#263238"/>
<path d="M357.209 65.1099C357.386 65.0135 364.301 62.2405 364.863 69.3389C365.426 76.4374 357.948 75.5273 357.926 75.3239C357.904 75.1205 357.209 65.1099 357.209 65.1099Z" fill="#FFBE9D"/>
<path d="M359.989 72.4654C359.989 72.4654 360.121 72.5403 360.353 72.6259C360.658 72.7407 360.996 72.7407 361.301 72.6259C361.751 72.2997 362.104 71.863 362.323 71.3606C362.542 70.8582 362.62 70.3083 362.547 69.7673C362.516 69.1572 362.347 68.5612 362.051 68.0221C361.965 67.8069 361.827 67.6148 361.648 67.4621C361.47 67.3093 361.256 67.2003 361.025 67.1442C360.875 67.1169 360.72 67.1417 360.587 67.2141C360.454 67.2865 360.352 67.4019 360.297 67.5403C360.209 67.7438 360.297 67.8829 360.231 67.8936C360.165 67.9044 360.066 67.7866 360.099 67.4975C360.129 67.3181 360.218 67.1529 360.353 67.0264C360.543 66.8624 360.793 66.7778 361.047 66.7909C361.352 66.8269 361.642 66.9384 361.889 67.1146C362.136 67.2909 362.333 67.526 362.459 67.7973C362.822 68.3884 363.027 69.0583 363.055 69.7459C363.144 70.3759 363.038 71.0174 362.752 71.5892C362.465 72.161 362.01 72.6373 361.444 72.9579C361.251 73.0288 361.044 73.057 360.838 73.0403C360.632 73.0237 360.432 72.9626 360.253 72.8615C360.022 72.6367 359.967 72.4761 359.989 72.4654Z" fill="#EB996E"/>
<path d="M314.562 44.9708C314.43 54.2427 326.418 57.2191 331.105 51.6945C333.311 49.1357 335.131 45.9986 338.274 44.6924C339.349 44.2867 340.498 44.0938 341.651 44.1251C342.804 44.1563 343.94 44.4111 344.99 44.8744H345.057C348.189 46.1699 350.24 49.4247 350.968 52.6581C351.971 57.1656 351.541 61.2234 353.085 65.324C353.244 65.9387 353.609 66.4848 354.122 66.8764C355.048 67.4225 356.328 66.7908 356.956 65.945C357.92 64.5089 358.43 62.8303 358.423 61.1163C358.763 57.2417 358.306 53.3402 357.078 49.6389C355.831 45.9277 353.493 42.6522 350.35 40.2171C346.299 37.3148 341.247 36.052 336.256 36.6946C331.281 37.3692 326.652 39.5454 323.021 42.9151C321.267 44.3979 319.921 46.282 319.106 48.3969" fill="#263238"/>
<path d="M321.918 39.3285C321.575 39.2841 321.226 39.3246 320.903 39.4463C320.006 39.738 319.211 40.2685 318.609 40.9774C317.679 42.0081 317.135 43.3134 317.065 44.6818C317.053 46.37 317.685 48.0028 318.841 49.2642C319.951 50.5253 321.403 51.4599 323.032 51.9623C324.343 52.3698 325.714 52.5616 327.09 52.5297C328.009 52.5136 328.924 52.4204 329.825 52.2514C330.164 52.2198 330.494 52.1253 330.796 51.973C330.796 51.8766 329.373 52.1871 327.101 52.1443C325.773 52.1195 324.457 51.8993 323.197 51.4912C321.675 50.9854 320.32 50.0947 319.271 48.9109C318.207 47.7512 317.611 46.2564 317.595 44.7032C317.629 43.4353 318.09 42.2131 318.907 41.2236C319.453 40.546 320.171 40.0183 320.991 39.6926C321.554 39.4142 321.918 39.3821 321.918 39.3285Z" fill="#455A64"/>
<path d="M326.55 35.7097C326.55 35.7097 326.274 35.6454 325.855 35.881C325.575 36.0599 325.338 36.2965 325.163 36.5741C324.988 36.8517 324.877 37.1633 324.84 37.4869C324.769 38.4392 325.042 39.3858 325.612 40.1636C326.215 41.1195 326.958 41.9852 327.818 42.7332C329.386 44.1054 331.281 45.0769 333.332 45.5597C334.163 45.8102 335.038 45.8904 335.902 45.7952C335.902 45.6882 334.931 45.6454 333.442 45.185C331.51 44.6119 329.73 43.6363 328.226 42.3263C327.399 41.6123 326.669 40.7992 326.053 39.9066C325.522 39.2257 325.236 38.3946 325.237 37.5405C325.256 37.2583 325.331 36.9825 325.46 36.7289C325.589 36.4753 325.768 36.249 325.987 36.063C326.329 35.806 326.561 35.7525 326.55 35.7097Z" fill="#455A64"/>
<path d="M357.562 136.876L354.132 112.529L403.419 122.165L448.273 107.037L460.393 119.135L412.661 143C408.404 144.974 403.607 145.57 398.975 144.702L357.562 136.876Z" fill="#FFBE9D"/>
<path d="M448.273 107.037C448.273 107.037 465.422 99.0712 466.525 98.7928C467.374 98.5787 480.322 97.9148 486.222 97.6151C486.685 97.6112 487.132 97.7755 487.476 98.0755C487.82 98.3755 488.036 98.7895 488.082 99.2363C488.127 99.6831 487.999 100.13 487.723 100.49C487.446 100.85 487.04 101.096 486.586 101.18H486.366C483.057 101.448 475.822 103.054 475.822 103.054L479.131 110.549C479.291 110.92 479.319 111.333 479.209 111.721C479.099 112.109 478.858 112.45 478.524 112.69L468.543 119.853C467.237 120.429 465.796 120.662 464.367 120.527C462.939 120.391 461.572 119.893 460.404 119.082L455.993 119.96L448.273 107.037Z" fill="#FFBE9D"/>
<path d="M479.164 111.02C478.855 112.422 475.414 115.302 472.801 115.302C472.224 115.311 471.664 115.117 471.223 114.756C471.014 114.566 470.868 114.32 470.804 114.05C470.739 113.779 470.758 113.496 470.86 113.236C471.044 112.916 471.305 112.644 471.62 112.444L477.422 108.022" fill="#FFBE9D"/>
<path d="M477.422 108.022C476.557 108.47 475.741 109.001 474.984 109.606L472.437 111.459C471.951 111.823 471.466 112.133 470.937 112.604C470.785 112.741 470.662 112.907 470.577 113.091C470.492 113.275 470.445 113.473 470.441 113.675C470.439 114.064 470.576 114.442 470.827 114.745C471.08 115.023 471.396 115.239 471.75 115.379C472.104 115.518 472.486 115.576 472.867 115.548C473.526 115.516 474.173 115.363 474.775 115.099C475.773 114.681 476.694 114.106 477.499 113.396C478.048 112.926 478.52 112.377 478.899 111.769C479.153 111.319 479.164 111.02 479.131 111.02C479.098 111.02 479.01 111.266 478.712 111.651C478.281 112.189 477.785 112.674 477.234 113.097C476.43 113.731 475.535 114.246 474.576 114.628C474.027 114.851 473.44 114.978 472.845 115.002C472.554 115.024 472.262 114.981 471.991 114.877C471.72 114.773 471.476 114.611 471.279 114.403C471.102 114.207 471.004 113.956 471.004 113.696C471.004 113.436 471.102 113.185 471.279 112.99C471.698 112.604 472.26 112.229 472.701 111.919L475.216 109.917C476.019 109.364 476.759 108.728 477.422 108.022Z" fill="#EB996E"/>
<path d="M465.29 115.345C465.29 115.345 465.676 115.152 466.029 114.617C466.489 113.906 466.748 113.09 466.778 112.251C466.823 111.418 466.644 110.588 466.26 109.842C465.951 109.274 465.643 109.007 465.587 109.05C465.96 110.084 466.168 111.167 466.205 112.262C466.065 113.329 465.756 114.369 465.29 115.345Z" fill="#EB996E"/>
<path d="M472.172 111.502C471.934 111.937 471.549 112.279 471.081 112.471C470.613 112.662 470.092 112.691 469.604 112.553C469.117 112.414 468.694 112.117 468.406 111.711C468.119 111.305 467.984 110.815 468.025 110.324C468.123 109.727 468.346 109.156 468.68 108.646C469.014 108.136 469.452 107.698 469.966 107.358L474.256 103.589" fill="#FFBE9D"/>
<path d="M474.256 103.546C473.606 103.915 473.002 104.357 472.459 104.863L470.617 106.394C469.814 107.011 469.075 107.703 468.411 108.461C468.07 108.893 467.843 109.401 467.749 109.938C467.662 110.458 467.764 110.992 468.036 111.448C468.248 111.834 468.567 112.155 468.956 112.374C469.346 112.594 469.792 112.703 470.242 112.69C470.832 112.662 471.391 112.422 471.808 112.015C472.095 111.726 472.161 111.512 472.139 111.501C472.117 111.491 471.962 111.641 471.665 111.855C471.248 112.147 470.745 112.301 470.231 112.294C469.87 112.282 469.519 112.176 469.214 111.988C468.91 111.8 468.663 111.535 468.499 111.223C468.313 110.828 468.249 110.389 468.316 109.959C468.383 109.529 468.577 109.128 468.874 108.803C469.508 108.086 470.198 107.417 470.937 106.801L472.701 105.174C473.293 104.702 473.817 104.155 474.256 103.546Z" fill="#EB996E"/>
<path d="M464.815 102.915C468.276 103.717 471.579 105.059 474.598 106.887C474.791 106.978 474.944 107.134 475.028 107.326C475.116 107.604 474.896 107.872 474.664 108.054C473.714 108.678 472.557 108.934 471.422 108.771C470.304 108.598 469.177 108.484 468.047 108.429C466.084 108.429 464.275 109.382 462.378 109.895C460.481 110.409 458.187 110.388 456.864 108.953" fill="#FFBE9D"/>
<path d="M456.886 108.953C456.886 108.953 456.886 109.06 457.062 109.21C457.271 109.429 457.513 109.617 457.779 109.767C458.789 110.301 459.95 110.5 461.088 110.334C462.707 110.063 464.295 109.64 465.83 109.071C466.718 108.802 467.646 108.679 468.576 108.707C469.546 108.761 470.55 108.996 471.653 109.06C472.753 109.185 473.863 108.927 474.785 108.332C475.053 108.167 475.249 107.911 475.337 107.615C475.38 107.429 475.348 107.233 475.248 107.069C475.161 106.941 475.049 106.832 474.917 106.748C474.487 106.48 474.09 106.266 473.682 106.041C472.271 105.258 470.795 104.588 469.271 104.039C468.237 103.665 467.18 103.353 466.106 103.108C465.716 102.991 465.311 102.926 464.903 102.915C464.903 103.011 466.569 103.386 469.127 104.403C470.622 105.001 472.074 105.695 473.473 106.48C473.859 106.705 474.278 106.951 474.653 107.187C474.829 107.315 474.884 107.39 474.851 107.497C474.787 107.663 474.666 107.803 474.509 107.893C473.687 108.402 472.709 108.617 471.741 108.504C470.716 108.439 469.69 108.215 468.664 108.172C467.67 108.143 466.677 108.281 465.731 108.579C464.229 109.16 462.679 109.618 461.099 109.949C460.044 110.124 458.959 109.998 457.977 109.585C457.602 109.395 457.237 109.184 456.886 108.953Z" fill="#EB996E"/>
<path d="M402.658 130.559C403.619 127.792 403.708 124.81 402.912 121.994C402.747 121.994 402.912 123.942 402.912 126.277C402.912 128.611 402.493 130.527 402.658 130.559Z" fill="#EB996E"/>
<path d="M359.526 101.234L373.51 116.533C373.51 116.533 380.988 169.37 381.517 173.524C382.047 177.679 383.469 190.933 383.469 194.563C383.469 198.192 386.568 224.134 386.568 224.134C386.568 224.134 327.223 236.104 317.287 224.134L320.386 201.918L317.695 146.812C317.695 146.812 313.283 108.557 334.017 99.7027C334.05 99.6813 347.152 107.358 359.526 101.234Z" fill="#79C930"/>
<path d="M324.488 105.099C324.488 105.099 328.58 101.18 341.659 104.467C355.434 107.926 362.702 120.442 359.305 155.859C356.482 185.088 344.582 189.285 344.582 189.285C344.582 189.285 351.1 145.206 349.975 126.769C348.563 103.482 324.51 109.275 324.51 109.275C321.069 108.225 324.488 105.099 324.488 105.099Z" fill="#34495E"/>
<path d="M359.526 101.234L371.613 104.467L398.81 120.634L391.067 144.51L375.098 142.807L359.526 101.234Z" fill="#79C930"/>
<path d="M375.263 117.808C375.098 117.808 375.792 126.373 376.796 136.865C377.8 147.358 378.748 155.902 378.903 155.88C379.057 155.859 378.373 147.315 377.37 136.822C376.366 126.33 375.418 117.797 375.263 117.808Z" fill="#263238"/>
<path d="M319.9 192.015C319.9 192.015 323.76 204.06 337.402 184.167C351.044 164.274 349.137 173.171 349.137 173.171L351.927 176.383C351.927 176.383 336.917 209.199 320.076 204.06L319.9 192.015Z" fill="#34495E"/>
<path opacity="0.3" d="M375.815 123.546L386.568 144.028L377.679 143.086L375.815 123.546Z" fill="black"/>
<g opacity="0.3">
<path opacity="0.3" d="M380.745 177.925C372.831 186.286 363.484 193.252 353.118 198.514C348.784 200.719 343.987 202.657 339.134 202.047C333.796 201.383 329.208 197.636 326.705 193.021C324.201 188.407 324.499 186.18 323.937 180.998C323.275 175.28 323.275 167.647 322.966 162.432C322.966 161.512 322.9 160.441 322.9 159.424C322.9 158.323 322.534 157.25 321.857 156.367C321.179 155.484 320.226 154.836 319.139 154.52C319.139 154.52 322.448 153.032 324.576 153.332C326.705 153.632 328.403 155.398 329.539 157.218C335.594 166.908 332.958 181.115 344.505 187.197C348.322 189.09 352.674 189.711 356.89 188.963C366.342 187.464 373.577 181.469 380.547 175.559" fill="black"/>
</g>
<path d="M367.687 157.871C364.794 157.871 362.449 151.026 362.449 142.582C362.449 134.139 364.794 127.293 367.687 127.293C370.58 127.293 372.926 134.139 372.926 142.582C372.926 151.026 370.58 157.871 367.687 157.871Z" fill="#FAFAFA"/>
<path d="M364.929 408.491L363.727 433.662C363.727 433.662 389.677 443.298 389.931 447.976L339.575 447.473L339.784 408.18L364.929 408.491Z" fill="#406FBF"/>
<g opacity="0.6">
<path opacity="0.6" d="M348.133 431.392C347.649 431.532 347.235 431.839 346.968 432.255C346.702 432.671 346.602 433.168 346.688 433.651C346.814 434.128 347.122 434.54 347.551 434.802C347.98 435.065 348.496 435.159 348.993 435.064C349.505 434.911 349.941 434.581 350.221 434.138C350.501 433.695 350.606 433.168 350.515 432.655C350.328 432.172 349.957 431.777 349.479 431.552C349.001 431.327 348.452 431.289 347.945 431.445" fill="white"/>
</g>
<path opacity="0.6" d="M339.564 447.473V443.555L387.935 445.482C387.935 445.482 390.141 446.445 389.898 447.977L339.564 447.473Z" fill="white"/>
<path d="M364.511 433.426C364.511 433.662 363.265 433.758 362.052 434.497C360.839 435.236 360.177 436.242 359.945 436.146C359.714 436.049 360.1 434.679 361.6 433.79C363.1 432.902 364.566 433.201 364.511 433.426Z" fill="#263238"/>
<path d="M369.76 435.6C369.815 435.835 368.746 436.232 367.907 437.227C367.069 438.223 366.804 439.294 366.562 439.283C366.319 439.272 366.176 437.912 367.246 436.692C368.315 435.471 369.76 435.375 369.76 435.6Z" fill="#263238"/>
<path d="M372.65 441.767C372.429 441.767 372.098 440.621 372.749 439.315C373.4 438.009 374.547 437.505 374.646 437.709C374.745 437.912 374.028 438.598 373.543 439.679C373.058 440.76 372.948 441.745 372.65 441.767Z" fill="#263238"/>
<path d="M364.125 427.656C364.015 427.88 362.89 427.538 361.5 427.656C360.111 427.773 359.03 428.148 358.897 427.945C358.765 427.741 359.824 426.874 361.467 426.82C363.11 426.767 364.246 427.484 364.125 427.656Z" fill="#263238"/>
<path opacity="0.3" d="M364.643 413.48L364.434 417.966L339.685 417.495L339.696 413.448L364.643 413.48Z" fill="black"/>
<path d="M364.268 422.581C363.442 422.802 362.569 422.802 361.743 422.581C360.838 422.411 359.957 422.138 359.118 421.767C358.619 421.545 358.137 421.291 357.673 421.007C357.398 420.847 357.146 420.652 356.923 420.428C356.768 420.255 356.674 420.037 356.656 419.807C356.638 419.578 356.697 419.349 356.824 419.154C356.95 418.986 357.116 418.849 357.308 418.756C357.5 418.662 357.712 418.616 357.927 418.619C358.248 418.616 358.569 418.663 358.875 418.758C359.411 418.885 359.932 419.064 360.43 419.294C361.28 419.67 362.062 420.176 362.746 420.793C363.904 421.863 364.29 422.752 364.202 422.805C364.114 422.859 363.529 422.12 362.349 421.242C361.67 420.738 360.929 420.318 360.143 419.99C359.673 419.808 359.19 419.657 358.699 419.54C358.169 419.401 357.706 419.401 357.596 419.625C357.485 419.85 357.596 419.743 357.651 419.904C357.811 420.071 357.997 420.212 358.202 420.321C358.629 420.598 359.07 420.852 359.526 421.082C360.304 421.463 361.116 421.775 361.952 422.013C362.737 422.15 363.511 422.339 364.268 422.581Z" fill="#263238"/>
<path d="M363.948 422.912C363.472 422.214 363.247 421.382 363.308 420.546C363.272 419.64 363.399 418.734 363.683 417.87C363.846 417.356 364.064 416.861 364.334 416.392C364.473 416.07 364.695 415.789 364.979 415.575C365.263 415.361 365.6 415.222 365.955 415.172C366.181 415.168 366.403 415.232 366.59 415.354C366.778 415.477 366.922 415.652 367.003 415.857C367.132 416.143 367.218 416.446 367.257 416.756C367.345 417.302 367.345 417.859 367.257 418.405C367.108 419.322 366.73 420.19 366.154 420.932C365.161 422.184 364.125 422.463 364.113 422.377C364.102 422.291 364.886 421.81 365.658 420.6C366.098 419.903 366.376 419.121 366.474 418.309C366.539 417.836 366.539 417.357 366.474 416.885C366.396 416.371 366.198 415.942 365.999 415.996C365.801 416.049 365.316 416.381 365.106 416.788C364.853 417.211 364.638 417.656 364.466 418.116C364.182 418.899 364.012 419.717 363.959 420.546C363.827 421.981 364.08 422.88 363.948 422.912Z" fill="#263238"/>
<path d="M316.095 393.223L295.736 408.844C295.736 408.844 305.254 434.186 301.78 437.431L269.157 400.193L299.861 374.572L316.095 393.223Z" fill="#406FBF"/>
<g opacity="0.6">
<path opacity="0.6" d="M287.31 395.953C286.884 395.687 286.372 395.583 285.872 395.66C285.371 395.737 284.918 395.99 284.597 396.371C284.31 396.775 284.192 397.27 284.267 397.756C284.343 398.241 284.607 398.68 285.005 398.983C285.459 399.257 286.001 399.361 286.528 399.276C287.056 399.192 287.533 398.924 287.873 398.523C288.132 398.071 288.199 397.539 288.061 397.039C287.924 396.54 287.591 396.112 287.134 395.846" fill="white"/>
</g>
<path opacity="0.6" d="M269.158 400.182L272.212 397.624L302.442 434.347C302.442 434.347 303.148 436.617 301.78 437.42L269.158 400.182Z" fill="white"/>
<path d="M296.464 409.283C296.265 409.433 295.361 408.587 293.994 408.212C292.626 407.838 291.402 407.987 291.336 407.763C291.269 407.538 292.582 406.906 294.247 407.42C295.912 407.934 296.662 409.176 296.464 409.283Z" fill="#263238"/>
<path d="M298.218 414.561C298.074 414.754 297.115 414.229 295.725 414.261C294.336 414.294 293.398 414.818 293.255 414.626C293.111 414.433 294.06 413.448 295.714 413.437C297.368 413.426 298.394 414.411 298.218 414.561Z" fill="#263238"/>
<path d="M295.35 420.75C295.163 420.621 295.88 419.593 297.313 419.219C298.747 418.844 299.894 419.347 299.806 419.551C299.718 419.754 298.703 419.69 297.534 420.022C296.365 420.354 295.527 420.921 295.35 420.75Z" fill="#263238"/>
<path d="M300.688 405.215C300.456 405.279 299.982 404.24 299.011 403.266C298.041 402.292 297.004 401.778 297.081 401.542C297.159 401.307 298.504 401.542 299.629 402.699C300.754 403.855 300.963 405.183 300.688 405.215Z" fill="#263238"/>
<path opacity="0.3" d="M312.059 396.296L308.43 399.09L292.571 380.643L295.725 377.999L312.059 396.296Z" fill="black"/>
<path d="M304.735 401.992C304.669 402.056 303.919 401.435 303.114 400.118C302.645 399.344 302.275 398.517 302.011 397.656C301.861 397.146 301.743 396.627 301.658 396.103C301.612 395.794 301.612 395.481 301.658 395.172C301.691 394.943 301.799 394.732 301.966 394.568C302.133 394.404 302.35 394.296 302.585 394.262C302.791 394.248 302.997 394.281 303.189 394.357C303.38 394.433 303.55 394.551 303.688 394.701C303.898 394.936 304.072 395.199 304.206 395.482C304.449 395.965 304.652 396.467 304.813 396.981C305.071 397.854 305.186 398.761 305.154 399.668C305.211 400.501 305.003 401.331 304.559 402.045C304.416 402.045 304.636 401.114 304.559 399.668C304.474 398.336 304.098 397.037 303.456 395.857C303.213 395.375 302.927 395.043 302.662 395.086C302.397 395.129 302.53 395.086 302.474 395.3C302.443 395.531 302.443 395.765 302.474 395.996C302.545 396.486 302.64 396.972 302.761 397.452C302.973 398.277 303.265 399.08 303.632 399.85C304.059 400.534 304.428 401.25 304.735 401.992Z" fill="#263238"/>
<path d="M304.273 401.981C304.195 401.981 304.548 401.017 305.695 399.957C306.379 399.337 307.166 398.834 308.022 398.469C308.534 398.254 309.066 398.089 309.61 397.977C309.952 397.869 310.316 397.85 310.668 397.919C311.019 397.988 311.347 398.145 311.618 398.373C311.759 398.542 311.849 398.746 311.876 398.962C311.903 399.178 311.867 399.397 311.772 399.593C311.63 399.874 311.448 400.133 311.232 400.364C310.859 400.782 310.424 401.142 309.941 401.435C309.131 401.923 308.212 402.213 307.261 402.281C305.629 402.366 304.736 401.799 304.791 401.724C305.588 401.779 306.387 401.779 307.184 401.724C308.017 401.588 308.81 401.282 309.511 400.825C309.923 400.558 310.294 400.238 310.614 399.872C310.967 399.476 311.166 399.058 311 398.94C310.82 398.838 310.62 398.773 310.413 398.751C310.206 398.729 309.996 398.75 309.798 398.812C309.306 398.904 308.822 399.037 308.353 399.208C307.565 399.516 306.823 399.927 306.148 400.429C304.912 401.274 304.383 402.056 304.273 401.981Z" fill="#263238"/>
<path d="M372.55 302.003C372.55 302.003 371.205 241.875 372.55 241.875C373.896 241.875 383.447 236.586 383.447 236.586L395.38 325.932C395.38 325.932 396.482 335.964 383.667 343.063C370.852 350.161 313.713 399.476 313.713 399.476L294.346 376.574C294.346 376.574 331.965 338.513 347.284 325.932C359.415 316.136 372.55 302.003 372.55 302.003Z" fill="#34495E"/>
<path d="M337.512 287.988L336.2 278.47C336.2 278.47 326.782 259.198 325.436 250.997C324.091 242.796 324.973 225.023 324.973 225.023H384.472C384.472 225.023 384.219 290.237 377.039 308.534C377.039 308.534 373.399 343.545 372.859 346.478C371.756 352.709 367.753 416.456 367.753 416.456L337.755 415.386C337.755 415.386 335.152 356.778 337.237 340.14C338.262 331.896 338.748 323.116 338.979 315.857C339.262 306.545 338.772 297.225 337.512 287.988Z" fill="#34495E"/>
<path d="M382.851 244.049C382.839 244.141 382.839 244.235 382.851 244.327C382.851 244.552 382.851 244.83 382.795 245.173C382.795 245.955 382.707 247.047 382.641 248.385C382.531 251.201 382.31 255.28 382.012 260.312C381.417 270.376 380.303 284.263 378.704 299.562C377.105 314.862 375.307 328.684 374.039 338.695C373.41 343.663 372.936 347.699 372.55 350.547C372.385 351.917 372.252 352.988 372.164 353.759C372.164 354.102 372.098 354.38 372.076 354.605C372.054 354.83 372.076 354.894 372.076 354.894C372.112 354.804 372.138 354.711 372.153 354.615L372.285 353.78L372.782 350.568C373.179 347.731 373.752 343.695 374.458 338.738C375.825 328.738 377.645 314.916 379.288 299.605C380.932 284.295 381.968 270.398 382.465 260.323C382.718 255.28 382.862 251.201 382.906 248.385C382.906 247.004 382.906 245.922 382.961 245.173V244.338C382.935 244.238 382.898 244.141 382.851 244.049Z" fill="#455A64"/>
<path d="M339.034 321.232C338.949 321.541 338.89 321.856 338.858 322.174C338.769 322.838 338.637 323.748 338.472 324.894C338.174 327.271 337.799 330.707 337.457 334.958C336.751 343.47 336.222 355.3 336.023 368.277C335.825 381.253 336.023 393.105 336.553 401.628C336.773 405.91 337.06 409.336 337.292 411.713C337.424 412.859 337.534 413.769 337.611 414.444C337.635 414.764 337.683 415.083 337.755 415.396C337.784 415.076 337.784 414.753 337.755 414.433C337.7 413.758 337.634 412.848 337.545 411.692C337.38 409.315 337.159 405.868 336.983 401.606C336.619 393.095 336.465 381.264 336.63 368.287C336.795 355.311 337.292 343.491 337.898 334.99C338.185 330.707 338.494 327.292 338.725 324.915C338.847 323.77 338.946 322.86 339.012 322.185C339.046 321.869 339.054 321.55 339.034 321.232Z" fill="#455A64"/>
<path d="M327.333 103.76C327.333 103.76 317.595 106.277 315.521 120.366C313.448 134.456 317.286 138.482 317.286 138.482C317.286 138.482 315.709 112.251 327.807 108.675L327.333 104.274" fill="#34495E"/>
<path d="M393.681 149.777L443.95 148.824L443.365 151.191L393.924 151.897L393.681 149.777Z" fill="#34495E"/>
<path d="M332.726 108.182C334.612 107.735 336.597 107.905 338.373 108.664C342.443 110.324 349.898 115.088 350.427 128.621L351.288 150.43L319.139 154.52C319.139 154.52 316.404 112.401 332.726 108.182Z" fill="#79C930"/>
<path d="M391.895 154.392L351.089 166.298L350.483 150.366L326.065 153.814L327.433 179.724C327.572 183.421 328.958 186.972 331.379 189.829C333.801 192.687 337.122 194.692 340.833 195.537C345.1 196.506 349.586 195.875 353.394 193.771L396.704 169.863L391.895 154.392Z" fill="#FFBE9D"/>
<path d="M319.139 154.52C319.139 154.52 319.139 154.381 319.139 154.146C319.139 153.91 319.139 153.525 319.194 153.075C319.194 152.122 319.271 150.784 319.337 149.071C319.448 145.591 319.613 140.623 319.812 134.488C319.911 131.426 320.01 128.064 320.109 124.467C320.109 123.568 320.165 122.647 320.198 121.715C320.198 121.266 320.286 120.805 320.341 120.334C320.396 119.863 320.507 119.413 320.639 118.953C321.452 115.967 323.227 113.311 325.705 111.373C328.183 109.435 331.235 108.317 334.414 108.182C336.697 108.161 338.938 108.782 340.865 109.97C342.856 111.202 344.555 112.829 345.85 114.745C347.7 117.501 348.949 120.594 349.523 123.835C350.086 126.942 350.422 130.083 350.526 133.236C350.703 139.381 350.868 145.163 351.023 150.42L351.232 150.173L327.995 153.257L321.466 154.146L319.712 154.467L319.106 154.574L319.712 154.467L321.4 154.285L327.896 153.514L351.331 150.666H351.541V150.452C351.409 145.184 351.309 139.413 351.1 133.257C351.012 130.076 350.684 126.906 350.118 123.771C349.534 120.456 348.254 117.292 346.358 114.478C345.018 112.495 343.258 110.812 341.196 109.542C339.178 108.295 336.828 107.648 334.436 107.679C332.195 107.772 330.002 108.339 328.011 109.342C326.02 110.344 324.279 111.757 322.911 113.482C321.631 115.066 320.7 116.888 320.176 118.835C320.054 119.306 319.977 119.788 319.878 120.27C319.779 120.752 319.779 121.223 319.735 121.705C319.735 122.636 319.735 123.568 319.668 124.478C319.591 128.118 319.525 131.512 319.459 134.606C319.349 140.752 319.26 145.73 319.194 149.21C319.194 150.891 319.194 152.218 319.139 153.15V154.22C319.129 154.32 319.129 154.421 319.139 154.52Z" fill="#263238"/>
<path d="M391.068 154.863L400.861 147.829C402.648 146.544 405.427 146.758 407.644 146.619C412.055 146.233 419.257 148.76 419.533 149.253L416.577 151.544L435.612 150.977C434.959 152.234 433.967 153.296 432.742 154.051C431.516 154.805 430.104 155.222 428.653 155.259C428.653 155.259 428.047 159.435 422.521 160.227C422.521 160.227 421.088 163.61 418.011 164.595C418.011 164.595 417.404 168.375 412.496 168.171L395.81 169.981L391.068 154.863Z" fill="#FFBE9D"/>
<path d="M416.763 155.912C418.772 156.082 420.792 156.061 422.796 155.848C424.809 155.835 426.815 155.627 428.785 155.227C426.78 155.07 424.764 155.091 422.763 155.291C420.748 155.319 418.739 155.527 416.763 155.912Z" fill="#EB996E"/>
<path d="M411.933 160.366C413.675 160.641 415.442 160.734 417.205 160.645C418.967 160.734 420.735 160.641 422.477 160.366C420.735 160.085 418.967 159.992 417.205 160.088C415.442 159.992 413.675 160.085 411.933 160.366Z" fill="#EB996E"/>
<path d="M406.762 164.563C408.503 164.844 410.271 164.937 412.033 164.841C413.792 164.938 415.556 164.844 417.294 164.563C415.556 164.288 413.792 164.195 412.033 164.285C410.271 164.195 408.504 164.288 406.762 164.563Z" fill="#EB996E"/>
<path d="M348.387 174.381C349.192 173.183 349.802 171.873 350.195 170.495C350.787 169.183 351.159 167.788 351.298 166.362C350.626 167.621 350.09 168.945 349.699 170.313C349.114 171.62 348.674 172.984 348.387 174.381Z" fill="#EB996E"/>
<path d="M345.486 172.839C346.619 171.82 347.65 170.698 348.563 169.488C349.625 168.404 350.574 167.22 351.397 165.955C350.131 166.855 349.016 167.938 348.089 169.167C347.041 170.261 346.164 171.498 345.486 172.839Z" fill="#EB996E"/>
</svg>
