<svg width="50" height="50" viewBox="0 0 50 50" fill="none" xmlns="http://www.w3.org/2000/svg">
<g clip-path="url(#clip0)">
<path d="M48.9939 40.4474H1.00605C0.450391 40.4474 0 39.9969 0 39.4414V37.1954H50V39.4414C50 39.9969 49.5496 40.4474 48.9939 40.4474Z" fill="#D0E2E7"/>
<path d="M43.5972 23.9074L40.8189 10.7573C40.7207 10.292 40.3102 9.95923 39.8347 9.95923H1.00605C0.450391 9.95923 0 10.4096 0 10.9653V37.195H50V28.0697C50 27.6839 49.7794 27.3321 49.4321 27.1641L44.1433 24.605C43.8632 24.4695 43.6615 24.2119 43.5972 23.9074Z" fill="#F1F4F6"/>
<path d="M43.5974 23.9074L40.8191 10.7573C40.7209 10.292 40.3104 9.95923 39.8349 9.95923H37.1689L40.2343 23.4525C40.3691 24.046 40.7629 24.5479 41.3073 24.8202L45.4213 26.8772C46.1099 27.2215 46.5448 27.9252 46.5448 28.6952V37.1951H50.0002V28.0698C50.0002 27.684 49.7796 27.3322 49.4323 27.1642L44.1435 24.6051C43.8634 24.4695 43.6617 24.2119 43.5974 23.9074Z" fill="#D0E2E7"/>
<path d="M32.3169 23.3842V14.2174C32.3169 13.6618 32.7673 13.2114 33.3229 13.2114H37.1033C37.573 13.2114 37.9803 13.5364 38.0844 13.9945L40.1678 23.1613C40.3108 23.7908 39.8323 24.3903 39.1867 24.3903H33.323C32.7673 24.3903 32.3169 23.9399 32.3169 23.3842Z" fill="#B4D4EE"/>
<path d="M37.1034 13.2115H35.9756L38.5162 24.3904H39.1868C39.8324 24.3904 40.3109 23.7909 40.1679 23.1614L38.0845 13.9946C37.9804 13.5365 37.5731 13.2115 37.1034 13.2115Z" fill="#B4D4EE"/>
<path d="M22.9673 23.3842V14.2174C22.9673 13.6618 23.4177 13.2114 23.9733 13.2114H28.0588C28.6144 13.2114 29.0648 13.6618 29.0648 14.2174V23.3842C29.0648 23.9399 28.6144 24.3903 28.0588 24.3903H23.9733C23.4177 24.3903 22.9673 23.9399 22.9673 23.3842Z" fill="#B4D4EE"/>
<path d="M39.9389 44.9189C43.3065 44.9189 46.0364 42.1889 46.0364 38.8213C46.0364 35.4537 43.3065 32.7238 39.9389 32.7238C36.5713 32.7238 33.8413 35.4537 33.8413 38.8213C33.8413 42.1889 36.5713 44.9189 39.9389 44.9189Z" fill="#56BA2E"/>
<path d="M43.3901 33.7952C44.0653 34.7766 44.4613 35.965 44.4613 37.2463C44.4613 40.6139 41.7313 43.3439 38.3638 43.3439C37.0824 43.3439 35.894 42.9479 34.9126 42.2727C36.0119 43.8708 37.8527 44.9191 39.939 44.9191C43.3065 44.9191 46.0365 42.1891 46.0365 38.8215C46.0365 36.7353 44.9881 34.8946 43.3901 33.7952Z" fill="#418526"/>
<path d="M39.9386 40.5488C40.8927 40.5488 41.6662 39.7753 41.6662 38.8211C41.6662 37.867 40.8927 37.0935 39.9386 37.0935C38.9844 37.0935 38.2109 37.867 38.2109 38.8211C38.2109 39.7753 38.9844 40.5488 39.9386 40.5488Z" fill="#D0E2E7"/>
<path d="M10.0609 44.9189C13.4285 44.9189 16.1585 42.1889 16.1585 38.8213C16.1585 35.4537 13.4285 32.7238 10.0609 32.7238C6.69335 32.7238 3.96338 35.4537 3.96338 38.8213C3.96338 42.1889 6.69335 44.9189 10.0609 44.9189Z" fill="#56BA2E"/>
<path d="M13.5122 33.7952C14.1874 34.7766 14.5834 35.965 14.5834 37.2463C14.5834 40.6139 11.8534 43.3439 8.48584 43.3439C7.20449 43.3439 6.01611 42.9479 5.03467 42.2727C6.13398 43.8708 7.9748 44.9191 10.061 44.9191C13.4286 44.9191 16.1586 42.1891 16.1586 38.8215C16.1586 36.7353 15.1103 34.8946 13.5122 33.7952Z" fill="#418526"/>
<path d="M10.0606 40.5488C11.0148 40.5488 11.7883 39.7753 11.7883 38.8211C11.7883 37.867 11.0148 37.0935 10.0606 37.0935C9.1065 37.0935 8.33301 37.867 8.33301 38.8211C8.33301 39.7753 9.1065 40.5488 10.0606 40.5488Z" fill="#D0E2E7"/>
<path d="M17.5871 18.3945H13.6114C13.278 18.3945 13.0078 18.1242 13.0078 17.7908V13.8152C13.0078 13.4818 12.7376 13.2115 12.4042 13.2115H10.1562C9.82275 13.2115 9.55254 13.4818 9.55254 13.8152V17.7908C9.55254 18.1242 9.28232 18.3945 8.94893 18.3945H4.97324C4.63984 18.3945 4.36963 18.6647 4.36963 18.9981V21.2461C4.36963 21.5795 4.63984 21.8497 4.97324 21.8497H8.94893C9.28232 21.8497 9.55254 22.1199 9.55254 22.4533V26.429C9.55254 26.7624 9.82275 27.0326 10.1562 27.0326H12.4042C12.7376 27.0326 13.0078 26.7624 13.0078 26.429V22.4533C13.0078 22.1199 13.278 21.8497 13.6114 21.8497H17.5871C17.9205 21.8497 18.1907 21.5795 18.1907 21.2461V18.9981C18.1907 18.6647 17.9205 18.3945 17.5871 18.3945Z" fill="#C55346"/>
<path d="M28.0488 9.95932H21.9512L22.8006 5.88218C22.8978 5.41567 23.309 5.0813 23.7854 5.0813H26.2144C26.6909 5.0813 27.102 5.41567 27.1992 5.88218L28.0488 9.95932Z" fill="#C55346"/>
<path d="M35.1039 28.3967H33.0714C32.6546 28.3967 32.3169 28.059 32.3169 27.6423C32.3169 27.2256 32.6547 26.8878 33.0714 26.8878H35.1039C35.5207 26.8878 35.8584 27.2256 35.8584 27.6423C35.8584 28.059 35.5207 28.3967 35.1039 28.3967Z" fill="#D0E2E7"/>
<path d="M49.9999 30.8358H47.9674C47.5506 30.8358 47.2129 30.498 47.2129 30.0813C47.2129 29.6646 47.5507 29.3268 47.9674 29.3268H49.9999V30.8358Z" fill="#86A0AF"/>
<path d="M49.9999 34.0877H47.9674C47.5506 34.0877 47.2129 33.7499 47.2129 33.3332C47.2129 32.9165 47.5507 32.5787 47.9674 32.5787H49.9999V34.0877Z" fill="#86A0AF"/>
<path d="M23.7218 34.9008C23.305 34.9008 22.9673 34.563 22.9673 34.1463V27.6422C22.9673 27.2256 23.3051 26.8878 23.7218 26.8878C24.1385 26.8878 24.4763 27.2256 24.4763 27.6422V34.1463C24.4764 34.563 24.1386 34.9008 23.7218 34.9008Z" fill="#D0E2E7"/>
</g>
<defs>
<clipPath id="clip0">
<rect width="50" height="50" fill="white"/>
</clipPath>
</defs>
</svg>
