<svg width="50" height="50" viewBox="0 0 50 50" fill="none" xmlns="http://www.w3.org/2000/svg">
<g clip-path="url(#clip0)">
<path d="M31.6667 15.8317L30.6267 14.8591L15.4684 14.9983L15.8333 15.8317L12.5 22.4983V24.165H40.8333V22.4983L31.6667 15.8317Z" fill="#BDC3C7"/>
<path d="M22.5 8.33167H13.3333C12.873 8.33167 12.5 8.70481 12.5 9.16497C12.5 9.62512 12.8731 9.99827 13.3333 9.99827H16.1517L17.5875 12.8707C17.7933 13.2826 18.2939 13.4498 18.7059 13.2441C19.1178 13.0383 19.285 12.5376 19.0792 12.1257L18.015 9.99817H22.5C22.9603 9.99817 23.3333 9.62502 23.3333 9.16487C23.3333 8.70471 22.9603 8.33167 22.5 8.33167Z" fill="#A5A5A4"/>
<path d="M48.9666 23.8732L39.1499 35.6816C38.4658 35.7836 37.7749 35.8337 37.0832 35.8316C31.0332 35.8316 31.0332 32.4983 24.9915 32.4983C18.9498 32.4983 18.9582 35.8316 12.9165 35.8316C7.3582 35.8316 6.9165 33.0066 2.1665 32.5566L6.4832 25.8316H8.68066L29.1665 22.4983H48.3332C48.6585 22.4983 48.9541 22.6875 49.0901 22.983C49.2263 23.2784 49.178 23.626 48.9666 23.8732Z" fill="#D1D4D1"/>
<path d="M17.7581 34.7986H17.7498" stroke="black" stroke-width="2" stroke-linecap="round" stroke-linejoin="round"/>
<path d="M29.1667 22.4982V24.1649C29.1639 25.0842 28.4193 25.8288 27.5 25.8316H8.33325L10.5833 22.8316C10.7418 22.6232 10.988 22.5 11.25 22.4983H29.1667V22.4982Z" fill="#56BA2E"/>
<path d="M31.6666 15.8316L31.1516 14.8016C30.4458 13.39 29.0031 12.4983 27.4249 12.4983H13.3332C12.4127 12.4983 11.6665 13.2445 11.6665 14.165C11.6665 15.0855 12.4127 15.8317 13.3332 15.8317H31.6666V15.8316Z" fill="#56BA2E"/>
<path d="M34.1666 22.4982V25.8315C34.1666 26.2917 33.7935 26.6648 33.3333 26.6648C32.8731 26.6648 32.5 26.2917 32.5 25.8315V22.4982H34.1666Z" fill="#A5A5A4"/>
<path d="M37.4999 22.4982V25.8315C37.4999 26.2917 37.1267 26.6648 36.6666 26.6648C36.2063 26.6648 35.8333 26.2917 35.8333 25.8315V22.4982H37.4999Z" fill="#A5A5A4"/>
<path d="M40.8331 22.4982V25.8315C40.8331 26.2917 40.46 26.6648 39.9998 26.6648C39.5396 26.6648 39.1665 26.2917 39.1665 25.8315V22.4982H40.8331Z" fill="#A5A5A4"/>
<path d="M49.1665 36.6649C46.891 36.6115 44.6498 37.2269 42.7207 38.4349C41.0373 39.5017 39.0756 40.0457 37.0832 39.9983C35.0898 40.0464 33.1267 39.5024 31.4424 38.4349C29.5123 37.2263 27.2698 36.6109 24.9933 36.6649C22.719 36.6116 20.4792 37.227 18.5516 38.4349C16.8692 39.5019 14.9082 40.046 12.9166 39.9983C10.9236 40.0463 8.96113 39.5023 7.27744 38.4349C5.34902 37.2268 3.1083 36.6113 0.833301 36.6649C0.373047 36.6649 0 37.0379 0 37.4982C0 37.9584 0.373145 38.3315 0.833301 38.3315C2.82598 38.2835 4.78818 38.8276 6.47168 39.8949C8.40039 41.1032 10.6414 41.7186 12.9167 41.6649C15.191 41.7184 17.431 41.1027 19.3584 39.8941C21.0409 38.8276 23.0019 38.2838 24.9934 38.3316C26.9868 38.2834 28.9499 38.8275 30.6342 39.895C32.5643 41.1036 34.8067 41.719 37.0833 41.665C39.3588 41.7184 41.6 41.103 43.5291 39.895C45.2125 38.8282 47.1742 38.2842 49.1666 38.3316C49.6269 38.3316 49.9999 37.9585 49.9999 37.4983C49.9999 37.038 49.6268 36.6649 49.1665 36.6649Z" fill="#2FA8CC"/>
<path d="M0.833203 33.3315C2.82588 33.2836 4.78809 33.8276 6.47158 34.8949C8.40029 36.1032 10.6413 36.7186 12.9166 36.6649C15.1909 36.7184 17.4309 36.1027 19.3583 34.8941C21.0408 33.8276 23.0018 33.2839 24.9933 33.3316C26.9867 33.2835 28.9498 33.8275 30.6341 34.895C32.5642 36.1036 34.8066 36.719 37.0832 36.665C39.3587 36.7184 41.5999 36.103 43.529 34.895C45.2124 33.8282 47.1741 33.2843 49.1665 33.3316C49.6268 33.3316 49.9998 32.9585 49.9998 32.4983C49.9998 32.0382 49.6268 31.665 49.1665 31.665C46.891 31.6116 44.6498 32.227 42.7207 33.435C41.0373 34.5018 39.0756 35.0458 37.0832 34.9984C35.0897 35.0466 33.1267 34.5025 31.4424 33.435C29.5123 32.2264 27.2698 31.611 24.9933 31.665C22.719 31.6117 20.4792 32.2271 18.5516 33.435C16.8692 34.502 14.9082 35.0462 12.9166 34.9984C10.9236 35.0465 8.96113 34.5024 7.27744 33.435C5.34902 32.2269 3.1083 31.6114 0.833301 31.665C0.373047 31.665 0 32.0381 0 32.4983C0 32.9586 0.373047 33.3315 0.833203 33.3315Z" fill="#2FA8CC"/>
<path d="M36.25 19.1651H24.1667C23.2474 19.1623 22.5027 18.4177 22.5 17.4984V15.8317H31.6667L36.25 19.1651Z" fill="#76B7EB"/>
</g>
<defs>
<clipPath id="clip0">
<rect width="50" height="50" fill="white"/>
</clipPath>
</defs>
</svg>
