<svg width="24" height="24" viewBox="0 0 24 24" fill="none" xmlns="http://www.w3.org/2000/svg">
<g clip-path="url(#clip0)">
<path d="M15.2972 7.18545C15.2046 7.18545 15.112 7.1502 15.0413 7.07977C14.8994 6.93846 14.8989 6.70888 15.0403 6.56704L16.2643 5.3379L17.6922 3.88706C18.497 3.06948 19.6164 2.60059 20.7635 2.60059H21.0895C21.2898 2.60059 21.4521 2.76288 21.4521 2.96317C21.4521 3.16346 21.2898 3.32575 21.0895 3.32575H20.7635C19.8094 3.32575 18.8783 3.71573 18.2091 4.39573L16.7797 5.84807L15.5541 7.0787C15.4832 7.14987 15.3902 7.18545 15.2972 7.18545Z" fill="#EFEDEF"/>
<path d="M16.753 8.79619L17.7674 7.59674C18.0342 7.2812 17.9948 6.80903 17.6793 6.54217L15.2813 4.51416C14.9658 4.2473 14.4936 4.28675 14.2268 4.60229L13.2134 5.80048C13.2134 5.80048 10.5555 8.65918 10.5694 8.61761C10.5833 8.57603 14.2569 11.8338 14.2569 11.8338L16.753 8.79619Z" fill="#ADE796"/>
<path d="M9.21998 23.333C14.312 23.333 18.44 19.2051 18.44 14.113C18.44 9.02095 14.312 4.89302 9.21998 4.89302C4.12793 4.89302 0 9.02095 0 14.113C0 19.2051 4.12793 23.333 9.21998 23.333Z" fill="#9FD988"/>
<path d="M4.70141 14.113C4.70141 9.83344 7.61788 6.23528 11.5712 5.19584C10.8207 4.99851 10.0324 4.89302 9.21993 4.89302C4.12791 4.89307 0 9.02098 0 14.113C0 19.205 4.12791 23.333 9.21998 23.333C10.0324 23.333 10.8207 23.2276 11.5713 23.0303C7.61793 21.9909 4.70141 18.3926 4.70141 14.113Z" fill="#ADE796"/>
<path d="M23.7538 2.47679L22.9447 2.13636C22.8227 2.08502 22.7338 1.97697 22.7069 1.84736L22.5286 0.987861C22.4609 0.661494 22.0484 0.554413 21.8306 0.806669L21.2568 1.47096C21.1702 1.57113 21.04 1.62232 20.9084 1.60782L20.0359 1.51176C19.7046 1.47526 19.4753 1.83455 19.6478 2.11968L20.1023 2.87065C20.1709 2.98387 20.1793 3.12358 20.1248 3.24425L19.7639 4.04438C19.6268 4.34822 19.8976 4.67729 20.2221 4.6013L21.0768 4.40111C21.2057 4.37094 21.3411 4.40609 21.4391 4.49514L22.0885 5.0857C22.3351 5.30992 22.7318 5.15411 22.7598 4.82194L22.8335 3.94726C22.8446 3.81538 22.9199 3.69737 23.0348 3.63177L23.7972 3.19663C24.0867 3.03149 24.061 2.60602 23.7538 2.47679Z" fill="#F2C94C"/>
</g>
<defs>
<clipPath id="clip0">
<rect width="24" height="24" fill="white"/>
</clipPath>
</defs>
</svg>
