<svg width="50" height="50" viewBox="0 0 50 50" fill="none" xmlns="http://www.w3.org/2000/svg">
<g clip-path="url(#clip0)">
<path d="M26.4648 30.7621V48.4938C26.4648 49.2823 25.8593 49.961 25.0718 49.9987C24.2306 50.0389 23.5352 49.3679 23.5352 48.5356V30.8038C23.5352 30.0153 24.1407 29.3366 24.9282 29.2989C25.7694 29.2588 26.4648 29.9297 26.4648 30.7621Z" fill="#CBF1BC"/>
<path d="M26.4648 30.7617V48.5352C26.4648 49.3438 25.8086 50 25 50V29.2969C25.8086 29.2969 26.4648 29.9531 26.4648 30.7617Z" fill="#92D776"/>
<path d="M32.3225 48.6069C32.2849 49.3945 31.6061 50 30.8176 50H19.1824C18.3939 50 17.7152 49.3944 17.6775 48.6069C17.6373 47.7657 18.3083 47.0703 19.1406 47.0703H30.8593C31.6919 47.0703 32.3628 47.7657 32.3225 48.6069Z" fill="#CBF1BC"/>
<path d="M32.3226 48.6069C32.285 49.3945 31.6061 50 30.8177 50H25V47.0703H30.8594C31.6919 47.0703 32.3628 47.7657 32.3226 48.6069Z" fill="#92D776"/>
<path d="M39.6486 16.04L38.1769 1.31934C38.1017 0.570312 37.4718 0 36.7189 0H32.9308C32.5425 0 32.1702 0.154199 31.8956 0.428809L28.6764 3.64795C28.2306 4.09375 28.1201 4.7749 28.402 5.33887L30.2812 9.09727C30.6116 9.75801 30.3982 10.5614 29.7836 10.9712L22.0705 16.1133L24.6726 10.909C24.8788 10.4966 24.8788 10.0112 24.6726 9.59883L22.5426 5.33887C22.2607 4.7749 22.3712 4.09385 22.8171 3.64795L23.964 2.50098C24.884 1.58105 24.2326 0 22.9289 0H13.2814C12.5285 0 11.8986 0.570312 11.8234 1.31934L10.3517 16.04C9.48454 24.7148 16.3117 32.2266 25.0002 32.2266C33.7179 32.2266 40.5129 24.6855 39.6486 16.04Z" fill="#CBF1BC"/>
<path d="M25 32.2266V14.1602L29.7834 10.9712C30.398 10.5614 30.6114 9.75801 30.2811 9.09727L28.4019 5.33887C28.1199 4.7749 28.2304 4.09385 28.6763 3.64795L31.8954 0.428809C32.17 0.154199 32.5424 0 32.9307 0H36.7187C37.4717 0 38.1016 0.570312 38.1768 1.31934L39.6484 16.04C40.5127 24.6855 33.7178 32.2266 25 32.2266Z" fill="#92D776"/>
</g>
<defs>
<clipPath id="clip0">
<rect width="50" height="50" fill="white"/>
</clipPath>
</defs>
</svg>
