<svg width="50" height="50" viewBox="0 0 50 50" fill="none" xmlns="http://www.w3.org/2000/svg">
<path d="M14.6429 9.92247L11.7234 6.99689C11.0462 6.31827 10.1453 5.94464 9.1866 5.94464C8.22791 5.94464 7.32703 6.31837 6.64988 6.99689L4.53357 9.11778C3.1405 10.5136 3.1405 12.7849 4.53357 14.1808L7.45925 17.1125C7.74539 17.3992 8.12068 17.5426 8.49617 17.5426C8.87049 17.5426 9.245 17.3999 9.53093 17.1147C10.1036 16.5432 14.069 12.5648 14.6409 11.9941C15.2135 11.4227 15.2144 10.4952 14.6429 9.92247Z" fill="#105C6E"/>
<path d="M25 0.292969C24.191 0.292969 23.5352 0.948828 23.5352 1.75781V6.44531C23.5352 7.2543 24.191 7.91016 25 7.91016C25.809 7.91016 26.4648 7.2543 26.4648 6.44531V1.75781C26.4648 0.948828 25.809 0.292969 25 0.292969Z" fill="#26879C"/>
<path d="M28.6133 0H21.3867C20.5777 0 19.9219 0.655859 19.9219 1.46484C19.9219 2.27383 20.5777 2.92969 21.3867 2.92969H28.6133C29.4223 2.92969 30.0781 2.27383 30.0781 1.46484C30.0781 0.655859 29.4223 0 28.6133 0Z" fill="#56BA2E"/>
<path d="M25 0H21.3867C20.5777 0 19.9219 0.655859 19.9219 1.46484C19.9219 2.27383 20.5777 2.92969 21.3867 2.92969H25V0Z" fill="#56BA2E"/>
<path d="M40.8832 11.5833C36.6408 7.33209 31 4.99078 24.9999 4.99078C18.9998 4.99078 13.359 7.33209 9.1166 11.5833C4.875 15.8337 2.53906 21.4847 2.53906 27.4953C2.53906 33.5058 4.875 39.1569 9.1166 43.4073C13.359 47.6585 18.9998 49.9998 24.9999 49.9998C31 49.9998 36.6408 47.6585 40.8832 43.4073C45.1248 39.1569 47.4607 33.5058 47.4607 27.4953C47.4607 21.4847 45.1248 15.8337 40.8832 11.5833Z" fill="#56BA2E"/>
<path d="M24.9999 4.99078C18.9998 4.99078 13.359 7.33209 9.1166 11.5833C4.875 15.8337 2.53906 21.4847 2.53906 27.4953C2.53906 33.5058 4.875 39.1569 9.1166 43.4073C13.359 47.6585 18.9998 49.9998 24.9999 49.9998V4.99078Z" fill="#56BA2E"/>
<path d="M24.9999 10.5994C15.7013 10.5994 8.13623 18.1789 8.13623 27.4954C8.13623 36.8119 15.7013 44.3915 24.9999 44.3915C34.2985 44.3915 41.8636 36.8119 41.8636 27.4954C41.8636 18.1789 34.2985 10.5994 24.9999 10.5994Z" fill="#96D1D9"/>
<path d="M24.9999 10.5994C15.7013 10.5994 8.13623 18.1789 8.13623 27.4954C8.13623 36.8119 15.7013 44.3915 24.9999 44.3915V10.5994Z" fill="#F4F2E6"/>
<path d="M25 14.2585C25.809 14.2585 26.4648 13.6027 26.4648 12.7937V10.664C25.9819 10.6222 25.4936 10.5995 25 10.5995C24.5064 10.5995 24.0181 10.6222 23.5352 10.664V12.7937C23.5352 13.6027 24.191 14.2585 25 14.2585Z" fill="#105C6E"/>
<path d="M25 40.7321C24.191 40.7321 23.5352 41.388 23.5352 42.197V44.3266C24.0181 44.3684 24.5064 44.3911 25 44.3911C25.4936 44.3911 25.9819 44.3684 26.4648 44.3266V42.197C26.4648 41.388 25.809 40.7321 25 40.7321Z" fill="#105C6E"/>
<path d="M41.7994 26.0308H39.7017C38.8927 26.0308 38.2368 26.6866 38.2368 27.4956C38.2368 28.3046 38.8927 28.9604 39.7017 28.9604H41.7994C41.841 28.4775 41.8635 27.9892 41.8635 27.4956C41.8635 27.0021 41.841 26.5137 41.7994 26.0308Z" fill="#105C6E"/>
<path d="M11.7629 27.4956C11.7629 26.6866 11.107 26.0308 10.298 26.0308H8.20029C8.15869 26.5137 8.13623 27.0021 8.13623 27.4956C8.13623 27.9892 8.15869 28.4775 8.20029 28.9604H10.298C11.107 28.9604 11.7629 28.3046 11.7629 27.4956Z" fill="#105C6E"/>
<path d="M28.613 26.65H26.5464V20.7255C26.5464 19.9165 25.8905 19.2606 25.0815 19.2606C24.2726 19.2606 23.6167 19.9165 23.6167 20.7255V28.1148C23.6167 28.9238 24.2726 29.5797 25.0815 29.5797H28.613C29.422 29.5797 30.0778 28.9238 30.0778 28.1148C30.0778 27.3058 29.422 26.65 28.613 26.65Z" fill="#105C6E"/>
</svg>
