<svg width="50" height="50" viewBox="0 0 50 50" fill="none" xmlns="http://www.w3.org/2000/svg">
<g clip-path="url(#clip0)">
<path d="M24.5763 50.0002C38.1494 50.0002 49.1525 38.997 49.1525 25.4239C49.1525 11.8508 38.1494 0.847656 24.5763 0.847656C11.0032 0.847656 0 11.8508 0 25.4239C0 38.997 11.0032 50.0002 24.5763 50.0002Z" fill="#285680"/>
<path d="M24.5763 0.847656C21.161 0.847656 17.9102 1.54511 14.9551 2.80359C14.8204 3.60783 14.1483 4.98155 14.1687 5.41969C14.2636 5.43833 20.417 -0.851496 19.6534 3.39427C19.161 6.12732 14.1305 6.11122 14.3466 8.86291C19.6314 10.9349 21.4746 4.92901 25.9636 4.95359C27.461 4.96206 31.2958 2.59427 32.0271 3.07647C34.9899 5.02816 31.35 11.9468 29.0831 9.64427C26.9034 7.46461 23.7932 10.4078 23.9331 13.807C25.0661 13.8578 25.55 10.59 26.5687 11.6799C27.6907 12.8807 27.2856 15.2985 25.7331 15.8536C24.1704 16.4121 18.0407 11.7095 19.5466 15.2739C21.2026 19.2299 14.5856 22.2866 21.2653 20.6917C24.4144 19.9366 23.3678 22.3332 24.8534 23.4765C26.6229 24.8349 25.8399 21.6002 27.1297 22.0926C29.0068 22.8188 26.8068 24.69 29.7466 23.3316C33.1949 21.7587 31.8992 24.2112 32.9551 25.8146C34.9348 28.8078 39.8 31.6807 42.35 27.7248C42.9509 26.7917 42.5653 19.4138 46.35 24.3629C48.7534 27.507 47.9288 20.6485 48.2543 18.8468C45.3788 8.46884 35.8704 0.847656 24.5763 0.847656Z" fill="#24AE5F"/>
<path d="M27.8975 36.5102L23.3653 33.1136L20.3271 33.2331L17.1754 32.2416L14.7085 30.5407L9.11273 31.8339L6.8051 32.95L4.2373 36.4094L5.14578 40.4636C5.4051 40.7983 5.67375 41.1263 5.95002 41.4475L10.7026 43.6661L13.9102 44.0992L15.8187 48.0161L15.8763 48.4102C18.5814 49.4348 21.5127 50 24.5763 50C26.6898 50 28.7407 49.7331 30.6983 49.2305L31.3432 45.3797L34.2746 43.0009L35.4924 39.2034L29.372 39.178L27.8975 36.5102Z" fill="#FAC176"/>
<path d="M0.317797 29.3622C0.434746 29.3521 0.45 29.3419 0.460169 29.3317C1.55932 28.2334 2.47458 28.0495 3.39068 26.4012C4.30678 24.7529 3.20763 24.7529 3.39068 22.0055C3.57373 19.258 3.20763 20.5402 3.39068 17.6097C3.45678 16.5555 3.34576 15.9758 2.06441 15.5614C0.739831 18.5817 0 21.9156 0 25.4241C0 26.7648 0.111017 28.0792 0.317797 29.3622Z" fill="#88C057"/>
<path d="M25.4237 45.7623C24.5059 45.692 21.1161 44.6327 20.339 43.22C19.5619 41.8072 17.867 39.4064 17.7966 39.8301C17.7483 40.1183 10.0754 37.5056 4.80425 35.6454L4.2373 36.4089L5.14578 40.4632C5.4051 40.7979 5.67375 41.1259 5.95002 41.4471L10.7026 43.6657L13.9102 44.0988L15.8187 48.0157L15.8763 48.4098C18.5814 49.4344 21.5127 49.9996 24.5763 49.9996C26.6898 49.9996 28.7407 49.7327 30.6983 49.2301L31.1873 46.3106C30.7559 46.1759 30.2585 45.9979 29.661 45.7623C27.3305 44.8445 26.3415 45.8327 25.4237 45.7623Z" fill="#FAC176"/>
<path d="M34.2745 43.0009L35.4923 39.2034L29.372 39.178L27.8966 36.5102L23.3644 33.1136L20.3262 33.2331L17.1745 32.2416L14.7076 30.5407L9.11183 31.8339L6.80505 32.95L4.8042 35.6449C10.0754 37.506 17.7483 40.1187 17.7966 39.8305C17.8669 39.4068 19.5618 41.8077 20.3389 43.2204C21.1161 44.6331 24.5059 45.6924 25.4237 45.7627C26.3415 45.8331 27.3305 44.8449 29.661 45.7627C30.2584 45.9983 30.7559 46.1763 31.1872 46.311L31.3432 45.3797L34.2745 43.0009Z" fill="#88C057"/>
<path d="M29.9068 1.43433C27.3263 2.99365 24.5983 5.85382 27.9661 10.1699C27.9661 10.1699 23.3576 15.7843 29.661 17.797C29.661 17.797 33.4746 28.3377 40.678 16.9496C40.678 16.9496 39.7246 25.2657 44.9153 23.7292C46.9331 23.1318 48.0161 21.7174 48.5932 20.2123C46.5746 10.864 39.239 3.49873 29.9068 1.43433Z" fill="#FAC176"/>
<path d="M43.7264 21.3762C43.6883 21.3762 43.6705 21.3719 43.6705 21.3719C43.2942 21.0135 43.0171 18.8702 43.2044 17.2389L38.5298 15.5906C36.612 18.6219 35.0891 19.6982 34.3679 19.6982C33.5171 19.6982 32.3908 17.8711 32.0518 16.9321L31.6264 15.755L30.4349 15.3753C29.5916 15.1058 29.0086 14.7363 28.9128 14.4109C28.7154 13.7414 29.4713 12.344 29.9323 11.7821L31.223 10.2101L29.9713 8.60498C29.4272 7.90752 28.8111 6.89735 28.9688 6.04481C29.0789 5.44651 29.5764 4.79735 30.3933 4.17108C37.9993 6.24651 43.9611 12.294 45.9188 19.9406C45.5162 20.6355 44.9654 21.0609 44.1942 21.2897C43.9442 21.3643 43.7942 21.3762 43.7264 21.3762C43.7272 21.3762 43.7272 21.3762 43.7264 21.3762Z" fill="#F18D46"/>
<path d="M44.0677 17.7967C44.5357 17.7967 44.9151 17.4173 44.9151 16.9493C44.9151 16.4812 44.5357 16.1018 44.0677 16.1018C43.5996 16.1018 43.2202 16.4812 43.2202 16.9493C43.2202 17.4173 43.5996 17.7967 44.0677 17.7967Z" fill="#E64C3C"/>
<path d="M33.0508 6.77957C33.5189 6.77957 33.8983 6.40015 33.8983 5.93211C33.8983 5.46408 33.5189 5.08466 33.0508 5.08466C32.5828 5.08466 32.2034 5.46408 32.2034 5.93211C32.2034 6.40015 32.5828 6.77957 33.0508 6.77957Z" fill="#E64C3C"/>
<path d="M32.2034 11.0172C32.6715 11.0172 33.0509 10.6378 33.0509 10.1698C33.0509 9.70175 32.6715 9.32233 32.2034 9.32233C31.7354 9.32233 31.356 9.70175 31.356 10.1698C31.356 10.6378 31.7354 11.0172 32.2034 11.0172Z" fill="#E64C3C"/>
<path d="M33.0508 15.2543C33.5189 15.2543 33.8983 14.8749 33.8983 14.4068C33.8983 13.9388 33.5189 13.5594 33.0508 13.5594C32.5828 13.5594 32.2034 13.9388 32.2034 14.4068C32.2034 14.8749 32.5828 15.2543 33.0508 15.2543Z" fill="#E64C3C"/>
<path d="M37.2881 18.6443C37.7562 18.6443 38.1356 18.2649 38.1356 17.7969C38.1356 17.3288 37.7562 16.9494 37.2881 16.9494C36.8201 16.9494 36.4407 17.3288 36.4407 17.7969C36.4407 18.2649 36.8201 18.6443 37.2881 18.6443Z" fill="#E64C3C"/>
<path d="M35.5747 13.6902C37.4649 16.0741 40.1864 17.0637 41.6534 15.9005C43.1204 14.7374 42.7774 11.8619 40.8873 9.478C38.9971 7.0941 36.2756 6.10449 34.8086 7.26766C33.3416 8.43083 33.6846 11.3063 35.5747 13.6902Z" fill="#E64C3C"/>
<path d="M40.2543 14.4067C42.8285 14.4067 44.9153 12.3199 44.9153 9.74567C44.9153 7.17146 42.8285 5.08466 40.2543 5.08466C37.6801 5.08466 35.5933 7.17146 35.5933 9.74567C35.5933 12.3199 37.6801 14.4067 40.2543 14.4067Z" fill="#F0C419"/>
<path d="M49.1526 7.62723C49.6207 7.62723 50.0001 7.24781 50.0001 6.77977C50.0001 6.31173 49.6207 5.93231 49.1526 5.93231C48.6846 5.93231 48.3052 6.31173 48.3052 6.77977C48.3052 7.24781 48.6846 7.62723 49.1526 7.62723Z" fill="#F0C419"/>
<path d="M47.4576 9.32199C47.9256 9.32199 48.305 8.94257 48.305 8.47453C48.305 8.00649 47.9256 7.62708 47.4576 7.62708C46.9895 7.62708 46.6101 8.00649 46.6101 8.47453C46.6101 8.94257 46.9895 9.32199 47.4576 9.32199Z" fill="#F0C419"/>
<path d="M49.1526 1.69492C49.6207 1.69492 50.0001 1.3155 50.0001 0.847458C50.0001 0.37942 49.6207 0 49.1526 0C48.6846 0 48.3052 0.37942 48.3052 0.847458C48.3052 1.3155 48.6846 1.69492 49.1526 1.69492Z" fill="#F0C419"/>
<path d="M47.4576 3.38968C47.9256 3.38968 48.305 3.01026 48.305 2.54222C48.305 2.07418 47.9256 1.69476 47.4576 1.69476C46.9895 1.69476 46.6101 2.07418 46.6101 2.54222C46.6101 3.01026 46.9895 3.38968 47.4576 3.38968Z" fill="#F0C419"/>
<path d="M45.7627 5.08469C46.2308 5.08469 46.6102 4.70527 46.6102 4.23723C46.6102 3.76919 46.2308 3.38977 45.7627 3.38977C45.2947 3.38977 44.9153 3.76919 44.9153 4.23723C44.9153 4.70527 45.2947 5.08469 45.7627 5.08469Z" fill="#F0C419"/>
<path d="M44.0677 6.77957C44.5357 6.77957 44.9151 6.40015 44.9151 5.93211C44.9151 5.46408 44.5357 5.08466 44.0677 5.08466C43.5996 5.08466 43.2202 5.46408 43.2202 5.93211C43.2202 6.40015 43.5996 6.77957 44.0677 6.77957Z" fill="#F0C419"/>
<path d="M43.2203 1.69492C43.6883 1.69492 44.0677 1.3155 44.0677 0.847458C44.0677 0.37942 43.6883 0 43.2203 0C42.7522 0 42.3728 0.37942 42.3728 0.847458C42.3728 1.3155 42.7522 1.69492 43.2203 1.69492Z" fill="#F0C419"/>
<path d="M41.5254 3.38968C41.9935 3.38968 42.3729 3.01026 42.3729 2.54222C42.3729 2.07418 41.9935 1.69476 41.5254 1.69476C41.0574 1.69476 40.678 2.07418 40.678 2.54222C40.678 3.01026 41.0574 3.38968 41.5254 3.38968Z" fill="#F0C419"/>
</g>
<defs>
<clipPath id="clip0">
<rect width="50" height="50" fill="white"/>
</clipPath>
</defs>
</svg>
