<svg width="110" height="110" viewBox="0 0 110 110" fill="none" xmlns="http://www.w3.org/2000/svg">
<g clip-path="url(#clip0)">
<path d="M46.7756 33.7505C56.0955 33.7505 63.6508 26.1952 63.6508 16.8752C63.6508 7.5553 56.0955 0 46.7756 0C37.4557 0 29.9004 7.5553 29.9004 16.8752C29.9004 26.1952 37.4557 33.7505 46.7756 33.7505Z" fill="#79C930"/>
<path d="M87.8122 38.9072C84.0258 38.9072 80.9563 41.9767 80.9563 45.7631V40.2353C80.9563 36.4489 77.8868 33.3794 74.1004 33.3794C70.314 33.3794 67.2445 36.4489 67.2445 40.2353V37.4663C67.2445 33.6799 64.175 30.6104 60.3886 30.6104C56.6022 30.6104 53.5327 33.6799 53.5327 37.4663V14.3106C53.5327 10.5242 50.4632 7.45471 46.6768 7.45471C42.8904 7.45471 39.8209 10.5242 39.8209 14.3106V63.4301C39.8209 64.3356 38.7089 64.7691 38.0959 64.1026L27.1205 52.1666C24.5589 49.381 20.2735 49.291 17.5975 51.9672C14.9995 54.5652 14.5709 59.1725 16.645 62.2051L34.1809 87.8449C37.1241 92.1483 41.5983 95.1667 46.6906 96.2845C47.1036 96.2845 47.4386 96.6194 47.4386 97.0325V108.601C47.4386 109.375 48.0655 110.002 48.8391 110.002H88.878C89.6515 110.002 90.2785 109.375 90.2785 108.601V98.4734C90.2785 97.7141 90.4209 96.9616 90.698 96.255L91.229 94.9011C93.4177 89.3213 94.5773 83.394 94.6599 77.4044L94.6679 70.306V45.7629C94.6681 41.9767 91.5986 38.9072 87.8122 38.9072Z" fill="#FFEFE7"/>
<path d="M87.8122 38.9072C84.0258 38.9072 80.9563 41.9767 80.9563 45.7631V40.2353C80.9563 36.4489 77.8868 33.3794 74.1004 33.3794C70.314 33.3794 67.2445 36.4489 67.2445 40.2353V37.4663C67.2445 33.6799 64.175 30.6104 60.3886 30.6104C56.6022 30.6104 53.5327 33.6799 53.5327 37.4663V14.3106C53.5327 10.5242 50.4632 7.45471 46.6768 7.45471C42.8904 7.45471 39.8209 10.5242 39.8209 14.3106V63.4301C39.8209 64.3356 38.7089 64.7691 38.0959 64.1026L27.1205 52.1666C24.5589 49.381 20.2735 49.291 17.5975 51.9672C14.9995 54.5652 14.5709 59.1725 16.645 62.2051L34.1809 87.8449C37.1241 92.1483 41.5983 95.1667 46.6906 96.2845C47.1036 96.2845 47.4386 96.6194 47.4386 97.0325V108.601C47.4386 109.375 48.0655 110.002 48.8391 110.002H88.878C89.6515 110.002 90.2785 109.375 90.2785 108.601V98.4734C90.2785 97.7141 90.4209 96.9616 90.698 96.255L91.229 94.9011C93.4177 89.3213 94.5773 83.394 94.6599 77.4044L94.6679 70.306V45.7629C94.6681 41.9767 91.5986 38.9072 87.8122 38.9072Z" fill="#FFEFE7"/>
<path d="M39.8218 63.3696C42.5399 63.3696 44.7435 61.1661 44.7435 58.4479V13.9843C44.7435 11.9199 45.5097 10.0542 46.7512 8.70142C47.1405 8.2779 47.5765 7.90501 48.05 7.59231C47.6067 7.50214 47.1479 7.45483 46.6777 7.45483C44.7855 7.45483 43.071 8.22326 41.8295 9.46252C40.588 10.704 39.8218 12.4163 39.8218 14.3107V63.3696Z" fill="#FFE0D1"/>
<path d="M86.4162 46.3468C86.4162 43.2802 88.4318 40.6804 91.2113 39.8056C90.2088 39.2319 89.0488 38.905 87.812 38.905C84.0253 38.905 80.9561 41.9743 80.9561 45.7587V49.7161C80.9561 49.866 81.0775 49.9873 81.2272 49.9873H82.7754C84.7862 49.9875 86.4162 48.3574 86.4162 46.3468Z" fill="#FFE0D1"/>
<path d="M76.6712 33.8746C75.9086 33.5647 75.0869 33.3915 74.2169 33.3771C70.383 33.3129 67.1643 36.411 67.2451 40.3744V50.9588C70.0934 50.9588 72.4025 48.6497 72.4025 45.8014V40.2319C72.4023 37.3576 74.163 34.8935 76.6712 33.8746Z" fill="#FFE0D1"/>
<path d="M62.7424 31.024C61.9713 30.7415 61.1407 30.5947 60.269 30.6096C56.505 30.6744 53.5337 33.751 53.5337 37.6136V50.6054C56.139 50.6054 58.2511 48.4933 58.2511 45.888V37.4643C58.2508 34.507 60.1182 31.9858 62.7424 31.024Z" fill="#FFE0D1"/>
<path d="M22.447 29.7903C21.8241 29.7903 21.2267 29.4392 20.9415 28.8394C19.113 24.9923 18.186 20.8683 18.186 16.5818C18.186 12.2952 19.113 8.17105 20.9415 4.32424C21.3364 3.4934 22.3298 3.13983 23.1611 3.53493C23.9919 3.92981 24.3452 4.92343 23.9504 5.75449C22.3358 9.15113 21.5174 12.7941 21.5174 16.582C21.5174 20.37 22.336 24.0129 23.9504 27.4095C24.3452 28.2404 23.9919 29.234 23.1611 29.6291C22.9301 29.7381 22.6867 29.7903 22.447 29.7903Z" fill="#79C930"/>
<path d="M71.1049 29.7907C70.8653 29.7907 70.6219 29.7387 70.3911 29.629C69.5603 29.2341 69.2067 28.2405 69.6016 27.4097C71.216 24.0128 72.0346 20.3699 72.0346 16.5822C72.0346 12.7944 71.216 9.15151 69.6016 5.75466C69.2067 4.92382 69.5601 3.93019 70.3911 3.53532C71.222 3.14044 72.2156 3.49379 72.6105 4.32485C74.4389 8.1721 75.3659 12.2961 75.3659 16.5824C75.3659 20.8687 74.4389 24.9927 72.6105 28.8399C72.3253 29.4396 71.7279 29.7907 71.1049 29.7907Z" fill="#79C930"/>
<path d="M51.9057 96.1322C51.9057 94.0126 50.7068 92.0716 48.8055 91.1348C45.5197 89.5162 40.548 86.7405 38.6469 83.962L20.7132 57.7421C19.8626 56.4962 19.4495 55.0726 19.4495 53.6601C19.4495 52.6101 19.6776 51.3364 20.122 50.377C19.2043 50.6952 18.3391 51.2236 17.5975 51.9649C14.9995 54.5629 14.5709 59.1701 16.645 62.2028L34.1809 87.8425C37.1241 92.146 41.5983 95.1644 46.6906 96.2822C47.1036 96.2822 47.4386 96.6171 47.4386 97.0302V108.599C47.4386 109.372 48.0655 109.999 48.8391 109.999H51.9057V96.1322Z" fill="#FFE0D1"/>
</g>
<defs>
<clipPath id="clip0">
<rect width="110" height="110" fill="white"/>
</clipPath>
</defs>
</svg>
