<svg width="50" height="50" viewBox="0 0 50 50" fill="none" xmlns="http://www.w3.org/2000/svg">
<g clip-path="url(#clip0)">
<path d="M32.8125 41.6667H10.9375C8.35208 41.6667 6.25 39.5625 6.25 36.9792V23.9583H2.60417C1.16875 23.9583 0 22.7896 0 21.3542C0 20.6292 0.308333 19.9333 0.845833 19.4458L20.7958 0.431252C21.4 -0.141665 22.35 -0.141665 22.9521 0.431252L28.125 5.35417V3.64583C28.125 2.78333 28.825 2.08333 29.6875 2.08333H35.9375C36.8 2.08333 37.5 2.78333 37.5 3.64583V14.2875L42.9312 19.4708C43.4417 19.9333 43.75 20.6292 43.75 21.3542C43.75 22.7896 42.5812 23.9583 41.1458 23.9583H37.5V36.9792C37.5 39.5625 35.3979 41.6667 32.8125 41.6667Z" fill="#B1E4F9"/>
<path d="M35.5269 49.6917C34.2352 48.7313 22.9165 40.1042 22.9165 32.7875C22.9165 28.4937 26.4228 25 30.729 25C32.9457 25 35.0082 25.9271 36.4582 27.4854C37.9082 25.9271 39.9727 25 42.1873 25C46.4936 25 49.9998 28.4937 49.9998 32.7875C49.9998 40.1042 38.6811 48.7292 37.3894 49.6896C36.8373 50.1042 36.079 50.1042 35.5269 49.6917Z" fill="#F44336"/>
<path d="M21.875 0C21.4875 0 21.0979 0.14375 20.7958 0.43125L0.845833 19.4458C0.308333 19.9333 0 20.6292 0 21.3542C0 22.7896 1.16875 23.9583 2.60417 23.9583H6.25V36.9792C6.25 39.5625 8.35208 41.6667 10.9375 41.6667H25.9188V40.2375C24.1854 37.8313 22.9167 35.2375 22.9167 32.7875C22.9167 30.3 24.0938 28.0813 25.9188 26.6542V3.25625L22.9521 0.43125C22.6521 0.14375 22.2625 0 21.875 0" fill="#90D8F9"/>
<path d="M30.729 25C26.4228 25 22.9165 28.4937 22.9165 32.7875C22.9165 40.1042 34.2352 48.7312 35.5269 49.6917C35.804 49.8979 36.1311 50 36.4582 50V27.4875C35.0082 25.9292 32.9436 25 30.729 25Z" fill="#D43A2F"/>
</g>
<defs>
<clipPath id="clip0">
<rect width="50" height="50" fill="white"/>
</clipPath>
</defs>
</svg>
