<svg width="207" height="158" viewBox="0 0 207 158" fill="none" xmlns="http://www.w3.org/2000/svg">
<g clip-path="url(#clip0)">
<path d="M0 138.946H207.103V138.839H0V138.946Z" fill="#E1E2DF"/>
<path d="M142.182 143.44H156.432V143.333H142.182V143.44Z" fill="#E1E2DF"/>
<path d="M37.9746 143.493H45.9931V143.386H37.9746V143.493Z" fill="#E1E2DF"/>
<path d="M87.7129 143.243H103.966V143.137H87.7129V143.243Z" fill="#E1E2DF"/>
<path d="M80.0332 141.735H87.2988V141.628H80.0332V141.735Z" fill="#E1E2DF"/>
<path d="M153.907 141.788H175.854V141.682H153.907V141.788Z" fill="#E1E2DF"/>
<path d="M18.1896 0.027771C16.9428 0.027771 15.9287 1.06635 15.9287 2.3429V117.497C15.9287 118.774 16.9428 119.813 18.1896 119.813H98.1724C99.4184 119.813 100.433 118.774 100.433 117.497V2.3429C100.433 1.06635 99.4184 0.027771 98.1724 0.027771H18.1896ZM98.1724 119.919H18.1896C16.8858 119.919 15.8252 118.833 15.8252 117.497V2.3429C15.8252 1.00822 16.8858 -0.0782928 18.1896 -0.0782928H98.1724C99.4755 -0.0782928 100.536 1.00822 100.536 2.3429V117.497C100.536 118.833 99.4755 119.919 98.1724 119.919Z" fill="#E1E2DF"/>
<path d="M107.782 0.027771C106.536 0.027771 105.522 1.06635 105.522 2.3429V117.497C105.522 118.774 106.536 119.813 107.782 119.813H187.765C189.011 119.813 190.026 118.774 190.026 117.497V2.3429C190.026 1.06635 189.011 0.027771 187.765 0.027771H107.782ZM187.765 119.919H107.782C106.478 119.919 105.418 118.833 105.418 117.497V2.3429C105.418 1.00822 106.478 -0.0782928 107.782 -0.0782928H187.765C189.068 -0.0782928 190.129 1.00822 190.129 2.3429V117.497C190.129 118.833 189.068 119.919 187.765 119.919Z" fill="#E1E2DF"/>
<path d="M118.774 75.215H175.223V7.84609H118.774V75.215Z" fill="#DADAD8"/>
<path d="M119.49 75.215H176.756V7.84609H119.49V75.215Z" fill="#F2F3F1"/>
<path d="M118.774 78.9894H175.223V75.2146H118.774V78.9894Z" fill="#DADAD8"/>
<path d="M129.862 78.9894H183.771V75.2146H129.862V78.9894Z" fill="#F2F3F1"/>
<path d="M121.639 72.3573H174.609V10.7035H121.639V72.3573Z" fill="#F9F9F9"/>
<path d="M129.26 72.3573L141.867 10.7035H158.392L145.785 72.3573H129.26Z" fill="white"/>
<path d="M148.46 72.3573L161.066 10.7035H168.53L155.923 72.3573H148.46Z" fill="white"/>
<path d="M117.162 7.74884V31.7341H123.358C123.358 31.7341 134.491 24.2966 137.021 8.99656C137.278 7.44297 136.116 6.02173 134.577 6.02173H118.848C117.917 6.02173 117.162 6.79514 117.162 7.74884Z" fill="#DADAD8"/>
<path d="M117.162 70.1854V33.6708H123.358C123.358 33.6708 126.921 41.0413 130.473 49.5195C134.571 59.2996 127.553 70.1854 117.162 70.1854Z" fill="#DADAD8"/>
<path d="M123.176 33.6709H117.39C117.047 33.6709 116.77 33.3862 116.77 33.0349V32.3701C116.77 32.0187 117.047 31.7341 117.39 31.7341H123.176C123.519 31.7341 123.797 32.0187 123.797 32.3701V33.0349C123.797 33.3862 123.519 33.6709 123.176 33.6709Z" fill="#F2F3F1"/>
<path d="M178.511 7.74884V31.7341H172.315C172.315 31.7341 161.182 24.2966 158.652 8.99656C158.395 7.44297 159.557 6.02173 161.095 6.02173H176.824C177.756 6.02173 178.511 6.79514 178.511 7.74884Z" fill="#DADAD8"/>
<path d="M178.565 70.1914V33.6772H172.369C172.369 33.6772 168.807 41.0477 165.254 49.5254C161.156 59.306 168.174 70.1914 178.565 70.1914Z" fill="#DADAD8"/>
<path d="M172.496 33.6709H178.283C178.625 33.6709 178.903 33.3862 178.903 33.0349V32.3701C178.903 32.0187 178.625 31.7341 178.283 31.7341H172.496C172.154 31.7341 171.876 32.0187 171.876 32.3701V33.0349C171.876 33.3862 172.154 33.6709 172.496 33.6709Z" fill="#F2F3F1"/>
<path d="M58.3457 65.4066H83.2106V37.528H58.3457V65.4066Z" fill="#DADAD8"/>
<path d="M59.6895 65.4066H86.7042V37.528H59.6895V65.4066Z" fill="#F9F9F9"/>
<path d="M62.4766 62.553H83.9189V40.3817H62.4766V62.553Z" fill="white"/>
<path d="M67.5098 51.4675C67.5098 48.5758 69.7983 46.2314 72.6215 46.2314H73.7738C76.5971 46.2314 78.8856 48.5758 78.8856 51.4675C78.8856 54.3592 76.5971 56.7031 73.7738 56.7031H72.6215C69.7983 56.7031 67.5098 54.3592 67.5098 51.4675Z" fill="#F2F3F1"/>
<path d="M38.2082 44.1782C31.0063 44.1782 25.168 38.1984 25.168 30.822C25.168 23.4456 31.0063 17.4659 38.2082 17.4659H40.5626V44.1782H38.2082Z" fill="#DADAD8"/>
<path d="M53.6028 30.822C53.6028 38.1984 47.7646 44.1782 40.5625 44.1782C33.3607 44.1782 27.5225 38.1984 27.5225 30.822C27.5225 23.4456 33.3607 17.4659 40.5625 17.4659C47.7646 17.4659 53.6028 23.4456 53.6028 30.822Z" fill="#F9F9F9"/>
<path d="M50.3946 30.8221C50.3946 36.3836 45.9924 40.8925 40.5624 40.8925C35.1324 40.8925 30.7305 36.3836 30.7305 30.8221C30.7305 25.2606 35.1324 20.7517 40.5624 20.7517C45.9924 20.7517 50.3946 25.2606 50.3946 30.8221Z" fill="white"/>
<path d="M44.6137 34.5894L39.7861 31.1398L41.316 23.5101L42.6843 23.7982L41.3399 30.5051L45.4131 33.4155L44.6137 34.5894Z" fill="#DADAD8"/>
<path d="M128.169 140.343H145.942V91.1562H128.169V140.343Z" fill="#DADAD8"/>
<path d="M141.197 140.343H145.943V132.196H136.221L141.197 140.343Z" fill="#F9F9F9"/>
<path d="M21.6123 140.343H39.3857V91.1562H21.6123V140.343Z" fill="#DADAD8"/>
<path d="M35.2432 137.538H145.943V91.1563H35.2432V137.538Z" fill="#F9F9F9"/>
<path d="M39.9894 140.343H35.2432V132.196H44.9657L39.9894 140.343Z" fill="#F9F9F9"/>
<path d="M38.9258 112.218H142.261V95.1452H38.9258V112.218Z" fill="#ECEDEB"/>
<path d="M38.9258 133.415H142.261V116.342H38.9258V133.415Z" fill="#ECEDEB"/>
<path d="M38.9258 112.218H127.109V95.1452H38.9258V112.218Z" fill="#DADAD8"/>
<path d="M66.0836 97.4481H60.7184C60.7184 97.4481 61.6499 100.742 61.6499 102.681C61.6499 104.62 57.5692 112.218 63.4008 112.218C69.2328 112.218 65.152 104.62 65.152 102.681C65.152 100.742 66.0836 97.4481 66.0836 97.4481Z" fill="#F9F9F9"/>
<path d="M44.9658 103.175V106.176C44.9658 109.499 48.1039 112.218 51.9394 112.218H55.4014C59.2373 112.218 62.3754 109.499 62.3754 106.176V103.175H44.9658Z" fill="#ECEDEB"/>
<path d="M38.9258 133.415H127.109V116.342H38.9258V133.415Z" fill="#DADAD8"/>
<path d="M88.4512 133.107H96.7112V119.016H88.4512V133.107Z" fill="white"/>
<path d="M95.4268 133.327H95.9879V119.236H95.4268V133.327Z" fill="#E1E2DF"/>
<path d="M96.0307 133.435H97.4717C97.5819 133.435 97.6714 133.343 97.6714 133.23V119.333C97.6714 119.22 97.5819 119.129 97.4717 119.129H96.0307C95.9205 119.129 95.8311 119.22 95.8311 119.333V133.23C95.8311 133.343 95.9205 133.435 96.0307 133.435Z" fill="#E7E7E5"/>
<path d="M95.8311 125.738H97.6713V122.395H95.8311V125.738Z" fill="white"/>
<path d="M95.8311 128.829H97.6713V126.768H95.8311V128.829Z" fill="white"/>
<path d="M88.0346 133.435H95.475C95.5852 133.435 95.6747 133.343 95.6747 133.23V119.333C95.6747 119.22 95.5852 119.129 95.475 119.129H88.0346C87.9244 119.129 87.835 119.22 87.835 119.333V133.23C87.835 133.343 87.9244 133.435 88.0346 133.435Z" fill="#E7E7E5"/>
<path d="M84.4268 133.073H93.539V117.529H84.4268V133.073Z" fill="white"/>
<path d="M92.1211 133.316H92.7403V117.772H92.1211V133.316Z" fill="#E1E2DF"/>
<path d="M92.7887 133.435H94.378C94.4998 133.435 94.5984 133.333 94.5984 133.209V117.879C94.5984 117.755 94.4998 117.653 94.378 117.653H92.7887C92.6669 117.653 92.5684 117.755 92.5684 117.879V133.209C92.5684 133.333 92.6669 133.435 92.7887 133.435Z" fill="#ECEDEB"/>
<path d="M92.5684 123.218H94.5985V122.68H92.5684V123.218Z" fill="white"/>
<path d="M92.5684 124.776H94.5985V124.239H92.5684V124.776Z" fill="white"/>
<path d="M92.5684 126.334H94.5985V125.797H92.5684V126.334Z" fill="white"/>
<path d="M83.967 133.435H92.1749C92.2967 133.435 92.3953 133.333 92.3953 133.209V117.879C92.3953 117.755 92.2967 117.653 92.1749 117.653H83.967C83.8452 117.653 83.7471 117.755 83.7471 117.879V133.209C83.7471 133.333 83.8452 133.435 83.967 133.435Z" fill="#ECEDEB"/>
<path d="M73.1982 128.02C73.1982 129.34 72.1532 130.411 70.8642 130.411C69.5748 130.411 68.5293 129.34 68.5293 128.02C68.5293 126.7 69.5748 125.629 70.8642 125.629C72.1532 125.629 73.1982 126.7 73.1982 128.02Z" fill="#F9F9F9"/>
<path d="M69.2174 129.159C69.2174 130.191 68.4001 131.029 67.3924 131.029C66.3846 131.029 65.5674 130.191 65.5674 129.159C65.5674 128.127 66.3846 127.29 67.3924 127.29C68.4001 127.29 69.2174 128.127 69.2174 129.159Z" fill="#F9F9F9"/>
<path d="M77.1933 129.158C77.1933 130.48 76.1483 131.55 74.8589 131.55C73.5699 131.55 72.5244 130.48 72.5244 129.158C72.5244 127.838 73.5699 126.768 74.8589 126.768C76.1483 126.768 77.1933 127.838 77.1933 129.158Z" fill="#F9F9F9"/>
<path d="M81.0225 128.457C81.0225 129.778 79.9774 130.848 78.688 130.848C77.3986 130.848 76.3535 129.778 76.3535 128.457C76.3535 127.136 77.3986 126.065 78.688 126.065C79.9774 126.065 81.0225 127.136 81.0225 128.457Z" fill="#F9F9F9"/>
<path d="M60.9629 128.769C60.9629 128.769 61.2835 133.435 73.5713 133.435C85.8592 133.435 86.1798 128.769 86.1798 128.769H60.9629Z" fill="#F2F3F1"/>
<path d="M95.4268 107.553C95.4268 107.553 95.935 112.218 115.409 112.218C134.884 112.218 135.392 107.553 135.392 107.553H95.4268Z" fill="white"/>
<path d="M183.862 153.196C183.862 155.85 147.906 158 103.552 158C59.1981 158 23.2422 155.85 23.2422 153.196C23.2422 150.543 59.1981 148.392 103.552 148.392C147.906 148.392 183.862 150.543 183.862 153.196Z" fill="#F2F3F1"/>
<path d="M66.8551 68.1844C69.6406 80.5499 62.112 92.8875 50.0391 95.7405C37.9659 98.5936 25.9205 90.8821 23.135 78.5165C20.3493 66.1505 27.8783 53.8134 39.9513 50.9603C52.0244 48.1073 64.0695 55.8188 66.8551 68.1844Z" fill="#629E2B"/>
<path d="M43.8054 92.6127C35.7033 92.0921 28.5572 86.2048 26.6388 77.6889C24.2996 67.3046 30.6221 56.9445 40.7602 54.5487C42.1846 54.2123 43.6103 54.0507 45.0124 54.0507C52.4445 54.0507 59.2582 58.5842 62.2529 65.6021C59.1671 59.4793 52.9503 55.5864 46.202 55.5864C44.8562 55.5864 43.4877 55.7413 42.1204 56.0646C33.7571 58.0411 28.099 65.6632 28.0982 74.0943C28.098 75.4739 28.2495 76.8752 28.5652 78.2769C30.3082 86.0148 36.5474 91.4914 43.8054 92.4786V92.6127Z" fill="#6FB430"/>
<path d="M63.8065 69.9483C66.0519 79.916 59.983 89.8608 50.2512 92.1606C40.5196 94.4601 30.8101 88.2444 28.5647 78.2767C26.3191 68.309 32.3881 58.3642 42.1199 56.0644C51.8517 53.7645 61.5611 59.9806 63.8065 69.9483Z" fill="#3D6CBE"/>
<path d="M43.8048 92.4783C36.5469 91.491 30.3077 86.0144 28.5646 78.2766C28.249 76.8749 28.0975 75.4736 28.0977 74.0939C28.0985 65.6628 33.7566 58.0408 42.1198 56.0642C43.4871 55.7409 44.8557 55.5861 46.2014 55.5861C54.4342 55.5861 61.8767 61.3809 63.8065 69.9482C64.1221 71.3499 64.2737 72.7512 64.2733 74.1308C64.2733 74.4952 64.2629 74.858 64.2418 75.219H53.2628L52.4431 71.5807C52.3512 71.173 52.1217 70.8544 51.7555 70.6248C51.4983 70.4636 51.2299 70.383 50.9507 70.383C50.8327 70.383 50.713 70.3974 50.5912 70.4263L40.1896 72.8844L39.7029 70.725L50.1401 68.2584C50.5498 68.1612 50.8696 67.9249 51.0994 67.5482C51.2618 67.2818 51.3434 67.0047 51.3438 66.7167C51.3442 66.5975 51.3302 66.4765 51.3024 66.3531C51.2109 65.9454 50.9814 65.6272 50.6152 65.3977C50.3576 65.2365 50.0892 65.1559 49.8104 65.1559C49.6924 65.1559 49.5727 65.1703 49.4509 65.1991L44.9174 66.2704L44.0865 62.5807C43.9921 62.1611 43.768 61.8378 43.4147 61.6121C43.1653 61.4522 42.9048 61.3724 42.633 61.3724C42.5196 61.3724 42.4048 61.3864 42.2876 61.414C41.8191 61.5247 41.4807 61.7627 41.2732 62.1271C41.1296 62.3796 41.0578 62.6422 41.0573 62.9154C41.0572 63.0372 41.0714 63.1606 41.0997 63.2866L41.9306 66.9763L37.5029 68.0225C37.0927 68.1196 36.7776 68.3483 36.5567 68.7106C36.4022 68.9635 36.325 69.2308 36.3248 69.512C36.3248 69.6329 36.3391 69.7564 36.3674 69.8828L37.5432 75.1019C37.6404 75.5338 37.8647 75.8601 38.2168 76.0798C38.4611 76.2325 38.7193 76.3089 38.9918 76.3089C39.1117 76.3089 39.2344 76.2941 39.3597 76.2648L49.7611 73.8063L50.0793 75.219H50.0391C48.3375 75.219 46.7896 75.9267 45.6617 77.0687L39.815 78.4505C39.4049 78.5477 39.0897 78.7768 38.8688 79.1386C38.7147 79.3915 38.6373 79.6588 38.6372 79.94C38.637 80.0614 38.6512 80.1848 38.6795 80.3113C38.7742 80.7313 39.001 81.0533 39.3599 81.2781C39.6131 81.4364 39.8759 81.5157 40.1485 81.5157C40.2626 81.5157 40.3786 81.5017 40.4962 81.4741L43.8711 80.6761C43.8272 80.9795 43.8048 81.2896 43.8048 81.6048V92.4783Z" fill="#79C930"/>
<path d="M52.4434 71.5809L53.6231 76.8178C53.715 77.226 53.645 77.6154 53.4139 77.9854C53.1828 78.3562 52.8622 78.5899 52.4525 78.6866L47.9542 79.7498L48.7851 83.4386C48.88 83.8587 48.8137 84.2507 48.5875 84.6138C48.3606 84.977 48.0483 85.2052 47.6498 85.2994C47.2285 85.3991 46.8379 85.3372 46.4788 85.1115C46.1197 84.8875 45.8931 84.5646 45.7983 84.1446L44.9591 80.4193L40.4965 81.4744C40.0983 81.5681 39.7194 81.5032 39.3602 81.2784C39.0013 81.0535 38.7744 80.7315 38.6798 80.3115C38.5853 79.8915 38.6484 79.5008 38.8691 79.1389C39.0899 78.777 39.4052 78.5479 39.8153 78.4508L50.2518 75.9846L49.7614 73.8065L39.36 76.265C38.9497 76.3618 38.569 76.3003 38.217 76.0801C37.865 75.8603 37.6407 75.5341 37.5435 75.1022L36.3677 69.8831C36.2733 69.4631 36.336 69.0728 36.557 68.7109C36.7778 68.3486 37.093 68.1199 37.5032 68.0227L41.9308 66.9765L41.1 63.2869C41.0081 62.8792 41.0659 62.4927 41.2734 62.1274C41.481 61.763 41.8194 61.525 42.2879 61.4142C42.6859 61.3201 43.0616 61.3858 43.4149 61.6124C43.7682 61.8381 43.9923 62.1613 44.0868 62.5809L44.9177 66.2706L49.4512 65.1994C49.8608 65.1022 50.2489 65.1684 50.6155 65.3979C50.9817 65.6274 51.2111 65.9456 51.3027 66.3533C51.3975 66.7738 51.3296 67.1717 51.0997 67.5484C50.8698 67.9252 50.5501 68.1615 50.1404 68.2586L39.7032 70.7252L40.1899 72.8846L50.5915 70.4265C51.0015 70.3294 51.3897 70.396 51.7558 70.6251C52.122 70.8546 52.3514 71.1732 52.4434 71.5809Z" fill="#3D6CBE"/>
<path d="M40.1489 81.516C39.8762 81.516 39.6135 81.4367 39.3603 81.2784C39.0014 81.0536 38.7745 80.7316 38.6799 80.3116C38.6515 80.1851 38.6373 80.0617 38.6375 79.9403C38.6377 79.6591 38.715 79.3918 38.8692 79.1389C39.09 78.777 39.4052 78.548 39.8154 78.4508L45.6621 77.069C44.721 78.0223 44.0724 79.2772 43.8715 80.6764L40.4965 81.4744C40.379 81.502 40.2629 81.516 40.1489 81.516ZM38.9921 76.3092C38.7197 76.3092 38.4615 76.2328 38.2171 76.0801C37.865 75.8603 37.6408 75.5341 37.5435 75.1022L36.3678 69.8831C36.3394 69.7567 36.3252 69.6332 36.3252 69.5123C36.3254 69.231 36.4026 68.9638 36.5571 68.7109C36.7779 68.3486 37.0931 68.1199 37.5033 68.0228L41.9309 66.9766L41.1001 63.2869C41.0718 63.1609 41.0575 63.0374 41.0577 62.9157C41.0582 62.6425 41.13 62.3799 41.2735 62.1274C41.4811 61.763 41.8195 61.525 42.288 61.4143C42.4052 61.3867 42.5199 61.3727 42.6334 61.3727C42.9051 61.3727 43.1657 61.4525 43.415 61.6124C43.7683 61.8381 43.9924 62.1614 44.0869 62.581L44.9178 66.2706L49.4512 65.1994C49.573 65.1706 49.6927 65.1561 49.8108 65.1561C50.0895 65.1561 50.3579 65.2367 50.6156 65.398C50.9817 65.6275 51.2112 65.9457 51.3027 66.3534C51.3305 66.4768 51.3446 66.5977 51.3442 66.7169C51.3438 67.005 51.2622 67.282 51.0998 67.5485C50.8699 67.9252 50.5501 68.1615 50.1405 68.2587L39.7033 70.7252L40.19 72.8847L50.5916 70.4266C50.7133 70.3977 50.833 70.3833 50.9511 70.3833C51.2303 70.3833 51.4987 70.4639 51.7559 70.6251C52.1221 70.8546 52.3515 71.1732 52.4435 71.5809L53.2632 75.2193H50.0796L49.7615 73.8066L39.3601 76.2651C39.2347 76.2943 39.1121 76.3092 38.9921 76.3092Z" fill="#F2F2F2"/>
<path d="M96.0908 48.6205C93.987 57.2102 85.4825 62.4268 77.0961 60.272C68.7096 58.1172 63.6165 49.407 65.7203 40.8173C67.8245 32.2275 76.3281 27.011 84.7146 29.1653C93.101 31.3205 98.1941 40.0307 96.0908 48.6205Z" fill="#3D6CBE"/>
<path d="M80.9178 60.7577C79.6569 60.7577 78.3754 60.6003 77.0967 60.2719C69.9881 58.4455 65.2454 51.9087 65.2471 44.7279C65.2471 43.4374 65.4007 42.126 65.7209 40.8172C67.5041 33.5371 73.8845 28.6799 80.8946 28.6799C82.1554 28.6799 83.4365 28.8369 84.7152 29.1652C91.8242 30.992 96.5665 37.5289 96.5652 44.7097C96.5652 46.0002 96.4116 47.3116 96.0914 48.6204C94.3082 55.9005 87.9278 60.7577 80.9178 60.7577ZM75.3989 56.948C76.3072 57.4511 77.2914 57.8474 78.3389 58.1163C79.3695 58.3815 80.4025 58.5079 81.4189 58.5079C87.0691 58.5079 92.2123 54.5929 93.6496 48.7243C93.9081 47.6696 94.032 46.6124 94.032 45.5722C94.032 45.5543 94.032 45.5361 94.032 45.5183C94.4068 39.1771 90.3397 33.2601 84.1051 31.6577C83.031 31.3819 81.9553 31.2504 80.8966 31.2504C75.0099 31.2504 69.6517 35.3291 68.1548 41.4425C66.5908 47.8283 69.7636 54.2939 75.3989 56.948Z" fill="#629E2B"/>
<path d="M75.3991 56.9481C69.7638 54.294 66.591 47.8285 68.1551 41.4427C69.652 35.3293 75.0102 31.2506 80.8969 31.2506C81.9556 31.2506 83.0313 31.3821 84.1053 31.6578C90.34 33.2602 94.4071 39.1772 94.0322 45.5184C94.0098 39.7512 90.1929 34.5105 84.4802 33.0426C83.4496 32.7779 82.417 32.651 81.4006 32.651C75.7499 32.651 70.6067 36.5664 69.1694 42.4346C68.911 43.4893 68.7875 44.5465 68.7871 45.5868C68.7863 50.3171 71.3386 54.7 75.3991 56.9481Z" fill="#6FB430"/>
<path d="M93.6498 48.724C91.954 55.6482 85.0993 59.8533 78.339 58.116C71.5792 56.3792 67.4736 49.3583 69.1693 42.4341C70.8651 35.5104 77.7198 31.3053 84.4801 33.0422C91.2403 34.779 95.3455 41.8003 93.6498 48.724Z" fill="#3D6CBE"/>
<path d="M81.4192 58.5077C80.4027 58.5077 79.3697 58.3813 78.3391 58.1161C72.609 56.644 68.7863 51.3748 68.7871 45.5864C68.7875 44.5461 68.911 43.4889 69.1694 42.4342C70.6067 36.566 75.7499 32.6506 81.4005 32.6506C82.417 32.6506 83.4496 32.7775 84.4802 33.0422C90.2107 34.5144 94.0334 39.7835 94.0322 45.5719C94.0322 46.6122 93.9083 47.6694 93.6499 48.7241C92.2126 54.5927 87.0694 58.5077 81.4192 58.5077ZM78.0239 51.962C78.0243 52.1525 78.0765 52.3349 78.1809 52.5092C78.3342 52.7659 78.5574 52.9314 78.8503 53.0065C78.9385 53.0294 79.0259 53.0408 79.1116 53.0408C79.2951 53.0408 79.4732 52.9891 79.6455 52.8856C79.899 52.7337 80.0614 52.5118 80.1331 52.2199L80.7606 49.657L83.8854 50.4601C83.9765 50.4835 84.0664 50.4953 84.155 50.4953C84.3426 50.4953 84.5245 50.4427 84.7001 50.3371C84.9586 50.1822 85.1226 49.9633 85.1918 49.6799L86.0831 46.042C86.1043 45.9555 86.1146 45.8702 86.115 45.7862C86.1154 45.5936 86.0612 45.4065 85.9523 45.2245C85.7957 44.9627 85.5753 44.7951 85.2904 44.7222L78.0649 42.8657L78.4323 41.3655L85.6822 43.2284C85.7717 43.2513 85.8603 43.2628 85.9473 43.2628C86.137 43.2628 86.3209 43.2085 86.4986 43.099C86.7583 42.9399 86.9236 42.7146 86.9952 42.4228C87.0163 42.3366 87.0271 42.2514 87.0271 42.1669C87.0275 41.9743 86.9733 41.7872 86.8643 41.6056C86.7082 41.3439 86.4874 41.1763 86.2028 41.1033L83.0536 40.2939L83.6816 37.731C83.7044 37.6377 83.7159 37.5464 83.7159 37.4565C83.7168 37.2664 83.6662 37.084 83.5648 36.9109C83.4152 36.6555 83.2019 36.4918 82.9256 36.4209C82.8134 36.3921 82.7065 36.3776 82.6042 36.3776C82.4095 36.3776 82.2327 36.4298 82.074 36.5342C81.8317 36.6933 81.676 36.9147 81.6068 37.1981L80.9789 39.7606L77.9034 38.9707C77.811 38.9469 77.7207 38.935 77.6321 38.935C77.4473 38.935 77.2705 38.9868 77.1019 39.0903C76.8525 39.2434 76.6922 39.4653 76.621 39.7572L75.7329 43.3824C75.7089 43.4808 75.6965 43.5767 75.6965 43.67C75.6965 43.861 75.747 44.0408 75.8481 44.2097C75.9984 44.4604 76.2159 44.6229 76.5009 44.6963L83.7263 46.5524L83.356 48.0652L76.1061 46.2024C76.0138 46.1786 75.9235 46.1667 75.8348 46.1667C75.6501 46.1667 75.4732 46.2189 75.3047 46.3224C75.0553 46.4752 74.895 46.6975 74.8238 46.9894C74.8006 47.0827 74.7894 47.1743 74.7894 47.2643C74.7898 47.4548 74.8424 47.6372 74.9468 47.8111C75.1 48.0678 75.315 48.2316 75.5917 48.3028L78.6916 49.0991L78.0583 51.6871C78.0351 51.7804 78.0239 51.872 78.0239 51.962Z" fill="#79C930"/>
<path d="M86.0826 46.0419L85.1913 49.6799C85.1221 49.9633 84.9581 50.1822 84.6996 50.337C84.4411 50.4923 84.1694 50.533 83.8848 50.46L80.7601 49.6569L80.1325 52.2198C80.0609 52.5117 79.8985 52.7336 79.645 52.8855C79.3915 53.0374 79.1264 53.0777 78.8497 53.0064C78.5569 52.9313 78.3336 52.7658 78.1804 52.5092C78.0267 52.2529 77.9861 51.9784 78.0578 51.687L78.6911 49.0991L75.5912 48.3028C75.3145 48.2315 75.0995 48.0677 74.9463 47.811C74.7926 47.5548 74.7516 47.2807 74.8232 46.9893C74.8945 46.6974 75.0548 46.4751 75.3041 46.3224C75.5535 46.1692 75.8207 46.1293 76.1056 46.2023L83.3555 48.0652L83.7258 46.5523L76.5004 44.6962C76.2154 44.6228 75.9979 44.4603 75.8476 44.2096C75.6968 43.958 75.6587 43.6823 75.7324 43.3823L76.6205 39.7571C76.6917 39.4652 76.852 39.2434 77.1014 39.0902C77.3507 38.9371 77.6179 38.8976 77.9029 38.9706L80.9784 39.7605L81.6063 37.1981C81.6755 36.9147 81.8312 36.6932 82.0735 36.5341C82.3154 36.375 82.5996 36.3373 82.9251 36.4208C83.2014 36.4917 83.4147 36.6555 83.5643 36.9109C83.7134 37.1658 83.7523 37.4395 83.6811 37.7309L83.0531 40.2938L86.2023 41.1033C86.4869 41.1762 86.7077 41.3438 86.8638 41.6056C87.0204 41.8669 87.0643 42.1397 86.9947 42.4227C86.9231 42.7146 86.7578 42.9398 86.4981 43.0989C86.2388 43.2584 85.9662 43.3013 85.6817 43.2283L78.4318 41.3655L78.0644 42.8656L85.2898 44.7221C85.5748 44.7951 85.7952 44.9626 85.9517 45.2244C86.1083 45.4862 86.1518 45.7585 86.0826 46.0419Z" fill="#3D6CBE"/>
<path d="M79.1113 53.0409C79.0256 53.0409 78.9382 53.0294 78.8499 53.0065C78.5571 52.9314 78.3338 52.766 78.1806 52.5093C78.0762 52.3349 78.024 52.1525 78.0236 51.962C78.0236 51.8721 78.0348 51.7805 78.058 51.6871L78.6913 49.0992L75.5914 48.3029C75.3147 48.2316 75.0997 48.0679 74.9465 47.8112C74.8421 47.6372 74.7895 47.4548 74.7891 47.2643C74.7891 47.1744 74.8002 47.0828 74.8234 46.9894C74.8947 46.6975 75.055 46.4752 75.3043 46.3225C75.4729 46.219 75.6498 46.1668 75.8345 46.1668C75.9232 46.1668 76.0135 46.1787 76.1058 46.2024L83.3557 48.0653L83.726 46.5524L76.5006 44.6964C76.2156 44.623 75.9981 44.4605 75.8478 44.2098C75.7467 44.0409 75.6962 43.861 75.6962 43.6701C75.6962 43.5768 75.7086 43.4809 75.7326 43.3825L76.6207 39.7573C76.6919 39.4654 76.8522 39.2435 77.1016 39.0903C77.2702 38.9868 77.447 38.9351 77.6318 38.9351C77.7204 38.9351 77.8107 38.947 77.9031 38.9707L80.9785 39.7607L81.6065 37.1982C81.6757 36.9148 81.8314 36.6933 82.0737 36.5343C82.2324 36.4299 82.4092 36.3777 82.6039 36.3777C82.7062 36.3777 82.8131 36.3921 82.9253 36.421C83.2016 36.4918 83.4149 36.6556 83.5644 36.911C83.6659 37.0841 83.7165 37.2665 83.7156 37.4566C83.7156 37.5465 83.704 37.6377 83.6812 37.7311L83.0533 40.2939L86.2025 41.1034C86.4871 41.1764 86.7079 41.344 86.864 41.6057C86.9729 41.7873 87.0272 41.9744 87.0268 42.167C87.0268 42.2514 87.016 42.3367 86.9949 42.4228C86.9232 42.7147 86.758 42.94 86.4983 43.0991C86.3206 43.2085 86.1367 43.2628 85.947 43.2628C85.86 43.2628 85.7713 43.2514 85.6819 43.2285L78.432 41.3656L78.0646 42.8657L85.29 44.7222C85.575 44.7952 85.7954 44.9628 85.9519 45.2245C86.0609 45.4066 86.1151 45.5936 86.1147 45.7863C86.1143 45.8703 86.1039 45.9555 86.0828 46.0421L85.1914 49.68C85.1223 49.9634 84.9582 50.1823 84.6998 50.3372C84.5242 50.4428 84.3423 50.4954 84.1547 50.4954C84.066 50.4954 83.9762 50.4835 83.885 50.4602L80.7603 49.6571L80.1327 52.22C80.0611 52.5119 79.8987 52.7337 79.6452 52.8856C79.4729 52.9891 79.2948 53.0409 79.1113 53.0409Z" fill="#F2F2F2"/>
<path d="M42.3555 146.417H42.7697V141.628H42.3555V146.417Z" fill="#3D6CBE"/>
<path d="M42.7697 146.417H42.3555V141.628H42.7697V143.386V143.492V146.417Z" fill="#3866BA"/>
<path d="M164.334 110.246H164.748V103.681H164.334V110.246Z" fill="#3D6CBE"/>
<path d="M164.334 117.246H164.748V113.688H164.334V117.246Z" fill="#3D6CBE"/>
<path d="M164.334 110.246H164.748V103.681H164.334V110.246Z" fill="#3866BA"/>
<path d="M164.334 117.246H164.748V113.688H164.334V117.246Z" fill="#3866BA"/>
<path d="M157.064 152.155H50.0399C46.6111 152.155 43.8057 149.281 43.8057 145.769V81.6045C43.8057 78.0926 46.6111 75.2187 50.0399 75.2187H157.064C160.493 75.2187 163.299 78.0926 163.299 81.6045V145.769C163.299 149.281 160.493 152.155 157.064 152.155Z" fill="#3D6CBE"/>
<path d="M157.064 152.155H50.0399C46.6111 152.155 43.8057 149.281 43.8057 145.769V81.6045C43.8057 78.0926 46.6111 75.2187 50.0399 75.2187H100.127L100.593 75.811C100.881 75.615 101.168 75.4177 101.454 75.2187H117.182C116.174 82.6371 114.3 96.8723 113.512 105.784C113.494 105.989 113.485 106.203 113.485 106.424C113.485 111.443 118.044 120.525 122.841 128.69H109.088C107.555 128.69 106.3 129.975 106.3 131.545V134.212C106.3 135.783 107.555 137.068 109.088 137.068H123.458C124.9 137.068 126.096 135.93 126.233 134.488C126.551 138.409 126.825 141.73 126.994 143.769L126.61 143.75L126.947 145.935H128.44L128.683 150.369H131.753L131.56 146.841H131.562L131.512 145.935H133.024L133.101 145.452L133.523 145.916L134.691 144.791L137.657 147.955L140.091 145.724L137.848 143.331L137.849 143.33L137.069 142.499L137.862 141.734L138.111 141.495L137.293 139.395L136.806 139.849C136.396 139.105 135.885 138.165 135.303 137.068H148.9C150.434 137.068 151.688 135.783 151.688 134.212V131.545C151.688 129.975 150.434 128.69 148.9 128.69H134.53C133.858 128.69 133.239 128.937 132.756 129.348C132.756 129.204 132.756 129.058 132.756 128.914C132.756 119.693 132.798 109.206 132.969 104.3C132.994 103.574 133.022 102.788 133.052 101.954C133.356 101.99 133.664 102.01 133.977 102.01C135.879 102.01 137.62 101.307 138.966 100.14C140.313 101.307 142.054 102.01 143.956 102.01C148.226 102.01 151.688 98.4641 151.688 94.0901C151.688 89.717 148.226 86.1711 143.956 86.1711C142.054 86.1711 140.313 86.8745 138.966 88.0408C137.62 86.8745 135.879 86.1711 133.977 86.1711C133.87 86.1711 133.762 86.1737 133.655 86.1779C133.819 82.03 133.976 78.1159 134.093 75.2187H157.064C160.493 75.2187 163.299 78.0926 163.299 81.6045V119.812V119.918V138.839V138.945V141.681V141.787V145.769C163.299 149.281 160.493 152.155 157.064 152.155ZM80.8581 134.212C80.8581 135.783 82.1128 137.068 83.6458 137.068H98.0158C99.5488 137.068 100.803 135.783 100.803 134.212V131.545C100.803 129.975 99.5488 128.69 98.0158 128.69H83.6458C82.1128 128.69 80.8581 129.975 80.8581 131.545V134.212ZM55.4163 134.212C55.4163 135.783 56.6705 137.068 58.2039 137.068H72.5736C74.107 137.068 75.3612 135.783 75.3612 134.212V131.545C75.3612 129.975 74.107 128.69 72.5736 128.69H58.2039C56.6705 128.69 55.4163 129.975 55.4163 131.545V134.212ZM55.4163 117.091C55.4163 118.604 56.6245 119.842 58.1016 119.842H76.5164C77.9935 119.842 79.2017 118.604 79.2017 117.091V104.76C79.2017 103.248 77.9935 102.01 76.5164 102.01H58.1016C56.6245 102.01 55.4163 103.248 55.4163 104.76V117.091ZM55.4163 86.1711C55.4163 87.2419 56.2712 88.1176 57.3163 88.1176H89.2678C90.3128 88.1176 91.1682 87.2419 91.1682 86.1711C91.1682 85.1012 90.3128 84.2251 89.2678 84.2251H57.3163C56.2712 84.2251 55.4163 85.1012 55.4163 86.1711ZM124.416 111.19C123.725 108.383 123.391 105.838 123.608 103.81C123.672 103.205 123.746 102.563 123.826 101.89C123.848 102.432 123.871 102.94 123.897 103.406C124.002 105.295 124.186 108.019 124.416 111.19Z" fill="#3160B5"/>
<path d="M143.955 102.01C142.054 102.01 140.312 101.307 138.966 100.141C140.643 98.6881 141.708 96.5168 141.708 94.0906C141.708 91.6647 140.643 89.4938 138.966 88.0412C140.312 86.875 142.054 86.1716 143.955 86.1716C148.225 86.1716 151.687 89.7174 151.687 94.0906C151.687 98.4646 148.225 102.01 143.955 102.01Z" fill="#34495E"/>
<path d="M126.245 94.0906C126.245 98.4646 129.706 102.01 133.977 102.01C138.247 102.01 141.708 98.4646 141.708 94.0906C141.708 89.7174 138.247 86.1716 133.977 86.1716C129.706 86.1716 126.245 89.7174 126.245 94.0906Z" fill="#3D6CBE"/>
<path d="M76.5161 119.843H58.1013C56.6243 119.843 55.416 118.605 55.416 117.092V104.761C55.416 103.248 56.6243 102.01 58.1013 102.01H76.5161C77.9932 102.01 79.2015 103.248 79.2015 104.761V117.092C79.2015 118.605 77.9932 119.843 76.5161 119.843Z" fill="#3D6CBE"/>
<path d="M76.5161 119.843H58.1013C56.6243 119.843 55.416 118.605 55.416 117.092V104.761C55.416 103.248 56.6243 102.01 58.1013 102.01H76.5161C77.9932 102.01 79.2015 103.248 79.2015 104.761V117.092C79.2015 118.605 77.9932 119.843 76.5161 119.843Z" fill="#6993D4"/>
<path d="M89.2675 88.1179H57.316C56.2709 88.1179 55.416 87.2422 55.416 86.1713C55.416 85.1013 56.2709 84.2252 57.316 84.2252H89.2675C90.3125 84.2252 91.1679 85.1013 91.1679 86.1713C91.1679 87.2422 90.3125 88.1179 89.2675 88.1179Z" fill="#3D6CBE"/>
<path d="M89.2675 88.1179H57.316C56.2709 88.1179 55.416 87.2422 55.416 86.1713C55.416 85.1013 56.2709 84.2252 57.316 84.2252H89.2675C90.3125 84.2252 91.1679 85.1013 91.1679 86.1713C91.1679 87.2422 90.3125 88.1179 89.2675 88.1179Z" fill="#6993D4"/>
<path d="M72.5733 137.068H58.2036C56.6702 137.068 55.416 135.783 55.416 134.213V131.546C55.416 129.975 56.6702 128.691 58.2036 128.691H72.5733C74.1067 128.691 75.3609 129.975 75.3609 131.546V134.213C75.3609 135.783 74.1067 137.068 72.5733 137.068Z" fill="#3D6CBE"/>
<path d="M72.5733 137.068H58.2036C56.6702 137.068 55.416 135.783 55.416 134.213V131.546C55.416 129.975 56.6702 128.691 58.2036 128.691H72.5733C74.1067 128.691 75.3609 129.975 75.3609 131.546V134.213C75.3609 135.783 74.1067 137.068 72.5733 137.068Z" fill="#6993D4"/>
<path d="M98.0151 137.068H83.645C82.1121 137.068 80.8574 135.783 80.8574 134.213V131.546C80.8574 129.975 82.1121 128.691 83.645 128.691H98.0151C99.5481 128.691 100.803 129.975 100.803 131.546V134.213C100.803 135.783 99.5481 137.068 98.0151 137.068Z" fill="#3D6CBE"/>
<path d="M98.0151 137.068H83.645C82.1121 137.068 80.8574 135.783 80.8574 134.213V131.546C80.8574 129.975 82.1121 128.691 83.645 128.691H98.0151C99.5481 128.691 100.803 129.975 100.803 131.546V134.213C100.803 135.783 99.5481 137.068 98.0151 137.068Z" fill="#6993D4"/>
<path d="M123.457 137.068H109.087C107.554 137.068 106.3 135.783 106.3 134.213V131.546C106.3 129.975 107.554 128.691 109.087 128.691H123.457C124.991 128.691 126.245 129.975 126.245 131.546V134.213C126.245 135.783 124.991 137.068 123.457 137.068Z" fill="#3D6CBE"/>
<path d="M123.457 137.068H109.087C107.554 137.068 106.3 135.783 106.3 134.213V131.546C106.3 129.975 107.554 128.691 109.087 128.691H122.84C123.97 130.615 125.112 132.487 126.212 134.244C126.219 134.326 126.226 134.408 126.232 134.489C126.096 135.931 124.9 137.068 123.457 137.068Z" fill="#6993D4"/>
<path d="M148.9 137.068H134.53C132.997 137.068 131.743 135.783 131.743 134.213V131.546C131.743 129.975 132.997 128.691 134.53 128.691H148.9C150.434 128.691 151.688 129.975 151.688 131.546V134.213C151.688 135.783 150.434 137.068 148.9 137.068Z" fill="#3D6CBE"/>
<path d="M148.9 137.068H135.303C135.02 136.534 134.719 135.962 134.406 135.359V135.357C133.887 134.357 133.332 133.268 132.758 132.112C132.757 131.209 132.756 130.287 132.756 129.348C133.239 128.938 133.858 128.691 134.53 128.691H148.9C150.433 128.691 151.688 129.975 151.688 131.546V134.213C151.688 135.783 150.433 137.068 148.9 137.068Z" fill="#6993D4"/>
<path d="M121.358 47.3806C120.377 50.2188 119.305 52.9645 118.132 55.7107C116.94 58.4479 115.694 61.1567 114.112 63.8308C113.913 64.1655 113.69 64.5015 113.479 64.8354L113.319 65.0861L113.097 65.3945C112.951 65.588 112.811 65.7607 112.67 65.924C112.116 66.5689 111.565 67.1009 111.01 67.6269C109.906 68.6727 108.778 69.6247 107.639 70.5598C105.354 72.4205 103.018 74.1608 100.593 75.8115L99.1465 73.9728L105.264 67.8225C106.27 66.8009 107.265 65.7687 108.199 64.7382C108.66 64.2245 109.108 63.6967 109.476 63.2126C109.565 63.0934 109.646 62.9759 109.713 62.8737L109.802 62.7303L109.924 62.5114C110.085 62.2165 110.253 61.9348 110.412 61.6315C111.679 59.1908 112.796 56.5214 113.872 53.8529C114.941 51.1797 115.985 48.4509 116.98 45.762L121.358 47.3806Z" fill="#EEA99F"/>
<path d="M122.527 45.333C123.466 48.147 117.943 56.4338 117.943 56.4338L112.646 53.4306C112.646 53.4306 114.088 49.2157 115.828 45.8781C117.694 42.2966 121.496 42.2444 122.527 45.333Z" fill="#3D6CBE"/>
<path d="M115.828 55.2341L112.646 53.4307C112.646 53.4307 114.088 49.2158 115.828 45.8782C116.634 44.3293 117.804 43.4401 118.955 43.1804C118.954 43.1804 118.954 43.1808 118.954 43.1808C118.954 43.1808 117.891 45.7374 117.266 50.6675C116.485 52.5648 115.916 54.5053 115.828 55.2341Z" fill="#79C930"/>
<path d="M116.859 55.8196L115.827 55.2339C115.827 55.2339 115.827 55.2339 115.827 55.2335L116.859 55.8196Z" fill="#B06E9F"/>
<path d="M116.859 55.8196L115.827 55.2341C115.915 54.5052 116.484 52.5645 117.266 50.6671C117.076 52.1665 116.926 53.8861 116.859 55.8196Z" fill="#629E2B"/>
<path d="M118.953 43.1809C118.953 43.1809 115.007 52.6785 117.851 70.3658C122.799 70.3658 131.866 70.3658 134.275 70.3658C134.475 67.7834 133.317 55.1862 136.161 43.0188C136.161 43.0188 133.365 42.4401 130.688 42.3074C128.592 42.2038 125.556 42.1351 123.705 42.3078C121.266 42.5352 118.953 43.1809 118.953 43.1809Z" fill="#3D6CBE"/>
<path d="M134.276 70.3658C131.867 70.3658 122.8 70.3658 117.851 70.3658C117.841 70.3009 117.83 70.2352 117.82 70.1707C117.534 68.3642 117.318 66.6448 117.162 65.0118C116.942 62.7086 116.84 60.5806 116.823 58.6294C116.822 58.4406 116.821 58.2531 116.821 58.0682C116.82 48.3164 118.954 43.1809 118.954 43.1809C118.954 43.1809 120.882 42.6425 123.074 42.3761C122.993 42.707 122.958 43.0218 122.958 43.3188C122.96 45.415 124.728 46.6402 124.728 46.6402C124.728 46.6402 124.755 46.4972 124.82 46.2647L125.103 46.8714L125.157 46.8739C124.802 48.3911 122.845 56.8277 122.761 58.7177C122.754 58.8657 122.751 59.0189 122.751 59.1767C122.752 62.068 123.802 66.4602 123.802 66.4602C123.802 66.4602 125.459 62.4006 125.798 58.6294C125.963 56.8001 125.986 54.3797 125.986 52.1414C125.986 51.2395 125.983 50.3672 125.983 49.5751C125.983 48.5001 125.99 47.5718 126.023 46.9168L126.091 46.9202L126.488 46.3356C126.529 46.6219 126.534 46.8044 126.534 46.8044C126.534 46.8044 131.471 45.0204 131.467 42.3854C131.467 42.3761 131.467 42.3672 131.467 42.3574C133.882 42.5466 136.162 43.0188 136.162 43.0188C135.904 42.9798 135.651 42.9611 135.406 42.9611C133.284 42.9611 131.728 44.3823 131.729 46.6966C131.729 47.3186 131.842 48.0058 132.086 48.7466C132.219 49.1492 132.368 49.5671 132.528 49.9922C132.768 52.284 133.326 55.1956 134.279 58.3486C134.225 59.8873 134.206 61.3383 134.206 62.6683C134.207 64.829 134.256 66.6723 134.283 68.0584C134.168 68.2658 134.052 68.4728 133.937 68.6786L134.298 68.9675C134.3 69.1334 134.3 69.2891 134.3 69.435C134.3 69.8211 134.293 70.1338 134.276 70.3658ZM125.735 44.2135C125.735 44.2135 125.734 44.2135 125.734 44.2131C125.735 44.2131 125.736 44.2131 125.737 44.2131C125.737 44.2135 125.736 44.2135 125.735 44.2135Z" fill="#79C930"/>
<path d="M140.091 145.724L137.656 147.956L133.023 143.014L135.458 140.783L140.091 145.724Z" fill="#EEA99F"/>
<path d="M131.753 150.369H128.682L128.283 143.085H131.354L131.753 150.369Z" fill="#EEA99F"/>
<path d="M133.026 143.016L135.414 145.562L137.849 143.331L135.462 140.783L133.026 143.016Z" fill="#C47F74"/>
<path d="M131.355 143.088H128.283L128.49 146.842H131.562L131.355 143.088Z" fill="#C47F74"/>
<path d="M117.851 70.3662C117.851 70.3662 114.616 93.3002 113.511 105.785C112.625 115.798 133.771 145.677 133.771 145.677L137.861 141.735C137.861 141.735 122.416 114.961 123.605 103.812C124.757 93.0134 128.661 70.3662 128.661 70.3662H117.851Z" fill="#3D6CBE"/>
<path d="M136.886 142.676L137.862 141.734L136.886 142.676ZM133.968 142.498L134.406 135.358C135.362 137.2 136.197 138.743 136.806 139.849L133.968 142.498Z" fill="#192643"/>
<path d="M126.213 134.244C120.446 125.031 113.485 112.626 113.485 106.424C113.485 106.203 113.494 105.989 113.512 105.784C114.617 93.2995 117.852 70.3656 117.852 70.3656H128.661H123.691C123.691 70.3656 123.627 75.692 123.61 82.2687C122.078 90.4422 120.356 108.272 124.288 131.114C124.937 132.186 125.582 133.231 126.213 134.239C126.213 134.241 126.213 134.241 126.213 134.244Z" fill="#183544"/>
<path d="M134.406 135.359C133.887 134.358 133.332 133.269 132.758 132.114V132.111C133.332 133.267 133.887 134.356 134.406 135.357V135.359Z" fill="#5178C5"/>
<path d="M124.417 111.198C123.865 108.961 123.54 106.891 123.54 105.115C123.54 104.661 123.561 104.226 123.605 103.812C123.671 103.203 123.744 102.558 123.825 101.881C123.825 101.884 123.825 101.887 123.825 101.891C123.745 102.564 123.672 103.206 123.608 103.811C123.391 105.839 123.725 108.384 124.416 111.191C124.416 111.194 124.416 111.195 124.417 111.198Z" fill="#2252A6"/>
<path d="M132.787 143.601C132.777 141.131 132.763 136.932 132.758 132.115C133.332 133.27 133.887 134.359 134.406 135.359L133.968 142.499L132.787 143.601Z" fill="#131D32"/>
<path d="M126.212 134.239C125.581 133.232 124.936 132.186 124.287 131.115C120.355 108.272 122.077 90.4426 123.609 82.269C123.607 83.2443 123.605 84.2468 123.605 85.2638C123.605 91.1982 123.654 97.6174 123.825 101.88C123.743 102.558 123.67 103.203 123.605 103.811C123.561 104.226 123.54 104.66 123.54 105.115C123.54 106.891 123.864 108.961 124.416 111.198C124.917 118.101 125.634 127.122 126.212 134.239Z" fill="#131D32"/>
<path d="M123.691 70.3662C123.691 70.3662 123.398 94.4024 123.897 103.407C124.442 113.268 127.173 145.936 127.173 145.936H132.797C132.797 145.936 132.629 114.064 132.969 104.301C133.336 93.7049 134.289 70.3662 134.289 70.3662H123.691Z" fill="#3D6CBE"/>
<path d="M132.315 144.041L126.993 143.77C126.824 141.73 126.55 138.409 126.232 134.489C126.226 134.408 126.219 134.326 126.212 134.244C125.37 123.853 124.228 109.408 123.897 103.407C123.871 102.937 123.847 102.427 123.825 101.88C123.654 97.6175 123.606 91.1982 123.605 85.2639C123.605 77.3885 123.691 70.366 123.691 70.366H134.289C134.289 70.366 134.259 71.0961 134.208 72.3574C134.177 73.1274 134.138 74.0951 134.093 75.2151C133.976 78.1127 133.819 82.029 133.655 86.1785C133.44 91.631 133.213 97.4852 133.052 101.954C133.022 102.789 132.993 103.575 132.969 104.301C132.798 109.206 132.756 119.693 132.756 128.914C132.756 135.035 132.774 140.598 132.787 143.6L132.315 144.041Z" fill="#183544"/>
<path d="M128.521 150.005H131.971C132.097 150.005 132.192 150.095 132.199 150.22L132.366 153.016C132.383 153.306 132.118 153.581 131.829 153.576C130.628 153.554 130.054 153.482 128.537 153.482C127.603 153.482 123.635 153.581 122.346 153.581C121.086 153.581 121.095 152.276 121.641 152.157C124.09 151.627 127.125 150.896 127.992 150.199C128.149 150.073 128.338 150.005 128.521 150.005Z" fill="#17272E"/>
<path d="M136.985 147.06L139.945 145.019C140.056 144.943 140.196 144.947 140.283 145.029L142.545 147.368C142.746 147.558 142.68 147.884 142.436 148.077C140.548 149.566 139.184 150.69 138.11 151.929C136.853 153.377 136.194 153.581 133.295 153.581C131.953 153.581 131.195 152.424 131.742 152.247C136.574 150.68 135.282 149.999 136.456 147.703C136.583 147.454 136.751 147.222 136.985 147.06Z" fill="#17272E"/>
<path d="M99.8698 73.5719L96.668 73.6898L97.3386 76.2589C97.3386 76.2589 100.687 76.5626 100.985 75.5299L99.8698 73.5719Z" fill="#EEA99F"/>
<path d="M93.2139 75.2193L95.4568 76.563L97.3385 76.2592L96.6679 73.6902L93.2139 75.2193Z" fill="#EEA99F"/>
<path d="M134.281 58.3527C134.28 58.351 134.28 58.3497 134.279 58.3484C134.322 57.135 134.386 55.8681 134.481 54.5609C134.481 54.5617 134.481 54.5625 134.482 54.5638C134.387 55.871 134.323 57.1392 134.281 58.3527Z" fill="#B3CBED"/>
<path d="M134.279 58.3486C133.325 55.1954 132.768 52.2835 132.527 49.9916C133.116 51.5572 133.854 53.2191 134.48 54.5611C134.385 55.8683 134.321 57.1352 134.279 58.3486Z" fill="#629E2B"/>
<path d="M130.269 34.2552C129.75 36.5564 129.168 40.7721 130.688 42.3075C130.688 42.3075 130.032 44.2136 125.857 44.2136C121.267 44.2136 123.706 42.3079 123.706 42.3079C126.232 41.6953 126.231 39.7917 125.856 38.0039L130.269 34.2552Z" fill="#EEA99F"/>
<path d="M125.735 44.2136L124.495 45.5671L125.102 46.8717L126.091 46.9205L126.937 45.6731L125.735 44.2136Z" fill="#3D6CBE"/>
<path d="M128.47 35.7843L125.858 38.0016C125.949 38.4246 126.015 38.854 126.031 39.2706C126.993 39.1293 128.344 38.0529 128.48 37.0266C128.548 36.5149 128.544 36.0228 128.47 35.7843Z" fill="#C47F74"/>
<path d="M124.824 26.4562C123.251 27.0035 121.998 31.2667 123.827 32.3931C125.657 33.5187 127.803 25.4192 124.824 26.4562Z" fill="#17272E"/>
<path d="M131.25 31.8442C130.315 34.8237 129.915 36.6111 128.028 37.8249C125.189 39.6512 121.866 37.446 121.909 34.2718C121.947 31.4149 123.471 27.0222 126.679 26.472C129.841 25.9302 132.186 28.8643 131.25 31.8442Z" fill="#EEA99F"/>
<path d="M133.568 26.8835C132.634 29.1969 134.815 27.2645 134.251 30.0102C133.883 31.8031 130.729 36.0927 129.51 35.7007C128.291 35.3091 128.306 32.2715 129.86 30.1197C130.752 28.8851 128.817 27.4851 124.468 27.631C120.12 27.7774 117.497 25.279 123.273 23.4403C123.273 23.4403 121.145 24.7016 122.408 25.1611C124.2 25.8127 135.44 22.2422 133.568 26.8835Z" fill="#17272E"/>
<path d="M132.74 27.9546C132.697 27.9342 133.713 27.6945 134.256 25.8506C134.256 25.8506 134.08 28.5948 132.74 27.9546Z" fill="#17272E"/>
<path d="M124.612 23.853C121.94 24.7177 123.046 25.6567 124.15 25.8917L126.685 24.8751C122.836 25.3749 124.612 23.853 124.612 23.853Z" fill="#17272E"/>
<path d="M131.762 35.4746C131.168 36.0745 130.363 36.3499 129.682 36.3495C128.659 36.3491 128.453 35.3579 128.993 34.5285C129.479 33.7817 130.598 32.8823 131.502 33.2819C132.392 33.6761 132.442 34.7886 131.762 35.4746Z" fill="#EEA99F"/>
<path d="M126.533 31.6783C126.472 31.9243 126.294 32.0949 126.135 32.0593C125.977 32.024 125.899 31.7958 125.961 31.5501C126.021 31.3036 126.2 31.1335 126.358 31.1691C126.516 31.2043 126.594 31.4322 126.533 31.6783Z" fill="#17272E"/>
<path d="M123.797 31.0659C123.736 31.3116 123.558 31.4821 123.4 31.4469C123.242 31.4113 123.164 31.1835 123.225 30.9374C123.286 30.6913 123.464 30.5207 123.622 30.5564C123.78 30.5916 123.859 30.8198 123.797 31.0659Z" fill="#17272E"/>
<path d="M124.636 31.3823C124.636 31.3823 123.733 32.6781 122.956 33.2271C123.283 33.729 124.057 33.7065 124.057 33.7065L124.636 31.3823Z" fill="#C47F74"/>
<path d="M125.103 34.6021C124.944 34.6021 124.775 34.5851 124.596 34.5443C124.556 34.5358 124.531 34.4959 124.54 34.4555C124.548 34.4152 124.588 34.3897 124.626 34.3986C125.691 34.6364 126.375 33.9922 126.382 33.9863L126.484 33.9892L126.481 34.0945C126.456 34.1187 125.943 34.6021 125.103 34.6021Z" fill="#17272E"/>
<path d="M127.617 30.9709C127.56 30.9709 127.507 30.9374 127.483 30.881C127.233 30.2908 126.718 30.2022 126.696 30.1983C126.617 30.1856 126.562 30.1101 126.574 30.029C126.586 29.948 126.656 29.8924 126.739 29.9035C126.767 29.9081 127.433 30.0159 127.75 30.7626C127.782 30.8382 127.748 30.9255 127.674 30.9586L127.617 30.9709Z" fill="#17272E"/>
<path d="M122.875 29.8467L122.782 29.8119C122.72 29.7593 122.712 29.6651 122.763 29.6023C123.284 28.9637 123.953 29.0181 123.982 29.0202C124.062 29.0278 124.121 29.1004 124.114 29.1823C124.106 29.2637 124.037 29.324 123.956 29.3172C123.93 29.3155 123.405 29.2798 122.987 29.7932C122.958 29.8284 122.917 29.8467 122.875 29.8467Z" fill="#17272E"/>
<path d="M136.955 45.1893C137.28 45.7026 137.552 46.1553 137.823 46.647C138.094 47.1294 138.357 47.6147 138.613 48.1047C139.12 49.086 139.596 50.0864 140.032 51.1118C140.897 53.1668 141.651 55.3008 142.086 57.6223L142.128 57.8382L142.149 57.9464L142.178 58.1233C142.218 58.3808 142.228 58.6137 142.231 58.8411C142.228 59.2866 142.176 59.6769 142.105 60.0367C141.955 60.7524 141.736 61.3582 141.5 61.9271C141.027 63.062 140.442 64.0395 139.845 64.9877C138.621 66.8671 137.269 68.5382 135.753 70.1329L133.936 68.6786C134.941 66.8866 135.938 65.0301 136.776 63.2088C137.198 62.3022 137.564 61.3773 137.826 60.5182C137.953 60.0906 138.042 59.6731 138.069 59.3388C138.083 59.1742 138.083 59.0321 138.07 58.9447C138.061 58.906 138.055 58.8725 138.046 58.8683L138.039 58.8492L138.014 58.7631L137.965 58.5913C137.726 57.6774 137.38 56.7526 137.033 55.832C136.669 54.9126 136.261 53.9958 135.836 53.0841C135.403 52.1745 134.947 51.2696 134.476 50.3719C134.243 49.9222 134.002 49.475 133.756 49.0342L133.027 47.7471L136.955 45.1893Z" fill="#EEA99F"/>
<path d="M127.075 149.904L126.986 149.918C126.96 149.928 126.923 149.95 126.908 150.02C126.883 150.136 126.899 150.221 126.958 150.281C127.1 150.426 127.503 150.444 128.051 150.333C127.74 150.13 127.311 149.904 127.075 149.904ZM127.433 150.553C127.194 150.553 126.978 150.512 126.856 150.387C126.76 150.289 126.729 150.155 126.766 149.988C126.788 149.886 126.846 149.814 126.933 149.779C127.313 149.627 128.179 150.237 128.277 150.307L128.307 150.383L128.252 150.441C128.031 150.494 127.717 150.553 127.433 150.553Z" fill="white"/>
<path d="M127.814 149.168L127.781 149.171C127.678 149.183 127.655 149.234 127.646 149.276C127.6 149.5 127.903 149.997 128.169 150.228C128.177 149.929 128.152 149.414 127.968 149.232C127.924 149.19 127.874 149.168 127.814 149.168ZM128.234 150.443L128.197 150.433C127.891 150.246 127.433 149.589 127.503 149.245C127.53 149.119 127.622 149.04 127.764 149.022C127.881 149.009 127.985 149.042 128.068 149.125C128.379 149.432 128.31 150.336 128.307 150.375L128.268 150.435L128.234 150.443Z" fill="white"/>
<path d="M135.877 148.149C135.365 148.149 134.833 148.197 134.712 148.347L134.695 148.425C134.715 148.506 134.76 148.559 134.83 148.589C135.061 148.688 135.582 148.527 136.242 148.157C136.126 148.152 136.002 148.149 135.877 148.149ZM134.996 148.766C134.913 148.766 134.838 148.754 134.774 148.727C134.661 148.679 134.587 148.59 134.554 148.463C134.534 148.386 134.55 148.313 134.599 148.252C134.877 147.909 136.333 148.01 136.498 148.023L136.563 148.08L136.529 148.161C136.126 148.404 135.447 148.766 134.996 148.766Z" fill="white"/>
<path d="M135.535 147.295C135.47 147.295 135.402 147.31 135.334 147.343C135.245 147.386 135.205 147.43 135.214 147.475C135.256 147.674 135.924 147.954 136.365 148.012C136.234 147.782 135.912 147.295 135.535 147.295ZM136.493 148.173H136.491C136.068 148.162 135.144 147.848 135.072 147.506C135.055 147.423 135.075 147.304 135.271 147.208C135.985 146.862 136.536 148.016 136.559 148.066L136.554 148.138L136.493 148.173Z" fill="white"/>
<path d="M134.758 67.9818L131.7 67.4362L133.27 71.0613C133.27 71.0613 136.06 71.0447 135.933 69.5712L134.758 67.9818Z" fill="#EEA99F"/>
<path d="M129.419 69.2578L130.855 72.1866L133.269 71.061L131.7 67.436L129.419 69.2578Z" fill="#EEA99F"/>
<path d="M138.111 141.495L133.523 145.917L132.046 144.292L137.292 139.395L138.111 141.495Z" fill="#3D6CBE"/>
<path d="M133.522 145.917L133.101 145.453L133.317 144.092L132.315 144.041L137.292 139.395L138.111 141.495L136.885 142.676L134.69 144.792H134.69L133.522 145.917Z" fill="#9FBDE7"/>
<path d="M133.024 145.936H126.946L126.609 143.75L133.317 144.092L133.024 145.936Z" fill="#3D6CBE"/>
<path d="M133.024 145.936H126.946L126.609 143.75L133.317 144.092L133.101 145.453L133.024 145.936Z" fill="#9FBDE7"/>
<path d="M136.162 43.0189C139.053 43.4516 142.031 53.7629 142.031 53.7629L135.809 57.2931C135.809 57.2931 133.288 52.3888 132.086 48.7466C130.827 44.9309 133.062 42.5543 136.162 43.0189Z" fill="#3D6CBE"/>
<path d="M135.809 57.2931C135.809 57.2931 135.222 56.1519 134.48 54.5614C133.853 53.2195 133.116 51.5577 132.527 49.9922C132.367 49.5671 132.218 49.1492 132.085 48.7466C131.841 48.0059 131.728 47.3186 131.728 46.6966C131.727 44.3824 133.283 42.9611 135.405 42.9611C135.65 42.9611 135.903 42.9798 136.161 43.0188C139.052 43.4516 142.03 53.7629 142.03 53.7629L141.207 54.2296L137.269 56.4645L135.809 57.2931Z" fill="#79C930"/>
<path d="M126.091 46.9205L126.023 46.9171C126.028 46.8187 126.034 46.7262 126.04 46.6405H125.212C125.212 46.6405 125.192 46.7228 125.157 46.8743L125.102 46.8717L124.82 46.265C124.95 45.7987 125.23 44.971 125.735 44.2136C126.224 44.9463 126.414 45.8136 126.488 46.3359L126.091 46.9205Z" fill="#183544"/>
<path d="M125.212 46.6402C125.212 46.6402 122.853 56.6389 122.761 58.7177C122.633 61.5754 123.802 66.4602 123.802 66.4602C123.802 66.4602 125.459 62.4006 125.798 58.6294C126.133 54.9126 125.885 48.7572 126.04 46.6402H125.212Z" fill="#3D6CBE"/>
<path d="M123.802 66.4602C123.802 66.4602 122.751 62.068 122.751 59.1767C122.751 59.0189 122.754 58.8657 122.761 58.7177C122.853 56.6389 125.211 46.6402 125.211 46.6402H126.04C126.034 46.7259 126.028 46.8184 126.023 46.9168C125.989 47.5718 125.982 48.5001 125.982 49.5751C125.982 50.3672 125.986 51.2395 125.986 52.1414C125.986 54.3797 125.963 56.8001 125.798 58.6294C125.459 62.4006 123.802 66.4602 123.802 66.4602Z" fill="#183544"/>
<path d="M125.735 44.2135C126.492 45.348 126.534 46.8046 126.534 46.8046C126.534 46.8046 131.7 44.9377 131.459 42.2024C131.459 42.2024 130.726 41.7565 130.26 41.3941C130.26 41.3941 130.085 43.118 125.735 44.2135Z" fill="#3D6CBE"/>
<path d="M126.534 46.8046C126.534 46.8046 126.529 46.6221 126.488 46.3357C126.414 45.8134 126.224 44.9462 125.735 44.2135C130.085 43.118 130.26 41.3941 130.26 41.3941C130.726 41.7565 131.459 42.2024 131.459 42.2024C131.464 42.2639 131.467 42.325 131.467 42.3853C131.471 45.0205 126.534 46.8046 126.534 46.8046Z" fill="#79C930"/>
<path d="M125.735 44.2131C124.978 45.3476 124.727 46.64 124.727 46.64C124.727 46.64 122.387 45.0176 123.09 42.3136C123.09 42.3136 123.75 42.0302 124.412 41.883C124.412 41.883 124.105 43.628 125.735 44.2131Z" fill="#3D6CBE"/>
<path d="M124.728 46.64C124.728 46.64 122.96 45.4147 122.958 43.3183C122.958 43.0027 122.998 42.6675 123.09 42.3136C123.09 42.3136 123.75 42.0302 124.412 41.883C124.412 41.883 124.39 42.0132 124.39 42.2148C124.39 42.7506 124.551 43.788 125.735 44.2131C125.23 44.9705 124.95 45.7982 124.82 46.2645C124.755 46.497 124.728 46.64 124.728 46.64Z" fill="#79C930"/>
</g>
<defs>
<clipPath id="clip0">
<rect width="207" height="158" fill="white"/>
</clipPath>
</defs>
</svg>
