<svg width="50" height="50" viewBox="0 0 50 50" fill="none" xmlns="http://www.w3.org/2000/svg">
<g clip-path="url(#clip0)">
<path d="M5.29409 24.3848C5.29409 24.3848 7.26948 27.2868 11.4097 29.7433C11.4097 29.7433 8.41118 4.40127 27.9486 0C22.943 18.3712 34.3158 23.5521 38.4614 13.8463C45.3845 23.0896 40.128 31.1538 40.128 31.1538C42.9667 31.5628 45.3513 28.4614 45.3513 28.4614C45.3726 28.8435 45.3845 29.2281 45.3845 29.6155C45.3846 40.8735 36.2582 50 25 50C13.7419 50 4.61548 40.8735 4.61548 29.6154C4.61548 27.807 4.8522 26.0541 5.29409 24.3848Z" fill="#FF6536"/>
<path d="M45.3514 28.4614C45.3514 28.4614 42.9668 31.5628 40.128 31.1538C40.128 31.1538 45.3846 23.0896 38.4614 13.8463C34.3158 23.5521 22.9431 18.3712 27.9486 0C26.9022 0.235742 25.921 0.531934 25 0.880664V50C36.2581 50 45.3846 40.8735 45.3846 29.6154C45.3846 29.228 45.3727 28.8435 45.3514 28.4614Z" fill="#FF421D"/>
<path d="M16.0601 41.0601C16.0601 45.9975 20.0626 50 24.9999 50C29.9372 50 33.9397 45.9975 33.9397 41.0601C33.9397 38.4175 32.7932 36.0427 30.9702 34.406C27.5138 39.1018 22.5882 31.9787 26.4269 26.7769C26.4269 26.7769 16.0601 28.076 16.0601 41.0601Z" fill="#FBBF00"/>
<path d="M33.9398 41.0601C33.9398 38.4175 32.7933 36.0427 30.9703 34.406C27.5139 39.1018 22.5883 31.9787 26.427 26.7769C26.427 26.7769 25.8637 26.8477 25 27.1203V50C29.9373 50 33.9398 45.9975 33.9398 41.0601Z" fill="#FFA900"/>
</g>
<defs>
<clipPath id="clip0">
<rect width="50" height="50" fill="white"/>
</clipPath>
</defs>
</svg>
