<svg width="50" height="50" viewBox="0 0 50 50" fill="none" xmlns="http://www.w3.org/2000/svg">
<path d="M25 0C16.0814 0 8.82568 7.25576 8.82568 16.1743V36.7676C8.82568 37.5766 9.48154 38.2324 10.2905 38.2324H39.7095C40.5185 38.2324 41.1743 37.5766 41.1743 36.7676V16.1743C41.1743 7.25576 33.9186 0 25 0Z" fill="#9AB3BC"/>
<path d="M25 0V38.2324H39.7095C40.5185 38.2324 41.1743 37.5766 41.1743 36.7676V16.1743C41.1743 7.25576 33.9186 0 25 0Z" fill="#899FA8"/>
<path d="M25 5.88379C19.3258 5.88379 14.7095 10.5001 14.7095 16.1743V36.7676C14.7095 37.5766 15.3653 38.2324 16.1743 38.2324H33.8257C34.6347 38.2324 35.2905 37.5766 35.2905 36.7676V16.1743C35.2905 10.5001 30.6742 5.88379 25 5.88379Z" fill="#AED294"/>
<path d="M25 5.88379V38.2324H33.8257C34.6347 38.2324 35.2905 37.5766 35.2905 36.7676V16.1743C35.2905 10.5001 30.6742 5.88379 25 5.88379Z" fill="#AED294"/>
<path d="M27.8478 14.5142H26.4648V13.0371C26.4648 12.2281 25.8089 11.5723 25 11.5723C24.191 11.5723 23.5351 12.2281 23.5351 13.0371V14.5142H22.1521C21.3431 14.5142 20.6873 15.17 20.6873 15.979C20.6873 16.788 21.3431 17.4438 22.1521 17.4438H23.5351V24.0234C23.5351 24.8324 24.191 25.4883 25 25.4883C25.8089 25.4883 26.4648 24.8324 26.4648 24.0234V17.4438H27.8478C28.6568 17.4438 29.3127 16.788 29.3127 15.979C29.3127 15.17 28.6568 14.5142 27.8478 14.5142Z" fill="#788A91"/>
<path d="M27.8479 14.5142H26.4648V13.0371C26.4648 12.2281 25.809 11.5723 25 11.5723V25.4883C25.809 25.4883 26.4648 24.8324 26.4648 24.0234V17.4438H27.8479C28.6568 17.4438 29.3127 16.788 29.3127 15.979C29.3127 15.17 28.6568 14.5142 27.8479 14.5142Z" fill="#6D7C94"/>
<path d="M27.8478 31.3721H22.1521C21.3431 31.3721 20.6873 30.7162 20.6873 29.9072C20.6873 29.0982 21.3431 28.4424 22.1521 28.4424H27.8478C28.6568 28.4424 29.3127 29.0982 29.3127 29.9072C29.3127 30.7162 28.6568 31.3721 27.8478 31.3721Z" fill="#788A91"/>
<path d="M27.8479 28.4424H25V31.3721H27.8479C28.6568 31.3721 29.3127 30.7162 29.3127 29.9072C29.3127 29.0982 28.6568 28.4424 27.8479 28.4424Z" fill="#6D7C94"/>
<path d="M39.7217 35.3027H10.2783C7.85518 35.3027 5.88379 37.2741 5.88379 39.6973V42.6514C5.88379 43.4604 6.53965 44.1162 7.34863 44.1162H42.6514C43.4604 44.1162 44.1162 43.4604 44.1162 42.6514V39.6973C44.1162 37.2741 42.1448 35.3027 39.7217 35.3027Z" fill="#899FA8"/>
<path d="M39.7217 35.3027H25V44.1162H42.6514C43.4604 44.1162 44.1162 43.4604 44.1162 42.6514V39.6973C44.1162 37.2741 42.1448 35.3027 39.7217 35.3027Z" fill="#788A91"/>
<path d="M45.6055 41.1865H4.39453C1.97139 41.1865 0 43.1579 0 45.5811V48.5352C0 49.3441 0.655859 50 1.46484 50H48.5352C49.3441 50 50 49.3441 50 48.5352V45.5811C50 43.1579 48.0286 41.1865 45.6055 41.1865Z" fill="#788A91"/>
<path d="M45.6055 41.1865H25V50H48.5352C49.3441 50 50 49.3441 50 48.5352V45.5811C50 43.1579 48.0286 41.1865 45.6055 41.1865Z" fill="#6D7C94"/>
</svg>
