<svg width="50" height="50" viewBox="0 0 50 50" fill="none" xmlns="http://www.w3.org/2000/svg">
<g clip-path="url(#clip0)">
<path d="M49.394 44.6346L41.4119 36.6526L40.4658 35.2098L37.2717 38.2383L38.4862 39.5783L46.4683 47.5603C47.2762 48.3682 48.5862 48.3682 49.394 47.5603C50.202 46.7524 50.202 45.4425 49.394 44.6346Z" fill="#F2C94C"/>
<path d="M28.3472 39.687C35.6228 39.687 41.5209 33.789 41.5209 26.5134C41.5209 19.2378 35.6228 13.3397 28.3472 13.3397C21.0716 13.3397 15.1736 19.2378 15.1736 26.5134C15.1736 33.789 21.0716 39.687 28.3472 39.687Z" fill="#F9F7F8"/>
<path d="M12.9818 24.8338C12.7532 24.8338 12.5278 24.7286 12.3825 24.5302L11.5845 23.4404C11.5792 23.4331 11.5741 23.4259 11.5691 23.4185C11.1835 22.8501 10.9328 22.1901 10.844 21.5098C10.7909 21.1035 11.0774 20.7309 11.4838 20.6779C11.8898 20.6246 12.2626 20.9113 12.3157 21.3177C12.3741 21.7651 12.5381 22.1996 12.7902 22.5748L13.5799 23.6531C13.822 23.9838 13.7503 24.4481 13.4196 24.6903C13.2875 24.7872 13.134 24.8338 12.9818 24.8338Z" fill="#79C930"/>
<path d="M11.5478 18.871C11.1379 18.871 10.8057 18.5387 10.8057 18.1289V17.0726C10.8057 14.6279 12.7946 12.6391 15.2391 12.6391C16.1914 12.6391 17.0991 12.9366 17.8642 13.4994C17.8889 13.5176 17.9126 13.5373 17.9348 13.5585L19.441 14.9854C19.7385 15.2673 19.7512 15.737 19.4693 16.0345C19.1874 16.332 18.7177 16.3448 18.4202 16.0628L16.9493 14.6694C16.4485 14.312 15.8581 14.1233 15.2391 14.1233C13.6129 14.1233 12.2899 15.4464 12.2899 17.0726V18.1289C12.2899 18.5388 11.9576 18.871 11.5478 18.871Z" fill="#79C930"/>
<path d="M20.6553 26.019C20.6553 20.9158 23.0581 16.363 26.7916 13.4323C20.2505 14.1855 15.1733 19.7758 15.1736 26.5136C15.1738 33.7773 21.0836 39.6873 28.3472 39.6873H28.3509C23.7404 36.8774 20.6553 31.8015 20.6553 26.019Z" fill="#F3F0F3"/>
<path d="M13.2276 25.628C12.8577 25.628 12.5376 25.3518 12.4918 24.9753C12.4424 24.5685 12.7321 24.1985 13.1389 24.149L15.3395 23.8814C15.3567 23.8793 15.3741 23.8778 15.3915 23.8769C16.9598 23.7974 18.1884 22.5037 18.1884 20.9314V14.753C18.1884 14.3431 18.5207 14.0109 18.9305 14.0109C19.3404 14.0109 19.6726 14.3431 19.6726 14.753V20.9314C19.6726 23.2856 17.8395 25.2247 15.4939 25.3577L13.3181 25.6222C13.2877 25.6261 13.2574 25.628 13.2276 25.628Z" fill="#64A627"/>
<path d="M13.2278 29.1056C12.8395 29.1056 12.513 28.8036 12.4879 28.4107C12.4617 28.0016 12.7722 27.6489 13.1812 27.6229L15.3816 27.4825C15.391 27.4819 15.4004 27.4815 15.4098 27.4812C17.1205 27.4373 18.724 26.7356 19.9247 25.5056C21.1276 24.2736 21.7901 22.6494 21.7901 20.9324V17.0732C21.7901 16.4096 21.6907 15.7553 21.4948 15.1277L20.7249 13.3231C20.5641 12.9461 20.7394 12.5102 21.1162 12.3493C21.4933 12.1885 21.9293 12.3637 22.0901 12.7407L22.8742 14.5787C22.8834 14.6004 22.8916 14.6226 22.8988 14.645C23.148 15.4283 23.2743 16.2453 23.2743 17.0733V20.9325C23.2743 23.0392 22.462 25.0316 20.9869 26.5426C19.518 28.0473 17.5565 28.9071 15.4625 28.9647L13.2757 29.1042C13.2596 29.1051 13.2436 29.1056 13.2278 29.1056Z" fill="#64A627"/>
<path d="M20.6554 26.0197C20.6554 25.5094 20.6792 25.007 20.7261 24.5088C20.494 24.8633 20.2272 25.196 19.9247 25.5057C18.7239 26.7357 17.1205 27.4372 15.4098 27.4812C15.4004 27.4814 15.391 27.4819 15.3816 27.4825L15.21 27.4935C15.2469 27.9934 15.3124 28.4853 15.4037 28.9684L15.4623 28.9646C17.4131 28.911 19.2473 28.1626 20.677 26.8435C20.6634 26.5711 20.6554 26.2954 20.6554 26.0197Z" fill="#79C930"/>
<path d="M21.7902 17.0703V20.1005C22.1904 19.0992 22.6894 18.1478 23.2744 17.2576V17.0703C23.2744 16.2423 23.1481 15.4253 22.8989 14.6421C22.8918 14.6196 22.8836 14.5975 22.8743 14.5758L22.8583 14.5384C22.4008 14.7489 21.9573 14.9848 21.5298 15.2446C21.7019 15.8356 21.7902 16.4488 21.7902 17.0703Z" fill="#79C930"/>
<path d="M26.1339 17.9891C25.7241 17.9891 25.3918 17.6568 25.3918 17.247V17.222C25.3918 16.1007 25.2132 14.9971 24.8609 13.9406L23.7704 11.6605C23.5935 11.2907 23.7498 10.8477 24.1195 10.6708C24.4894 10.4938 24.9323 10.6504 25.1092 11.02L26.2195 13.3411C26.2323 13.3679 26.2435 13.3954 26.253 13.4236C26.6664 14.646 26.876 15.924 26.876 17.222V17.247C26.876 17.6568 26.5437 17.9891 26.1339 17.9891Z" fill="#64A627"/>
<path d="M24.8049 13.8229L24.861 13.9404C24.9695 14.2655 25.0611 14.5937 25.1365 14.927C25.5261 14.5226 25.9367 14.1388 26.3665 13.7769C26.3385 13.6846 26.3091 13.593 26.2788 13.5013C25.7781 13.5807 25.2854 13.6886 24.8049 13.8229Z" fill="#79C930"/>
<path d="M0.742215 27.297C0.433504 27.297 0.145275 27.1029 0.0399965 26.7944C-0.0923931 26.4066 0.114602 25.9848 0.502568 25.8524L2.12172 25.2997C3.00709 24.9974 3.60195 24.1657 3.60195 23.2301V17.0719C3.60195 14.0046 4.7893 11.1082 6.94543 8.91601C9.09879 6.72653 11.97 5.4909 15.03 5.43658C18.7295 5.37127 22.2789 7.12538 24.5218 10.1293C24.5295 10.1396 24.5368 10.1501 24.544 10.1607L25.7001 11.8895C25.928 12.2302 25.8365 12.6911 25.4958 12.9189C25.1553 13.1467 24.6942 13.0552 24.4665 12.7145L23.3211 11.0022C21.3624 8.38922 18.2755 6.8608 15.0562 6.92066C12.3873 6.96796 9.88263 8.04617 8.00355 9.95682C6.1222 11.8696 5.08614 14.3965 5.08614 17.072V23.2302C5.08614 24.8009 4.08747 26.1969 2.60111 26.7043L0.981961 27.257C0.902507 27.2841 0.821669 27.297 0.742215 27.297Z" fill="#79C930"/>
<path d="M29.7358 21.6736C29.326 21.6736 28.9937 21.3413 28.9937 20.9315V17.0723C28.9937 15.8949 28.8441 14.7255 28.5489 13.5964L27.9577 11.8822C27.8241 11.4948 28.0299 11.0724 28.4173 10.9387C28.8049 10.8051 29.2272 11.0108 29.3609 11.3983L29.9612 13.1388C29.9672 13.1563 29.9726 13.1739 29.9772 13.1917C30.3094 14.4524 30.4779 15.758 30.4779 17.0722V20.9314C30.4779 21.3413 30.1456 21.6736 29.7358 21.6736Z" fill="#64A627"/>
<path d="M28.7421 12.6214C28.4599 12.6214 28.1903 12.4597 28.066 12.1861L27.215 10.3126C24.7692 5.99711 20.1834 3.31766 15.239 3.31766C13.8196 3.31766 12.4182 3.53475 11.0739 3.96289C10.6834 4.08706 10.2659 3.87146 10.1416 3.48092C10.0173 3.09038 10.233 2.67303 10.6236 2.54865C12.1137 2.07411 13.6666 1.83337 15.2391 1.83337C20.7288 1.83337 25.8192 4.81382 28.5237 9.61141C28.5343 9.63011 28.5441 9.6493 28.5529 9.66899L29.4174 11.5721C29.5869 11.9452 29.4217 12.3852 29.0486 12.5547C28.9491 12.6 28.8448 12.6214 28.7421 12.6214Z" fill="#79C930"/>
<path d="M14.4416 32.7765C14.0773 32.7765 13.7594 32.5082 13.7077 32.137C13.651 31.7311 13.9341 31.3561 14.3399 31.2994L16.1859 31.0414C16.1965 31.0399 16.207 31.0386 16.2176 31.0377C18.0809 30.8587 19.8579 30.1639 21.3565 29.0285C21.9988 28.5418 22.8204 28.3766 23.6104 28.5756L28.166 29.7227C28.5634 29.8227 28.8045 30.226 28.7044 30.6235C28.6044 31.0209 28.2009 31.2621 27.8036 31.1619L23.248 30.0149C22.8971 29.9265 22.5342 29.9981 22.2527 30.2115C20.5389 31.5098 18.5071 32.3056 16.3757 32.5134L14.5453 32.7692C14.5104 32.7741 14.4758 32.7765 14.4416 32.7765Z" fill="#64A627"/>
<path d="M16.6077 32.487C18.3076 32.2865 19.9374 31.7139 21.3875 30.8078C21.2319 30.3125 21.0991 29.8065 20.9916 29.2919C19.5726 30.2721 17.9325 30.873 16.2175 31.0378C16.2069 31.0388 16.1963 31.0401 16.1858 31.0416L15.9861 31.0695C16.166 31.5561 16.3738 32.0292 16.6077 32.487Z" fill="#79C930"/>
<path d="M14.9703 32.776C14.916 32.776 14.8609 32.77 14.8057 32.7575L12.2566 32.18C12.2471 32.1779 12.2377 32.1755 12.2284 32.1731C10.8264 31.7972 9.52001 31.1672 8.34562 30.3009C7.97507 30.0276 7.50993 29.9285 7.06912 30.0288L2.08097 31.1653C1.68113 31.2564 1.28356 31.0062 1.19253 30.6067C1.1015 30.207 1.35154 29.8093 1.75118 29.7182L6.73934 28.5817C7.60165 28.3851 8.50819 28.5765 9.22664 29.1065C10.2474 29.8594 11.382 30.4076 12.5989 30.7357L15.1337 31.3101C15.5334 31.4006 15.7841 31.7981 15.6934 32.1978C15.6154 32.5422 15.3093 32.776 14.9703 32.776Z" fill="#79C930"/>
<path d="M15.7987 36.292C15.7736 36.292 15.7483 36.2907 15.7229 36.2881L14.19 36.1325C12.1791 35.9951 10.2477 35.4697 8.44897 34.5708C8.41058 34.5516 8.37031 34.5461 8.33558 34.5552L5.46011 35.3073C5.06333 35.4111 4.65815 35.1736 4.55436 34.7771C4.45066 34.3806 4.68803 33.9752 5.08451 33.8714L7.95998 33.1193C8.3429 33.0189 8.75214 33.0631 9.1124 33.2431C10.7382 34.0555 12.4844 34.5296 14.3026 34.6524C14.3109 34.6529 14.3192 34.6537 14.3275 34.6545L15.8727 34.8113C16.2804 34.8527 16.5775 35.2168 16.536 35.6246C16.4972 36.007 16.1749 36.292 15.7987 36.292Z" fill="#79C930"/>
<path d="M15.2389 39.7714C13.0108 39.7714 10.8264 39.383 8.74632 38.6171C8.36172 38.4755 8.16481 38.0488 8.3064 37.6642C8.448 37.2796 8.87455 37.0824 9.25925 37.2243C11.1744 37.9295 13.1863 38.2872 15.2389 38.2872C15.9252 38.2872 16.6167 38.2464 17.2942 38.166L20.9171 37.6312C21.3221 37.5708 21.6997 37.8515 21.7596 38.2569C21.8194 38.6623 21.5393 39.0396 21.1338 39.0995L17.5007 39.6359C17.4939 39.6368 17.4871 39.6378 17.4803 39.6386C16.7413 39.7267 15.9872 39.7714 15.2389 39.7714Z" fill="#79C930"/>
<path d="M15.2391 43.3738C13.3098 43.3738 11.388 43.1252 9.52679 42.6349C9.24727 42.5613 9.03602 42.3321 8.98526 42.0476L8.98308 42.0351C8.91115 41.6316 9.17988 41.2462 9.58339 41.1743C9.73833 41.1467 9.89101 41.1693 10.024 41.2307C11.7247 41.6679 13.4786 41.8897 15.2392 41.8897C17.0511 41.8897 20.5832 41.1845 20.6186 41.1774L24.8185 40.3438C25.2203 40.2644 25.611 40.5252 25.6908 40.9272C25.7706 41.3292 25.5094 41.7198 25.1074 41.7995L20.9092 42.6327C20.7603 42.6627 17.1987 43.3738 15.2391 43.3738Z" fill="#79C930"/>
<path d="M17.1849 36.1367C16.855 36.1367 16.5539 35.9151 16.4671 35.581C16.3641 35.1843 16.6022 34.7791 16.9989 34.6761L18.189 34.367C18.1976 34.3648 18.2062 34.3627 18.2149 34.3608C19.316 34.1167 20.3834 33.7373 21.3873 33.2334C21.7199 33.0662 22.1006 33.0152 22.4592 33.0895L24.5213 33.517C24.9226 33.6003 25.1805 33.9931 25.0973 34.3943C25.0141 34.7956 24.6211 35.0534 24.22 34.9703L22.1577 34.5427C22.1252 34.5361 22.0882 34.542 22.0532 34.5596C20.9438 35.1165 19.7651 35.5361 18.5491 35.8068L17.3718 36.1125C17.3093 36.1289 17.2466 36.1367 17.1849 36.1367Z" fill="#64A627"/>
<path d="M18.93 35.7158C20.0111 35.4457 21.0602 35.0581 22.0533 34.5596C22.0883 34.542 22.1254 34.5361 22.1578 34.5427L23.2689 34.773C22.9097 34.2258 22.5829 33.6549 22.2916 33.064C21.9838 33.0335 21.6687 33.0919 21.3873 33.2333C20.3834 33.7372 19.316 34.1165 18.2149 34.3606C18.2062 34.3626 18.1976 34.3647 18.189 34.3669L17.8442 34.4564C18.1798 34.8988 18.5426 35.3193 18.93 35.7158Z" fill="#79C930"/>
<path d="M28.3471 9.97571C37.4808 9.97571 44.8849 17.3798 44.8849 26.5135C44.8849 35.6472 37.4808 43.0513 28.3471 43.0513C19.2134 43.0513 11.8093 35.6472 11.8093 26.5135C11.8093 17.3798 19.2134 9.97571 28.3471 9.97571ZM41.5208 26.5135C41.5208 19.2499 35.6108 13.3399 28.3471 13.3399C21.0835 13.3399 15.1735 19.2499 15.1735 26.5135C15.1735 33.7771 21.0835 39.6872 28.3471 39.6872C35.6108 39.6872 41.5208 33.7771 41.5208 26.5135Z" fill="#F2C94C"/>
<path d="M0.742094 21.6739C0.33226 21.6739 0 21.3416 0 20.9318V17.0726C0 14.3882 0.711223 11.7467 2.05659 9.43386C3.36109 7.19135 5.22899 5.30356 7.45814 3.97462C7.81019 3.76456 8.26574 3.88003 8.4756 4.23198C8.68547 4.58403 8.57029 5.03958 8.21814 5.24944C6.2047 6.44975 4.51777 8.15479 3.33952 10.1802C2.12575 12.2667 1.48419 14.65 1.48419 17.0726V20.9318C1.48419 21.3416 1.15193 21.6739 0.742094 21.6739Z" fill="#79C930"/>
<path d="M29.7358 27.2972C29.6562 27.2972 29.5754 27.2843 29.4959 27.2572L27.8768 26.7045C26.3905 26.1972 25.3918 24.8011 25.3918 23.2304V20.5324C25.3918 20.1225 25.7241 19.7903 26.1339 19.7903C26.5438 19.7903 26.876 20.1225 26.876 20.5324V23.2304C26.876 24.1661 27.4709 24.9977 28.3563 25.2999L29.9754 25.8527C30.3633 25.9851 30.5704 26.4069 30.4379 26.7947C30.3328 27.1031 30.0445 27.2972 29.7358 27.2972Z" fill="#64A627"/>
<path d="M9.38586 26.0177C9.15927 26.0177 8.93566 25.9144 8.79001 25.7186C7.75217 24.3241 7.20361 22.6683 7.20361 20.9304V17.0712C7.20361 12.6405 10.8082 9.03589 15.2389 9.03589C16.2262 9.03589 17.194 9.21567 18.1155 9.5701C18.4981 9.71723 18.6888 10.1467 18.5417 10.5292C18.3946 10.9116 17.9649 11.1025 17.5826 10.9553C16.8318 10.6665 16.0432 10.5201 15.2389 10.5201C11.6266 10.5201 8.6878 13.4589 8.6878 17.0712V20.9304C8.6878 22.3467 9.13484 23.696 9.98062 24.8324C10.2253 25.1612 10.1571 25.626 9.82835 25.8708C9.69526 25.9699 9.53992 26.0177 9.38586 26.0177Z" fill="#79C930"/>
</g>
<defs>
<clipPath id="clip0">
<rect width="50" height="50" fill="white"/>
</clipPath>
</defs>
</svg>
