<svg width="50" height="50" viewBox="0 0 50 50" fill="none" xmlns="http://www.w3.org/2000/svg">
<g clip-path="url(#clip0)">
<path d="M21.5527 23.9933L23.9907 21.5554L30.0977 27.6624L27.6598 30.1003L21.5527 23.9933Z" fill="#D5C69A"/>
<path d="M5.17239 41.3793H17.2414C18.6697 41.3793 19.8276 42.5372 19.8276 43.9655V47.4138H2.58618V43.9655C2.58618 42.5372 3.74407 41.3793 5.17239 41.3793Z" fill="#F2C94C"/>
<path d="M28.2671 20.9481L20.9481 28.2671C20.6247 28.5909 20.1859 28.7728 19.7283 28.7728C19.2707 28.7728 18.8319 28.5909 18.5085 28.2671L17.293 27.043L20.7412 20.5775L27.043 17.293L28.2671 18.5085C28.5909 18.8319 28.7728 19.2707 28.7728 19.7283C28.7728 20.1859 28.5909 20.6247 28.2671 20.9481Z" fill="#DDBC5C"/>
<path d="M13.0257 32.5344L11.8016 33.7499C11.4653 34.0842 10.9223 34.0842 10.5861 33.7499L0.861932 23.9999C0.698732 23.838 0.606934 23.6177 0.606934 23.3878C0.606934 23.158 0.698732 22.9376 0.861932 22.7758L2.05159 21.5516C3.0613 20.5432 4.69704 20.5432 5.70676 21.5516L10.2326 24.3447L13.0257 28.862C13.5153 29.3476 13.7907 30.0086 13.7907 30.6982C13.7907 31.3878 13.5153 32.0488 13.0257 32.5344Z" fill="#CCA530"/>
<path d="M32.5345 13.0258L33.75 11.8016C34.0843 11.4654 34.0843 10.9224 33.75 10.5861L24 0.861993C23.8382 0.698793 23.6178 0.606995 23.388 0.606995C23.1581 0.606995 22.9378 0.698793 22.7759 0.861993L21.5518 2.05165C20.5433 3.06136 20.5433 4.6971 21.5518 5.70682L23.8362 10.1551L28.8621 13.0258C29.3477 13.5154 30.0087 13.7908 30.6983 13.7908C31.3879 13.7908 32.0489 13.5154 32.5345 13.0258Z" fill="#CCA530"/>
<path d="M1.72414 45.6898H20.6897C21.6419 45.6898 22.4138 46.4617 22.4138 47.414V49.1381C22.4138 49.6142 22.0278 50.0002 21.5517 50.0002H0.862069C0.385961 50.0002 0 49.6142 0 49.1381V47.414C0 46.4617 0.771923 45.6898 1.72414 45.6898Z" fill="#CCA530"/>
<path d="M19.8276 37.9313C19.3515 37.9313 18.9656 37.5454 18.9656 37.0693V33.621C18.9656 33.1449 19.3515 32.7589 19.8276 32.7589C20.3038 32.7589 20.6897 33.1449 20.6897 33.621V37.0693C20.6897 37.5454 20.3038 37.9313 19.8276 37.9313Z" fill="#56BA2E"/>
<path d="M26.7242 41.3794H23.2759C22.7998 41.3794 22.4138 40.9934 22.4138 40.5173C22.4138 40.0412 22.7998 39.6553 23.2759 39.6553H26.7242C27.2003 39.6553 27.5862 40.0412 27.5862 40.5173C27.5862 40.9934 27.2003 41.3794 26.7242 41.3794Z" fill="#56BA2E"/>
<path d="M22.4137 38.7934C22.1846 38.7947 21.9643 38.7047 21.8016 38.5434C21.6384 38.3815 21.5466 38.1612 21.5466 37.9313C21.5466 37.7014 21.6384 37.4811 21.8016 37.3192L24.3878 34.733C24.7259 34.395 25.2739 34.395 25.612 34.733C25.95 35.0711 25.95 35.6191 25.612 35.9572L23.0258 38.5434C22.8631 38.7047 22.6428 38.7947 22.4137 38.7934Z" fill="#56BA2E"/>
<path d="M28.8708 15.4654L15.4656 28.8706C15.1422 29.1943 14.7034 29.3762 14.2458 29.3762C13.7882 29.3762 13.3494 29.1943 13.026 28.8706L7.54321 23.3878L12.5605 15.3447L15.0001 12.9309L23.388 7.56885L28.8708 13.0516C29.528 13.722 29.528 14.795 28.8708 15.4654Z" fill="#F2C94C"/>
<path d="M23.3879 7.54329L12.4137 18.5088L9.97408 20.9485L7.54305 23.3881L5.70684 21.5519C5.38308 21.2285 5.20117 20.7897 5.20117 20.3321C5.20117 19.8745 5.38308 19.4357 5.70684 19.1123L19.1206 5.70708C19.444 5.38333 19.8829 5.20142 20.3405 5.20142C20.7981 5.20142 21.2369 5.38333 21.5603 5.70708L23.3879 7.54329Z" fill="#D8B445"/>
<path d="M48.9914 44.1118L47.1639 42.2842L44.7242 39.8445L33.138 28.2669L30.7069 25.8617C30.3835 25.538 29.9447 25.3561 29.4871 25.3561C29.0295 25.3561 28.5907 25.538 28.2673 25.8617L25.8621 28.2669C25.5384 28.5903 25.3564 29.0291 25.3564 29.4868C25.3564 29.9444 25.5384 30.3832 25.8621 30.7066L28.3018 33.1462L39.8449 44.7238L42.2845 47.1635L44.1121 48.9911C44.9837 49.8627 46.2541 50.2031 47.4448 49.8841C48.6354 49.565 49.5654 48.635 49.8844 47.4444C50.2034 46.2538 49.8631 44.9834 48.9914 44.1118Z" fill="#CCA530"/>
<path d="M33.138 28.2669L28.2673 33.1376L25.8621 30.7066C25.5384 30.3832 25.3564 29.9444 25.3564 29.4867C25.3564 29.0291 25.5384 28.5903 25.8621 28.2669L28.2673 25.8617C28.5907 25.538 29.0295 25.3561 29.4871 25.3561C29.9447 25.3561 30.3835 25.538 30.7069 25.8617L33.138 28.2669Z" fill="#F3D55B"/>
<path d="M39.8293 44.7192L44.7052 39.8434L47.1431 42.2813L42.2673 47.1572L39.8293 44.7192Z" fill="#D4C69A"/>
<path d="M48.9913 48.9913C48.3445 49.6388 47.4669 50.0027 46.5517 50.0027C45.6365 50.0027 44.7588 49.6388 44.112 48.9913L42.2844 47.1637L47.1637 42.2844L48.9913 44.112C49.6388 44.7588 50.0027 45.6365 50.0027 46.5517C50.0027 47.4669 49.6388 48.3445 48.9913 48.9913Z" fill="#CCA530"/>
</g>
<defs>
<clipPath id="clip0">
<rect width="50" height="50" fill="white"/>
</clipPath>
</defs>
</svg>
