<svg width="50" height="50" viewBox="0 0 50 50" fill="none" xmlns="http://www.w3.org/2000/svg">
<g clip-path="url(#clip0)">
<path d="M24.5763 50.0002C38.1494 50.0002 49.1525 38.997 49.1525 25.4239C49.1525 11.8508 38.1494 0.847633 24.5763 0.847633C11.0032 0.847633 0 11.8508 0 25.4239C0 38.997 11.0032 50.0002 24.5763 50.0002Z" fill="#285680"/>
<path d="M24.5763 0.847633C21.161 0.847633 17.9102 1.54509 14.9551 2.80357C14.8204 3.6078 14.1483 4.98153 14.1687 5.41967C14.2636 5.43831 20.417 -0.851519 19.6534 3.39424C19.161 6.12729 14.1305 6.11119 14.3466 8.86289C19.6314 10.9349 21.4746 4.92899 25.9636 4.95357C27.461 4.96204 31.2958 2.59424 32.0271 3.07645C34.9899 5.02814 31.35 11.9468 29.0831 9.64424C26.9034 7.46458 23.7932 10.4078 23.9331 13.807C25.0661 13.8578 25.55 10.59 26.5687 11.6798C27.6907 12.8807 27.2856 15.2985 25.7331 15.8536C24.1704 16.412 18.0407 11.7095 19.5466 15.2739C21.2026 19.2298 14.5856 22.2866 21.2653 20.6917C24.4144 19.9366 23.3678 22.3332 24.8534 23.4764C26.6229 24.8349 25.8399 21.6002 27.1297 22.0925C29.0068 22.8188 26.8068 24.69 29.7466 23.3315C33.1949 21.7586 31.8992 24.2112 32.9551 25.8146C34.9348 28.8078 39.8 31.6807 42.35 27.7248C42.9509 26.7917 42.5653 19.4137 46.35 24.3629C48.7534 27.507 47.9288 20.6485 48.2543 18.8468C45.3788 8.46882 35.8704 0.847633 24.5763 0.847633Z" fill="#24AE5F"/>
<path d="M27.8975 36.5102L23.3653 33.1136L20.3271 33.2331L17.1754 32.2416L14.7085 30.5407L9.11273 31.834L6.8051 32.9501L4.2373 36.4094L5.14578 40.4636C5.4051 40.7984 5.67375 41.1263 5.95002 41.4475L10.7026 43.6662L13.9102 44.0992L15.8187 48.0162L15.8763 48.4102C18.5814 49.4348 21.5127 50.0001 24.5763 50.0001C26.6898 50.0001 28.7407 49.7331 30.6983 49.2306L31.3432 45.3797L34.2746 43.0009L35.4924 39.2034L29.372 39.178L27.8975 36.5102Z" fill="#FAC176"/>
<path d="M0.317797 29.3622C0.434746 29.3521 0.45 29.3419 0.460169 29.3317C1.55932 28.2334 2.47458 28.0495 3.39068 26.4012C4.30678 24.7529 3.20763 24.7529 3.39068 22.0055C3.57373 19.258 3.20763 20.5402 3.39068 17.6097C3.45678 16.5555 3.34576 15.9758 2.06441 15.5614C0.739831 18.5817 0 21.9156 0 25.4241C0 26.7648 0.111017 28.0792 0.317797 29.3622Z" fill="#88C057"/>
<path d="M25.4237 45.7624C24.5059 45.692 21.1161 44.6327 20.339 43.22C19.5619 41.8073 17.867 39.4064 17.7966 39.8302C17.7483 40.1183 10.0754 37.5056 4.80425 35.6454L4.2373 36.409L5.14578 40.4632C5.4051 40.798 5.67375 41.1259 5.95002 41.4471L10.7026 43.6657L13.9102 44.0988L15.8187 48.0157L15.8763 48.4098C18.5814 49.4344 21.5127 49.9996 24.5763 49.9996C26.6898 49.9996 28.7407 49.7327 30.6983 49.2301L31.1873 46.3107C30.7559 46.1759 30.2585 45.9979 29.661 45.7624C27.3305 44.8446 26.3415 45.8327 25.4237 45.7624Z" fill="#FAC176"/>
<path d="M34.2745 43.0009L35.4923 39.2034L29.372 39.178L27.8966 36.5102L23.3644 33.1136L20.3262 33.2331L17.1745 32.2416L14.7076 30.5407L9.11183 31.834L6.80505 32.9501L4.8042 35.645C10.0754 37.506 17.7483 40.1187 17.7966 39.8306C17.8669 39.4068 19.5618 41.8077 20.3389 43.2204C21.1161 44.6331 24.5059 45.6924 25.4237 45.7628C26.3415 45.8331 27.3305 44.845 29.661 45.7628C30.2584 45.9984 30.7559 46.1763 31.1872 46.3111L31.3432 45.3797L34.2745 43.0009Z" fill="#88C057"/>
<path d="M29.9068 1.4343C27.3263 2.99363 24.5983 5.85379 27.9661 10.1699C27.9661 10.1699 23.3576 15.7843 29.661 17.797C29.661 17.797 33.4746 28.3377 40.678 16.9496C40.678 16.9496 39.7246 25.2657 44.9153 23.7292C46.9331 23.1318 48.0161 21.7174 48.5932 20.2123C46.5746 10.864 39.239 3.49871 29.9068 1.4343Z" fill="#FAC176"/>
<path d="M43.7261 21.3761C43.688 21.3761 43.6702 21.3719 43.6702 21.3719C43.2939 21.0134 43.0168 18.8702 43.2041 17.2389L38.5295 15.5906C36.6117 18.6219 35.0889 19.6982 34.3677 19.6982C33.5168 19.6982 32.3906 17.8711 32.0516 16.9321L31.6262 15.755L30.4346 15.3753C29.5914 15.1058 29.0084 14.7363 28.9126 14.4109C28.7151 13.7414 29.4711 12.3439 29.9321 11.7821L31.2228 10.21L29.9711 8.60496C29.427 7.9075 28.8109 6.89733 28.9685 6.04479C29.0787 5.44649 29.5762 4.79733 30.3931 4.17106C37.999 6.24649 43.9609 12.2939 45.9185 19.9406C45.516 20.6355 44.9651 21.0609 44.1939 21.2897C43.9439 21.3643 43.7939 21.3761 43.7261 21.3761C43.727 21.3761 43.727 21.3761 43.7261 21.3761Z" fill="#F18D46"/>
<path d="M44.0677 17.7967C44.5357 17.7967 44.9151 17.4173 44.9151 16.9493C44.9151 16.4812 44.5357 16.1018 44.0677 16.1018C43.5996 16.1018 43.2202 16.4812 43.2202 16.9493C43.2202 17.4173 43.5996 17.7967 44.0677 17.7967Z" fill="#E64C3C"/>
<path d="M33.0511 6.77958C33.5191 6.77958 33.8985 6.40016 33.8985 5.93212C33.8985 5.46408 33.5191 5.08466 33.0511 5.08466C32.583 5.08466 32.2036 5.46408 32.2036 5.93212C32.2036 6.40016 32.583 6.77958 33.0511 6.77958Z" fill="#E64C3C"/>
<path d="M32.2034 11.0173C32.6715 11.0173 33.0509 10.6378 33.0509 10.1698C33.0509 9.70176 32.6715 9.32234 32.2034 9.32234C31.7354 9.32234 31.356 9.70176 31.356 10.1698C31.356 10.6378 31.7354 11.0173 32.2034 11.0173Z" fill="#E64C3C"/>
<path d="M33.0511 15.2543C33.5191 15.2543 33.8985 14.8749 33.8985 14.4068C33.8985 13.9388 33.5191 13.5594 33.0511 13.5594C32.583 13.5594 32.2036 13.9388 32.2036 14.4068C32.2036 14.8749 32.583 15.2543 33.0511 15.2543Z" fill="#E64C3C"/>
<path d="M37.2879 18.6443C37.7559 18.6443 38.1353 18.2649 38.1353 17.7969C38.1353 17.3288 37.7559 16.9494 37.2879 16.9494C36.8198 16.9494 36.4404 17.3288 36.4404 17.7969C36.4404 18.2649 36.8198 18.6443 37.2879 18.6443Z" fill="#E64C3C"/>
<path d="M35.5747 13.6902C37.4649 16.0741 40.1864 17.0637 41.6534 15.9006C43.1204 14.7374 42.7774 11.8619 40.8873 9.47802C38.9971 7.09411 36.2756 6.10451 34.8086 7.26768C33.3416 8.43084 33.6846 11.3063 35.5747 13.6902Z" fill="#E64C3C"/>
<path d="M40.2543 14.4067C42.8285 14.4067 44.9153 12.3199 44.9153 9.74568C44.9153 7.17147 42.8285 5.08466 40.2543 5.08466C37.6801 5.08466 35.5933 7.17147 35.5933 9.74568C35.5933 12.3199 37.6801 14.4067 40.2543 14.4067Z" fill="#F0C419"/>
<path d="M49.1526 7.62721C49.6207 7.62721 50.0001 7.24779 50.0001 6.77975C50.0001 6.31172 49.6207 5.9323 49.1526 5.9323C48.6846 5.9323 48.3052 6.31172 48.3052 6.77975C48.3052 7.24779 48.6846 7.62721 49.1526 7.62721Z" fill="#F0C419"/>
<path d="M47.4578 9.322C47.9258 9.322 48.3053 8.94258 48.3053 8.47454C48.3053 8.0065 47.9258 7.62708 47.4578 7.62708C46.9898 7.62708 46.6104 8.0065 46.6104 8.47454C46.6104 8.94258 46.9898 9.322 47.4578 9.322Z" fill="#F0C419"/>
<path d="M49.1526 1.69492C49.6207 1.69492 50.0001 1.3155 50.0001 0.847458C50.0001 0.37942 49.6207 0 49.1526 0C48.6846 0 48.3052 0.37942 48.3052 0.847458C48.3052 1.3155 48.6846 1.69492 49.1526 1.69492Z" fill="#F0C419"/>
<path d="M47.4578 3.3897C47.9258 3.3897 48.3053 3.01028 48.3053 2.54224C48.3053 2.07421 47.9258 1.69479 47.4578 1.69479C46.9898 1.69479 46.6104 2.07421 46.6104 2.54224C46.6104 3.01028 46.9898 3.3897 47.4578 3.3897Z" fill="#F0C419"/>
<path d="M45.7625 5.08468C46.2305 5.08468 46.61 4.70526 46.61 4.23722C46.61 3.76918 46.2305 3.38976 45.7625 3.38976C45.2945 3.38976 44.915 3.76918 44.915 4.23722C44.915 4.70526 45.2945 5.08468 45.7625 5.08468Z" fill="#F0C419"/>
<path d="M44.0677 6.77958C44.5357 6.77958 44.9151 6.40016 44.9151 5.93212C44.9151 5.46408 44.5357 5.08466 44.0677 5.08466C43.5996 5.08466 43.2202 5.46408 43.2202 5.93212C43.2202 6.40016 43.5996 6.77958 44.0677 6.77958Z" fill="#F0C419"/>
<path d="M43.2205 1.69492C43.6885 1.69492 44.068 1.3155 44.068 0.847458C44.068 0.37942 43.6885 0 43.2205 0C42.7525 0 42.373 0.37942 42.373 0.847458C42.373 1.3155 42.7525 1.69492 43.2205 1.69492Z" fill="#F0C419"/>
<path d="M41.5252 3.3897C41.9932 3.3897 42.3727 3.01028 42.3727 2.54224C42.3727 2.07421 41.9932 1.69479 41.5252 1.69479C41.0572 1.69479 40.6777 2.07421 40.6777 2.54224C40.6777 3.01028 41.0572 3.3897 41.5252 3.3897Z" fill="#F0C419"/>
</g>
<defs>
<clipPath id="clip0">
<rect width="50" height="50" fill="white"/>
</clipPath>
</defs>
</svg>
