<svg width="50" height="50" viewBox="0 0 50 50" fill="none" xmlns="http://www.w3.org/2000/svg">
<g clip-path="url(#clip0)">
<path d="M46.3434 5.41317C48.1627 5.90063 49.2424 7.77063 48.7548 9.58991L38.6045 47.4718C38.117 49.2911 36.247 50.3708 34.4277 49.8832L14.6632 44.5872C12.844 44.0998 11.7643 42.2298 12.2518 40.4105L22.4022 2.52871C22.8897 0.709438 24.7597 -0.370235 26.579 0.117328L46.3434 5.41317Z" fill="#F5F9EC"/>
<path d="M31.047 10.4384H20.2825L12.2518 40.4102C11.7643 42.2294 12.8441 44.0994 14.6634 44.5869L34.4278 49.8825C36.2469 50.3699 38.1169 49.2906 38.6044 47.4713L44.8335 24.2246L31.047 10.4384Z" fill="#D9E9FB"/>
<path d="M46.3435 5.41319C48.1628 5.90064 49.2424 7.77065 48.7549 9.58992L44.3416 26.0603L17.9893 18.9992L22.4025 2.52884C22.8899 0.70956 24.7599 -0.370113 26.5792 0.11745L46.3435 5.41319Z" fill="#BDD2F9"/>
<path d="M23.7807 43.4962L26.8696 31.9675L25.2226 31.5262L22.1337 43.0549L23.7807 43.4962Z" fill="#4982D2"/>
<path d="M27.7527 28.6755L28.6353 25.3816L26.9883 24.9403L26.1057 28.2342L27.7527 28.6755Z" fill="#4982D2"/>
<path d="M32.6975 29.9946L33.5801 26.7007L31.9331 26.2595L31.0506 29.5533L32.6975 29.9946Z" fill="#4982D2"/>
<path d="M37.634 31.3202L38.5166 28.0264L36.8696 27.5851L35.987 30.879L37.634 31.3202Z" fill="#4982D2"/>
<path d="M28.7187 44.8214L31.8076 33.2928L30.1606 32.8515L27.0717 44.3801L28.7187 44.8214Z" fill="#4982D2"/>
<path d="M33.6654 46.147L36.7544 34.6184L35.1074 34.1771L32.0184 45.7057L33.6654 46.147Z" fill="#4982D2"/>
<path d="M40.5196 7.38327L39.1078 7.00494L34.0654 11.7062C32.7439 11.3522 31.2615 10.9549 31.0068 10.8867C30.0657 10.6345 28.9984 10.8529 28.8723 11.3234C28.7462 11.794 29.5613 12.5168 30.5024 12.769C30.757 12.8372 32.2395 13.2344 33.561 13.5885L35.5772 20.1812L36.989 20.5595L36.855 14.4712C37.7824 14.7197 38.7289 14.9733 39.3494 15.1395L40.4455 17.0724L41.3866 17.3246L41.2249 14.6332L42.7107 12.3834L41.7696 12.1312L39.8539 13.2572C39.2335 13.0909 38.287 12.8373 37.3595 12.5889L40.5196 7.38327Z" fill="#F5F9EC"/>
<path d="M17.9893 18.9987L44.3419 26.0598L44.8335 24.2248L31.0471 10.4384H20.283L17.9893 18.9987Z" fill="#BDD2F9"/>
<path d="M31.0066 10.8863C30.0654 10.634 28.998 10.8525 28.8723 11.323C28.7462 11.7936 29.5609 12.5165 30.5025 12.7686C30.7568 12.8369 32.2393 13.2342 33.5606 13.5882L35.5771 20.181L36.9888 20.5592L36.8951 16.2863L31.6735 11.065C31.3422 10.9762 31.0961 10.9102 31.0066 10.8863Z" fill="#E4E8DB"/>
<path d="M28.226 0.558639L16.3103 45.0287L14.6632 44.5873C12.844 44.0999 11.7643 42.2299 12.2518 40.4106L22.4023 2.52871C22.8898 0.709438 24.7598 -0.370235 26.5791 0.117328L28.226 0.558639Z" fill="#F2C94C"/>
<path d="M31.8204 43.2835C31.8204 45.1669 30.2936 46.6938 28.4102 46.6938H2.83307C1.8913 46.6938 1.12793 45.9304 1.12793 44.9886V10.8859C1.12793 9.94409 1.8913 9.18073 2.83307 9.18073H28.4102C30.2936 9.18073 31.8204 10.7076 31.8204 12.591V43.2835Z" fill="#56BA2E"/>
<path d="M16.4745 14.2961C10.8242 14.2961 6.24365 18.8766 6.24365 24.5269C6.24365 30.1772 10.8242 34.7577 16.4745 34.7577C22.1248 34.7577 26.7053 30.1772 26.7053 24.5269C26.7053 18.8766 22.1249 14.2961 16.4745 14.2961ZM24.0461 20.6904H20.3589C20.0063 18.9234 19.4555 17.4952 18.8931 16.3934C21.1461 17.0658 22.9958 18.6281 24.0461 20.6904ZM19.0322 24.5269C19.0322 25.288 18.9752 25.9873 18.8969 26.6583H14.0524C13.9738 25.9873 13.9167 25.2879 13.9167 24.5269C13.9167 23.7655 13.9728 23.0664 14.0507 22.3955H18.8984C18.976 23.0664 19.0322 23.7656 19.0322 24.5269ZM14.3352 20.6904C14.8086 18.5537 15.5895 17.0015 16.2264 16.0262C16.3105 16.0237 16.3896 16.0012 16.4745 16.0012C16.5603 16.0012 16.6397 16.0241 16.725 16.0266C17.3649 17.0082 18.143 18.5611 18.6141 20.6904H14.3352ZM14.0559 16.3934C13.4955 17.4929 12.9443 18.9227 12.5914 20.6904H8.90292C9.95329 18.6281 11.8028 17.0662 14.0559 16.3934ZM8.25145 22.3955H12.3324C12.2612 23.0707 12.2116 23.773 12.2116 24.5269C12.2116 25.2812 12.2625 25.9827 12.3348 26.6583H8.25135C8.07316 25.9731 7.94869 25.2672 7.94869 24.5269C7.94879 23.7868 8.07327 23.0807 8.25145 22.3955ZM8.90292 28.3635H12.5955C12.9519 30.1344 13.5034 31.5748 14.0534 32.6597C11.8017 31.9869 9.95286 30.425 8.90292 28.3635ZM16.2264 33.0277C15.6153 32.0877 14.8193 30.5313 14.3373 28.3635H18.6119C18.1306 30.5299 17.3355 32.0856 16.7224 33.0277C16.6383 33.0301 16.5596 33.0526 16.4747 33.0526C16.3898 33.0526 16.3109 33.0302 16.2264 33.0277ZM18.8965 32.6597C19.4473 31.5737 19.9985 30.1345 20.354 28.3635H24.0462C22.9962 30.4249 21.1478 31.9865 18.8965 32.6597ZM24.6976 26.6583H20.6146C20.6866 25.9827 20.7373 25.2812 20.7373 24.5269C20.7373 23.773 20.6882 23.0707 20.617 22.3955H24.6975C24.8757 23.0807 25.0002 23.7867 25.0002 24.5269C25.0002 25.2672 24.8757 25.9732 24.6976 26.6583Z" fill="white"/>
<path d="M7.36279 41.5807V39.1396H8.28367C8.44577 39.1396 8.5695 39.1474 8.65497 39.1629C8.77486 39.183 8.87525 39.221 8.95635 39.277C9.03735 39.333 9.10257 39.4117 9.15202 39.5126C9.20136 39.6136 9.22608 39.7247 9.22608 39.8456C9.22608 40.0532 9.16001 40.229 9.02797 40.3726C8.89582 40.5165 8.65721 40.5882 8.31192 40.5882H7.68581V41.5807H7.36279ZM7.68581 40.3001H8.31692C8.52559 40.3001 8.67383 40.2614 8.76154 40.1836C8.84925 40.1059 8.89305 39.9965 8.89305 39.8555C8.89305 39.7534 8.86726 39.6661 8.81557 39.5933C8.76399 39.5206 8.69589 39.4725 8.61159 39.4492C8.55714 39.4348 8.45675 39.4275 8.31021 39.4275H7.68581V40.3001Z" fill="white"/>
<path d="M9.11621 41.5807L10.0537 39.1396H10.4018L11.4009 41.5807H11.0329L10.7481 40.8413H9.7274L9.45926 41.5807H9.11621ZM9.82054 40.5782H10.6482L10.3934 39.9021C10.3157 39.6967 10.2579 39.528 10.2202 39.3959C10.1891 39.5524 10.1453 39.7079 10.0887 39.8621L9.82054 40.5782Z" fill="white"/>
<path d="M11.5488 40.7971L11.8535 40.7705C11.8679 40.8926 11.9015 40.9928 11.9542 41.071C12.007 41.1492 12.0888 41.2125 12.1999 41.2608C12.3109 41.3091 12.4357 41.3333 12.5746 41.3333C12.6978 41.3333 12.8066 41.3149 12.901 41.2783C12.9953 41.2416 13.0655 41.1915 13.1117 41.1276C13.1577 41.0637 13.1808 40.9941 13.1808 40.9186C13.1808 40.842 13.1586 40.7751 13.1141 40.7179C13.0697 40.6608 12.9965 40.6128 12.8943 40.5738C12.8287 40.5484 12.6839 40.5087 12.4597 40.4548C12.2355 40.401 12.0784 40.3502 11.9884 40.3024C11.8718 40.2414 11.785 40.1657 11.7279 40.0751C11.6706 39.9846 11.6421 39.8833 11.6421 39.7711C11.6421 39.6479 11.677 39.5328 11.7469 39.4256C11.8169 39.3185 11.9189 39.2372 12.0533 39.1817C12.1876 39.1262 12.3369 39.0984 12.5013 39.0984C12.6822 39.0984 12.8417 39.1275 12.98 39.1858C13.1182 39.2441 13.2244 39.3299 13.2988 39.4431C13.3732 39.5564 13.4132 39.6846 13.4187 39.8277L13.109 39.8511C13.0924 39.6968 13.036 39.5803 12.94 39.5014C12.844 39.4226 12.7021 39.3832 12.5146 39.3832C12.3192 39.3832 12.1769 39.419 12.0874 39.4906C11.998 39.5623 11.9534 39.6486 11.9534 39.7496C11.9534 39.8373 11.985 39.9095 12.0483 39.966C12.1105 40.0226 12.2728 40.0807 12.5354 40.1401C12.7978 40.1995 12.9779 40.2514 13.0757 40.2958C13.2177 40.3613 13.3226 40.4443 13.3904 40.5447C13.4581 40.6452 13.4919 40.761 13.4919 40.8919C13.4919 41.0219 13.4547 41.1442 13.3804 41.2591C13.306 41.374 13.1991 41.4634 13.0598 41.5272C12.9204 41.591 12.7636 41.6229 12.5894 41.6229C12.3685 41.6229 12.1834 41.5906 12.034 41.5264C11.8847 41.462 11.7676 41.3651 11.6827 41.2357C11.598 41.1066 11.5533 40.9603 11.5488 40.7971Z" fill="white"/>
<path d="M13.8237 40.7971L14.1284 40.7705C14.1428 40.8926 14.1764 40.9928 14.2291 41.071C14.2819 41.1492 14.3637 41.2125 14.4748 41.2608C14.5858 41.3091 14.7106 41.3333 14.8495 41.3333C14.9727 41.3333 15.0815 41.3149 15.1759 41.2783C15.2702 41.2416 15.3405 41.1915 15.3866 41.1276C15.4326 41.0637 15.4557 40.9941 15.4557 40.9186C15.4557 40.842 15.4335 40.7751 15.389 40.7179C15.3446 40.6608 15.2714 40.6128 15.1692 40.5738C15.1037 40.5484 14.9588 40.5087 14.7346 40.4548C14.5104 40.401 14.3533 40.3502 14.2633 40.3024C14.1467 40.2414 14.0599 40.1657 14.0028 40.0751C13.9455 39.9846 13.917 39.8833 13.917 39.7711C13.917 39.6479 13.9519 39.5328 14.0218 39.4256C14.0918 39.3185 14.1939 39.2372 14.3282 39.1817C14.4625 39.1262 14.6118 39.0984 14.7762 39.0984C14.9571 39.0984 15.1167 39.1275 15.2549 39.1858C15.3931 39.2441 15.4994 39.3299 15.5737 39.4431C15.6481 39.5564 15.6881 39.6846 15.6936 39.8277L15.3839 39.8511C15.3673 39.6968 15.3109 39.5803 15.2149 39.5014C15.1189 39.4226 14.977 39.3832 14.7895 39.3832C14.5941 39.3832 14.4518 39.419 14.3623 39.4906C14.2729 39.5623 14.2283 39.6486 14.2283 39.7496C14.2283 39.8373 14.2599 39.9095 14.3232 39.966C14.3854 40.0226 14.5477 40.0807 14.8103 40.1401C15.0727 40.1995 15.2529 40.2514 15.3506 40.2958C15.4926 40.3613 15.5975 40.4443 15.6653 40.5447C15.733 40.6452 15.7668 40.761 15.7668 40.8919C15.7668 41.0219 15.7297 41.1442 15.6553 41.2591C15.5809 41.374 15.474 41.4634 15.3347 41.5272C15.1953 41.591 15.0385 41.6229 14.8643 41.6229C14.6434 41.6229 14.4583 41.5906 14.309 41.5264C14.1596 41.462 14.0425 41.3651 13.9576 41.2357C13.8729 41.1066 13.8281 40.9603 13.8237 40.7971Z" fill="white"/>
<path d="M16.2085 41.5807V39.1396H17.1294C17.2915 39.1396 17.4152 39.1474 17.5007 39.1629C17.6206 39.183 17.721 39.221 17.8021 39.277C17.883 39.333 17.9483 39.4117 17.9977 39.5126C18.0471 39.6136 18.0718 39.7247 18.0718 39.8456C18.0718 40.0532 18.0057 40.229 17.8737 40.3726C17.7415 40.5165 17.5029 40.5882 17.1576 40.5882H16.5315V41.5807H16.2085ZM16.5315 40.3001H17.1626C17.3713 40.3001 17.5195 40.2614 17.6072 40.1836C17.695 40.1059 17.7388 39.9965 17.7388 39.8555C17.7388 39.7534 17.713 39.6661 17.6613 39.5933C17.6097 39.5206 17.5416 39.4725 17.4573 39.4492C17.4028 39.4348 17.3024 39.4275 17.1559 39.4275H16.5315V40.3001Z" fill="white"/>
<path d="M18.3848 40.3921C18.3848 39.9869 18.4936 39.6697 18.7112 39.4404C18.9288 39.2113 19.2096 39.0965 19.5537 39.0965C19.779 39.0965 19.9823 39.1504 20.1632 39.2581C20.3442 39.3658 20.4821 39.516 20.577 39.7085C20.672 39.9012 20.7194 40.1196 20.7194 40.3637C20.7194 40.6113 20.6694 40.8328 20.5696 41.0281C20.4696 41.2236 20.3281 41.3715 20.145 41.4719C19.9618 41.5724 19.7642 41.6226 19.5521 41.6226C19.3224 41.6226 19.117 41.567 18.9361 41.456C18.7551 41.345 18.6181 41.1935 18.5248 41.0014C18.4313 40.8095 18.3848 40.6064 18.3848 40.3921ZM18.7178 40.3971C18.7178 40.6913 18.7969 40.9231 18.9551 41.0923C19.1133 41.2616 19.3117 41.3462 19.5504 41.3462C19.7935 41.3462 19.9937 41.2607 20.1508 41.0898C20.3078 40.9189 20.3864 40.6763 20.3864 40.3621C20.3864 40.1635 20.3528 39.99 20.2857 39.8417C20.2185 39.6935 20.1203 39.5786 19.9909 39.4971C19.8615 39.4155 19.7164 39.3748 19.5554 39.3748C19.3267 39.3748 19.13 39.4533 18.9652 39.6104C18.8002 39.7675 18.7178 40.0297 18.7178 40.3971Z" fill="white"/>
<path d="M21.1406 41.5807V39.1396H22.223C22.4406 39.1396 22.606 39.1615 22.7192 39.2053C22.8324 39.2492 22.9228 39.3267 22.9906 39.4377C23.0583 39.5487 23.0922 39.6714 23.0922 39.8057C23.0922 39.9788 23.0361 40.1248 22.924 40.2436C22.8119 40.3624 22.6387 40.4378 22.4045 40.47C22.4899 40.5112 22.5548 40.5517 22.5993 40.5916C22.6936 40.6783 22.783 40.7864 22.8674 40.9163L23.292 41.5807H22.8856L22.5626 41.0728C22.4682 40.9263 22.3905 40.8141 22.3294 40.7364C22.2684 40.6588 22.2137 40.6044 22.1654 40.5733C22.1171 40.5423 22.068 40.5206 22.018 40.5084C21.9814 40.5007 21.9215 40.4968 21.8381 40.4968H21.4634V41.5808H21.1406V41.5807ZM21.4636 40.2169H22.1581C22.3057 40.2169 22.4212 40.2017 22.5044 40.1711C22.5876 40.1406 22.651 40.0918 22.6942 40.0246C22.7375 39.9574 22.7591 39.8845 22.7591 39.8055C22.7591 39.6901 22.7171 39.5952 22.6334 39.5208C22.5495 39.4465 22.4171 39.4092 22.2362 39.4092H21.4635V40.2169H21.4636Z" fill="white"/>
<path d="M24.1578 41.5807V39.4276H23.3535V39.1396H25.2884V39.4276H24.4808V41.5807H24.1578Z" fill="white"/>
</g>
<defs>
<clipPath id="clip0">
<rect width="50" height="50" fill="white"/>
</clipPath>
</defs>
</svg>
