<svg width="110" height="110" viewBox="0 0 110 110" fill="none" xmlns="http://www.w3.org/2000/svg">
<path d="M30.9375 26.6406V12.8906C30.9375 10.9914 32.4758 9.45312 34.375 9.45312C41.9684 9.45312 48.125 15.6097 48.125 23.2031V26.6406H30.9375Z" fill="#6AB02B"/>
<path d="M6.875 57.5781H13.75V40.3906H6.875C4.97578 40.3906 3.4375 41.9289 3.4375 43.8281V54.1406C3.4375 56.0398 4.97578 57.5781 6.875 57.5781Z" fill="#6AB02B"/>
<path d="M12.0312 88.5156C9.18844 88.5156 6.875 90.4423 6.875 92.8125C6.875 95.1827 9.18844 97.1094 12.0312 97.1094H67.0312V88.5156H12.0312Z" fill="#DBDEE3"/>
<path d="M104.844 85.0781H67.0312C67.98 85.0781 68.75 85.8481 68.75 86.7969C68.75 87.7456 67.98 88.5156 67.0312 88.5156H104.844C105.792 88.5156 106.562 87.7456 106.562 86.7969C106.562 85.8481 105.792 85.0781 104.844 85.0781Z" fill="#406FBF"/>
<path d="M104.844 97.1094H67.0312C67.98 97.1094 68.75 97.8794 68.75 98.8281C68.75 99.7769 67.98 100.547 67.0312 100.547H104.844C105.792 100.547 106.562 99.7769 106.562 98.8281C106.562 97.8794 105.792 97.1094 104.844 97.1094Z" fill="#406FBF"/>
<path d="M67.0312 100.547H12.0312C7.29266 100.547 3.4375 97.0767 3.4375 92.8125C3.4375 88.5483 7.29266 85.0781 12.0312 85.0781H67.0312C67.98 85.0781 68.75 85.8481 68.75 86.7969C68.75 87.7456 67.98 88.5156 67.0312 88.5156H12.0312C9.18844 88.5156 6.875 90.4423 6.875 92.8125C6.875 95.1827 9.18844 97.1094 12.0312 97.1094H67.0312C67.98 97.1094 68.75 97.8794 68.75 98.8281C68.75 99.7769 67.98 100.547 67.0312 100.547Z" fill="#6FA4D8"/>
<path d="M67.0312 88.5156H104.844V97.1094H67.0312V88.5156Z" fill="#B3B4B6"/>
<path d="M80.7812 23.2031H36.0938C21.8556 23.2031 10.3125 34.7462 10.3125 48.9844C10.3125 63.2225 21.8556 74.7656 36.0938 74.7656H80.7812C95.0194 74.7656 106.562 63.2225 106.562 48.9844C106.562 34.7462 95.0194 23.2031 80.7812 23.2031Z" fill="#79C930"/>
<path d="M106.562 48.9844C106.562 63.2156 95.0125 74.7656 80.7812 74.7656H36.0938C28.9781 74.7656 22.5328 71.8781 17.875 67.2031C17.0156 66.3437 16.2078 65.4328 15.4688 64.4531H61.875C80.8672 64.4531 96.25 49.0703 96.25 30.0781V28.3594C97.2297 29.0984 98.1406 29.9062 99 30.7656C103.675 35.4234 106.562 41.8688 106.562 48.9844Z" fill="#74BC33"/>
<path d="M46.4062 36.9531H80.7812C82.6805 36.9531 84.2188 35.4148 84.2188 33.5156C84.2188 31.6164 82.6805 30.0781 80.7812 30.0781H46.4062C44.507 30.0781 42.9688 31.6164 42.9688 33.5156C42.9688 35.4148 44.507 36.9531 46.4062 36.9531Z" fill="#55525B"/>
<path d="M30.9375 43.8281C32.836 43.8281 34.375 42.2891 34.375 40.3906C34.375 38.4921 32.836 36.9531 30.9375 36.9531C29.039 36.9531 27.5 38.4921 27.5 40.3906C27.5 42.2891 29.039 43.8281 30.9375 43.8281Z" fill="#55525B"/>
<path d="M49.8438 85.0781H39.5312C37.632 85.0781 36.0938 83.5398 36.0938 81.6406V74.7656H53.2812V81.6406C53.2812 83.5398 51.743 85.0781 49.8438 85.0781Z" fill="#6AB02B"/>
<path d="M77.3438 85.0781H67.0312C65.132 85.0781 63.5938 83.5398 63.5938 81.6406V74.7656H80.7812V81.6406C80.7812 83.5398 79.243 85.0781 77.3438 85.0781Z" fill="#6AB02B"/>
<path d="M65.3125 9.45312H61.875C53.3311 9.45312 46.4062 16.378 46.4062 24.9219C46.4062 33.4641 53.3311 40.3906 61.875 40.3906H65.3125C73.8564 40.3906 80.7812 33.4658 80.7812 24.9219C80.7812 16.378 73.8564 9.45312 65.3125 9.45312Z" fill="#F68820"/>
<path d="M61.875 40.3906C70.4182 40.3906 77.3438 33.465 77.3438 24.9219C77.3438 16.3787 70.4182 9.45312 61.875 9.45312C53.3318 9.45312 46.4062 16.3787 46.4062 24.9219C46.4062 33.465 53.3318 40.3906 61.875 40.3906Z" fill="#FBBE18"/>
<path d="M61.875 23.2031C60.4536 23.2031 59.2969 22.0464 59.2969 20.625C59.2969 19.2036 60.4536 18.0469 61.875 18.0469C63.2964 18.0469 64.4531 19.2036 64.4531 20.625C64.4531 21.5755 65.2231 22.3438 66.1719 22.3438C67.1206 22.3438 67.8906 21.5755 67.8906 20.625C67.8906 17.9094 66.0705 15.6355 63.5938 14.8895V13.75C63.5938 12.7995 62.8238 12.0312 61.875 12.0312C60.9262 12.0312 60.1562 12.7995 60.1562 13.75V14.8895C57.6795 15.6355 55.8594 17.9094 55.8594 20.625C55.8594 23.9422 58.5578 26.6406 61.875 26.6406C63.2964 26.6406 64.4531 27.7973 64.4531 29.2188C64.4531 30.6402 63.2964 31.7969 61.875 31.7969C60.4536 31.7969 59.2969 30.6402 59.2969 29.2188C59.2969 28.2683 58.5269 27.5 57.5781 27.5C56.6294 27.5 55.8594 28.2683 55.8594 29.2188C55.8594 31.9344 57.6795 34.2083 60.1562 34.9542V36.0938C60.1562 37.0442 60.9262 37.8125 61.875 37.8125C62.8238 37.8125 63.5938 37.0442 63.5938 36.0938V34.9542C66.0705 34.21 67.8906 31.9344 67.8906 29.2188C67.8906 25.9016 65.1922 23.2031 61.875 23.2031Z" fill="#F68820"/>
<path d="M50.7031 36.9531H76.4844V43.8281H50.7031V36.9531Z" fill="#79C930"/>
</svg>
