<svg width="50" height="50" viewBox="0 0 50 50" fill="none" xmlns="http://www.w3.org/2000/svg">
<g clip-path="url(#clip0)">
<path d="M25.2188 43.2626C26.0701 43.2626 26.7603 42.5724 26.7603 41.7211C26.7603 40.8697 26.0701 40.1796 25.2188 40.1796C24.3674 40.1796 23.6772 40.8697 23.6772 41.7211C23.6772 42.5724 24.3674 43.2626 25.2188 43.2626Z" fill="#7FDBD5"/>
<path d="M31.6758 44.9559C32.4859 44.9559 33.1426 44.2992 33.1426 43.4891C33.1426 42.679 32.4859 42.0223 31.6758 42.0223C30.8657 42.0223 30.209 42.679 30.209 43.4891C30.209 44.2992 30.8657 44.9559 31.6758 44.9559Z" fill="#38648C"/>
<path d="M27.1279 36.4659C27.938 36.4659 28.5947 35.8092 28.5947 34.9991C28.5947 34.189 27.938 33.5323 27.1279 33.5323C26.3178 33.5323 25.6611 34.189 25.6611 34.9991C25.6611 35.8092 26.3178 36.4659 27.1279 36.4659Z" fill="#38648C"/>
<path d="M32.7861 39.5836C33.8071 39.5836 34.6348 38.756 34.6348 37.735C34.6348 36.714 33.8071 35.8864 32.7861 35.8864C31.7652 35.8864 30.9375 36.714 30.9375 37.735C30.9375 38.756 31.7652 39.5836 32.7861 39.5836Z" fill="#7FDBD5"/>
<path d="M27.1281 49.9999C28.2218 49.9999 29.1085 49.1133 29.1085 48.0196C29.1085 46.9258 28.2218 46.0392 27.1281 46.0392C26.0344 46.0392 25.1477 46.9258 25.1477 48.0196C25.1477 49.1133 26.0344 49.9999 27.1281 49.9999Z" fill="#F2C94C"/>
<path d="M18.9707 8.20807L12.2615 14.1827L20.7611 23.7272L27.4703 17.7526C30.1059 15.4055 30.3398 11.3662 27.9928 8.73053C25.6457 6.09488 21.6063 5.861 18.9707 8.20807Z" fill="#F2C94C"/>
<path d="M5.55241 20.1572L12.2616 14.1826L20.7612 23.7271L14.052 29.7017C11.4164 32.0488 7.37712 31.8149 5.02995 29.1793C2.68278 26.5436 2.91676 22.5043 5.55241 20.1572Z" fill="#287D99"/>
<path opacity="0.1" d="M27.9927 8.73043C26.6629 7.23717 24.7899 6.51568 22.9368 6.59693C22.4126 8.30533 22.6022 10.2225 23.6228 11.8575L25.7387 15.2468C26.1033 15.8309 25.9836 16.5957 25.4551 17.0373C21.4963 20.3452 16.4331 23.9149 13.7849 24.9999C9.73512 26.6591 6.19683 22.4612 6.76803 19.0747L5.6234 20.0939C3.00064 22.4296 2.67232 26.4628 4.97378 29.1156C7.31217 31.8111 11.3951 32.0677 14.0518 29.7019L27.4702 17.7525C30.1059 15.4054 30.3398 11.3661 27.9927 8.73043Z" fill="black"/>
<path d="M25.2614 9.77478L30.019 17.3955L40.8603 10.6274L36.1028 3.0067C34.2338 0.0129487 30.2918 -0.898869 27.2981 0.97008C24.3044 2.83903 23.3925 6.78103 25.2614 9.77478Z" fill="#76B7EB"/>
<path d="M34.7766 25.0164L30.019 17.3957L40.8604 10.6276L45.6179 18.2483C47.4869 21.2421 46.575 25.1841 43.5813 27.053C40.5875 28.922 36.6455 28.0102 34.7766 25.0164Z" fill="#D1EFF2"/>
<path opacity="0.1" d="M43.5812 27.0533C43.8689 26.8737 44.1369 26.6746 44.3855 26.4594C36.7886 25.343 26.8851 7.20804 27.3314 0.950806C27.3204 0.957544 27.3091 0.963599 27.2981 0.970435C24.3043 2.83938 23.3925 6.78138 25.2615 9.77514L34.7764 25.0167C36.6455 28.0104 40.5875 28.9222 43.5812 27.0533Z" fill="black"/>
<path d="M16.4152 34.7882L24.1956 38.011C24.4825 38.1299 24.8115 37.9936 24.9304 37.7066L29.3909 26.9381C29.5097 26.6511 29.3735 26.3222 29.0865 26.2034L21.3061 22.9806C18.0455 21.63 14.3074 23.1784 12.9568 26.439C11.6063 29.6997 13.1547 33.4377 16.4152 34.7882Z" fill="#56BA2E"/>
<path opacity="0.1" d="M24.9307 37.7063L26.0292 35.0542C16.8398 33.3053 13.7544 27.8745 14.4735 24.2384C13.8373 24.8385 13.3135 25.5782 12.9571 26.4386C11.6065 29.6992 13.1549 33.4372 16.4155 34.7878L24.1959 38.0106C24.4828 38.1295 24.8117 37.9932 24.9307 37.7063Z" fill="black"/>
<path d="M42.4641 34.7882L34.6837 38.011C34.3968 38.1299 34.0678 37.9936 33.949 37.7066L29.4885 26.9381C29.3697 26.6511 29.5059 26.3222 29.7929 26.2034L37.5733 22.9806C40.8339 21.63 44.5719 23.1784 45.9225 26.439C47.273 29.6997 45.7247 33.4377 42.4641 34.7882Z" fill="#76B7EB"/>
</g>
<defs>
<clipPath id="clip0">
<rect width="50" height="50" fill="white"/>
</clipPath>
</defs>
</svg>
