<svg width="207" height="158" viewBox="0 0 207 158" fill="none" xmlns="http://www.w3.org/2000/svg">
<path d="M207 138.955H0V138.849H207V138.955Z" fill="#E7E8E5"/>
<path d="M172.547 145.674H186.259V145.78H172.547V145.674Z" fill="#E7E8E5"/>
<path d="M133.526 146.825H137.125V146.931H133.526V146.825Z" fill="#E7E8E5"/>
<path d="M164.187 141.736H172.132V141.843H164.187V141.736Z" fill="#E7E8E5"/>
<path d="M21.7178 142.449H39.5998V142.555H21.7178V142.449Z" fill="#E7E8E5"/>
<path d="M43.2861 142.449H45.908V142.555H43.2861V142.449Z" fill="#E7E8E5"/>
<path d="M54.4287 144.239H93.2106V144.345H54.4287V144.239Z" fill="#E7E8E5"/>
<path d="M18.1816 0.106293C16.9354 0.106293 15.9219 1.14434 15.9219 2.42027V117.517C15.9219 118.793 16.9354 119.831 18.1816 119.831H98.1245C99.3698 119.831 100.384 118.793 100.384 117.517V2.42027C100.384 1.14434 99.3698 0.106293 98.1245 0.106293H18.1816ZM98.1245 119.938H18.1816C16.8784 119.938 15.8184 118.852 15.8184 117.517V2.42027C15.8184 1.08625 16.8784 0.000282288 18.1816 0.000282288H98.1245C99.4269 0.000282288 100.487 1.08625 100.487 2.42027V117.517C100.487 118.852 99.4269 119.938 98.1245 119.938Z" fill="#E7E8E5"/>
<path d="M107.728 0.106293C106.482 0.106293 105.469 1.14434 105.469 2.42027V117.517C105.469 118.793 106.482 119.831 107.728 119.831H187.671C188.917 119.831 189.931 118.793 189.931 117.517V2.42027C189.931 1.14434 188.917 0.106293 187.671 0.106293H107.728ZM187.671 119.938H107.728C106.425 119.938 105.365 118.852 105.365 117.517V2.42027C105.365 1.08625 106.425 0.000282288 107.728 0.000282288H187.671C188.974 0.000282288 190.034 1.08625 190.034 2.42027V117.517C190.034 118.852 188.974 119.938 187.671 119.938Z" fill="#E7E8E5"/>
<path d="M106.954 138.849H118.914V95.2073H106.954V138.849Z" fill="#E2E2E0"/>
<path d="M109.226 138.849H106.954V134.803H111.607L109.226 138.849Z" fill="#EDEDEB"/>
<path d="M175.193 138.849H187.153V95.2073H175.193V138.849Z" fill="#E2E2E0"/>
<path d="M106.954 137.788H177.176V95.2075H106.954V137.788Z" fill="#EDEDEB"/>
<path d="M154.024 135.425H174.84V97.7361H154.024V135.425Z" fill="#E2E2E0"/>
<path d="M162.374 99.8972H166.492C168.281 99.8972 169.991 99.0177 171.221 97.4652H157.645C158.875 99.0177 160.585 99.8972 162.374 99.8972Z" fill="#EDEDEB"/>
<path d="M131.657 135.425H152.473V97.7361H131.657V135.425Z" fill="#E2E2E0"/>
<path d="M139.796 99.8972H143.914C145.702 99.8972 147.413 99.0177 148.643 97.4652H135.066C136.297 99.0177 138.007 99.8972 139.796 99.8972Z" fill="#EDEDEB"/>
<path d="M109.289 135.425H130.105V97.7361H109.289V135.425Z" fill="#E2E2E0"/>
<path d="M117.428 99.8972H121.546C123.335 99.8972 125.045 99.0177 126.275 97.4652H112.698C113.929 99.0177 115.639 99.8972 117.428 99.8972Z" fill="#EDEDEB"/>
<path d="M174.905 138.849H177.177V134.803H172.523L174.905 138.849Z" fill="#EDEDEB"/>
<path d="M31.7344 83.8608H111.978V13.8805H31.7344V83.8608Z" fill="#E2E2E0"/>
<path d="M29.9287 83.8608H111.194V13.8805H29.9287V83.8608Z" fill="#F3F2F1"/>
<path d="M33.1699 80.5028H107.952V17.2392H33.1699V80.5028Z" fill="#FAFAF9"/>
<path d="M98.7751 80.5028L69.343 17.2392H59.3457L88.7782 80.5028H98.7751Z" fill="white"/>
<path d="M85.9444 80.5028L56.5119 17.2392H49.6279L79.0604 80.5028H85.9444Z" fill="white"/>
<path d="M57.0703 80.5028H60.937V17.2392H57.0703V80.5028Z" fill="#E2E2E0"/>
<path d="M82.7744 80.5028H86.6416V17.2392H82.7744V80.5028Z" fill="#E2E2E0"/>
<path d="M55.3516 82.634H60.2397V14.7425H55.3516V82.634Z" fill="#F3F2F1"/>
<path d="M81.0566 82.634H85.9448V14.7425H81.0566V82.634Z" fill="#F3F2F1"/>
<path d="M33.1699 80.5028H33.5144V17.2392H33.1699V80.5028Z" fill="#E2E2E0"/>
<path d="M28.5674 9.56189H115.502C115.732 9.56189 115.92 9.75442 115.92 9.9902C115.92 10.2256 115.732 10.4181 115.502 10.4181H28.5674C28.3373 10.4181 28.1494 10.2256 28.1494 9.9902C28.1494 9.75442 28.3373 9.56189 28.5674 9.56189Z" fill="#E2E2E0"/>
<path d="M111.978 12.3877C112.289 12.3877 112.543 12.1277 112.543 11.8097V10.568C112.543 10.25 112.289 9.99001 111.978 9.99001C111.668 9.99001 111.414 10.25 111.414 10.568V11.8097C111.414 12.1277 111.668 12.3877 111.978 12.3877Z" fill="#E2E2E0"/>
<path d="M34.872 12.3877C35.1822 12.3877 35.4364 12.1277 35.4364 11.8097V10.568C35.4364 10.25 35.1822 9.99001 34.872 9.99001C34.5615 9.99001 34.3076 10.25 34.3076 10.568V11.8097C34.3076 12.1277 34.5615 12.3877 34.872 12.3877Z" fill="#E2E2E0"/>
<path d="M29.9286 44.7227H28.7012V10.4182H34.3272C34.3146 10.4661 34.308 10.5165 34.308 10.5683V11.8098C34.308 12.1279 34.5618 12.3878 34.8723 12.3878C35.1825 12.3878 35.4367 12.1279 35.4367 11.8098V10.5683C35.4367 10.5165 35.43 10.4661 35.4173 10.4182H100.383V13.8808H31.7345H29.9286V44.7227ZM101.57 13.8808H100.487V10.4182H105.365V12.8237H104.733C103.579 12.8237 102.48 13.2176 101.57 13.8808ZM109.907 12.8237H105.734H105.469V10.4182H109.907V12.8237Z" fill="#E9E9E7"/>
<path d="M100.383 13.8809H100.486V10.4179H100.383V13.8809Z" fill="#DEDFDC"/>
<path d="M105.365 12.8235H105.469V10.4181H105.365V12.8235Z" fill="#DEDFDC"/>
<path d="M33.1702 44.7227H29.9287V13.8808H101.57C100.471 14.6814 99.6448 15.8742 99.3223 17.2392H85.9451V14.7425H81.057V17.2392H60.2403V14.7425H55.3522V17.2392H33.1702V44.7227Z" fill="#E4E4E2"/>
<path d="M97.2061 44.7227H86.642V17.2392H85.9449H99.322C99.2562 17.5191 99.2111 17.8061 99.1891 18.0983L97.2061 44.7227ZM72.1326 44.7227H71.2806C71.0968 44.447 70.8351 44.1875 70.4658 43.9789C70.0808 43.7614 69.4867 43.6515 68.7755 43.5977L68.0762 42.0949C68.0526 41.5759 68.0592 41.0564 68.0597 40.5866L67.1012 39.9997L60.9372 26.7503V20.6595L72.1326 44.7227ZM55.3519 44.7227H33.5144V17.2392H33.1699V44.7227V17.2392H55.3519H49.6284L55.3519 29.5413V44.7227ZM60.9372 43.3543V41.547L61.7358 43.2627C61.6443 43.2368 61.5565 43.2084 61.4729 43.1779C61.4307 43.1626 61.3885 43.1554 61.3454 43.1554C61.2092 43.1554 61.0697 43.2292 60.9372 43.3543ZM81.0568 42.4163L69.3435 17.2392H60.24H81.0568V42.4163Z" fill="#E6E6E4"/>
<path d="M81.057 44.7227H72.1328L60.9374 20.6595V17.2392H60.2402H69.3437L81.057 42.4163V44.7227Z" fill="#E8E9E6"/>
<path d="M68.775 43.5977C68.6107 43.5854 68.4401 43.576 68.2646 43.5688C68.1503 43.1092 68.0985 42.602 68.0758 42.0949L68.775 43.5977ZM62.6491 43.4433C62.3179 43.4 62.0107 43.3415 61.7354 43.2627L60.9368 41.547V26.7503L67.1008 39.9997L61.9821 36.8657C62.4193 38.6742 62.849 41.3371 62.6491 43.4433ZM55.3515 29.5413L49.6279 17.2392H55.3515V29.5413Z" fill="#E8E9E6"/>
<path d="M60.2729 44.7227H60.2402V17.2392H60.9374V20.6595V26.7503V41.547V43.3543C60.6414 43.6346 60.3814 44.1731 60.2729 44.7227Z" fill="#DCDDDA"/>
<path d="M85.9443 44.7228H86.6415V17.2394H85.9443V44.7228Z" fill="#DCDDDA"/>
<path d="M60.2397 44.7228H55.3516V14.7426H60.2397V17.2393V44.7228Z" fill="#E4E4E2"/>
<path d="M85.9448 44.7228H81.0566V14.7426H85.9448V17.2393V44.7228Z" fill="#E4E4E2"/>
<path d="M33.1699 44.7228H33.5144V17.2394H33.1699V44.7228Z" fill="#DCDDDA"/>
<path d="M109.907 10.4181H35.4173C35.3525 10.1721 35.1321 9.9902 34.8723 9.9902H109.907V10.4181ZM34.3272 10.4181H28.7012V9.9902H34.8723C34.6125 9.9902 34.3922 10.1721 34.3272 10.4181Z" fill="#DCDDDA"/>
<path d="M34.872 12.3877C34.5615 12.3877 34.3076 12.1277 34.3076 11.8097V10.568C34.3076 10.5163 34.3142 10.4658 34.3268 10.4179C34.3919 10.1719 34.6121 9.99001 34.872 9.99001C35.1317 9.99001 35.3521 10.1719 35.417 10.4179C35.4296 10.4658 35.4364 10.5163 35.4364 10.568V11.8097C35.4364 12.1277 35.1822 12.3877 34.872 12.3877Z" fill="#DCDDDA"/>
<path d="M29.8125 138.849H31.8983V103.805H29.8125V138.849Z" fill="#E2E2E0"/>
<path d="M78.76 103.805H67.4619V96.9848H78.76V103.805Z" fill="#E2E2E0"/>
<path d="M22.5879 103.805H67.4618V96.9848H22.5879V103.805Z" fill="#F3F2F1"/>
<path d="M78.76 114.865H67.4619V108.045H78.76V114.865Z" fill="#E2E2E0"/>
<path d="M22.5879 114.865H67.462V108.045H22.5879V114.865Z" fill="#F3F2F1"/>
<path d="M78.76 125.925H67.4619V119.105H78.76V125.925Z" fill="#E2E2E0"/>
<path d="M22.5879 125.925H67.462V119.105H22.5879V125.925Z" fill="#F3F2F1"/>
<path d="M74.6865 138.849H76.7722V103.805H74.6865V138.849Z" fill="#E2E2E0"/>
<path d="M65.376 138.849H67.4621V103.805H65.376V138.849Z" fill="#F3F2F1"/>
<path d="M22.5879 138.849H24.6736V103.805H22.5879V138.849Z" fill="#F3F2F1"/>
<path d="M183.77 153.198C183.77 155.85 147.832 158 103.5 158C59.1676 158 23.2295 155.85 23.2295 153.198C23.2295 150.547 59.1676 148.397 103.5 148.397C147.832 148.397 183.77 150.547 183.77 153.198Z" fill="#F3F2F1"/>
<path d="M163.947 133.947H96.7098C93.8772 133.947 91.7364 131.573 91.9525 128.672L100.19 18.0982C100.406 15.197 102.9 12.8236 105.733 12.8236H172.97C175.802 12.8236 177.943 15.197 177.727 18.0982L169.49 128.672C169.274 131.573 166.779 133.947 163.947 133.947Z" fill="#406FBF"/>
<path d="M163.947 133.947H162.946C165.778 133.947 168.273 131.573 168.489 128.672L176.726 18.0982C176.736 17.9625 176.741 17.8277 176.741 17.6941C176.74 14.9799 174.669 12.8236 171.969 12.8236H105.733H172.97C175.67 12.8236 177.741 14.9799 177.742 17.6941C177.742 17.8277 177.738 17.9625 177.727 18.0982L169.49 128.672C169.274 131.573 166.78 133.947 163.947 133.947Z" fill="#90B4E3"/>
<path d="M162.946 133.947H95.7094C92.8768 133.947 90.7364 131.573 90.9525 128.672L99.1895 18.0982C99.406 15.197 101.9 12.8236 104.733 12.8236H171.969C174.802 12.8236 176.943 15.197 176.727 18.0982L168.489 128.672C168.273 131.573 165.779 133.947 162.946 133.947Z" fill="#406FBF"/>
<path d="M162.946 133.947H95.7093C93.0096 133.947 90.9383 131.791 90.9375 129.076C90.9375 128.943 90.942 128.808 90.9524 128.672L99.1893 18.0982C99.4059 15.197 101.9 12.8236 104.733 12.8236H171.969C174.669 12.8236 176.74 14.9799 176.741 17.6941C176.741 17.8277 176.736 17.9625 176.727 18.0982L168.489 128.672C168.273 131.573 165.779 133.947 162.946 133.947ZM104.492 16.0471C102.599 16.0471 100.941 17.6246 100.797 19.5637L92.6689 128.672C92.5244 130.611 93.9473 132.189 95.8405 132.189H163.077C164.97 132.189 166.628 130.611 166.772 128.672L174.901 19.5637C175.045 17.6246 173.622 16.0471 171.729 16.0471H104.492ZM134.381 13.9469C134.106 13.9469 133.863 14.1776 133.842 14.4596C133.821 14.7415 134.029 14.9726 134.304 14.9726H142.077C142.353 14.9726 142.595 14.7415 142.616 14.4596C142.637 14.1776 142.429 13.9469 142.154 13.9469H134.381Z" fill="#B8D2EF"/>
<path d="M95.84 132.189C93.9467 132.189 92.5238 130.611 92.6683 128.672L100.796 19.5638C100.941 17.6246 102.599 16.0472 104.492 16.0472H171.729C173.622 16.0472 175.045 17.6246 174.9 19.5638L166.772 128.672C166.628 130.611 164.97 132.189 163.077 132.189H95.84Z" fill="#406FBF"/>
<path d="M162.604 34.4005H114.487C113.368 34.4005 112.522 33.4625 112.608 32.3158C112.693 31.1691 113.678 30.2311 114.798 30.2311H162.914C164.034 30.2311 164.88 31.1691 164.794 32.3158C164.709 33.4625 163.723 34.4005 162.604 34.4005Z" fill="#3563B7"/>
<path d="M142.077 14.9727H134.304C134.028 14.9727 133.82 14.7415 133.841 14.4595C133.862 14.1775 134.105 13.9468 134.38 13.9468H142.153C142.429 13.9468 142.637 14.1775 142.616 14.4595C142.595 14.7415 142.352 14.9727 142.077 14.9727Z" fill="#8DB2E2"/>
<path d="M114.277 32.3159C114.514 29.1273 112.182 26.5473 109.074 26.5473H157.923C161.031 26.5473 163.363 29.1273 163.125 32.3159H114.277Z" fill="#EDEDEB"/>
<path d="M109.074 26.5479C105.967 26.5479 103.25 29.1278 103.013 32.3161L98.0071 99.5122C97.7695 102.701 95.0532 105.281 91.9453 105.281H140.794C143.902 105.281 146.619 102.701 146.856 99.5122L151.862 32.3161C152.1 29.1278 154.816 26.5479 157.923 26.5479H109.074Z" fill="white"/>
<path d="M135.592 99.5118C135.355 102.701 137.687 105.281 140.794 105.281H91.9451C88.8376 105.281 86.5056 102.701 86.7432 99.5118H135.592Z" fill="#EDEDEB"/>
<path d="M107 98.1859C107.183 95.7305 106.43 93.7438 104.037 93.7438H141.654C144.047 93.7438 145.848 95.9871 144.617 98.1859H107Z" fill="#DADBD8"/>
<path d="M135.593 99.5123C135.831 96.3238 138.547 93.7437 141.655 93.7437H92.8055C89.698 93.7437 86.9818 96.3238 86.7441 99.5123H135.593Z" fill="#EDEDEB"/>
<path d="M158.691 116.172H102.613C101.8 116.172 101.185 115.491 101.247 114.658C101.31 113.825 102.026 113.144 102.838 113.144H158.917C159.73 113.144 160.344 113.825 160.282 114.658C160.22 115.491 159.504 116.172 158.691 116.172Z" fill="white"/>
<path d="M130.371 123.45H102.07C101.257 123.45 100.642 122.768 100.705 121.936C100.766 121.103 101.482 120.421 102.296 120.421H130.597C131.41 120.421 132.024 121.103 131.962 121.936C131.9 122.768 131.184 123.45 130.371 123.45Z" fill="white"/>
<path d="M149.965 123.45H138.502C137.689 123.45 137.074 122.768 137.136 121.936C137.198 121.103 137.914 120.421 138.727 120.421H150.191C151.004 120.421 151.618 121.103 151.556 121.936C151.494 122.768 150.778 123.45 149.965 123.45Z" fill="white"/>
<path d="M157.044 101.699C157.492 101.598 157.827 101.432 158.048 101.2C158.27 100.969 158.392 100.709 158.413 100.422C158.432 100.172 158.362 99.9414 158.205 99.7311C158.048 99.5212 157.724 99.3257 157.234 99.1455L157.044 101.699ZM156.493 93.8603C156.154 93.9723 155.913 94.1109 155.771 94.2763C155.629 94.4417 155.55 94.6359 155.533 94.8598C155.516 95.0943 155.566 95.2982 155.684 95.4717C155.803 95.6451 156.022 95.7901 156.341 95.9067L156.493 93.8603ZM161.43 94.6562L158.505 95.1256C158.388 94.7487 158.277 94.4875 158.171 94.3416C158.065 94.1957 157.883 94.0486 157.625 93.8998L157.453 96.2023C158.996 96.6327 160.014 97.0868 160.506 97.5643C161.158 98.2067 161.447 99.0221 161.373 100.01C161.33 100.588 161.165 101.119 160.878 101.602C160.59 102.086 160.239 102.489 159.824 102.813C159.409 103.137 158.976 103.372 158.525 103.518C158.073 103.664 157.528 103.75 156.889 103.776L156.777 105.281H155.643L155.754 103.776C154.998 103.708 154.39 103.581 153.93 103.399C153.469 103.215 153.079 102.962 152.758 102.638C152.438 102.315 152.199 101.966 152.04 101.592C151.881 101.218 151.775 100.765 151.722 100.235L154.888 99.8609C154.943 100.386 155.04 100.765 155.181 100.999C155.321 101.233 155.566 101.44 155.915 101.62L156.125 98.8075C155.1 98.5103 154.378 98.2525 153.956 98.035C153.535 97.817 153.181 97.468 152.896 96.9876C152.611 96.5072 152.493 95.9216 152.545 95.2312C152.616 94.2865 152.997 93.4965 153.689 92.8621C154.381 92.2278 155.367 91.8758 156.646 91.8067L156.705 91.0189H157.839L157.781 91.8067C158.936 91.8809 159.802 92.1625 160.379 92.6505C160.957 93.1386 161.307 93.8069 161.43 94.6562Z" fill="white"/>
<path d="M145.878 55.8037H105.498L105.584 54.6562H145.963L145.878 55.8037Z" fill="#79C930"/>
<path d="M145.878 55.8036H105.498L105.236 59.3162H145.616L145.878 55.8036Z" fill="#EDEDEB"/>
<path d="M145.354 62.8275H104.975L104.713 66.3401H145.093L145.354 62.8275Z" fill="#EDEDEB"/>
<path d="M144.832 69.8519H104.452L104.19 73.364H144.57L144.832 69.8519Z" fill="#EDEDEB"/>
<path d="M144.308 76.8759H103.928L103.666 80.3881H144.046L144.308 76.8759Z" fill="#EDEDEB"/>
<path d="M143.699 85.048H103.319L103.405 83.9H143.785L143.699 85.048Z" fill="#79C930"/>
<path d="M139.08 34.4002H147.473L147.091 39.5289H138.698L139.08 34.4002Z" fill="#EDEDEB"/>
<path d="M56.7919 67.0205L58.293 67.6379C58.8395 67.8631 59.3189 68.2303 59.6837 68.7036L60.3713 69.5954C60.8267 70.1866 60.8056 71.0262 60.3208 71.5924L59.5893 72.4469C59.0291 73.1012 58.0546 73.1601 57.4232 72.5775L56.7236 71.932C56.7236 71.932 54.5691 70.3829 53.9365 68.3364L54.3522 67.9106C55.0287 67.2172 55.9258 66.8899 56.7919 67.0205Z" fill="#EEA99F"/>
<path d="M60.901 52.1424L60.4125 52.4727L59.8693 52.8551C59.5079 53.1189 59.1452 53.3877 58.7908 53.6672C58.0854 54.2286 57.3965 54.8104 56.7573 55.4274C55.4697 56.6524 54.3498 57.9957 53.555 59.4235C53.4535 59.6016 53.36 59.7814 53.2739 59.9628L53.206 60.0985C53.2196 60.0659 53.2424 59.9671 53.2503 59.9259C53.2681 59.8106 53.2656 59.747 53.2585 59.711C53.2188 59.5884 53.2151 59.9073 53.3086 60.2215C53.4933 60.8932 53.8758 61.7476 54.2997 62.5707C55.1518 64.2409 56.2224 65.9574 57.2296 67.651L57.2557 67.6951C57.6739 68.3978 57.4565 69.3145 56.7701 69.7428C56.241 70.0731 55.5848 70.0138 55.122 69.6478C54.2704 68.971 53.5094 68.2722 52.7543 67.5179C52.0025 66.7673 51.285 65.9718 50.5969 65.1051C49.9171 64.2223 49.2531 63.3148 48.6934 62.0817C48.5538 61.7688 48.4201 61.4313 48.3063 61.0386C48.1924 60.6472 48.1005 60.1893 48.0918 59.6113C48.091 59.3196 48.1113 58.9994 48.1932 58.636C48.2255 58.469 48.2963 58.2514 48.3506 58.0975L48.4305 57.8804C48.5348 57.5878 48.6482 57.3012 48.7708 57.0209C49.7424 54.7633 51.1558 52.8573 52.7174 51.2141C53.5032 50.3928 54.3329 49.6354 55.2043 48.9366C55.6407 48.5881 56.0841 48.2497 56.5457 47.9308C56.7771 47.7718 57.0073 47.6107 57.2491 47.4589L57.6171 47.2299L58.0373 46.9814C59.4213 46.1622 61.1916 46.6477 61.991 48.0652C62.7607 49.4294 62.3508 51.1599 61.0856 52.0181L60.901 52.1424Z" fill="#EEA99F"/>
<path d="M60.9492 45.4149C58.5293 45.4294 55.8814 46.4877 52.4854 50.7985C52.4854 53.3728 57.7903 56.7939 57.7903 56.7939C57.7903 56.7939 66.4852 45.3819 60.9492 45.4149Z" fill="#183544"/>
<path d="M42.1187 145.393C42.2326 146.083 42.616 146.984 42.936 147.1C42.9819 147.116 43.0403 147.121 43.1157 147.034C43.1612 146.98 43.1798 146.913 43.1728 146.828C43.138 146.415 42.524 145.766 42.1187 145.393ZM42.9865 147.348C42.9443 147.348 42.902 147.34 42.8586 147.325C42.3568 147.144 41.8848 145.836 41.8546 145.11C41.8525 145.063 41.8774 145.02 41.9188 144.999C41.9602 144.977 42.0086 144.983 42.0446 145.012C42.0976 145.056 43.3458 146.104 43.405 146.808C43.4175 146.958 43.379 147.087 43.2908 147.19C43.2022 147.294 43.0974 147.348 42.9865 147.348Z" fill="#17282F"/>
<path d="M42.2855 145.152C42.8957 145.465 43.833 145.679 44.1125 145.482C44.1531 145.453 44.1912 145.408 44.1663 145.294C44.151 145.225 44.1092 145.17 44.0384 145.126C43.6915 144.911 42.8183 145.037 42.2855 145.152ZM43.7635 145.791C43.1831 145.791 42.3455 145.504 41.9063 145.204C41.8682 145.178 41.8483 145.132 41.8562 145.085C41.8632 145.039 41.8968 145.002 41.9411 144.99C42.0073 144.972 43.5681 144.555 44.1589 144.922C44.2851 145 44.3638 145.108 44.3932 145.242C44.4342 145.426 44.3816 145.582 44.2446 145.678C44.1328 145.757 43.963 145.791 43.7635 145.791Z" fill="#17282F"/>
<path d="M37.5675 144.825C38.2669 143.951 39.445 142.785 40.6564 140.334C40.6564 140.334 44.4965 141.302 43.7422 142.437C42.3743 144.495 41.7074 148.72 43.4702 150.986C44.4762 152.279 42.8848 152.493 41.8332 151.94C40.1603 151.06 40.2311 150.732 39.3624 149.277C38.6193 148.032 38.3259 147.545 37.3035 147.012C36.4498 146.567 36.8646 145.703 37.5675 144.825Z" fill="#406FBF"/>
<path d="M70.1476 70.9759C70.1476 70.9759 64.5748 98.7931 60.5002 110.673C56.2207 123.149 44.4018 142.401 43.9481 143.228C42.2681 142.769 40.7696 142.167 39.7715 141.167C39.7715 141.167 45.3188 120.284 50.7286 106.736C52.7812 78.455 57.3074 70.9759 57.3074 70.9759H70.1476Z" fill="#183544"/>
<path d="M61.4692 107.645C61.2266 98.8545 61.3864 91.595 61.629 86.2487C62.0728 90.5328 62.599 95.6479 63.1948 101.503C62.6139 103.703 62.0331 105.783 61.4692 107.645Z" fill="#111D23"/>
<path d="M61.9824 36.8656C62.5674 39.2843 63.1383 43.2299 62.2076 45.3302C62.2076 45.3302 65.6931 45.4879 70.1482 49.1312C72.2459 45.976 69.8182 45.3569 69.8182 45.3569C67.9664 44.9116 68.0575 42.3857 68.0595 40.5865L61.9824 36.8656Z" fill="#EEA99F"/>
<path d="M61.1052 46.4289C59.366 46.2322 60.5687 42.8477 61.4728 43.1776C62.5948 43.5872 64.4027 43.5716 66.1398 43.5559C67.9378 43.5393 69.6597 43.5232 70.4657 43.9787C72.0509 44.8739 71.6502 46.7118 71.6502 46.7118C71.6502 46.7118 62.979 46.641 61.1052 46.4289Z" fill="#406FBF"/>
<path d="M71.6323 45.576C70.9447 45.4806 70.2359 45.3945 69.547 45.3301C68.4934 45.2317 67.4716 45.194 66.425 45.194C65.0969 45.194 63.7291 45.255 62.2076 45.3301C61.527 45.3636 60.8621 45.417 60.2324 45.4811C60.2233 45.4043 60.2188 45.3246 60.2188 45.2432C60.2183 44.3047 60.807 43.155 61.3452 43.155C61.3883 43.155 61.4305 43.1623 61.4728 43.1775C62.3794 43.5083 63.734 43.5617 65.1371 43.5617C65.4703 43.5617 65.8061 43.5588 66.1398 43.5558C66.473 43.5528 66.8038 43.5494 67.1272 43.5494C68.5451 43.5494 69.8091 43.6075 70.4657 43.9786C71.2105 44.3993 71.5168 45.0277 71.6323 45.576Z" fill="#B8D2EF"/>
<path d="M71.25 32.5957C71.3059 32.9192 71.5187 33.1512 71.7257 33.1139C71.9323 33.0761 72.054 32.7835 71.9981 32.4595C71.9422 32.136 71.7294 31.904 71.5228 31.9413C71.3163 31.9786 71.1937 32.2717 71.25 32.5957Z" fill="#17282F"/>
<path d="M71.4336 31.9756L72.1544 31.6139C72.1544 31.6139 71.8699 32.2919 71.4336 31.9756Z" fill="#17282F"/>
<path d="M71.6719 30.0075C71.6942 29.9655 71.7017 29.915 71.6888 29.865C71.6619 29.7624 71.5584 29.7009 71.4578 29.728C70.4506 30.0028 70.1694 30.8467 70.1579 30.8827C70.1256 30.9841 70.179 31.0935 70.2779 31.1266C70.3769 31.1597 70.4833 31.105 70.516 31.004C70.5263 30.9705 70.754 30.3196 71.5551 30.1016C71.6069 30.0872 71.6478 30.052 71.6719 30.0075Z" fill="#17282F"/>
<path d="M71.624 33.3815C71.624 33.3815 72.3092 34.7318 72.9749 35.3471C72.5944 35.7953 71.8592 35.6876 71.8592 35.6876L71.624 33.3815Z" fill="#C47F74"/>
<path d="M60.4442 32.4291C61.3658 36.3624 61.6751 38.0476 63.9508 39.739C67.3738 42.2841 71.7961 40.2759 72.018 36.1424C72.2176 32.4219 70.6775 26.6143 66.6778 25.7081C62.737 24.8151 59.5227 28.4953 60.4442 32.4291Z" fill="#EEA99F"/>
<path d="M67.8872 33.1532C70.1485 30.0917 71.6235 27.6183 70.5078 24.9083C69.5755 22.6435 66.9975 23.3062 66.6373 24.4372C59.7798 23.8371 57.3182 26.3814 58.7332 30.5912C59.6345 33.2728 56.1325 31.8824 56.9853 35.2887C57.639 37.9012 55.3326 38.8964 56.503 40.3983C58.1925 42.5656 61.6772 39.7385 65.6561 41.3638C68.9114 42.694 73.8033 40.6807 67.8872 33.1532Z" fill="#17282F"/>
<path d="M67.5201 33.7718C67.9655 34.4923 68.6387 34.8934 69.2373 34.9829C70.1378 35.1173 70.4471 34.0843 70.079 33.1255C69.7478 32.2625 68.8801 31.1523 68.033 31.4606C67.1984 31.7642 67.0104 32.9478 67.5201 33.7718Z" fill="#EEA99F"/>
<path d="M67.2812 149.07C67.841 149.471 68.7393 149.822 69.042 149.669C69.0863 149.647 69.1301 149.608 69.1219 149.492C69.1165 149.421 69.0829 149.36 69.0192 149.306C68.7066 149.041 67.8244 149.036 67.2812 149.07ZM68.8573 149.94C68.2823 149.94 67.3396 149.473 66.8987 149.066C66.8647 149.034 66.8519 148.985 66.866 148.94C66.8796 148.895 66.9181 148.864 66.9637 148.858C67.0312 148.851 68.6358 148.672 69.1674 149.122C69.2812 149.219 69.3438 149.337 69.3537 149.473C69.3682 149.663 69.2941 149.808 69.145 149.883C69.0668 149.923 68.9691 149.94 68.8573 149.94Z" fill="#17282F"/>
<path d="M68.5223 147.47L68.4399 147.481C68.0474 147.584 67.5237 148.311 67.2302 148.781C67.876 148.553 68.6812 148.018 68.74 147.676C68.7487 147.627 68.7442 147.567 68.6469 147.506C68.6092 147.482 68.5678 147.47 68.5223 147.47ZM66.9768 149.097L66.8828 149.048C66.8555 149.01 66.853 148.959 66.8758 148.918C66.9097 148.858 67.7137 147.425 68.3827 147.25C68.5256 147.213 68.6547 147.231 68.769 147.303C68.9267 147.402 68.998 147.55 68.9694 147.717C68.8779 148.254 67.6951 148.945 67.0008 149.094L66.9768 149.097Z" fill="#17282F"/>
<path d="M71.9323 151.43C68.5793 151.164 66.3205 148.805 66.5573 146.306C66.6877 144.929 62.3883 144.805 62.3883 144.805C63.0681 149.078 62.2144 149.687 61.9346 150.79C61.6526 151.899 61.7222 153.114 62.6115 153.137C63.6771 153.164 64.1727 152.956 65.4962 153.008C67.0433 153.07 68.7176 153.132 71.4678 153.137C72.5673 153.139 73.4239 151.548 71.9323 151.43Z" fill="#406FBF"/>
<path d="M75.9441 70.9757C75.9441 70.9757 75.6522 92.0427 74.0281 105.888C72.4044 119.733 66.8224 146.888 66.8224 146.888C65.2095 147.209 63.698 147.261 62.3641 146.846C62.3641 146.846 60.6004 125.633 63.563 105.134C61.3862 83.6506 60.0254 70.9757 60.0254 70.9757H75.9441Z" fill="#183544"/>
<path d="M76.7059 51.4862C76.6368 53.1141 79.1456 56.8778 76.0489 59.0595C76.6281 60.3842 77.1166 69.3691 75.9446 70.9757C74.2356 72.2623 64.9823 72.0125 57.3084 70.9757C56.9842 67.7268 58.7301 60.9978 56.5913 50.505C56.0954 48.0723 57.7658 45.7354 60.1803 45.4865C60.8253 45.42 61.5084 45.3644 62.2081 45.33C64.928 45.1956 67.1562 45.1066 69.5475 45.33C70.3398 45.4043 71.1587 45.5073 71.9416 45.6197C74.7643 46.025 76.8305 48.5697 76.7059 51.4862Z" fill="#79C930"/>
<path d="M59.1202 51.2048C58.6114 51.1327 57.72 50.4305 56.8987 50.1196C56.8361 50.1557 56.7745 50.193 56.7111 50.2278C56.695 50.2367 56.6776 50.2409 56.6606 50.2409C56.6225 50.2409 56.5861 50.2201 56.5666 50.1837C56.5385 50.1307 56.5579 50.0641 56.6097 50.0357L56.6113 50.0348L56.6126 50.034C56.6709 50.003 56.7285 49.9704 56.7865 49.9386C56.7558 49.5807 56.6714 49.1969 56.5861 48.8317C56.6229 48.643 56.6697 48.4581 56.7306 48.2783C56.9968 48.9157 57.1185 49.4263 56.9032 49.8745C57.0928 49.7681 57.2799 49.657 57.465 49.5412C57.4 48.833 57.1135 48.018 57.0816 47.5078L57.14 47.417C57.5461 48.2834 57.8235 48.9212 57.5938 49.4594C57.7606 49.3525 57.9262 49.2439 58.0897 49.1311C58.1419 49.0951 58.1932 49.0573 58.245 49.0209C58.1361 48.2779 57.7461 47.4179 57.7801 46.9819C58.2313 47.814 58.553 48.4119 58.3534 48.9437C58.5311 48.816 58.7062 48.685 58.8792 48.5502C58.7691 47.8776 58.428 47.1143 58.4586 46.7224C58.8498 47.4446 59.1355 47.9756 59.0142 48.4441C59.1682 48.322 59.321 48.1986 59.4717 48.0722L59.5586 47.998C59.412 47.3997 59.0494 46.7525 59.0469 46.3887C59.4592 47.0036 59.7573 47.451 59.6609 47.9107C59.771 47.8165 59.8799 47.7211 59.9883 47.6248C59.8534 47.0731 59.5193 46.4769 59.5168 46.1414C59.8956 46.7063 60.1697 47.1181 60.0827 47.5405C60.2173 47.4196 60.3502 47.2966 60.4814 47.1719C60.3365 46.6643 59.9809 46.1181 59.9614 45.8039C60.3605 46.3268 60.6429 46.6995 60.5381 47.1172C60.6143 47.0447 60.6901 46.9722 60.765 46.8984C60.8047 46.8594 60.8432 46.8195 60.8826 46.7801C60.7505 46.3098 60.4185 45.8018 60.4007 45.5104C60.772 45.9973 61.0341 46.3429 60.9298 46.7322C61.042 46.6189 61.1525 46.5036 61.2614 46.3866C61.1802 46.0401 60.9865 45.6805 60.9223 45.4188L60.9985 45.412C61.2403 45.7543 61.3963 46.0214 61.3169 46.3268L61.3719 46.2682C61.4481 46.1843 61.5234 46.0986 61.5976 46.0125C61.5437 45.7958 61.4469 45.5774 61.3715 45.3832C61.4183 45.3798 61.4663 45.3773 61.5135 45.3743C61.6294 45.5685 61.6982 45.7462 61.6634 45.9353C61.7557 45.8247 61.8439 45.7114 61.925 45.5931L61.9254 45.5923L61.9731 45.5838L61.9817 45.6317C61.8965 45.7623 61.8033 45.8862 61.7064 46.0062C61.7234 46.0049 61.74 46.004 61.7561 46.004C62.0836 46.004 62.2881 46.2721 62.5734 46.6478C62.3452 46.5795 62.0265 46.2229 61.6853 46.032C61.6038 46.1321 61.5205 46.2305 61.4361 46.328L61.3711 46.4001C61.3955 46.3976 61.4195 46.3963 61.4427 46.3963C61.7983 46.3963 62.0202 46.6868 62.3299 47.0948C62.0795 47.0197 61.7284 46.6249 61.3541 46.4192C61.2374 46.5511 61.1186 46.68 60.9977 46.8072C61.0088 46.8068 61.0196 46.8064 61.0304 46.8064C61.4278 46.8064 61.6816 47.1596 62.0393 47.66C61.7689 47.5625 61.379 47.0926 60.9708 46.8356C60.9265 46.8819 60.883 46.9285 60.8387 46.9747C60.7617 47.0536 60.6834 47.1316 60.6056 47.2097C60.6168 47.2088 60.6284 47.2088 60.6396 47.2088C61.0705 47.2088 61.3463 47.5918 61.7346 48.1346C61.4411 48.029 61.018 47.5192 60.5746 47.2402C60.4317 47.3823 60.2864 47.5218 60.1399 47.6592C60.1746 47.655 60.2086 47.6528 60.2417 47.6528C60.6892 47.6528 61.0093 48.0438 61.4543 48.5921C61.1239 48.4942 60.6218 47.956 60.1146 47.6829C59.9759 47.8123 59.836 47.9395 59.694 48.0654C59.7341 48.0604 59.7726 48.0574 59.8107 48.0574C60.2959 48.0574 60.6433 48.4819 61.1264 49.0769C60.7667 48.97 60.2202 48.3843 59.6683 48.0883L59.5619 48.1829C59.4145 48.3118 59.2647 48.4382 59.114 48.5629C59.1574 48.5561 59.2005 48.5527 59.2431 48.5527C59.7217 48.5527 60.1452 48.9814 60.7224 49.5688C60.3299 49.489 59.6675 48.9021 59.0423 48.6223C58.8664 48.766 58.6884 48.9081 58.507 49.0455C58.5555 49.0374 58.6031 49.0336 58.6503 49.0336C59.1699 49.0336 59.6294 49.4992 60.2558 50.1362C59.8285 50.0497 59.1065 49.4085 58.4259 49.1057C58.3477 49.1642 58.2698 49.2232 58.1907 49.28C58.0512 49.3809 57.9101 49.4789 57.7681 49.5751C57.819 49.5671 57.8695 49.5628 57.9196 49.5628C58.4636 49.5628 58.9807 50.0285 59.6774 50.6595C59.21 50.5933 58.3919 49.9496 57.6372 49.6621C57.448 49.7876 57.2563 49.9097 57.0609 50.0263C57.1119 50.0187 57.1628 50.0149 57.2133 50.0149C57.8032 50.0149 58.3642 50.5204 59.1202 51.2048Z" fill="#629E2B"/>
<path d="M63.9223 50.5836C63.7211 50.1837 63.5753 49.8915 63.6759 49.6036C63.5679 49.6982 63.4632 49.7957 63.365 49.8992L63.3642 49.9L63.3162 49.9009L63.3149 49.8517C63.4193 49.7363 63.5302 49.6299 63.6441 49.5268C63.2876 49.4967 63.1224 49.1905 62.8877 48.7525C63.1021 48.8568 63.3621 49.2609 63.6693 49.5048C63.765 49.4191 63.8631 49.3356 63.9616 49.2529L64.0365 49.1922C63.6366 49.1685 63.4557 48.8339 63.1974 48.3509C63.4329 48.4654 63.7182 48.9124 64.0564 49.1761C64.1918 49.065 64.3292 48.9569 64.4683 48.8509C64.0539 48.8029 63.8548 48.4073 63.5716 47.8399C63.8233 47.9798 64.1355 48.5074 64.499 48.8271C64.5499 48.7889 64.6004 48.7495 64.6513 48.7113C64.7395 48.6456 64.8285 48.5816 64.9179 48.5176C64.4696 48.465 64.2535 48.0354 63.9463 47.4209C64.2195 47.5727 64.5586 48.1448 64.9531 48.4921C65.1163 48.3755 65.281 48.261 65.447 48.149C64.9411 48.1304 64.6745 47.6736 64.2932 47.0146C64.6045 47.1652 65.0173 47.7775 65.476 48.1295C65.6325 48.0244 65.7907 47.9213 65.95 47.8204C65.3974 47.8034 65.1076 47.3068 64.6923 46.5893C65.031 46.753 65.4802 47.4201 65.9786 47.8021C66.0188 47.7763 66.0585 47.7504 66.0987 47.7254C66.2643 47.6223 66.4315 47.5218 66.5996 47.423C66.0598 47.4209 65.6888 46.9023 65.1672 46.169C65.5423 46.3115 66.1057 46.9985 66.6795 47.3764C66.8758 47.2627 67.0736 47.1516 67.2736 47.0452C66.6857 47.0448 66.2833 46.482 65.7157 45.6843C66.1243 45.8396 66.7383 46.5897 67.3634 46.9985C67.4496 46.954 67.5353 46.9082 67.6222 46.865C67.7754 46.7882 67.9302 46.7144 68.0855 46.6423C67.4765 46.6402 67.0128 46.066 66.3678 45.262C66.819 45.4032 67.527 46.1708 68.2279 46.5774C68.4345 46.4841 68.6423 46.3947 68.853 46.3115C68.3032 46.3035 67.8607 45.8608 67.3212 45.2064C67.4313 45.209 67.5423 45.2107 67.6524 45.214C68.0664 45.5363 68.5487 45.9693 69.0277 46.2454C69.0952 46.2199 69.1623 46.1936 69.2298 46.169C69.2413 46.1652 69.2533 46.1631 69.2649 46.1631C69.3088 46.1631 69.3502 46.1915 69.3655 46.2365C69.385 46.2933 69.3556 46.3556 69.3001 46.3756L69.2985 46.3764L69.2968 46.3768C69.2343 46.3976 69.1726 46.4205 69.1109 46.4426C69.0488 47.331 69.2877 48.4336 69.1395 48.9306C68.8199 47.8331 68.5951 47.0507 68.9855 46.4867C68.7818 46.5613 68.5798 46.6406 68.3794 46.725C68.3268 47.5405 68.5429 48.5447 68.4071 48.9989C68.1202 48.0121 67.9153 47.3013 68.2395 46.7848C68.0581 46.8633 67.8776 46.9438 67.6988 47.0286C67.6417 47.0554 67.5853 47.0842 67.5286 47.1122C67.5212 47.8632 67.7733 48.7758 67.6719 49.2007C67.3556 48.3059 67.1304 47.6631 67.4094 47.1703C67.2144 47.2678 67.0211 47.3692 66.8294 47.4739C66.8344 48.1558 67.0529 48.9649 66.9623 49.3466C66.6874 48.5701 66.4878 47.9998 66.6799 47.5566C66.5089 47.652 66.3388 47.7491 66.1707 47.8496L66.0734 47.9086C66.1256 48.5235 66.3835 49.2211 66.3293 49.5807C66.0175 48.9064 65.7923 48.4166 65.9587 47.9781C65.8358 48.0536 65.7132 48.13 65.5915 48.2076C65.6395 48.7741 65.8772 49.4174 65.8275 49.7486C65.5406 49.1295 65.3336 48.6783 65.4847 48.2754C65.3336 48.3734 65.1833 48.473 65.0343 48.5744C65.0989 49.0994 65.3659 49.6965 65.3361 50.0103C65.0231 49.4289 64.8016 49.015 64.9701 48.6193C64.8836 48.6787 64.7975 48.7381 64.7122 48.7987C64.6671 48.8309 64.6228 48.864 64.5776 48.8967C64.6352 49.3822 64.8844 49.9378 64.8571 50.2282C64.5656 49.6876 64.3603 49.3038 64.5238 48.9357C64.3951 49.0298 64.268 49.1257 64.1429 49.2236C64.1748 49.6498 64.3661 50.1244 64.328 50.3818C64.0991 49.9267 63.9364 49.6002 64.0788 49.2732L64.0154 49.3224C63.9272 49.3933 63.8395 49.4649 63.753 49.5383C63.7873 49.9255 63.9566 50.3508 63.9223 50.5836Z" fill="#629E2B"/>
<path d="M57.5451 57.494C57.524 57.1938 57.5017 56.8906 57.4756 56.5827C57.4756 56.5827 57.476 56.5831 57.4764 56.5831C57.5029 56.891 57.5265 57.1934 57.5472 57.4923L57.5451 57.494Z" fill="#A9B2B3"/>
<path d="M57.4768 56.5834C57.4764 56.5834 57.476 56.5829 57.476 56.5829C57.4598 56.3951 57.4429 56.2051 57.4238 56.0134C57.4238 56.0134 57.4238 56.0134 57.4242 56.0138C57.4429 56.2051 57.4603 56.3955 57.4768 56.5834Z" fill="#17282F"/>
<path d="M59.9277 58.2764C59.4143 58.2624 58.4522 57.6666 57.6023 57.4516L57.5472 57.4923C57.5265 57.1933 57.5029 56.8909 57.4764 56.5831C57.4598 56.3952 57.4425 56.2048 57.4238 56.0135C57.6259 56.4529 57.7099 56.8379 57.5799 57.2077C57.7567 57.0801 57.931 56.9478 58.102 56.8121C57.9397 56.0118 57.469 55.1035 57.481 54.6285C58.0154 55.5008 58.3988 56.1293 58.2212 56.7158C58.3752 56.5911 58.528 56.4639 58.6782 56.3329C58.7263 56.2913 58.7731 56.248 58.8207 56.2056C58.6315 55.4796 58.1504 54.6697 58.1367 54.2324C58.6754 55.0081 59.0604 55.5657 58.92 56.117C59.0823 55.9699 59.2425 55.8193 59.3994 55.6654C59.2169 55.0098 58.795 54.2901 58.7826 53.8974C59.2504 54.5704 59.5915 55.0653 59.522 55.5449C59.6619 55.4058 59.8002 55.2659 59.9364 55.123L60.0146 55.0394C59.8039 54.4614 59.3734 53.8597 59.3311 53.4984C59.8076 54.0624 60.1529 54.4729 60.107 54.9411C60.2059 54.8346 60.304 54.7278 60.4009 54.6192C60.2067 54.0866 59.8097 53.5319 59.7712 53.199C60.2088 53.7172 60.5263 54.095 60.4862 54.5251C60.6062 54.3889 60.7251 54.252 60.8418 54.1129C60.6427 53.6252 60.2295 53.1226 60.1761 52.8127C60.6298 53.2868 60.9511 53.6248 60.8923 54.0522C60.9598 53.9712 61.0277 53.8906 61.0939 53.8088C61.1287 53.7651 61.1631 53.721 61.1979 53.6778C61.0153 53.2253 60.6303 52.7584 60.581 52.4709C61.0029 52.9123 61.3009 53.2257 61.2393 53.6252C61.339 53.4992 61.4363 53.372 61.5315 53.2435C61.3891 52.8415 61.0811 52.4369 61.0505 52.1782C61.39 52.554 61.6317 52.8241 61.5804 53.1778L61.6284 53.1133C61.6947 53.0209 61.7605 52.9276 61.8247 52.8334C61.6905 52.4696 61.4164 52.1062 61.3887 51.8729C61.6868 52.2028 61.9037 52.4446 61.8822 52.749C61.9617 52.6286 62.037 52.5061 62.1045 52.3793L62.1049 52.3784L62.1513 52.3644L62.1654 52.4111C62.0946 52.551 62.0155 52.6842 61.9327 52.8148C61.972 52.8071 62.0101 52.8033 62.047 52.8033C62.3393 52.8033 62.5616 53.0357 62.8638 53.3533C62.6295 53.3118 62.2738 52.9933 61.9145 52.8428C61.8441 52.9513 61.7717 53.0586 61.6984 53.1655L61.6421 53.2448C61.6913 53.2338 61.7385 53.2287 61.7841 53.2287C62.1012 53.2287 62.3426 53.4806 62.6705 53.8253C62.4134 53.7791 62.0217 53.4267 61.6268 53.2656C61.5257 53.4098 61.4214 53.5514 61.315 53.6918C61.3515 53.6858 61.3866 53.6828 61.421 53.6828C61.7795 53.6828 62.0594 53.9924 62.4436 54.4199C62.1641 54.3542 61.7253 53.9318 61.2914 53.7231C61.2525 53.774 61.2144 53.8258 61.1751 53.8762C61.1076 53.9636 61.0385 54.0497 60.9689 54.1362C61.0078 54.1298 61.0455 54.1268 61.0824 54.1268C61.4715 54.1268 61.775 54.4623 62.1919 54.9266C61.8884 54.855 61.4127 54.397 60.942 54.1705C60.8153 54.3274 60.6861 54.4826 60.5553 54.6366C60.6191 54.6209 60.6812 54.6133 60.7416 54.6133C61.1478 54.6133 61.4939 54.9512 61.9633 55.4135C61.6243 55.3537 61.0666 54.8762 60.5326 54.6629C60.4092 54.8071 60.2837 54.9495 60.1566 55.0908C60.2279 55.073 60.2966 55.0645 60.3636 55.0645C60.805 55.0645 61.1801 55.4313 61.6897 55.9325C61.3212 55.8672 60.7139 55.3473 60.1339 55.1166L60.0382 55.2231C59.9058 55.3677 59.7708 55.5102 59.6342 55.6518C59.7079 55.631 59.7807 55.6213 59.8536 55.6213C60.2982 55.6213 60.7458 55.983 61.3419 56.4673C60.9437 56.4329 60.2212 55.9253 59.5696 55.7184C59.4102 55.8821 59.2487 56.0428 59.0836 56.2006C59.1643 56.1772 59.2446 56.1666 59.3249 56.1666C59.8072 56.1666 60.2929 56.5593 60.9403 57.0847C60.5061 57.0474 59.7186 56.4927 59.0094 56.2697C58.9382 56.3367 58.867 56.4041 58.795 56.4698C58.6671 56.5856 58.5379 56.6988 58.4067 56.8112C58.4932 56.787 58.5797 56.7756 58.6675 56.7756C59.175 56.7756 59.7132 57.1606 60.422 57.6704C59.9505 57.6581 59.0678 57.1123 58.2862 56.9126C58.1119 57.0589 57.9347 57.2022 57.7534 57.34C57.8432 57.3158 57.933 57.3048 58.0237 57.3048C58.5743 57.3048 59.1585 57.723 59.9277 58.2764Z" fill="#629E2B"/>
<path d="M70.1585 57.6925C70.1291 57.4508 70.3224 57.0093 70.358 56.6128C70.2359 56.5759 70.1142 56.5365 69.9933 56.4958L69.903 56.4636C70.098 56.8219 69.92 57.1578 69.6617 57.6408C69.629 57.3757 69.8438 56.8889 69.8794 56.4551C69.7151 56.3982 69.5519 56.3376 69.3901 56.274C69.5731 56.6578 69.3545 57.0424 69.0398 57.592C69.0195 57.2994 69.2857 56.746 69.3541 56.26C69.2949 56.2371 69.2357 56.2146 69.1769 56.1909C69.0754 56.1497 68.9748 56.1073 68.8742 56.0649C69.0717 56.4805 68.8345 56.8982 68.4934 57.4936C68.4714 57.176 68.7604 56.5755 68.8345 56.0484C68.6503 55.9704 68.4677 55.8894 68.2859 55.8058C68.543 56.2528 68.31 56.7286 67.9721 57.4122C67.9291 57.0623 68.2114 56.3766 68.2549 55.7914C68.0843 55.7125 67.9142 55.6311 67.7453 55.548C68.0284 56.0344 67.7755 56.5518 67.4074 57.296C67.3606 56.9156 67.6687 56.1688 67.7146 55.5331C67.6724 55.5119 67.6293 55.492 67.5875 55.4704C67.4132 55.383 67.241 55.2923 67.0692 55.2002C67.3573 55.668 67.1301 56.2668 66.8067 57.1115C66.7218 56.7108 66.9852 55.8554 66.9881 55.1561C66.7889 55.048 66.591 54.9369 66.3956 54.8211C66.7115 55.3287 66.4643 55.9797 66.1124 56.8982C66.021 56.4619 66.3083 55.5285 66.3095 54.7685C66.2263 54.7185 66.1427 54.6685 66.0599 54.6167C65.9146 54.5255 65.7709 54.4318 65.6281 54.3364C65.9535 54.8635 65.7299 55.5726 65.4144 56.5619C65.2882 56.0963 65.5399 55.0722 65.4981 54.2478C65.3105 54.1197 65.1251 53.9883 64.9433 53.8509C65.2869 54.4217 65.0443 55.188 64.7044 56.2549C64.567 55.7477 64.8423 54.6307 64.7947 53.7355C64.738 53.691 64.68 53.6477 64.6237 53.6019C64.5773 53.5646 64.5695 53.4959 64.6059 53.4484C64.627 53.4213 64.6581 53.4069 64.6899 53.4069C64.7131 53.4069 64.7363 53.4145 64.7558 53.4302L64.757 53.4315L64.7583 53.4323C64.8088 53.4751 64.8613 53.5163 64.9127 53.5578C65.6777 53.1342 66.4565 52.3348 66.9458 52.1961C66.2329 53.0388 65.7183 53.6435 65.0696 53.6435C65.0518 53.6435 65.034 53.6431 65.0162 53.6422C65.1872 53.7783 65.361 53.9102 65.5382 54.0379C66.2379 53.6452 66.9483 52.9187 67.3954 52.792C66.7384 53.5684 66.2644 54.1269 65.6666 54.1269C65.6649 54.1269 65.6637 54.1269 65.6624 54.1265C65.8243 54.241 65.9878 54.3538 66.1534 54.4624C66.2064 54.4976 66.2607 54.5306 66.3141 54.565C66.9367 54.1672 67.5523 53.4599 67.9568 53.3187C67.3896 54.0731 66.9814 54.6129 66.4258 54.6362C66.6109 54.7528 66.7984 54.8652 66.9876 54.9746C67.5465 54.6036 68.0951 53.9802 68.4582 53.8534C67.9663 54.5077 67.6041 54.9869 67.1363 55.059C67.3064 55.1553 67.4778 55.2499 67.6509 55.3419L67.7519 55.394C68.2301 55.0183 68.6656 54.4208 68.991 54.2741C68.6035 54.9055 68.3211 55.3635 67.8703 55.4555C67.9986 55.5213 68.1278 55.5862 68.257 55.6498C68.6975 55.3037 69.0995 54.7529 69.3988 54.6176C69.0427 55.1977 68.7832 55.6192 68.37 55.7053C68.5319 55.7833 68.6946 55.8597 68.8585 55.9339C69.2559 55.5959 69.6041 55.0446 69.8782 54.9017C69.5681 55.4844 69.3458 55.8978 68.9301 55.9653C69.0253 56.0081 69.1201 56.0505 69.2162 56.0916C69.2671 56.1133 69.318 56.1336 69.369 56.1548C69.7378 55.844 70.0612 55.3304 70.3154 55.1981C70.0264 55.7405 69.821 56.1243 69.4302 56.1803C69.5768 56.2409 69.7238 56.2994 69.872 56.355C70.2057 56.098 70.4934 55.6782 70.7256 55.573C70.4743 56.0149 70.293 56.3308 69.9473 56.3838L70.0214 56.4122C70.1274 56.4504 70.2338 56.4873 70.3406 56.5225C70.6408 56.285 70.8999 55.9101 71.1102 55.8147C70.8888 56.2036 70.7265 56.4865 70.4354 56.5543C70.5712 56.5967 70.7083 56.6349 70.8461 56.6637L70.8469 56.6641L70.8738 56.7057L70.8341 56.7328C70.683 56.7044 70.5352 56.6658 70.3891 56.6226C70.5563 56.947 70.3932 57.254 70.1585 57.6925Z" fill="#629E2B"/>
<path d="M65.3331 65.8235C64.8119 65.8235 63.8352 65.3074 62.9894 65.1509C62.9344 65.1971 62.8797 65.2446 62.8234 65.2904C62.8036 65.3065 62.7804 65.3142 62.7572 65.3142C62.7257 65.3142 62.6947 65.2998 62.6736 65.2726C62.6367 65.2251 62.6446 65.1564 62.691 65.1191L62.6922 65.1178L62.6934 65.117C62.746 65.0763 62.7965 65.0339 62.8483 64.9923C62.6226 64.1319 62.0435 63.1709 62.0244 62.6514C62.6777 63.581 63.1406 64.2447 62.9522 64.9083C63.1211 64.7697 63.2867 64.6268 63.449 64.4796C63.2374 63.6921 62.7117 62.816 62.6947 62.341C63.2817 63.1769 63.7028 63.7795 63.562 64.3766C63.7081 64.2413 63.8526 64.1047 63.9946 63.9644C64.0398 63.9198 64.0836 63.8736 64.1288 63.8282C63.8949 63.1162 63.3649 62.3389 63.3244 61.9034C63.9098 62.6425 64.3287 63.1739 64.2223 63.7332C64.3755 63.5759 64.5258 63.4152 64.6732 63.2519C64.4505 62.609 63.9851 61.9182 63.9483 61.5272C64.4567 62.1684 64.8276 62.64 64.7879 63.123C64.9191 62.9759 65.0487 62.827 65.1754 62.6756L65.2482 62.587C65.0023 62.0238 64.5353 61.4513 64.4712 61.0934C64.9812 61.6256 65.3513 62.0128 65.3343 62.4831C65.4267 62.3703 65.5177 62.2571 65.608 62.1426C65.3811 61.6235 64.951 61.096 64.8918 60.766C65.3604 61.255 65.7007 61.6112 65.6871 62.0429C65.7988 61.8996 65.909 61.755 66.017 61.6091C65.7877 61.135 65.3447 60.6604 65.2722 60.3543C65.7541 60.7978 66.0953 61.1146 66.0634 61.5451C66.1259 61.4598 66.1884 61.375 66.2493 61.2889C66.282 61.2435 66.313 61.1973 66.3449 61.1515C66.135 60.7118 65.7223 60.2707 65.6548 59.987C66.1031 60.4001 66.4203 60.6935 66.3834 61.0964C66.4749 60.9641 66.5643 60.8309 66.6513 60.6965C66.4844 60.3042 66.152 59.9209 66.1056 59.6647C66.4675 60.0176 66.7254 60.2711 66.696 60.6278L66.7403 60.5604C66.8007 60.4637 66.8608 60.3661 66.9187 60.2682C66.7622 59.9141 66.4662 59.5693 66.4244 59.3378C66.7424 59.6478 66.9734 59.8751 66.9705 60.1804C67.0425 60.0549 67.1104 59.9277 67.17 59.797L67.1704 59.7958L67.2156 59.7788L67.2325 59.8246C67.1708 59.9688 67.1 60.107 67.0251 60.2427C67.0765 60.2292 67.1257 60.2228 67.1737 60.2228C67.4495 60.2228 67.6796 60.4344 67.9881 60.7198C67.7513 60.6931 67.377 60.3988 67.0086 60.2716C66.9456 60.3848 66.8798 60.4968 66.8131 60.6079L66.7618 60.6905C66.8239 60.6723 66.8831 60.6638 66.9411 60.6638C67.24 60.6638 67.4892 60.8937 67.8237 61.2033C67.5646 61.174 67.1518 60.8479 66.7482 60.7122C66.6558 60.8627 66.5606 61.0107 66.4629 61.1579C66.5126 61.1464 66.561 61.1409 66.6082 61.1409C66.9485 61.1409 67.2396 61.4246 67.6341 61.8118C67.3514 61.7639 66.8873 61.3708 66.4414 61.1905C66.4058 61.244 66.3706 61.2978 66.3346 61.3513C66.2725 61.4424 66.2087 61.5332 66.145 61.6235C66.1984 61.6116 66.2501 61.6057 66.301 61.6057C66.6703 61.6057 66.9862 61.9136 67.4143 62.3334C67.1071 62.2817 66.6037 61.855 66.1201 61.6596C66.0034 61.8245 65.8841 61.9882 65.7632 62.1498C65.8423 62.1248 65.9189 62.1129 65.9947 62.1129C66.3818 62.1129 66.7386 62.4199 67.2164 62.8338C66.874 62.7961 66.2882 62.3559 65.7421 62.1773C65.6275 62.3296 65.5115 62.4801 65.3935 62.629C65.4809 62.601 65.5662 62.5874 65.6498 62.5874C66.07 62.5874 66.4571 62.9207 66.9754 63.3698C66.6033 63.3287 65.9653 62.8491 65.372 62.6561L65.283 62.7685C65.16 62.9216 65.0338 63.073 64.9067 63.2227C64.9965 63.1913 65.0864 63.1764 65.1774 63.1764C65.6051 63.1764 66.0613 63.4996 66.6612 63.9262C66.2613 63.9177 65.5095 63.4576 64.8462 63.2935C64.6972 63.4669 64.5461 63.6383 64.3908 63.8062C64.4894 63.771 64.5883 63.7549 64.6885 63.7549C65.1526 63.7549 65.6473 64.1052 66.2985 64.5682C65.8626 64.5589 65.0425 64.0568 64.3209 63.88C64.2542 63.9512 64.1876 64.0233 64.1193 64.0933C63.9992 64.2175 63.8771 64.3392 63.7533 64.4593C63.8593 64.4219 63.9669 64.4046 64.0774 64.4046C64.5668 64.4046 65.1108 64.7434 65.8175 65.1865C65.8088 65.187 65.8001 65.187 65.7914 65.187C65.3128 65.187 64.4169 64.7141 63.639 64.5682C63.4738 64.7256 63.3062 64.8799 63.1335 65.0296C63.2449 64.9919 63.3579 64.9745 63.4738 64.9745C64.0042 64.9745 64.5945 65.3426 65.3617 65.8231C65.3521 65.8231 65.3426 65.8235 65.3331 65.8235Z" fill="#629E2B"/>
<path d="M70.1553 65.613C69.9077 65.2416 69.7285 64.9697 69.7939 64.6716C69.6979 64.7789 69.6051 64.8887 69.5207 65.0041L69.5198 65.0049L69.4722 65.0117L69.4648 64.9634C69.555 64.8357 69.6523 64.7157 69.7529 64.5991C69.7438 64.5995 69.7347 64.5999 69.726 64.5999C69.3849 64.5999 69.1874 64.3209 68.9092 63.9261C69.1348 64.0028 69.4408 64.3709 69.7753 64.5745C69.8601 64.4774 69.9471 64.382 70.0348 64.2878L70.1023 64.2179C70.0862 64.2187 70.0705 64.2195 70.0551 64.2195C69.685 64.2195 69.4702 63.9172 69.1683 63.4889C69.4159 63.5728 69.7529 63.9804 70.1201 64.1992C70.241 64.0724 70.3644 63.9477 70.4898 63.8252C70.4874 63.8252 70.4849 63.8252 70.482 63.8252C70.07 63.8252 69.8254 63.4583 69.4784 62.9346C69.7455 63.0419 70.1185 63.5258 70.5176 63.7976C70.5635 63.7531 70.6087 63.7077 70.655 63.6636C70.7341 63.5873 70.8152 63.5126 70.896 63.4376C70.8935 63.4376 70.8914 63.4376 70.8889 63.4376C70.4418 63.4376 70.1769 63.0398 69.8001 62.4711C70.0899 62.5877 70.4948 63.1127 70.9278 63.4079C71.0756 63.2713 71.2255 63.1373 71.377 63.0054C71.3522 63.0076 71.3278 63.0084 71.3038 63.0084C70.8409 63.0084 70.5308 62.6004 70.0957 62.0246C70.4228 62.1348 70.9059 62.6908 71.4035 62.9825C71.5459 62.8583 71.6904 62.7362 71.8366 62.6157C71.8076 62.6187 71.779 62.62 71.7509 62.62C71.2491 62.62 70.9125 62.1772 70.441 61.5522C70.7966 61.6722 71.3224 62.2777 71.8631 62.5937L71.9728 62.5029C72.1247 62.3795 72.2787 62.2591 72.434 62.1399C72.4004 62.1437 72.3669 62.1459 72.3342 62.1459C71.8432 62.1459 71.4296 61.6963 70.862 61.0755C71.2512 61.1696 71.8925 61.7807 72.5077 62.0835C72.6886 61.9461 72.8716 61.8108 73.0575 61.6802C73.0198 61.6849 72.9825 61.687 72.9457 61.687C72.4129 61.687 71.9641 61.1989 71.3481 60.5255C71.7724 60.6281 72.4712 61.2952 73.1407 61.6225C73.221 61.567 73.3009 61.511 73.382 61.4572C73.5249 61.3617 73.6694 61.2689 73.8147 61.1781C73.7753 61.1828 73.7364 61.1853 73.6979 61.1853C73.1407 61.1853 72.6335 60.6943 71.9446 60.0242C72.4096 60.1078 73.204 60.7804 73.9484 61.0959C74.1421 60.9775 74.338 60.8626 74.5371 60.7532C74.4986 60.7579 74.4605 60.7596 74.4228 60.7596C73.818 60.7596 73.2678 60.2269 72.5205 59.4997C73.0264 59.5904 73.8925 60.3249 74.7027 60.6659C74.7665 60.6319 74.8294 60.5972 74.8936 60.5649C74.9089 60.5569 74.925 60.5535 74.9408 60.5535C74.9801 60.5535 75.0182 60.576 75.0368 60.6141C75.0629 60.6684 75.0409 60.7341 74.9884 60.7604L74.9867 60.7613L74.9855 60.7621C74.9258 60.7905 74.8675 60.8215 74.8083 60.8507C74.8534 61.7404 75.2227 62.8049 75.1353 63.3167C74.6866 62.2676 74.3698 61.5195 74.6895 60.9105C74.4961 61.0098 74.3053 61.1141 74.1161 61.2231C74.162 62.039 74.4965 63.0084 74.4166 63.4762C74.0134 62.533 73.7248 61.8537 73.9848 61.2998C73.8143 61.4008 73.6445 61.503 73.4773 61.6098C73.4243 61.6442 73.3713 61.6798 73.3183 61.7146C73.4015 62.4609 73.7604 63.3349 73.7112 63.7692C73.2897 62.9211 72.9892 62.3112 73.2073 61.7871C73.0256 61.9084 72.8459 62.0335 72.6679 62.1611C72.7548 62.8375 73.0686 63.6131 73.0243 64.0033C72.6584 63.2671 72.3918 62.7264 72.5296 62.2625C72.3715 62.3787 72.2141 62.4966 72.0593 62.617L71.9699 62.6882C72.0953 63.2913 72.4348 63.9515 72.4245 64.315C72.0341 63.6852 71.7517 63.2272 71.8643 62.7714C71.7513 62.8617 71.6387 62.9529 71.5273 63.0453C71.6428 63.6017 71.9558 64.2098 71.9463 64.5448C71.5878 63.9664 71.3282 63.5449 71.4296 63.1259C71.2913 63.2421 71.1539 63.36 71.0185 63.4795C71.1456 63.9922 71.4818 64.5512 71.4901 64.8662C71.1096 64.329 70.8405 63.9456 70.9597 63.5321C70.8815 63.6017 70.8028 63.6716 70.7254 63.7425C70.6844 63.7802 70.6447 63.8188 70.6041 63.8565C70.7192 64.3311 71.033 64.851 71.0409 65.1427C70.6865 64.6428 70.4368 64.2878 70.5552 63.9023C70.4389 64.0113 70.3242 64.1229 70.2112 64.2357C70.294 64.6551 70.5408 65.1012 70.5341 65.3616C70.2522 64.9392 70.0518 64.6356 70.1537 64.2933L70.0965 64.3497C70.0179 64.4312 69.9392 64.5139 69.8622 64.597C69.9425 64.9769 70.1619 65.3777 70.1553 65.613Z" fill="#629E2B"/>
<path d="M66.3378 71.7793C66.233 71.7746 66.1287 71.7704 66.0235 71.7657C65.6021 71.5745 65.0804 71.2674 64.5928 71.1144C64.5215 71.1814 64.4508 71.2488 64.3783 71.3145C64.2529 71.4282 64.1258 71.5397 63.9974 71.65C63.8914 71.6427 63.7846 71.6347 63.6782 71.6271C63.5106 70.834 63.0527 69.9422 63.0647 69.4732C63.5992 70.3455 63.9821 70.974 63.8045 71.5605C63.9589 71.4354 64.1117 71.3086 64.262 71.1775C64.3096 71.136 64.3568 71.0927 64.404 71.0503C64.2148 70.3243 63.7341 69.5143 63.7205 69.0771C64.2591 69.8528 64.6441 70.4104 64.5037 70.9617C64.666 70.8145 64.8258 70.664 64.9832 70.5105C64.8002 69.8544 64.3787 69.1348 64.3663 68.7421C64.8337 69.4151 65.1753 69.91 65.1057 70.3896C65.2456 70.2505 65.3839 70.1106 65.5201 69.9677L65.5984 69.8841C65.3872 69.3061 64.9567 68.7044 64.9148 68.3431C65.3909 68.9071 65.7362 69.3176 65.6903 69.7857C65.7892 69.6793 65.8873 69.572 65.9846 69.4639C65.7905 68.9313 65.3934 68.3766 65.3545 68.0437C65.7925 68.5619 66.1101 68.9397 66.0695 69.3693C66.19 69.2336 66.3084 69.0966 66.4255 68.958C66.2264 68.4699 65.8132 67.9678 65.7598 67.6573C66.2132 68.1315 66.5344 68.4699 66.4756 68.8969C66.5435 68.8163 66.611 68.7353 66.6777 68.6535C66.7124 68.6102 66.7464 68.5661 66.7812 68.5225C66.599 68.07 66.214 67.6035 66.1643 67.316C66.5862 67.757 66.8847 68.0704 66.823 68.4699C66.9223 68.3439 67.0196 68.2171 67.1153 68.0878C66.9728 67.6862 66.6648 67.2816 66.6342 67.0229C66.9737 67.3987 67.2154 67.6688 67.1637 68.0225L67.2121 67.958C67.2784 67.8656 67.3442 67.7723 67.4084 67.6777C67.2742 67.3143 66.9997 66.9513 66.9724 66.7172C67.2705 67.0475 67.4874 67.2893 67.4655 67.5942C67.545 67.4737 67.6207 67.3507 67.6878 67.224L67.6886 67.2231L67.7346 67.2091L67.7491 67.2558C67.6783 67.3953 67.5992 67.5289 67.516 67.6595C67.5557 67.6518 67.5938 67.648 67.6307 67.648C67.923 67.648 68.1453 67.8804 68.4475 68.198C68.2132 68.1561 67.8576 67.838 67.4978 67.687C67.4278 67.796 67.3554 67.9033 67.2821 68.0102L67.2254 68.0895C67.2746 68.0784 67.3218 68.0734 67.3678 68.0734C67.6845 68.0734 67.9259 68.3248 68.2538 68.6696C67.9971 68.6238 67.6054 68.2714 67.2105 68.1103C67.1095 68.2544 67.0051 68.3961 66.8987 68.5364C66.9348 68.5305 66.9699 68.5275 67.0047 68.5275C67.3632 68.5275 67.6427 68.8371 68.0269 69.2646C67.7474 69.1988 67.309 68.7765 66.8751 68.5678C66.8362 68.6187 66.7981 68.67 66.7588 68.7209C66.6909 68.8083 66.6218 68.8944 66.5526 68.9809C66.5911 68.9745 66.6292 68.9715 66.6661 68.9715C67.0548 68.9715 67.3583 69.3074 67.7756 69.7713C67.4721 69.6997 66.996 69.2412 66.5253 69.0148C66.3986 69.1721 66.2699 69.3273 66.1386 69.4808C66.2028 69.4652 66.2645 69.4579 66.3249 69.4579C66.7315 69.4579 67.0772 69.7959 67.5471 70.2577C67.2076 70.1979 66.6499 69.7209 66.1163 69.5071C65.9925 69.6517 65.8675 69.7942 65.7399 69.9354C65.8112 69.9176 65.8803 69.9092 65.9474 69.9092C66.3887 69.9092 66.7638 70.276 67.2734 70.7772C66.9045 70.7119 66.2976 70.1924 65.7172 69.9609L65.6215 70.0678C65.4895 70.2124 65.3541 70.3553 65.2179 70.4961C65.2912 70.4757 65.364 70.466 65.4369 70.466C65.8815 70.466 66.3291 70.8277 66.9256 71.312C66.527 71.2776 65.8049 70.77 65.1529 70.5631C64.9939 70.7263 64.8325 70.8875 64.6673 71.0448C64.7476 71.0223 64.8275 71.0113 64.9074 71.0113C65.3429 71.0113 65.7818 71.3315 66.3378 71.7793Z" fill="#629E2B"/>
<path d="M63.2205 71.5941C63.1166 71.5865 63.0114 71.5776 62.9071 71.5695C62.6865 70.8592 62.3668 70.1506 62.3772 69.7397C62.8351 70.4869 63.1866 71.0691 63.2205 71.5941Z" fill="#629E2B"/>
<path d="M64.6443 71.6917C64.4368 71.6789 64.2286 71.6652 64.0195 71.6512C64.0974 71.632 64.1756 71.6226 64.2543 71.6226C64.3818 71.6226 64.5109 71.6469 64.6443 71.6917Z" fill="#3665B9"/>
<path d="M73.9004 71.5969C73.8768 71.2382 74.1414 70.5792 74.1836 70.0113C74.0126 69.9325 73.8429 69.8515 73.674 69.7683C73.9571 70.2547 73.7038 70.7717 73.3361 71.5163C73.2889 71.136 73.597 70.3896 73.6433 69.7535C73.6011 69.7323 73.5585 69.7119 73.5162 69.6907C73.3419 69.6034 73.1697 69.5126 72.9979 69.4202C73.2856 69.8879 73.0588 70.4871 72.735 71.3319C72.6506 70.9311 72.9139 70.0754 72.9163 69.3765C72.7172 69.2684 72.5197 69.1573 72.3243 69.0411C72.6402 69.5491 72.3931 70.1996 72.0416 71.1186C71.9492 70.6822 72.237 69.7488 72.2382 68.9889C72.155 68.9384 72.071 68.8888 71.9886 68.8371C71.8433 68.7459 71.6996 68.6522 71.5564 68.5568C71.8822 69.0835 71.6586 69.7929 71.3432 70.7819C71.2169 70.3162 71.4686 69.2921 71.4268 68.4682C71.2392 68.3401 71.0534 68.2086 70.8716 68.0712C71.2156 68.6416 70.9734 69.4087 70.6331 70.4748C70.4957 69.9681 70.771 68.8511 70.7234 67.9554C70.6663 67.9109 70.6087 67.8677 70.5524 67.8223C70.506 67.7846 70.4982 67.7163 70.5346 67.6688C70.5557 67.6412 70.5868 67.6272 70.6182 67.6272C70.6414 67.6272 70.665 67.6349 70.6845 67.6505L70.6857 67.6518L70.687 67.6527C70.7375 67.6955 70.79 67.7362 70.8414 67.7782C71.606 67.3541 72.3856 66.5552 72.8741 66.4161C72.1616 67.2591 71.647 67.8639 70.9983 67.8639C70.9805 67.8639 70.9627 67.8634 70.9449 67.8626C71.1155 67.9987 71.2897 68.1302 71.4669 68.2582C72.1662 67.8655 72.877 67.1391 73.3237 67.0123C72.6671 67.7888 72.1931 68.3469 71.5949 68.3469C71.5936 68.3469 71.5924 68.3469 71.5911 68.3469C71.753 68.4618 71.9161 68.5742 72.0821 68.6831C72.1351 68.7179 72.1894 68.751 72.2428 68.7854C72.865 68.3876 73.481 67.6798 73.8851 67.5386C73.3188 68.293 72.9101 68.8333 72.3545 68.8566C72.5396 68.9728 72.7267 69.0856 72.9159 69.1946C73.4752 68.8239 74.0238 68.2006 74.3869 68.0738C73.895 68.7285 73.5328 69.2073 73.0646 69.2794C73.2351 69.3757 73.4065 69.4706 73.5796 69.5618L73.6806 69.614C74.1583 69.2387 74.5947 68.6412 74.9193 68.4944C74.5322 69.1259 74.2498 69.5839 73.7994 69.6755C73.9273 69.7416 74.0561 69.8065 74.1857 69.8697C74.6262 69.5241 75.0282 68.9732 75.3275 68.8379C74.9714 69.4181 74.7119 69.8396 74.2987 69.9257C74.4606 70.0037 74.6233 70.08 74.7872 70.1538C75.1842 69.8163 75.5328 69.2645 75.8065 69.1216C75.4964 69.7047 75.2745 70.1182 74.8584 70.1856C74.9536 70.228 75.0489 70.2709 75.1449 70.3116C75.1954 70.3336 75.2468 70.354 75.2977 70.3752C75.6665 70.0643 75.9899 69.5508 76.2441 69.4185C75.9551 69.9609 75.7498 70.3442 75.3589 70.4006C75.5051 70.4617 75.6525 70.5198 75.8007 70.5753C75.9808 70.4367 76.1472 70.2514 76.2987 70.0927C76.2664 70.2234 76.2304 70.3417 76.1927 70.4519C76.1008 70.5317 75.999 70.5851 75.876 70.6042L75.9501 70.6322C76.0006 70.6504 76.052 70.6674 76.1025 70.6852L76.0677 70.7628C76.0193 70.7471 75.9704 70.7323 75.922 70.7161L75.8317 70.6839C75.8889 70.7882 75.9108 70.8913 75.9116 70.9964C75.8574 71.0346 75.797 71.0719 75.7291 71.1071C75.7642 70.9638 75.7961 70.8175 75.8077 70.6754C75.6438 70.6182 75.4807 70.558 75.3188 70.4944C75.4401 70.7484 75.383 71.0041 75.2405 71.3069C75.1801 71.3264 75.1147 71.345 75.0493 71.3633C75.1279 71.0927 75.2414 70.7747 75.2828 70.4804C75.2236 70.457 75.1644 70.435 75.1056 70.4112C75.0041 70.3705 74.9035 70.3277 74.8029 70.2853C74.9739 70.6449 74.8187 71.0066 74.5529 71.4833L74.4415 71.5045C74.5036 71.1703 74.7028 70.6966 74.7628 70.2683C74.579 70.1903 74.3964 70.1093 74.2147 70.0262C74.4668 70.4642 74.2469 70.9316 73.9199 71.594L73.9004 71.5969Z" fill="#629E2B"/>
<path d="M57.6475 62.8263C57.6487 62.7665 57.6508 62.7071 57.652 62.6473C57.6533 62.6465 57.6545 62.6461 57.6557 62.6456C57.6541 62.7054 57.6524 62.7652 57.6508 62.8246C57.6495 62.825 57.6483 62.8254 57.6475 62.8263ZM57.6632 62.3119C57.6624 62.3115 57.662 62.3111 57.6615 62.3106C57.6636 62.194 57.6653 62.0761 57.6669 61.9574C57.6678 61.9582 57.6682 61.9586 57.669 61.9595C57.6673 62.0778 57.6653 62.1953 57.6632 62.3119ZM57.674 61.1491C57.6727 61.1474 57.6719 61.1461 57.6707 61.1444C57.6702 61.0465 57.6723 60.954 57.6719 60.8548C57.6723 60.8552 57.6727 60.8556 57.6731 60.8561C57.6735 60.9545 57.674 61.052 57.674 61.1491Z" fill="#A9B2B3"/>
<path d="M58.3376 64.6229C58.0781 63.7091 57.8938 63.053 58.2035 62.5798C58.018 62.6578 57.8338 62.7396 57.6504 62.8245C57.652 62.7651 57.6537 62.7053 57.6554 62.6455C57.7949 62.5781 57.9344 62.5094 58.076 62.4458C57.9257 62.4356 57.7903 62.3885 57.6628 62.3117C57.6649 62.1951 57.6669 62.0777 57.6686 61.9594C57.8305 62.1209 57.9977 62.277 58.1683 62.4055C58.2573 62.366 58.3459 62.3266 58.4353 62.2889C58.5931 62.2223 58.7516 62.1587 58.9114 62.0972C58.4449 62.0649 58.0843 61.699 57.6736 61.149C57.6736 61.0518 57.6732 60.9543 57.6727 60.8559C58.0723 61.1795 58.5604 61.7083 59.0576 62.042C59.2695 61.9627 59.4828 61.8873 59.6984 61.8181C59.046 61.7651 58.5848 61.1121 57.9456 60.2012C58.4262 60.3869 59.1433 61.2741 59.8769 61.7639C59.9456 61.7426 60.0139 61.7206 60.0831 61.7011C60.093 61.6981 60.1025 61.6968 60.112 61.6968C60.1584 61.6968 60.2015 61.7287 60.2143 61.777C60.2304 61.8351 60.1969 61.8953 60.1402 61.9114L60.1385 61.9119L60.1373 61.9123C60.0735 61.9292 60.0106 61.9479 59.9473 61.9657C59.8293 62.8482 59.9986 63.9644 59.8189 64.4508C59.5697 63.3342 59.3946 62.5386 59.8193 62.0018C59.6115 62.0624 59.4049 62.1286 59.1996 62.1994C59.0957 63.0093 59.248 64.0258 59.0841 64.4703C58.8597 63.4665 58.6999 62.7439 59.0559 62.2494C58.87 62.316 58.685 62.3843 58.5016 62.4572C58.4424 62.4805 58.3844 62.5056 58.326 62.5293C58.2714 63.2786 58.4651 64.2061 58.3376 64.6229Z" fill="#629E2B"/>
<path d="M57.5785 64.5736C57.5785 64.5728 57.5781 64.5719 57.5781 64.5711C57.5943 64.2606 57.6092 63.9413 57.6224 63.614C57.6228 63.6178 57.6228 63.6216 57.6233 63.6254C57.61 63.9498 57.5951 64.2657 57.5785 64.5736Z" fill="#A9B2B3"/>
<path d="M57.6199 64.7217C57.6055 64.6708 57.5918 64.6229 57.5781 64.5737C57.5947 64.2658 57.6096 63.9499 57.6228 63.6255C57.6526 64.0703 57.6924 64.4851 57.6199 64.7217Z" fill="#3665B9"/>
<path d="M57.3095 70.976H57.3082C57.3082 70.9753 57.3082 70.9747 57.3076 70.9734C57.3076 70.974 57.3082 70.9753 57.3082 70.976C57.3089 70.976 57.3089 70.976 57.3095 70.976Z" fill="#C77F52"/>
<path d="M57.3223 70.9775L57.3086 70.9758H57.309C57.3131 70.9763 57.3181 70.9771 57.3223 70.9775Z" fill="#17282F"/>
<path d="M59.3056 71.2234C59.2282 71.2145 59.1508 71.2056 59.0738 71.1967C59.0142 71.0868 58.9558 70.9766 58.8933 70.868C58.8614 70.8129 58.8283 70.7582 58.7956 70.7026C58.3356 70.7442 57.8239 70.896 57.4021 70.988L57.3217 70.9774C57.3176 70.977 57.3126 70.9762 57.3085 70.9757C57.3081 70.9757 57.3081 70.9757 57.3077 70.9757C57.3077 70.9753 57.3073 70.9745 57.3073 70.974C57.3023 70.9214 57.3019 70.8604 57.2977 70.8057C57.6939 70.625 58.0326 70.5029 58.3332 70.5029C58.4718 70.5029 58.6027 70.5288 58.7273 70.5869C58.6138 70.3977 58.4967 70.2107 58.3758 70.0254C58.0106 70.0648 57.6157 70.173 57.27 70.254C57.2688 70.1789 57.2704 70.0962 57.2704 70.0182C57.5412 69.9066 57.7817 69.8363 58.0007 69.8363C58.098 69.8363 58.1912 69.8502 58.281 69.8808C58.1717 69.7162 58.0607 69.5521 57.9469 69.3901L57.8798 69.2968C57.6811 69.335 57.4758 69.3978 57.277 69.4635C57.2791 69.3787 57.2841 69.2875 57.2874 69.1997C57.3867 69.1717 57.4832 69.1561 57.5776 69.1561C57.6529 69.1561 57.7271 69.1658 57.8012 69.187C57.7159 69.0687 57.6298 68.9512 57.5424 68.8346C57.4625 68.8499 57.3809 68.8702 57.2998 68.8923C57.3031 68.8304 57.3052 68.7697 57.3089 68.7065C57.3619 68.7099 57.4141 68.718 57.4662 68.7324C57.4178 68.6688 57.3677 68.6065 57.3188 68.5433C57.3222 68.486 57.3263 68.4254 57.33 68.3669C57.4157 68.4716 57.5018 68.5759 57.5855 68.6819C57.554 68.1646 57.9717 67.8478 58.5753 67.3953C58.4594 67.7269 57.9042 68.2074 57.6066 68.7095C57.7246 68.8588 57.8397 69.0102 57.9535 69.1624C57.9158 68.5976 58.3704 68.2536 59.0274 67.7604C58.9012 68.1213 58.2967 68.6442 57.9746 69.19C58.0032 69.2286 58.0322 69.2663 58.0603 69.3049C58.1767 69.4635 58.2905 69.6242 58.4031 69.7862C58.3526 69.2354 58.82 68.807 59.4816 68.2036C59.3802 68.6001 58.7674 69.2413 58.4561 69.863C58.5857 70.0521 58.7128 70.2425 58.8358 70.4363C58.779 69.8371 59.2866 69.3719 60.0061 68.7154C59.8952 69.1471 59.2266 69.846 58.8896 70.5233C58.9417 70.6068 58.9943 70.6899 59.0452 70.7743C59.1342 70.9223 59.2208 71.0724 59.3056 71.2234Z" fill="#629E2B"/>
<path d="M57.4131 67.1235C57.4181 67.0561 57.4222 66.9942 57.4272 66.9255C57.5133 66.8657 57.6044 66.8051 57.7029 66.7402C57.6569 66.8521 57.5456 66.9819 57.4131 67.1235Z" fill="#3665B9"/>
<path d="M60.2294 71.3248C60.1068 71.3121 59.9843 71.2985 59.8613 71.285C60.0737 70.8728 60.479 70.4538 60.9783 69.9424C60.9104 70.2859 60.5606 70.7867 60.2294 71.3248Z" fill="#629E2B"/>
<path d="M59.4436 71.2393C59.3981 71.2342 59.3526 71.2291 59.307 71.2236C59.2503 70.6032 59.7628 70.0747 60.4807 69.3394C60.3925 69.7872 59.7864 70.523 59.4436 71.2393Z" fill="#629E2B"/>
<path d="M57.3516 68.0198C57.359 67.9099 57.366 67.7976 57.3739 67.6843C57.5453 67.4799 57.8152 67.2993 58.1473 67.0809C58.0442 67.3311 57.6509 67.6589 57.3516 68.0198Z" fill="#629E2B"/>
<path d="M86.1295 57.3169L87.9598 55.3289L90.4943 58.9848C90.4943 58.9848 88.3544 60.5402 86.3042 60.4779L86.0695 59.9415C85.6874 59.0679 85.7093 58.1027 86.1295 57.3169Z" fill="#EEA99F"/>
<path d="M90.8932 55.5205L91.609 56.9021C91.9352 57.5323 91.7046 58.3138 91.0927 58.6531L90.4945 58.9851L87.96 55.3292L89.4094 54.8848C89.9886 54.7075 90.6096 54.9734 90.8932 55.5205Z" fill="#EEA99F"/>
<path d="M76.4588 50.1795L76.6128 50.9911L76.7871 51.8481C76.9113 52.4197 77.0335 52.9934 77.1742 53.56C77.4441 54.6968 77.7638 55.8103 78.1115 56.8874C78.4709 57.9564 78.8749 58.9876 79.339 59.9018C79.806 60.8067 80.3442 61.5963 80.8563 62.0661L79.9762 61.6217C79.7182 61.5857 79.6719 61.6667 79.8056 61.6616C79.9323 61.662 80.1732 61.5937 80.4332 61.4775C80.9619 61.2397 81.5908 60.861 82.1965 60.4209C82.8141 59.9871 83.4327 59.4939 84.0528 58.9842C84.6701 58.4809 85.3006 57.9241 85.9017 57.4199L85.9655 57.3661C86.5877 56.8441 87.506 56.9374 88.016 57.5751C88.3944 58.0488 88.4408 58.6904 88.185 59.2026C87.7606 60.0485 87.3052 60.7944 86.7972 61.5547C86.2897 62.3065 85.7349 63.0342 85.1106 63.7444C84.4726 64.4433 83.7916 65.1421 82.8791 65.7722C82.4179 66.0851 81.9017 66.393 81.2264 66.6359C80.8882 66.7564 80.504 66.8556 80.0602 66.8976C79.6189 66.9396 79.1105 66.9217 78.5851 66.7886C78.2957 66.7152 78.0329 66.588 77.8047 66.4197L77.7046 66.3446C76.2655 65.2752 75.3199 64.001 74.5544 62.7433C74.176 62.1115 73.8386 61.4754 73.5335 60.8377C73.2375 60.197 72.9692 59.5554 72.7221 58.9126C72.2306 57.6281 71.8403 56.3336 71.5082 55.0347C71.3463 54.3839 71.1915 53.7334 71.0644 53.0757C70.9994 52.7471 70.9365 52.4172 70.8806 52.0839C70.8247 51.7417 70.7771 51.4351 70.7237 51.0378C70.5055 49.4146 71.6138 47.9173 73.199 47.6943C74.7279 47.4784 76.1421 48.5271 76.4361 50.0591L76.4588 50.1795Z" fill="#EEA99F"/>
<path d="M72.489 45.7273C74.896 45.9826 76.8228 47.6177 78.1683 52.8299C77.1333 54.2966 70.6128 57.5155 70.6128 57.5155C70.6128 57.5155 66.982 45.1443 72.489 45.7273Z" fill="#183544"/>
<path d="M112.047 46.0793C112.034 46.3762 111.954 46.6389 111.808 46.8676C111.662 47.0943 111.456 47.2703 111.19 47.3955C110.927 47.5208 110.625 47.5836 110.285 47.5839C109.724 47.5844 109.283 47.4023 108.96 47.0373C108.638 46.6724 108.476 46.1569 108.475 45.4909L108.475 45.28C108.475 44.862 108.547 44.4967 108.691 44.1841C108.837 43.8695 109.047 43.6271 109.32 43.4569C109.594 43.2848 109.91 43.1985 110.269 43.1982C110.787 43.1977 111.203 43.334 111.518 43.6071C111.832 43.8783 112.011 44.2531 112.055 44.7316L111.029 44.7326C111.021 44.4728 110.956 44.2864 110.833 44.1732C110.71 44.0601 110.522 44.0036 110.27 44.0038C110.014 44.0041 109.827 44.1 109.708 44.2915C109.589 44.483 109.527 44.7887 109.521 45.2087L109.521 45.5104C109.522 45.9655 109.579 46.2906 109.692 46.4858C109.808 46.681 110.005 46.7785 110.284 46.7782C110.521 46.778 110.701 46.7222 110.826 46.6107C110.951 46.4993 111.017 46.3225 111.025 46.0803L112.047 46.0793ZM115.793 44.0483L114.512 44.0496L114.515 47.5212L113.487 47.5222L113.484 44.0506L112.227 44.0518L112.226 43.2578L115.792 43.2544L115.793 44.0483ZM117.259 46.0713L117.261 47.5186L116.232 47.5196L116.228 43.254L117.93 43.2523C118.257 43.252 118.545 43.3123 118.795 43.4331C119.047 43.552 119.241 43.7228 119.378 43.9453C119.517 44.1658 119.587 44.4168 119.587 44.698C119.587 45.114 119.438 45.4472 119.14 45.6975C118.843 45.9458 118.435 46.0702 117.915 46.0707L117.259 46.0713ZM117.258 45.2774L117.932 45.2767C118.132 45.2766 118.283 45.2266 118.386 45.1269C118.492 45.0272 118.544 44.8865 118.544 44.7049C118.544 44.5057 118.49 44.3465 118.383 44.2275C118.275 44.1085 118.128 44.048 117.943 44.0463L117.257 44.0469L117.258 45.2774ZM122.041 46.7171L120.632 46.7185L120.387 47.5156L119.288 47.5167L120.848 43.2495L121.815 43.2486L123.395 47.5127L122.291 47.5138L122.041 46.7171ZM120.877 45.9243L121.794 45.9234L121.333 44.4444L120.877 45.9243ZM125.297 44.6632L125.993 43.2446L127.168 43.2435L125.977 45.3598L127.204 47.509L126.017 47.5102L125.298 46.0665L124.582 47.5116L123.398 47.5127L124.618 45.3611L123.427 43.2471L124.598 43.2459L125.297 44.6632ZM131.075 45.4604C131.075 45.8764 130.999 46.2447 130.845 46.5651C130.691 46.8856 130.471 47.1329 130.186 47.307C129.903 47.4791 129.58 47.5654 129.217 47.5657C128.853 47.5661 128.531 47.4834 128.25 47.3176C127.968 47.1499 127.748 46.9109 127.59 46.6005C127.433 46.2901 127.351 45.9337 127.343 45.5314L127.342 45.2911C127.342 44.8732 127.418 44.5049 127.57 44.1864C127.724 43.866 127.943 43.6187 128.228 43.4446C128.515 43.2705 128.842 43.1833 129.207 43.1829C129.568 43.1826 129.89 43.2682 130.174 43.4398C130.457 43.6114 130.677 43.8563 130.834 44.1745C130.992 44.4908 131.073 44.854 131.075 45.2641L131.075 45.4604ZM130.029 45.2827C130.029 44.8589 129.957 44.5376 129.814 44.319C129.673 44.0985 129.471 43.9883 129.207 43.9886C128.692 43.9891 128.42 44.376 128.391 45.1495L128.389 45.463C128.389 45.881 128.459 46.2022 128.597 46.4267C128.736 46.6511 128.942 46.7632 129.216 46.763C129.476 46.7627 129.676 46.6522 129.816 46.4313C129.957 46.2105 130.028 45.8931 130.029 45.479L130.029 45.2827ZM131.607 47.5048L131.603 43.2392L133.136 43.2377C133.684 43.2372 134.101 43.3374 134.387 43.5383C134.674 43.7392 134.818 44.031 134.818 44.4138C134.818 44.6345 134.768 44.8231 134.666 44.9794C134.565 45.1358 134.416 45.2511 134.218 45.3255C134.441 45.3839 134.612 45.4931 134.731 45.6532C134.851 45.8132 134.911 46.0085 134.911 46.2389C134.911 46.6569 134.779 46.9715 134.513 47.1827C134.25 47.3919 133.858 47.4987 133.339 47.5031L131.607 47.5048ZM132.634 45.6903L132.635 46.7128L133.309 46.7122C133.494 46.712 133.637 46.6699 133.736 46.5858C133.836 46.4997 133.885 46.3796 133.885 46.2253C133.885 45.8698 133.708 45.6913 133.355 45.6897L132.634 45.6903ZM132.633 45.0165L133.169 45.016C133.394 45.0138 133.554 44.9727 133.65 44.8925C133.745 44.8123 133.793 44.6941 133.793 44.5379C133.793 44.3582 133.741 44.2293 133.637 44.1513C133.534 44.0713 133.367 44.0314 133.136 44.0317L132.632 44.0321L132.633 45.0165ZM139.091 45.4527C139.091 45.8687 139.014 46.237 138.86 46.5574C138.706 46.8779 138.487 47.1252 138.202 47.2993C137.919 47.4714 137.596 47.5577 137.232 47.558C136.869 47.5583 136.547 47.4757 136.265 47.3099C135.984 47.1422 135.764 46.9032 135.605 46.5928C135.449 46.2824 135.367 45.926 135.358 45.5237L135.358 45.2834C135.358 44.8655 135.434 44.4972 135.586 44.1787C135.74 43.8583 135.959 43.611 136.244 43.4369C136.531 43.2628 136.857 43.1755 137.222 43.1752C137.584 43.1748 137.906 43.2605 138.189 43.4321C138.473 43.6037 138.693 43.8486 138.849 44.1668C139.008 44.483 139.088 44.8463 139.091 45.2564L139.091 45.4527ZM138.045 45.275C138.044 44.8512 137.973 44.5299 137.83 44.3113C137.689 44.0908 137.487 43.9806 137.223 43.9809C136.707 43.9814 136.435 44.3683 136.407 45.1418L136.404 45.4553C136.405 45.8732 136.474 46.1945 136.613 46.4189C136.752 46.6434 136.958 46.7555 137.232 46.7553C137.491 46.755 137.691 46.6445 137.832 46.4236C137.972 46.2028 138.043 45.8853 138.045 45.4713L138.045 45.275ZM142.121 43.2291L143.149 43.2281L143.153 47.4937L142.125 47.4947L142.122 44.8053L140.593 47.4962L139.564 47.4972L139.56 43.2315L140.589 43.2306L140.591 45.9229L142.121 43.2291ZM142.445 42.0803C142.445 42.3479 142.347 42.5648 142.15 42.731C141.953 42.8972 141.69 42.9805 141.362 42.9808C141.034 42.9811 140.771 42.8983 140.574 42.7325C140.376 42.5667 140.277 42.35 140.277 42.0824L140.948 42.0818C140.948 42.199 140.984 42.2907 141.057 42.3571C141.131 42.4214 141.232 42.4536 141.361 42.4534C141.49 42.4533 141.59 42.422 141.66 42.3594C141.732 42.2949 141.768 42.2021 141.768 42.081L142.445 42.0803ZM121.98 54.0697C121.967 54.3666 121.887 54.6294 121.741 54.8581C121.595 55.0848 121.389 55.2607 121.123 55.386C120.86 55.5112 120.558 55.574 120.218 55.5744C119.658 55.5749 119.216 55.3927 118.893 55.0278C118.571 54.6629 118.409 54.1474 118.409 53.4814L118.408 53.2704C118.408 52.8525 118.48 52.4872 118.624 52.1745C118.77 51.8599 118.98 51.6175 119.253 51.4474C119.527 51.2752 119.843 51.189 120.202 51.1886C120.72 51.1881 121.136 51.3245 121.451 51.5976C121.765 51.8688 121.945 52.2436 121.988 52.7221L120.963 52.7231C120.955 52.4633 120.889 52.2768 120.766 52.1637C120.643 52.0505 120.455 51.9941 120.203 51.9943C119.947 51.9945 119.76 52.0904 119.641 52.2819C119.522 52.4735 119.46 52.7792 119.454 53.1991L119.454 53.5009C119.455 53.956 119.512 54.2811 119.625 54.4763C119.741 54.6715 119.938 54.769 120.217 54.7687C120.454 54.7685 120.634 54.7126 120.759 54.6012C120.884 54.4897 120.95 54.3129 120.958 54.0707L121.98 54.0697ZM126.018 51.2446L126.022 55.5102L124.996 55.5112L124.995 53.935L124.693 53.9734L124.315 53.9972C123.741 53.9977 123.302 53.8741 122.997 53.6264C122.692 53.3767 122.537 53.0233 122.533 52.5663L122.532 51.2479L123.56 51.2469L123.561 52.5506C123.561 52.7831 123.617 52.951 123.728 53.0544C123.842 53.1558 124.037 53.2064 124.315 53.2062L124.402 53.2031C124.643 53.1912 124.84 53.1725 124.994 53.1469L124.992 51.2456L126.018 51.2446ZM129.307 53.6994L127.69 53.701L127.691 54.7176L129.601 54.7157L129.602 55.5067L126.663 55.5096L126.659 51.2439L129.604 51.2411L129.605 52.0351L127.689 52.0369L127.689 52.9363L129.307 52.9348L129.307 53.6994ZM133.425 52.0314L132.145 52.0326L132.148 55.5043L131.119 55.5053L131.116 52.0336L129.859 52.0348L129.859 51.2409L133.424 51.2374L133.425 52.0314Z" fill="#79C930"/>
</svg>
