<svg width="110" height="110" viewBox="0 0 110 110" fill="none" xmlns="http://www.w3.org/2000/svg">
<path d="M87.5106 104.844H79.0625L75.625 101.406L75.6761 8.59375L102.741 13.3783C103.3 13.4771 103.797 13.7931 104.124 14.2572C104.451 14.7214 104.581 15.2959 104.485 15.8555L89.6285 103.056C89.5433 103.556 89.2839 104.01 88.8963 104.337C88.5087 104.664 88.0178 104.844 87.5106 104.844Z" fill="#6993D4"/>
<path d="M75.6761 8.59375L75.625 101.406L79.0625 104.844H82.5V9.8001L75.6761 8.59375Z" fill="#3D6CBE"/>
<path d="M76.9141 5.15625H7.30469C6.11814 5.15625 5.15625 6.11814 5.15625 7.30469V102.695C5.15625 103.882 6.11814 104.844 7.30469 104.844H76.9141C78.1006 104.844 79.0625 103.882 79.0625 102.695V7.30469C79.0625 6.11814 78.1006 5.15625 76.9141 5.15625Z" fill="#79C930"/>
<path d="M26.6406 55H18.0469C15.6738 55 13.75 56.9238 13.75 59.2969V67.8906C13.75 70.2637 15.6738 72.1875 18.0469 72.1875H26.6406C29.0137 72.1875 30.9375 70.2637 30.9375 67.8906V59.2969C30.9375 56.9238 29.0137 55 26.6406 55Z" fill="#FCFEFF"/>
<path d="M26.6406 80.7812H18.0469C15.6738 80.7812 13.75 82.705 13.75 85.0781V93.6719C13.75 96.045 15.6738 97.9688 18.0469 97.9688H26.6406C29.0137 97.9688 30.9375 96.045 30.9375 93.6719V85.0781C30.9375 82.705 29.0137 80.7812 26.6406 80.7812Z" fill="#FCFEFF"/>
<path d="M24.0625 68.7499C23.8368 68.7499 23.6133 68.7055 23.4048 68.6191C23.1963 68.5327 23.0068 68.4061 22.8472 68.2465L17.6909 63.0903L20.1217 60.6595L23.9654 64.5033L33.0701 53.8812L35.68 56.1186L25.3675 68.1499C25.2134 68.3296 25.0238 68.4756 24.8105 68.5786C24.5973 68.6817 24.3651 68.7396 24.1285 68.7486C24.1066 68.7499 24.084 68.7499 24.0625 68.7499Z" fill="#F2C94C"/>
<path d="M24.0625 94.5312C23.8368 94.5312 23.6133 94.4867 23.4048 94.4004C23.1963 94.314 23.0068 94.1874 22.8472 94.0278L17.6909 88.8715L20.1217 86.4408L23.9654 90.2846L33.0701 79.6625L35.68 81.8999L25.3675 93.9311C25.2134 94.1109 25.0238 94.2569 24.8105 94.3599C24.5973 94.4629 24.3651 94.5208 24.1285 94.5299C24.1066 94.5312 24.084 94.5312 24.0625 94.5312Z" fill="#F2C94C"/>
<path d="M39.5312 79.0625H65.3125V82.5H39.5312V79.0625Z" fill="#FCFEFF"/>
<path d="M39.5312 87.6562H48.125V91.0938H39.5312V87.6562Z" fill="#FCFEFF"/>
<path d="M51.5625 87.6562H65.3125V91.0938H51.5625V87.6562Z" fill="#FCFEFF"/>
<path d="M39.5312 53.2812H65.3125V56.7188H39.5312V53.2812Z" fill="#FCFEFF"/>
<path d="M39.5312 61.875H48.125V65.3125H39.5312V61.875Z" fill="#FCFEFF"/>
<path d="M51.5625 61.875H65.3125V65.3125H51.5625V61.875Z" fill="#FCFEFF"/>
<path d="M42.9473 12.0312L27.5 18.9194L28.7876 27.0942C30.014 33.7474 33.7459 39.6767 39.2141 43.6601L42.9612 46.4198L46.5311 43.8247C52.0721 39.8432 55.8573 33.8718 57.0936 27.1616L58.3945 18.9194L42.9473 12.0312ZM42.4241 33.8845C42.1018 34.2068 41.6647 34.3878 41.2089 34.3878C40.7531 34.3878 40.3159 34.2068 39.9936 33.8845L34.8373 28.7283L37.2681 26.2969L41.2092 30.2378L50.3063 21.1406L52.7368 23.5712L42.4241 33.8845Z" fill="#FCFEFF"/>
<path d="M12.0312 10.3125H22.3438V13.75H12.0312V10.3125Z" fill="#FCFEFF"/>
<path d="M12.0312 17.1875H18.9062V20.625H12.0312V17.1875Z" fill="#FCFEFF"/>
<path d="M63.5938 10.3125H67.0312V13.75H63.5938V10.3125Z" fill="#FCFEFF"/>
<path d="M70.4688 10.3125H73.9062V13.75H70.4688V10.3125Z" fill="#FCFEFF"/>
</svg>
