<svg width="50" height="50" viewBox="0 0 50 50" fill="none" xmlns="http://www.w3.org/2000/svg">
<path d="M5.46875 2.34375H44.5312V42.9688H5.46875V2.34375Z" fill="#CCDCE4"/>
<path d="M25 2.34375H44.5312V42.9688H25V2.34375Z" fill="#BDCCD3"/>
<path d="M8.59375 5.46875H21.875V39.8438H8.59375V5.46875Z" fill="#0093BA"/>
<path d="M14.8437 28.9062H12.5C12.3844 28.9062 12.2702 28.8806 12.1658 28.8311C12.0613 28.7817 11.9691 28.7097 11.8958 28.6203C11.8225 28.5309 11.77 28.4263 11.742 28.3142C11.714 28.202 11.7112 28.0851 11.7339 27.9717L12.4125 24.5786L10.5041 23.3062C10.3457 23.2006 10.2313 23.0407 10.1824 22.8567C10.1335 22.6726 10.1536 22.4771 10.2387 22.3068L12.3798 18.0248L11.0687 16.0583C11.0021 15.9584 10.9594 15.8444 10.944 15.7253C10.9286 15.6062 10.9408 15.4851 10.9798 15.3715C11.0188 15.2578 11.0834 15.1547 11.1687 15.0702C11.254 14.9856 11.3577 14.9218 11.4717 14.8838L13.0743 14.3496L12.54 12.747C12.4941 12.6094 12.4875 12.4617 12.5208 12.3204C12.5542 12.1792 12.6262 12.0501 12.7288 11.9475L15.8538 8.8225C15.9515 8.72474 16.0735 8.65468 16.2072 8.61946C16.3409 8.58424 16.4815 8.58513 16.6148 8.62204C16.748 8.65895 16.8691 8.73056 16.9656 8.82955C17.0621 8.92853 17.1306 9.05136 17.1641 9.18549L18.7266 15.4355L17.2108 15.8144L15.983 10.9031L14.1751 12.711L14.8037 14.5966C14.8692 14.7932 14.8539 15.0077 14.7613 15.1931C14.6686 15.3784 14.5061 15.5193 14.3095 15.5848L12.9362 16.0426L13.9312 17.5353C14.0077 17.6499 14.0524 17.7827 14.061 17.9201C14.0696 18.0576 14.0416 18.1949 13.9801 18.3181L11.9447 22.3887L13.7147 23.5687C13.8435 23.6546 13.9439 23.7767 14.0031 23.9197C14.0624 24.0628 14.0778 24.2201 14.0474 24.3719L13.453 27.3437H14.4531L16.5625 24.5312L17.8125 25.4687L15.4687 28.5937C15.396 28.6907 15.3016 28.7695 15.1931 28.8237C15.0846 28.878 14.965 28.9062 14.8437 28.9062Z" fill="#7FCBE5"/>
<path d="M28.125 5.46875H41.4062V39.8438H28.125V5.46875Z" fill="#0093BA"/>
<path d="M35.1565 32.8125C35.0725 32.8125 34.9891 32.7989 34.9095 32.7724L32.5657 31.9911L33.0599 30.5089L34.2275 30.898L33.6001 25.8785C33.5815 25.73 33.606 25.5793 33.6707 25.4443C33.7353 25.3093 33.8373 25.1958 33.9646 25.1171C34.0919 25.0384 34.2392 24.998 34.3888 25.0005C34.5384 25.0031 34.6842 25.0486 34.8087 25.1316L36.3517 26.1601L37.4039 23.5293L36.0694 21.5273C35.993 21.4127 35.9482 21.28 35.9397 21.1425C35.9311 21.005 35.959 20.8677 36.0206 20.7445L37.0174 18.75H35.1565C35.0215 18.75 34.8889 18.7151 34.7715 18.6486C34.6541 18.5821 34.5559 18.4864 34.4865 18.3707L33.0692 16.0085L32.0014 19.7461L30.499 19.3164L32.0615 13.8477C32.1034 13.7012 32.1871 13.5702 32.3024 13.4707C32.4177 13.3713 32.5596 13.3077 32.7106 13.2878C32.8616 13.2679 33.0151 13.2925 33.1523 13.3587C33.2894 13.4249 33.4043 13.5298 33.4826 13.6604L35.5987 17.1875H38.2815C38.4146 17.1875 38.5456 17.2215 38.6619 17.2864C38.7782 17.3513 38.876 17.4448 38.946 17.558C39.016 17.6713 39.0559 17.8006 39.0619 17.9337C39.0679 18.0667 39.0397 18.1991 38.9802 18.3182L37.6204 21.0376L38.9315 23.0041C39.0018 23.1095 39.0454 23.2305 39.0585 23.3566C39.0716 23.4826 39.0539 23.61 39.0068 23.7276L37.4443 27.6339C37.4012 27.7418 37.3344 27.8388 37.249 27.9177C37.1636 27.9965 37.0617 28.0554 36.9507 28.0898C36.8396 28.1243 36.7223 28.1336 36.6073 28.117C36.4922 28.1003 36.3823 28.0582 36.2856 27.9938L35.3621 27.3785L35.9316 31.9347C35.9453 32.0446 35.9355 32.1561 35.9028 32.2619C35.8701 32.3677 35.8153 32.4654 35.742 32.5484C35.6687 32.6314 35.5786 32.6979 35.4776 32.7434C35.3767 32.7889 35.2672 32.8125 35.1565 32.8125Z" fill="#7FCBE5"/>
<path d="M19.5312 41.4062V28.9062C19.5312 27.4558 20.1074 26.0648 21.133 25.0393C22.1586 24.0137 23.5496 23.4375 25 23.4375C26.4504 23.4375 27.8414 24.0137 28.867 25.0393C29.8926 26.0648 30.4688 27.4558 30.4688 28.9062V34.375L27.3438 32.8125V28.9062C27.3438 28.2846 27.0968 27.6885 26.6573 27.249C26.2177 26.8094 25.6216 26.5625 25 26.5625C24.3784 26.5625 23.7823 26.8094 23.3427 27.249C22.9032 27.6885 22.6562 28.2846 22.6562 28.9062V41.4062H19.5312Z" fill="#56BA2E"/>
<path d="M8.59375 38.2812H12.5L14.9386 35.8427C15.3781 35.4032 15.9742 35.1563 16.5958 35.1562H19.5312V38.2812H22.6562C23.2779 38.2812 23.874 38.5282 24.3135 38.9677C24.7531 39.4073 25 40.0034 25 40.625V46.0938C25 46.7154 24.7531 47.3115 24.3135 47.751C23.874 48.1906 23.2779 48.4375 22.6562 48.4375H18.1583C16.036 48.4375 14.0007 47.5944 12.5 46.0938H8.59375V38.2812Z" fill="#F5BE98"/>
<path d="M3.125 36.7188H10.1562V47.6562H3.125V36.7188Z" fill="#56BA2E"/>
</svg>
