<svg width="50" height="50" viewBox="0 0 50 50" fill="none" xmlns="http://www.w3.org/2000/svg">
<path d="M4.98047 45.2148V48.5352C4.98047 49.3441 5.63633 50 6.44531 50H43.5547C44.3637 50 45.0195 49.3441 45.0195 48.5352V45.2148L44.043 43.75L45.0195 42.2852V37.5977C45.0195 37.565 45.0187 37.5325 45.0183 37.5L43.75 35.9375L44.5118 34.5703C43.2539 30.9368 39.798 28.3203 35.7422 28.3203H14.2578C10.2019 28.3203 6.746 30.9368 5.48818 34.5703L6.25 36.1328L4.98174 37.5C4.98145 37.5325 4.98047 37.565 4.98047 37.5977V42.2852L5.95703 43.75L4.98047 45.2148Z" fill="#366896"/>
<path d="M43.75 35.9375L44.5118 34.5703C43.2539 30.9368 39.798 28.3203 35.7422 28.3203H25V50H43.5547C44.3637 50 45.0195 49.3441 45.0195 48.5352V45.2148L44.043 43.75L45.0195 42.2852V37.5977C45.0195 37.565 45.0187 37.5325 45.0183 37.5L43.75 35.9375Z" fill="#285680"/>
<path d="M44.5118 34.5703H5.48813C5.16968 35.4903 4.99233 36.4755 4.98169 37.5H45.0183C45.0076 36.4755 44.8303 35.4903 44.5118 34.5703Z" fill="#F5F5FF"/>
<path d="M25 37.5H45.0183C45.0076 36.4755 44.8304 35.4903 44.5118 34.5703H25V37.5Z" fill="#E2E7FA"/>
<path d="M19.6289 24.0735V31.7376C19.6289 34.704 22.0336 37.1087 25 37.1087C27.9664 37.1087 30.3711 34.704 30.3711 31.7376V24.0735H19.6289Z" fill="#FAC394"/>
<path d="M25 37.1086C27.9664 37.1086 30.3711 34.7039 30.3711 31.7375V24.0735H25V37.1086Z" fill="#F0B47F"/>
<path d="M4.98047 42.2852H45.0195V45.2148H4.98047V42.2852Z" fill="#F5F5FF"/>
<path d="M25 42.2852H45.0195V45.2148H25V42.2852Z" fill="#E2E7FA"/>
<path d="M14.7461 7.32422V17.0898C14.7461 22.7529 19.3369 27.3438 25 27.3438C30.6631 27.3438 35.2539 22.7529 35.2539 17.0898V7.32422C35.2539 3.2792 31.9747 0 27.9297 0H22.0703C18.0253 0 14.7461 3.2792 14.7461 7.32422Z" fill="#FFD5B2"/>
<path d="M27.9297 0H25V27.3438C30.6631 27.3438 35.2539 22.7529 35.2539 17.0898V7.32422C35.2539 3.2792 31.9747 0 27.9297 0Z" fill="#FAC394"/>
<path d="M27.9297 0H22.0703C18.0253 0 14.7461 3.2792 14.7461 7.32422H35.2539C35.2539 3.2792 31.9747 0 27.9297 0Z" fill="#366896"/>
<path d="M27.9297 0H25V7.32422H35.2539C35.2539 3.2792 31.9747 0 27.9297 0Z" fill="#285680"/>
<path d="M40.1309 15.629L36.6778 12.8666L40.1309 10.1042C40.7626 9.59883 40.865 8.67705 40.3596 8.04531C39.8541 7.41357 38.9325 7.31103 38.3007 7.8165L35.2539 10.2539L33.3008 12.8666L35.254 15.4793L38.3007 17.9166C38.5708 18.1327 38.8939 18.2377 39.2148 18.2377C39.6445 18.2377 40.0703 18.0494 40.3597 17.6878C40.865 17.0562 40.7626 16.1344 40.1309 15.629Z" fill="#285680"/>
<path d="M35.2539 10.2539H14.7461V15.4794C18.4018 19.695 22.7703 19.0939 25 16.5646C27.2297 19.0939 31.5982 19.6949 35.2539 15.4794V10.2539Z" fill="#366896"/>
<path d="M25 16.5647C27.2297 19.094 31.5981 19.6951 35.2539 15.4794V10.2539H25V16.5647Z" fill="#285680"/>
</svg>
