<svg width="207" height="158" viewBox="0 0 207 158" fill="none" xmlns="http://www.w3.org/2000/svg">
<path d="M207 139.403H0V139.506H207V139.403Z" fill="#EBEBEB"/>
<path d="M186.261 146.029H172.549V146.132H186.261V146.029Z" fill="#EBEBEB"/>
<path d="M137.125 147.149H133.527V147.252H137.125V147.149Z" fill="#EBEBEB"/>
<path d="M172.134 142.207H152.398V142.311H172.134V142.207Z" fill="#EBEBEB"/>
<path d="M31.5223 142.899H21.7188V143.002H31.5223V142.899Z" fill="#EBEBEB"/>
<path d="M45.9089 142.899H35.207V143.002H45.9089V142.899Z" fill="#EBEBEB"/>
<path d="M81.1906 144.637H54.4297V144.74H81.1906V144.637Z" fill="#EBEBEB"/>
<path d="M98.1174 121.036H18.1782C17.5519 121.035 16.9517 120.786 16.5093 120.346C16.0668 119.905 15.8184 119.307 15.8184 118.684V6.90605C15.8238 6.2867 16.0747 5.69449 16.5165 5.25807C16.9584 4.82165 17.5555 4.57626 18.1782 4.5752H98.1174C98.7444 4.5752 99.3457 4.82294 99.789 5.26392C100.232 5.7049 100.481 6.303 100.481 6.92664V118.684C100.481 119.308 100.232 119.906 99.789 120.347C99.3457 120.788 98.7444 121.036 98.1174 121.036ZM18.1782 4.65756C17.5794 4.65865 17.0055 4.89602 16.5825 5.31758C16.1594 5.73914 15.9219 6.31043 15.9219 6.90605V118.684C15.9219 119.28 16.1594 119.851 16.5825 120.273C17.0055 120.694 17.5794 120.932 18.1782 120.933H98.1174C98.7166 120.932 99.2909 120.694 99.7146 120.273C100.138 119.852 100.377 119.28 100.378 118.684V6.90605C100.377 6.31005 100.138 5.73877 99.7146 5.31733C99.2909 4.89589 98.7166 4.65865 98.1174 4.65756H18.1782Z" fill="#EBEBEB"/>
<path d="M187.671 121.036H107.727C107.101 121.035 106.5 120.787 106.057 120.346C105.614 119.905 105.364 119.308 105.363 118.684V6.90605C105.37 6.28632 105.622 5.69412 106.064 5.25781C106.507 4.8215 107.104 4.57624 107.727 4.5752H187.671C188.293 4.57734 188.889 4.82321 189.33 5.25952C189.771 5.69582 190.021 6.28741 190.026 6.90605V118.684C190.026 119.306 189.778 119.903 189.337 120.344C188.895 120.785 188.296 121.034 187.671 121.036ZM107.727 4.65756C107.128 4.65865 106.554 4.89589 106.13 5.31733C105.706 5.73877 105.468 6.31005 105.467 6.90605V118.684C105.468 119.28 105.706 119.852 106.13 120.273C106.554 120.694 107.128 120.932 107.727 120.933H187.671C188.27 120.932 188.844 120.694 189.268 120.273C189.691 119.852 189.93 119.28 189.931 118.684V6.90605C189.93 6.31005 189.691 5.73877 189.268 5.31733C188.844 4.89589 188.27 4.65865 187.671 4.65756H107.727Z" fill="#EBEBEB"/>
<path d="M66.7939 121.896L137.903 0H174.078L102.969 121.896H66.7939Z" fill="#FAFAFA"/>
<path d="M16.4492 121.896L52.757 59.655H71.2297L34.9219 121.896H16.4492Z" fill="#FAFAFA"/>
<path d="M139.928 84.5615L168.986 34.7487H183.77L154.712 84.5615H139.928Z" fill="#FAFAFA"/>
<path d="M123.947 112.379V0H117.572V112.379H12.834V139.403H194.443V112.379H123.947Z" fill="#F0F0F0"/>
<path d="M193.553 47.9267H138.801C137.819 47.9122 136.878 47.5363 136.158 46.8715C135.439 46.2068 134.992 45.3004 134.906 44.3275L132.894 18.0003C132.85 17.5396 132.904 17.075 133.053 16.6366C133.202 16.1982 133.442 15.796 133.758 15.4561C134.073 15.1161 134.457 14.8461 134.885 14.6636C135.312 14.4811 135.774 14.3903 136.239 14.3969H190.978C191.96 14.4125 192.902 14.7893 193.621 15.4547C194.34 16.1201 194.787 17.027 194.873 18.0003L196.898 44.3275C196.941 44.7878 196.886 45.252 196.737 45.6899C196.588 46.1277 196.348 46.5295 196.032 46.869C195.717 47.2085 195.333 47.4781 194.906 47.6603C194.478 47.8426 194.018 47.9333 193.553 47.9267Z" fill="#E6E6E6"/>
<path d="M192.377 47.9267H137.626C136.644 47.9113 135.703 47.5351 134.984 46.8705C134.265 46.2059 133.818 45.3001 133.73 44.3275L131.71 18.0003C131.666 17.5396 131.721 17.075 131.87 16.6366C132.018 16.1982 132.258 15.796 132.574 15.4561C132.89 15.1161 133.274 14.8461 133.701 14.6636C134.129 14.4811 134.59 14.3903 135.055 14.3969H189.802C190.785 14.4124 191.727 14.789 192.447 15.4544C193.167 16.1197 193.614 17.0266 193.702 18.0003L195.723 44.3275C195.766 44.7878 195.711 45.252 195.562 45.6899C195.412 46.1277 195.172 46.5295 194.857 46.869C194.541 47.2085 194.157 47.4781 193.73 47.6603C193.303 47.8426 192.842 47.9333 192.377 47.9267Z" fill="#F0F0F0"/>
<path d="M145.216 18.6427H136.477V19.467H145.216V18.6427Z" fill="white"/>
<path d="M168.145 18.6427H148.24V19.467H168.145V18.6427Z" fill="white"/>
<path d="M187.982 18.6427H173.363V19.467H187.982V18.6427Z" fill="white"/>
<path d="M145.45 21.752H136.711V22.5763H145.45V21.752Z" fill="white"/>
<path d="M161.85 21.752H148.482V22.5763H161.85V21.752Z" fill="white"/>
<path d="M188.22 21.752H173.602V22.5763H188.22V21.752Z" fill="white"/>
<path d="M145.691 24.8569H136.951V25.6813H145.691V24.8569Z" fill="white"/>
<path d="M165.98 24.8569H148.721V25.6813H165.98V24.8569Z" fill="white"/>
<path d="M188.456 24.8569H173.838V25.6813H188.456V24.8569Z" fill="white"/>
<path d="M145.931 27.9662H137.191V28.7905H145.931V27.9662Z" fill="white"/>
<path d="M167.98 27.9662H148.957V28.7905H167.98V27.9662Z" fill="white"/>
<path d="M188.696 27.9662H174.078V28.7905H188.696V27.9662Z" fill="white"/>
<path d="M146.167 31.0713H137.428V31.8956H146.167V31.0713Z" fill="white"/>
<path d="M155.879 31.0713H149.197V31.8956H155.879V31.0713Z" fill="white"/>
<path d="M162.93 31.0713H158.156V31.8956H162.93V31.0713Z" fill="white"/>
<path d="M188.933 31.0713H174.314V31.8956H188.933V31.0713Z" fill="white"/>
<path d="M146.408 34.1763H137.668V35.0006H146.408V34.1763Z" fill="white"/>
<path d="M169.339 34.1763H149.434V35.0006H169.339V34.1763Z" fill="white"/>
<path d="M189.173 34.1763H174.555V35.0006H189.173V34.1763Z" fill="white"/>
<path d="M146.644 37.2855H137.904V38.1099H146.644V37.2855Z" fill="white"/>
<path d="M164.731 37.2855H149.674V38.1099H164.731V37.2855Z" fill="white"/>
<path d="M189.413 37.2855H174.795V38.1099H189.413V37.2855Z" fill="white"/>
<path d="M146.884 40.3906H138.145V41.215H146.884V40.3906Z" fill="white"/>
<path d="M163.282 40.3906H149.914V41.215H163.282V40.3906Z" fill="white"/>
<path d="M169.816 40.3906H165.631V41.215H169.816V40.3906Z" fill="white"/>
<path d="M189.65 40.3906H175.031V41.215H189.65V40.3906Z" fill="white"/>
<path d="M147.122 43.4956H138.383V44.32H147.122V43.4956Z" fill="white"/>
<path d="M168.66 43.4956H150.15V44.32H168.66V43.4956Z" fill="white"/>
<path d="M189.89 43.4956H175.271V44.32H189.89V43.4956Z" fill="white"/>
<path d="M103.499 158C147.831 158 183.769 155.913 183.769 153.338C183.769 150.764 147.831 148.677 103.499 148.677C59.1668 148.677 23.2285 150.764 23.2285 153.338C23.2285 155.913 59.1668 158 103.499 158Z" fill="#F5F5F5"/>
<path d="M102.504 17.1892L55.6517 27.7192L47.2309 26.8956C46.4297 26.814 45.6532 26.5729 44.9477 26.1866C44.2421 25.8003 43.6219 25.2767 43.124 24.6471L92.2368 13.6105C94.8906 13.0142 97.6436 13.0044 100.302 13.5817L101.026 13.7382C101.86 13.9218 102.617 14.3525 103.2 14.9736C103.357 15.1478 103.465 15.3596 103.515 15.5883C103.565 15.817 103.555 16.0546 103.485 16.278C103.415 16.5014 103.287 16.7028 103.115 16.8625C102.944 17.0222 102.733 17.1348 102.504 17.1892Z" fill="#406FBF"/>
<path opacity="0.3" d="M61.2532 28.5686L37.6152 33.889L37.7066 34.2907L61.3446 28.9702L61.2532 28.5686Z" fill="#406FBF"/>
<path opacity="0.3" d="M43.0337 31.1027L32.1914 33.5431L32.2829 33.9451L43.1251 31.5047L43.0337 31.1027Z" fill="#406FBF"/>
<path opacity="0.3" d="M38.429 22.2481L33.0059 23.4688L33.0973 23.8707L38.5205 22.6501L38.429 22.2481Z" fill="#406FBF"/>
<path opacity="0.1" d="M103.199 14.953C103.052 14.7949 102.893 14.6489 102.723 14.5165L47.582 26.9079L55.6509 27.7315L102.503 17.1891C102.737 17.139 102.954 17.0278 103.131 16.8669C103.307 16.7059 103.438 16.5011 103.509 16.2735C103.58 16.0458 103.588 15.8035 103.534 15.5715C103.479 15.3394 103.364 15.1259 103.199 14.953Z" fill="white"/>
<path opacity="0.5" d="M100.301 13.5614C99.5719 13.4041 98.8336 13.2913 98.0905 13.2238L89.3965 15.1799C89.4258 15.3126 89.4813 15.4381 89.5598 15.5493C89.6383 15.6605 89.7383 15.755 89.8538 15.8274C89.9694 15.8998 90.0983 15.9487 90.233 15.9711C90.3677 15.9936 90.5055 15.9892 90.6385 15.9582L100.819 13.6685L100.301 13.5614Z" fill="white"/>
<g opacity="0.5">
<path opacity="0.5" d="M87.7326 16.0785L87.5832 16.1123C87.4294 16.1471 87.3327 16.2994 87.3674 16.4525L87.4691 16.9025C87.5037 17.0556 87.6565 17.1515 87.8103 17.1168L87.9597 17.083C88.1136 17.0482 88.2102 16.8959 88.1756 16.7428L88.0738 16.2928C88.0392 16.1397 87.8865 16.0438 87.7326 16.0785Z" fill="white"/>
<path opacity="0.5" d="M86.0804 16.4564L85.931 16.49C85.7771 16.5246 85.6805 16.6767 85.7152 16.8298L85.8172 17.2797C85.8519 17.4328 86.0048 17.5289 86.1587 17.4943L86.3081 17.4607C86.462 17.4261 86.5586 17.274 86.5239 17.1209L86.4219 16.671C86.3872 16.5179 86.2343 16.4218 86.0804 16.4564Z" fill="white"/>
<path opacity="0.5" d="M84.428 16.8226L84.2786 16.8562C84.1247 16.8908 84.0282 17.0429 84.063 17.196L84.1652 17.6459C84.2 17.7989 84.353 17.895 84.5069 17.8603L84.6563 17.8267C84.8102 17.7921 84.9067 17.64 84.8719 17.4869L84.7697 17.0371C84.7349 16.884 84.5819 16.7879 84.428 16.8226Z" fill="white"/>
<path opacity="0.5" d="M82.7698 17.1972L82.6204 17.2308C82.4665 17.2654 82.37 17.4175 82.4048 17.5706L82.507 18.0205C82.5418 18.1736 82.6948 18.2696 82.8487 18.235L82.9981 18.2014C83.152 18.1668 83.2485 18.0146 83.2137 17.8616L83.1115 17.4117C83.0767 17.2586 82.9237 17.1626 82.7698 17.1972Z" fill="white"/>
<path opacity="0.5" d="M81.1117 17.5693L80.9622 17.6028C80.8084 17.6374 80.7118 17.7895 80.7465 17.9426L80.8486 18.3925C80.8833 18.5456 81.0362 18.6417 81.1901 18.6071L81.3396 18.5736C81.4935 18.539 81.59 18.3869 81.5553 18.2338L81.4532 17.7839C81.4185 17.6308 81.2656 17.5347 81.1117 17.5693Z" fill="white"/>
<path opacity="0.5" d="M79.4651 17.9335L79.3157 17.9671C79.1619 18.0017 79.0653 18.1539 79.1001 18.3069L79.2024 18.7568C79.2372 18.9099 79.3901 19.0059 79.544 18.9713L79.6934 18.9377C79.8473 18.9031 79.9438 18.751 79.909 18.5979L79.8068 18.148C79.772 17.9949 79.619 17.8989 79.4651 17.9335Z" fill="white"/>
<path opacity="0.5" d="M77.805 18.3167L77.6556 18.3503C77.5017 18.3848 77.4051 18.5369 77.4399 18.69L77.5419 19.1399C77.5767 19.293 77.7296 19.3891 77.8835 19.3545L78.0329 19.321C78.1868 19.2864 78.2834 19.1343 78.2487 18.9812L78.1466 18.5313C78.1118 18.3783 77.9589 18.2822 77.805 18.3167Z" fill="white"/>
<path opacity="0.5" d="M76.1507 18.6788L76.0013 18.7124C75.8474 18.747 75.7509 18.8991 75.7857 19.0522L75.8879 19.5021C75.9227 19.6551 76.0756 19.7512 76.2295 19.7165L76.3789 19.6829C76.5328 19.6483 76.6294 19.4962 76.5946 19.3431L76.4923 18.8932C76.4575 18.7402 76.3046 18.6442 76.1507 18.6788Z" fill="white"/>
<path opacity="0.5" d="M74.4984 19.056L74.349 19.0895C74.1951 19.1241 74.0985 19.2762 74.1332 19.4293L74.2353 19.8792C74.27 20.0323 74.423 20.1284 74.5769 20.0938L74.7263 20.0602C74.8802 20.0257 74.9768 19.8736 74.942 19.7205L74.8399 19.2706C74.8052 19.1175 74.6523 19.0214 74.4984 19.056Z" fill="white"/>
<path opacity="0.5" d="M72.846 19.423L72.6966 19.4566C72.5427 19.4912 72.4462 19.6434 72.481 19.7964L72.5832 20.2463C72.618 20.3994 72.771 20.4954 72.9248 20.4608L73.0742 20.4272C73.2281 20.3926 73.3247 20.2405 73.2899 20.0874L73.1876 19.6375C73.1528 19.4844 72.9999 19.3884 72.846 19.423Z" fill="white"/>
<path opacity="0.5" d="M71.1859 19.8001L71.0365 19.8337C70.8826 19.8682 70.786 20.0203 70.8207 20.1734L70.9228 20.6233C70.9575 20.7764 71.1105 20.8725 71.2644 20.8379L71.4138 20.8044C71.5677 20.7698 71.6643 20.6177 71.6295 20.4646L71.5274 20.0147C71.4927 19.8617 71.3398 19.7656 71.1859 19.8001Z" fill="white"/>
<path opacity="0.5" d="M69.5316 20.1725L69.3821 20.2061C69.2283 20.2407 69.1317 20.3929 69.1665 20.546L69.2688 20.9958C69.3036 21.1489 69.4565 21.2449 69.6104 21.2103L69.7598 21.1767C69.9137 21.1421 70.0102 20.99 69.9754 20.8369L69.8732 20.387C69.8384 20.234 69.6854 20.1379 69.5316 20.1725Z" fill="white"/>
<path opacity="0.5" d="M68.1801 20.7355L68.0299 20.769C67.8753 20.8036 67.7781 20.9562 67.8128 21.11L67.9149 21.562C67.9496 21.7158 68.103 21.8125 68.2576 21.778L68.4078 21.7444C68.5624 21.7099 68.6596 21.5573 68.6249 21.4035L68.5229 20.9515C68.4881 20.7977 68.3347 20.701 68.1801 20.7355Z" fill="white"/>
<path opacity="0.5" d="M66.2269 20.9126L66.0775 20.9462C65.9236 20.9809 65.827 21.133 65.8618 21.2861L65.9641 21.7359C65.9989 21.889 66.1518 21.985 66.3057 21.9504L66.4551 21.9168C66.609 21.8822 66.7055 21.7301 66.6707 21.577L66.5685 21.1271C66.5337 20.9741 66.3808 20.878 66.2269 20.9126Z" fill="white"/>
<path opacity="0.5" d="M64.5687 21.2793L64.4193 21.3129C64.2654 21.3475 64.1688 21.4996 64.2036 21.6527L64.3057 22.1025C64.3405 22.2556 64.4934 22.3517 64.6473 22.3171L64.7968 22.2835C64.9506 22.2489 65.0472 22.0968 65.0124 21.9437L64.9103 21.4938C64.8755 21.3408 64.7226 21.2447 64.5687 21.2793Z" fill="white"/>
<path opacity="0.5" d="M62.9163 21.657L62.7669 21.6906C62.613 21.7252 62.5165 21.8774 62.5513 22.0305L62.6535 22.4803C62.6883 22.6334 62.8413 22.7294 62.9952 22.6948L63.1446 22.6612C63.2984 22.6266 63.395 22.4745 63.3602 22.3214L63.2579 21.8715C63.2231 21.7185 63.0702 21.6224 62.9163 21.657Z" fill="white"/>
<path opacity="0.5" d="M61.2581 22.035L61.1087 22.0685C60.9548 22.1031 60.8582 22.2552 60.893 22.4083L60.9951 22.8582C61.0298 23.0113 61.1827 23.1074 61.3366 23.0728L61.486 23.0393C61.6399 23.0047 61.7365 22.8526 61.7018 22.6995L61.5997 22.2496C61.565 22.0965 61.412 22.0004 61.2581 22.035Z" fill="white"/>
<path opacity="0.5" d="M59.5999 22.4051L59.4505 22.4387C59.2966 22.4732 59.2 22.6253 59.2348 22.7784L59.3369 23.2283C59.3716 23.3814 59.5245 23.4775 59.6784 23.4429L59.8278 23.4094C59.9817 23.3748 60.0783 23.2227 60.0436 23.0696L59.9415 22.6197C59.9068 22.4666 59.7538 22.3706 59.5999 22.4051Z" fill="white"/>
<path opacity="0.5" d="M57.9476 22.7729L57.7982 22.8065C57.6443 22.8411 57.5477 22.9932 57.5825 23.1463L57.6848 23.5962C57.7196 23.7492 57.8725 23.8453 58.0264 23.8107L58.1758 23.7771C58.3297 23.7425 58.4262 23.5903 58.3914 23.4372L58.2892 22.9874C58.2544 22.8343 58.1014 22.7383 57.9476 22.7729Z" fill="white"/>
<path opacity="0.5" d="M56.2952 23.1414L56.1458 23.1749C55.9919 23.2095 55.8954 23.3616 55.9301 23.5147L56.0323 23.9646C56.0671 24.1177 56.22 24.2137 56.3739 24.1792L56.5233 24.1456C56.6772 24.111 56.7738 23.9589 56.739 23.8058L56.6368 23.3559C56.6021 23.2028 56.4491 23.1068 56.2952 23.1414Z" fill="white"/>
</g>
<path d="M44.4395 17.1891L42.0176 17.7533L44.0338 24.4411L53.4067 22.312C50.2231 23.0286 44.4395 17.1891 44.4395 17.1891Z" fill="#406FBF"/>
<path d="M59.7006 25.7095C59.2117 25.3026 58.5952 25.0783 57.9577 25.0753L51.4248 25.0465L48.3984 25.726L53.5776 27.085L59.7006 25.7095Z" fill="#263238"/>
<path d="M87.2218 20.1583L66.468 17.4898C65.3193 17.341 64.1532 17.3954 63.0235 17.6504L60.3242 18.2557L72.8933 23.3787L87.2218 20.1583Z" fill="#263238"/>
<path d="M86.3628 20.5865L74.3568 26.7926C73.6795 27.1405 72.9602 27.4007 72.2164 27.5668L70.4238 27.9786L74.038 23.3622L86.3628 20.5865Z" fill="#263238"/>
<path d="M52.2676 27.3816L55.65 27.7234L102.502 17.1892C102.807 17.122 103.08 16.9521 103.274 16.7083C103.468 16.4645 103.571 16.1616 103.566 15.8508L52.2676 27.3816Z" fill="#263238"/>
<path d="M112.885 45.843C114.177 47.9803 115.349 50.1135 116.446 52.3373C116.992 53.4451 117.522 54.5652 118.011 55.7183C118.499 56.8713 118.975 58.0327 119.381 59.2599L119.534 59.7211L119.609 59.9558L119.692 60.2441C119.795 60.6188 119.861 60.9606 119.923 61.2942C120.044 61.9613 120.118 62.5997 120.18 63.2297C120.313 64.4652 120.371 65.7006 120.416 66.936C120.491 69.4069 120.449 71.8284 120.292 74.2828L117.936 74.3857L116.802 67.2778C116.62 66.1001 116.409 64.9346 116.189 63.8021C116.077 63.238 115.949 62.682 115.808 62.1549C115.679 61.6657 115.51 61.1878 115.303 60.7259C114.43 58.6421 113.349 56.5337 112.235 54.4499C111.122 52.3661 109.946 50.27 108.791 48.2356L112.885 45.843Z" fill="#EEA99F"/>
<path d="M117.949 74.3652L118.777 76.5231L121.584 73.5868C121.584 73.5868 121.005 72.9609 119.514 72.7056L117.949 74.3652Z" fill="#EEA99F"/>
<path d="M120.365 77.5649L122.543 75.3205L121.578 73.5868L118.771 76.523L120.365 77.5649Z" fill="#EEA99F"/>
<path d="M98.7596 31.6808C98.7016 31.9279 98.5236 32.0926 98.3456 32.0555C98.1675 32.0185 98.1013 31.7878 98.1634 31.5408C98.2255 31.2937 98.3994 31.1289 98.5774 31.1701C98.7554 31.2113 98.8217 31.4378 98.7596 31.6808Z" fill="#263238"/>
<path d="M98.5309 32.1008C98.0537 32.7775 97.4854 33.3858 96.8418 33.9087C96.9804 34.0693 97.1527 34.1978 97.3465 34.2853C97.5403 34.3728 97.7509 34.4171 97.9637 34.4152L98.5309 32.1008Z" fill="#CE938A"/>
<path d="M99.9926 30.5407C100.011 30.5418 100.03 30.539 100.048 30.5326C100.066 30.5263 100.082 30.5164 100.096 30.5036C100.11 30.4902 100.121 30.4742 100.128 30.4565C100.136 30.4388 100.14 30.4198 100.14 30.4006C100.14 30.3814 100.136 30.3624 100.128 30.3447C100.121 30.327 100.11 30.311 100.096 30.2975C99.9473 30.1154 99.7569 29.9714 99.5409 29.8775C99.3248 29.7835 99.0893 29.7424 98.8541 29.7576C98.8148 29.7637 98.7795 29.7847 98.7556 29.8163C98.7317 29.8478 98.7209 29.8873 98.7257 29.9266C98.7319 29.9648 98.7524 29.9993 98.7831 30.0231C98.8139 30.0468 98.8526 30.058 98.8913 30.0543C99.0787 30.0436 99.2659 30.0777 99.4373 30.1537C99.6087 30.2297 99.7593 30.3454 99.8766 30.4913C99.891 30.5077 99.9088 30.5206 99.9289 30.5292C99.949 30.5378 99.9707 30.5417 99.9926 30.5407Z" fill="#263238"/>
<path d="M104.348 34.7694C103.897 37.055 103.45 41.2431 105.056 42.7668C105.056 42.7668 104.427 45.0894 100.158 45.0894C95.4595 45.0894 97.9104 42.7668 97.9104 42.7668C100.477 42.1614 100.394 40.2671 99.9804 38.4922L104.348 34.7694Z" fill="#EEA99F"/>
<path d="M105.569 43.4545C105.809 42.5938 106.07 41.6137 105.312 41.3954C104.484 41.1442 100.067 41.2266 98.6137 41.9843C97.1606 42.7421 97.7485 44.3811 97.7485 44.3811L105.569 43.4545Z" fill="#183544"/>
<path d="M120.834 148.776C120.708 148.822 120.573 148.841 120.439 148.834C120.304 148.827 120.173 148.793 120.052 148.735C120.004 148.692 119.971 148.636 119.958 148.574C119.944 148.512 119.951 148.447 119.977 148.389C119.992 148.34 120.017 148.296 120.051 148.258C120.084 148.221 120.125 148.191 120.172 148.17C120.586 147.968 121.567 148.364 121.612 148.384C121.625 148.39 121.636 148.4 121.644 148.411C121.652 148.423 121.657 148.436 121.658 148.45C121.658 148.465 121.654 148.479 121.646 148.491C121.638 148.502 121.626 148.511 121.612 148.516C121.364 148.632 121.103 148.719 120.834 148.776ZM120.321 148.298L120.234 148.327C120.207 148.339 120.183 148.356 120.164 148.378C120.145 148.401 120.13 148.426 120.122 148.455C120.081 148.586 120.122 148.628 120.147 148.64C120.317 148.784 120.942 148.64 121.389 148.475C121.051 148.337 120.686 148.277 120.321 148.298Z" fill="#406FBF"/>
<path d="M121.595 148.524H121.562C121.206 148.421 120.444 147.886 120.436 147.532C120.434 147.476 120.453 147.422 120.488 147.378C120.522 147.335 120.571 147.304 120.626 147.293C120.68 147.274 120.737 147.267 120.794 147.271C120.851 147.275 120.907 147.291 120.957 147.318C121.371 147.532 121.64 148.397 121.653 148.434C121.656 148.447 121.656 148.461 121.653 148.474C121.649 148.487 121.642 148.499 121.632 148.508C121.621 148.516 121.608 148.522 121.595 148.524ZM120.709 147.416H120.676C120.585 147.445 120.585 147.491 120.585 147.511C120.585 147.721 121.09 148.141 121.458 148.314C121.361 147.97 121.162 147.663 120.887 147.433C120.831 147.408 120.768 147.402 120.709 147.416Z" fill="#406FBF"/>
<path d="M97.6671 150.308C97.2531 150.308 96.8764 150.25 96.7439 150.073C96.711 150.025 96.6934 149.969 96.6934 149.91C96.6934 149.852 96.711 149.796 96.7439 149.748C96.7692 149.704 96.8033 149.666 96.8439 149.637C96.8844 149.607 96.9307 149.586 96.9799 149.574C97.5015 149.434 98.5986 150.057 98.6359 150.081C98.6484 150.09 98.6582 150.102 98.664 150.116C98.6699 150.13 98.6716 150.145 98.669 150.16C98.6663 150.175 98.6594 150.188 98.6491 150.199C98.6389 150.21 98.6256 150.218 98.611 150.222C98.2993 150.276 97.9836 150.305 97.6671 150.308ZM97.1703 149.702C97.1223 149.696 97.0735 149.696 97.0254 149.702C96.9956 149.709 96.9673 149.721 96.9424 149.739C96.9175 149.757 96.8965 149.779 96.8805 149.805C96.8267 149.896 96.8474 149.941 96.8805 149.97C97.0296 150.172 97.8244 150.176 98.4082 150.094C98.0248 149.885 97.6045 149.752 97.1703 149.702Z" fill="#406FBF"/>
<path d="M98.6183 150.221H98.5852C98.2085 150.052 97.455 149.397 97.5129 149.023C97.5129 148.94 97.5875 148.837 97.7903 148.817C97.8644 148.809 97.9394 148.816 98.0106 148.838C98.0818 148.86 98.1477 148.896 98.2043 148.944C98.6183 149.27 98.6887 150.114 98.6887 150.147C98.6906 150.16 98.689 150.174 98.6839 150.186C98.6788 150.198 98.6704 150.209 98.6597 150.217C98.6465 150.222 98.6322 150.223 98.6183 150.221ZM97.8483 148.953H97.8069C97.6702 148.953 97.662 149.019 97.6578 149.035C97.6247 149.249 98.1339 149.776 98.5231 150.011C98.4873 149.655 98.3428 149.319 98.1091 149.047C98.0357 148.987 97.9436 148.953 97.8483 148.953Z" fill="#406FBF"/>
<path d="M102.072 150.147H98.9296L98.6191 142.907H101.757L102.072 150.147Z" fill="#B55B52"/>
<path d="M125.097 147.692L122.03 148.355L118.945 141.614L122.017 140.951L125.097 147.692Z" fill="#B55B52"/>
<path d="M121.715 148.047L125.168 147.305C125.229 147.292 125.293 147.3 125.348 147.328C125.404 147.355 125.449 147.401 125.474 147.458L126.671 150.04C126.7 150.103 126.714 150.172 126.712 150.241C126.71 150.311 126.693 150.379 126.661 150.44C126.629 150.502 126.584 150.556 126.528 150.598C126.473 150.64 126.408 150.668 126.34 150.682C125.131 150.921 124.531 150.975 123.028 151.304C122.092 151.506 119.985 152.016 118.697 152.292C117.41 152.568 116.963 151.337 117.455 151.11C119.707 150.085 120.651 149.183 121.26 148.343C121.37 148.192 121.532 148.086 121.715 148.047Z" fill="#263238"/>
<path d="M98.9453 149.784H102.377C102.44 149.785 102.501 149.806 102.549 149.845C102.598 149.884 102.632 149.938 102.646 149.999L103.263 152.774C103.279 152.841 103.279 152.911 103.264 152.978C103.248 153.045 103.218 153.108 103.174 153.162C103.131 153.215 103.075 153.258 103.013 153.288C102.95 153.317 102.881 153.331 102.812 153.33C101.57 153.31 99.7857 153.24 98.2332 153.24C96.4116 153.24 94.8425 153.338 92.7063 153.338C91.4188 153.338 91.0503 152.041 91.6009 151.922C94.0601 151.386 96.0638 151.329 98.1877 150.027C98.4131 149.879 98.6752 149.795 98.9453 149.784Z" fill="#263238"/>
<path d="M96.1882 48.8163C95.3395 49.6399 94.5073 50.3153 93.6421 51.0277C92.7768 51.7401 91.8867 52.399 90.98 53.0579C89.1287 54.4033 87.1534 55.5712 85.0805 56.546C84.8156 56.6737 84.5423 56.789 84.2525 56.896L83.8385 57.0649L83.6274 57.1472L83.5736 57.1678L83.4866 57.2008L83.2134 57.2873C82.8077 57.3893 82.3861 57.4131 81.9714 57.3573C81.5844 57.3004 81.2111 57.1734 80.8702 56.9825C80.4004 56.7112 79.9917 56.3468 79.6696 55.9118C79.2463 55.3337 78.905 54.7005 78.6553 54.0298C78.443 53.4639 78.2633 52.8864 78.1171 52.3002C77.5946 50.1136 77.3169 47.8762 77.2891 45.6289L79.624 45.2953C80.2367 47.2843 80.866 49.3269 81.6443 51.1471C81.8255 51.5833 82.03 52.0094 82.2571 52.4238C82.4157 52.7477 82.6222 53.0461 82.8698 53.3092C82.9443 53.3792 83.0064 53.3792 82.8698 53.2886C82.7671 53.2262 82.6532 53.1843 82.5344 53.165C82.3827 53.1358 82.2267 53.1358 82.0749 53.165L81.9921 53.1897C81.9673 53.1897 81.9921 53.1897 81.9921 53.1897H82.0294L82.1908 53.1115L82.5096 52.955C82.7207 52.8562 82.9236 52.7491 83.1472 52.6255C84.9079 51.6315 86.5907 50.5068 88.1814 49.261C89.0094 48.6392 89.8084 47.9885 90.6157 47.3379C91.423 46.6872 92.2262 45.9871 92.9672 45.3447L96.1882 48.8163Z" fill="#EEA99F"/>
<path d="M111.651 43.475C114.595 44.1463 118.056 54.664 118.056 54.664L113.022 57.9585C113.022 57.9585 109.817 53.0661 108.149 49.5781C106.398 45.9047 108.638 42.7873 111.651 43.475Z" fill="#79C930"/>
<path opacity="0.3" d="M109.978 48.8657C109.722 48.5321 109.022 49.2775 108.496 50.2617C109.225 51.6989 110.152 53.2885 110.98 54.6475C111.473 52.0202 110.641 49.7099 109.978 48.8657Z" fill="black"/>
<path d="M94.0474 43.6357C94.0474 43.6357 90.7023 47.3955 93.8611 70.6506H110.665C110.781 68.085 109.163 55.5659 111.651 43.471C109.793 43.114 107.913 42.8774 106.024 42.7626C103.645 42.6266 101.259 42.6266 98.8788 42.7626C97.2479 42.9281 95.6326 43.22 94.0474 43.6357Z" fill="#79C930"/>
<path opacity="0.3" d="M92.6245 50.0353C92.4533 52.8138 92.4533 55.6001 92.6245 58.3786C93.8955 56.2619 95.7834 52.3456 96.0732 49.2117L92.6245 50.0353Z" fill="black"/>
<path d="M100.672 46.683C100.825 50.9865 87.8628 56.4265 87.8628 56.4265L84.377 50.9823C84.377 50.9823 89.6637 47.7537 92.2968 44.9122C95.5508 41.4036 100.556 43.405 100.672 46.683Z" fill="#79C930"/>
<path d="M86.4272 50.2C87.0772 51.5713 88.5428 54.5652 89.3583 55.5536C89.4163 55.6258 89.444 55.7176 89.4355 55.8098C89.427 55.9019 89.383 55.9871 89.3128 56.0477C88.7249 56.5666 87.5864 57.2214 87.0358 57.1061C86.3858 56.9661 82.8047 52.0861 82.9579 51.419C83.0655 50.966 84.4856 50.2288 85.3757 49.8088C85.4705 49.7654 85.573 49.741 85.6773 49.7372C85.7816 49.7334 85.8856 49.7502 85.9833 49.7865C86.0811 49.8229 86.1707 49.8782 86.2468 49.9491C86.323 50.0201 86.3843 50.1053 86.4272 50.2Z" fill="#183544"/>
<path d="M112.035 55.7719C113.401 55.0924 116.374 53.5605 117.363 52.7286C117.434 52.6694 117.526 52.6398 117.618 52.6459C117.711 52.6521 117.797 52.6935 117.86 52.7615C118.394 53.334 119.081 54.45 118.978 54.9977C118.858 55.6484 114.039 59.3299 113.364 59.1899C112.904 59.0952 112.122 57.7033 111.687 56.8261C111.64 56.7343 111.612 56.634 111.604 56.5312C111.596 56.4284 111.608 56.3251 111.641 56.2271C111.673 56.1291 111.725 56.0385 111.792 55.9604C111.86 55.8822 111.942 55.8182 112.035 55.7719Z" fill="#183544"/>
<path d="M79.554 45.8513L80.8332 42.808L77.5212 41.9061C77.5212 41.9061 76.0308 44.2329 77.3846 46.0695L79.554 45.8513Z" fill="#EEA99F"/>
<path d="M80.5481 39.6205L78.5526 38.3151L77.5176 41.9061L80.8337 42.8079L80.5481 39.6205Z" fill="#EEA99F"/>
<path opacity="0.2" d="M98.6191 142.911L98.7765 146.642H101.923L101.761 142.911H98.6191Z" fill="black"/>
<path opacity="0.2" d="M122.017 140.955L118.945 141.614L120.535 145.09L123.607 144.427L122.017 140.955Z" fill="black"/>
<path d="M107.101 33.151C106.178 36.116 105.788 37.895 103.884 39.0687C101.019 40.8354 97.6243 38.5539 97.6368 35.3624C97.6368 32.4797 99.152 28.1351 102.406 27.6533C103.125 27.543 103.86 27.6177 104.541 27.8703C105.223 28.123 105.828 28.5451 106.299 29.0965C106.769 29.6478 107.09 30.31 107.231 31.0197C107.371 31.7295 107.326 32.4633 107.101 33.151Z" fill="#EEA99F"/>
<path d="M100.425 32.2861C100.425 32.1173 99.7167 30.4165 100.073 29.7535C100.901 28.2339 105.297 30.0623 106.465 30.6924C107.968 31.516 109.5 32.9285 108.121 33.9869C106.821 34.9958 105.757 37.9362 104.784 38.3521C103.811 38.768 101.911 38.3974 101.41 37.6767C100.909 36.9561 99.3897 33.8139 100.425 32.2861Z" fill="#263238"/>
<path d="M100.627 29.2429C99.5423 29.1934 98.557 28.3328 99.2152 27.0767C99.3985 26.718 99.6773 26.4162 100.021 26.2042C100.365 25.9922 100.761 25.878 101.165 25.8742C101.165 25.8742 100.151 26.6979 102.271 26.8749C104.39 27.052 104.013 25.3842 103.392 24.8735C104.461 25.1453 105.765 25.6766 105.827 26.8049C105.889 27.9333 108.394 28.7858 108.24 27.4597C108.24 27.4597 110.223 29.2429 108.654 29.7906C107.085 30.3383 111.358 30.8983 111.221 32.1173C110.873 31.9732 109.511 31.6643 109.805 32.7556C110.099 33.8469 109.097 34.4029 107.561 34.0487C106.026 33.6946 102.316 31.5367 100.627 29.2429Z" fill="#263238"/>
<path d="M102.017 32.7804C101.931 33.1753 101.761 33.5474 101.519 33.872C101.277 34.1965 100.968 34.466 100.613 34.6624C99.6982 35.103 99.189 34.7159 99.218 33.7934C99.2428 32.9698 99.6899 31.6355 100.584 31.3637C101.478 31.0919 102.178 31.8661 102.017 32.7804Z" fill="#EEA99F"/>
<path d="M99.8242 70.6505C99.8242 70.6505 103.389 94.5357 105.347 103.48C107.492 113.281 118.951 144.69 118.951 144.69L124.577 143.48C124.577 143.48 115.995 114.072 114.774 104.357C113.445 93.8273 110.667 70.6382 110.667 70.6382L99.8242 70.6505Z" fill="#183544"/>
<path d="M117.448 142.182C117.427 142.182 118.652 144.847 118.652 144.847L124.982 143.484L124.291 140.951L117.448 142.182Z" fill="#263238"/>
<path opacity="0.3" d="M102.077 79.1586C106.217 79.9616 105.766 95.2563 105.269 103.122C104.081 97.5625 102.338 86.8636 101.129 79.2698C101.423 79.1253 101.757 79.086 102.077 79.1586Z" fill="black"/>
<path d="M93.8608 70.6505C93.8608 70.6505 93.4468 94.0167 93.7697 103.546C94.1257 113.458 97.6075 145.917 97.6075 145.917H102.927C102.927 145.917 103.126 114.039 103.341 104.304C103.598 93.6914 104.886 70.6505 104.886 70.6505H93.8608Z" fill="#183544"/>
<path d="M96.5814 143.167C96.5566 143.167 96.8836 146.008 96.8836 146.008H103.359L103.532 143.401L96.5814 143.167Z" fill="#263238"/>
<path d="M154.864 99.912L137.727 105.497C135.12 106.347 133.698 109.138 134.553 111.732L145.197 144.049C146.051 146.642 148.857 148.056 151.465 147.206L168.602 141.621C171.209 140.772 172.631 137.98 171.776 135.387L161.132 103.07C160.278 100.476 157.472 99.0623 154.864 99.912Z" fill="#263238"/>
<path d="M149.93 147.857C148.797 147.856 147.692 147.5 146.773 146.84C145.854 146.18 145.167 145.25 144.809 144.18L134.165 111.865C133.945 111.197 133.859 110.492 133.912 109.79C133.965 109.089 134.157 108.405 134.476 107.778C134.795 107.15 135.235 106.591 135.772 106.133C136.308 105.675 136.93 105.326 137.602 105.107L154.737 99.5227C155.409 99.3033 156.118 99.2178 156.823 99.2711C157.528 99.3244 158.216 99.5154 158.847 99.8332C159.478 100.151 160.04 100.589 160.5 101.123C160.961 101.657 161.311 102.276 161.531 102.945L172.175 135.26C172.395 135.928 172.48 136.633 172.426 137.334C172.372 138.035 172.18 138.718 171.861 139.345C171.541 139.973 171.101 140.531 170.564 140.989C170.028 141.447 169.406 141.795 168.734 142.014L151.599 147.598C151.06 147.773 150.497 147.86 149.93 147.857ZM156.41 100.087C155.93 100.088 155.454 100.165 154.998 100.313L137.862 105.881C136.717 106.258 135.768 107.071 135.224 108.143C134.681 109.214 134.588 110.457 134.964 111.597L145.608 143.916C145.987 145.056 146.804 146 147.882 146.54C148.959 147.081 150.208 147.174 151.355 146.799L168.498 141.223C169.644 140.846 170.593 140.033 171.136 138.961C171.68 137.89 171.773 136.647 171.396 135.507L160.752 103.192C160.375 102.051 159.557 101.106 158.48 100.565C157.838 100.241 157.129 100.072 156.41 100.07V100.087Z" fill="#263238"/>
<path d="M129.583 108.698C129.495 108.698 129.41 108.67 129.34 108.619C129.269 108.568 129.216 108.496 129.189 108.414L119.522 79.068C119.149 77.9416 119.163 76.7238 119.56 75.6058C119.958 74.4878 120.718 73.5328 121.721 72.8908C121.903 72.7742 122.11 72.7009 122.325 72.6767C122.541 72.6524 122.759 72.6778 122.963 72.7508C123.171 72.8239 123.36 72.9436 123.514 73.1007C123.668 73.2578 123.784 73.4481 123.853 73.6568L134.667 106.486C134.686 106.538 134.694 106.594 134.692 106.649C134.689 106.704 134.675 106.759 134.651 106.808C134.626 106.858 134.592 106.903 134.55 106.939C134.508 106.975 134.459 107.003 134.406 107.02C134.354 107.037 134.298 107.044 134.242 107.039C134.187 107.034 134.133 107.018 134.084 106.992C134.035 106.966 133.991 106.931 133.956 106.888C133.921 106.845 133.895 106.795 133.88 106.742L123.041 73.9286C123.013 73.8386 122.964 73.7566 122.898 73.6893C122.832 73.622 122.75 73.5713 122.661 73.5415C122.578 73.5111 122.489 73.5001 122.402 73.5094C122.314 73.5187 122.23 73.548 122.155 73.595C121.309 74.1374 120.666 74.9437 120.329 75.8878C119.992 76.8319 119.979 77.8605 120.292 78.8127L129.959 108.154C129.977 108.206 129.984 108.261 129.98 108.315C129.976 108.369 129.961 108.422 129.937 108.471C129.912 108.519 129.878 108.563 129.836 108.598C129.795 108.634 129.746 108.661 129.694 108.677C129.658 108.689 129.621 108.696 129.583 108.698Z" fill="#263238"/>
<path d="M144.801 150.674C144.801 150.147 144.643 149.632 144.349 149.193C144.054 148.755 143.636 148.413 143.146 148.212C142.656 148.01 142.118 147.958 141.598 148.061C141.078 148.164 140.601 148.418 140.226 148.791C139.852 149.164 139.597 149.64 139.494 150.157C139.391 150.674 139.445 151.21 139.648 151.696C139.852 152.183 140.196 152.599 140.637 152.891C141.078 153.184 141.596 153.339 142.126 153.338C142.478 153.338 142.826 153.269 143.15 153.135C143.475 153.002 143.77 152.805 144.019 152.558C144.267 152.31 144.464 152.017 144.598 151.693C144.732 151.37 144.801 151.024 144.801 150.674Z" fill="#263238"/>
<path d="M152.49 149.484C152.49 148.958 152.333 148.443 152.039 148.006C151.745 147.568 151.327 147.227 150.839 147.026C150.35 146.825 149.812 146.772 149.293 146.875C148.775 146.977 148.298 147.231 147.924 147.603C147.55 147.975 147.295 148.449 147.192 148.965C147.089 149.481 147.142 150.016 147.344 150.502C147.547 150.988 147.889 151.403 148.329 151.696C148.769 151.988 149.286 152.144 149.815 152.144C150.524 152.144 151.205 151.864 151.706 151.365C152.208 150.866 152.49 150.189 152.49 149.484Z" fill="#263238"/>
<path d="M148.085 102.125L130.948 107.709C128.34 108.559 126.919 111.351 127.773 113.944L138.417 146.261C139.272 148.855 142.078 150.269 144.685 149.419L161.823 143.834C164.43 142.984 165.851 140.193 164.997 137.599L154.353 105.282C153.499 102.688 150.693 101.275 148.085 102.125Z" fill="#79C930"/>
<path d="M143.149 150.069C142.016 150.064 140.911 149.707 139.993 149.045C139.074 148.384 138.387 147.453 138.028 146.383L127.384 114.064C127.164 113.396 127.079 112.691 127.133 111.99C127.187 111.289 127.379 110.605 127.698 109.978C128.018 109.351 128.458 108.793 128.995 108.335C129.531 107.877 130.153 107.529 130.825 107.31L147.96 101.726C149.316 101.284 150.793 101.396 152.066 102.037C153.34 102.678 154.305 103.795 154.75 105.144L165.394 137.463C165.838 138.812 165.726 140.281 165.081 141.548C164.437 142.814 163.313 143.774 161.958 144.217L144.822 149.801C144.283 149.979 143.718 150.069 143.149 150.069ZM130.953 107.701L131.081 108.093C129.936 108.469 128.987 109.282 128.443 110.354C127.9 111.426 127.807 112.668 128.183 113.808L138.827 146.123C139.206 147.263 140.023 148.207 141.101 148.747C142.178 149.288 143.427 149.381 144.574 149.006L161.709 143.422C162.855 143.045 163.804 142.232 164.347 141.16C164.89 140.089 164.984 138.846 164.607 137.706L153.963 105.391C153.585 104.251 152.767 103.308 151.69 102.767C150.612 102.227 149.363 102.134 148.217 102.508L131.081 108.093L130.953 107.701Z" fill="#263238"/>
<path opacity="0.2" d="M155.858 117.993L133.605 125.216L136.44 133.859L158.693 126.635L155.858 117.993Z" fill="white"/>
<path d="M150.676 111.96C150.897 110.012 149.489 108.254 147.53 108.034C145.572 107.814 143.805 109.215 143.584 111.163C143.363 113.112 144.771 114.869 146.73 115.089C148.688 115.309 150.455 113.908 150.676 111.96Z" fill="white"/>
<path d="M138.048 120.822L136.96 125.99C136.909 126.232 136.923 126.483 137 126.717C137.078 126.952 137.216 127.162 137.401 127.327C137.586 127.492 137.811 127.605 138.054 127.656C138.297 127.707 138.549 127.693 138.785 127.617L143.828 125.969C144.064 125.893 144.276 125.755 144.443 125.571C144.609 125.387 144.723 125.162 144.774 124.92C144.826 124.678 144.812 124.427 144.734 124.192C144.657 123.957 144.518 123.746 144.333 123.581L140.379 120.056C140.194 119.891 139.968 119.777 139.724 119.727C139.48 119.676 139.227 119.69 138.991 119.768C138.755 119.846 138.543 119.984 138.378 120.169C138.212 120.354 138.099 120.579 138.048 120.822Z" fill="white"/>
<path d="M148.603 138.964L148.589 140.322C148.583 140.914 149.06 141.398 149.654 141.404L158.058 141.49C158.653 141.496 159.14 141.022 159.146 140.431L159.16 139.072C159.166 138.48 158.689 137.996 158.094 137.99L149.691 137.904C149.096 137.898 148.609 138.372 148.603 138.964Z" fill="white"/>
</svg>
