<svg width="50" height="50" viewBox="0 0 50 50" fill="none" xmlns="http://www.w3.org/2000/svg">
<g clip-path="url(#clip0)">
<path d="M22.551 49.874C22.551 49.874 21.9599 49.9231 20.9759 49.9475C18.7542 49.7933 16.6255 49.3012 14.641 48.5223C12.9612 42.1179 10.379 37.9273 2.24019 35.7141C1.44644 33.4802 1.01187 31.076 1.0061 28.5711C1.0061 28.5543 27.2636 8.14856 27.2636 8.14856C36.3505 10.3615 41.9517 18.34 41.9517 28.5207C41.9518 40.3833 31.5057 49.9476 22.551 49.874Z" fill="#7BB1FF"/>
<path d="M43.9638 28.5215C43.9638 34.453 41.5594 39.8223 37.6731 43.7096C33.7858 47.596 28.4156 50.0004 22.4849 50.0004C21.9779 50.0004 21.4749 49.9833 20.9758 49.9481C26.3048 49.5778 31.1005 47.264 34.6549 43.7096C38.5413 39.8223 40.9457 34.453 40.9457 28.5215C40.9457 22.59 38.5413 17.2207 34.6549 13.3334C32.5706 11.249 30.0593 9.59132 27.2639 8.50197C26.4671 7.90626 26.5593 7.5382 27.2637 7.57638C28.846 7.93595 30.3621 8.47023 31.7904 9.15783C33.2998 10.928 34.6071 11.5913 36.3094 13.2933C39.6722 16.6569 41.2463 22.0246 43.8352 26.1574C43.9202 26.9337 43.9638 27.7225 43.9638 28.5215Z" fill="#62A5F4"/>
<path d="M17.4044 37.7266V42.9117C17.4044 43.4852 17.1597 44.0314 16.7319 44.4132L12.6395 47.6157C7.82622 45.1291 4.07397 40.8761 2.24048 35.7145H15.3924C16.5037 35.7145 17.4044 36.6154 17.4044 37.7266Z" fill="#FFE07D"/>
<path d="M19.9196 37.7266V42.9117C19.9196 43.4852 19.6751 44.0315 19.2465 44.4127L14.6409 48.5224C13.9557 48.2537 13.2887 47.951 12.6399 47.615L16.2285 44.4127C16.6571 44.0315 16.9015 43.4852 16.9015 42.9117V37.7266C16.9015 36.6149 16.0011 35.7145 14.8894 35.7145H17.9075C19.0192 35.7145 19.9196 36.6149 19.9196 37.7266Z" fill="#FFD064"/>
<path d="M24.0187 45.4728H22.1837C21.7439 45.4728 21.5159 44.9481 21.816 44.6266L23.1388 43.2093L25.4638 42.4548L24.5472 41.7003L28.0683 37.9276H36.016L25.7188 44.9484C25.2177 45.29 24.6252 45.4728 24.0187 45.4728Z" fill="#F4F4F4"/>
<path d="M38.0281 37.9274L32.4951 41.7002L29.8796 42.3372L30.2824 43.209L27.7312 44.9486C27.2291 45.2896 26.6376 45.4727 26.031 45.4727H23.0129C23.6196 45.4727 24.2111 45.2896 24.7131 44.9486L35.0099 37.9275H38.0281V37.9274Z" fill="#EDEBED"/>
<path d="M30.483 41.7003L28.2706 43.2093H23.1389L24.5473 41.7003H30.483Z" fill="#DBD9DC"/>
<path d="M32.4951 41.7003L30.2828 43.2093H27.2646L29.477 41.7003H32.4951Z" fill="#C9C6CA"/>
<path d="M24.0187 28.8731H22.1837C21.7439 28.8731 21.5159 29.3978 21.816 29.7193L23.1386 31.1364L24.7803 31.6892L24.5472 32.6456L28.0684 36.4183H36.0161L25.7189 29.3975C25.2177 29.0558 24.6252 28.8731 24.0187 28.8731Z" fill="#DBD9DC"/>
<path d="M38.0282 36.4185H35.0102L24.7134 29.3974C24.2113 29.0564 23.6198 28.8733 23.0132 28.8733H26.0313C26.6379 28.8733 27.2295 29.0564 27.7314 29.3974L30.283 31.1373L30.0135 31.9836L32.4946 32.6454L38.0282 36.4185Z" fill="#C9C6CA"/>
<path d="M12.1 33.1473L15.4044 38.9301C15.5835 39.2436 15.9169 39.437 16.2778 39.437H45.9757C46.2535 39.437 46.4787 39.2118 46.4787 38.934V38.431C46.4787 36.4863 44.9023 34.9099 42.9576 34.9099H19.1076C18.9256 34.9099 18.7577 34.8115 18.6688 34.6526L17.8365 33.1665C17.5696 32.69 17.0661 32.3948 16.5198 32.3948H12.5367C12.1505 32.3946 11.9083 32.8119 12.1 33.1473Z" fill="#F4F4F4"/>
<path d="M48.994 38.4308V38.9338C48.994 39.2114 48.7686 39.4368 48.491 39.4368H45.4729C45.7505 39.4368 45.9759 39.2114 45.9759 38.9338V38.4308C45.9759 36.4861 44.3995 34.9097 42.4548 34.9097H45.4729C47.4175 34.9097 48.994 36.4861 48.994 38.4308Z" fill="#EDEBED"/>
<path d="M25.2515 8.0653V17.3861C25.2515 18.3582 25.0761 18.9407 24.1197 19.115L20.9758 19.9198C20.3922 20.0261 15.1168 27.5595 15.1168 27.5595C14.7584 28.1855 14.0922 28.5716 13.3709 28.5716H1.0061V28.5213C1.0061 22.5898 3.4105 17.2206 7.29683 13.3333C10.8516 9.77936 15.6464 7.46471 20.9759 7.09469C21.8122 7.08717 22.0688 7.15563 22.5761 7.15563C24.6857 7.26891 25.2515 8.0653 25.2515 8.0653Z" fill="#79C930"/>
<path d="M27.2636 8.50197V17.3862C27.2636 18.358 26.5684 19.191 25.6127 19.3652L22.5252 19.9276C21.9417 20.0342 21.4347 20.3923 21.1398 20.9074L17.33 27.5593C16.9719 28.1851 16.3059 28.5714 15.5845 28.5714H12.5664C13.2877 28.5714 13.9537 28.1851 14.3119 27.5593L18.1218 20.9074C18.4165 20.3923 18.9236 20.0342 19.5071 19.9276L22.5946 19.3652C23.5504 19.1911 24.2455 18.3581 24.2455 17.3862V7.57638C25.1761 7.38585 26.6684 7.93087 27.2636 8.50197Z" fill="#6BB924"/>
<path d="M27.2635 7.57623V8.50182C25.2927 7.73317 23.18 7.24733 20.9758 7.0944C21.4738 7.06022 21.9779 7.04205 22.4849 7.04205C23.0777 7.04205 23.6649 7.06598 24.2456 7.11315C25.3353 7.53756 26.4 7.65406 27.2635 7.57623Z" fill="#B3E59F"/>
<path d="M27.2637 7.57668V8.50227C26.2908 8.12297 25.2828 7.81213 24.2456 7.57668V7.11389C25.2737 7.19739 26.2818 7.35334 27.2637 7.57668Z" fill="#95D6A4"/>
<path d="M16.9931 2.72553C15.309 1.04145 11.8043 0.0756326 9.90937 0.121824C7.94375 0.442234 6.18555 1.37807 4.83809 2.72553C3.154 4.40962 2.11279 6.73657 2.11279 9.306C2.11279 14.1802 7.18994 20.3553 9.90928 22.6901C12.0223 22.0827 19.9151 14.0846 19.7185 9.306C19.7184 6.73657 18.6771 4.40962 16.9931 2.72553Z" fill="#F2C94C"/>
<path d="M14.7979 12.6849C13.9327 13.5491 12.7376 14.0843 11.4186 14.0843C8.77974 14.0843 6.63989 11.9445 6.63989 9.30563C6.63989 7.98571 7.17515 6.79156 8.03931 5.92633C8.90454 5.06217 10.0997 4.52692 11.4186 4.52692C12.7376 4.52692 13.9327 5.06217 14.7979 5.92633C15.6621 6.79156 16.1973 7.98571 16.1973 9.30563C16.1973 10.6255 15.6622 11.8197 14.7979 12.6849Z" fill="white"/>
<path d="M20.7243 9.30586C20.7243 12.3743 18.7122 15.9578 16.5432 18.7747C14.3732 21.5916 12.0472 23.6419 11.4185 23.6419C11.1599 23.6419 10.6137 23.2948 9.90942 22.6902C10.9165 21.8261 12.2474 20.4327 13.5251 18.7747C15.6942 15.9578 17.7062 12.3743 17.7062 9.30586C17.7062 6.73643 16.665 4.40947 14.9808 2.72539C13.6337 1.37822 11.8752 0.441699 9.90942 0.122754C10.4003 0.0412109 10.9043 0 11.4185 0C13.9889 0 16.3149 1.04121 17.999 2.72539C19.6831 4.40957 20.7243 6.73643 20.7243 9.30586Z" fill="#DEB741"/>
<path d="M40.8169 26.1568H39.272C38.3144 26.1568 37.4894 25.4818 37.2998 24.5431L36.7885 22.0128C36.6806 21.4786 36.3606 21.011 35.9017 20.717L32.7174 18.677C32.14 18.3071 31.7908 17.6685 31.7908 16.9828V10.9274C33.9839 11.9838 36.1107 13.0827 37.8129 14.7849C41.1761 18.1491 40.8169 26.1568 40.8169 26.1568Z" fill="#BDE4FF"/>
<path d="M43.835 26.1572H40.8169C40.2707 21.1702 38.0181 16.6974 34.6549 13.3332C33.7726 12.452 32.8149 11.6461 31.7908 10.9278V9.15717C33.9839 10.2135 35.9709 11.631 37.6731 13.3332C41.0363 16.6974 43.2888 21.1702 43.835 26.1572Z" fill="#99DBFF"/>
<path d="M30.483 32.6459H24.5473L23.1389 31.1368H28.2706L30.483 32.6459Z" fill="#C9C6CA"/>
<path d="M32.4951 32.6459H29.477L27.2646 31.1368H30.2828L32.4951 32.6459Z" fill="#B7B2B8"/>
</g>
<defs>
<clipPath id="clip0">
<rect width="50" height="50" fill="white"/>
</clipPath>
</defs>
</svg>
