<svg width="50" height="50" viewBox="0 0 50 50" fill="none" xmlns="http://www.w3.org/2000/svg">
<path d="M0 23.8313C4.9999 23.8313 4.9999 25.8434 9.9998 25.8434C14.9996 25.8434 14.9996 23.8313 19.9994 23.8313C24.9993 23.8313 24.9993 25.8434 29.9993 25.8434C34.9995 25.8434 34.9995 23.8313 39.9997 23.8313C44.9999 23.8313 44.9998 25.8433 50 25.8433V50H0V23.8313Z" fill="#B1E4F9"/>
<path d="M42.3902 33.4819L16.2111 39.4476L14.2041 30.6419L10.6135 14.8873L21.4858 2.171L36.7926 8.92051L41.4576 29.3913L42.3902 33.4819Z" fill="#ECF4FF"/>
<path d="M42.3905 33.4819L16.2114 39.4478L14.2043 30.6419C15.7818 30.0605 16.977 29.325 19.9991 29.325C24.9991 29.325 24.9991 31.3371 29.9991 31.3371C34.9991 31.3371 34.9991 29.325 40 29.325C40.5403 29.325 41.0222 29.3481 41.4578 29.3914L42.3905 33.4819Z" fill="#DDEAFB"/>
<path d="M37.2298 10.8397L38.0965 14.6427C30.9926 9.26631 22.5479 6.83184 22.5479 6.83184C22.5479 6.83184 15.9912 12.6852 11.9187 20.6095L11.0518 16.8058L11.5301 16.0394L18.7116 4.52286C20.3573 2.98018 21.4855 2.1709 21.4855 2.1709C21.4855 2.1709 22.8539 2.41192 25.0056 3.08916L36.4612 10.3523L37.2298 10.8397Z" fill="#DDEAFB"/>
<path d="M21.3952 0.0206082C23.5223 0.476761 33.3227 2.92129 41.0696 10.6189C41.3606 10.9081 41.4243 11.3558 41.2285 11.7163L40.3935 13.254C40.1135 13.7694 39.4323 13.8964 38.9828 13.5195C32.6573 8.2166 24.6493 5.42715 22.5571 4.75752C22.2359 4.65469 21.885 4.73467 21.6401 4.96651C20.0446 6.47656 14.0361 12.4605 10.633 19.9806C10.3912 20.5149 9.72229 20.6957 9.2467 20.3524L7.82785 19.3284C7.49514 19.0884 7.35861 18.6573 7.49563 18.2706C11.142 7.97647 18.9154 1.52666 20.6347 0.193948C20.8506 0.0266629 21.1281 -0.0366183 21.3952 0.0206082Z" fill="#78C858"/>
<path d="M22.9614 0.40557C21.24 1.74053 12.2903 9.10479 8.64438 19.3976C8.58608 19.5615 8.57798 19.7326 8.61216 19.8945L7.82846 19.3291C7.49546 19.0887 7.35864 18.6581 7.49546 18.2707C11.1424 7.97695 18.9161 1.52725 20.6354 0.194242C20.8507 0.0262734 21.1284 -0.0361289 21.3959 0.0211953C21.735 0.0936562 22.2702 0.217387 22.9614 0.40557Z" fill="#5FB63D"/>
<path d="M22.9775 0.409577C22.9726 0.407526 22.9665 0.406549 22.9614 0.405573L22.9624 0.404596C23.0047 0.37237 23.0037 0.378425 22.9775 0.409577Z" fill="#DD636E"/>
<path d="M21.3168 29.4809C25.4696 29.0032 29.5208 28.0799 33.4704 26.7109C32.9928 22.5582 32.0694 18.5069 30.7005 14.5573C26.5478 15.035 22.4965 16.3155 18.5469 17.6845C19.0246 21.8373 19.9479 25.5313 21.3168 29.4809Z" fill="#BDD2F9"/>
<path d="M34.2201 26.6248C33.7385 22.4368 32.7941 18.2936 31.4136 14.3103C31.2978 13.9762 30.9651 13.7673 30.6145 13.8078C26.4265 14.2895 22.2833 15.2338 18.2999 16.6144C17.9658 16.7302 17.757 17.0623 17.7975 17.4135C18.2792 21.6018 19.2234 25.7449 20.604 29.728C20.7103 30.0345 20.9984 30.2355 21.3165 30.2355C21.3452 30.2355 21.3741 30.2339 21.4031 30.2306C25.5912 29.7488 29.7344 28.8046 33.7177 27.424C34.0517 27.3081 34.2606 26.976 34.2201 26.6248ZM30.1836 15.3797C30.5285 16.4109 30.8427 17.4529 31.1273 18.5031L19.8722 21.0683C19.6736 19.9984 19.5053 18.9232 19.3693 17.8443C22.8796 16.6702 26.5114 15.8425 30.1836 15.3797ZM21.834 28.6586C21.1644 26.6566 20.6079 24.6149 20.167 22.5488L31.5032 19.9652C32.0012 22.0184 32.3843 24.0995 32.6482 26.1939C29.1381 27.3681 25.5062 28.1957 21.834 28.6586Z" fill="#F2C94C"/>
<path d="M50 43.1117C44.9998 43.1117 44.9998 41.0996 39.9996 41.0996C34.9994 41.0996 34.9994 43.1117 29.9992 43.1117C24.9992 43.1117 24.9992 41.0996 19.9993 41.0996C14.9995 41.0996 14.9995 43.1117 9.99971 43.1117C4.9999 43.1117 4.9999 41.0996 0 41.0996V31.4594C4.9999 31.4594 4.9999 33.4715 9.9998 33.4715C14.9996 33.4715 14.9996 31.4594 19.9994 31.4594C24.9993 31.4594 24.9993 33.4715 29.9993 33.4715C34.9995 33.4715 34.9995 31.4594 39.9997 31.4594C44.9999 31.4594 44.9998 33.4715 50 33.4715" fill="#90D8F9"/>
</svg>
