<svg width="130" height="40" viewBox="0 0 130 40" fill="none" xmlns="http://www.w3.org/2000/svg">
<path d="M3.17763 15.6802V29.4071C3.17055 29.4946 3.13235 29.5767 3.06987 29.6388C3.00739 29.7008 2.92472 29.7388 2.83665 29.7458H0.356797C0.266526 29.7416 0.180876 29.7049 0.115845 29.6426C0.0508146 29.5803 0.0108505 29.4965 0.00341797 29.4071L0.00341797 13.1121C0.00924094 13.0242 0.0470349 12.9414 0.109763 12.8791C0.172491 12.8168 0.255878 12.7792 0.344397 12.7734H16.2092C16.2989 12.7778 16.3837 12.8147 16.4478 12.8771C16.5118 12.9396 16.5504 13.0232 16.5564 13.1121V29.4071C16.5491 29.4955 16.5101 29.5785 16.4463 29.6406C16.3826 29.7028 16.2984 29.7402 16.2092 29.7458H13.7294C13.6409 29.74 13.5575 29.7025 13.4948 29.6402C13.432 29.5778 13.3942 29.495 13.3884 29.4071V15.6802H3.17763Z" fill="white"/>
<path d="M34.9195 27.5601C34.0555 28.3898 33.0352 29.042 31.9172 29.4795C30.7991 29.917 29.6051 30.1311 28.4037 30.1096C27.2021 30.1318 26.0079 29.918 24.8897 29.4804C23.7716 29.0429 22.7514 28.3903 21.8878 27.5601C21.0513 26.7342 20.3874 25.7522 19.9343 24.6704C19.4813 23.5887 19.248 22.4287 19.248 21.2571C19.248 20.0854 19.4813 18.9254 19.9343 17.8437C20.3874 16.762 21.0513 15.7799 21.8878 14.954C22.7519 14.1249 23.7723 13.4734 24.8905 13.037C26.0086 12.6005 27.2025 12.3877 28.4037 12.4106C29.6047 12.3883 30.7984 12.6015 31.9165 13.0379C33.0345 13.4743 34.055 14.1255 34.9195 14.954C35.7545 15.7807 36.4171 16.7631 36.8692 17.8447C37.3213 18.9263 37.5541 20.0859 37.5541 21.2571C37.5541 22.4282 37.3213 23.5878 36.8692 24.6694C36.4171 25.7511 35.7545 26.7334 34.9195 27.5601ZM32.6752 17.0909C32.1208 16.5222 31.457 16.0699 30.7232 15.7611C29.9894 15.4522 29.2006 15.293 28.4037 15.293C27.6067 15.293 26.8179 15.4522 26.0841 15.7611C25.3503 16.0699 24.6865 16.5222 24.1321 17.0909C23.1093 18.2518 22.5454 19.7421 22.5454 21.2848C22.5454 22.8275 23.1093 24.3177 24.1321 25.4786C24.6873 26.0458 25.3514 26.4967 26.0851 26.8046C26.8188 27.1125 27.6072 27.2711 28.4037 27.2711C29.2001 27.2711 29.9885 27.1125 30.7222 26.8046C31.4559 26.4967 32.12 26.0458 32.6752 25.4786C33.698 24.3177 34.2619 22.8275 34.2619 21.2848C34.2619 19.7421 33.698 18.2518 32.6752 17.0909Z" fill="white"/>
<path d="M45.7935 15.6807L43.7414 27.1106C43.6509 27.881 43.2989 28.5978 42.7433 29.1428C42.185 29.5689 41.4939 29.7868 40.7904 29.7587H38.5895C38.5014 29.7516 38.4188 29.7137 38.3563 29.6516C38.2938 29.5896 38.2556 29.5074 38.2485 29.42V27.1722C38.2556 27.0847 38.2938 27.0026 38.3563 26.9405C38.4188 26.8784 38.5014 26.8405 38.5895 26.8335H39.3955C39.6943 26.8588 39.9918 26.7706 40.2277 26.5865C40.4636 26.4025 40.6204 26.1364 40.6664 25.842L43.0842 13.2359C43.0953 13.1041 43.1581 12.9818 43.2589 12.8955C43.3598 12.8091 43.4907 12.7655 43.6236 12.774H54.6031C54.6921 12.7785 54.7763 12.8156 54.8393 12.8782C54.9023 12.9407 54.9396 13.0243 54.9441 13.1127V29.4076C54.9383 29.4956 54.9005 29.5784 54.8378 29.6407C54.7751 29.703 54.6917 29.7406 54.6031 29.7463H52.1233C52.0348 29.7406 51.9514 29.703 51.8887 29.6407C51.8259 29.5784 51.7881 29.4956 51.7823 29.4076V15.6807H45.7935Z" fill="white"/>
<path d="M71.8501 13.0879C71.9252 12.986 72.0245 12.9041 72.1391 12.8493C72.2537 12.7945 72.3801 12.7686 72.5072 12.7739H74.5841C74.6726 12.7796 74.756 12.8172 74.8187 12.8795C74.8815 12.9418 74.9192 13.0246 74.9251 13.1126V29.4075C74.918 29.495 74.8798 29.5771 74.8173 29.6392C74.7548 29.7012 74.6722 29.7392 74.5841 29.7462H72.1042C72.0157 29.7404 71.9323 29.7029 71.8696 29.6406C71.8069 29.5783 71.7691 29.4954 71.7633 29.4075V17.4049L61.4471 29.4321C61.3712 29.5332 61.2717 29.6146 61.1573 29.6693C61.0429 29.724 60.9168 29.7504 60.7899 29.7462H58.713C58.625 29.7392 58.5423 29.7012 58.4798 29.6392C58.4173 29.5771 58.3791 29.495 58.3721 29.4075V13.1126C58.3779 13.0246 58.4157 12.9418 58.4784 12.8795C58.5411 12.8172 58.6245 12.7796 58.713 12.7739H61.1929C61.2819 12.7783 61.366 12.8154 61.429 12.878C61.492 12.9406 61.5294 13.0242 61.5339 13.1126V25.1151L71.8501 13.0879Z" fill="white"/>
<path d="M94.5846 24.7767C94.9752 24.9922 94.7768 25.3925 94.7024 25.528C94.1183 26.5858 93.328 27.5174 92.3775 28.2684C90.7866 29.5028 88.8162 30.1552 86.7979 30.1159C84.5562 30.1592 82.3736 29.4008 80.6478 27.979C79.6896 27.1382 78.9222 26.1046 78.3966 24.9468C77.8709 23.789 77.5991 22.5334 77.5991 21.2633C77.5991 19.9933 77.8709 18.7377 78.3966 17.5799C78.9222 16.4221 79.6896 15.3885 80.6478 14.5477C82.3733 13.1254 84.5561 12.3669 86.7979 12.4107C88.8162 12.3715 90.7866 13.0239 92.3775 14.2582C93.3249 15.0091 94.1112 15.9409 94.69 16.9987C94.7644 17.1465 94.9628 17.5283 94.5722 17.75L92.7123 18.7661C92.3217 18.9878 92.2225 18.7661 92.1233 18.6245C91.7588 17.8952 91.2532 17.2444 90.6354 16.7092C89.6024 15.7739 88.2514 15.2613 86.8537 15.2744C85.3597 15.2742 83.9173 15.8175 82.7991 16.8016C82.1947 17.3773 81.7172 18.0714 81.3971 18.84C81.0769 19.6086 80.921 20.4348 80.9392 21.2664C80.9203 22.0972 81.076 22.9227 81.3962 23.6904C81.7165 24.4581 82.1942 25.151 82.7991 25.725C83.9158 26.7117 85.3591 27.2554 86.8537 27.2523C88.2507 27.2677 89.6018 26.7573 90.6354 25.8236C91.2518 25.2871 91.7571 24.6366 92.1233 23.9083C92.2225 23.7359 92.3217 23.545 92.7123 23.7605L94.5846 24.7767Z" fill="white"/>
<path d="M0.00307983 37.6903V36.3047C-0.0110852 36.0873 0.0237339 35.8694 0.105003 35.667C0.186272 35.4647 0.311945 35.2828 0.472878 35.1348C0.63381 34.9867 0.825951 34.8761 1.03532 34.8111C1.24468 34.7461 1.46601 34.7283 1.68318 34.759C2.09227 34.7388 2.495 34.8656 2.81771 35.1162C2.97391 35.2542 3.09641 35.4257 3.1759 35.6178C3.25539 35.8099 3.28979 36.0174 3.27648 36.2247V36.2862H2.53253V36.2247C2.54389 36.108 2.52541 35.9904 2.4788 35.8828C2.4322 35.7751 2.35898 35.6809 2.26594 35.6088C2.10037 35.4727 1.89193 35.3986 1.67698 35.3994C1.05702 35.3994 0.740835 35.7012 0.740835 36.2185V37.7027C0.740835 38.2261 1.05082 38.5279 1.67698 38.5279C1.89083 38.5285 2.09852 38.4568 2.26594 38.3246C2.35649 38.2505 2.42791 38.1559 2.47428 38.0488C2.52064 37.9417 2.54061 37.8251 2.53253 37.7088V37.6472H3.27648V37.7088C3.2912 37.9162 3.25745 38.1242 3.17787 38.3165C3.09828 38.5088 2.97502 38.6802 2.81771 38.8173C2.4976 39.0745 2.09461 39.2079 1.68318 39.193C1.4698 39.2228 1.25244 39.2058 1.04637 39.1432C0.840305 39.0807 0.650535 38.974 0.490401 38.8308C0.330266 38.6876 0.203654 38.5113 0.119464 38.3142C0.0352731 38.1172 -0.00445224 37.9042 0.00307983 37.6903Z" fill="white"/>
<path d="M5.01873 39.1436V35.4979H3.77881V34.8821H7.02741V35.4979H5.78748V39.1436H5.01873Z" fill="white"/>
<path d="M7.69043 39.1438V34.833H9.55031C9.88005 34.8647 10.1861 35.0172 10.4088 35.2609C10.6315 35.5045 10.7548 35.8218 10.7548 36.1509C10.7548 36.48 10.6315 36.7972 10.4088 37.0409C10.1861 37.2845 9.88005 37.4371 9.55031 37.4688H8.43438V39.1254L7.69043 39.1438ZM8.43438 36.8468H9.43252C9.60137 36.8307 9.75814 36.7528 9.87223 36.6281C9.98632 36.5034 10.0495 36.3409 10.0495 36.1724C10.0495 36.004 9.98632 35.8415 9.87223 35.7168C9.75814 35.5921 9.60137 35.5142 9.43252 35.4981H8.43438V36.8468Z" fill="white"/>
<path d="M10.8711 39.1437V38.8973L12.4024 34.8513H13.1464L14.6839 38.8973V39.1437H13.9585L13.5741 38.0844H11.9436L11.5593 39.1437H10.8711ZM12.1668 37.4686H13.3509L12.7682 35.8366L12.1668 37.4686Z" fill="white"/>
<path d="M14.9937 39.1438V38.8975L16.3452 36.9268L15.1052 35.0793V34.833H15.8616L16.8101 36.348L17.8083 34.8515H18.5212V35.1163L17.2813 36.9638L18.6018 38.8975V39.1438H17.8703L16.7915 37.5119L15.7066 39.1438H14.9937Z" fill="white"/>
<path d="M19.1787 36.3046C19.1708 36.0871 19.2105 35.8705 19.295 35.6698C19.3796 35.469 19.5071 35.2889 19.6686 35.1419C19.8302 34.9949 20.0219 34.8846 20.2306 34.8184C20.4394 34.7523 20.66 34.7319 20.8774 34.7588C21.0948 34.7319 21.3155 34.7523 21.5242 34.8184C21.7329 34.8846 21.9247 34.9949 22.0862 35.1419C22.2478 35.2889 22.3752 35.469 22.4598 35.6698C22.5444 35.8705 22.5841 36.0871 22.5761 36.3046V37.6902C22.5841 37.9077 22.5444 38.1243 22.4598 38.325C22.3752 38.5258 22.2478 38.7059 22.0862 38.8528C21.9247 38.9998 21.7329 39.1102 21.5242 39.1764C21.3155 39.2425 21.0948 39.2629 20.8774 39.236C20.66 39.2629 20.4394 39.2425 20.2306 39.1764C20.0219 39.1102 19.8302 38.9998 19.6686 38.8528C19.5071 38.7059 19.3796 38.5258 19.295 38.325C19.2105 38.1243 19.1708 37.9077 19.1787 37.6902V36.3046ZM21.8322 36.2676C21.8334 36.1479 21.8085 36.0293 21.7593 35.9199C21.7101 35.8106 21.6376 35.7131 21.547 35.6342C21.4563 35.5552 21.3495 35.4967 21.234 35.4625C21.1184 35.4284 20.9968 35.4194 20.8774 35.4363C20.7581 35.4194 20.6364 35.4284 20.5209 35.4625C20.4053 35.4967 20.2985 35.5552 20.2079 35.6342C20.1172 35.7131 20.0448 35.8106 19.9956 35.9199C19.9464 36.0293 19.9215 36.1479 19.9227 36.2676V37.7272C19.9206 37.8474 19.9448 37.9667 19.9936 38.0768C20.0424 38.1869 20.1147 38.2851 20.2055 38.3648C20.2963 38.4444 20.4034 38.5035 20.5194 38.538C20.6354 38.5725 20.7575 38.5816 20.8774 38.5647C20.9973 38.5816 21.1195 38.5725 21.2355 38.538C21.3515 38.5035 21.4586 38.4444 21.5494 38.3648C21.6401 38.2851 21.7124 38.1869 21.7613 38.0768C21.8101 37.9667 21.8343 37.8474 21.8322 37.7272V36.2676Z" fill="white"/>
<path d="M23.5615 39.1437V34.8328H25.3842C25.5456 34.8092 25.7103 34.822 25.866 34.8703C26.0217 34.9186 26.1644 35.0011 26.2836 35.1118C26.4027 35.2225 26.4952 35.3584 26.5542 35.5095C26.6132 35.6606 26.6371 35.8229 26.6241 35.9844C26.6392 36.1715 26.5977 36.3588 26.5049 36.5223C26.4121 36.6858 26.2723 36.818 26.1034 36.902C26.3194 36.9711 26.5053 37.1112 26.6304 37.2993C26.7555 37.4874 26.8123 37.7122 26.7915 37.9366C26.808 38.1006 26.7869 38.266 26.7298 38.4207C26.6726 38.5753 26.581 38.7151 26.4616 38.8295C26.3423 38.9439 26.1984 39.0299 26.0408 39.0811C25.8832 39.1324 25.7159 39.1474 25.5516 39.1252L23.5615 39.1437ZM24.3055 36.6803H25.2602C25.345 36.6957 25.4323 36.6903 25.5146 36.6648C25.5969 36.6393 25.6717 36.5943 25.7326 36.5338C25.7936 36.4732 25.8388 36.3989 25.8645 36.3172C25.8902 36.2354 25.8956 36.1487 25.8802 36.0645C25.8972 35.98 25.8929 35.8927 25.8678 35.8102C25.8426 35.7278 25.7974 35.6528 25.736 35.5919C25.6747 35.5309 25.5992 35.486 25.5162 35.461C25.4332 35.436 25.3453 35.4318 25.2602 35.4487H24.3055V36.6803ZM24.3055 38.4909H25.4214C25.5128 38.5136 25.6083 38.5154 25.7005 38.496C25.7927 38.4766 25.8792 38.4366 25.9535 38.379C26.0278 38.3214 26.0879 38.2478 26.1293 38.1637C26.1706 38.0795 26.1921 37.9871 26.1921 37.8935C26.1921 37.7999 26.1706 37.7075 26.1293 37.6234C26.0879 37.5393 26.0278 37.4656 25.9535 37.408C25.8792 37.3504 25.7927 37.3104 25.7005 37.291C25.6083 37.2717 25.5128 37.2734 25.4214 37.2962H24.3055V38.4909Z" fill="white"/>
<path d="M27.523 36.3046C27.515 36.0871 27.5547 35.8705 27.6393 35.6698C27.7239 35.469 27.8513 35.2889 28.0129 35.1419C28.1744 34.9949 28.3662 34.8846 28.5749 34.8184C28.7836 34.7523 29.0043 34.7319 29.2217 34.7588C29.4391 34.7319 29.6597 34.7523 29.8685 34.8184C30.0772 34.8846 30.2689 34.9949 30.4305 35.1419C30.592 35.2889 30.7195 35.469 30.8041 35.6698C30.8886 35.8705 30.9283 36.0871 30.9204 36.3046V37.6902C30.9283 37.9077 30.8886 38.1243 30.8041 38.325C30.7195 38.5258 30.592 38.7059 30.4305 38.8528C30.2689 38.9998 30.0772 39.1102 29.8685 39.1764C29.6597 39.2425 29.4391 39.2629 29.2217 39.236C29.0043 39.2629 28.7836 39.2425 28.5749 39.1764C28.3662 39.1102 28.1744 38.9998 28.0129 38.8528C27.8513 38.7059 27.7239 38.5258 27.6393 38.325C27.5547 38.1243 27.515 37.9077 27.523 37.6902V36.3046ZM30.1764 36.2676C30.1496 36.0347 30.0375 35.8198 29.8615 35.6637C29.6854 35.5076 29.4577 35.4213 29.2217 35.4213C28.9857 35.4213 28.7579 35.5076 28.5819 35.6637C28.4058 35.8198 28.2937 36.0347 28.2669 36.2676V37.7272C28.2937 37.9601 28.4058 38.175 28.5819 38.3311C28.7579 38.4872 28.9857 38.5734 29.2217 38.5734C29.4577 38.5734 29.6854 38.4872 29.8615 38.3311C30.0375 38.175 30.1496 37.9601 30.1764 37.7272V36.2676Z" fill="white"/>
<path d="M31.9067 39.1437V34.8328H32.6507V37.8258L34.5106 34.8513H35.1925V39.1621H34.4486V36.1692L32.5887 39.1437H31.9067ZM32.5639 33.6997H33.1405V33.7674C33.1405 33.9891 33.2831 34.1246 33.5558 34.1246C33.8286 34.1246 33.9774 34.0076 33.9774 33.7674V33.6997H34.5478V33.7736C34.5478 34.2971 34.151 34.5988 33.5558 34.5988C32.9607 34.5988 32.5639 34.2971 32.5639 33.7736V33.6997Z" fill="white"/>
<path d="M37.8208 39.1438V34.833H38.5586V37.826L40.4184 34.8515H41.0942V39.1623H40.3502V36.1694L38.4904 39.1438H37.8208Z" fill="white"/>
<path d="M43.6855 39.1437V34.8328H45.502C45.6634 34.8092 45.8281 34.822 45.9838 34.8703C46.1395 34.9186 46.2823 35.0011 46.4014 35.1118C46.5206 35.2225 46.6131 35.3584 46.672 35.5095C46.731 35.6606 46.7549 35.8229 46.742 35.9844C46.7567 36.1707 46.7158 36.3572 46.6242 36.5205C46.5327 36.6837 46.3946 36.8165 46.2274 36.902C46.4423 36.9722 46.6268 37.1128 46.7507 37.3008C46.8746 37.4888 46.9305 37.7129 46.9094 37.9366C46.9259 38.1006 46.9048 38.266 46.8476 38.4207C46.7905 38.5753 46.6988 38.7151 46.5795 38.8295C46.4601 38.9439 46.3163 39.0299 46.1586 39.0811C46.001 39.1324 45.8338 39.1474 45.6694 39.1252L43.6855 39.1437ZM44.4233 36.6803H45.3781C45.4626 36.6942 45.5493 36.6878 45.6309 36.6618C45.7125 36.6357 45.7866 36.5908 45.8472 36.5306C45.9078 36.4704 45.9531 36.3967 45.9793 36.3156C46.0056 36.2346 46.012 36.1485 45.998 36.0645C46.0134 35.9803 46.0081 35.8936 45.9824 35.8118C45.9567 35.7301 45.9114 35.6558 45.8505 35.5952C45.7895 35.5347 45.7147 35.4897 45.6324 35.4642C45.5501 35.4387 45.4629 35.4334 45.3781 35.4487H44.4233V36.6803ZM44.4233 38.4909H45.5454C45.9608 38.4909 46.1654 38.2938 46.1654 37.8751C46.1794 37.7911 46.173 37.705 46.1467 37.6239C46.1205 37.5429 46.0752 37.4692 46.0146 37.409C45.954 37.3488 45.8798 37.3038 45.7983 37.2778C45.7167 37.2517 45.63 37.2454 45.5454 37.2592H44.4233V38.4909Z" fill="white"/>
<path d="M47.771 39.1438V34.833H48.5087V37.826L50.3686 34.8515H51.0444V39.1623H50.3252V36.1694L48.4654 39.1438H47.771Z" fill="white"/>
<path d="M52.402 38.8604C52.2416 38.7251 52.1155 38.5543 52.0337 38.3618C51.9518 38.1693 51.9166 37.9604 51.9308 37.7519H52.6995C52.6995 38.2938 53.1087 38.5648 53.6605 38.5648C54.2122 38.5648 54.4478 38.3369 54.4478 37.912C54.4478 37.4871 54.1627 37.2962 53.6729 37.2962H53.0715V36.6803H53.6419C54.0635 36.6803 54.3176 36.4648 54.3176 36.0645C54.3183 35.9716 54.2991 35.8796 54.2611 35.7947C54.2232 35.7098 54.1674 35.6339 54.0976 35.5721C54.0278 35.5103 53.9455 35.4641 53.8562 35.4364C53.7669 35.4087 53.6727 35.4003 53.5799 35.4117C53.4711 35.4022 53.3615 35.4166 53.259 35.4538C53.1564 35.4911 53.0634 35.5503 52.9864 35.6273C52.9095 35.7043 52.8506 35.7972 52.8139 35.8994C52.7771 36.0015 52.7635 36.1105 52.7739 36.2185H52.0362C52.0221 36.0139 52.0531 35.8088 52.1269 35.6173C52.2008 35.4259 52.3158 35.2527 52.464 35.11C52.7761 34.8515 53.1739 34.7176 53.5799 34.7343C54.516 34.7343 55.0616 35.2455 55.0616 35.966C55.076 36.1711 55.0281 36.3758 54.9243 36.5536C54.8204 36.7314 54.6652 36.8742 54.4788 36.9636C54.686 37.0203 54.8679 37.1448 54.995 37.3169C55.1221 37.489 55.1871 37.6987 55.1794 37.912C55.1794 38.7188 54.6028 39.2361 53.6233 39.2361C53.1843 39.2581 52.7516 39.125 52.402 38.8604Z" fill="white"/>
<path d="M55.9053 36.3047C55.9492 35.8885 56.1468 35.5031 56.4599 35.223C56.773 34.9429 57.1795 34.7878 57.6009 34.7878C58.0223 34.7878 58.4287 34.9429 58.7418 35.223C59.0549 35.5031 59.2525 35.8885 59.2965 36.3047V37.6904C59.2525 38.1066 59.0549 38.492 58.7418 38.7721C58.4287 39.0522 58.0223 39.2073 57.6009 39.2073C57.1795 39.2073 56.773 39.0522 56.4599 38.7721C56.1468 38.492 55.9492 38.1066 55.9053 37.6904V36.3047ZM58.5587 36.2678C58.5264 36.0382 58.4117 35.828 58.2357 35.6759C58.0597 35.5238 57.8342 35.44 57.6009 35.44C57.3675 35.44 57.1421 35.5238 56.9661 35.6759C56.79 35.828 56.6753 36.0382 56.643 36.2678V37.7273C56.6753 37.9569 56.79 38.1671 56.9661 38.3192C57.1421 38.4713 57.3675 38.5551 57.6009 38.5551C57.8342 38.5551 58.0597 38.4713 58.2357 38.3192C58.4117 38.1671 58.5264 37.9569 58.5587 37.7273V36.2678Z" fill="white"/>
<path d="M60.2881 39.1437V34.8328H62.1046C62.266 34.8092 62.4306 34.822 62.5864 34.8703C62.7421 34.9186 62.8848 35.0011 63.004 35.1118C63.1231 35.2225 63.2156 35.3584 63.2746 35.5095C63.3335 35.6606 63.3574 35.8229 63.3445 35.9844C63.3601 36.1709 63.3195 36.3577 63.2279 36.5211C63.1362 36.6845 62.9977 36.8171 62.8299 36.902C63.0448 36.9722 63.2293 37.1128 63.3532 37.3008C63.4771 37.4888 63.5331 37.7129 63.5119 37.9366C63.5284 38.1006 63.5073 38.266 63.4502 38.4207C63.393 38.5753 63.3013 38.7151 63.182 38.8295C63.0627 38.9439 62.9188 39.0299 62.7612 39.0811C62.6036 39.1324 62.4363 39.1474 62.272 39.1252L60.2881 39.1437ZM61.0258 36.6803H61.9992C62.0837 36.6942 62.1704 36.6878 62.252 36.6618C62.3336 36.6357 62.4078 36.5908 62.4684 36.5306C62.529 36.4704 62.5743 36.3967 62.6005 36.3156C62.6267 36.2346 62.6331 36.1485 62.6192 36.0645C62.6346 35.9803 62.6292 35.8936 62.6035 35.8118C62.5778 35.7301 62.5325 35.6558 62.4716 35.5952C62.4106 35.5347 62.3358 35.4897 62.2536 35.4642C62.1713 35.4387 62.084 35.4334 61.9992 35.4487H61.0258V36.6803ZM61.0258 38.4909H62.148C62.5634 38.4909 62.7679 38.2938 62.7679 37.8751C62.7819 37.7911 62.7755 37.705 62.7493 37.6239C62.723 37.5429 62.6778 37.4692 62.6172 37.409C62.5566 37.3488 62.4824 37.3038 62.4008 37.2778C62.3192 37.2517 62.2325 37.2454 62.148 37.2592H61.0258V38.4909Z" fill="white"/>
<path d="M64.374 39.1438V34.833H65.0994V36.4896H66.2277C66.5575 36.5213 66.8635 36.6738 67.0862 36.9175C67.3089 37.1611 67.4322 37.4784 67.4322 37.8075C67.4322 38.1366 67.3089 38.4538 67.0862 38.6975C66.8635 38.9411 66.5575 39.0937 66.2277 39.1254L64.374 39.1438ZM65.0994 37.1547V38.5034H66.1037C66.2645 38.4768 66.4106 38.3945 66.5159 38.271C66.6213 38.1475 66.6791 37.9909 66.6791 37.829C66.6791 37.6672 66.6213 37.5105 66.5159 37.387C66.4106 37.2636 66.2645 37.1812 66.1037 37.1547H65.0994ZM67.9884 39.1438V34.833H68.7324V39.1438H67.9884Z" fill="white"/>
<path d="M69.8545 39.1437V34.8328H70.5922V37.8258L72.4521 34.8513H73.1589V39.1621H72.4211V36.1692L70.5612 39.1437H69.8545ZM70.4745 33.6997H71.0572V33.7674C71.0572 33.9891 71.1998 34.1246 71.4726 34.1246C71.7454 34.1246 71.888 34.0076 71.888 33.7674V33.6997H72.4645V33.7736C72.4645 34.2971 72.0677 34.5988 71.4726 34.5988C70.8774 34.5988 70.4745 34.2971 70.4745 33.7736V33.6997Z" fill="white"/>
<path d="M78.738 39.9998V39.1438H75.7188V34.833H76.4565V38.5034H78.1738V34.8515H78.9116V38.5034H79.4199V39.9998H78.738Z" fill="white"/>
<path d="M80.2134 39.1438V34.833H82.9846V35.4488H80.9573V36.6374H82.6994V37.2532H80.9573V38.4849H82.9908V39.1007L80.2134 39.1438Z" fill="white"/>
<path d="M83.8594 39.1438V34.833H84.5971V36.6805H86.3888V34.833H87.1266V39.1438H86.3888V37.2963H84.5971V39.1438H83.8594Z" fill="white"/>
<path d="M89.0607 39.1436V35.4979H87.8208V34.8821H91.0694V35.4979H89.8295V39.1436H89.0607Z" fill="white"/>
<path d="M91.7578 39.1438V34.833H93.6177C93.9474 34.8647 94.2535 35.0172 94.4762 35.2609C94.6989 35.5045 94.8222 35.8218 94.8222 36.1509C94.8222 36.48 94.6989 36.7972 94.4762 37.0409C94.2535 37.2845 93.9474 37.4371 93.6177 37.4688H92.4894V39.1254L91.7578 39.1438ZM92.5018 36.8468H93.4999C93.8409 36.8468 94.0889 36.6066 94.0889 36.1694C94.0965 36.0865 94.0871 36.0029 94.0614 35.9238C94.0356 35.8446 93.9939 35.7714 93.9389 35.7087C93.8838 35.6459 93.8165 35.5949 93.7411 35.5587C93.6656 35.5225 93.5836 35.5019 93.4999 35.4981H92.5018V36.8468Z" fill="white"/>
<path d="M124.82 7.28058H124.715C124.36 5.44074 123.435 3.75741 122.068 2.46696C120.701 1.17651 118.961 0.343732 117.093 0.0855686C115.226 -0.172594 113.323 0.156818 111.653 1.02755C109.984 1.89829 108.631 3.26662 107.784 4.94041C107.06 4.68025 106.297 4.54689 105.527 4.54628C104.271 4.54421 103.039 4.89128 101.971 5.54825C100.903 6.20522 100.042 7.14589 99.4836 8.2639C98.9257 9.38191 98.6938 10.6327 98.8141 11.8748C98.9344 13.1168 99.4022 14.3007 100.164 15.2926L97.604 21.2354L104.889 17.9037C105.094 17.9277 105.301 17.9401 105.509 17.9406H124.802C126.197 17.8936 127.518 17.3101 128.488 16.3134C129.458 15.3166 130 13.9846 130 12.5983C130 11.212 129.458 9.87994 128.488 8.8832C127.518 7.88645 126.197 7.30299 124.802 7.25595L124.82 7.28058Z" fill="url(#paint0_linear)"/>
<path d="M104.591 9.09721C104.591 8.48138 105.025 8.05029 105.831 8.05029C106.637 8.05029 107.071 8.48138 107.071 9.09721V9.95937C107.071 10.5752 106.637 11.0124 105.831 11.0124C105.025 11.0124 104.591 10.5752 104.591 9.95937V9.09721ZM106.451 9.128C106.451 8.81392 106.234 8.59223 105.831 8.59223C105.753 8.58062 105.675 8.58583 105.6 8.60751C105.524 8.62919 105.455 8.66681 105.396 8.71777C105.337 8.76873 105.29 8.83181 105.258 8.90264C105.226 8.97347 105.21 9.05037 105.211 9.128V9.93474C105.211 10.0981 105.276 10.2547 105.392 10.3702C105.509 10.4857 105.666 10.5506 105.831 10.5506C105.995 10.5506 106.153 10.4857 106.269 10.3702C106.385 10.2547 106.451 10.0981 106.451 9.93474V9.128Z" fill="white"/>
<path d="M107.784 10.9446V8.11182H108.404V9.25111H109.606V8.11182H110.226V10.9446H109.606V9.79304H108.404V10.9446H107.784Z" fill="white"/>
<path d="M110.796 10.9446V10.4027H110.858C111.199 10.4027 111.342 10.1749 111.342 9.70066V8.11182H113.456V10.9446H112.836V8.63527H111.875V9.69451C111.875 10.5197 111.472 10.9262 110.908 10.9262L110.796 10.9446Z" fill="white"/>
<path d="M114.169 10.1811C114.169 9.56524 114.566 9.26964 115.347 9.26964H115.967V9.04794C115.967 8.74618 115.787 8.59223 115.427 8.59223C115.068 8.59223 114.894 8.7585 114.894 8.99868H114.274C114.274 8.42595 114.659 8.05029 115.396 8.05029C116.134 8.05029 116.537 8.42595 116.537 9.00483V10.9447H116.19L115.961 10.6306C115.855 10.757 115.72 10.8573 115.569 10.9235C115.417 10.9898 115.252 11.0202 115.087 11.0124C114.97 11.0227 114.853 11.0088 114.742 10.9717C114.632 10.9346 114.53 10.8751 114.444 10.797C114.358 10.7188 114.289 10.6237 114.241 10.5177C114.194 10.4117 114.169 10.297 114.169 10.1811ZM115.973 10.1441V9.72536H115.353C114.969 9.72536 114.777 9.85468 114.777 10.1133C114.777 10.3473 114.938 10.4705 115.248 10.4705C115.385 10.47 115.521 10.4406 115.646 10.3844C115.771 10.3281 115.882 10.2462 115.973 10.1441Z" fill="white"/>
<path d="M117.43 10.9446V8.11175H118.05V10.0208L119.29 8.11175H119.91V10.9446H119.29V9.04166L118.05 10.9446H117.43ZM117.783 7.02173H118.298V7.08331C118.298 7.28038 118.422 7.39739 118.663 7.39739C118.905 7.39739 119.035 7.29885 119.035 7.08331V7.02173H119.55V7.08947C119.55 7.55134 119.197 7.83463 118.663 7.83463C118.13 7.83463 117.795 7.55134 117.795 7.08947L117.783 7.02173Z" fill="white"/>
<path d="M120.784 10.9446V8.11182H121.404V9.25111H122.607V8.11182H123.227V10.9446H122.607V9.79304H121.404V10.9446H120.784Z" fill="white"/>
<path d="M104.591 14.4488V13.562C104.587 13.4057 104.618 13.2505 104.681 13.1074C104.745 12.9642 104.839 12.8365 104.957 12.7332C105.075 12.6299 105.214 12.5536 105.365 12.5095C105.516 12.4654 105.675 12.4547 105.831 12.4781C105.983 12.4592 106.137 12.4734 106.283 12.5199C106.429 12.5663 106.563 12.6438 106.676 12.747C106.789 12.8502 106.878 12.9766 106.936 13.1174C106.995 13.2581 107.022 13.4099 107.015 13.562H106.395C106.397 13.4891 106.382 13.4167 106.353 13.3498C106.324 13.2829 106.28 13.2231 106.225 13.1745C106.17 13.1259 106.106 13.0897 106.035 13.0684C105.965 13.047 105.891 13.0411 105.818 13.0509C105.415 13.0509 105.198 13.2479 105.198 13.562V14.4734C105.198 14.7875 105.403 14.9846 105.818 14.9846C105.891 14.9944 105.965 14.9884 106.035 14.9671C106.106 14.9457 106.17 14.9095 106.225 14.8609C106.28 14.8124 106.324 14.7526 106.353 14.6857C106.382 14.6188 106.397 14.5464 106.395 14.4734V14.4242H107.015V14.4611C107.021 14.6092 106.995 14.7569 106.938 14.894C106.881 15.0312 106.796 15.1545 106.686 15.2555C106.445 15.4585 106.134 15.562 105.818 15.545C105.663 15.5666 105.504 15.5542 105.354 15.5085C105.203 15.4628 105.065 15.3851 104.948 15.2806C104.831 15.1762 104.738 15.0476 104.677 14.904C104.615 14.7603 104.586 14.6049 104.591 14.4488Z" fill="white"/>
<path d="M107.641 14.4613V13.5622C107.635 13.4139 107.663 13.2663 107.722 13.13C107.781 12.9937 107.87 12.8721 107.982 12.7739C108.241 12.5682 108.568 12.4631 108.899 12.4783C109.053 12.4565 109.21 12.4686 109.358 12.5137C109.507 12.5587 109.644 12.6357 109.759 12.7391C109.875 12.8425 109.966 12.9698 110.026 13.1121C110.086 13.2543 110.114 13.408 110.108 13.5622V14.2211H108.248V14.4613C108.248 14.7754 108.472 14.9848 108.868 14.9848C109.265 14.9848 109.395 14.8554 109.451 14.5968H110.071C110.057 14.7388 110.013 14.8764 109.944 15.0016C109.875 15.1267 109.782 15.2368 109.669 15.3252C109.556 15.4137 109.426 15.4787 109.288 15.5165C109.149 15.5543 109.005 15.564 108.862 15.5452C108.131 15.5328 107.641 15.1264 107.641 14.4613ZM108.261 13.7346H109.501V13.5622C109.501 13.2481 109.278 13.051 108.881 13.051C108.484 13.051 108.261 13.2481 108.261 13.5622V13.7346Z" fill="white"/>
<path d="M110.89 16.3643V12.5461H111.249L111.485 12.8664C111.592 12.7391 111.727 12.6379 111.88 12.5707C112.032 12.5034 112.198 12.4718 112.365 12.4784C112.5 12.473 112.635 12.4941 112.761 12.5406C112.888 12.5871 113.004 12.6581 113.103 12.7494C113.207 12.8543 113.287 12.98 113.338 13.118C113.389 13.2559 113.411 13.4032 113.4 13.5499V14.4614C113.415 14.604 113.397 14.7479 113.349 14.883C113.301 15.0181 113.224 15.141 113.123 15.2432C113.021 15.3454 112.899 15.4243 112.764 15.4744C112.629 15.5244 112.484 15.5444 112.34 15.5329C112.185 15.5424 112.029 15.5156 111.886 15.4546C111.743 15.3937 111.616 15.3003 111.516 15.1819V16.3643H110.89ZM112.75 14.4183V13.593C112.754 13.5196 112.743 13.4461 112.717 13.3773C112.691 13.3085 112.65 13.2459 112.598 13.1936C112.546 13.1413 112.484 13.1005 112.415 13.0738C112.346 13.0471 112.272 13.0352 112.198 13.0388C112.059 13.0479 111.924 13.0861 111.801 13.1508C111.678 13.2156 111.57 13.3054 111.485 13.4145V14.5968C111.57 14.7059 111.678 14.7957 111.801 14.8605C111.924 14.9252 112.059 14.9634 112.198 14.9725C112.274 14.9797 112.351 14.9705 112.423 14.9455C112.495 14.9205 112.561 14.8804 112.617 14.8278C112.672 14.7752 112.715 14.7114 112.744 14.6407C112.772 14.5701 112.784 14.4942 112.781 14.4183H112.75Z" fill="white"/>
<path d="M114.231 15.4649V12.5459H115.57C116.227 12.5459 116.556 12.7984 116.556 13.3157C116.559 13.4377 116.53 13.5583 116.472 13.6661C116.415 13.7739 116.33 13.8653 116.227 13.9315C116.366 13.976 116.486 14.0647 116.569 14.1838C116.652 14.3029 116.693 14.4458 116.686 14.5905C116.686 15.2063 116.308 15.4342 115.626 15.4342L114.231 15.4649ZM114.851 13.7652H115.545C115.593 13.7711 115.641 13.7662 115.686 13.751C115.731 13.7359 115.772 13.7108 115.806 13.6776C115.84 13.6444 115.866 13.6041 115.882 13.5595C115.898 13.515 115.904 13.4674 115.899 13.4204C115.899 13.1925 115.781 13.0817 115.545 13.0817H114.851V13.7652ZM114.851 14.9292H115.663C115.711 14.9362 115.761 14.9321 115.807 14.917C115.854 14.902 115.896 14.8765 115.931 14.8424C115.966 14.8084 115.992 14.7669 116.008 14.721C116.024 14.6752 116.029 14.6263 116.023 14.5781C116.029 14.5302 116.024 14.4815 116.008 14.4358C115.992 14.3901 115.966 14.3488 115.931 14.3152C115.896 14.2817 115.853 14.2567 115.807 14.2425C115.76 14.2283 115.711 14.2251 115.663 14.2333H114.851V14.9292Z" fill="white"/>
<path d="M117.436 15.4649V12.5459H118.056V14.5104L119.358 12.5459H119.978V15.4649H119.358V13.5004L118.056 15.4649H117.436Z" fill="white"/>
<path d="M120.76 14.4485V13.5617C120.758 13.4058 120.789 13.2511 120.853 13.1084C120.916 12.9658 121.01 12.8385 121.128 12.7355C121.246 12.6324 121.385 12.556 121.536 12.5115C121.686 12.467 121.845 12.4556 122 12.4779C122.153 12.4579 122.308 12.4714 122.455 12.5174C122.601 12.5634 122.736 12.6408 122.85 12.7441C122.963 12.8474 123.052 12.9741 123.111 13.1154C123.17 13.2567 123.197 13.409 123.19 13.5617H122.57C122.572 13.4888 122.558 13.4164 122.528 13.3495C122.499 13.2826 122.455 13.2228 122.401 13.1742C122.346 13.1257 122.281 13.0895 122.211 13.0681C122.141 13.0468 122.067 13.0408 121.994 13.0506C121.591 13.0506 121.374 13.2477 121.374 13.5617V14.4732C121.374 14.7872 121.578 14.9843 121.994 14.9843C122.067 14.9941 122.141 14.9881 122.211 14.9668C122.281 14.9454 122.346 14.9092 122.401 14.8607C122.455 14.8121 122.499 14.7523 122.528 14.6854C122.558 14.6185 122.572 14.5461 122.57 14.4732V14.4239H123.19V14.4609C123.197 14.6096 123.17 14.7579 123.113 14.8953C123.055 15.0326 122.967 15.1556 122.856 15.2553C122.616 15.4567 122.308 15.5602 121.994 15.5447C121.838 15.5662 121.679 15.5537 121.528 15.5081C121.378 15.4625 121.239 15.3848 121.121 15.2805C121.004 15.1762 120.911 15.0477 120.848 14.9041C120.786 14.7604 120.756 14.6049 120.76 14.4485Z" fill="white"/>
<defs>
<linearGradient id="paint0_linear" x1="97.604" y1="10.6369" x2="130.195" y2="10.6369" gradientUnits="userSpaceOnUse">
<stop stop-color="#01D101"/>
<stop offset="1" stop-color="#00C100"/>
</linearGradient>
</defs>
</svg>
