<svg width="153" height="48" viewBox="0 0 153 48" fill="none" xmlns="http://www.w3.org/2000/svg">
<path d="M3.73921 18.8167V35.2891C3.73088 35.3941 3.68593 35.4926 3.6124 35.5671C3.53887 35.6416 3.44156 35.6871 3.33791 35.6955H0.419317C0.313076 35.6905 0.212273 35.6465 0.135736 35.5717C0.0592002 35.4969 0.0121654 35.3964 0.00341797 35.2891L0.00341797 15.7351C0.0102712 15.6295 0.0547518 15.5302 0.128578 15.4554C0.202404 15.3806 0.300544 15.3356 0.404724 15.3286H19.0764C19.1819 15.3338 19.2818 15.3781 19.3571 15.453C19.4325 15.528 19.478 15.6284 19.485 15.7351V35.2891C19.4765 35.3952 19.4305 35.4947 19.3554 35.5694C19.2804 35.644 19.1814 35.6888 19.0764 35.6955H16.1578C16.0536 35.6886 15.9555 35.6435 15.8817 35.5688C15.8078 35.494 15.7634 35.3946 15.7565 35.2891V18.8167H3.73921Z" fill="#34495E"/>
<path d="M41.0974 33.0721C40.0805 34.0677 38.8798 34.8504 37.5639 35.3754C36.248 35.9004 34.8428 36.1574 33.4288 36.1316C32.0146 36.1582 30.6092 35.9016 29.2932 35.3765C27.9772 34.8515 26.7765 34.0684 25.7602 33.0721C24.7756 32.081 23.9942 30.9026 23.461 29.6045C22.9278 28.3064 22.6533 26.9144 22.6533 25.5084C22.6533 24.1025 22.9278 22.7104 23.461 21.4124C23.9942 20.1143 24.7756 18.9358 25.7602 17.9447C26.7771 16.9498 27.978 16.168 29.294 15.6443C30.61 15.1205 32.0151 14.8651 33.4288 14.8926C34.8423 14.8659 36.2472 15.1217 37.5631 15.6454C38.8789 16.1691 40.0799 16.9505 41.0974 17.9447C42.0802 18.9368 42.86 20.1156 43.3921 21.4135C43.9242 22.7115 44.1981 24.103 44.1981 25.5084C44.1981 26.9138 43.9242 28.3054 43.3921 29.6033C42.86 30.9013 42.0802 32.0801 41.0974 33.0721ZM38.456 20.5091C37.8036 19.8265 37.0224 19.2838 36.1587 18.9132C35.2951 18.5426 34.3667 18.3516 33.4288 18.3516C32.4908 18.3516 31.5624 18.5426 30.6988 18.9132C29.8351 19.2838 29.0539 19.8265 28.4015 20.5091C27.1977 21.9021 26.5341 23.6904 26.5341 25.5417C26.5341 27.3929 27.1977 29.1812 28.4015 30.5743C29.0549 31.255 29.8365 31.796 30.7 32.1655C31.5635 32.535 32.4914 32.7253 33.4288 32.7253C34.3661 32.7253 35.294 32.535 36.1575 32.1655C37.021 31.796 37.8026 31.255 38.456 30.5743C39.6599 29.1812 40.3234 27.3929 40.3234 25.5417C40.3234 23.6904 39.6599 21.9021 38.456 20.5091Z" fill="#34495E"/>
<path d="M53.8954 18.8167L51.4803 32.5326C51.3738 33.4572 50.9595 34.3173 50.3056 34.9714C49.6485 35.4826 48.8351 35.7442 48.0072 35.7104H45.4169C45.3133 35.7019 45.216 35.6564 45.1424 35.5819C45.0689 35.5074 45.024 35.4089 45.0156 35.3039V32.6065C45.024 32.5016 45.0689 32.403 45.1424 32.3285C45.216 32.2541 45.3133 32.2085 45.4169 32.2001H46.3655C46.7172 32.2305 47.0673 32.1246 47.3449 31.9038C47.6225 31.683 47.8071 31.3636 47.8613 31.0103L50.7069 15.8829C50.7199 15.7247 50.7938 15.578 50.9125 15.4744C51.0312 15.3708 51.1853 15.3184 51.3417 15.3287H64.2637C64.3685 15.334 64.4675 15.3786 64.5416 15.4536C64.6158 15.5287 64.6598 15.629 64.6651 15.7351V35.2891C64.6582 35.3946 64.6137 35.494 64.5399 35.5688C64.4661 35.6436 64.3679 35.6886 64.2637 35.6956H61.3452C61.241 35.6886 61.1428 35.6436 61.069 35.5688C60.9952 35.494 60.9507 35.3946 60.9438 35.2891V18.8167H53.8954Z" fill="#34495E"/>
<path d="M84.5623 15.7056C84.6507 15.5833 84.7676 15.4849 84.9025 15.4192C85.0373 15.3535 85.1861 15.3224 85.3357 15.3287H87.78C87.8842 15.3356 87.9823 15.3807 88.0561 15.4554C88.13 15.5302 88.1745 15.6296 88.1813 15.7351V35.2892C88.173 35.3941 88.128 35.4927 88.0545 35.5672C87.981 35.6416 87.8837 35.6872 87.78 35.6956H84.8614C84.7572 35.6887 84.6591 35.6436 84.5853 35.5688C84.5114 35.4941 84.467 35.3947 84.4601 35.2892V20.886L72.3188 35.3187C72.2294 35.4401 72.1124 35.5377 71.9777 35.6033C71.8431 35.669 71.6947 35.7006 71.5453 35.6956H69.101C68.9974 35.6872 68.9001 35.6416 68.8265 35.5672C68.753 35.4927 68.708 35.3941 68.6997 35.2892V15.7351C68.7066 15.6296 68.751 15.5302 68.8249 15.4554C68.8987 15.3807 68.9968 15.3356 69.101 15.3287H72.0196C72.1243 15.334 72.2234 15.3786 72.2975 15.4537C72.3716 15.5288 72.4156 15.6291 72.4209 15.7351V30.1383L84.5623 15.7056Z" fill="#34495E"/>
<path d="M111.319 29.7317C111.778 29.9904 111.545 30.4707 111.457 30.6333C110.77 31.9027 109.84 33.0206 108.721 33.9219C106.849 35.4031 104.53 36.186 102.154 36.1389C99.5161 36.1908 96.9473 35.2807 94.9162 33.5746C93.7884 32.5656 92.8852 31.3253 92.2666 29.9359C91.648 28.5465 91.3281 27.0398 91.3281 25.5157C91.3281 23.9916 91.648 22.4849 92.2666 21.0955C92.8852 19.7062 93.7884 18.4659 94.9162 17.4569C96.947 15.7501 99.516 14.84 102.154 14.8925C104.53 14.8454 106.849 15.6283 108.721 17.1095C109.836 18.0106 110.762 19.1288 111.443 20.3981C111.53 20.5755 111.764 21.0337 111.304 21.2997L109.115 22.5191C108.655 22.7851 108.539 22.5191 108.422 22.3491C107.993 21.474 107.398 20.693 106.671 20.0508C105.455 18.9283 103.865 18.3132 102.22 18.3289C100.462 18.3287 98.7642 18.9806 97.4481 20.1616C96.7367 20.8524 96.1748 21.6854 95.798 22.6077C95.4212 23.53 95.2377 24.5215 95.2592 25.5194C95.237 26.5163 95.4201 27.507 95.797 28.4282C96.1739 29.3494 96.7362 30.181 97.4481 30.8698C98.7624 32.0538 100.461 32.7062 102.22 32.7025C103.864 32.721 105.454 32.1085 106.671 30.988C107.396 30.3442 107.991 29.5636 108.422 28.6897C108.539 28.4828 108.655 28.2537 109.115 28.5124L111.319 29.7317Z" fill="#34495E"/>
<path d="M0.00362473 45.2288V43.566C-0.0130464 43.3051 0.0279329 43.0437 0.12358 42.8008C0.219227 42.5579 0.367136 42.3397 0.556541 42.162C0.745945 41.9844 0.972081 41.8517 1.21849 41.7737C1.4649 41.6957 1.72538 41.6743 1.98097 41.7111C2.46244 41.6869 2.93643 41.839 3.31623 42.1397C3.50006 42.3054 3.64423 42.5112 3.73779 42.7417C3.83134 42.9722 3.87183 43.2212 3.85617 43.4699V43.5438H2.98059V43.4699C2.99396 43.33 2.97221 43.1888 2.91736 43.0597C2.86251 42.9305 2.77634 42.8174 2.66684 42.7309C2.47198 42.5675 2.22666 42.4786 1.97367 42.4797C1.24403 42.4797 0.871906 42.8418 0.871906 43.4625V45.2435C0.871906 45.8717 1.23673 46.2338 1.97367 46.2338C2.22536 46.2345 2.4698 46.1485 2.66684 45.9899C2.77341 45.9009 2.85747 45.7874 2.91203 45.6589C2.9666 45.5304 2.9901 45.3905 2.98059 45.2509V45.177H3.85617V45.2509C3.87349 45.4998 3.83377 45.7494 3.7401 45.9801C3.64644 46.2109 3.50137 46.4166 3.31623 46.5811C2.93948 46.8898 2.4652 47.0499 1.98097 47.0319C1.72984 47.0677 1.47402 47.0473 1.2315 46.9722C0.988974 46.8972 0.76563 46.7692 0.577164 46.5973C0.388698 46.4255 0.239685 46.2139 0.140599 45.9774C0.0415138 45.741 -0.00523995 45.4855 0.00362473 45.2288Z" fill="#4D4D4D"/>
<path d="M5.90656 46.9727V42.5978H4.44727V41.8588H8.27061V42.5978H6.81132V46.9727H5.90656Z" fill="#4D4D4D"/>
<path d="M9.05127 46.9727V41.7997H11.2402C11.6283 41.8377 11.9885 42.0208 12.2506 42.3131C12.5126 42.6055 12.6578 42.9863 12.6578 43.3811C12.6578 43.776 12.5126 44.1568 12.2506 44.4492C11.9885 44.7415 11.6283 44.9246 11.2402 44.9626H9.92685V46.9505L9.05127 46.9727ZM9.92685 44.2162H11.1016C11.3003 44.197 11.4848 44.1034 11.6191 43.9538C11.7534 43.8041 11.8277 43.6092 11.8277 43.407C11.8277 43.2048 11.7534 43.0099 11.6191 42.8603C11.4848 42.7106 11.3003 42.6171 11.1016 42.5978H9.92685V44.2162Z" fill="#4D4D4D"/>
<path d="M12.7944 46.9728V46.6771L14.5967 41.8219H15.4722L17.2818 46.6771V46.9728H16.4281L15.9757 45.7017H14.0567L13.6043 46.9728H12.7944ZM14.3194 44.9627H15.713L15.0272 43.0043L14.3194 44.9627Z" fill="#4D4D4D"/>
<path d="M17.6465 46.9727V46.6771L19.2371 44.3123L17.7778 42.0953V41.7997H18.668L19.7843 43.6176L20.9591 41.8219H21.7982V42.1396L20.3389 44.3566L21.893 46.6771V46.9727H21.032L19.7625 45.0143L18.4856 46.9727H17.6465Z" fill="#4D4D4D"/>
<path d="M22.572 43.5659C22.5626 43.3049 22.6093 43.045 22.7089 42.8041C22.8084 42.5632 22.9584 42.3471 23.1486 42.1707C23.3387 41.9943 23.5644 41.8618 23.81 41.7825C24.0556 41.7031 24.3154 41.6787 24.5712 41.711C24.8271 41.6787 25.0868 41.7031 25.3324 41.7825C25.5781 41.8618 25.8037 41.9943 25.9939 42.1707C26.184 42.3471 26.334 42.5632 26.4336 42.8041C26.5331 43.045 26.5798 43.3049 26.5704 43.5659V45.2286C26.5798 45.4896 26.5331 45.7495 26.4336 45.9904C26.334 46.2313 26.184 46.4474 25.9939 46.6238C25.8037 46.8002 25.5781 46.9327 25.3324 47.012C25.0868 47.0914 24.8271 47.1158 24.5712 47.0835C24.3154 47.1158 24.0556 47.0914 23.81 47.012C23.5644 46.9327 23.3387 46.8002 23.1486 46.6238C22.9584 46.4474 22.8084 46.2313 22.7089 45.9904C22.6093 45.7495 22.5626 45.4896 22.572 45.2286V43.5659ZM25.6949 43.5215C25.6963 43.3778 25.667 43.2355 25.6091 43.1043C25.5512 42.9731 25.4659 42.8561 25.3592 42.7614C25.2525 42.6666 25.1269 42.5964 24.9909 42.5554C24.8548 42.5144 24.7117 42.5036 24.5712 42.5239C24.4307 42.5036 24.2876 42.5144 24.1516 42.5554C24.0156 42.5964 23.8899 42.6666 23.7832 42.7614C23.6765 42.8561 23.5913 42.9731 23.5333 43.1043C23.4754 43.2355 23.4461 43.3778 23.4476 43.5215V45.273C23.4451 45.4173 23.4736 45.5605 23.531 45.6926C23.5885 45.8247 23.6736 45.9426 23.7804 46.0381C23.8872 46.1337 24.0133 46.2046 24.1498 46.246C24.2863 46.2874 24.4301 46.2984 24.5712 46.278C24.7123 46.2984 24.8561 46.2874 24.9926 46.246C25.1292 46.2046 25.2552 46.1337 25.362 46.0381C25.4689 45.9426 25.5539 45.8247 25.6114 45.6926C25.6689 45.5605 25.6973 45.4173 25.6949 45.273V43.5215Z" fill="#4D4D4D"/>
<path d="M27.73 46.9728V41.7997H29.8751C30.0651 41.7714 30.2589 41.7867 30.4421 41.8447C30.6254 41.9026 30.7934 42.0017 30.9336 42.1345C31.0739 42.2673 31.1827 42.4304 31.2521 42.6117C31.3215 42.793 31.3497 42.9878 31.3344 43.1817C31.3522 43.4062 31.3033 43.6309 31.1941 43.8271C31.0849 44.0233 30.9203 44.182 30.7215 44.2828C30.9758 44.3657 31.1945 44.5338 31.3418 44.7595C31.489 44.9852 31.5559 45.255 31.5314 45.5243C31.5509 45.721 31.526 45.9196 31.4588 46.1052C31.3915 46.2908 31.2836 46.4585 31.1432 46.5958C31.0027 46.733 30.8334 46.8363 30.6479 46.8977C30.4624 46.9592 30.2655 46.9773 30.0721 46.9506L27.73 46.9728ZM28.6056 44.0168H29.7292C29.829 44.0351 29.9317 44.0287 30.0286 43.9981C30.1254 43.9675 30.2135 43.9135 30.2852 43.8409C30.3569 43.7682 30.4102 43.679 30.4405 43.581C30.4707 43.4829 30.477 43.3788 30.4589 43.2778C30.4789 43.1764 30.4738 43.0716 30.4442 42.9726C30.4146 42.8737 30.3614 42.7837 30.2892 42.7106C30.217 42.6375 30.1282 42.5835 30.0305 42.5536C29.9328 42.5236 29.8293 42.5185 29.7292 42.5388H28.6056V44.0168ZM28.6056 46.1894H29.9189C30.0265 46.2167 30.1388 46.2188 30.2474 46.1956C30.3559 46.1723 30.4577 46.1243 30.5452 46.0552C30.6326 45.9861 30.7034 45.8977 30.752 45.7968C30.8007 45.6958 30.8259 45.5849 30.8259 45.4726C30.8259 45.3603 30.8007 45.2494 30.752 45.1484C30.7034 45.0475 30.6326 44.9591 30.5452 44.89C30.4577 44.8209 30.3559 44.7729 30.2474 44.7496C30.1388 44.7263 30.0265 44.7285 29.9189 44.7558H28.6056V46.1894Z" fill="#4D4D4D"/>
<path d="M32.3928 43.5659C32.3834 43.3049 32.4301 43.045 32.5297 42.8041C32.6292 42.5632 32.7792 42.3471 32.9694 42.1707C33.1595 41.9943 33.3852 41.8618 33.6308 41.7825C33.8764 41.7031 34.1362 41.6787 34.392 41.711C34.6479 41.6787 34.9076 41.7031 35.1532 41.7825C35.3989 41.8618 35.6246 41.9943 35.8147 42.1707C36.0048 42.3471 36.1548 42.5632 36.2544 42.8041C36.3539 43.045 36.4006 43.3049 36.3912 43.5659V45.2286C36.4006 45.4896 36.3539 45.7495 36.2544 45.9904C36.1548 46.2313 36.0048 46.4474 35.8147 46.6238C35.6246 46.8002 35.3989 46.9327 35.1532 47.012C34.9076 47.0914 34.6479 47.1158 34.392 47.0835C34.1362 47.1158 33.8764 47.0914 33.6308 47.012C33.3852 46.9327 33.1595 46.8002 32.9694 46.6238C32.7792 46.4474 32.6292 46.2313 32.5297 45.9904C32.4301 45.7495 32.3834 45.4896 32.3928 45.2286V43.5659ZM35.5157 43.5215C35.4842 43.242 35.3522 42.9841 35.145 42.7968C34.9378 42.6095 34.6698 42.506 34.392 42.506C34.1143 42.506 33.8462 42.6095 33.639 42.7968C33.4318 42.9841 33.2999 43.242 33.2684 43.5215V45.273C33.2999 45.5525 33.4318 45.8104 33.639 45.9977C33.8462 46.185 34.1143 46.2885 34.392 46.2885C34.6698 46.2885 34.9378 46.185 35.145 45.9977C35.3522 45.8104 35.4842 45.5525 35.5157 45.273V43.5215Z" fill="#4D4D4D"/>
<path d="M37.5518 46.9727V41.7997H38.4273V45.3913L40.6163 41.8219H41.4189V46.9949H40.5433V43.4033L38.3544 46.9727H37.5518ZM38.3252 40.4399H39.0038V40.5212C39.0038 40.7873 39.1716 40.9499 39.4926 40.9499C39.8137 40.9499 39.9888 40.8094 39.9888 40.5212V40.4399H40.6601V40.5286C40.6601 41.1568 40.1931 41.5189 39.4926 41.5189C38.7922 41.5189 38.3252 41.1568 38.3252 40.5286V40.4399Z" fill="#4D4D4D"/>
<path d="M44.5122 46.9727V41.7997H45.3805V45.3912L47.5694 41.8219H48.3647V46.9949H47.4892V43.4033L45.3002 46.9727H44.5122Z" fill="#4D4D4D"/>
<path d="M51.4146 46.9728V41.7997H53.5524C53.7424 41.7714 53.9362 41.7867 54.1194 41.8447C54.3027 41.9026 54.4707 42.0017 54.6109 42.1345C54.7512 42.2673 54.86 42.4304 54.9294 42.6117C54.9988 42.793 55.0269 42.9878 55.0117 43.1817C55.0291 43.4052 54.9809 43.629 54.8732 43.8249C54.7654 44.0208 54.6029 44.1801 54.4061 44.2828C54.659 44.367 54.8761 44.5357 55.022 44.7613C55.1678 44.9869 55.2336 45.2559 55.2087 45.5243C55.2282 45.721 55.2033 45.9196 55.1361 46.1052C55.0688 46.2908 54.9609 46.4585 54.8205 46.5958C54.68 46.733 54.5107 46.8363 54.3252 46.8977C54.1397 46.9592 53.9428 46.9773 53.7494 46.9506L51.4146 46.9728ZM52.2828 44.0168H53.4065C53.506 44.0334 53.608 44.0258 53.704 43.9945C53.8001 43.9632 53.8874 43.9093 53.9587 43.837C54.03 43.7648 54.0833 43.6764 54.1142 43.5791C54.145 43.4819 54.1526 43.3786 54.1361 43.2778C54.1543 43.1767 54.148 43.0726 54.1177 42.9746C54.0875 42.8765 54.0342 42.7873 53.9625 42.7146C53.8907 42.642 53.8027 42.588 53.7059 42.5574C53.609 42.5268 53.5063 42.5204 53.4065 42.5388H52.2828V44.0168ZM52.2828 46.1894H53.6035C54.0924 46.1894 54.3332 45.9529 54.3332 45.4504C54.3496 45.3496 54.342 45.2463 54.3112 45.1491C54.2803 45.0518 54.227 44.9634 54.1557 44.8912C54.0844 44.8189 53.9971 44.7649 53.901 44.7337C53.805 44.7024 53.703 44.6948 53.6035 44.7114H52.2828V46.1894Z" fill="#4D4D4D"/>
<path d="M56.2227 46.9727V41.7997H57.0909V45.3912L59.2799 41.8219H60.0752V46.9949H59.2288V43.4033L57.0399 46.9727H56.2227Z" fill="#4D4D4D"/>
<path d="M61.6734 46.6327C61.4847 46.4703 61.3362 46.2654 61.2399 46.0344C61.1436 45.8034 61.1021 45.5527 61.1188 45.3025H62.0236C62.0236 45.9528 62.5052 46.278 63.1545 46.278C63.8039 46.278 64.0812 46.0045 64.0812 45.4946C64.0812 44.9847 63.7456 44.7556 63.1691 44.7556H62.4614V44.0166H63.1327C63.6288 44.0166 63.928 43.758 63.928 43.2776C63.9288 43.1661 63.9061 43.0558 63.8615 42.9539C63.8168 42.852 63.7512 42.7609 63.669 42.6868C63.5868 42.6126 63.4899 42.5571 63.3849 42.5239C63.2798 42.4907 63.1689 42.4806 63.0597 42.4943C62.9317 42.4828 62.8027 42.5001 62.682 42.5448C62.5613 42.5895 62.4518 42.6606 62.3612 42.753C62.2707 42.8454 62.2014 42.9568 62.1581 43.0794C62.1149 43.202 62.0989 43.3328 62.1112 43.4624H61.2429C61.2263 43.2169 61.2627 42.9707 61.3497 42.741C61.4366 42.5113 61.572 42.3035 61.7463 42.1322C62.1137 41.822 62.5818 41.6613 63.0597 41.6814C64.1615 41.6814 64.8035 42.2947 64.8035 43.1594C64.8205 43.4055 64.7642 43.6511 64.6419 43.8645C64.5197 44.0779 64.3371 44.2493 64.1177 44.3566C64.3615 44.4246 64.5756 44.574 64.7252 44.7805C64.8748 44.987 64.9513 45.2386 64.9422 45.4946C64.9422 46.4627 64.2636 47.0835 63.1108 47.0835C62.5941 47.11 62.0848 46.9503 61.6734 46.6327Z" fill="#4D4D4D"/>
<path d="M65.7959 43.5659C65.8476 43.0663 66.0802 42.6039 66.4487 42.2678C66.8172 41.9316 67.2956 41.7456 67.7915 41.7456C68.2874 41.7456 68.7658 41.9316 69.1343 42.2678C69.5028 42.6039 69.7354 43.0663 69.7871 43.5659V45.2286C69.7354 45.7282 69.5028 46.1906 69.1343 46.5268C68.7658 46.8629 68.2874 47.0489 67.7915 47.0489C67.2956 47.0489 66.8172 46.8629 66.4487 46.5268C66.0802 46.1906 65.8476 45.7282 65.7959 45.2286V43.5659ZM68.9188 43.5216C68.8808 43.2461 68.7458 42.9938 68.5386 42.8113C68.3314 42.6287 68.0661 42.5282 67.7915 42.5282C67.5169 42.5282 67.2515 42.6287 67.0444 42.8113C66.8372 42.9938 66.7022 43.2461 66.6642 43.5216V45.273C66.7022 45.5484 66.8372 45.8007 67.0444 45.9832C67.2515 46.1658 67.5169 46.2663 67.7915 46.2663C68.0661 46.2663 68.3314 46.1658 68.5386 45.9832C68.7458 45.8007 68.8808 45.5484 68.9188 45.273V43.5216Z" fill="#4D4D4D"/>
<path d="M70.9546 46.9728V41.7997H73.0925C73.2824 41.7714 73.4762 41.7867 73.6595 41.8447C73.8427 41.9026 74.0107 42.0017 74.151 42.1345C74.2912 42.2673 74.4001 42.4304 74.4695 42.6117C74.5389 42.793 74.567 42.9878 74.5518 43.1817C74.5701 43.4054 74.5224 43.6295 74.4145 43.8256C74.3067 44.0217 74.1436 44.1809 73.9462 44.2828C74.199 44.367 74.4162 44.5357 74.562 44.7613C74.7078 44.9869 74.7737 45.2559 74.7488 45.5243C74.7682 45.721 74.7434 45.9196 74.6761 46.1052C74.6089 46.2908 74.501 46.4585 74.3605 46.5958C74.2201 46.733 74.0507 46.8363 73.8652 46.8977C73.6797 46.9592 73.4829 46.9773 73.2895 46.9506L70.9546 46.9728ZM71.8229 44.0168H72.9684C73.0679 44.0334 73.1699 44.0258 73.266 43.9945C73.362 43.9632 73.4493 43.9093 73.5206 43.837C73.5919 43.7648 73.6452 43.6764 73.6761 43.5791C73.707 43.4819 73.7145 43.3786 73.6981 43.2778C73.7162 43.1767 73.7099 43.0726 73.6797 42.9746C73.6494 42.8765 73.5961 42.7873 73.5244 42.7146C73.4527 42.642 73.3646 42.588 73.2678 42.5574C73.171 42.5268 73.0682 42.5204 72.9684 42.5388H71.8229V44.0168ZM71.8229 46.1894H73.1435C73.6324 46.1894 73.8732 45.9529 73.8732 45.4504C73.8896 45.3496 73.8821 45.2463 73.8512 45.1491C73.8204 45.0518 73.767 44.9634 73.6957 44.8912C73.6244 44.8189 73.5371 44.7649 73.4411 44.7337C73.3451 44.7024 73.2431 44.6948 73.1435 44.7114H71.8229V46.1894Z" fill="#4D4D4D"/>
<path d="M75.7627 46.9727V41.7997H76.6164V43.7876H77.9444C78.3324 43.8256 78.6926 44.0087 78.9547 44.3011C79.2168 44.5934 79.362 44.9742 79.362 45.3691C79.362 45.764 79.2168 46.1447 78.9547 46.4371C78.6926 46.7294 78.3324 46.9125 77.9444 46.9505L75.7627 46.9727ZM76.6164 44.5857V46.2041H77.7984C77.9876 46.1723 78.1595 46.0735 78.2836 45.9253C78.4076 45.7771 78.4756 45.5892 78.4756 45.3949C78.4756 45.2007 78.4076 45.0127 78.2836 44.8645C78.1595 44.7164 77.9876 44.6176 77.7984 44.5857H76.6164ZM80.0166 46.9727V41.7997H80.8922V46.9727H80.0166Z" fill="#4D4D4D"/>
<path d="M82.2134 46.9727V41.7997H83.0817V45.3913L85.2706 41.8219H86.1024V46.9949H85.2341V43.4033L83.0452 46.9727H82.2134ZM82.943 40.4399H83.6289V40.5212C83.6289 40.7873 83.7967 40.9499 84.1178 40.9499C84.4388 40.9499 84.6066 40.8094 84.6066 40.5212V40.4399H85.2852V40.5286C85.2852 41.1568 84.8182 41.5189 84.1178 41.5189C83.4173 41.5189 82.943 41.1568 82.943 40.5286V40.4399Z" fill="#4D4D4D"/>
<path d="M92.6686 47.9999V46.9727H89.1152V41.7997H89.9835V46.2041H92.0046V41.8219H92.8729V46.2041H93.4713V47.9999H92.6686Z" fill="#4D4D4D"/>
<path d="M94.4053 46.9727V41.7997H97.6668V42.5387H95.2809V43.965H97.3312V44.704H95.2809V46.182H97.6741V46.921L94.4053 46.9727Z" fill="#4D4D4D"/>
<path d="M98.6958 46.9727V41.7997H99.5641V44.0167H101.673V41.7997H102.541V46.9727H101.673V44.7557H99.5641V46.9727H98.6958Z" fill="#4D4D4D"/>
<path d="M104.818 46.9727V42.5978H103.358V41.8588H107.182V42.5978H105.722V46.9727H104.818Z" fill="#4D4D4D"/>
<path d="M107.992 46.9727V41.7997H110.181C110.569 41.8377 110.929 42.0208 111.191 42.3131C111.453 42.6055 111.598 42.9863 111.598 43.3811C111.598 43.776 111.453 44.1568 111.191 44.4492C110.929 44.7415 110.569 44.9246 110.181 44.9626H108.853V46.9505L107.992 46.9727ZM108.867 44.2162H110.042C110.443 44.2162 110.735 43.928 110.735 43.4033C110.744 43.3039 110.733 43.2036 110.703 43.1086C110.672 43.0136 110.623 42.9258 110.559 42.8505C110.494 42.7752 110.415 42.714 110.326 42.6706C110.237 42.6271 110.141 42.6024 110.042 42.5978H108.867V44.2162Z" fill="#4D4D4D"/>
<path d="M146.904 8.73674H146.78C146.362 6.52892 145.273 4.50892 143.664 2.96037C142.055 1.41181 140.008 0.41248 137.809 0.102683C135.611 -0.207114 133.372 0.188183 131.407 1.23307C129.442 2.27796 127.849 3.91996 126.853 5.92853C126.001 5.61633 125.103 5.4563 124.197 5.45556C122.719 5.45308 121.269 5.86957 120.012 6.65794C118.755 7.44631 117.741 8.57511 117.084 9.91673C116.428 11.2583 116.155 12.7593 116.296 14.2498C116.438 15.7403 116.988 17.161 117.886 18.3512L114.872 25.4826L123.445 21.4845C123.688 21.5134 123.931 21.5282 124.175 21.5289H146.882C148.523 21.4724 150.079 20.7723 151.22 19.5762C152.362 18.3801 153 16.7816 153 15.118C153 13.4545 152.362 11.856 151.22 10.6599C150.079 9.46379 148.523 8.76364 146.882 8.70718L146.904 8.73674Z" fill="url(#paint0_linear)"/>
<path d="M123.095 10.9168C123.095 10.1778 123.606 9.66052 124.555 9.66052C125.503 9.66052 126.014 10.1778 126.014 10.9168V11.9514C126.014 12.6904 125.503 13.2151 124.555 13.2151C123.606 13.2151 123.095 12.6904 123.095 11.9514V10.9168ZM125.284 10.9538C125.284 10.5769 125.029 10.3108 124.555 10.3108C124.464 10.2969 124.371 10.3032 124.282 10.3292C124.194 10.3552 124.112 10.4003 124.043 10.4615C123.974 10.5226 123.918 10.5983 123.88 10.6833C123.843 10.7683 123.824 10.8606 123.825 10.9538V11.9219C123.825 12.1179 123.902 12.3058 124.039 12.4444C124.175 12.583 124.361 12.6609 124.555 12.6609C124.748 12.6609 124.934 12.583 125.07 12.4444C125.207 12.3058 125.284 12.1179 125.284 11.9219V10.9538Z" fill="white"/>
<path d="M126.853 13.1338V9.73438H127.583V11.1015H128.998V9.73438H129.728V13.1338H128.998V11.7519H127.583V13.1338H126.853Z" fill="white"/>
<path d="M130.399 13.1338V12.4835H130.472C130.873 12.4835 131.041 12.21 131.041 11.641V9.73438H133.529V13.1338H132.799V10.3625H131.668V11.6336C131.668 12.6239 131.194 13.1116 130.53 13.1116L130.399 13.1338Z" fill="white"/>
<path d="M134.368 12.2175C134.368 11.4785 134.835 11.1237 135.755 11.1237H136.484V10.8577C136.484 10.4956 136.273 10.3108 135.849 10.3108C135.426 10.3108 135.222 10.5104 135.222 10.7986H134.492C134.492 10.1113 134.945 9.66052 135.813 9.66052C136.681 9.66052 137.155 10.1113 137.155 10.806V13.1338H136.747L136.477 12.7569C136.352 12.9086 136.194 13.0289 136.016 13.1084C135.837 13.1879 135.643 13.2244 135.448 13.2151C135.311 13.2274 135.173 13.2108 135.043 13.1663C134.913 13.1217 134.793 13.0503 134.692 12.9565C134.59 12.8628 134.509 12.7486 134.453 12.6214C134.398 12.4942 134.369 12.3566 134.368 12.2175ZM136.491 12.1731V11.6706H135.762C135.309 11.6706 135.083 11.8258 135.083 12.1362C135.083 12.417 135.273 12.5648 135.638 12.5648C135.799 12.5642 135.959 12.5289 136.106 12.4614C136.253 12.3939 136.384 12.2957 136.491 12.1731Z" fill="white"/>
<path d="M138.206 13.1338V9.73443H138.936V12.0253L140.395 9.73443H141.125V13.1338H140.395V10.8503L138.936 13.1338H138.206ZM138.622 8.42639H139.228V8.50029C139.228 8.73677 139.373 8.87718 139.658 8.87718C139.943 8.87718 140.096 8.75894 140.096 8.50029V8.42639H140.701V8.50768C140.701 9.06193 140.286 9.40188 139.658 9.40188C139.031 9.40188 138.637 9.06193 138.637 8.50768L138.622 8.42639Z" fill="white"/>
<path d="M142.153 13.1338V9.73438H142.883V11.1015H144.298V9.73438H145.028V13.1338H144.298V11.7519H142.883V13.1338H142.153Z" fill="white"/>
<path d="M123.095 17.3388V16.2746C123.091 16.0871 123.128 15.9008 123.202 15.729C123.276 15.5572 123.387 15.404 123.526 15.28C123.665 15.1561 123.829 15.0645 124.007 15.0116C124.185 14.9587 124.372 14.9459 124.555 14.974C124.734 14.9512 124.915 14.9683 125.087 15.024C125.259 15.0798 125.417 15.1728 125.55 15.2966C125.682 15.4205 125.787 15.5721 125.856 15.741C125.924 15.9099 125.956 16.092 125.948 16.2746H125.219C125.221 16.1871 125.204 16.1002 125.169 16.0199C125.135 15.9397 125.083 15.8679 125.019 15.8096C124.954 15.7513 124.878 15.7079 124.796 15.6823C124.713 15.6566 124.626 15.6495 124.54 15.6612C124.066 15.6612 123.81 15.8977 123.81 16.2746V17.3683C123.81 17.7452 124.051 17.9817 124.54 17.9817C124.626 17.9935 124.713 17.9863 124.796 17.9607C124.878 17.9351 124.954 17.8916 125.019 17.8333C125.083 17.775 125.135 17.7033 125.169 17.623C125.204 17.5427 125.221 17.4559 125.219 17.3683V17.3092H125.948V17.3536C125.955 17.5313 125.925 17.7085 125.858 17.8731C125.791 18.0376 125.69 18.1856 125.562 18.3069C125.277 18.5504 124.912 18.6746 124.54 18.6542C124.357 18.6802 124.17 18.6652 123.993 18.6104C123.816 18.5556 123.653 18.4623 123.516 18.337C123.378 18.2117 123.269 18.0574 123.196 17.885C123.124 17.7125 123.089 17.5261 123.095 17.3388Z" fill="white"/>
<path d="M126.685 17.3535V16.2746C126.679 16.0967 126.712 15.9196 126.781 15.756C126.851 15.5925 126.955 15.4465 127.087 15.3287C127.392 15.0818 127.776 14.9557 128.167 14.974C128.348 14.9478 128.532 14.9623 128.707 15.0164C128.882 15.0705 129.043 15.1628 129.179 15.2869C129.314 15.411 129.422 15.5638 129.492 15.7345C129.563 15.9051 129.597 16.0895 129.589 16.2746V17.0653H127.4V17.3535C127.4 17.7304 127.663 17.9817 128.13 17.9817C128.597 17.9817 128.75 17.8265 128.816 17.5161H129.546C129.528 17.6865 129.478 17.8517 129.396 18.0019C129.315 18.152 129.205 18.2841 129.072 18.3903C128.939 18.4964 128.787 18.5745 128.624 18.6198C128.461 18.6652 128.29 18.6768 128.123 18.6542C127.262 18.6394 126.685 18.1517 126.685 17.3535ZM127.415 16.4815H128.874V16.2746C128.874 15.8977 128.612 15.6612 128.145 15.6612C127.678 15.6612 127.415 15.8977 127.415 16.2746V16.4815Z" fill="white"/>
<path d="M130.508 19.6369V15.0551H130.931L131.209 15.4394C131.335 15.2866 131.494 15.1652 131.673 15.0845C131.853 15.0038 132.049 14.9659 132.245 14.9738C132.404 14.9673 132.562 14.9927 132.711 15.0485C132.86 15.1043 132.997 15.1894 133.113 15.299C133.235 15.4249 133.33 15.5757 133.39 15.7413C133.45 15.9069 133.475 16.0836 133.463 16.2597V17.3534C133.48 17.5245 133.459 17.6972 133.403 17.8593C133.346 18.0214 133.255 18.169 133.136 18.2916C133.017 18.4143 132.873 18.5089 132.714 18.569C132.555 18.6291 132.385 18.653 132.216 18.6392C132.033 18.6506 131.85 18.6184 131.681 18.5453C131.513 18.4721 131.363 18.3601 131.245 18.218V19.6369H130.508ZM132.697 17.3017V16.3114C132.702 16.2233 132.689 16.1351 132.659 16.0525C132.628 15.9699 132.58 15.8948 132.519 15.832C132.458 15.7693 132.384 15.7203 132.303 15.6883C132.222 15.6563 132.135 15.642 132.048 15.6463C131.885 15.6572 131.725 15.703 131.581 15.7807C131.436 15.8584 131.309 15.9662 131.209 16.0971V17.516C131.309 17.6468 131.436 17.7546 131.581 17.8323C131.725 17.91 131.885 17.9558 132.048 17.9668C132.138 17.9754 132.228 17.9643 132.313 17.9343C132.398 17.9044 132.476 17.8562 132.541 17.7931C132.606 17.73 132.657 17.6534 132.69 17.5686C132.723 17.4838 132.738 17.3928 132.734 17.3017H132.697Z" fill="white"/>
<path d="M134.441 18.558V15.0552H136.017C136.79 15.0552 137.177 15.3582 137.177 15.9789C137.18 16.1253 137.146 16.2701 137.079 16.3994C137.011 16.5288 136.912 16.6385 136.79 16.7179C136.954 16.7713 137.095 16.8777 137.193 17.0206C137.29 17.1636 137.339 17.3351 137.33 17.5087C137.33 18.2477 136.885 18.5211 136.083 18.5211L134.441 18.558ZM135.171 16.5184H135.988C136.043 16.5254 136.1 16.5196 136.153 16.5014C136.206 16.4832 136.254 16.453 136.294 16.4132C136.334 16.3734 136.365 16.325 136.384 16.2716C136.403 16.2181 136.41 16.161 136.404 16.1046C136.404 15.8311 136.265 15.6981 135.988 15.6981H135.171V16.5184ZM135.171 17.9151H136.126C136.183 17.9236 136.241 17.9186 136.296 17.9005C136.351 17.8825 136.4 17.8519 136.441 17.811C136.482 17.7702 136.514 17.7204 136.532 17.6653C136.551 17.6103 136.557 17.5516 136.55 17.4939C136.557 17.4364 136.552 17.3779 136.533 17.3231C136.514 17.2683 136.483 17.2187 136.442 17.1784C136.4 17.1381 136.35 17.1082 136.296 17.0911C136.241 17.074 136.183 17.0702 136.126 17.08H135.171V17.9151Z" fill="white"/>
<path d="M138.213 18.558V15.0552H138.943V17.4126L140.475 15.0552H141.205V18.558H140.475V16.2006L138.943 18.558H138.213Z" fill="white"/>
<path d="M142.124 17.3387V16.2745C142.122 16.0873 142.159 15.9017 142.234 15.7305C142.308 15.5593 142.419 15.4066 142.558 15.283C142.696 15.1593 142.86 15.0676 143.037 15.0142C143.214 14.9609 143.401 14.9471 143.584 14.9739C143.763 14.9499 143.946 14.9662 144.119 15.0213C144.291 15.0765 144.45 15.1694 144.584 15.2934C144.717 15.4173 144.822 15.5694 144.892 15.7389C144.961 15.9084 144.993 16.0912 144.985 16.2745H144.255C144.257 16.187 144.24 16.1001 144.205 16.0198C144.171 15.9395 144.12 15.8678 144.055 15.8095C143.991 15.7512 143.915 15.7078 143.832 15.6822C143.749 15.6565 143.662 15.6494 143.576 15.6611C143.102 15.6611 142.847 15.8976 142.847 16.2745V17.3682C142.847 17.7451 143.088 17.9816 143.576 17.9816C143.662 17.9934 143.749 17.9862 143.832 17.9606C143.915 17.935 143.991 17.8915 144.055 17.8332C144.12 17.7749 144.171 17.7032 144.205 17.6229C144.24 17.5426 144.257 17.4558 144.255 17.3682V17.3091H144.985V17.3534C144.992 17.5319 144.961 17.71 144.893 17.8748C144.825 18.0396 144.722 18.1871 144.591 18.3068C144.308 18.5485 143.946 18.6726 143.576 18.6541C143.393 18.6799 143.206 18.6649 143.029 18.6102C142.851 18.5554 142.688 18.4622 142.55 18.337C142.411 18.2119 142.302 18.0577 142.228 17.8853C142.155 17.7129 142.12 17.5264 142.124 17.3387Z" fill="white"/>
<defs>
<linearGradient id="paint0_linear" x1="114.872" y1="12.7643" x2="153.23" y2="12.7643" gradientUnits="userSpaceOnUse">
<stop stop-color="#01D101"/>
<stop offset="1" stop-color="#00C100"/>
</linearGradient>
</defs>
</svg>
